<svg id="Слой_1" data-name="Слой 1" xmlns="http://www.w3.org/2000/svg" xmlns:xlink="http://www.w3.org/1999/xlink" viewBox="0 0 681.61 673.67"><defs><style>.cls-1{fill:url(#linear-gradient);}.cls-2{fill:#c0cef8;}.cls-10,.cls-3,.cls-41,.cls-7{fill:#fff;}.cls-3{opacity:0.51;}.cls-4{fill:url(#linear-gradient-2);}.cls-5{fill:url(#linear-gradient-3);}.cls-6{fill:#99b0f6;}.cls-7{opacity:0.65;}.cls-8{fill:#8395f0;}.cls-9{fill:url(#linear-gradient-4);}.cls-11{fill:url(#linear-gradient-5);}.cls-12{fill:url(#linear-gradient-6);}.cls-13{fill:url(#linear-gradient-7);}.cls-14{fill:url(#linear-gradient-8);}.cls-15{fill:url(#linear-gradient-9);}.cls-16{fill:url(#linear-gradient-10);}.cls-17{fill:url(#linear-gradient-11);}.cls-18{fill:url(#linear-gradient-12);}.cls-19{fill:url(#linear-gradient-13);}.cls-20{fill:url(#linear-gradient-14);}.cls-21{fill:url(#linear-gradient-15);}.cls-22{fill:url(#linear-gradient-16);}.cls-23{fill:url(#linear-gradient-17);}.cls-24{fill:url(#linear-gradient-18);}.cls-25{fill:url(#linear-gradient-19);}.cls-26{fill:url(#linear-gradient-20);}.cls-27{fill:url(#linear-gradient-21);}.cls-28{fill:url(#linear-gradient-22);}.cls-29{fill:url(#linear-gradient-23);}.cls-30{fill:url(#linear-gradient-24);}.cls-31{fill:url(#linear-gradient-25);}.cls-32{fill:url(#linear-gradient-26);}.cls-33{fill:url(#linear-gradient-27);}.cls-34{fill:url(#linear-gradient-28);}.cls-35{fill:url(#linear-gradient-29);}.cls-36{fill:url(#linear-gradient-30);}.cls-37{fill:url(#linear-gradient-31);}.cls-38{fill:url(#linear-gradient-32);}.cls-39{fill:url(#linear-gradient-33);}.cls-40{fill:url(#linear-gradient-34);}.cls-41{opacity:0.7;}.cls-42{fill:url(#linear-gradient-35);}.cls-43{fill:url(#linear-gradient-36);}.cls-44{fill:url(#linear-gradient-37);}.cls-45{fill:url(#linear-gradient-38);}.cls-46{fill:url(#linear-gradient-39);}.cls-47{fill:url(#linear-gradient-40);}.cls-48{fill:url(#linear-gradient-41);}.cls-49{fill:url(#linear-gradient-42);}.cls-50{fill:url(#linear-gradient-43);}.cls-51{fill:url(#linear-gradient-44);}.cls-52{fill:url(#linear-gradient-45);}.cls-53{fill:url(#linear-gradient-46);}.cls-54{fill:url(#linear-gradient-47);}.cls-55{fill:url(#linear-gradient-48);}.cls-56{fill:url(#linear-gradient-49);}.cls-57{fill:url(#linear-gradient-50);}.cls-58{fill:url(#linear-gradient-51);}.cls-59{fill:url(#linear-gradient-52);}.cls-60{fill:url(#linear-gradient-53);}.cls-61{fill:url(#linear-gradient-54);}.cls-62{fill:url(#linear-gradient-55);}.cls-63{fill:url(#linear-gradient-56);}.cls-64{fill:url(#linear-gradient-57);}.cls-65{fill:url(#linear-gradient-58);}.cls-66{fill:url(#linear-gradient-59);}.cls-67{fill:url(#linear-gradient-60);}.cls-68{fill:url(#linear-gradient-61);}.cls-69{fill:url(#linear-gradient-62);}.cls-70{fill:url(#linear-gradient-63);}.cls-71{fill:url(#linear-gradient-64);}</style><linearGradient id="linear-gradient" x1="1115.55" y1="894.83" x2="515.08" y2="149.07" gradientUnits="userSpaceOnUse"><stop offset="0" stop-color="#dbe1fc"/><stop offset="1" stop-color="#e9edfb"/></linearGradient><linearGradient id="linear-gradient-2" x1="391.24" y1="475.26" x2="508.66" y2="224.12" gradientUnits="userSpaceOnUse"><stop offset="0" stop-color="#0f005c"/><stop offset="1" stop-color="#1e168c"/></linearGradient><linearGradient id="linear-gradient-3" x1="694.33" y1="44.15" x2="694.33" y2="309.97" xlink:href="#linear-gradient-2"/><linearGradient id="linear-gradient-4" x1="768.38" y1="933.59" x2="727.61" y2="734.64" xlink:href="#linear-gradient-2"/><linearGradient id="linear-gradient-5" x1="-1288.36" y1="-487.07" x2="-1459.83" y2="-59.75" gradientTransform="translate(2280.91 47.19) rotate(-16.79)" gradientUnits="userSpaceOnUse"><stop offset="0" stop-color="#4344dc"/><stop offset="1" stop-color="#5153fa"/></linearGradient><linearGradient id="linear-gradient-6" x1="-1385.33" y1="-525.98" x2="-1556.8" y2="-98.67" xlink:href="#linear-gradient-5"/><linearGradient id="linear-gradient-7" x1="-1412.7" y1="-536.97" x2="-1584.17" y2="-109.65" xlink:href="#linear-gradient-5"/><linearGradient id="linear-gradient-8" x1="-1400.15" y1="-531.93" x2="-1571.62" y2="-104.62" xlink:href="#linear-gradient-5"/><linearGradient id="linear-gradient-9" x1="-1315.94" y1="-498.13" x2="-1487.4" y2="-70.83" xlink:href="#linear-gradient-5"/><linearGradient id="linear-gradient-10" x1="-1409.42" y1="-535.65" x2="-1580.9" y2="-108.34" xlink:href="#linear-gradient-5"/><linearGradient id="linear-gradient-11" x1="-1409.63" y1="-535.74" x2="-1581.1" y2="-108.42" xlink:href="#linear-gradient-5"/><linearGradient id="linear-gradient-12" x1="-1365.68" y1="-518.1" x2="-1537.15" y2="-90.79" xlink:href="#linear-gradient-5"/><linearGradient id="linear-gradient-13" x1="-1342.15" y1="-508.65" x2="-1513.62" y2="-81.35" xlink:href="#linear-gradient-5"/><linearGradient id="linear-gradient-14" x1="-1400.59" y1="-532.11" x2="-1572.06" y2="-104.79" xlink:href="#linear-gradient-5"/><linearGradient id="linear-gradient-15" x1="-1263.37" y1="-477.04" x2="-1434.84" y2="-49.72" xlink:href="#linear-gradient-5"/><linearGradient id="linear-gradient-16" x1="-1294.95" y1="-489.73" x2="-1466.43" y2="-62.4" xlink:href="#linear-gradient-5"/><linearGradient id="linear-gradient-17" x1="-1174.03" y1="-435.85" x2="-1345.5" y2="-8.53" xlink:href="#linear-gradient-5"/><linearGradient id="linear-gradient-18" x1="-1156.29" y1="-428.73" x2="-1327.76" y2="-1.42" xlink:href="#linear-gradient-5"/><linearGradient id="linear-gradient-19" x1="-1155.41" y1="-428.38" x2="-1326.88" y2="-1.06" xlink:href="#linear-gradient-5"/><linearGradient id="linear-gradient-20" x1="-1171.42" y1="-434.8" x2="-1342.89" y2="-7.49" xlink:href="#linear-gradient-5"/><linearGradient id="linear-gradient-21" x1="-1207.98" y1="-449.47" x2="-1379.44" y2="-22.16" xlink:href="#linear-gradient-5"/><linearGradient id="linear-gradient-22" x1="-1187.48" y1="-441.25" x2="-1358.95" y2="-13.93" xlink:href="#linear-gradient-5"/><linearGradient id="linear-gradient-23" x1="-1160.55" y1="-430.44" x2="-1332.02" y2="-3.12" xlink:href="#linear-gradient-5"/><linearGradient id="linear-gradient-24" x1="-1258.19" y1="-469.61" x2="-1429.65" y2="-42.31" xlink:href="#linear-gradient-5"/><linearGradient id="linear-gradient-25" x1="-1231.94" y1="-459.08" x2="-1403.41" y2="-31.77" xlink:href="#linear-gradient-5"/><linearGradient id="linear-gradient-26" x1="-1163.13" y1="-431.48" x2="-1334.6" y2="-4.16" xlink:href="#linear-gradient-5"/><linearGradient id="linear-gradient-27" x1="-1319.42" y1="-499.54" x2="-1490.9" y2="-72.22" xlink:href="#linear-gradient-5"/><linearGradient id="linear-gradient-28" x1="164.1" y1="499.78" x2="191.01" y2="270.65" gradientTransform="translate(633.93 388.12) rotate(11.18)" xlink:href="#linear-gradient-2"/><linearGradient id="linear-gradient-29" x1="882.19" y1="194.24" x2="924.91" y2="194.24" gradientTransform="matrix(1, 0, 0, 1, 0, 0)" xlink:href="#linear-gradient-5"/><linearGradient id="linear-gradient-30" x1="899.41" y1="185.45" x2="959.94" y2="185.45" gradientTransform="matrix(1, 0, 0, 1, 0, 0)" xlink:href="#linear-gradient-5"/><linearGradient id="linear-gradient-31" x1="81.99" y1="490.14" x2="108.9" y2="261.01" gradientTransform="translate(633.93 388.12) rotate(11.18)" xlink:href="#linear-gradient-2"/><linearGradient id="linear-gradient-32" x1="858.39" y1="161.89" x2="905.5" y2="161.89" gradientTransform="matrix(1, 0, 0, 1, 0, 0)" xlink:href="#linear-gradient-5"/><linearGradient id="linear-gradient-33" x1="824.26" y1="157.3" x2="915.91" y2="157.3" gradientTransform="matrix(1, 0, 0, 1, 0, 0)" xlink:href="#linear-gradient-5"/><linearGradient id="linear-gradient-34" x1="502.92" y1="-46.85" x2="441.67" y2="191.49" gradientTransform="translate(217.93 -291.4) rotate(45)" gradientUnits="userSpaceOnUse"><stop offset="0" stop-color="#df6f63"/><stop offset="1" stop-color="#e5908c"/></linearGradient><linearGradient id="linear-gradient-35" x1="677.21" y1="-160.36" x2="581.64" y2="-44.82" gradientUnits="userSpaceOnUse"><stop offset="0" stop-color="#c24940"/><stop offset="1" stop-color="#cc605b"/></linearGradient><linearGradient id="linear-gradient-36" x1="698.89" y1="-142.43" x2="603.32" y2="-26.89" xlink:href="#linear-gradient-35"/><linearGradient id="linear-gradient-37" x1="662.93" y1="92.19" x2="722.21" y2="427.65" xlink:href="#linear-gradient-2"/><linearGradient id="linear-gradient-38" x1="819.14" y1="136.39" x2="512.39" y2="846.85" gradientTransform="matrix(1, 0, 0, 1, 0, 0)" xlink:href="#linear-gradient-34"/><linearGradient id="linear-gradient-39" x1="628.42" y1="351.46" x2="785.08" y2="-29.47" xlink:href="#linear-gradient-2"/><linearGradient id="linear-gradient-40" x1="668.8" y1="368.06" x2="825.46" y2="-12.86" xlink:href="#linear-gradient-2"/><linearGradient id="linear-gradient-41" x1="718.19" y1="388.37" x2="874.85" y2="7.45" xlink:href="#linear-gradient-2"/><linearGradient id="linear-gradient-42" x1="635.52" y1="354.38" x2="792.18" y2="-26.55" xlink:href="#linear-gradient-2"/><linearGradient id="linear-gradient-43" x1="663.42" y1="365.85" x2="820.08" y2="-15.08" xlink:href="#linear-gradient-2"/><linearGradient id="linear-gradient-44" x1="691.7" y1="377.48" x2="848.35" y2="-3.45" xlink:href="#linear-gradient-2"/><linearGradient id="linear-gradient-45" x1="720.37" y1="389.27" x2="877.03" y2="8.35" xlink:href="#linear-gradient-2"/><linearGradient id="linear-gradient-46" x1="752.12" y1="402.33" x2="908.78" y2="21.4" xlink:href="#linear-gradient-2"/><linearGradient id="linear-gradient-47" x1="2953.96" y1="653.33" x2="2786.36" y2="835.63" gradientTransform="translate(-2400.04)" xlink:href="#linear-gradient-2"/><linearGradient id="linear-gradient-48" x1="2899.56" y1="666.87" x2="2914.45" y2="666.87" gradientTransform="translate(-2400.04)" gradientUnits="userSpaceOnUse"><stop offset="0" stop-color="#ecb9b8"/><stop offset="1" stop-color="#e5908c"/></linearGradient><linearGradient id="linear-gradient-49" x1="2017.96" y1="1573.75" x2="2178.43" y2="1385.67" gradientTransform="translate(-2400.04)" gradientUnits="userSpaceOnUse"><stop offset="0" stop-color="#08003a"/><stop offset="1" stop-color="#0f0055"/></linearGradient><linearGradient id="linear-gradient-50" x1="2916.36" y1="618.76" x2="2748.76" y2="801.06" gradientTransform="translate(-2400.04)" xlink:href="#linear-gradient-2"/><linearGradient id="linear-gradient-51" x1="2845.91" y1="666.1" x2="2858.76" y2="666.1" xlink:href="#linear-gradient-48"/><linearGradient id="linear-gradient-52" x1="1995.46" y1="1554.56" x2="2155.94" y2="1366.48" xlink:href="#linear-gradient-49"/><linearGradient id="linear-gradient-53" x1="552.87" y1="270.84" x2="494.98" y2="433.91" gradientUnits="userSpaceOnUse"><stop offset="0" stop-color="#5153fa"/><stop offset="1" stop-color="#4344dc"/></linearGradient><linearGradient id="linear-gradient-54" x1="-10932.22" y1="2366.55" x2="-11099.18" y2="2580.16" gradientTransform="translate(1676.68 -10902.25) rotate(-71.74)" xlink:href="#linear-gradient-48"/><linearGradient id="linear-gradient-55" x1="-10909.49" y1="2384.31" x2="-11076.45" y2="2597.92" gradientTransform="translate(1676.68 -10902.25) rotate(-71.74)" xlink:href="#linear-gradient-48"/><linearGradient id="linear-gradient-56" x1="503.33" y1="253.25" x2="445.44" y2="416.33" xlink:href="#linear-gradient-53"/><linearGradient id="linear-gradient-57" x1="435.84" y1="229.29" x2="377.95" y2="392.37" xlink:href="#linear-gradient-53"/><linearGradient id="linear-gradient-58" x1="-5660.93" y1="878.43" x2="-5689.65" y2="1002.53" gradientTransform="translate(6187.71 870.72) rotate(15.02)" xlink:href="#linear-gradient-48"/><linearGradient id="linear-gradient-59" x1="-3195.74" y1="1133.72" x2="-3300.67" y2="1184.72" gradientTransform="matrix(-0.95, 0.33, 0.33, 0.95, -2979.93, 209.74)" xlink:href="#linear-gradient-48"/><linearGradient id="linear-gradient-60" x1="-5949.88" y1="-5020.05" x2="-5892.05" y2="-5020.05" gradientTransform="translate(8170.2 1404.33) rotate(-31.72)" xlink:href="#linear-gradient-2"/><linearGradient id="linear-gradient-61" x1="-3190.07" y1="1145.38" x2="-3295.01" y2="1196.37" gradientTransform="matrix(-0.95, 0.33, 0.33, 0.95, -2979.93, 209.74)" xlink:href="#linear-gradient-48"/><linearGradient id="linear-gradient-62" x1="-3393.68" y1="1236.27" x2="-3300.88" y2="1300.62" gradientTransform="matrix(-1, -0.01, -0.01, 1, -2902.86, -1047.68)" xlink:href="#linear-gradient-48"/><linearGradient id="linear-gradient-63" x1="-3391.79" y1="1234.41" x2="-3295.25" y2="1301.35" gradientTransform="matrix(-1, -0.01, -0.01, 1, -2902.86, -1047.68)" xlink:href="#linear-gradient-48"/><linearGradient id="linear-gradient-64" x1="413.11" y1="221.22" x2="355.21" y2="384.3" xlink:href="#linear-gradient-53"/></defs><title>404</title><path class="cls-1" d="M952.21,599.44c-13.89,14.45-27,23.77-37.43,31.13-122.09,86.55-266.56,61.32-297.27,55.16-45.34-9.1-133-26.68-196.35-100.3-95.86-111.37-80.94-286.83-6.58-402.65C428.19,161.59,500,44,646.06,25.15c88.38-11.42,191.39,11.6,266,73.35C1068.65,228.1,1057.5,489.93,952.21,599.44Z" transform="translate(-354 -22.33)"/><path class="cls-2" d="M633,641c-4.27-77-32.82-147.17-134.15-197.12C498.8,443.91,483.07,632.71,633,641Z" transform="translate(-354 -22.33)"/><path class="cls-3" d="M605.12,607.62a.78.78,0,0,1-.57-.23c-57.32-55.94-93.13-138-93.48-138.83a.82.82,0,1,1,1.5-.64c.35.81,36,82.59,93.12,138.3a.82.82,0,0,1-.57,1.4Z" transform="translate(-354 -22.33)"/><path class="cls-2" d="M809.6,636.23c69.21,6.39,135.61-9.77,193.59-93.53C1003.19,542.7,836.88,503.66,809.6,636.23Z" transform="translate(-354 -22.33)"/><path class="cls-3" d="M848.87,613.62a.8.8,0,0,1-.52-.19.81.81,0,0,1-.1-1.15c20.69-24.39,54.57-39.89,79.34-48.59a328.91,328.91,0,0,1,49.26-13.18.82.82,0,0,1,.27,1.61c-.89.14-88.46,15-127.63,61.21A.81.81,0,0,1,848.87,613.62Z" transform="translate(-354 -22.33)"/><polygon class="cls-4" points="286.97 468.04 272.42 598.55 441.25 598.55 419.26 468.04 286.97 468.04"/><path class="cls-5" d="M357.37,168.82v298.9a45.34,45.34,0,0,0,44.17,45.33c109.18,2.82,491,9.64,594.93,8.11a33.35,33.35,0,0,0,32.85-32.41c2-69.44,5.26-236.42-6.78-313.94a34.35,34.35,0,0,0-32.83-29.06c-91.48-2.92-496.24-12.21-600.12-9.88A33,33,0,0,0,357.37,168.82Z" transform="translate(-354 -22.33)"/><path class="cls-6" d="M376.13,167.37v284A26.26,26.26,0,0,0,402,477.61l579.52,7.16a25.56,25.56,0,0,0,26-25.47l1-281.43A18.7,18.7,0,0,0,990.2,159.1l-593.32-12A20.25,20.25,0,0,0,376.13,167.37Z" transform="translate(-354 -22.33)"/><path class="cls-7" d="M1011.84,496.42h0L376.11,485.59a.82.82,0,0,1-.8-.83.84.84,0,0,1,.83-.8l635.71,10.83a.82.82,0,0,1,0,1.63Z" transform="translate(-354 -22.33)"/><path class="cls-7" d="M700.25,509.65a7.43,7.43,0,1,1,7.43-7.43A7.43,7.43,0,0,1,700.25,509.65Zm0-13.23a5.8,5.8,0,1,0,5.8,5.8A5.8,5.8,0,0,0,700.25,496.42Z" transform="translate(-354 -22.33)"/><path class="cls-8" d="M799.42,639.85C873.66,603,930.93,545,937.32,423.72,937.32,423.72,744.1,488.23,799.42,639.85Z" transform="translate(-354 -22.33)"/><path class="cls-3" d="M811.43,612.47a.86.86,0,0,1-.27-.05.81.81,0,0,1-.5-1c17.72-50.51,44.06-89.47,63-113.24,20.56-25.78,37.17-39.8,37.34-39.94a.81.81,0,1,1,1,1.25c-.65.55-66.11,56.23-99.87,152.47A.81.81,0,0,1,811.43,612.47Z" transform="translate(-354 -22.33)"/><path class="cls-9" d="M831.61,647.58H584.52c-6.71,0-11.75-4.78-10.45-9.91l3.17-12.54c1-3.77,5.1-6.54,10-6.69L825.47,611c5.15-.16,9.71,2.58,10.83,6.49l5.72,20C843.5,642.66,838.44,647.58,831.61,647.58Z" transform="translate(-354 -22.33)"/><path class="cls-10" d="M717.54,621.84a.81.81,0,0,1-.82-.8.83.83,0,0,1,.8-.83l10.21-.15h0a.82.82,0,0,1,.82.81.8.8,0,0,1-.8.82l-10.21.15Z" transform="translate(-354 -22.33)"/><path class="cls-10" d="M583.21,640.68h-.12a.82.82,0,0,1-.68-.94l1.45-9.12a10.2,10.2,0,0,1,9.93-8.59l108.26-1.58h0a.82.82,0,0,1,0,1.63l-108.27,1.58a8.56,8.56,0,0,0-8.34,7.22L584,640A.83.83,0,0,1,583.21,640.68Z" transform="translate(-354 -22.33)"/><path class="cls-11" d="M892.88,46.35c3.7.17,7.42.51,11.08,1a3.36,3.36,0,0,0,1.45-.11,3.43,3.43,0,0,0-.53-6.69c-3.85-.52-7.78-.88-11.67-1.06a3.43,3.43,0,1,0-.33,6.86Z" transform="translate(-354 -22.33)"/><path class="cls-12" d="M796.65,77.51a3.43,3.43,0,0,0-4.85-.11c-2.81,2.7-5.54,5.54-8.1,8.46a3.43,3.43,0,1,0,5.15,4.54c2.44-2.78,5-5.48,7.7-8A3.42,3.42,0,0,0,796.65,77.51Z" transform="translate(-354 -22.33)"/><path class="cls-13" d="M754.53,155.13a3.43,3.43,0,0,0-3.86,2.94c-.53,3.86-.89,7.78-1.08,11.66a3.43,3.43,0,1,0,6.86.34c.18-3.69.53-7.41,1-11.07A3.44,3.44,0,0,0,754.53,155.13Z" transform="translate(-354 -22.33)"/><path class="cls-14" d="M776.91,100a3.43,3.43,0,0,0-4.76,1c-2.14,3.26-4.17,6.63-6,10a3.43,3.43,0,0,0,1.38,4.66,3.38,3.38,0,0,0,2.63.27,3.44,3.44,0,0,0,2-1.64c1.77-3.24,3.7-6.45,5.73-9.54A3.43,3.43,0,0,0,776.91,100Z" transform="translate(-354 -22.33)"/><path class="cls-15" d="M863.79,48.25c3.64-.65,7.35-1.15,11-1.49a3,3,0,0,0,.67-.14,3.43,3.43,0,0,0-1.31-6.7c-3.87.36-7.77.89-11.6,1.57a3.43,3.43,0,1,0,1.21,6.76Z" transform="translate(-354 -22.33)"/><path class="cls-16" d="M762.63,126.3a3.45,3.45,0,0,0-4.43,2c-1.37,3.64-2.6,7.38-3.66,11.13a3.43,3.43,0,0,0,2.38,4.23,3.39,3.39,0,0,0,1.92,0,3.48,3.48,0,0,0,2.32-2.36c1-3.56,2.17-7.11,3.47-10.57A3.44,3.44,0,0,0,762.63,126.3Z" transform="translate(-354 -22.33)"/><path class="cls-17" d="M753.09,185a3.45,3.45,0,0,0-3.11,3.74c.35,3.86.87,7.76,1.55,11.6a3.43,3.43,0,0,0,4,2.78,2.59,2.59,0,0,0,.4-.09,3.46,3.46,0,0,0,2.39-3.89c-.65-3.65-1.15-7.35-1.48-11A3.44,3.44,0,0,0,753.09,185Z" transform="translate(-354 -22.33)"/><path class="cls-18" d="M809.4,71.31a3.45,3.45,0,0,0,1-.5c3-2.16,6.12-4.22,9.29-6.11a3.44,3.44,0,0,0-3.53-5.9c-3.33,2-6.62,4.16-9.78,6.44a3.43,3.43,0,0,0,3,6.07Z" transform="translate(-354 -22.33)"/><path class="cls-19" d="M835.48,56.66l.34-.13c3.4-1.43,6.91-2.74,10.43-3.88a3.44,3.44,0,0,0-2-6.56l-.07,0c-3.71,1.2-7.4,2.58-11,4.09a3.44,3.44,0,0,0,2.33,6.46Z" transform="translate(-354 -22.33)"/><path class="cls-20" d="M762.64,216.66a3.47,3.47,0,0,0-4.27-2.28l-.07,0a3.46,3.46,0,0,0-2.2,4.37c1.2,3.71,2.6,7.51,4.1,11.09a3.42,3.42,0,0,0,4.15,1.93c.11,0,.21-.13.32-.18a3.42,3.42,0,0,0,1.84-4.49C765.09,223.73,763.78,220.19,762.64,216.66Z" transform="translate(-354 -22.33)"/><path class="cls-21" d="M931.2,50.37a3.42,3.42,0,0,0-2.2-4.32c-1.77-.58-3.58-1.13-5.39-1.64A3.44,3.44,0,1,0,921.75,51c1.72.48,3.44,1,5.12,1.55a3.45,3.45,0,0,0,2.06,0A3.4,3.4,0,0,0,931.2,50.37Z" transform="translate(-354 -22.33)"/><path class="cls-22" d="M873.9,306.29c-3.62-.36-7.27-.87-10.84-1.53a3.43,3.43,0,1,0-1.24,6.75c3.76.7,7.6,1.24,11.41,1.61a3.29,3.29,0,0,0,1.33-.13,3.43,3.43,0,0,0-.66-6.7Z" transform="translate(-354 -22.33)"/><path class="cls-23" d="M1015.62,125.56a3.42,3.42,0,0,0,4.07,1.79,3.28,3.28,0,0,0,.52-.2,3.44,3.44,0,0,0,1.59-4.59c-.82-1.68-1.68-3.37-2.57-5a3.43,3.43,0,0,0-6.05,3.25C1014,122.36,1014.84,124,1015.62,125.56Z" transform="translate(-354 -22.33)"/><path class="cls-24" d="M1031.22,166.39a3.43,3.43,0,0,0-3.08,3.75c.35,3.62.55,7.29.6,10.92a3.44,3.44,0,0,0,3.48,3.4,3.77,3.77,0,0,0,1-.15,3.45,3.45,0,0,0,2.44-3.33c0-3.82-.26-7.69-.63-11.51A3.44,3.44,0,0,0,1031.22,166.39Z" transform="translate(-354 -22.33)"/><path class="cls-25" d="M1031.57,195.85a3.42,3.42,0,0,0-3.83,3c-.45,3.6-1.07,7.23-1.83,10.79a3.43,3.43,0,0,0,2.65,4.07,3.36,3.36,0,0,0,1.7-.06,3.44,3.44,0,0,0,2.37-2.58c.8-3.75,1.45-7.57,1.92-11.37A3.42,3.42,0,0,0,1031.57,195.85Z" transform="translate(-354 -22.33)"/><path class="cls-26" d="M1008.39,252.48c-1.95,3.06-4.06,6.09-6.26,9a3.43,3.43,0,0,0,3.73,5.36,3.38,3.38,0,0,0,1.74-1.21c2.32-3.05,4.53-6.23,6.58-9.46a3.43,3.43,0,1,0-5.79-3.68Z" transform="translate(-354 -22.33)"/><path class="cls-27" d="M968.06,292.76c-3.08,1.94-6.27,3.78-9.49,5.45a3.44,3.44,0,0,0,2.57,6.34,3.75,3.75,0,0,0,.6-.24c3.39-1.77,6.75-3.7,10-5.74a3.44,3.44,0,0,0-3.67-5.81Z" transform="translate(-354 -22.33)"/><path class="cls-28" d="M990.44,274.86c-2.57,2.57-5.28,5.06-8.06,7.4a3.43,3.43,0,0,0,3.21,5.91,3.3,3.3,0,0,0,1.22-.66c2.92-2.46,5.78-5.09,8.49-7.8a3.43,3.43,0,1,0-4.86-4.85Z" transform="translate(-354 -22.33)"/><path class="cls-29" d="M1025.43,224.66a3.43,3.43,0,0,0-4.4,2.06c-1.23,3.42-2.63,6.83-4.15,10.14a3.44,3.44,0,0,0,1.69,4.55,3.43,3.43,0,0,0,4.56-1.69c1.6-3.48,3.06-7.07,4.36-10.66A3.43,3.43,0,0,0,1025.43,224.66Z" transform="translate(-354 -22.33)"/><path class="cls-30" d="M914.34,311.93c-3.61.45-7.28.75-10.91.89a3.44,3.44,0,0,0,.27,6.87c3.82-.16,7.69-.47,11.49-.95a2.62,2.62,0,0,0,.57-.12,3.43,3.43,0,0,0-1.42-6.69Z" transform="translate(-354 -22.33)"/><path class="cls-31" d="M942.27,305.3c-3.4,1.21-6.91,2.3-10.46,3.24a3.43,3.43,0,1,0,1.76,6.64c1.54-.41,3.06-.84,4.58-1.29,2.16-.66,4.32-1.37,6.42-2.12a3.43,3.43,0,1,0-2.3-6.47Z" transform="translate(-354 -22.33)"/><path class="cls-32" d="M1028.8,139.92a3.4,3.4,0,0,0-4.33-2.2,3.44,3.44,0,0,0-2.2,4.33c.29.92.58,1.84.86,2.76.78,2.56,1.48,5.18,2.09,7.79a3.45,3.45,0,0,0,4.14,2.55l.2-.06a3.43,3.43,0,0,0,2.35-4.07c-.65-2.74-1.39-5.5-2.2-8.19C1029.42,141.85,1029.11,140.89,1028.8,139.92Z" transform="translate(-354 -22.33)"/><path class="cls-33" d="M845.75,300.31c-1.67-.55-3.37-1.15-5-1.78a3.43,3.43,0,0,0-2.42,6.42c1.75.67,3.54,1.3,5.31,1.89a3.37,3.37,0,0,0,2.06,0,3.43,3.43,0,0,0,.09-6.55Z" transform="translate(-354 -22.33)"/><path class="cls-34" d="M999.17,148l-19.33-2.73a85,85,0,0,0-14.53-22.19l-24.95,4.79-19.08,20.68,16.84,36.46-42.61-1.43L870.6,202.17,874,234.9l-26.19-5.08-8.92,8.84-5,18.82a1.59,1.59,0,0,0,.65,1.74l19.43,13.11a1.62,1.62,0,0,0,1.87-.05l15.61-11.75a84.88,84.88,0,0,0,27,5.5l9.78,16.91a1.6,1.6,0,0,0,1.69.77l23-4.47a1.59,1.59,0,0,0,1.28-1.35l2.73-19.34a85,85,0,0,0,23-15.23l18.87,5.05a1.61,1.61,0,0,0,1.75-.65l13.1-19.43a1.58,1.58,0,0,0-.05-1.86l-11.75-15.61a85,85,0,0,0,5.51-27l16.91-9.77a1.62,1.62,0,0,0,.77-1.7l-4.47-23A1.63,1.63,0,0,0,999.17,148Z" transform="translate(-354 -22.33)"/><path class="cls-35" d="M909.43,196.81a18.08,18.08,0,0,1-22.83-6.54l-4.41,3.29a23.53,23.53,0,0,0,42.72-8.9l-5.57-.19A18,18,0,0,1,909.43,196.81Z" transform="translate(-354 -22.33)"/><path class="cls-36" d="M957.42,163.19a57.39,57.39,0,0,0-21.71-30.25l-1.87,2a54.71,54.71,0,0,1,20.95,29,56.13,56.13,0,0,1,1.37,5.51,55.23,55.23,0,0,1-43.64,64.69,55.53,55.53,0,0,1-11.7,1,1.37,1.37,0,0,0-1.41,1.34,1.54,1.54,0,0,0,.06.43,1.38,1.38,0,0,0,1.29,1c.23,0,.46-.12.7-.12s.24-.12.35-.12h.13a58.53,58.53,0,0,0,9.25-.62c.62-.1,1.24-.14,1.86-.27a57.92,57.92,0,0,0,44.37-73.63Z" transform="translate(-354 -22.33)"/><path class="cls-37" d="M854,220l-3.22-31.18,24.91-18.55,41.51,1.39a.68.68,0,0,0,.64-1l-16.38-35.46,19.08-20.68,25-4.79c-.23-.27-.46-.54-.7-.79l5.05-18.88a1.61,1.61,0,0,0-.66-1.74L929.77,75.27a1.61,1.61,0,0,0-1.86,0L912.3,87.07a85.23,85.23,0,0,0-27-5.51l-9.77-16.9a1.58,1.58,0,0,0-1.7-.77l-23,4.47a1.59,1.59,0,0,0-1.28,1.35L846.8,89a85.13,85.13,0,0,0-23,15.23l-18.88-5a1.61,1.61,0,0,0-1.74.66l-13.11,19.43a1.61,1.61,0,0,0,0,1.86l11.75,15.61a85.27,85.27,0,0,0-5.5,27l-16.91,9.77a1.61,1.61,0,0,0-.77,1.7l4.47,23a1.62,1.62,0,0,0,1.35,1.29l19.34,2.72a84.9,84.9,0,0,0,15.23,23l0,.06,8.92-8.84,24.67,4.78A1.15,1.15,0,0,0,854,220Z" transform="translate(-354 -22.33)"/><path class="cls-38" d="M866.8,176.94a18.36,18.36,0,0,1-1.2-2.12,18.07,18.07,0,0,1,8.67-24,16.51,16.51,0,0,1,2.5-1,18,18,0,0,1,22.77,21.31l5.57.2a23.55,23.55,0,1,0-44.48,5.81,23.2,23.2,0,0,0,1.76,3.08Z" transform="translate(-354 -22.33)"/><path class="cls-39" d="M914.58,118.68a57.92,57.92,0,0,0-89.25,59.07q.57,2.91,1.41,5.71a57.64,57.64,0,0,0,12.33,21.92,1.37,1.37,0,0,0,2.33-1.31,1.22,1.22,0,0,0-.29-.52,55.15,55.15,0,0,1-11.74-20.88c-.53-1.78-1-3.6-1.34-5.44a55.19,55.19,0,0,1,85-56.28l1,.7,1.88-2C915.47,119.3,915,119,914.58,118.68Z" transform="translate(-354 -22.33)"/><circle class="cls-10" cx="460.72" cy="117.36" r="67.56" transform="translate(-365.97 44.01) rotate(-8.13)"/><circle class="cls-40" cx="460.72" cy="117.36" r="65.31" transform="translate(-302.05 337.82) rotate(-45)"/><path class="cls-41" d="M514.58,90.92a.68.68,0,0,0,.61-1,61.08,61.08,0,0,0-65.47-32.55.69.69,0,1,0,.25,1.36,59.68,59.68,0,0,1,64,31.81A.69.69,0,0,0,514.58,90.92Z" transform="translate(-354 -22.33)"/><circle class="cls-10" cx="459.3" cy="118.79" r="55.28" transform="translate(-141.49 501.62) rotate(-73.16)"/><path class="cls-42" d="M462.72,129.53l-6.26-.14a3.48,3.48,0,0,1-3.28-3.29L450.89,82a2.86,2.86,0,0,1,.91-2.27,3,3,0,0,1,2.38-.75l10.78.75a3.3,3.3,0,0,1,3.21,3.45l-2.23,43.27A3.18,3.18,0,0,1,462.72,129.53Z" transform="translate(-354 -22.33)"/><path class="cls-43" d="M453.06,140.3a9,9,0,0,1,6.59-2.17q4.37.08,6.63,2.3c1.51,1.49,2.26,3.65,2.26,6.51a8.5,8.5,0,0,1-2.31,6.38,10.48,10.48,0,0,1-13.14-.07,8.69,8.69,0,0,1-2.38-6.46A8.59,8.59,0,0,1,453.06,140.3Z" transform="translate(-354 -22.33)"/><path class="cls-44" d="M707.35,87.93,532.94,381c-3.83,6.44,1.18,14.31,9.14,14.37l345.72,2.85c8,.06,13.15-7.78,9.38-14.27L725.87,88C721.93,81.23,711.37,81.17,707.35,87.93Z" transform="translate(-354 -22.33)"/><path class="cls-45" d="M708.23,105.44,549.83,371.58c-3.47,5.84,1.07,13,8.3,13.05l314,2.58c7.25.06,11.93-7.06,8.52-13L725.05,105.53C721.47,99.35,711.88,99.3,708.23,105.44Z" transform="translate(-354 -22.33)"/><path class="cls-46" d="M681,287.8l-7.74.1v13.82l-13.35.23V288.08l-27.9.36v-9.91L660.66,235h12.6V277l7.74-.08Zm-21.09-10.71V265.74q0-2.83.22-8.23c.15-3.6.27-5.7.35-6.28h-.35a51.73,51.73,0,0,1-4,7.34l-12,18.67Z" transform="translate(-354 -22.33)"/><path class="cls-47" d="M732,267.93q0,17.19-5.37,25.53T710.05,302q-10.95.19-16.56-8.34t-5.6-25.4q0-17.58,5.45-25.92t16.71-8.3q10.91,0,16.45,8.65T732,267.93Zm-30.78.24q0,12.18,2,17.42t6.77,5.18q4.66-.07,6.73-5.41T718.84,268q0-12.12-2.09-17.41c-1.39-3.52-3.62-5.29-6.7-5.28s-5.39,1.78-6.75,5.33S701.26,260.05,701.26,268.17Z" transform="translate(-354 -22.33)"/><path class="cls-48" d="M785.11,286.45l-7.32.1V300l-12.62.21V286.71l-26.35.34v-9.63l27.06-42.27h11.91v40.75l7.32-.08ZM765.17,276V265q0-2.76.21-8t.34-6.09h-.34a51.08,51.08,0,0,1-3.73,7.13l-11.3,18.15Z" transform="translate(-354 -22.33)"/><path class="cls-49" d="M650.87,360.18l-20.6.66V324l20.6-.46v6.36l-13,.31v8.07L650,338v6.36l-12.09.34v9.47l13-.39Z" transform="translate(-354 -22.33)"/><path class="cls-50" d="M667,345.67v14l-7.49.24V323.38l10.29-.23q7.17-.16,10.59,2.46t3.43,8.1a10.13,10.13,0,0,1-1.7,5.74,11.84,11.84,0,0,1-4.82,4q7.91,12,10.29,15.51l-8.23.26L671,345.56Zm0-6.28,2.41-.06a9.26,9.26,0,0,0,5.23-1.36,4.54,4.54,0,0,0,1.68-3.88,3.92,3.92,0,0,0-1.72-3.63,9.91,9.91,0,0,0-5.33-1l-2.27.05Z" transform="translate(-354 -22.33)"/><path class="cls-51" d="M700.56,344.72v13.86l-7.36.24v-36.2l10.11-.22c4.7-.11,8.16.71,10.41,2.44s3.36,4.4,3.36,8a10,10,0,0,1-1.67,5.68,11.57,11.57,0,0,1-4.73,4q7.77,11.93,10.1,15.37l-8.08.26-8.23-13.58Zm0-6.22,2.37-.07a8.93,8.93,0,0,0,5.13-1.34,4.52,4.52,0,0,0,1.65-3.84,3.91,3.91,0,0,0-1.68-3.61,9.9,9.9,0,0,0-5.24-1l-2.23.06Z" transform="translate(-354 -22.33)"/><path class="cls-52" d="M757.05,338.94q0,8.82-4.15,13.7T741,357.78c-5.2.16-9.21-1.3-12-4.4s-4.21-7.64-4.21-13.62S726.18,329.2,729,326s6.82-4.87,12-5,9.17,1.38,11.91,4.46S757.05,333,757.05,338.94Zm-24.69.67q0,6,2.16,9a7.18,7.18,0,0,0,6.46,2.84q8.58-.26,8.58-12.28T741,327.3a7.63,7.63,0,0,0-6.48,3.2Q732.36,333.61,732.36,339.61Z" transform="translate(-354 -22.33)"/><path class="cls-53" d="M772.25,342.69v13.59l-7.08.23V321l9.72-.22q6.78-.15,10,2.39c2.16,1.7,3.24,4.32,3.24,7.88a10,10,0,0,1-1.61,5.58,11.26,11.26,0,0,1-4.55,3.93q7.47,11.69,9.72,15.08l-7.77.25L776,342.58Zm0-6.11,2.28-.06a8.5,8.5,0,0,0,4.93-1.31,4.47,4.47,0,0,0,1.59-3.77,3.87,3.87,0,0,0-1.62-3.54,9.33,9.33,0,0,0-5-.94l-2.14.05Z" transform="translate(-354 -22.33)"/><path class="cls-54" d="M500.94,666.91s-1.73,9.82-2.59,19.55a6.71,6.71,0,0,0,6.41,7.26c13,.54,40.67,1.59,50.61,1.15a2.19,2.19,0,0,0,1.92-3h0a4.91,4.91,0,0,0-2.5-2.63l-45.77-21Z" transform="translate(-354 -22.33)"/><path class="cls-55" d="M499.52,661.13l1.39,11.76s8,3.73,13.5-.47l-3.32-13.1Z" transform="translate(-354 -22.33)"/><path class="cls-56" d="M500.57,440.17c-.61,3.07-3.24,153.16,12.81,220.43a2.28,2.28,0,0,1-1.34,2.65A39.79,39.79,0,0,1,499,665.91a3.93,3.93,0,0,1-3.9-2.82c-4.59-15.61-26.56-93.8-29.43-168.5-3.2-83.46,0-2.84,0-2.84l1.88-51.59Z" transform="translate(-354 -22.33)"/><path class="cls-57" d="M448.29,672s-2.76,5-5.44,18.15a4.08,4.08,0,0,0,3.6,4.89c4.28.42,10.86,1,16.14.93a4.07,4.07,0,0,0,4-4.55c-.58-4.81-2.4-12.7-8-18.86Z" transform="translate(-354 -22.33)"/><path class="cls-58" d="M445.87,656.92l3.25,17.77s3.23,2.4,9.6.66l-1.56-19.12Z" transform="translate(-354 -22.33)"/><path class="cls-59" d="M437.06,444.77c-13.12,79.2,2.85,195.73,8.23,218.54a3.55,3.55,0,0,0,2.88,2.7,23.87,23.87,0,0,0,10.26-.4,3.26,3.26,0,0,0,2.34-3c.73-18.44-.57-131.65,11.65-176.39a10.2,10.2,0,0,1,3.92-5.6l23.73-16.87,1.82-27.27Z" transform="translate(-354 -22.33)"/><path class="cls-60" d="M553.89,331.89c-2,14.18-4.1,17.44-5.74,17.53-5.2.27-4.15-31.72-23.2-47.9-12-10.22-28.46-11.06-41.35-9.87q9,32.37,18,64.72c2.63,6.45,14.08,32.52,40,40.43,5.28,1.61,13.13,4,20.43.87,14.42-6.2,21.18-31.59,14.73-63.38C573.76,333.17,569.57,332,553.89,331.89Z" transform="translate(-354 -22.33)"/><path class="cls-61" d="M549.3,276.56l2.38,13.49c3.84,16.49,4.2,30.23,2.21,41.84,3.29.13,6.75.36,10.35.72,4.44.44,8.63,1,12.55,1.68-2.07-16.77-13.23-44.62-13.23-44.62C556.83,280,556,286.28,549.3,276.56Z" transform="translate(-354 -22.33)"/><path class="cls-62" d="M576.56,248.15a8.88,8.88,0,0,0-7,3.16l-17,20.15s-3.1-.63-3.39-6.56-6.58-6.64-6.58-6.64.9,8.27,2.63,20.51c1,7,5.13,12.1,8.49,15.2l9.84-3.39a112,112,0,0,0,17.75-42.3Z" transform="translate(-354 -22.33)"/><path class="cls-63" d="M416.24,303c1.14-.3,8.89-8.3,10.05-8.53,19.1-3.64,66.76-16.47,98.66,7.06.08.68.13,1.22.16,1.67a17.46,17.46,0,0,1,1.32,2.26,108.27,108.27,0,0,0,10.76,16.81A10.87,10.87,0,0,0,535,325.4c-7.67,16.43-36.73,82-31.62,122.1a3.8,3.8,0,0,1-3.21,4.27c-11.28,1.56-44.88,5.36-62.23-1.8a2.66,2.66,0,0,1-1.64-2.5c.11-8.05-.23-43-13-85.06a46.12,46.12,0,0,1-1.18-4.77c-.16.32-.3.64-.46,1Z" transform="translate(-354 -22.33)"/><path class="cls-64" d="M445.39,290.82c-35.61,2.61-43.06,23-67.67,10.52l4.36,38.1c9.13,10.08,22.9,16.95,40.27,19.52Z" transform="translate(-354 -22.33)"/><path class="cls-65" d="M469.72,256.36a93.34,93.34,0,0,0-9.41,36.08c1.31.49,18.82,12.64,30.54.88-2.5-8.07-2.09-20.22-1.45-32.68Z" transform="translate(-354 -22.33)"/><path class="cls-66" d="M501.49,224.38c.34.54,9.09,41.82,9.09,41.82l-23.68,4.5-14.1-37.89S495.87,215.29,501.49,224.38Z" transform="translate(-354 -22.33)"/><path class="cls-67" d="M481.83,236.18a3.45,3.45,0,0,0-.53,3l5.78,20.23a3.38,3.38,0,0,0,.38.87c.93,1.49,4.29,6,8.81,2.3,3.85-3.16,7.44-6,10.65-6.72a3.46,3.46,0,0,1,4.11,2.7,129,129,0,0,1,2.61,18.89,3.45,3.45,0,0,1-3,3.56c-4.71.58-13.93,1.44-21.65.47a3.46,3.46,0,0,1-2.8-2.19c-2-5.25-7.76-19.93-10-23.83-2.1-3.61-7.67-4-10.23-3.91a3.46,3.46,0,0,1-2.58-1.07c-2-2.1-5.27-6.85.23-11.95a3.46,3.46,0,0,0,.19-4.82c-2.22-2.5-4.26-6.61,0-11.26s9.45-3.84,12.77-2.5a3.6,3.6,0,0,0,4.19-1,2.29,2.29,0,0,1,2.09-.9,3.36,3.36,0,0,0,3.65-3.11c.22-3.25,1.75-7.14,7.41-8.53,10.38-2.54,16.12,7.68,16.3,15.06s-11.22,9.51-17.8,8.61C487.51,229.38,483.58,233.79,481.83,236.18Z" transform="translate(-354 -22.33)"/><path class="cls-68" d="M479.68,263.14s-2.2-13.07-7.46-14-10.69,3.1-5.86,10.57C472.37,269,479.68,263.14,479.68,263.14Z" transform="translate(-354 -22.33)"/><path class="cls-69" d="M471,216.13a12.17,12.17,0,0,1,3,.28c2.5.53,5.83,1.82,5,4.22-1.31,3.62-8.07.24-11.68,6.07-3.17,5.13-.57,10.71-1.54,16.24-.48,2.7-2.21,6.69-4.61,8.27-1.08.7-9.57,2-10,.54l-2.36-7.66c-2.13-6.9,6-18.38,10.24-23C462.26,217.48,466.67,216.31,471,216.13Z" transform="translate(-354 -22.33)"/><path class="cls-70" d="M463,243.79l-8.12,6.76c-15.58,6.62-26.9,14.43-35.1,22.88a46.21,46.21,0,0,0-15.44-17.08,171.8,171.8,0,0,1,27.39-11C463.37,232.65,463,243.79,463,243.79Z" transform="translate(-354 -22.33)"/><path class="cls-71" d="M419.73,273.43c-25.61,26.38-18.13,13-18.33,35.45-.08,8.39-7.35,40.39-7.35,40.39-78.33-33.84-13-80,10.24-92.92A46.21,46.21,0,0,1,419.73,273.43Z" transform="translate(-354 -22.33)"/></svg>