<svg id="Layer_1" data-name="Layer 1" xmlns="http://www.w3.org/2000/svg" viewBox="0 0 323.65 462.57"><defs><style>.cls-1{fill:#ff4a35;}.cls-2{fill:#fff;}</style></defs><title>_logo</title><path class="cls-1" d="M386.28,195.36a46.6,46.6,0,0,0-23.16-6.16c-39.6,0-60.68,4.2-79.6,11.6-18.24,7.16-22,11.36-22,11.36H250.48s-3.72-4.2-22-11.36c-18.92-7.44-40-11.6-79.6-11.6a46.6,46.6,0,0,0-23.16,6.16l-20.68-1.48,2.48,19.48s-1.32.28,6.4,5.4,9,21.72,16.72,37.44,13.68,23.64,44.84,28.16,50.36-11.8,57.48-21.84,16.6-37.32,17.92-37.32h10.2c1.32,0,10.76,27.28,17.92,37.32s26.36,26.36,57.48,21.84,37.12-12.44,44.84-28.16,9-32.32,16.72-37.44,6.4-5.4,6.4-5.4L407,193.88ZM238,233.08c-3.36,7.84-8.4,19.68-12.12,24.88-2.2,3.08-14.36,18.4-39.64,18.4a64.25,64.25,0,0,1-9.48-.72c-28.84-4.16-32-10.6-38.24-23.36A126.26,126.26,0,0,1,132,235c-3.24-10.12-4.44-19.44-1.92-24.52s8.2-12.8,18.76-12.8c40.52,0,59.88,4.32,76.44,10.84C238.64,213.8,241.2,225.48,238,233.08Zm142,2a126.26,126.26,0,0,1-6.52,17.24c-6.28,12.76-9.4,19.16-38.24,23.36a64.66,64.66,0,0,1-9.48.72c-25.28,0-37.44-15.32-39.64-18.4-3.72-5.2-8.76-17.08-12.12-24.88-3.24-7.6-.64-19.28,12.68-24.52,16.56-6.48,35.88-10.84,76.44-10.84,10.6,0,16.28,7.72,18.76,12.8S383.24,225,380,235.08Z" transform="translate(-94.23 -24.71)"/><path class="cls-2" d="M416.2,131.16c-.6-2-5.92-14-21.36-17.88s-16-3.56-16-3.56a50.72,50.72,0,0,0,1.4-6.44c.8-4.64-4.16-31.64-6.12-36.32s-17.8-22-17.8-22,13.44,20.2,15,24.84a8.32,8.32,0,0,1-1.2,7.88s-16.6-24-25.52-30.6-34.2-16.8-34.2-16.8a93.2,93.2,0,0,1,18,10.72,40.9,40.9,0,0,1,12.64,16.8s-11.88-12.52-45.68-24-67-9.84-87.6-7.32a126.28,126.28,0,0,0-35,9.32,273.57,273.57,0,0,1,30.84-4.48c16.8-1.44,33.24,3.56,33.24,3.56s-13.84-.36-21,0-30.24,6.6-37.36,10.2-14.84,10.56-14.84,10.56S161.16,56.4,157,58s-11.28,7.32-11.28,7.32,18.6-7.88-10.68,5.36-39.6,54.56-40.68,70.52S99,180.8,99,180.8a91.6,91.6,0,0,0-1.84-15.16c-1.6-6.56,3.84-33.52,3.84-33.52a75.54,75.54,0,0,0,2.64,22.56c3.28,11.08,10.68,27,10.68,27s0-3.68-1.2-15.4,8.72-23.12,8.72-23.12-1.72,4.64-2.36,14.08,3,14.32,3,14.32-2.36-5.24,0-17.88S129.32,132,156.24,128s61.44,29.56,61.44,29.56,4.08,5.24,8.72,6.32,5.68-1.68,5.68-1.68a33,33,0,0,0,9.64,1.56c5.68.12,13-4.76,13-4.76s20.56,9.2,35.2,9.76S315.52,161,315.52,161s2.76-1.32,8.84-1.8,18.52-4.16,25-5.48C362.44,151,370,136.8,370,136.8s-2.36,13.4,1,22.72,8.88,14.12,11.48,19.68-.2,14.12.6,13.4,6.72-7.52,7.32-10.92,1.2-4.12,1.2-4.12,5.52-6.8,9.48-12.52,5.32-20.56,5.52-26.28-6.72-12.16-6.72-12.16-.2-.88,5.52.72,12.44,9,12.44,9S416.8,133.12,416.2,131.16Z" transform="translate(-94.23 -24.71)"/><path class="cls-2" d="M366.48,312.12c-27.52,0-59.08-27-82.52-27s-27.84,12.08-27.84,21.6c0,5.84,14.6,31.64,63.48,31.64,2.8,0,5.56-.16,8.24-.4a27.32,27.32,0,0,1-2.84,7.4c-1.56,2.8-10.16,3.76-10.16,3.76s4,2.6,6.16,2.6-5.56,1.08-9.12,7.16-5.4,9.44-5.4,9.44-10.52-2.56-14.92,1.2-9.64,8.68-15.72,6.08-7.8-10-7.8-10a23.43,23.43,0,0,1,4.12.56c2.76.56-1.36-1.72-2.76-7s-1.16-5.8-1.16-5.8H243.72s.24.6-1.16,5.8-5.52,7.52-2.76,7a23.43,23.43,0,0,1,4.12-.56s-1.76,7.36-7.8,10-11.28-2.32-15.72-6.08-14.92-1.2-14.92-1.2-1.84-3.4-5.4-9.44-11.36-7.16-9.12-7.16,6.16-2.6,6.16-2.6-8.64-1-10.16-3.76a27.32,27.32,0,0,1-2.84-7.4,79.51,79.51,0,0,0,8.24.4c48.88,0,63.48-25.8,63.48-31.64,0-9.52-4.4-21.6-27.84-21.6s-55,27-82.52,27c-20.36,0-32.6-16.32-32.6-16.32a104.71,104.71,0,0,0,12.8,14c0,3.32-.08,11.8-.08,14.48-.08,15.16-2.2,13.88-2.2,31.24s8.32,40.92,8,47.08-4.16,8.92-4.16,8.92,5.76-2,8-5.48,1.64-1.24,1.64-1.24,6.28,19.36,13.28,30.92,4.48,2.32,3.44-4.6c-.6-4,1,7,12.8,20.84S188,462.8,188,462.8s-1.64-1.84-3.84-4.16,2-6.76,2-6.76,12.08,9.6,15.76,20,0,8.24,3.32,6.32,9.92-8.08,9.92-8.08,11.8-9,16.44-2.56c5.8,8.12-3.72,19.72-3.72,19.72s12.8-.88,19-5.12c5.48-3.72,8.4-12.52,9-14.64.64,2.12,3.56,11,9,14.64,6.24,4.24,19,5.12,19,5.12s-9.52-11.6-3.72-19.72c4.64-6.48,16.44,2.56,16.44,2.56s6.6,6.16,9.92,8.08-.36,4.08,3.32-6.32,15.76-20,15.76-20,4.28,4.44,2,6.76S324,462.8,324,462.8s9.88,3,21.64-10.88,13.4-24.8,12.8-20.84c-1,7-3.56,16.16,3.44,4.6s13.28-30.92,13.28-30.92-.56-2.24,1.64,1.24,8,5.48,8,5.48-3.8-2.76-4.16-8.92,8-29.72,8-47.08-2.12-16.08-2.2-31.24c0-2.68-.08-11.12-.08-14.48a105.25,105.25,0,0,0,12.8-14S386.88,312.12,366.48,312.12Z" transform="translate(-94.23 -24.71)"/></svg>