<svg id="Слой_1" data-name="Слой 1" xmlns="http://www.w3.org/2000/svg" xmlns:xlink="http://www.w3.org/1999/xlink" viewBox="0 0 219.97 214.98"><defs><style>.cls-1,.cls-2,.cls-20,.cls-24,.cls-29,.cls-9{fill:none;}.cls-2,.cls-9{stroke:#eaf1f3;}.cls-2,.cls-20,.cls-24,.cls-29,.cls-9{stroke-miterlimit:10;}.cls-2,.cls-20,.cls-24{stroke-width:0.25px;}.cls-3{fill:#8e8bfa;}.cls-4{fill:#fff;}.cls-5{fill:#eaf1f3;}.cls-6{clip-path:url(#clip-path);}.cls-7{fill:#668afa;}.cls-8{fill:#8fe4c5;}.cls-10{clip-path:url(#clip-path-2);}.cls-11{fill:#c5c5c5;}.cls-12{fill:#43303d;}.cls-13{fill:#a6abb7;}.cls-14{fill:#d3dae9;}.cls-15{fill:#e48892;}.cls-16{fill:#d54655;}.cls-17{fill:#eec2ac;}.cls-18{fill:#283d50;}.cls-19{fill:#de5e68;}.cls-20{stroke:#43303d;}.cls-21{fill:#a1653c;}.cls-22{fill:#e0dbd5;}.cls-23{fill:#3d4668;}.cls-24{stroke:#b1bddb;}.cls-25{fill:#98a1c8;}.cls-26{fill:url(#linear-gradient);}.cls-27{fill:#6b2f21;}.cls-28{fill:#d9d9d9;}.cls-29{stroke:#b1e4ce;}.cls-30{fill:#b1e4ce;}</style><clipPath id="clip-path" transform="translate(-573.73 -276.44)"><circle class="cls-1" cx="665.19" cy="295.15" r="15.19" transform="translate(267.77 904.78) rotate(-80.83)"/></clipPath><clipPath id="clip-path-2" transform="translate(-573.73 -276.44)"><circle class="cls-1" cx="775.73" cy="335.05" r="13.8" transform="translate(-69.22 343.49) rotate(-23.93)"/></clipPath><linearGradient id="linear-gradient" x1="872.72" y1="343.55" x2="897.01" y2="343.3" gradientTransform="matrix(0.92, -0.32, 0.45, 0.93, -322.9, 329.13)" gradientUnits="userSpaceOnUse"><stop offset="0" stop-color="#eef3fa"/><stop offset="0.25" stop-color="#e6edf8"/><stop offset="1" stop-color="#d2dff1"/></linearGradient></defs><title>about-develop</title><line class="cls-2" x1="13.61" y1="28.65" x2="13.61" y2="39.24"/><path class="cls-3" d="M592.66,304.35a5.32,5.32,0,1,1-5.32-5.32A5.32,5.32,0,0,1,592.66,304.35Z" transform="translate(-573.73 -276.44)"/><line class="cls-2" x1="13.61" y1="11.25" x2="13.61" y2="21.54"/><path class="cls-3" d="M592.66,286.07a5.32,5.32,0,1,1-5.32-5.32A5.32,5.32,0,0,1,592.66,286.07Z" transform="translate(-573.73 -276.44)"/><polygon class="cls-4" points="13.19 12.14 10.73 8.97 12.96 9.9 18.08 5.42 13.19 12.14"/><path class="cls-3" d="M592.66,323a5.32,5.32,0,1,1-5.32-5.32A5.32,5.32,0,0,1,592.66,323Z" transform="translate(-573.73 -276.44)"/><polygon class="cls-4" points="13.19 30 10.73 26.83 12.96 27.77 18.08 23.28 13.19 30"/><polygon class="cls-4" points="13.19 48.84 10.73 45.68 12.96 46.61 18.08 42.13 13.19 48.84"/><rect class="cls-3" x="22.07" y="5.98" width="21.73" height="2.93"/><rect class="cls-5" x="22.07" y="10.16" width="38.03" height="8.18"/><rect class="cls-5" x="22.07" y="28.36" width="38.03" height="8.18"/><rect class="cls-5" x="22.07" y="46.79" width="38.03" height="8.18"/><rect class="cls-3" x="22.07" y="24.39" width="21.73" height="2.93"/><rect class="cls-3" x="22.07" y="42.64" width="21.73" height="2.93"/><g class="cls-6"><circle class="cls-3" cx="665.19" cy="295.15" r="15.19" transform="translate(-305.96 628.34) rotate(-80.83)"/><polygon class="cls-5" points="96.56 2.8 91.46 18.71 76.84 4.66 97.55 0 96.56 2.8"/><polygon class="cls-7" points="96.56 2.8 91.46 18.71 108.82 8.03 97.55 0 96.56 2.8"/><polygon class="cls-8" points="91.46 33.9 91.46 18.71 108.82 8.03 110.14 26.1 95.04 35.99 91.46 33.9"/></g><line class="cls-9" x1="121.73" y1="3.92" x2="165.09" y2="3.92"/><line class="cls-9" x1="121.73" y1="6.9" x2="165.09" y2="6.9"/><line class="cls-9" x1="121.73" y1="9.88" x2="165.09" y2="9.88"/><line class="cls-9" x1="121.73" y1="12.86" x2="165.09" y2="12.86"/><line class="cls-9" x1="121.73" y1="15.83" x2="165.09" y2="15.83"/><line class="cls-9" x1="121.73" y1="18.81" x2="165.09" y2="18.81"/><line class="cls-9" x1="121.73" y1="22.72" x2="165.09" y2="22.72"/><line class="cls-9" x1="121.73" y1="25.63" x2="165.09" y2="25.63"/><line class="cls-9" x1="121.73" y1="28.55" x2="165.09" y2="28.55"/><line class="cls-9" x1="121.73" y1="31.46" x2="165.09" y2="31.46"/><g class="cls-10"><circle class="cls-3" cx="775.73" cy="335.05" r="13.8" transform="translate(-642.95 67.05) rotate(-23.93)"/><polygon class="cls-5" points="206.63 44.15 202 58.61 188.71 45.84 207.54 41.61 206.63 44.15"/><polygon class="cls-5" points="206.63 44.15 202 58.61 219.97 60.17 213.6 45.77 206.63 44.15"/><polygon class="cls-8" points="202 72.41 202 58.61 217.45 58.61 218.98 65.32 205.25 74.31 202 72.41"/></g><circle class="cls-4" cx="775.73" cy="335.05" r="7.82" transform="translate(-302.85 736.21) rotate(-76.67)"/><line class="cls-9" x1="192.98" y1="76.68" x2="212.28" y2="76.68"/><line class="cls-9" x1="192.98" y1="80.91" x2="212.28" y2="80.91"/><line class="cls-9" x1="192.98" y1="85.14" x2="212.28" y2="85.14"/><polygon class="cls-11" points="26.09 214.63 27.81 214.63 41.81 146.37 38.27 146.37 26.09 214.63"/><polygon class="cls-11" points="158.22 214.63 156.5 214.63 142.5 146.37 146.05 146.37 158.22 214.63"/><path class="cls-12" d="M597.56,381.72a4.83,4.83,0,0,0-1.11,2.21,3.44,3.44,0,0,1,1.15-1.55c.7-.45,1.64-.39,2.35-.82a4,4,0,0,0,1.31-1.9,5.54,5.54,0,0,1-1.82,1A3.62,3.62,0,0,0,597.56,381.72Z" transform="translate(-573.73 -276.44)"/><rect class="cls-13" x="603.57" y="458.16" width="2.61" height="25.26" transform="translate(636.02 665.14) rotate(180)"/><rect class="cls-14" x="602.78" y="454.48" width="4.19" height="3.68" transform="translate(636.02 636.19) rotate(180)"/><rect class="cls-14" x="603.29" y="473.7" width="3.16" height="7.88" transform="translate(636.02 678.84) rotate(180)"/><rect class="cls-14" x="602.78" y="481.58" width="4.19" height="3.68" transform="translate(636.02 690.4) rotate(180)"/><rect class="cls-13" x="599.8" y="447.52" width="10.16" height="6.96" transform="translate(636.02 625.55) rotate(180)"/><rect class="cls-13" x="591.21" y="445.43" width="28.34" height="5.21" rx="0.54" transform="translate(637.04 619.64) rotate(180)"/><polygon class="cls-13" points="21.05 212.33 29.05 208.37 29.05 205.6 20 211.67 21.05 212.33"/><circle class="cls-13" cx="20" cy="213.11" r="1.87"/><circle class="cls-13" cx="31.15" cy="213.11" r="1.87"/><polygon class="cls-13" points="41.24 212.33 33.24 208.37 33.24 205.6 42.3 211.67 41.24 212.33"/><path class="cls-13" d="M617.9,489.55a1.88,1.88,0,1,1-1.88-1.87A1.88,1.88,0,0,1,617.9,489.55Z" transform="translate(-573.73 -276.44)"/><rect class="cls-13" x="604.37" y="483.42" width="1.02" height="6.11" transform="translate(636.02 696.51) rotate(180)"/><path class="cls-15" d="M586.5,448.29a2,2,0,0,1-2-1.51c-.69-2.82-1.93-8.09-2-21.27a126.55,126.55,0,0,0-4.09-30.24A3,3,0,0,1,579.9,392h0a4.05,4.05,0,0,1,2-.55H607.2s10.38,18.58,11.74,24.94,3.26,30.79,3.26,30.79Z" transform="translate(-573.73 -276.44)"/><path class="cls-16" d="M587.32,448.34s-2.36-4.63-2.4-22.83c0-15-3-27.33-3.86-32.09a1.68,1.68,0,0,1,1.65-2h26.86S620,410,621.32,416.38s3.26,30.79,3.26,30.79Z" transform="translate(-573.73 -276.44)"/><path class="cls-15" d="M584.95,442.8h25.57a1.31,1.31,0,0,1,1.31,1.31v4.23a0,0,0,0,1,0,0H584.95a0,0,0,0,1,0,0V442.8A0,0,0,0,1,584.95,442.8Z" transform="translate(623.04 614.7) rotate(180)"/><path class="cls-16" d="M592.85,442.8h37.79a0,0,0,0,1,0,0v3.9a1.64,1.64,0,0,1-1.64,1.64H592.85a1.64,1.64,0,0,1-1.64-1.64v-2.26A1.64,1.64,0,0,1,592.85,442.8Z" transform="translate(648.12 614.7) rotate(180)"/><path class="cls-17" d="M595,385.05s3.91-1.24,4.3-2.94c.32-1.38.83-5.67.83-5.67H607a31.9,31.9,0,0,0,0,5.07c.65,3.09,4.52,4.1,4.52,4.1l.55,9.65-10,8.42-9.69-9.74Z" transform="translate(-573.73 -276.44)"/><path class="cls-17" d="M610.6,365.93c1.71,2.29,1.36,2.62,1.13,5.77a25.11,25.11,0,0,1-1.36,6.5c-.46,1.19-2.88,6.31-7.2,4.44a13.28,13.28,0,0,1-5.89-5.33,17.3,17.3,0,0,1-.92-5.74c0-2.1-.05-4.82,0-6.39C596.65,359.65,607.45,361.74,610.6,365.93Z" transform="translate(-573.73 -276.44)"/><path class="cls-18" d="M621.84,430.92c3.72-.81,5.79.39,8,3.06s1.34,9.14,0,14.49-6.46,41-6.46,41h-3.79s-1-14-1.64-24.29,1.62-24.94,1.62-24.94l-14.46-9.3S618.5,431.64,621.84,430.92Z" transform="translate(-573.73 -276.44)"/><path class="cls-18" d="M621.66,425.75c2.84,2.66,11.21,7.13,9.54,12.66L620,443.15s-11.38-4.12-14.87-12.23l-3.49-8.11,7.5-3Z" transform="translate(-573.73 -276.44)"/><path class="cls-18" d="M613.48,432.88c2.06,1.49,7.63,3.94,6.52,10.27-.57,3.23-9.68,22.74-14.65,30.94-2.54,4.18-7.05,12.93-7.05,12.93l-4.23,1s3.26-10.62,5.49-20.42,8.71-21.51,8.71-21.51a66.41,66.41,0,0,0-8.36-4.8c-3.56-1.56-5.48-2.19-.13-7.32S609.47,430,613.48,432.88Z" transform="translate(-573.73 -276.44)"/><path class="cls-17" d="M621.66,402.71a26.51,26.51,0,0,0,2.2,6.41c.89,1.55,19.26,8.32,19.26,8.32H632.39s-10.21-1.34-13.12-5.26a70,70,0,0,1-5.62-9.47Z" transform="translate(-573.73 -276.44)"/><path class="cls-18" d="M615.08,387c1.91.84,3.66,5.64,5.06,9.73a25.72,25.72,0,0,1,1.52,6s-4.91,2.81-7.51,2.11c0,0-2.47-8.89-.77-13.38Z" transform="translate(-573.73 -276.44)"/><path class="cls-18" d="M605.61,426.07c5.36-.21,10.7-.34,16-.32-2.6-1.68-4.89-2.86-5.39-3.36-1.12-1.11-.74-11,.08-14.12s.77-6.66.18-8.25S615.08,387,615.08,387l-3.6-1.35s1.1,8.33-7.64,8.33-8.83-8.89-8.83-8.89l-5.59,1.24s-.42,10.84-.21,15.76,2.55,13.44,3.21,17.89c.52,3.47-.44,5.59-1.1,8.15A35.59,35.59,0,0,1,605.61,426.07Z" transform="translate(-573.73 -276.44)"/><path class="cls-19" d="M598.56,486.3c-1.2-.24-1.63.24-2.71,1a4.56,4.56,0,0,1-2.28.72v3.25h8.36Z" transform="translate(-573.73 -276.44)"/><path class="cls-19" d="M624.13,486.9s-.12,1.12-1.93,1.63a3.07,3.07,0,0,1-3-1l-.4,3.68,14.26.08Z" transform="translate(-573.73 -276.44)"/><path class="cls-17" d="M624.38,416.59c-1.6-.19-3.14-1.69-9.34-1.76a96.58,96.58,0,0,1-10.47-2,21.73,21.73,0,0,1-5.91-2.55s-2.28-8.47-3.15-13.85c-2.52-.28-5-.6-7.53-1-.09,6.71,4.67,18.64,6.25,19.83,3.08,2.32,10.32,2.21,12.06,2.24,4,.07,21.19.53,21.19.53S628.81,417.12,624.38,416.59Z" transform="translate(-573.73 -276.44)"/><path class="cls-18" d="M597.54,404.88s-2.29-13.41-2.95-14.82c-3.42-7.3-8.12-3.41-7.43,2.23.3,2.41.48,8.62,1.7,14.48A19.17,19.17,0,0,0,597.54,404.88Z" transform="translate(-573.73 -276.44)"/><polygon class="cls-13" points="46.99 141.53 53.76 141.53 60.51 117.88 55.38 117.88 46.99 141.53"/><polygon class="cls-14" points="48.94 141.53 75.31 141.53 82.07 117.88 55.7 117.88 48.94 141.53"/><rect class="cls-14" x="618.78" y="417.44" width="30.26" height="1.76" transform="translate(694.1 560.2) rotate(180)"/><rect class="cls-13" x="603.65" y="417.44" width="15.13" height="1.76" transform="translate(648.71 560.2) rotate(180)"/><path class="cls-13" d="M637.15,407.3c-.76,1.81-.22,3.77,1.2,4.37s3.2-.38,4-2.19.22-3.77-1.2-4.37S637.92,405.49,637.15,407.3Z" transform="translate(-573.73 -276.44)"/><path class="cls-18" d="M591.32,428.09c-1,4.79,1.36,15.27,16.95,18l8.9,3.6a11.7,11.7,0,0,0,2.42-9.48c-1.11-5.5-7.36-7.59-11.47-14.24,0,0-6.46-2.7-10.62-1.25A18.3,18.3,0,0,0,591.32,428.09Z" transform="translate(-573.73 -276.44)"/><path class="cls-12" d="M611.93,369.2s-1.88.07-4.18-3.4c0,0,.24,1.57-2,3.69s-4.25,1.55-4.59,2.57a7.65,7.65,0,0,0-.37,1.94s-.37,0-.74-.55c-.24-.36-.36-1.24-.77-1.51-1-.68-2.78.23-2.22,2.22a4.35,4.35,0,0,0,1.7,2.08c0,3.4,1.36,4.44,1.36,4.44s-2.3,1.05-3.47.57c-1.69-.69-2.12-1.75-2.06-3.65a4.59,4.59,0,0,1-2.25-1.17c-2.35-2.33.36-9,1.45-9.79,0,0-2.57-3.64.66-6.08s4.54,1.52,4.54,1.52c1.08-.82,5.54-1.09,7.81-.25C613.2,364.22,611.93,369.2,611.93,369.2Z" transform="translate(-573.73 -276.44)"/><path class="cls-20" d="M607.6,365.76c.2,1.3,0,4.32-3.47,6.68" transform="translate(-573.73 -276.44)"/><rect class="cls-13" x="176.39" y="181.71" width="2.61" height="25.26"/><rect class="cls-14" x="175.6" y="178.04" width="4.19" height="3.68"/><rect class="cls-14" x="176.12" y="197.26" width="3.16" height="7.88"/><rect class="cls-14" x="175.6" y="205.14" width="4.19" height="3.68"/><rect class="cls-13" x="172.62" y="171.07" width="10.16" height="6.96"/><rect class="cls-13" x="163.02" y="168.99" width="28.34" height="5.21" rx="0.54"/><polygon class="cls-13" points="187.8 212.33 179.79 208.37 179.79 205.6 188.85 211.67 187.8 212.33"/><path class="cls-13" d="M764.45,489.55a1.88,1.88,0,1,1-1.87-1.87A1.88,1.88,0,0,1,764.45,489.55Z" transform="translate(-573.73 -276.44)"/><circle class="cls-13" cx="177.7" cy="213.11" r="1.87"/><polygon class="cls-13" points="167.6 212.33 175.6 208.37 175.6 205.6 166.55 211.67 167.6 212.33"/><circle class="cls-13" cx="166.55" cy="213.11" r="1.87"/><rect class="cls-13" x="177.19" y="206.98" width="1.02" height="6.11"/><path class="cls-15" d="M769.8,448.29a2,2,0,0,0,2-1.51c.68-2.82,1.93-8.09,2-21.27,0-14.53,7.65-25.58,8.69-30.24A3,3,0,0,0,781,392h0a4.05,4.05,0,0,0-2-.55H749.11S738.73,410,737.36,416.38s-3.26,30.79-3.26,30.79Z" transform="translate(-573.73 -276.44)"/><path class="cls-16" d="M769,448.34s2.36-4.63,2.4-22.83c0-15,7.61-27.33,8.47-32.09a1.69,1.69,0,0,0-1.66-2H746.73S736.35,410,735,416.38s-3.27,30.79-3.27,30.79Z" transform="translate(-573.73 -276.44)"/><path class="cls-15" d="M162.48,166.36h35.15a0,0,0,0,1,0,0v4.23a1.31,1.31,0,0,1-1.31,1.31H162.48a0,0,0,0,1,0,0v-5.54A0,0,0,0,1,162.48,166.36Z"/><path class="cls-16" d="M153.58,166.36h11.66a1.64,1.64,0,0,1,1.64,1.64v3.9a0,0,0,0,1,0,0h-13.3a1.64,1.64,0,0,1-1.64-1.64V168A1.64,1.64,0,0,1,153.58,166.36Z"/><path class="cls-17" d="M742.44,386c-2.44,2.42-2.6,14.59-5.06,20.91,0,0-16.78,6.56-24.42,8.49l2.65,2.79s22.73-5.46,25.61-7.38c4.41-2.93,7-14.79,7.39-20.72S745,383.45,742.44,386Z" transform="translate(-573.73 -276.44)"/><path class="cls-17" d="M714.82,415.81l-1.86-.43s-3.84-.36-5.07-.53-2.69,1.23-4.37,1.75a16,16,0,0,0-3.3,1.57h1.34l2.73.45,2.46-.45a24.54,24.54,0,0,1,4.63,0,20.17,20.17,0,0,0,4.23,0Z" transform="translate(-573.73 -276.44)"/><path class="cls-17" d="M731.42,428.08c-5.2,1.72-11.59,4.49-13.45,6.23s-5.56,4.21-2.59,13.77c1.9,6.1,10.17,37,10.17,37l4.2-.74s-1.49-17.93-3-31.33c-.73-6.5-1-8.32-1-8.32l5.62-2.29c7.14-2.93,4.69-15.18,4.69-15.18Z" transform="translate(-573.73 -276.44)"/><path class="cls-17" d="M719.77,432.44c-1.87,1.74-3.19,1.16-6,10.77-1.79,6.13-8.33,37.09-8.33,37.09l3.91,1.69c5.28-14.79,5.27-14.78,11.45-26.79A53.73,53.73,0,0,0,725,443.64l11.41-.69c7.13-2.93,4.69-13.34,4.69-13.34S721.64,430.7,719.77,432.44Z" transform="translate(-573.73 -276.44)"/><path class="cls-7" d="M763,423.24c0,5,3.62,10.52-.57,16.2-3.8,5.14-26,3.51-26,3.51s3.13-5.41.16-9.51c-1.9-2.62-6.28-5.05-6.28-5.05l12.41-4,10-7.73Z" transform="translate(-573.73 -276.44)"/><path class="cls-21" d="M750.55,384.88c-.67,2.28-5.43,2.23-8.94-2s-6.06-11.51-2.56-16.63,8.2,4.8,9.79,10.08A37.13,37.13,0,0,1,750.55,384.88Z" transform="translate(-573.73 -276.44)"/><path class="cls-17" d="M739.48,366.14c-.94,1.12,0,5.38.12,6,.32,1.22-.3,2.91.06,3.19s.53,0,1.13.2c.06,0,1.72,3.25,2,3.92.44,1,2.84-.79,3.56,0,.53.55.55,1.58.73,2.86l-1.4,5.65,11.42-2.2a56.41,56.41,0,0,1-4.19-7.23c-.85-2.27.22-4.76-.07-7.81s-1.64-7-6-7.38A8.57,8.57,0,0,0,739.48,366.14Z" transform="translate(-573.73 -276.44)"/><path class="cls-22" d="M743.09,423.73a24.06,24.06,0,0,1,7.65,0c4.76.64,11.8-.7,11.8-.7s-2.89-14.88-2.71-21.63.71-14,.71-14l-12.65-2.13s-3.07,1.1-4.8,6S741.63,417.54,743.09,423.73Z" transform="translate(-573.73 -276.44)"/><path class="cls-18" d="M747.09,382.31c-.94.93-4,2.13-4,3.46s-2.4,12.79-2.26,15.19,1,11.51.48,14.31a68.81,68.81,0,0,0-.54,9l2.32-.53s-.67-15.84,0-21.7,4.8-16.66,4.8-16.66l-1.56-.53Z" transform="translate(-573.73 -276.44)"/><path class="cls-18" d="M751.69,385.37l-3.8-.13s-1.28,5.86-1.28,17.15a182.9,182.9,0,0,0,1.94,22.31,23.33,23.33,0,0,0,7,1.27,16.65,16.65,0,0,0,7-1.33,144.72,144.72,0,0,1,0-18.35c.67-9.06,3.09-11.12,2.62-17.05-.78-9.84-9.68-6.4-9.68-6.4Z" transform="translate(-573.73 -276.44)"/><path class="cls-7" d="M747.89,385.24s6.12-2.93,7.06-4.79a6.36,6.36,0,0,1,.53,2.39c-.13.8-6,6.4-6,6.4Z" transform="translate(-573.73 -276.44)"/><path class="cls-21" d="M753,385.94c1.51-7.56-2.52-9.79-6.92-12.48a22.86,22.86,0,0,1-7-7.24s1.71-5.54,6.67-6.67,11.32,2,12.92,9.79c1.14,5.55,2.62,7.51,6.38,10.22,4.55,3.26,5.9,11.6.61,15.61-4.9,3.72-2.07-5.11-3.89-10.06-.31-.84-4.12,3.42-6.24,4.13S752.72,387.16,753,385.94Z" transform="translate(-573.73 -276.44)"/><path class="cls-7" d="M747.09,382.31a3.32,3.32,0,0,0,.8,2.93l-2.27,3.2s-.66-2.53,0-3.6S747.09,382.31,747.09,382.31Z" transform="translate(-573.73 -276.44)"/><path class="cls-18" d="M725.26,482.87s.12,1.13,1.93,1.64a3.09,3.09,0,0,0,3-1l.4,3.68-5.76,4.06h-4.79l2.59-2.87Z" transform="translate(-573.73 -276.44)"/><path class="cls-18" d="M706.06,477.78a2,2,0,0,0,.71,2.61,3.07,3.07,0,0,0,3.19,0l-.74,3.63-13.6-4.26Z" transform="translate(-573.73 -276.44)"/><path class="cls-17" d="M758.83,387.12c-1.32,3.18-5.18,13.59-7.64,19.91,0,0-17.88,5.72-25.52,7.65l2.65,2.8s21.8-3.34,26.53-5.55,9.34-17.6,10.15-21.64C766.16,384.46,760.25,383.7,758.83,387.12Z" transform="translate(-573.73 -276.44)"/><path class="cls-17" d="M727.53,415.12l-1.86-.44s-3.84-.35-5.07-.53-2.69,1.23-4.37,1.76a15.46,15.46,0,0,0-3.3,1.57h1.34l2.73.44,2.46-.44a23.67,23.67,0,0,1,4.63,0,20.17,20.17,0,0,0,4.23,0Z" transform="translate(-573.73 -276.44)"/><path class="cls-23" d="M656.64,338.88l-4.85,11.25,1.25.53,4.85-11.25a.26.26,0,0,0-.14-.33l-.78-.33A.26.26,0,0,0,656.64,338.88Z" transform="translate(-573.73 -276.44)"/><path class="cls-23" d="M656.67,341.63l-.81-.35,1.36-3.15a.44.44,0,0,1,.58-.23h0a.43.43,0,0,1,.23.58Z" transform="translate(-573.73 -276.44)"/><path class="cls-17" d="M669.39,365.58s-4.77,13.1-6.5,13c-1.31-.05-10-12-11.43-14s-4.12-6.91-4.12-6.91l3.55-1.1s6.1,7.35,7.67,8.67,2.23,1.82,2.23,1.82l1.81-5Z" transform="translate(-573.73 -276.44)"/><path class="cls-23" d="M666.75,351.94c-1.92.51-2.58,2.22-3.41,5.74a69.37,69.37,0,0,1-2,6.86l6.31,2.94s1.14-6.27,1.56-10.23S668.43,351.49,666.75,351.94Z" transform="translate(-573.73 -276.44)"/><path class="cls-18" d="M692.68,486.78v4.64h-8.91s.33-1.68,4.56-2.45l.62-2.19Z" transform="translate(-573.73 -276.44)"/><path class="cls-18" d="M673.85,486.78v4.64h-8.92s.34-1.68,4.56-2.45l.63-2.19Z" transform="translate(-573.73 -276.44)"/><path class="cls-18" d="M690.73,393.27s1.63,14.74,1.68,30.59,1,62.91,1,62.91H687s-6.6-45.49-9-55.67-8.63-37.64-8.63-37.64Z" transform="translate(-573.73 -276.44)"/><path class="cls-17" d="M680.9,339.72s.41,3.22.75,4.86a13.08,13.08,0,0,0,.88,3c.55,1.11,4,4.49,4,4.49s-10.6,5.6-13.72,5.6-2-6.25-2-6.25,3.4-2.69,3.91-4.05a30.1,30.1,0,0,0,.79-5.29Z" transform="translate(-573.73 -276.44)"/><path class="cls-18" d="M676.82,409.45s-1.2,24.14-1.44,28.89,0,48.41,0,48.41-6,.16-6,0-5.65-46-6.39-57.75-.3-25.59-1.27-27.21,2.62-8.44,2.62-8.44l8.49,2.26Z" transform="translate(-573.73 -276.44)"/><path class="cls-5" d="M684.32,348.93l10.91,4.7S693.07,362.46,693,366s-1.38,31.22-1.38,31.22-3.34,5.18-19.45,3.12c-6.21-.8-9.27-3.83-9.27-3.83s1.74-30.51,2.22-34,1.68-10.52,1.68-10.52l5.26-1.62,2.14,3.2Z" transform="translate(-573.73 -276.44)"/><path class="cls-24" d="M671.33,394.9" transform="translate(-573.73 -276.44)"/><path class="cls-24" d="M674.15,353.52" transform="translate(-573.73 -276.44)"/><polygon class="cls-23" points="110.11 70.59 100.42 77.08 103.08 80.14 110.59 72.49 110.11 70.59"/><polygon class="cls-23" points="100.42 77.08 97.78 79.2 98.28 73.88 99.27 72.49 100.42 77.08"/><path class="cls-25" d="M663.94,372.54l-9.31,2.69a2.18,2.18,0,0,1-2.49-1.1l-9.06-19.37a1.45,1.45,0,0,1,1-2.08l9.23-2.72c1.68-.17,2.52.16,2.94,1.05l9.09,19.23C665.73,371.14,665.57,371.77,663.94,372.54Z" transform="translate(-573.73 -276.44)"/><path class="cls-26" d="M663.41,372.73l-9.35,2.71a2.2,2.2,0,0,1-2.5-1.1l-9.1-19.46a1.45,1.45,0,0,1,1-2.08l9.28-2.73a2.24,2.24,0,0,1,2.58,1.1l9.17,19.4A1.52,1.52,0,0,1,663.41,372.73Z" transform="translate(-573.73 -276.44)"/><path class="cls-17" d="M690.44,367.52s-8.66,14.37-9.81,14.87-16.09-9.24-18.9-11.05-5.15-3.6-5.5-3.89a15.07,15.07,0,0,1-1.16-3.2,4.81,4.81,0,0,0,.4-.52l.37.2-.2-1.17.35-.66.34.11.12-1.17.51-.89s1.47,1.67,2.38,2.66a13.46,13.46,0,0,0,2,1.73,14.8,14.8,0,0,1,0-1.9,5.43,5.43,0,0,0-.17-1.4l1.45.87s1.28,4,1.52,4.34a7.35,7.35,0,0,0,4.38,4.11c6.2,2.36,9.64,3.25,9.64,3.25-.24,0,5.65-10.74,5.65-10.74Z" transform="translate(-573.73 -276.44)"/><path class="cls-23" d="M695.64,359.06c-.83,3.92-6.56,12.46-6.56,12.46l-7-5.27s2.75-5.5,4.29-8.38c1.7-3.19,3.29-7.07,6.29-5.94S696.3,355.93,695.64,359.06Z" transform="translate(-573.73 -276.44)"/><path class="cls-17" d="M668.58,331.46c-.75.68-2,2.05-1.9,2.85a31.09,31.09,0,0,0,.67,4.48c.39,1.32,1.17,4.78,1.73,6.3s1.22,3.61,1.69,3.81a14.6,14.6,0,0,0,5.34-1.1c.77-.56,4.87-5.06,4-8.39,0,0,1.07.14,1.73-3.15.17-.86-3.32-3.3-3.86-4.15-1.32-2.07-6.13-.44-7.5-.34A2.84,2.84,0,0,1,668.58,331.46Z" transform="translate(-573.73 -276.44)"/><path class="cls-27" d="M666.68,334.31s.27-1.17,1.34-.92a11.08,11.08,0,0,0,7.71-1.7,7.19,7.19,0,0,0,1,2.55,4.8,4.8,0,0,1,1.08,2.1c.2.66,1.05.86,1.05.86s.38-1.86,1.21-2c1.65-.25,1.45,2,.77,2.69a13.34,13.34,0,0,1-1.39,1.28,8.69,8.69,0,0,0,.53,1.64,8,8,0,0,0,1.35,1.66s.43-4.42,1.48-6.44,1-5.76-2-6.54a4.28,4.28,0,0,0-4.65-3.2c-4,.17-7.13,1.75-8.88,1.59a5.43,5.43,0,0,1-2.27-.53s-.87,2.86.26,4.38A10.13,10.13,0,0,1,666.68,334.31Z" transform="translate(-573.73 -276.44)"/><polygon class="cls-13" points="141.61 141.53 137.9 141.53 134.19 117.88 137.01 117.88 141.61 141.53"/><polygon class="cls-14" points="140.54 141.53 126.08 141.53 122.37 117.88 136.84 117.88 140.54 141.53"/><rect class="cls-14" x="125.88" y="141" width="15.72" height="1.76"/><rect class="cls-13" x="141.61" y="141" width="19.83" height="1.76"/><path class="cls-13" d="M706.33,407.3c.42,1.81.12,3.77-.66,4.37s-1.76-.38-2.18-2.19-.12-3.77.66-4.37S705.91,405.49,706.33,407.3Z" transform="translate(-573.73 -276.44)"/><rect class="cls-28" x="573.73" y="419.39" width="178.06" height="3.42" transform="translate(751.79 565.75) rotate(180)"/><polygon class="cls-28" points="19 214.63 20.72 214.63 34.72 146.37 31.18 146.37 19 214.63"/><polygon class="cls-28" points="151.13 214.63 149.41 214.63 135.41 146.37 138.96 146.37 151.13 214.63"/><rect class="cls-5" x="134.68" y="45.17" width="29.97" height="29.67"/><rect class="cls-4" x="139.17" y="49.68" width="10.5" height="21.2"/><rect class="cls-9" x="134.68" y="39.5" width="29.97" height="5.67"/><path class="cls-8" d="M734.77,329.58a3.73,3.73,0,1,1-3.73-3.73A3.73,3.73,0,0,1,734.77,329.58Z" transform="translate(-573.73 -276.44)"/><polygon class="cls-4" points="157.02 54.6 155.29 52.38 156.86 53.04 160.45 49.9 157.02 54.6"/><circle class="cls-8" cx="157.31" cy="64.2" r="3.73"/><polygon class="cls-4" points="157.02 65.66 155.29 63.45 156.86 64.1 160.45 60.96 157.02 65.66"/><rect class="cls-8" x="186.1" y="18.31" width="5.16" height="10.85"/><rect class="cls-8" x="193.66" y="22.38" width="5.16" height="6.78"/><rect class="cls-8" x="201.22" y="19.16" width="5.16" height="10"/><rect class="cls-8" x="208.78" y="11.47" width="5.16" height="17.7"/><polyline class="cls-29" points="186.1 14.69 191.26 12.88 196.24 14.69 209.16 4.29"/><polygon class="cls-30" points="211.37 2.52 209.28 6.28 209 4.42 207.25 3.75 211.37 2.52"/><polyline class="cls-2" points="181.06 33.25 219.05 33.25 219.05 10.13"/></svg>