<svg id="Слой_1" data-name="Слой 1" xmlns="http://www.w3.org/2000/svg" viewBox="0 0 2580.07 1320.26"><defs><style>.cls-1,.cls-36{opacity:0.3;}.cls-2,.cls-36{fill:#fff;}.cls-3,.cls-45{fill:#000200;}.cls-3{opacity:0.1;}.cls-4{fill:#e4e4e4;}.cls-5{fill:#6e9449;}.cls-6{fill:#56733d;}.cls-7{fill:#89bc4f;}.cls-8{fill:#72994a;}.cls-9{fill:#c48f35;}.cls-10{fill:#e8ad30;}.cls-11{fill:#94c159;}.cls-12{fill:#855d2d;}.cls-13{fill:#292929;}.cls-14{fill:#414141;}.cls-15{fill:#7b8ec6;}.cls-16{fill:#293863;}.cls-17{fill:#66351d;}.cls-18{fill:#763e23;}.cls-19{fill:#61381d;}.cls-20{fill:#ecdfcd;}.cls-21{fill:#752870;}.cls-22{fill:#1c1c1c;}.cls-23{fill:#6d1e1d;}.cls-24{fill:#5393aa;}.cls-25{fill:#6f4924;}.cls-26{fill:#589bb5;}.cls-27{fill:#5391a9;}.cls-28{fill:#f8f1cb;opacity:0.8;}.cls-29{fill:#182540;}.cls-30{fill:#000300;}.cls-31{fill:#e8eaf0;}.cls-32{fill:#d3d9e6;}.cls-33{fill:#c5ccda;}.cls-34{fill:#353535;}.cls-35{fill:#d2d2d2;}.cls-37{fill:#222;}.cls-38{fill:#2f4562;}.cls-39{fill:#efe4cd;}.cls-40{fill:#dbcbba;}.cls-41{fill:#3c3c3c;}.cls-42{fill:#dc8638;}.cls-43{fill:#e3e8f0;}.cls-44{fill:#fdf8ee;}.cls-45,.cls-51{opacity:0.05;}.cls-46{fill:#b95456;}.cls-47{fill:#d25f61;}.cls-48{fill:#8f4142;}.cls-49{fill:#3b4898;}.cls-50{fill:#f2cc47;}.cls-51,.cls-53{fill:#0c0d0d;}.cls-52{fill:#e5bd39;}.cls-53{opacity:0.2;}.cls-54{fill:#f6e35d;}.cls-55{fill:#8395ca;}.cls-56{fill:#e1995f;}</style></defs><title>about-reputation</title><g class="cls-1"><path class="cls-2" d="M1768.9,1009.4q1.1-14.85,1.81-29.73,1.3-27.21,1.3-54.48a1137.63,1137.63,0,0,0-22.94-227.56,1123.13,1123.13,0,0,0-169.91-403.77,1132.23,1132.23,0,0,0-496.8-409.1,1122.71,1122.71,0,0,0-212-65.8,1140.19,1140.19,0,0,0-455.13,0A1123.35,1123.35,0,0,0,11.5-11.14a1135.52,1135.52,0,0,0-305,305A1122.87,1122.87,0,0,0-463.4,697.63a1136.9,1136.9,0,0,0-22.94,227.56q0,27.39,1.31,54.73.7,14.64,1.77,29.24l5.12.37q-1.12-14.94-1.83-30-1.3-27-1.3-54.35c0-619.83,504.27-1124.1,1124.1-1124.1S1766.94,305.36,1766.94,925.19q0,27.21-1.29,54.11-.72,15.29-1.86,30.47Z" transform="translate(606.83 276.1)"/></g><g class="cls-1"><path class="cls-2" d="M1640,720.12a1013,1013,0,0,0-153.19-364A1020.69,1020.69,0,0,0,1039-12.63,1012.63,1012.63,0,0,0,847.9-72a1027.6,1027.6,0,0,0-410.14,0,1013,1013,0,0,0-364,153.19A1020.71,1020.71,0,0,0-295,529a1013.23,1013.23,0,0,0-59.33,191.13A1025.2,1025.2,0,0,0-375,925.19q0,24.13,1.13,48.24,1,21.15,2.86,42.22c35,1.62,73.85,3.15,116.22,4.59q-2.68-25.5-3.93-51.4-1-21.69-1-43.65c0-497.7,404.91-902.6,902.6-902.6s902.61,404.9,902.61,902.6q0,21.9-1,43.54-1.23,26-3.94,51.62c42.31-1.42,81.19-2.94,116.22-4.55q1.88-21.22,2.87-42.53,1.13-24,1.12-48.08A1025.92,1025.92,0,0,0,1640,720.12Z" transform="translate(606.83 276.1)"/></g><ellipse class="cls-3" cx="1304.63" cy="1271.41" rx="1275.44" ry="48.85"/><path class="cls-2" d="M1866.56,994.47c0,2.61-8.46,5.17-24.58,7.63-16.56,2.53-41.22,5-73.08,7.3l-5.11.37c-29.91,2.11-65.84,4.13-107.11,6-35,1.61-73.91,3.13-116.22,4.55-223.19,7.48-542,12.17-896,12.17-355.71,0-675.93-4.73-899.27-12.28-42.37-1.44-81.25-3-116.22-4.59-41.42-1.92-77.36-4-107.12-6.12l-5.12-.37q-5.1-.37-9.95-.77c-54.49-4.31-84.42-9-84.42-13.92s30.11-9.64,84.93-14l7.67-.59,5.06-.38c29.44-2.14,65-4.19,106.09-6.11,34.64-1.62,73.16-3.16,115.15-4.59,223.5-7.63,545.39-12.42,903.2-12.42,356.06,0,676.56,4.74,899.93,12.31,41.94,1.42,80.46,2.93,115.15,4.54,40.93,1.9,76.52,3.91,106.1,6l5.06.37c30.81,2.27,54.75,4.65,71,7.12S1866.56,991.84,1866.56,994.47Z" transform="translate(606.83 276.1)"/><rect class="cls-2" x="29.2" y="1214.85" width="2444.2" height="55.72"/><path class="cls-4" d="M1866.57,938.76c0,2.61-8.47,5.16-24.59,7.63-113.49,17.35-606.51,30.42-1197.51,30.42-517.09,0-959.18-10-1137.68-24.13-54.49-4.31-84.42-9-84.42-13.92s30.12-9.65,84.93-14c178.83-14.1,620.57-24.08,1137.17-24.08,590.52,0,1083.21,13,1197.23,30.37C1858,933.56,1866.57,936.12,1866.57,938.76Z" transform="translate(606.83 276.1)"/><path class="cls-5" d="M-369.39,745.53C-376,749-399,774.92-401.55,754.17s13-15.52,13-15.52c22.8,6.16,39.45-18.69,39.45-18.69.15-4.62-1.6-10.49-4.06-16.36-.18-.43-.37-.87-.56-1.3a171.25,171.25,0,0,0-13.39-24.08c-9.36,17.56-49,48.58-52.92,39.22s6.62-12.54,6.62-12.54C-376.47,697.15-375.1,670-375.1,670a19.53,19.53,0,0,0-3.81-5.74l-.95-1c-9.77-10.13-29.67-20.84-29.67-20.84A43,43,0,0,1-425,673c-24.41,1.36-11.41-13.92-11.41-13.92,18.93-5,17.34-23.49,17.34-23.49a12.81,12.81,0,0,1-5.34-1.88l-1.13-.64c-8.48-4.95-20.22-15.49-20.22-15.49-.9,8.08-10.19,10.86-10.48,10.94,2.51-1.4,3.64-13.68,3.64-13.68a15.88,15.88,0,0,1-2.55-1.5c-.34-.24-.7-.51-1.07-.79-5.94-4.48-14.87-13.61-18.9-17.83-1.32-1.38-2.11-2.23-2.11-2.23a4,4,0,0,1,.15,1.16,10.35,10.35,0,0,1-.37,2.49c-1.48,5.8-7.09,15.44-11.49,22.43l-.77,1.22c-2.75,4.32-4.85,7.36-4.85,7.36,7.07,17.79,37.17,12.09,24.4,27.53s-31-17.49-31-17.49c.36,2-1.72,6.11-4.75,10.77-.26.4-.53.8-.81,1.21-2.22,3.31-4.86,6.85-7.41,10.13l-.84,1.08c-5,6.37-9.45,11.47-9.45,11.47s2.28,18.93,29.19,25.32,23,11.63,23,11.63c-26.46,11.4-54.28-29.65-54.28-29.65-5.51,6-9.94,13.84-13.42,21.74-.2.44-.39.87-.57,1.31a171.51,171.51,0,0,0-9.73,31.36c25.32,34.79,39.46,17,51.77,17s18.47,3.65,18.47,7.06-3,14.83-26.91,14.83S-552.3,748-552.3,748a241.34,241.34,0,0,0,7.76,34.29c.15.48.3,1,.46,1.45,28.86,89.26,93,28.49,101.27,20.14l.89-.92a12.93,12.93,0,0,0,.4,2h0a18.44,18.44,0,0,0,1.19,3.12h0a18.86,18.86,0,0,0,8.9,8.79c23.77,11.65,80.51-4.1,78-32.2a73.94,73.94,0,0,1,.21-14.85q.08-.72.18-1.44a90.84,90.84,0,0,1,12.38-34.85S-362.78,742.08-369.39,745.53Zm-42.88,8.81c-1.11,2.13-5.08,2.25-8.86.26s-5.94-5.31-4.82-7.44,5.08-2.25,8.86-.26S-411.15,752.21-412.27,754.34Zm-45.17-4.17c-5.51,2.74-11.33,2.23-13-1.14s1.45-8.31,7-11,11.33-2.23,13,1.14S-451.92,747.44-457.44,750.17Zm-5.22-41.33c-.19-2.21,3.42-4.33,8.08-4.74s8.58,1,8.77,3.24-3.41,4.33-8.07,4.74S-462.46,711.05-462.66,708.84Zm51.6-44.65c1.77-4.32,4.86-7.15,6.92-6.31s2.29,5,.53,9.36-4.87,7.14-6.93,6.3S-412.82,668.52-411.06,664.19Zm-65.11,138.73c-8.71,3.57-16.88,3.77-18.24.45s4.6-8.91,13.32-12.48,16.88-3.77,18.24-.45S-467.45,799.35-476.17,802.92Zm72.4-16.53c-.84,3.66-5.5,5.71-10.39,4.58s-8.18-5-7.34-8.67,5.5-5.71,10.4-4.58S-402.92,782.73-403.77,786.39Z" transform="translate(606.83 276.1)"/><g class="cls-1"><path class="cls-2" d="M-353,768.39q-.1.72-.18,1.44c-25.79,6.45-45.34,5.59-58.26,3.23-14.17-2.6-22.81-7.28-26.23-9.43-.52-.34-.93-.61-1.21-.81-.5.46-1,.91-1.52,1.36-8.87,7.69-20,13.44-33.12,17.12a144.54,144.54,0,0,1-37.87,4.91h-1.27a209,209,0,0,1-31.38-2.46c-.16-.48-.31-1-.46-1.45a205.93,205.93,0,0,0,33.13,2.55c21.26-.15,50.69-4.21,71.06-22.56l.92-.84.42-.39.46.35s.32.25.93.64c2.74,1.81,11.59,7,26.49,9.69C-398.28,774.08-378.8,774.91-353,768.39Z" transform="translate(606.83 276.1)"/></g><g class="cls-1"><path class="cls-2" d="M-353.16,703.6a141.87,141.87,0,0,1-21.61,14.29,96.32,96.32,0,0,1-33.37,11c-14.76,1.79-24.86-1.16-28.67-2.59-.67-.26-1.15-.46-1.42-.58l-1.29.43A102.15,102.15,0,0,1-471,731.23a91.65,91.65,0,0,1-13.66-1,98.82,98.82,0,0,1-35.31-12.65,116.18,116.18,0,0,1-20.57-15.39c.18-.44.37-.87.57-1.31a115.46,115.46,0,0,0,20.73,15.55c17.26,10.08,45,19.61,79.67,8.26l1.14-.38.27-.09.25.12s.37.18,1.05.44c3.2,1.25,13.52,4.56,28.64,2.71,13.2-1.61,32.27-7.54,54.48-25.18C-353.53,702.73-353.34,703.17-353.16,703.6Z" transform="translate(606.83 276.1)"/></g><g class="cls-1"><path class="cls-2" d="M-378.91,664.27A81.11,81.11,0,0,1-388,673.1a71,71,0,0,1-26,13.77,71,71,0,0,1-19.37,2.7,62.21,62.21,0,0,1-8.07-.5c-.9-.13-1.47-.24-1.66-.27l-1.18,0c-28.89-.66-48.59-10.76-60.06-19.18A86.13,86.13,0,0,1-515,660.36l.84-1.08a85,85,0,0,0,10.68,9.27c11.27,8.25,30.57,18.14,58.88,18.86l1.59,0,.13,0s.41.09,1.12.2a67.5,67.5,0,0,0,27.46-2.1c10-2.86,22.77-9,34.47-22.31Z" transform="translate(606.83 276.1)"/></g><g class="cls-1"><path class="cls-2" d="M-424.45,633.69a35.1,35.1,0,0,1-12.92,14.17A38.14,38.14,0,0,1-452,653.14c-.56.07-1,.11-1.25.13-.37.42-.75.84-1.14,1.24-6.73,7.12-14.1,10.72-22,10.72-.56,0-1.13,0-1.7-.06-11.64-.76-21.94-9-28.73-16,.28-.41.55-.81.81-1.21,6.65,6.93,16.8,15.15,28,15.88,8.28.54,16-3.08,23.09-10.76.27-.29.54-.59.8-.9l.19-.21.29,0s.44,0,1.15-.11A37.11,37.11,0,0,0-438,646.68a33.41,33.41,0,0,0,12.45-13.63Z" transform="translate(606.83 276.1)"/></g><g class="cls-1"><path class="cls-2" d="M-455.19,613.32a30.86,30.86,0,0,1-9.41,6.16c-.59.24-1,.38-1.2.45a11,11,0,0,1-1.24.74,17.85,17.85,0,0,1-8.46,1.86,46,46,0,0,1-14.25-2.76l.77-1.22c7.72,2.59,15.9,3.89,21.43.86a10.36,10.36,0,0,0,1.06-.65l.09-.07.1,0s.45-.14,1.19-.44a28.87,28.87,0,0,0,7.74-4.69c.38-.33.75-.66,1.11-1C-455.89,612.81-455.53,613.08-455.19,613.32Z" transform="translate(606.83 276.1)"/></g><path class="cls-6" d="M-437.62,762.05c0,.53-.05,1.05-.09,1.58-.43,8.57-1,17.15-1.48,25.37-.41,6.51-.81,12.93-1.14,19.09h0c-1.18,21.53-1.56,39.79,1.45,46.79l-2.48,1.07c-3.44-8-2.86-27.82-1.45-52.06.28-4.86.6-9.9.92-15.06.5-8,1-16.32,1.45-24.65l.09-1.89c.63-12.51,1-25,.83-36.19l0-1.42c-.07-3-.18-5.83-.35-8.59a162.9,162.9,0,0,0-4.4-27.31c-.11-.46-.21-.91-.33-1.37-2.6-10.77-6-22-9.74-32.9-.16-.48-.33-1-.5-1.45-4-11.64-8.28-22.79-12.17-32.39l-.51-1.26c-4.06-10-7.64-18.15-9.94-23.29a10.35,10.35,0,0,0,.37-2.49,4,4,0,0,0-.15-1.16s.79.85,2.11,2.23c2.29,5.11,5.92,13.39,10.05,23.52l.51,1.26c3.87,9.57,8.15,20.7,12.16,32.34.15.44.3.88.46,1.32,3.88,11.39,7.49,23.23,10.19,34.52l.33,1.41a163.26,163.26,0,0,1,4.27,26.87c.17,2.83.28,5.79.35,8.83l0,1.48C-436.62,737.38-437,749.69-437.62,762.05Z" transform="translate(606.83 276.1)"/><path class="cls-7" d="M-494.57,714.52a90.91,90.91,0,0,1,6,36.51c0,.47,0,1-.09,1.44a72.87,72.87,0,0,1-2.44,14.65c-7.48,27.2,45.54,52.81,71,45.59a18.82,18.82,0,0,0,10.33-7.06h0a17.66,17.66,0,0,0,1.72-2.86h0a11.77,11.77,0,0,0,.75-1.9l.71,1.06c6.67,9.71,58.92,80.94,103.25-1.75.23-.45.47-.9.71-1.34a242.14,242.14,0,0,0,13.75-32.37s-25.45,20.19-49,15.92-24.45-16-23.84-19.38,7.32-5.86,19.44-3.66,22.85,22.24,54-7.48a170.88,170.88,0,0,0-4-32.59c-.1-.46-.21-.93-.32-1.39-2-8.39-5-16.92-9.33-23.78,0,0-34.7,35.43-58.7,19.49,0,0-2.88-5.85,24.74-7.34s33.24-19.7,33.24-19.7-3.46-5.82-7.25-13c-.21-.4-.43-.8-.64-1.21-1.92-3.68-3.88-7.63-5.48-11.29l-.58-1.33c-2.15-5.13-3.47-9.51-2.76-11.45,0,0-23.82,29.14-33.64,11.68s18.79-6.49,28.92-22.73c0,0-1.52-3.37-3.46-8.11-.17-.43-.36-.88-.53-1.33-3.09-7.67-6.89-18.16-7.31-24.13a10.59,10.59,0,0,1,.07-2.51,4.09,4.09,0,0,1,.36-1.12s-.93.7-2.47,1.82c-4.72,3.43-15.13,10.82-21.78,14.18l-1.2.58a15.18,15.18,0,0,1-2.77,1s-1.08,12.29,1.14,14.11c-.27-.13-8.92-4.52-8.36-12.64,0,0-13.43,8.28-22.66,11.64-.42.16-.83.3-1.23.43a12.73,12.73,0,0,1-5.58.9S-404.78,650-387,658.32c0,0,10.06,17.35-13.7,11.65a43,43,0,0,1-9.82-32.83s-21.49,7-32.91,15.21c-.38.28-.75.55-1.11.83a19.35,19.35,0,0,0-4.78,5s-3.49,27,31.48,41.16c0,0,9.75,5,4.27,13.53s-39-29.09-45.07-48a171.25,171.25,0,0,0-17.48,21.31l-.78,1.19c-3.46,5.33-6.23,10.79-6.91,15.36,0,0,12,27.43,35.49,25.43,0,0,16.19-2.39,10,17.58s-24.21-9.65-30.11-14.23S-494.57,714.52-494.57,714.52Zm72.82,26.77c4.07-1.28,7.95-.45,8.67,1.84s-2,5.19-6.07,6.47-8,.45-8.67-1.85S-425.82,742.57-421.75,741.29Zm34.24-1.69c2.24-3,8.06-2.47,13,1.2s7.12,9.09,4.88,12.11-8.06,2.47-13-1.2S-389.75,742.61-387.51,739.6Zm8.16-26c-4.5-1.23-7.68-4-7.09-6.1s4.71-2.86,9.21-1.62,7.69,4,7.1,6.1S-374.84,714.83-379.35,713.59ZM-415.12,668c-2.17.46-4.72-2.88-5.69-7.44s0-8.65,2.18-9.11,4.73,2.87,5.69,7.44S-412.95,667.49-415.12,668Zm30.63,124.35c1.93-3,9.93-1.37,17.87,3.7s12.81,11.62,10.88,14.65-9.93,1.37-17.87-3.7S-386.42,795.32-384.49,792.3Zm-48.65-21.75c5-.23,9.24,2.61,9.42,6.36s-3.75,7-8.77,7.22-9.23-2.6-9.41-6.35S-438.16,770.79-433.14,770.55Z" transform="translate(606.83 276.1)"/><g class="cls-1"><path class="cls-2" d="M-488.6,751c0,.47,0,1-.09,1.44,24.23,10.95,43.62,13.59,56.75,13.56,14.41,0,23.75-3.09,27.49-4.6.58-.24,1-.43,1.34-.58.41.54.83,1.08,1.26,1.61,7.35,9.15,17.27,16.79,29.53,22.76a144.63,144.63,0,0,0,36.39,11.58l1.25.23a210.17,210.17,0,0,0,31.32,3.17c.23-.45.47-.9.71-1.34a207.35,207.35,0,0,1-33.06-3.4c-20.89-3.94-49.12-13.19-65.9-34.87-.25-.33-.51-.66-.75-1l-.35-.47-.51.27s-.36.19-1,.46c-3,1.3-12.65,4.81-27.79,4.82C-445.11,764.69-464.43,762-488.6,751Z" transform="translate(606.83 276.1)"/></g><g class="cls-1"><path class="cls-2" d="M-476.94,687.3a142.64,142.64,0,0,0,18.72,17.91,96.3,96.3,0,0,0,30.88,16.72c14.21,4.39,24.67,3.29,28.68,2.56.7-.13,1.21-.25,1.5-.32l1.19.66a102.14,102.14,0,0,0,30,10.66,93.23,93.23,0,0,0,13.62,1.44,99,99,0,0,0,37-6.15,116.32,116.32,0,0,0,23-11.48c-.1-.46-.21-.93-.32-1.39a116,116,0,0,1-23.18,11.61c-18.77,6.83-47.78,11.26-79.86-6.08l-1.06-.58-.24-.14-.27.08s-.4.11-1.11.25c-3.37.65-14.12,2.07-28.67-2.45-12.7-3.94-30.4-13.17-49.12-34.49Z" transform="translate(606.83 276.1)"/></g><g class="cls-1"><path class="cls-2" d="M-444.58,653.18a80.36,80.36,0,0,0,7.35,10.31,71.08,71.08,0,0,0,23.16,18.19,71.15,71.15,0,0,0,18.58,6.12,62.34,62.34,0,0,0,8,.94c.91,0,1.49,0,1.68,0l1.17.18c28.54,4.51,49.72-1.91,62.52-8.16a84.84,84.84,0,0,0,12.14-7.19c-.21-.4-.43-.8-.64-1.21a83.94,83.94,0,0,1-12.16,7.22c-12.56,6.11-33.31,12.4-61.3,8.06l-1.57-.25h-1.26a67.46,67.46,0,0,1-26.65-7c-9.35-4.6-20.79-13-29.94-28.09C-443.85,652.63-444.22,652.9-444.58,653.18Z" transform="translate(606.83 276.1)"/></g><g class="cls-1"><path class="cls-2" d="M-394.33,631.21a35.12,35.12,0,0,0,10.19,16.25,38.18,38.18,0,0,0,13.44,7.8c.54.17.95.29,1.2.35.3.48.6,1,.9,1.42,5.35,8.21,12,13.06,19.72,14.47.56.1,1.12.18,1.69.24,11.59,1.33,23.19-4.92,31.12-10.64l-.58-1.33c-7.78,5.63-19.23,11.91-30.39,10.63-8.24-.95-15.24-5.89-20.8-14.71-.22-.33-.43-.67-.64-1l-.14-.25-.29-.06s-.42-.1-1.11-.32a37.08,37.08,0,0,1-13.26-7.62,33.49,33.49,0,0,1-9.82-15.64C-393.52,630.94-393.93,631.08-394.33,631.21Z" transform="translate(606.83 276.1)"/></g><g class="cls-1"><path class="cls-2" d="M-360.45,616.65a30.71,30.71,0,0,0,8.17,7.73c.54.35.92.57,1.09.66a14.12,14.12,0,0,0,1.09,1,17.94,17.94,0,0,0,8,3.33,45.72,45.72,0,0,0,14.51-.17c-.17-.43-.36-.88-.53-1.33-8.06,1.16-16.35,1-21.25-3a12.16,12.16,0,0,1-.93-.84l-.07-.07-.1-.05s-.42-.22-1.08-.65a28.87,28.87,0,0,1-6.79-6c-.32-.39-.62-.78-.91-1.17Z" transform="translate(606.83 276.1)"/></g><path class="cls-8" d="M-404.25,759.86c-.06.53-.14,1-.2,1.57-1.1,8.52-2.1,17.06-3.06,25.23-.76,6.48-1.51,12.87-2.28,19h0c-2.68,21.4-5.57,39.43-9.78,45.78l2.26,1.5c4.81-7.25,7.77-26.87,10.7-51,.59-4.83,1.18-9.84,1.79-15,.93-8,1.9-16.24,3-24.52l.24-1.87c1.61-12.43,3.44-24.76,5.64-35.76.1-.47.19-.93.28-1.39.6-2.9,1.22-5.71,1.87-8.39a163.31,163.31,0,0,1,9.21-26.1c.18-.43.37-.85.56-1.28,4.49-10.13,9.87-20.59,15.45-30.64l.76-1.34c6-10.73,12.21-21,17.74-29.69l.73-1.15c5.77-9.09,10.76-16.5,13.94-21.15a10.59,10.59,0,0,1,.07-2.51,4.09,4.09,0,0,1,.36-1.12s-.93.7-2.47,1.82c-3.17,4.62-8.22,12.12-14.08,21.35-.25.38-.49.76-.73,1.14C-357.8,633.12-364,643.31-370,654c-.22.41-.45.81-.68,1.22-5.86,10.52-11.52,21.52-16.18,32.15-.2.44-.39.88-.58,1.33a163.8,163.8,0,0,0-9,25.67c-.67,2.76-1.31,5.65-1.92,8.64-.1.47-.2,1-.29,1.44C-400.84,735.41-402.65,747.59-404.25,759.86Z" transform="translate(606.83 276.1)"/><path class="cls-9" d="M-387.65,937.7h-82.59a8.46,8.46,0,0,1-8.41-7.55l-8.05-73.84a8.46,8.46,0,0,1,8.42-9.38h98.68a8.47,8.47,0,0,1,8.42,9.38l-8.05,73.84A8.48,8.48,0,0,1-387.65,937.7Z" transform="translate(606.83 276.1)"/><rect class="cls-10" x="109.9" y="1123.02" width="137.18" height="24.38" rx="6.07"/><path class="cls-11" d="M1776.22,763.38c-.08,4.84-9.9,54.69-95.26,87.2,0,0,11.21-19.27,42.37-41.25,30.46-21.47,50.41-39.51,52.56-45.55a3.57,3.57,0,0,0,.12-.4C1776.14,762.86,1776.23,762.88,1776.22,763.38Z" transform="translate(606.83 276.1)"/><path class="cls-11" d="M1683.69,856.92h0c-.83-.4-54-25.86-64.33-37-10.8-11.59-20.57-29.67-29-42.5-4.33-6.6-8.29-11.82-11.84-14-.2-.13-.41-.25-.61-.36C1580,764.12,1646.84,799.55,1683.69,856.92Z" transform="translate(606.83 276.1)"/><path class="cls-11" d="M1789.78,721.2s-15.55,11.94-18.61,17.71c-5.83,11-25.4,23.83-47.75,33.85-13.81,6.18-21,11.2-43.48,39.66l0-.06c1.08-2.11,24.49-47.12,56.23-61.35,32.51-14.57,28-23.76,35.42-27.35S1789.78,721.2,1789.78,721.2Z" transform="translate(606.83 276.1)"/><path class="cls-11" d="M1682.34,823.94c-13.22-19.05-41.47-33.62-49.32-38.55s-17.93-17-26.44-31.16-38.34-19.73-38.34-19.73c28-7.17,51.34,7.84,56.94,16.81s16.59,20.85,32.5,32.5S1682.34,823.94,1682.34,823.94Z" transform="translate(606.83 276.1)"/><path class="cls-11" d="M1787.08,655.29c-.67,15.24-15,49.09-44.83,63.21-29.35,13.9-58.7,42.57-59.61,43.46l0,0a15.86,15.86,0,0,0,1-1.26c6.46-9.15,16.14-35.49,51.89-53.15C1773.18,688.91,1787.08,655.29,1787.08,655.29Z" transform="translate(606.83 276.1)"/><path class="cls-11" d="M1568.06,678.66c-.76-.09-1.16-.12-1.16-.12A5,5,0,0,1,1568.06,678.66Z" transform="translate(606.83 276.1)"/><path class="cls-11" d="M1683.69,772.25s-12.55,6.69-58-44.55c-30.43-34.35-46.68-44.71-54-47.83l-.06,0a18.89,18.89,0,0,0-3.64-1.18c7.34.82,47.1,6.71,67.19,39.79,22.17,36.5,40.09,48.84,48.4,53.79Z" transform="translate(606.83 276.1)"/><path class="cls-11" d="M1767.08,637.86v0l0,.07c-.89,2-15.37,34.49-27.75,50.34-12.67,16.24-52.94,40-53.57,40.34.25-.47,15.65-28.14,37.43-42.81S1766.74,638.37,1767.08,637.86Z" transform="translate(606.83 276.1)"/><path class="cls-11" d="M1686.84,733.32h0c-1.22-.21-40.33-7-68.79-45.87-28.92-39.45-14.8-42.59-38.34-66.8h0c.89.51,29.45,17.08,50.19,62.31C1629.9,683,1644.7,711.71,1686.84,733.32Z" transform="translate(606.83 276.1)"/><path class="cls-11" d="M1728.1,657.21c-9.54,9.64-34.9,34.82-39.17,39.06h0l-.6.6.08-.53c.65-4.24,6-33.24,30.64-51.59,26.26-19.53,37.09-51.11,37.43-52.09a0,0,0,0,0,0,0C1757.14,619.1,1738.53,646.67,1728.1,657.21Z" transform="translate(606.83 276.1)"/><path class="cls-11" d="M1688.91,701.59l-.05,0c-1.59-.67-35.74-15.3-51.73-46.6-16.35-32-22-47.28-31.36-54.91h0c.94.55,31,18.32,47.28,58.27,0,0,6.93,14.76,35.77,43.17Z" transform="translate(606.83 276.1)"/><path class="cls-11" d="M1690.39,664.92c-2.53-2.21-22.4-20.18-35.6-49.53-14.1-31.34-18.82-41.89-24.41-44.15a24.15,24.15,0,0,1,3.44,1.09l.19.08c7.83,3.08,26.35,13.54,36.25,45.67,9.06,29.41,15.52,40.78,18.52,44.91A14.81,14.81,0,0,0,1690.39,664.92Z" transform="translate(606.83 276.1)"/><path class="cls-11" d="M1690.64,665.14h0Z" transform="translate(606.83 276.1)"/><path class="cls-11" d="M1726.31,565.07l0,.08Z" transform="translate(606.83 276.1)"/><path class="cls-11" d="M1715.89,619.77c-22.07,29.13-25.67,34-25.78,34.18h0a179.67,179.67,0,0,1,18.38-42.24c12.66-21.24,19.16-41.05,18-46.05a.65.65,0,0,0,0-.13,1.79,1.79,0,0,0-.12-.37C1727.06,566.7,1737.58,591.14,1715.89,619.77Z" transform="translate(606.83 276.1)"/><path class="cls-12" d="M1688.14,896.73a11.65,11.65,0,0,1-.72-1.28c-.22-.39-.35-.74-.52-1.11l-.48-1.1c-.14-.36-.26-.72-.39-1.08-.25-.72-.55-1.45-.76-2.17l-.63-2.17-.32-1.08c-.1-.36-.18-.72-.27-1.08l-.51-2.17c-.16-.73-.36-1.45-.49-2.17l-.41-2.18-.41-2.17c-.13-.73-.27-1.45-.36-2.18l-.62-4.35-.31-2.18-.22-2.18-.45-4.36-.22-2.18-.15-2.18-.29-4.36c-.09-1.46-.21-2.91-.28-4.36l-.15-4.36-.15-4.36c0-1.45-.12-2.91-.1-4.36l0-8.71c0-23.22,1.52-46.37,3.61-69.42,1-11.55,2.2-23,3.23-34.55s2.07-23,2.88-34.55c.19-2.88.44-5.76.59-8.64l.47-8.65c.2-5.77.45-11.55.19-17.31,0-1.44-.14-2.87-.26-4.31s-.32-2.86-.5-4.29-.48-2.84-.74-4.26-.55-2.84-.8-4.26a146.88,146.88,0,0,1-1.84-17.25,145.62,145.62,0,0,0,2.19,17.18c.27,1.42.58,2.83.88,4.24s.59,2.84.84,4.27.48,2.86.59,4.31.31,2.89.36,4.34c.37,5.79.24,11.58.16,17.37l-.3,8.68c-.09,2.89-.27,5.78-.41,8.67-.58,11.56-1.36,23.1-2.17,34.64s-1.78,23.07-2.52,34.59c-1.61,23-2.63,46.13-2.18,69.16l.22,8.63c0,1.44.12,2.87.2,4.31l.23,4.3.24,4.31c.1,1.43.24,2.86.36,4.29l.37,4.28.2,2.14.26,2.13.52,4.26.26,2.13.35,2.11.68,4.21c.11.71.26,1.4.4,2.1l.43,2.08.44,2.08c.14.69.34,1.36.51,2l.52,2c.09.34.17.69.27,1l.32,1,.62,2c.21.66.48,1.27.71,1.91.13.32.24.64.37,1l.41.88a6.58,6.58,0,0,0,.41.84,6.48,6.48,0,0,0,.34.61,2.86,2.86,0,0,1-4.36,3.7,2.35,2.35,0,0,1-.19-.25Z" transform="translate(606.83 276.1)"/><path class="cls-11" d="M1690.87,598.07c-3.84,29.83-2,43.46-1.82,44.74a.29.29,0,0,1,0,.09S1678.09,627,1679,590c.78-31.74-4.23-43-5.66-45.57l-.12-.2-.09-.14a1.76,1.76,0,0,0-.13-.2l0,0C1673.71,544.64,1694.83,567.25,1690.87,598.07Z" transform="translate(606.83 276.1)"/><path class="cls-3" d="M1776.22,763.38c-.08,4.84-9.9,54.69-95.26,87.2,0,0,83.9-50,94.93-86.8,0-.13.08-.27.12-.4Z" transform="translate(606.83 276.1)"/><path class="cls-3" d="M1683.68,856.92c-.83-.4-54-25.86-64.33-37-10.8-11.59-20.57-29.67-29-42.5C1633.25,825.76,1682.83,856.4,1683.68,856.92Z" transform="translate(606.83 276.1)"/><path class="cls-3" d="M1789.77,721.11s-15.54,11.94-18.61,17.71c-5.82,11-25.4,23.84-47.74,33.85-13.82,6.19-21,11.21-43.49,39.67a.43.43,0,0,0,0-.07c1.17-1.88,25.34-40.55,48.62-49.25,23.86-8.91,38.35-27.49,39.38-28.52S1778.79,723.38,1789.77,721.11Z" transform="translate(606.83 276.1)"/><path class="cls-3" d="M1682.34,823.94c-13.22-19.05-41.47-33.62-49.32-38.55s-17.93-17-26.44-31.16-38.34-19.73-38.34-19.73,30.37.88,36.67,11.56,25.47,30.59,40.4,37.47S1679.71,819,1682.34,823.94Z" transform="translate(606.83 276.1)"/><path class="cls-3" d="M1787.08,655.29c-.67,15.24-15,49.09-44.83,63.21-29.35,13.9-58.7,42.57-59.61,43.46l0,0,1-1.26c5.17-6.65,29.42-36.62,52.57-45.93C1762.3,704.25,1786,668.87,1787.08,655.29Z" transform="translate(606.83 276.1)"/><path class="cls-3" d="M1767,638c-.89,2-15.37,34.49-27.75,50.34-12.67,16.24-52.94,40-53.57,40.34.46-.48,20.73-21.43,33.55-31.74S1758,657.3,1767,638Z" transform="translate(606.83 276.1)"/><path class="cls-3" d="M1683.69,772.25s-12.55,6.69-58-44.55c-30.43-34.35-46.68-44.71-54-47.83,29.44,11.27,40.44,21.55,49.18,33.61,36.71,50.61,61.75,58.38,62.71,58.76Z" transform="translate(606.83 276.1)"/><path class="cls-11" d="M1688.39,696.36l.52-.07-.6.6Z" transform="translate(606.83 276.1)"/><path class="cls-3" d="M1728.1,657.21c-9.54,9.64-34.9,34.82-39.17,39.06.49-.94,16.53-31.17,33.47-42.32,17.2-11.3,30-38.42,34.06-61.27a0,0,0,0,0,0,0C1757.14,619.1,1738.53,646.67,1728.1,657.21Z" transform="translate(606.83 276.1)"/><path class="cls-3" d="M1715.89,619.77c-22.07,29.13-25.67,34-25.78,34.18h0c.41-.81,14.44-28.78,26.23-44.42s12.81-35.74,10.17-43.87a.65.65,0,0,0,0-.13,4.72,4.72,0,0,0-.16-.45l0,.08C1727.06,566.7,1737.58,591.14,1715.89,619.77Z" transform="translate(606.83 276.1)"/><path class="cls-3" d="M1690.87,598.07c-3.84,29.83-2,43.46-1.82,44.74-5.92-32.47-2.64-43.91-.74-57.94,1.74-12.8-12.45-36.36-15-40.44l-.12-.2a.55.55,0,0,1-.09-.14c-.06-.08-.1-.16-.13-.2l0,0C1673.71,544.64,1694.83,567.25,1690.87,598.07Z" transform="translate(606.83 276.1)"/><path class="cls-3" d="M1686.82,733.32c-1.22-.21-40.33-7-68.79-45.87-28.92-39.45-14.8-42.59-38.34-66.8h0c.79.64,23.73,19.13,49.4,69.92C1629.11,690.58,1650.63,722.13,1686.82,733.32Z" transform="translate(606.83 276.1)"/><path class="cls-3" d="M1688.86,701.57c-1.59-.67-35.74-15.3-51.73-46.6-16.35-32-22-47.28-31.36-54.91h0c.8.56,23.88,17.09,38.76,53.14,15.15,36.69,44.29,48.3,44.29,48.3Z" transform="translate(606.83 276.1)"/><path class="cls-3" d="M1690.64,665.14h0l0,0h0l0,0,0,0,0,0a.23.23,0,0,1-.07-.07c-2.53-2.21-22.4-20.18-35.6-49.53-14.1-31.34-18.82-41.89-24.41-44.15h0a14.34,14.34,0,0,1,3.46,1.09l.19.08c5.74,2.55,16.89,10.41,23.78,34.17,7.93,27.38,25.27,49.58,31,56.41C1689.86,664.28,1690.52,665,1690.64,665.14Z" transform="translate(606.83 276.1)"/><path class="cls-9" d="M1718.7,937.54h-69.3A8.48,8.48,0,0,1,1641,930l-6.7-61.5a8.47,8.47,0,0,1,8.42-9.39h82.71a8.47,8.47,0,0,1,8.42,9.39l-6.7,61.5A8.48,8.48,0,0,1,1718.7,937.54Z" transform="translate(606.83 276.1)"/><rect class="cls-10" x="2232.12" y="1135.19" width="118.55" height="21.07" rx="5.24"/><g id="Monitor"><rect class="cls-13" x="1273.25" y="722.95" width="118.52" height="474.1"/><rect class="cls-14" x="844.57" y="356.86" width="975.87" height="664.27" rx="7.37"/><rect class="cls-15" x="855.1" y="366.08" width="954.82" height="616.89"/><path class="cls-14" d="M1128.88,1197.05h407.25a16.14,16.14,0,0,1,16.14,16.14v6.91a0,0,0,0,1,0,0H1112.74a0,0,0,0,1,0,0v-6.91A16.14,16.14,0,0,1,1128.88,1197.05Z"/></g><path class="cls-16" d="M1514.89,848.67c-6.63,8.23-16,9.41-20,9.52-5-10.51-10.56-22.75-15.24-34-2.28-5.48-4.34-10.72-6-15.4a112,112,0,0,1-3.32-10.74c-5.84-24.06-7.66-110.44-7.66-110.44l-17.49,90,1.1,30.49.63,17.28,1.34,36.77a30,30,0,0,1-24.32,1.3c-1-11.45-2.23-24.84-3.3-38.11-.35-4.41-.69-8.82-1-13.13-1.41-19-2.39-36.28-2.15-45.17.74-26.61,17.5-107.16,19-130.48.47-7.28-1-19.41-3.39-32.9l59.43,3c1.42,16.44,2.2,28.09,2.2,28.09,23,47.75,1.82,123.56.37,146.16-.29,4.42.92,11.2,3.05,19.25,1.21,4.58,2.72,9.58,4.43,14.78C1506.17,825.9,1510.6,837.76,1514.89,848.67Z" transform="translate(606.83 276.1)"/><path class="cls-17" d="M1397.21,452s-5.17-35.69,40.6-35.69c0,0,29.23,1,29.23,31.81s5.43,47.06,19.65,56.89,19.66,39.31-21,34.4-37.58-1.38-45.41,3.36c-17.8,10.76-12.85-.89-16.49-15.63-1.17-4.71-8.53-12-6.8-19.28s8.45-18.36,6.64-25.61S1396.2,464.17,1397.21,452Z" transform="translate(606.83 276.1)"/><path class="cls-18" d="M1502.18,666l53.47-23.79s9.87,9.16,7.21,26.73l-53.37,25.52Z" transform="translate(606.83 276.1)"/><ellipse class="cls-19" cx="1505.83" cy="680.19" rx="3.46" ry="14.7" transform="translate(484.97 672.02) rotate(-14.4)"/><path class="cls-20" d="M1449.91,908.14s-3.64,10.57-28.06,22.23-38.63,1.82-38.63,1.82c24-11.3,43.73-37.17,43.73-37.17s-1.34-13.3-3-31.52a30,30,0,0,0,24.32-1.3Z" transform="translate(606.83 276.1)"/><path class="cls-20" d="M1411.81,432.39c17.65-13.61,33-2.07,39.92,1.94s5.57,56.81,8.75,63.78c4.56,10,18.89,13,18.89,13,5.92,20.36,10.59,65.83,13.17,95.6l-59.43-3c-5.13-29.75-14.18-66.07-14.18-71.34,0-7.65,15.61-22.89,15.61-22.89l1.27-24.38c-5.17,3.51-13.81,1.77-13.81,1.77C1400.83,467.93,1411.81,432.39,1411.81,432.39Z" transform="translate(606.83 276.1)"/><path class="cls-20" d="M1531.19,887.73c-9.84,46.29-40.46,45.92-40.46,45.92,13.85-14.58,17.14-48.84,17.14-48.84s-5.84-11.54-13-26.62c4-.11,13.36-1.29,20-9.52C1523.3,870,1531.19,887.73,1531.19,887.73Z" transform="translate(606.83 276.1)"/><path class="cls-17" d="M1408.93,429.38s9.41,25.87,32,18.56l19.25,28.34s7.14-15.28,3-29S1444.47,407,1408.93,429.38Z" transform="translate(606.83 276.1)"/><path class="cls-20" d="M1450.13,454.78c-2.39,4.14-6.49,6.25-9.17,4.7s-2.9-6.15-.51-10.29,6.5-6.25,9.17-4.7S1452.52,450.64,1450.13,454.78Z" transform="translate(606.83 276.1)"/><path class="cls-20" d="M1469.44,544.68s-11.88-27.93,17.56-29.5c0,0,39.58,62.6,41.15,66.61s10.1,38,10.45,68.29c0,0,5.92,13.58,4.7,18.81s-8.79,18.69-17.07,19.69c-4.7.56,1.22-20.39,1.22-20.39s-11,9.41-9.93,5.93,8.88-20.21,8.88-20.21-5.05-56.27-12.36-65.33S1469.44,544.68,1469.44,544.68Z" transform="translate(606.83 276.1)"/><path class="cls-20" d="M1416.48,531.79s-8.71,10.63-1.56,49.48,7.66,43.72,6.62,49.12-14.46,47.73-14.46,47.73-22.3,24.91-3.66,33.45S1422,681.78,1422,681.78s17.53-47,17.18-52.78-5.23-79.61-10.63-85.36S1416.48,531.79,1416.48,531.79Z" transform="translate(606.83 276.1)"/><path class="cls-21" d="M1434.54,509.48s-4.48,19.54,5,17.49,21-28.65,21-28.65,4.83,9.12,21.39,12.47a30.28,30.28,0,0,1,11.26,14.27,41.36,41.36,0,0,0-20.37,25.17l19.9,17.31s10.8,41.67,8.38,52.46-31.57,34-64.44,16.19c0,0-4.59-3.16-4.78-13.58s-16.37-47.45-17.49-70l-5.5-5.21s1-17.3,10.34-25.3S1434.54,509.48,1434.54,509.48Z" transform="translate(606.83 276.1)"/><path class="cls-16" d="M1501.68,913.48s14.13,11.06,28-29.08l8.79,19.72-3.18,2-6.66-6.54s-14,41.4-36.19,35.66c0,0-5.23-1.85-1.33-6.77S1501.68,913.48,1501.68,913.48Z" transform="translate(606.83 276.1)"/><path class="cls-16" d="M1401.53,920.57s19.11,13.88,48.27-15.64c0,0,.45,18.36-1.7,29.54,0,0-3.59,1.74-5.13.71l-1.85-14.45s-33.72,25-54.22,17.84c0,0-12.72-4.31,1-10.77S1401.53,920.57,1401.53,920.57Z" transform="translate(606.83 276.1)"/><ellipse class="cls-3" cx="2074.7" cy="1213.29" rx="111.86" ry="6.11"/><polygon class="cls-10" points="1001.52 598.65 1021.43 638.99 1065.95 645.46 1033.74 676.86 1041.34 721.2 1001.52 700.27 961.71 721.2 969.31 676.86 937.1 645.46 981.62 638.99 1001.52 598.65"/><path class="cls-2" d="M438.07,450l-43.38-22.81L351.32,450l8.28-48.3-35.09-34.21,48.5-7,21.68-43.95,21.69,43.95,48.5,7-35.1,34.21Zm-43.38-28.86L431,440.21,424,399.83l29.34-28.6-40.55-5.89L394.69,328.6l-18.13,36.74L336,371.23l29.34,28.6-6.93,40.38Z" transform="translate(606.83 276.1)"/><polygon class="cls-10" points="1167.02 598.65 1186.93 638.99 1231.44 645.46 1199.23 676.86 1206.84 721.2 1167.02 700.27 1127.2 721.2 1134.8 676.86 1102.59 645.46 1147.11 638.99 1167.02 598.65"/><path class="cls-2" d="M603.56,450l-43.37-22.81L516.81,450l8.28-48.3L490,367.49l48.5-7,21.69-43.95,21.68,43.95,48.5,7L595.28,401.7Zm-43.37-28.86,36.26,19.07-6.93-40.38,29.34-28.6-40.54-5.89L560.19,328.6l-18.14,36.74-40.54,5.89,29.34,28.6-6.93,40.38Z" transform="translate(606.83 276.1)"/><polygon class="cls-10" points="1332.51 598.65 1352.42 638.99 1396.94 645.46 1364.72 676.86 1372.33 721.2 1332.51 700.27 1292.69 721.2 1300.3 676.86 1268.08 645.46 1312.6 638.99 1332.51 598.65"/><path class="cls-2" d="M769.05,450l-43.37-22.81L682.3,450l8.29-48.3L655.5,367.49l48.49-7,21.69-43.95,21.69,43.95,48.49,7L760.77,401.7Zm-43.37-28.86,36.26,19.07L755,399.83l29.34-28.6-40.54-5.89L725.68,328.6l-18.13,36.74L667,371.23l29.34,28.6-6.92,40.38Z" transform="translate(606.83 276.1)"/><polygon class="cls-10" points="1498 598.65 1517.91 638.99 1562.43 645.46 1530.22 676.86 1537.82 721.2 1498 700.27 1458.18 721.2 1465.79 676.86 1433.57 645.46 1478.09 638.99 1498 598.65"/><path class="cls-2" d="M934.55,450l-43.38-22.81L847.8,450l8.28-48.3L821,367.49l48.49-7,21.69-43.95,21.69,43.95,48.49,7L926.26,401.7Zm-43.38-28.86,36.26,19.07-6.92-40.38,29.33-28.6-40.54-5.89L891.17,328.6,873,365.34l-40.54,5.89,29.33,28.6-6.92,40.38Z" transform="translate(606.83 276.1)"/><path class="cls-2" d="M934.55,450l-43.38-22.81L847.8,450l8.28-48.3L821,367.49l48.49-7,21.69-43.95,21.69,43.95,48.49,7L926.26,401.7Zm-43.38-28.86,36.26,19.07-6.92-40.38,29.33-28.6-40.54-5.89L891.17,328.6,873,365.34l-40.54,5.89,29.33,28.6-6.92,40.38Z" transform="translate(606.83 276.1)"/><path class="cls-2" d="M1100,450l-43.38-22.81L1013.29,450l8.28-48.3-35.09-34.21,48.5-7,21.68-43.95,21.69,43.95,48.49,7-35.09,34.21Zm-43.38-28.86,36.26,19.07L1086,399.83l29.34-28.6-40.55-5.89-18.13-36.74-18.13,36.74L998,371.23l29.34,28.6-6.93,40.38Z" transform="translate(606.83 276.1)"/><ellipse class="cls-3" cx="1046.23" cy="1225.68" rx="111.86" ry="6.11"/><path class="cls-22" d="M431.71,937.49s3,15.84-.29,16.83-57.61,1.65-60.78-2,3-6.25,3-6.25l34.43-18.6Z" transform="translate(606.83 276.1)"/><path class="cls-22" d="M505.13,933.83s3.76,14.39.75,15.51-52.93,5-56.07,1.89,2.37-5.93,2.37-5.93l30.57-19.21Z" transform="translate(606.83 276.1)"/><path class="cls-23" d="M395.35,651.29s-9.57,128.09-8,158.92,10.68,120.92,10.68,120.92,10.58,16.93,36.1,10.28c0,0-14.36-114.73-10.64-137.58S442.89,715,442.89,715s7.74,86.69,11.46,104.76,17.31,112,17.31,112,13.21,9.07,34.24,3.48c0,0-16.48-116.15-16.48-138.92s3.66-100.5-6.46-145.81Z" transform="translate(606.83 276.1)"/><path class="cls-20" d="M515.46,586.47l20.19,54.66s18.85,17.61,4.55,32.23c0,0-22.42-2.92-14.3-26.32l-29.84-45.51Z" transform="translate(606.83 276.1)"/><path class="cls-24" d="M464.52,490.45l50.94,96s-2.07,11.14-19.4,15.06l-45.6-79.23Z" transform="translate(606.83 276.1)"/><path class="cls-20" d="M384.37,417.51s-9,26.92,5.78,48.2c0,0,4.79,2.25,11.7-1.13l7.75,18s20.44.71,24.1-2.39l1.55-36.08L405.8,417.51Z" transform="translate(606.83 276.1)"/><path class="cls-25" d="M383.1,407.08s-12.12,12.68,7.33,21.28c0,0,8.88,5.22,10,15.08s11,20.44,34.11,16.91c0,0,15.08-34.24,0-52.43,0,0,3.66-14.79-27.06-14.79S383.1,407.08,383.1,407.08Z" transform="translate(606.83 276.1)"/><path class="cls-26" d="M483,650.49s-37.25,24.3-89.66,8.2c0,0,0-.06,0-.2,13.1,4,13.91-1.91,15.16-9.7,1.33-8.25-14.53-15.48-14.53-15.48l-1.58-2.51c-1.26-32.72-3.71-83.36-6.89-89.73l-22.07,42.72,3.71,6.81s-6.39,17.95-24.35,10.73c0,0-14.24-9.7-7.84-31.36s28.07-67.07,33-71.19,31.77-16.09,31.77-16.09l1.66-6.82s20.84-11.14,39-3.72l2.27,6.61s18.78,3.51,23.94,15.06S483,650.49,483,650.49Z" transform="translate(606.83 276.1)"/><path class="cls-27" d="M408.45,648.79c-1.25,7.79-2.06,13.74-15.16,9.7,0-1.62-.38-12.81-1-27.69l1.58,2.51S409.78,640.54,408.45,648.79Z" transform="translate(606.83 276.1)"/><path class="cls-20" d="M408.45,648.79c-1.25,7.79-2.06,13.74-15.16,9.7-.78-.24-1.56-.63-2.47-.83-8.43-1.92-9.17-18.36-9.17-18.36l-38.91-38c18,7.22,24.35-10.73,24.35-10.73l25.25,40.2,1.58,2.51S409.78,640.54,408.45,648.79Z" transform="translate(606.83 276.1)"/><path class="cls-28" d="M1195.51,897.41l1.33,20.6s9.73,5.69,17.34,1.38l1.18-20.4Z" transform="translate(606.83 276.1)"/><path class="cls-28" d="M1267.34,895.21l6.68,25.6s11.37,3.79,18.29-2.64l-3.86-28.64S1274.51,895.81,1267.34,895.21Z" transform="translate(606.83 276.1)"/><path class="cls-29" d="M1192.36,629s56.79,15.43,88.26,0c0,0,8.15,105.86-14.54,159.1,0,0,18.59,2.21,22.37,101.45,0,0-12.91,8.2-21.11,5.68l-30.56-117.84-6.61-91-18.76,111.85s12.14,13.86,4.89,56.08c0,0-2.83,39.38-.94,44.74,0,0-11,6-19.85-1.58l-10.08-101.13S1171.56,706.17,1192.36,629Z" transform="translate(606.83 276.1)"/><path class="cls-29" d="M1270.46,907.15s13.69,4.6,20-2.45c0,0,10.38,13.5,4.78,19.19s-22.57,17.79-60.09,15.78c0,0-3.58-2,0-4.59S1262.32,920.11,1270.46,907.15Z" transform="translate(606.83 276.1)"/><path class="cls-29" d="M1196.39,911s4,6.84,18,5c0,0,4.31,16.81-1.11,21.21s-58.9,1.93-58.9,1.93-6-1.84-2.2-4.32S1196.39,911,1196.39,911Z" transform="translate(606.83 276.1)"/><path class="cls-20" d="M1204.61,453.27s6.51,4.68,7.37,16.14c0,0,0,8.43-.28,10.26,0,0,13.87,8,26.91,0,0,0-1.88-26.28-6.67-35.84Z" transform="translate(606.83 276.1)"/><path class="cls-20" d="M1188,409.88s-.82,48.19,18.84,49.09S1236,436.45,1236,436.45l-12.43-35.05Z" transform="translate(606.83 276.1)"/><path class="cls-30" d="M1172.92,402.25s4.92,16.55,24.15,10.06,25.26-3.35,28.61,10.06l6.26,21.46s20-26.83-6-51c0,0-9-7.37-27.28,2.24S1172.92,402.25,1172.92,402.25Z" transform="translate(606.83 276.1)"/><path class="cls-20" d="M1223.13,424.69s1.47-13.82,6.76-11.32,2.79,12.45-3.38,17.63Z" transform="translate(606.83 276.1)"/><path class="cls-31" d="M1289.28,528.73c-5.44,28.21-16.43,51.66-11.93,71.66l5.83,28s-65,17.09-93-2.39c0,0,8.21-39.74,5-53.51s-6.75-28.09-6.75-28.09,3.57,34.57-31.8,81.21l-1.14,1.48C1121,671.59,1106.2,644,1106.2,644L1121,633.91s-8-4.9-5.17-6.89,20-5.3,20-5.3,2.65-3.23,6.41-8.25c9.16-12.23,24.9-35.06,25-47.65.13-17.75-.79-72.59,15.1-84.52a91.07,91.07,0,0,0,28.9-16.49s4.48,26.11,25.55-1.29c0,0,31,14.61,37.22,17.52S1294.71,500.51,1289.28,528.73Z" transform="translate(606.83 276.1)"/><path class="cls-32" d="M1239.29,464.69s-17.46,38.9-9.9,82.82,18.79,74.17,11.44,109.92c0,0,40.65,3.68,52.71-6.74,0,0-18.8-55.16-16.14-62.72,0,0,15.93-57.31,13.58-79.27S1281.07,480.75,1239.29,464.69Z" transform="translate(606.83 276.1)"/><path class="cls-20" d="M1155.53,627.05C1121,671.59,1106.2,644,1106.2,644L1121,633.91s-8-4.9-5.17-6.89,20-5.3,20-5.3,2.65-3.23,6.41-8.25C1147.69,616.67,1153,621.12,1155.53,627.05Z" transform="translate(606.83 276.1)"/><path class="cls-32" d="M1205.67,654.7l-23.59-4.13s21.3-51,7.26-102.7c0,0,.41,41.64-33.08,80.73,0,0-6.49-12-15.92-14.16,0,0,24.92-35.7,25.51-45.43s-2.36-70.36,16.37-88.79c0,0,2.29-.84,6.09-2.57a167,167,0,0,0,23-12.84s-16.51,21.6-4.86,76.77S1205.67,654.7,1205.67,654.7Z" transform="translate(606.83 276.1)"/><path class="cls-33" d="M1156.26,628.6s-6.49-12-15.92-14.16c0,0,24.92-35.7,25.51-45.43s-2.36-70.36,16.37-88.79c0,0,2.29-.84,6.09-2.57-7.07,45.88,1,70.22,1,70.22S1189.75,589.51,1156.26,628.6Z" transform="translate(606.83 276.1)"/><polygon class="cls-10" points="1736.3 777.46 1786.25 824.44 1853.27 809.93 1824.02 871.95 1858.54 931.2 1790.51 922.55 1744.83 973.68 1732.03 906.32 1669.29 878.67 1729.4 845.68 1736.3 777.46"/><path class="cls-33" d="M1271.37,577.55c-8,12-20.61,21.44-54.46,52.16l-3.57,3.24c-36.55,33.33-52,16.48-53.41,11.25s26.7-11.25,26.7-11.25-7.22-9.23-5.73-11.64,14.8,5.79,14.8,5.79l8.73-9.79,40.63-45.59s7.63-20.88,15.45-51.4,21.5-33.93,21.5-33.93C1306.5,512.49,1279.6,565.1,1271.37,577.55Z" transform="translate(606.83 276.1)"/><path class="cls-20" d="M1216.91,629.71l-3.57,3.24c-36.55,33.33-52,16.48-53.41,11.25s26.7-11.25,26.7-11.25-7.22-9.23-5.73-11.64,14.8,5.79,14.8,5.79l8.73-9.79A80.53,80.53,0,0,1,1216.91,629.71Z" transform="translate(606.83 276.1)"/><path class="cls-3" d="M1333.47,939.89c0,3.37-50.08,6.1-111.86,6.1s-111.85-2.73-111.85-6.1,50.08-6.11,111.85-6.11S1333.47,936.52,1333.47,939.89Z" transform="translate(606.83 276.1)"/><g id="Smartphone"><path class="cls-34" d="M640.21,676.53H904.37a16,16,0,0,1,16,16v495.7a41.43,41.43,0,0,1-41.43,41.43H665.67a41.43,41.43,0,0,1-41.43-41.43V692.5A16,16,0,0,1,640.21,676.53Z"/><rect class="cls-15" x="634.97" y="709.42" width="274.64" height="461.13" rx="8.95"/><path class="cls-35" d="M212.67,420.63H120.22a2.56,2.56,0,0,1-2.55-2.56h0a2.57,2.57,0,0,1,2.55-2.56h92.45a2.57,2.57,0,0,1,2.56,2.56h0A2.56,2.56,0,0,1,212.67,420.63Z" transform="translate(606.83 276.1)"/><circle class="cls-36" cx="772.29" cy="1200.93" r="20.97"/></g><path class="cls-37" d="M-68.13,932.25s19.08,5.44,30.29-3.48c0,0,17.3,18.13,35.84,19.5,0,0,3.2,3.43,0,4.12s-39.59,2.06-46.45-3c0,0-10.94,4.5-19.68-.92C-72.93,945.53-68.13,932.25-68.13,932.25Z" transform="translate(606.83 276.1)"/><path class="cls-37" d="M-123,931.24s-18.59,5.29-29.51-3.4c0,0-16.85,17.66-34.91,19,0,0-3.12,3.35,0,4s38.56,2,45.25-2.89c0,0,10.65,4.38,19.17-.89C-118.36,944.17-123,931.24-123,931.24Z" transform="translate(606.83 276.1)"/><path class="cls-38" d="M-144.18,678.14l-10.32,251s20.68,9.68,31.57,2.22L-116.16,826l21.52-95.73,36.29,94L-68.67,932.54S-43,938-35.42,928.77l12.27-111.53a25.55,25.55,0,0,0-.55-8.67L-52.49,687.11S-118.23,698.2-144.18,678.14Z" transform="translate(606.83 276.1)"/><path class="cls-20" d="M-90,501.58A17.94,17.94,0,0,0-79,497.42l-1.17,30.14h-28.66l-3.78-35.4A29.44,29.44,0,0,0-90,501.58Z" transform="translate(606.83 276.1)"/><path class="cls-39" d="M-78,473.68l-.81,20.85a14.89,14.89,0,0,1-11.91,5.4c-12,0-18.85-7.93-22.84-17.28l-1.1-10.3Z" transform="translate(606.83 276.1)"/><path class="cls-20" d="M-78.84,494.53a14.89,14.89,0,0,1-11.91,5.4c-12,0-18.85-7.93-22.84-17.28-5.74-13.49-5.43-29.95-5.43-29.95l4.94-4.69,9.2-8.73,30.59-3.75a169.81,169.81,0,0,1,2.75,28C-71.46,475.23-73,487.64-78.84,494.53Z" transform="translate(606.83 276.1)"/><path class="cls-40" d="M-78.84,494.53l-.12,2.89A17.94,17.94,0,0,1-90,501.58a29.44,29.44,0,0,1-22.55-9.42l-1-9.51c4,9.35,10.89,17.28,22.84,17.28A14.89,14.89,0,0,0-78.84,494.53Z" transform="translate(606.83 276.1)"/><path class="cls-20" d="M-78.84,494.53a14.89,14.89,0,0,1-11.91,5.4c-12,0-18.85-7.93-22.84-17.28-5.74-13.49-5.43-29.95-5.43-29.95l4.94-4.69,42.54,15.54C-71.46,475.23-73,487.64-78.84,494.53Z" transform="translate(606.83 276.1)"/><path class="cls-41" d="M-113.47,448.19s36,10,50.5-15c0,0-23.56-9.87-36.58-9.87s-20.49,14-20.49,14-17.89,10.84,6.79,48.43Z" transform="translate(606.83 276.1)"/><path class="cls-20" d="M-112.08,461c2.58,3.66,2.85,7.91.59,9.5s-6.17-.09-8.75-3.75-2.84-7.92-.59-9.51S-114.66,457.37-112.08,461Z" transform="translate(606.83 276.1)"/><path class="cls-42" d="M-111.15,505.5l-6.86,7.93-26.17,7.25V687.11s50.37,15.8,91.69,0V521.5l-21.73-6.42L-79,507.51l-16.32,15.64Z" transform="translate(606.83 276.1)"/><path class="cls-42" d="M7.13,606.81l-17.89,14s-4.64,3.31-8,0S-52.49,574-52.49,574V521.5s4.73,2.93,17.27,23.54,25.67,41.33,25.67,41.33l6.34-3.62A57.91,57.91,0,0,0,7.13,606.81Z" transform="translate(606.83 276.1)"/><path class="cls-42" d="M-144.18,520.68V569.4s-34.79,26.19-35.41,45a22.71,22.71,0,0,0,2.68,10.35c-9.41,4.46-15.44,9.16-19.32,13.31l-.27-.36c-16.71-21.86-8.87-40.21-8.87-40.21C-189.9,560.33-144.18,520.68-144.18,520.68Z" transform="translate(606.83 276.1)"/><path class="cls-20" d="M71.55,543.35s2.59,15.73-5.67,24a38.07,38.07,0,0,1-12.41,3.14L7.13,606.81A57.91,57.91,0,0,1-3.21,582.75l42.82-24.46s6.27-26.15,24.22-19.64c0,0,23.93-16.21,26.16-14S71.55,543.35,71.55,543.35Z" transform="translate(606.83 276.1)"/><path class="cls-20" d="M-132,694.13c-10.52,2.1-19.38-13.57-19.38-13.57s-28.15-20.81-44.89-42.54c3.88-4.15,9.91-8.85,19.32-13.31,8.63,17.78,35.06,38.52,35.06,38.52l13.4,6.39C-115,676-121.43,692-132,694.13Z" transform="translate(606.83 276.1)"/><polygon class="cls-43" points="510.3 797.85 498.95 808.8 488.82 789.53 495.68 781.6 510.3 797.85"/><polygon class="cls-43" points="512.8 798.05 522.68 809.99 532.61 791.18 527.88 783.61 512.8 798.05"/><path class="cls-3" d="M21.75,951.46c0,3.38-50.08,6.11-111.86,6.11S-202,954.84-202,951.46s50.08-6.1,111.85-6.1S21.75,948.09,21.75,951.46Z" transform="translate(606.83 276.1)"/><polygon class="cls-10" points="773.28 822.09 802.54 881.38 867.98 890.89 820.63 937.05 831.8 1002.22 773.28 971.45 714.75 1002.22 725.93 937.05 678.58 890.89 744.01 881.38 773.28 822.09"/><path class="cls-2" d="M230.2,733.32,166.45,699.8l-63.76,33.52,12.18-71L63.29,612.05l71.28-10.36,31.88-64.59,31.87,64.59,71.28,10.36L218,662.32ZM166.45,690.9l53.3,28-10.18-59.35,43.12-42-59.59-8.66-26.65-54-26.65,54-59.6,8.66,43.12,42-10.18,59.35Z" transform="translate(606.83 276.1)"/><path class="cls-44" d="M-177.32,459c3.13,2.69,1.16,7.63,1.16,7.63L-195,488.59c-7.85,9.14-64.81-42.51-64.81-42.51l20.18-23.5q2.55,2.88,5.08,5.45C-206.75,456.17-180.28,456.49-177.32,459Z" transform="translate(606.83 276.1)"/><path class="cls-45" d="M-240.11,448.85c15.67,28.22,37.79,33.51,48.93,35.29l-3.82,4.45c-7.85,9.14-64.81-42.51-64.81-42.51l20.18-23.5q2.55,2.88,5.08,5.45C-243.13,441.66-242.72,444.14-240.11,448.85Z" transform="translate(606.83 276.1)"/><path class="cls-44" d="M-158.45,267.47l11,9.43a5.08,5.08,0,0,1,.54,7.15l-11.83,19.73a5.08,5.08,0,0,1-7.14.55l-17.78-15.27a5.08,5.08,0,0,1-.54-7.14L-165.6,268A5.09,5.09,0,0,1-158.45,267.47Z" transform="translate(606.83 276.1)"/><path class="cls-45" d="M-148.47,276l1,.86a5.08,5.08,0,0,1,.54,7.15l-11.83,19.73a5.08,5.08,0,0,1-7.14.55l-.35-.3C-159.67,297-152.68,287.59-148.47,276Z" transform="translate(606.83 276.1)"/><path class="cls-46" d="M-267,409.71c.6.52,1.17,1.05,1.71,1.62a24.34,24.34,0,0,1,3.69,4.95,24,24,0,0,1,2.07,4.81,24.79,24.79,0,0,1,1.09,8,24.47,24.47,0,0,1-5.93,15.33,24.57,24.57,0,0,1-7.25,5.77,24.76,24.76,0,0,1-5.82,2.16A24.52,24.52,0,0,1-299,447a24.6,24.6,0,0,1-7.25-26.65,24.54,24.54,0,0,1,4.61-8,24.58,24.58,0,0,1,22.32-8.3,24.42,24.42,0,0,1,5.07,1.32,24.25,24.25,0,0,1,5.45,2.9C-268.21,408.71-267.59,409.19-267,409.71Z" transform="translate(606.83 276.1)"/><rect class="cls-47" x="-299.04" y="384.16" width="57.94" height="58.27" rx="5.56" transform="translate(199.21 215.23) rotate(-49.34)"/><path class="cls-44" d="M-276.92,376.56S-235,286.31-238.09,246l64.29,55.21-81,94.32Z" transform="translate(606.83 276.1)"/><path class="cls-44" d="M-173.81,301.22l64.29,55.22c-40.3,3.06-123.19,58.09-123.19,58.09l-22.11-19Z" transform="translate(606.83 276.1)"/><path class="cls-47" d="M-218.23,243.87l107.83,92.62a13.72,13.72,0,0,1,1.46,19.28l-.58.67L-238.09,246l.58-.68A13.72,13.72,0,0,1-218.23,243.87Z" transform="translate(606.83 276.1)"/><path class="cls-48" d="M-270.29,400.7-286,419.05a2.37,2.37,0,0,1-3.32.25h0a2.37,2.37,0,0,1-.25-3.32l15.76-18.35a2.37,2.37,0,0,1,3.32-.25h0A2.37,2.37,0,0,1-270.29,400.7Z" transform="translate(606.83 276.1)"/><path class="cls-48" d="M-262.15,407.69-277.91,426a2.37,2.37,0,0,1-3.32.25h0a2.37,2.37,0,0,1-.25-3.32l15.76-18.35a2.37,2.37,0,0,1,3.32-.25h0A2.37,2.37,0,0,1-262.15,407.69Z" transform="translate(606.83 276.1)"/><path class="cls-48" d="M-254,414.68-269.77,433a2.37,2.37,0,0,1-3.32.25h0a2.35,2.35,0,0,1-.25-3.31l15.76-18.35a2.37,2.37,0,0,1,3.32-.26h0A2.37,2.37,0,0,1-254,414.68Z" transform="translate(606.83 276.1)"/><path class="cls-45" d="M-129.07,320.45l18.67,16a13.72,13.72,0,0,1,1.46,19.28l-.58.67c-40.3,3.06-123.19,58.09-123.19,58.09L-263.22,450a5.58,5.58,0,0,1-7.84.6l-.54-.47a24.76,24.76,0,0,1-5.82,2.16c1.08-1.38,2.19-2.81,3.35-4.28,4.56-5.77,9.8-12.17,15.65-19,5.63-6.56,11.84-13.51,18.58-20.66q1.91-2,3.85-4c25-26,56.76-54.19,93.49-76.26Q-135.88,324.15-129.07,320.45Z" transform="translate(606.83 276.1)"/><path class="cls-49" d="M382.56-248.63a8.67,8.67,0,0,0-5.18-4,8.58,8.58,0,0,0-6.49.85,8.56,8.56,0,0,0-4.27,7.44L329-234.84a7.07,7.07,0,0,0-.54-1.11,8.41,8.41,0,0,0-5.18-4,8.4,8.4,0,0,0-6.48.85,8.5,8.5,0,0,0-3.69,10.44L275.42-206.8a8.5,8.5,0,0,0-7.47-4.47,8.57,8.57,0,0,0-8.55,8.56,8.5,8.5,0,0,0,7.22,8.4v4.12h2.66v-4.12a8.38,8.38,0,0,0,5.13-2.85,8.38,8.38,0,0,0,2.07-5.55,7.12,7.12,0,0,0-.16-1.54l38.13-22.06a8.3,8.3,0,0,0,4.42,2.87,5.77,5.77,0,0,0,.9.19v4.06h2.66v-4.09a7.76,7.76,0,0,0,2.92-1,8.4,8.4,0,0,0,4.22-7.94l37.5-9.46a7.66,7.66,0,0,0,.69,1.59,8.51,8.51,0,0,0,6.06,4.15v4.09h2.65v-4.09a8.28,8.28,0,0,0,2.95-1,8.51,8.51,0,0,0,4-5.18,9.06,9.06,0,0,0,.29-2.24A8.31,8.31,0,0,0,382.56-248.63ZM268-196.84a5.9,5.9,0,0,1-5.9-5.87,5.92,5.92,0,0,1,5.9-5.9,5.9,5.9,0,0,1,5.87,5.9A5.87,5.87,0,0,1,268-196.84ZM324-226.57a5.93,5.93,0,0,1-4.46.58,5.82,5.82,0,0,1-3.56-2.74,5.89,5.89,0,0,1,2.15-8.05,6,6,0,0,1,2.92-.77,6.19,6.19,0,0,1,1.54.19,5.75,5.75,0,0,1,3.56,2.74A5.9,5.9,0,0,1,324-226.57Zm56.81-16.27a5.79,5.79,0,0,1-2.73,3.57,5.87,5.87,0,0,1-8-2.16,5.87,5.87,0,0,1,2.15-8,5.82,5.82,0,0,1,2.93-.8,6.34,6.34,0,0,1,1.54.21,5.81,5.81,0,0,1,3.56,2.74A5.85,5.85,0,0,1,380.83-242.84Z" transform="translate(606.83 276.1)"/><rect class="cls-49" x="980.65" y="59.17" width="2.66" height="9.94"/><rect class="cls-49" x="980.65" y="84.02" width="2.66" height="9.94"/><rect class="cls-49" x="980.65" y="96.45" width="2.66" height="9.94"/><rect class="cls-49" x="980.65" y="71.58" width="2.66" height="9.96"/><rect class="cls-49" x="980.65" y="46.74" width="2.66" height="9.94"/><rect class="cls-49" x="926.6" y="59.38" width="2.66" height="9.91"/><rect class="cls-49" x="926.6" y="71.77" width="2.66" height="9.89"/><rect class="cls-49" x="926.6" y="84.12" width="2.66" height="9.91"/><rect class="cls-49" x="926.6" y="96.51" width="2.66" height="9.91"/><rect class="cls-49" x="873.46" y="98.45" width="2.66" height="8.34"/><rect class="cls-49" x="873.46" y="88" width="2.66" height="8.34"/><polygon class="cls-49" points="983.32 114.06 983.32 108.88 980.66 108.88 980.66 114.06 929.25 114.06 929.25 108.88 926.59 108.88 926.59 114.06 876.11 114.06 876.11 108.88 873.45 108.88 873.45 114.06 862.12 114.06 862.12 116.72 995.33 116.72 995.33 114.06 983.32 114.06"/><path class="cls-49" d="M563.86-239.78l9.41-9.41-13-.74v-13.92l-9.09,9.06V-243l-6.27,6.27a58.94,58.94,0,0,0-40.84-16.39A59.21,59.21,0,0,0,444.92-194a59.21,59.21,0,0,0,59.13,59.13A59.19,59.19,0,0,0,563.17-194a58.83,58.83,0,0,0-16.42-40.84l6.22-6.22Zm-10-13.92,3.77-3.75v10l9.59.54-4.3,4.3-9.06-1.09Zm6.7,59.65a56.54,56.54,0,0,1-56.47,56.47A56.56,56.56,0,0,1,447.58-194a56.54,56.54,0,0,1,56.47-56.46A56.24,56.24,0,0,1,543-234.89l-12,12a39.21,39.21,0,0,0-27-10.71A39.62,39.62,0,0,0,464.48-194a39.64,39.64,0,0,0,39.57,39.6A39.64,39.64,0,0,0,543.64-194a39.31,39.31,0,0,0-10.71-27L544.86-233A56.14,56.14,0,0,1,560.52-194Zm-55.51.93,10.2-10.23a14.41,14.41,0,0,1,3.37,9.3,14.56,14.56,0,0,1-14.53,14.54A14.55,14.55,0,0,1,489.54-194a14.53,14.53,0,0,1,14.51-14.53,14.5,14.5,0,0,1,9.3,3.35L503.12-195Zm-1-18.12A17.2,17.2,0,0,0,486.88-194a17.22,17.22,0,0,0,17.17,17.19A17.22,17.22,0,0,0,521.24-194a17.13,17.13,0,0,0-4.14-11.16l14-14A36.84,36.84,0,0,1,541-194a37,37,0,0,1-36.93,36.94A37,37,0,0,1,467.14-194,37,37,0,0,1,504.05-231a37,37,0,0,1,25.16,9.88l-14,14A17.13,17.13,0,0,0,504.05-211.24Z" transform="translate(606.83 276.1)"/><path class="cls-49" d="M762.3-80.46H719.65a9.31,9.31,0,0,0-9.3,9.3v20.44a9.31,9.31,0,0,0,9.3,9.3h24.79l17,14.5a1.22,1.22,0,0,0,.85.32,1.3,1.3,0,0,0,.69-.18,1.35,1.35,0,0,0,.61-1.44l-3.08-13.2h1.78a9.31,9.31,0,0,0,9.3-9.3V-71.16A9.31,9.31,0,0,0,762.3-80.46Zm6.64,29.74a6.64,6.64,0,0,1-6.64,6.64h-3.45a1.31,1.31,0,0,0-1,.5,1.4,1.4,0,0,0-.27,1.12l2.55,10.89L745.77-43.76a1.22,1.22,0,0,0-.85-.32H719.65A6.64,6.64,0,0,1,713-50.72V-71.16a6.64,6.64,0,0,1,6.64-6.64H762.3a6.64,6.64,0,0,1,6.64,6.64Z" transform="translate(606.83 276.1)"/><path class="cls-49" d="M828.76-44.08H786.11a9.31,9.31,0,0,0-9.3,9.3v20.43a9.31,9.31,0,0,0,9.3,9.3h1.78L784.81,8.16a1.33,1.33,0,0,0,.61,1.43,1.22,1.22,0,0,0,.69.19,1.27,1.27,0,0,0,.85-.32L804-5h24.79a9.31,9.31,0,0,0,9.3-9.3V-34.78A9.31,9.31,0,0,0,828.76-44.08Zm6.64,29.73a6.65,6.65,0,0,1-6.64,6.65H803.49a1.22,1.22,0,0,0-.85.32L788.31,4.81l2.56-10.89a1.4,1.4,0,0,0-.27-1.12,1.31,1.31,0,0,0-1-.5h-3.45a6.64,6.64,0,0,1-6.64-6.65V-34.78a6.64,6.64,0,0,1,6.64-6.64h42.65a6.64,6.64,0,0,1,6.64,6.64Z" transform="translate(606.83 276.1)"/><path class="cls-49" d="M1427.72-13.23h-83.07a9.31,9.31,0,0,0-9.3,9.3V5.58a9.31,9.31,0,0,0,9.3,9.3h83.07a9.31,9.31,0,0,0,9.3-9.3V-3.93A9.31,9.31,0,0,0,1427.72-13.23Zm6.64,18.81a6.64,6.64,0,0,1-6.64,6.64h-83.07A6.64,6.64,0,0,1,1338,5.58V-3.93a6.64,6.64,0,0,1,6.64-6.65h83.07a6.65,6.65,0,0,1,6.64,6.65Z" transform="translate(606.83 276.1)"/><path class="cls-49" d="M1423.76-5.18a6,6,0,1,0,0,12,6,6,0,0,0,6-6A6,6,0,0,0,1423.76-5.18Zm0,9.35a3.34,3.34,0,0,1-3.35-3.35,3.34,3.34,0,0,1,3.35-3.35,3.36,3.36,0,0,1,3.35,3.35A3.36,3.36,0,0,1,1423.76,4.17Z" transform="translate(606.83 276.1)"/><path class="cls-49" d="M1406.54-5.18a6,6,0,0,0-6,6,6,6,0,0,0,12,0A6,6,0,0,0,1406.54-5.18Zm0,9.35a3.36,3.36,0,0,1-3.35-3.35,3.36,3.36,0,0,1,6.72,0A3.35,3.35,0,0,1,1406.54,4.17Z" transform="translate(606.83 276.1)"/><path class="cls-49" d="M1390.31-.51H1347a1.33,1.33,0,1,0,0,2.66h43.29a1.33,1.33,0,0,0,0-2.66Z" transform="translate(606.83 276.1)"/><path class="cls-49" d="M1427.72-45.47h-83.07a9.31,9.31,0,0,0-9.3,9.3v9.54a9.31,9.31,0,0,0,9.3,9.3h83.07a9.31,9.31,0,0,0,9.3-9.3v-9.54A9.31,9.31,0,0,0,1427.72-45.47Zm6.64,18.84a6.65,6.65,0,0,1-6.64,6.65h-83.07a6.64,6.64,0,0,1-6.64-6.65v-9.54a6.64,6.64,0,0,1,6.64-6.64h83.07a6.65,6.65,0,0,1,6.64,6.64Z" transform="translate(606.83 276.1)"/><path class="cls-49" d="M1423.76-37.42a6,6,0,0,0-6,6,6,6,0,0,0,6,6,6,6,0,0,0,6-6A6,6,0,0,0,1423.76-37.42Zm0,9.38a3.35,3.35,0,0,1-3.35-3.34,3.36,3.36,0,0,1,3.35-3.38,3.38,3.38,0,0,1,3.35,3.38A3.37,3.37,0,0,1,1423.76-28Z" transform="translate(606.83 276.1)"/><path class="cls-49" d="M1406.54-37.42a6,6,0,0,0-6,6,6,6,0,0,0,6,6,6,6,0,0,0,6-6A6,6,0,0,0,1406.54-37.42Zm0,9.38a3.37,3.37,0,0,1-3.35-3.34,3.38,3.38,0,0,1,3.35-3.38,3.38,3.38,0,0,1,3.37,3.38A3.37,3.37,0,0,1,1406.54-28Z" transform="translate(606.83 276.1)"/><path class="cls-49" d="M1390.31-32.72H1347a1.33,1.33,0,0,0-1.33,1.33,1.34,1.34,0,0,0,1.33,1.33h43.29a1.33,1.33,0,0,0,1.33-1.33A1.32,1.32,0,0,0,1390.31-32.72Z" transform="translate(606.83 276.1)"/><path class="cls-49" d="M1427.72,19h-83.07a9.31,9.31,0,0,0-9.3,9.3v9.54a9.31,9.31,0,0,0,9.3,9.3h83.07a9.31,9.31,0,0,0,9.3-9.3V28.27A9.31,9.31,0,0,0,1427.72,19Zm6.64,18.84a6.64,6.64,0,0,1-6.64,6.64h-83.07a6.64,6.64,0,0,1-6.64-6.64V28.27a6.64,6.64,0,0,1,6.64-6.64h83.07a6.64,6.64,0,0,1,6.64,6.64Z" transform="translate(606.83 276.1)"/><path class="cls-49" d="M1423.76,27a6,6,0,1,0,6,6A6,6,0,0,0,1423.76,27Zm0,9.38a3.36,3.36,0,1,1,3.35-3.37A3.35,3.35,0,0,1,1423.76,36.4Z" transform="translate(606.83 276.1)"/><path class="cls-49" d="M1406.54,27a6,6,0,1,0,6,6A6,6,0,0,0,1406.54,27Zm0,9.38a3.36,3.36,0,1,1,3.37-3.37A3.37,3.37,0,0,1,1406.54,36.4Z" transform="translate(606.83 276.1)"/><path class="cls-49" d="M1390.31,31.71H1347a1.33,1.33,0,1,0,0,2.66h43.29a1.33,1.33,0,0,0,0-2.66Z" transform="translate(606.83 276.1)"/><path class="cls-49" d="M644.69-86.78H534.26A9.82,9.82,0,0,0,524.45-77V7.69a9.81,9.81,0,0,0,9.81,9.8H644.69a9.81,9.81,0,0,0,9.81-9.8V-77A9.82,9.82,0,0,0,644.69-86.78Zm7.15,94.47a7.17,7.17,0,0,1-7.15,7.15H534.26a7.17,7.17,0,0,1-7.15-7.15V-71H651.84Zm0-81.39H527.11V-77a7.17,7.17,0,0,1,7.15-7.15H644.69A7.17,7.17,0,0,1,651.84-77Z" transform="translate(606.83 276.1)"/><path class="cls-49" d="M640.62-76.9a2.26,2.26,0,0,0,2.26-2.25,2.26,2.26,0,0,0-2.26-2.26,2.26,2.26,0,0,0-2.26,2.26A2.26,2.26,0,0,0,640.62-76.9Z" transform="translate(606.83 276.1)"/><path class="cls-49" d="M629.94-76.9a2.26,2.26,0,0,0,2.26-2.25,2.26,2.26,0,0,0-2.26-2.26,2.26,2.26,0,0,0-2.26,2.26A2.26,2.26,0,0,0,629.94-76.9Z" transform="translate(606.83 276.1)"/><path class="cls-49" d="M619.26-76.9a2.26,2.26,0,0,0,2.26-2.25,2.26,2.26,0,0,0-2.26-2.26A2.26,2.26,0,0,0,617-79.15,2.26,2.26,0,0,0,619.26-76.9Z" transform="translate(606.83 276.1)"/><path class="cls-49" d="M562.4-30.84c-4.49-1.73-6.49-3.24-6.49-6.3,0-2.23,1.7-4.89,6.14-4.89a13.26,13.26,0,0,1,6.22,1.54l1.17-3.42a14.81,14.81,0,0,0-7.23-1.6c-6.35,0-10.57,3.77-10.57,8.88,0,4.59,3.29,7.36,8.63,9.24,4.41,1.7,6.17,3.43,6.17,6.49,0,3.29-2.53,5.58-6.86,5.58A15.16,15.16,0,0,1,552-17.45L551-13.91a17.18,17.18,0,0,0,8.35,2.07c7.67,0,11.42-4.36,11.42-9.41C570.74-26,567.92-28.69,562.4-30.84Z" transform="translate(606.83 276.1)"/><polygon class="cls-49" points="1187.54 248.47 1200.24 248.47 1200.24 244.97 1187.54 244.97 1187.54 234.66 1200.96 234.66 1200.96 231.12 1183.34 231.12 1183.34 263.78 1201.7 263.78 1201.7 260.24 1187.54 260.24 1187.54 248.47"/><path class="cls-49" d="M613.55-45.51c-8.72,0-15.17,6.78-15.17,17.14,0,9.88,6.06,16.58,14.69,16.58,8.34,0,15.17-5.95,15.17-17.19C628.24-38.68,622.48-45.51,613.55-45.51Zm-.24,30.27c-6.64,0-10.42-6.25-10.42-13.21,0-7.17,3.48-13.63,10.47-13.63s10.42,6.8,10.42,13.28C623.78-21.38,620-15.24,613.31-15.24Z" transform="translate(606.83 276.1)"/><path class="cls-49" d="M1087.9-152.79h0v-17a6,6,0,0,0-6-6h-9v-12a8.43,8.43,0,0,0-8.43-8.42H971.73a8.43,8.43,0,0,0-8.43,8.42v60.53a8.44,8.44,0,0,0,8.43,8.43h31.54v13h-5.48a1.32,1.32,0,0,0-1.32,1.33,1.33,1.33,0,0,0,1.32,1.33H1037a1.33,1.33,0,0,0,1.33-1.33,1.34,1.34,0,0,0-.1-.49,5.94,5.94,0,0,0,4.3,1.83h27.1a3.57,3.57,0,0,0,.74.08h17.54a5,5,0,0,0,5-4.94v-39.84A5,5,0,0,0,1087.9-152.79Zm-57.69,47h-24.28v-13h24.28Zm-26.94-15.64H971.73a5.79,5.79,0,0,1-5.77-5.77v-7.65h70.52v13.42h-33.21ZM1037-105.82h-4.12v-13h3.61v9.59a6,6,0,0,0,1.2,3.59s0,0,0,.05A1.29,1.29,0,0,0,1037-105.82Zm-.51-63.92v32.2H966v-50.22a5.78,5.78,0,0,1,5.77-5.76h92.68a5.76,5.76,0,0,1,5.77,5.76v12h-27.66A6.05,6.05,0,0,0,1036.48-169.74Zm6,63.93a3.39,3.39,0,0,1-3.38-3.4v-4.12h26.28V-108a4.8,4.8,0,0,0,.53,2.2Zm22.9-42V-116h-26.28v-53.75a3.39,3.39,0,0,1,3.38-3.38h39.32a3.39,3.39,0,0,1,3.38,3.38v17h-14.86a.38.38,0,0,0-.18,0A4.93,4.93,0,0,0,1065.42-147.85ZM1090.21-108a2.3,2.3,0,0,1-2.31,2.28h-17.54a1.84,1.84,0,0,1-.53-.08,2.27,2.27,0,0,1-1.75-2.2v-.62h22.13Zm0-3.27h-22.13v-36.57a2.27,2.27,0,0,1,2.1-2.26.55.55,0,0,1,.18,0h17.54a2.3,2.3,0,0,1,2.31,2.28Z" transform="translate(606.83 276.1)"/><path class="cls-49" d="M898.09-216.37,865.7-234.62a1.41,1.41,0,0,0-.64-.16h0a1.16,1.16,0,0,0-.61.16l0,0-12.81,7.2a1.31,1.31,0,0,0,0-.34c0-16.4-9.78-22.22-19-22.22s-18.95,5.82-18.95,22.22v.34l-12.78-7.2,0,0a1.21,1.21,0,0,0-.61-.16h-.06a1.41,1.41,0,0,0-.64.16l-32.39,18.25a1.26,1.26,0,0,0-.66,1.14v79.69a1.33,1.33,0,0,0,.64,1.15,1.3,1.3,0,0,0,.69.18,1.32,1.32,0,0,0,.64-.16l31.75-17.88L832-134.37a.75.75,0,0,0,.24.08,1,1,0,0,0,.42.08,1.12,1.12,0,0,0,.43-.08.75.75,0,0,0,.24-.08l31.75-17.88,31.73,17.88a1.26,1.26,0,0,0,.63.16,1.35,1.35,0,0,0,.7-.18,1.34,1.34,0,0,0,.63-1.15v-79.69A1.26,1.26,0,0,0,898.09-216.37Zm-99.17,61.84-29.73,16.74v-76.67l29.73-16.74Zm32.39,16.74-29.73-16.74V-231.2l12.43,7c2.13,12.89,14.88,27,17.3,29.58Zm1.33-59.31c-.37-.4-.82-.91-1.33-1.52-3.93-4.57-11.8-14.51-14.21-23.83a19.08,19.08,0,0,1-.64-3.41,15,15,0,0,1-.11-1.88c0-12.25,6.09-19.56,16.29-19.56s16.29,7.31,16.29,19.56a15,15,0,0,1-.11,1.88,22.13,22.13,0,0,1-.63,3.41c-2.45,9.32-10.29,19.26-14.22,23.83C833.44-198,833-197.5,832.64-197.1Zm31.06,42.57L834-137.79v-56.84c2.42-2.55,15.17-16.69,17.3-29.58l12.43-7Zm32.4,16.74-29.74-16.74V-231.2l29.74,16.74Z" transform="translate(606.83 276.1)"/><path class="cls-49" d="M832.64-237.15a8.71,8.71,0,0,0-8.69,8.69,8.71,8.71,0,0,0,8.69,8.69,8.71,8.71,0,0,0,8.69-8.69A8.71,8.71,0,0,0,832.64-237.15Zm0,14.72a6,6,0,0,1-6-6,6,6,0,0,1,6-6,6,6,0,0,1,6,6A6,6,0,0,1,832.64-222.43Z" transform="translate(606.83 276.1)"/><path class="cls-49" d="M329.64-86.36h39.81a10,10,0,0,0,9.83,8.48,10,10,0,0,0,9.83-8.48h44.64a1.33,1.33,0,0,0,1.33-1.33A1.36,1.36,0,0,0,433.75-89H389.16a10,10,0,0,0-9.88-8.79A10,10,0,0,0,369.39-89H329.64a1.36,1.36,0,0,0-1.33,1.33A1.33,1.33,0,0,0,329.64-86.36Zm49.64-8.79a7.29,7.29,0,0,1,7.2,6.13,5.73,5.73,0,0,1,.11,1.17,7.31,7.31,0,0,1-.16,1.49,7.31,7.31,0,0,1-7.15,5.82,7.3,7.3,0,0,1-7.15-5.82,6.67,6.67,0,0,1-.16-1.49,5.73,5.73,0,0,1,.11-1.17A7.28,7.28,0,0,1,379.28-95.15Z" transform="translate(606.83 276.1)"/><path class="cls-49" d="M433.75-62.66H372.63a9.94,9.94,0,0,0-9.85-8.63,10,10,0,0,0-9.86,8.63H329.64a1.36,1.36,0,0,0-1.33,1.33A1.33,1.33,0,0,0,329.64-60h23.28a9.94,9.94,0,0,0,9.86,8.64A9.93,9.93,0,0,0,372.63-60h61.12a1.33,1.33,0,0,0,1.33-1.33A1.36,1.36,0,0,0,433.75-62.66Zm-63.67,1.33A7.23,7.23,0,0,1,370-60a7.28,7.28,0,0,1-7.17,6,7.31,7.31,0,0,1-7.18-6,7.23,7.23,0,0,1-.13-1.33,7.31,7.31,0,0,1,.13-1.33,7.3,7.3,0,0,1,7.18-6,7.28,7.28,0,0,1,7.17,6A7.31,7.31,0,0,1,370.08-61.33Z" transform="translate(606.83 276.1)"/><path class="cls-49" d="M433.75-36.3H408.14a10,10,0,0,0-9.86-8.63,10,10,0,0,0-9.86,8.63H329.64A1.36,1.36,0,0,0,328.31-35a1.33,1.33,0,0,0,1.33,1.33h58.78A9.94,9.94,0,0,0,398.28-25a10,10,0,0,0,9.86-8.64h25.61A1.33,1.33,0,0,0,435.08-35,1.36,1.36,0,0,0,433.75-36.3ZM405.58-35a7.23,7.23,0,0,1-.13,1.33,7.3,7.3,0,0,1-7.17,6,7.29,7.29,0,0,1-7.18-6A7.23,7.23,0,0,1,391-35a7.31,7.31,0,0,1,.13-1.33,7.28,7.28,0,0,1,7.18-6,7.29,7.29,0,0,1,7.17,6A7.31,7.31,0,0,1,405.58-35Z" transform="translate(606.83 276.1)"/><path class="cls-49" d="M433.75-9.94h-36a10,10,0,0,0-9.86-8.63,9.93,9.93,0,0,0-9.85,8.63H329.64a1.36,1.36,0,0,0-1.33,1.33,1.33,1.33,0,0,0,1.33,1.33h48.42a9.92,9.92,0,0,0,9.85,8.64,9.94,9.94,0,0,0,9.86-8.64h36a1.33,1.33,0,0,0,1.33-1.33A1.36,1.36,0,0,0,433.75-9.94ZM395.22-8.61a7.23,7.23,0,0,1-.13,1.33,7.29,7.29,0,0,1-7.18,6,7.28,7.28,0,0,1-7.17-6,7.23,7.23,0,0,1-.13-1.33,7.31,7.31,0,0,1,.13-1.33,7.28,7.28,0,0,1,7.17-6,7.28,7.28,0,0,1,7.18,6A7.31,7.31,0,0,1,395.22-8.61Z" transform="translate(606.83 276.1)"/><path class="cls-49" d="M-20.06-159.34H-58.7A9.31,9.31,0,0,0-68-150v87.69A9.31,9.31,0,0,0-58.7-53h38.64a9.31,9.31,0,0,0,9.3-9.3V-150A9.31,9.31,0,0,0-20.06-159.34Zm-38.64,2.66h38.64A6.66,6.66,0,0,1-13.42-150V-65.8H-65.34V-150A6.66,6.66,0,0,1-58.7-156.68Zm38.64,101H-58.7a6.66,6.66,0,0,1-6.64-6.64v-.79h51.92v.79A6.66,6.66,0,0,1-20.06-55.71Z" transform="translate(606.83 276.1)"/><path class="cls-49" d="M-60.48-126.66h16a5.26,5.26,0,0,0,5.07,3.86,5.25,5.25,0,0,0,5-3.86h16A1.33,1.33,0,0,0-17-128a1.31,1.31,0,0,0-1.32-1.33h-16a5.23,5.23,0,0,0-5.08-4,5.25,5.25,0,0,0-5.1,4h-16A1.32,1.32,0,0,0-61.81-128,1.33,1.33,0,0,0-60.48-126.66Zm21.12-4a2.55,2.55,0,0,1,2.26,1.36,2.4,2.4,0,0,1,.32,1.25,2.76,2.76,0,0,1-.4,1.4,2.55,2.55,0,0,1-2.18,1.2,2.54,2.54,0,0,1-2.17-1.2,2.52,2.52,0,0,1-.43-1.4,2.25,2.25,0,0,1,.35-1.25A2.55,2.55,0,0,1-39.36-130.67Z" transform="translate(606.83 276.1)"/><path class="cls-49" d="M-60.48-114.67h8.53a5.24,5.24,0,0,0,5.07,3.93,5.25,5.25,0,0,0,5.08-3.93h23.52A1.31,1.31,0,0,0-17-116a1.31,1.31,0,0,0-1.32-1.33H-41.8a5.25,5.25,0,0,0-5.08-3.93,5.24,5.24,0,0,0-5.07,3.93h-8.53A1.32,1.32,0,0,0-61.81-116,1.32,1.32,0,0,0-60.48-114.67Zm11-1.33a2.56,2.56,0,0,1,.37-1.33,2.57,2.57,0,0,1,2.23-1.27,2.58,2.58,0,0,1,2.24,1.27,2.56,2.56,0,0,1,.37,1.33,2.56,2.56,0,0,1-.37,1.33,2.58,2.58,0,0,1-2.24,1.27,2.57,2.57,0,0,1-2.23-1.27A2.56,2.56,0,0,1-49.48-116Z" transform="translate(606.83 276.1)"/><path class="cls-49" d="M-60.48-102.69h24.69a5.25,5.25,0,0,0,5.07,3.94,5.2,5.2,0,0,0,5-3.94h7.39A1.31,1.31,0,0,0-17-104a1.33,1.33,0,0,0-1.32-1.32h-7.39a5.2,5.2,0,0,0-5-3.94,5.25,5.25,0,0,0-5.07,3.94H-60.48A1.33,1.33,0,0,0-61.81-104,1.32,1.32,0,0,0-60.48-102.69ZM-33.32-104a2.53,2.53,0,0,1,.37-1.32,2.56,2.56,0,0,1,2.23-1.28,2.51,2.51,0,0,1,2.21,1.28,2.53,2.53,0,0,1,.37,1.32,2.56,2.56,0,0,1-.37,1.33,2.51,2.51,0,0,1-2.21,1.28,2.56,2.56,0,0,1-2.23-1.28A2.56,2.56,0,0,1-33.32-104Z" transform="translate(606.83 276.1)"/><path class="cls-49" d="M-60.48-90.68h20a5.2,5.2,0,0,0,5,3.91,5.23,5.23,0,0,0,5.08-3.91h12.09A1.33,1.33,0,0,0-17-92a1.31,1.31,0,0,0-1.32-1.33H-30.37a5.21,5.21,0,0,0-5.08-3.94,5.2,5.2,0,0,0-5,3.94h-20A1.32,1.32,0,0,0-61.81-92,1.33,1.33,0,0,0-60.48-90.68Zm25-3.93a2.56,2.56,0,0,1,2.23,1.28A2.56,2.56,0,0,1-32.85-92a2.26,2.26,0,0,1-.39,1.32,2.56,2.56,0,0,1-2.21,1.25,2.57,2.57,0,0,1-2.2-1.25A2.41,2.41,0,0,1-38-92a2.57,2.57,0,0,1,.38-1.33A2.48,2.48,0,0,1-35.45-94.61Z" transform="translate(606.83 276.1)"/><path class="cls-49" d="M928.88-82.83l-.25-2a34.82,34.82,0,0,0-8.26,2l.74,1.91A33.36,33.36,0,0,1,928.88-82.83Z" transform="translate(606.83 276.1)"/><path class="cls-49" d="M903.44-65.17l-1.8-1a35.13,35.13,0,0,0-3,8l2,.47A33.06,33.06,0,0,1,903.44-65.17Z" transform="translate(606.83 276.1)"/><path class="cls-49" d="M959.42-73.31a36.38,36.38,0,0,0-6.4-5.62l-1.17,1.68a32.8,32.8,0,0,1,6,5.31Z" transform="translate(606.83 276.1)"/><path class="cls-49" d="M967.34-58.36a34.1,34.1,0,0,0-3.06-8l-1.8,1a33.28,33.28,0,0,1,2.87,7.5Z" transform="translate(606.83 276.1)"/><path class="cls-49" d="M945.45-82.89a34.66,34.66,0,0,0-8.28-2l-.25,2.05A33.06,33.06,0,0,1,944.74-81Z" transform="translate(606.83 276.1)"/><path class="cls-49" d="M897.62-49.68a34.36,34.36,0,0,0,1,8.47l2-.49a32.43,32.43,0,0,1-1-8Z" transform="translate(606.83 276.1)"/><path class="cls-49" d="M912.94-20.6a35.56,35.56,0,0,0,7.55,4l.74-1.91a34.52,34.52,0,0,1-7.12-3.73Z" transform="translate(606.83 276.1)"/><path class="cls-49" d="M901.7-33.25a34.84,34.84,0,0,0,4.86,7l1.52-1.37a33.88,33.88,0,0,1-4.57-6.59Z" transform="translate(606.83 276.1)"/><path class="cls-49" d="M929-16.64l-.22,2a34.32,34.32,0,0,0,4.2.25,32.6,32.6,0,0,0,4.31-.27l-.25-2A33.79,33.79,0,0,1,929-16.64Z" transform="translate(606.83 276.1)"/><path class="cls-49" d="M912.84-78.83a36,36,0,0,0-6.38,5.68L908-71.79a32.84,32.84,0,0,1,6-5.34Z" transform="translate(606.83 276.1)"/><path class="cls-49" d="M969-27.06,984.18-42.2,968.06-45a32.11,32.11,0,0,0,.35-4.8l-.66-.09-1.39.11a32.87,32.87,0,0,1-.31,4.43L947.4-48.53a12,12,0,0,0,.06-1.21A14.47,14.47,0,0,0,933-64.2a14.46,14.46,0,0,0-14.44,14.46A14.47,14.47,0,0,0,933-35.3a11.53,11.53,0,0,0,1.77-.13L941,.92,956.2-14.22l24.23,24.29L993.27-2.75ZM936.45-37.85l-1.87-10.81,10.48,1.81,2,.35,18.63,3.2,2,.35,12.16,2.09-13.78,13.8L990.35-2.75l-9.92,9.93L956.2-17.13,942.4-3.32l-5.6-32.52Zm-3.45.5a12.41,12.41,0,0,1-12.39-12.39A12.42,12.42,0,0,1,933-62.15a12.43,12.43,0,0,1,12.41,12.41,6.26,6.26,0,0,1,0,.86l-13.31-2.3,2.38,13.74A11.36,11.36,0,0,1,933-37.35Z" transform="translate(606.83 276.1)"/><path class="cls-49" d="M1485.09,284.78h-96.76a8.57,8.57,0,0,0-8.58,8.56v63.2a8.59,8.59,0,0,0,8.58,8.59h33.16v14H1410v2.33h53.53v-2.33h-11.55v-14h33.16a8.59,8.59,0,0,0,8.58-8.59v-63.2A8.57,8.57,0,0,0,1485.09,284.78Zm-96.76,2.33h96.76a6.26,6.26,0,0,1,6.26,6.23V346H1382.08V293.34A6.25,6.25,0,0,1,1388.33,287.11Zm61.27,92h-25.78v-14h25.78Zm35.49-16.31h-96.76a6.27,6.27,0,0,1-6.25-6.26v-8.2h109.27v8.2A6.28,6.28,0,0,1,1485.09,362.8Z" transform="translate(606.83 276.1)"/><path class="cls-49" d="M1401,335.34a6.33,6.33,0,0,0,6.33-6.33v-.27l23.57-5.45a6.35,6.35,0,0,0,12.17-2.54,5.54,5.54,0,0,0-.21-1.53l24.44-11.29a6.19,6.19,0,0,0,5.14,2.68,6.34,6.34,0,1,0-6.33-6.33,5.61,5.61,0,0,0,.21,1.54l-24.43,11.28a6.28,6.28,0,0,0-5.17-2.68,6.35,6.35,0,0,0-6.35,6.33V321l-23.57,5.45a6.34,6.34,0,1,0-5.8,8.86Zm67.44-31.06a4,4,0,1,1,4,4,3.9,3.9,0,0,1-3-1.35,3.79,3.79,0,0,1-1-2.12A4.55,4.55,0,0,1,1468.43,304.28Zm-31.72,12.47a4,4,0,0,1,3,1.35,3.52,3.52,0,0,1,1,2.12,2.49,2.49,0,0,1,.07.53,4,4,0,0,1-4,4,4,4,0,0,1-3.47-2,3.75,3.75,0,0,1-.55-2,1.06,1.06,0,0,1,0-.25A4,4,0,0,1,1436.71,316.75ZM1401,325a3.94,3.94,0,0,1,3.45,2,3.75,3.75,0,0,1,.56,2,.74.74,0,0,1,0,.26,4,4,0,0,1-8-.26A4,4,0,0,1,1401,325Z" transform="translate(606.83 276.1)"/><path class="cls-49" d="M205.81,88.94v-.08a1.32,1.32,0,0,0,0-.81l0,0v0a57.84,57.84,0,0,0-7.85-25.91h0a1.71,1.71,0,0,0-.13-.23,1,1,0,0,0-.1-.18,58.7,58.7,0,0,0-50.54-28.86c-.5,0-1,0-1.53.05a1.51,1.51,0,0,0-.52,0H145A58.7,58.7,0,0,0,97.55,60.13a1.47,1.47,0,0,0-.24.37s0,0,0,.06A58.2,58.2,0,0,0,88.54,88s0,0,0,0h0a1.3,1.3,0,0,0,0,.87c0,.87-.08,1.74-.08,2.6a58.77,58.77,0,0,0,56.67,58.68,2.38,2.38,0,0,0,.26.05c.08,0,.16,0,.25-.05.52.05,1,.05,1.54.05a58.78,58.78,0,0,0,58.73-58.73C205.89,90.64,205.86,89.81,205.81,88.94Zm-2.74-1.36A192.46,192.46,0,0,1,173,95.37c0-1.1.06-2.21.05-3.32a72.69,72.69,0,0,0-3.91-22.15A150,150,0,0,0,196,64.05a55.12,55.12,0,0,1,7.06,23.53Zm-56.68,58.36a99.6,99.6,0,0,1-12.9-18.78,158.42,158.42,0,0,0,16.42.85c3.42,0,7-.11,10.58-.36A99.17,99.17,0,0,1,146.39,145.94Zm-14.26-21.59a74.48,74.48,0,0,1-7-25,156.63,156.63,0,0,0,19.12,1.17,171.22,171.22,0,0,0,25.85-2,67.77,67.77,0,0,1-8.06,26.37A157,157,0,0,1,132.13,124.35Zm-7.22-27.67a76,76,0,0,1,3.53-27,161.54,161.54,0,0,0,21.47,1.45,158.59,158.59,0,0,0,16.5-.87,69.78,69.78,0,0,1,4,21.85c0,1.24,0,2.48-.06,3.71A162.07,162.07,0,0,1,124.91,96.68Zm21.44-59.63a98.61,98.61,0,0,1,19.11,30.6,156.88,156.88,0,0,1-36.2-.56A98.06,98.06,0,0,1,146.35,37.05ZM194.62,61.7a148.31,148.31,0,0,1-26.42,5.66,101.54,101.54,0,0,0-19.69-31.89h0A56.06,56.06,0,0,1,194.62,61.7ZM144.21,35.53A104,104,0,0,0,127,66.77a137.3,137.3,0,0,1-26.4-6.38A56,56,0,0,1,144.21,35.53ZM99.09,62.68h0a137.56,137.56,0,0,0,27,6.64,80.48,80.48,0,0,0-3.6,27c-17.26-2.47-28.27-7.21-31.28-8.63v0A55.27,55.27,0,0,1,99.09,62.68Zm-8,27.91c4.23,1.88,15.23,6.17,31.57,8.45A75.92,75.92,0,0,0,129.1,124c-18.23-2.42-29.83-7.17-30-7.27a1.32,1.32,0,0,0-1.65.59h0A55.69,55.69,0,0,1,91.1,91.51C91.1,91.2,91.1,90.88,91.12,90.59Zm7.42,28.8v0c2.46,1,14.34,5.3,31.87,7.44a98.43,98.43,0,0,0,13.77,20.69h0A56.12,56.12,0,0,1,98.54,119.39Zm96,2a56,56,0,0,1-46,26.12h0a100.21,100.21,0,0,0,15.16-20.18,150.57,150.57,0,0,0,30.86-6v0Zm2-3.38v0a1.24,1.24,0,0,0-.27,0,148,148,0,0,1-31.07,6.47A69.5,69.5,0,0,0,172.8,98.1a194,194,0,0,0,30.4-7.77v0c0,.37,0,.77,0,1.16A55.66,55.66,0,0,1,196.54,118.06Z" transform="translate(606.83 276.1)"/><path class="cls-49" d="M221-118.32l-21.53,2.38v-24a9.72,9.72,0,0,0-9.68-9.7H119.91a9.7,9.7,0,0,0-9.67,9.7v3.45l-12-7.49a1.33,1.33,0,0,0-1.83.42,1.32,1.32,0,0,0,.42,1.83l13.43,8.38v80.67L97-47.19a1.32,1.32,0,0,0-.72,1.73,1.32,1.32,0,0,0,1.23.82,1.27,1.27,0,0,0,.5-.1l12.22-5.06v17.38a9.69,9.69,0,0,0,9.67,9.7h69.86a9.71,9.71,0,0,0,9.68-9.7v-80.84l21.82-2.42a1.34,1.34,0,0,0,1.18-1.47A1.34,1.34,0,0,0,221-118.32ZM189.77-25.37H119.91a7,7,0,0,1-7-7v-1.47h83.89v1.47A7.05,7.05,0,0,1,189.77-25.37Zm7-11.18H112.9V-50.9l27.35-11.32-7.67,15.67a1.32,1.32,0,0,0,.61,1.78,1.29,1.29,0,0,0,.58.13,1.32,1.32,0,0,0,1.19-.74l9.22-18.83a.06.06,0,0,1,0,0,1.28,1.28,0,0,0,.1-.43s0-.06,0-.09a1.39,1.39,0,0,0-.1-.53v0h0l-.07-.09a1.07,1.07,0,0,0-.25-.34,1.7,1.7,0,0,0-.14-.1,1.26,1.26,0,0,0-.32-.18s0,0,0,0l-20.54-6.19a1.33,1.33,0,0,0-1.66.88,1.33,1.33,0,0,0,.89,1.66l17,5.12L112.9-53.77v-77.92l22.69,14.15-17.21,2.88a1.33,1.33,0,0,0-1.09,1.53A1.33,1.33,0,0,0,118.6-112l.22,0,20.68-3.46a1.3,1.3,0,0,0,.25-.1,1.8,1.8,0,0,0,.21-.08,1.44,1.44,0,0,0,.38-.36s0,0,.06-.07h0s0-.08,0-.12a1.28,1.28,0,0,0,.13-.39,1.28,1.28,0,0,0,0-.19,1,1,0,0,0,0-.34v-.07l-6.91-20.31a1.32,1.32,0,0,0-1.68-.83,1.33,1.33,0,0,0-.84,1.69l5.71,16.78L112.9-134.82v-5.11a7,7,0,0,1,7-7h69.86a7,7,0,0,1,7,7v24.29l-21.23,2.34,11.73-12.91a1.34,1.34,0,0,0-.09-1.88,1.34,1.34,0,0,0-1.88.09l-14.09,15.52,0,0a1.26,1.26,0,0,0-.22.39s0,0-.05.08a1.38,1.38,0,0,0-.05.54h0l0,.09a1.17,1.17,0,0,0,.14.41.69.69,0,0,0,.11.13,1,1,0,0,0,.25.25s0,.05.06.07l18,11.67a1.27,1.27,0,0,0,.72.22,1.36,1.36,0,0,0,1.12-.61,1.34,1.34,0,0,0-.4-1.84l-14.87-9.65L196.79-113Z" transform="translate(606.83 276.1)"/><path class="cls-49" d="M140.88-88.06a35.73,35.73,0,0,0-.93,4h-.08c-.29-1.22-.64-2.52-1.09-4l-1.89-6.13H135l-2,6.27c-.39,1.3-.82,2.63-1.09,3.85h-.07c-.24-1.25-.56-2.52-.91-3.88l-1.62-6.24H127L130.73-82h2l2-5.82a40.12,40.12,0,0,0,1.12-4h0c.32,1.43.67,2.66,1.09,4L138.86-82h2l4-12.25h-2.21Z" transform="translate(606.83 276.1)"/><path class="cls-49" d="M159.83-88.06a34.12,34.12,0,0,0-1,4h-.05c-.3-1.22-.64-2.52-1.09-4l-1.92-6.13H154l-2,6.27c-.42,1.3-.82,2.63-1.09,3.85h-.08c-.24-1.25-.56-2.52-.93-3.88l-1.59-6.24H146L149.68-82h2l2-5.82a35.45,35.45,0,0,0,1.12-4h.05c.32,1.43.66,2.66,1.09,4L157.81-82h2l3.93-12.25h-2.21Z" transform="translate(606.83 276.1)"/><path class="cls-49" d="M178.75-88.06c-.4,1.44-.72,2.74-.93,4h-.08c-.27-1.22-.64-2.52-1.09-4l-1.89-6.13h-1.89l-2,6.27c-.4,1.3-.8,2.63-1.09,3.85h-.08c-.21-1.25-.56-2.52-.9-3.88l-1.62-6.24H164.9L168.62-82h2l2-5.82c.42-1.31.79-2.58,1.11-4h.06a31.14,31.14,0,0,0,1.09,4L176.73-82h2l3.95-12.25h-2.2Z" transform="translate(606.83 276.1)"/><path class="cls-49" d="M98.69,275.56a9.79,9.79,0,0,0-13.1-3L57.27,236.92a9.76,9.76,0,0,0-12.14-15.09L20.23,191.4a9.56,9.56,0,0,0,2.63-6.61,9.77,9.77,0,1,0-19.53,0,9.47,9.47,0,0,0,2.79,6.77L-17.4,221.72a9.58,9.58,0,0,0-4.92-1.33,9.79,9.79,0,0,0-9.77,9.78A9.78,9.78,0,0,0-22.32,240a9.78,9.78,0,0,0,9.78-9.78,9.51,9.51,0,0,0-2.79-6.8L8.22,193.21a9.53,9.53,0,0,0,4.89,1.33,9.66,9.66,0,0,0,5.07-1.44l24.9,30.43a9.57,9.57,0,0,0-2.63,6.64,9.79,9.79,0,0,0,3,7L17.73,272.4a9.63,9.63,0,0,0-4.62-1.17A9.77,9.77,0,1,0,22.86,281a9.59,9.59,0,0,0-3-7l25.7-35.21A9.78,9.78,0,0,0,50.23,240a9.92,9.92,0,0,0,5-1.35l28.32,35.63A9.49,9.49,0,0,0,81,279.09a9.87,9.87,0,0,0,1.46,7.34,9.66,9.66,0,0,0,6.25,4.14,9.52,9.52,0,0,0,1.91.19,9.76,9.76,0,0,0,8.1-15.2Zm-121-38.27a7.14,7.14,0,0,1-7.12-7.12,7.12,7.12,0,0,1,7.12-7.12,7.09,7.09,0,0,1,3.27.8A6.64,6.64,0,0,1-17,225.47a7.12,7.12,0,0,1,1.78,4.7A7.14,7.14,0,0,1-22.32,237.29Zm35.43-45.41a7.41,7.41,0,0,1-3.25-.77,7.49,7.49,0,0,1-2.1-1.65A7,7,0,0,1,6,184.79a7.11,7.11,0,1,1,14.22,0,7,7,0,0,1-1.65,4.54,7.42,7.42,0,0,1-2.07,1.7A7.23,7.23,0,0,1,13.11,191.88Zm0,96.22a7.11,7.11,0,1,1,0-14.22,6.64,6.64,0,0,1,3,.7,7.38,7.38,0,0,1,2.16,1.56A7,7,0,0,1,20.2,281,7.12,7.12,0,0,1,13.11,288.1Zm37.12-50.81a6.87,6.87,0,0,1-3.06-.69A7.2,7.2,0,0,1,45,235a7,7,0,0,1-1.91-4.84,7.18,7.18,0,0,1,1.64-4.57,7.61,7.61,0,0,1,2.08-1.7,7.32,7.32,0,0,1,3.4-.85,7.12,7.12,0,0,1,3.29,13.42A6.89,6.89,0,0,1,50.23,237.29Zm47.32,45.07a7.15,7.15,0,1,1-10.28-7.65,7,7,0,0,1,3.29-.83A6,6,0,0,1,92,274a7.11,7.11,0,0,1,4.54,3,7.38,7.38,0,0,1,1.2,4A8.07,8.07,0,0,1,97.55,282.36Z" transform="translate(606.83 276.1)"/><path class="cls-49" d="M1265.94-85.55a52.39,52.39,0,0,0-51-50.83v-11.16h-2.65v11.16a52.39,52.39,0,0,0-51,50.83h-11v2.66h11a52.37,52.37,0,0,0,51,51.2v10.77h2.65V-31.69a52.37,52.37,0,0,0,51-51.2h11v-2.66Zm-2.64,2.66a49.75,49.75,0,0,1-48.36,48.55V-45.08h-2.65v10.74a49.76,49.76,0,0,1-48.37-48.55h10.55v-2.66h-10.55a49.81,49.81,0,0,1,48.37-48.17v10.33h2.65v-10.33a49.79,49.79,0,0,1,48.36,48.17h-10.54v2.66Z" transform="translate(606.83 276.1)"/><path class="cls-49" d="M1213.61-115.92A31.91,31.91,0,0,0,1181.73-84a31.9,31.9,0,0,0,31.88,31.88A31.9,31.9,0,0,0,1245.5-84,31.91,31.91,0,0,0,1213.61-115.92Zm0,61.12A29.25,29.25,0,0,1,1184.38-84a29.25,29.25,0,0,1,29.23-29.23A29.25,29.25,0,0,1,1242.84-84,29.25,29.25,0,0,1,1213.61-54.8Z" transform="translate(606.83 276.1)"/><path class="cls-49" d="M1517.05,152.14h-11.5a54.47,54.47,0,0,0-53.1-52.93V87.55h-2.65V99.21a54.46,54.46,0,0,0-53.09,52.93H1385.2v2.66h11.48a54.5,54.5,0,0,0,53.12,53.33V219.4h2.65V208.13a54.5,54.5,0,0,0,53.12-53.33h11.48Zm-64.6,53.34V194.24h-2.65v11.24a51.87,51.87,0,0,1-50.46-50.68h11v-2.66h-11a51.78,51.78,0,0,1,50.44-50.24v10.81h2.65V101.9a51.78,51.78,0,0,1,50.44,50.24h-11v2.66h11A51.88,51.88,0,0,1,1452.45,205.48Z" transform="translate(606.83 276.1)"/><path class="cls-49" d="M1428.57,150.71a8.49,8.49,0,1,0-8.51-8.48A8.48,8.48,0,0,0,1428.57,150.71Zm0-14.32a5.83,5.83,0,1,1-5.85,5.84A5.84,5.84,0,0,1,1428.57,136.39Z" transform="translate(606.83 276.1)"/><path class="cls-49" d="M1473.69,150.71a8.49,8.49,0,1,0-8.48-8.48A8.49,8.49,0,0,0,1473.69,150.71Zm0-14.32a5.83,5.83,0,1,1-5.82,5.84A5.86,5.86,0,0,1,1473.69,136.39Z" transform="translate(606.83 276.1)"/><path class="cls-49" d="M1473.69,150.84a15.28,15.28,0,0,0-10.74,4.41,18.82,18.82,0,0,0-24.07-.37,15.27,15.27,0,0,0-25.62,11.24v6.78h18.55v4.86h37.81V172.9H1489v-6.78a15.33,15.33,0,0,0-15.3-15.28ZM1467,172.9v2.2h-32.49v-5.5a16.17,16.17,0,0,1,4.25-10.92,13.08,13.08,0,0,1,2-1.83,16.19,16.19,0,0,1,20.57.42c.32.27.64.56.93.85s.66.69,1,1A16.1,16.1,0,0,1,1467,169.6v3.3Zm-51-2.66v-4.12a12.64,12.64,0,0,1,12.65-12.62,12.45,12.45,0,0,1,8.37,3.21,18.72,18.72,0,0,0-5.13,12.89v.64Zm70.41,0h-16.71v-.64a18.77,18.77,0,0,0-4.78-12.49,12.6,12.6,0,0,1,8.85-3.61,12.7,12.7,0,0,1,12.64,12.62Z" transform="translate(606.83 276.1)"/><path class="cls-49" d="M1450.7,149.89a10.35,10.35,0,1,0-10.34-10.37A10.36,10.36,0,0,0,1450.7,149.89Zm0-18a7.7,7.7,0,1,1-7.68,7.68A7.69,7.69,0,0,1,1450.7,131.84Z" transform="translate(606.83 276.1)"/><path class="cls-49" d="M1319.81,159.85c2.18-5.9,3.4-13.55,3.4-22.32,0-42.81-15.33-54.26-16-54.74l-.77-.56-.77.56c-.66.48-16,11.93-16,54.74,0,8.77,1.23,16.42,3.4,22.32l-19.55,9.62V186H1280l2.68-10.31,17.43-5.13a10,10,0,0,0,12.76,0l17.43,5.13,2.68,10.31h6.43v-16.5Zm16.9,23.46H1335l-2.55-9.77-17.38-5.13a24.73,24.73,0,0,0,3.77-6.09l17.89,8.8Zm-30.27-13.15a8,8,0,0,1-5.15-2.07l0,0a20.17,20.17,0,0,1-5.32-8.05c-2.2-5.39-3.61-12.94-3.61-22.48,0-3.3.11-6.43.27-9.35h27.68c.16,2.95.27,6,.27,9.35,0,9.54-1.41,17.09-3.61,22.48a20.06,20.06,0,0,1-5.32,8.05l0,0A8,8,0,0,1,1306.44,170.16Zm-30.27,13.15V171.12l17.89-8.8a24.73,24.73,0,0,0,3.77,6.09l-17.38,5.13-2.55,9.77Zm17.22-63.74c2.85-22.4,10.61-31.54,13-33.94,2.47,2.37,10.23,11.43,13,33.94Zm-.29,2.65h26.71c.1,1.07.21,2.16.29,3.3h-27.32C1292.86,124.38,1293,123.29,1293.1,122.22Z" transform="translate(606.83 276.1)"/><path class="cls-49" d="M1313.88,138.33a7.44,7.44,0,1,0-7.44,7.44A7.45,7.45,0,0,0,1313.88,138.33Zm-7.44,4.78a4.79,4.79,0,1,1,4.78-4.78A4.79,4.79,0,0,1,1306.44,143.11Z" transform="translate(606.83 276.1)"/><path class="cls-49" d="M1300.78,110a5.66,5.66,0,1,0,5.66-5.66A5.65,5.65,0,0,0,1300.78,110Zm5.66,3a3,3,0,1,1,3-3A3,3,0,0,1,1306.44,113Z" transform="translate(606.83 276.1)"/><path class="cls-49" d="M1307.24,175.34l-.4-.13-.43.11c-.16.05-16.21,4.62-13.2,21.63l.5,3,3.91-5c.29,4,1.86,10.18,7.86,16.39l.91.93.95-.87c.35-.32,7.68-7.12,7.87-17.17l4.52,4.33.26-2.73C1320,195.64,1321.29,180.6,1307.24,175.34Zm4.51,11.91.59,3.82c1.25,8.37-3.75,15-5.87,17.35-7.79-8.76-6.14-17-6.06-17.32l1.22-5.69-6.14,7.87c-.24-10.87,9.12-14.59,11.24-15.28,8.27,3.29,10.18,10.42,10.58,14.51Z" transform="translate(606.83 276.1)"/><path class="cls-49" d="M-2.72,113a1.32,1.32,0,0,0-.32-.85l-14.25-17V35.15a8.12,8.12,0,0,0-8.1-8.1h-88.49a8.12,8.12,0,0,0-8.1,8.1v60l-14.62,17a1.27,1.27,0,0,0-.32.85.38.38,0,0,0,0,.1,6.72,6.72,0,0,0,6.69,6.63H-9.44a6.72,6.72,0,0,0,6.69-6.63A.38.38,0,0,0-2.72,113Zm-116.6-77.86a5.45,5.45,0,0,1,5.44-5.44h88.49a5.45,5.45,0,0,1,5.45,5.44V94.36h-99.38ZM-120,97H-19.23L-6.9,111.68H-132.69Zm110.6,20.06H-130.2a4,4,0,0,1-3.81-2.74H-5.64A4,4,0,0,1-9.44,117.08Z" transform="translate(606.83 276.1)"/><path class="cls-49" d="M-89.59,102.14l-3.83,7.76h47.14l-3.61-7.76Zm.45,5.11,1.2-2.45h36.37l1.12,2.45Z" transform="translate(606.83 276.1)"/><path class="cls-49" d="M-52.23,53.6a17.41,17.41,0,0,0-17.4-17.41A17.42,17.42,0,0,0-87,53.6a17.14,17.14,0,0,0,2.53,9L-96.95,84.47l12.3-7.2.11,14.24,11.8-20.8a17.63,17.63,0,0,0,3.11.29,17.61,17.61,0,0,0,3.1-.29l11.8,20.8.11-14.24,12.3,7.2L-54.75,62.58A17.23,17.23,0,0,0-52.23,53.6Zm-5.07,28L-63.89,70a16.87,16.87,0,0,0,7.41-5l7,12.23-7.73-4.52ZM-57,61.22a8.14,8.14,0,0,1-.82,1.22,14.57,14.57,0,0,1-7.34,5.21,9.28,9.28,0,0,1-1.33.37c-.47.08-.93.16-1.4.22a11.94,11.94,0,0,1-1.7.1,11.77,11.77,0,0,1-1.7-.1c-.48-.06-.93-.14-1.41-.22a9.66,9.66,0,0,1-1.33-.37,14.57,14.57,0,0,1-7.34-5.21,9,9,0,0,1-.82-1.22A9.67,9.67,0,0,1-83,59.84a14.35,14.35,0,0,1-1.41-6.24A14.76,14.76,0,0,1-69.63,38.85,14.76,14.76,0,0,1-54.89,53.6a14.49,14.49,0,0,1-1.4,6.24A10.86,10.86,0,0,1-57,61.22ZM-82,81.58-82,72.65l-7.71,4.52,7-12.23a16.85,16.85,0,0,0,7.42,5Z" transform="translate(606.83 276.1)"/><path class="cls-49" d="M-69.63,39.8a13.83,13.83,0,0,0-13.8,13.8,13.52,13.52,0,0,0,1,5.2,8.69,8.69,0,0,0,.72,1.47,7.26,7.26,0,0,0,.8,1.27,13.7,13.7,0,0,0,7.3,5.24,7.29,7.29,0,0,0,1.36.31,8.13,8.13,0,0,0,1.41.22c.37,0,.77,0,1.17,0s.79,0,1.16,0a8.13,8.13,0,0,0,1.41-.22,7.29,7.29,0,0,0,1.36-.31,13.47,13.47,0,0,0,7.28-5.27,7.66,7.66,0,0,0,.82-1.27,8,8,0,0,0,.69-1.44,13.33,13.33,0,0,0,1-5.2A13.79,13.79,0,0,0-69.63,39.8Zm10.92,15.79a9.05,9.05,0,0,1-.51,1.81,11.51,11.51,0,0,1-.66,1.54,11.11,11.11,0,0,1-7.2,5.44,7.44,7.44,0,0,1-1.36.27,5.15,5.15,0,0,1-.88,0,1.62,1.62,0,0,1-.31,0,1.67,1.67,0,0,1-.32,0,5.15,5.15,0,0,1-.88,0,7.44,7.44,0,0,1-1.36-.27,11.06,11.06,0,0,1-7.2-5.44,10.65,10.65,0,0,1-.69-1.49v0a9.86,9.86,0,0,1-.5-1.83,10,10,0,0,1-.19-2A11.16,11.16,0,0,1-69.63,42.46,11.13,11.13,0,0,1-58.53,53.6,10,10,0,0,1-58.71,55.59Z" transform="translate(606.83 276.1)"/><path class="cls-49" d="M656.49-276.07l0,29.73h-3.48v7.6h3.48l.06,27.21h-3.54v7.6h3.54v3.86a21.38,21.38,0,0,0-15.84,20.59,21.36,21.36,0,0,0,21.34,21.34,21.36,21.36,0,0,0,21.34-21.34,21.41,21.41,0,0,0-15.87-20.59v-3.86h3.48v-7.6h-3.48v-27.21h3.48v-7.6H667.6v-3.61H676v-7.63H667.6v-2.28h8.29v-7H671v-2.89" transform="translate(606.83 276.1)"/><path class="cls-49" d="M668.37-272.43v8.21h4.86v1.7h-8.32l0,7.6h8.42v2.31h-8.45v8.74h3.51v2.74h-3.51v32h3.51v2.71h-3.51v8.55l1.07.06a18.78,18.78,0,0,1,10.63,6.53,18.83,18.83,0,0,1,4.17,11.75A18.69,18.69,0,0,1,662.1-160.8a18.69,18.69,0,0,1-18.68-18.68,18.78,18.78,0,0,1,14.77-18.28l1.06-.06v-8.55h-3.58v-2.71h3.58l0-32h-3.61v-2.74h3.61l-.05-32.23" transform="translate(606.83 276.1)"/><path class="cls-49" d="M662.1-193.54A14.07,14.07,0,0,0,648-179.48a14.07,14.07,0,0,0,14.06,14.06,14.06,14.06,0,0,0,14-14.06A14.06,14.06,0,0,0,662.1-193.54Zm0,25.46a11.39,11.39,0,0,1-11.4-11.4,11.41,11.41,0,0,1,11.4-11.4,11.41,11.41,0,0,1,11.4,11.4A11.39,11.39,0,0,1,662.1-168.08Z" transform="translate(606.83 276.1)"/><path class="cls-49" d="M1150.37-6.45A13.69,13.69,0,0,0,1144.15-18V-36a3.31,3.31,0,0,0-3.3-3.3,3.29,3.29,0,0,0-3.28,3.3v1c-12.84,10-45.06,16.72-49,17.51h0a3.87,3.87,0,0,0-3.14-1.6h-22.24a3.92,3.92,0,0,0-3.75,2.83h-1.84a6.07,6.07,0,0,0-6,6.06v7.6a6.06,6.06,0,0,0,6,6.05h1.84a3.89,3.89,0,0,0,3.75,2.82h1.32l-5.43,29.39h17.66l1.18-5.94-.43-.38c-.42-.34-9.7-8.43-.75-23.07h8.69a3.87,3.87,0,0,0,3.13-1.59c3.9.78,36.17,7.49,49,17.52V23a3.29,3.29,0,1,0,6.58,0V5.1A13.79,13.79,0,0,0,1150.37-6.45Zm-96.86,3.81v-7.6a4.08,4.08,0,0,1,4.07-4.08h1.68V1.44h-1.68A4.08,4.08,0,0,1,1053.51-2.64Zm22.24,33.05-.65,3.24h-13.67l5.06-27.42h7.94C1066.68,19.84,1073.83,28.45,1075.75,30.41Zm9.66-26.15h-22.24a1.93,1.93,0,0,1-1.94-1.94V-15.22a1.94,1.94,0,0,1,1.94-1.93h22.24a1.94,1.94,0,0,1,1.93,1.9V2.36A1.93,1.93,0,0,1,1085.41,4.26Zm52.15,15.42c-13.63-9.62-42.89-15.82-48.25-16.9V2.36s0,0,0,0v-18c5.36-1.08,34.62-7.28,48.25-16.91V19.68Zm4.61,3.28a1.32,1.32,0,1,1-2.63,0V-36a1.33,1.33,0,0,1,1.31-1.33,1.32,1.32,0,0,1,1.32,1.33Zm2-20.31V-15.52a11.73,11.73,0,0,1,4.25,9.07A11.82,11.82,0,0,1,1144.15,2.65Z" transform="translate(606.83 276.1)"/><rect class="cls-49" x="1671.22" y="262.64" width="10.62" height="1.98"/><rect class="cls-49" x="1684.88" y="262.64" width="5.54" height="1.98"/><path class="cls-49" d="M1563.12,325.55a8.67,8.67,0,1,0,8.66,8.68A8.68,8.68,0,0,0,1563.12,325.55Zm0,15a6.34,6.34,0,1,1,6.33-6.33A6.34,6.34,0,0,1,1563.12,340.56Z" transform="translate(606.83 276.1)"/><path class="cls-49" d="M1615.94,325.55a8.67,8.67,0,1,0,8.68,8.68A8.67,8.67,0,0,0,1615.94,325.55Zm0,15a6.34,6.34,0,1,1,6.36-6.33A6.34,6.34,0,0,1,1615.94,340.56Z" transform="translate(606.83 276.1)"/><path class="cls-49" d="M1633.42,271h-85.63l-4.07-28.88h-19.18v2.33h17.15l9.87,69.78h77.06Zm-5.28,26.57v0h-15.84l.73-11h16.33Zm-38.88-13.26h-19.48l-1.09-11h20.57Zm2.33-11h20l-.73,11h-19.26Zm-2.33,13.31v10.95h-18.15l-1.1-11Zm0,13.28v12h-16.73l-1.19-12Zm2.33,0h18.21l-.8,12h-17.41Zm0-2.33V286.6h19.1l-.73,11Zm38-13.29h-16.42l.74-11h16.91Zm-63.25-11,1.1,11h-17.78l-1.56-11ZM1550,286.61h17.68l1.09,11h-17.06v1.13Zm1.88,13.28H1569l1.2,12h-16.62Zm59.45,12,.8-12h15.75l-1.35,12Z" transform="translate(606.83 276.1)"/><rect class="cls-49" x="2158.52" y="594.88" width="58.4" height="2.33"/><rect class="cls-49" x="2220.81" y="594.88" width="14.68" height="2.33"/><path class="cls-50" d="M-604.43,355.42h178.81a3.3,3.3,0,0,1,3.29,3.29V463a3.27,3.27,0,0,1-1.07,2.42,3.24,3.24,0,0,1-2.22.87H-604.43" transform="translate(606.83 276.1)"/><path class="cls-51" d="M-606.83,465.27l91.72-62.54,91.71,62.72a3.24,3.24,0,0,1-2.22.87H-604.43" transform="translate(606.83 276.1)"/><path class="cls-52" d="M-606.83,465.27l91.8-61,91.63,61.16a3.24,3.24,0,0,1-2.22.87H-604.43" transform="translate(606.83 276.1)"/><path class="cls-53" d="M-606.83,356.47l85,66.34a11.34,11.34,0,0,0,13.68,0l84.79-66.51a3.24,3.24,0,0,0-2.22-.87H-604.43" transform="translate(606.83 276.1)"/><path class="cls-54" d="M-606.83,356.47l85,64a11.34,11.34,0,0,0,13.68,0l84.79-64.21a3.24,3.24,0,0,0-2.22-.87H-604.43" transform="translate(606.83 276.1)"/><path class="cls-47" d="M1716.78,123.19a31.61,31.61,0,0,0-44.58,0l-11.55,11.56-11.56-11.56a31.62,31.62,0,0,0-45.06.49,31.78,31.78,0,0,0,.74,44.36l11.29,11.29,40.52,40.51a5.75,5.75,0,0,0,8.14,0l40.51-40.51,11.55-11.56a31.6,31.6,0,0,0,0-44.58Z" transform="translate(606.83 276.1)"/><path class="cls-47" d="M1740.39,509.25H1639a30.53,30.53,0,0,1,30-25.51h41.36A30.52,30.52,0,0,1,1740.39,509.25Z" transform="translate(606.83 276.1)"/><circle class="cls-47" cx="2296.53" cy="729.98" r="23.37"/><rect class="cls-47" x="2187.03" y="714.9" width="18.63" height="70.45"/><rect class="cls-47" x="1580.2" y="438.81" width="18.63" height="70.45" transform="translate(1722.32 2339.64) rotate(-90)"/><circle class="cls-55" cx="-344.02" cy="170.24" r="84.55" transform="translate(385.69 82.7) rotate(-45)"/><path class="cls-2" d="M-383.95,161.73l27.29-.14s14.85-15.16,17.11-21.68c1.19-3.44,0-14.57,0-14.57s8.9-2.35,10.95,3.42,3.41,8.08,3.52,11c.15,3.92-3.12,15.41-3.12,15.41l29.69,2.31-15.91,42.81h-34.76s-3.07-2.81-4.35-3.23c-7.22-2.38-30.42,0-30.42,0Z" transform="translate(606.83 276.1)"/><path class="cls-2" d="M-299,168.12h-16.11a5.37,5.37,0,0,1-5.36-5.35h0a5.37,5.37,0,0,1,5.36-5.35H-299a5.37,5.37,0,0,1,5.35,5.35h0A5.37,5.37,0,0,1-299,168.12Z" transform="translate(606.83 276.1)"/><rect class="cls-2" x="283.4" y="444.22" width="26.82" height="10.71" rx="5.35"/><path class="cls-2" d="M-305.69,189.54H-321.8a5.37,5.37,0,0,1-5.36-5.35h0a5.37,5.37,0,0,1,5.36-5.36h16.11a5.37,5.37,0,0,1,5.35,5.36h0A5.37,5.37,0,0,1-305.69,189.54Z" transform="translate(606.83 276.1)"/><path class="cls-2" d="M-308.65,200.25h-16.11a5.36,5.36,0,0,1-5.35-5.36h0a5.36,5.36,0,0,1,5.35-5.35h16.11a5.37,5.37,0,0,1,5.36,5.35h0A5.37,5.37,0,0,1-308.65,200.25Z" transform="translate(606.83 276.1)"/><path class="cls-47" d="M171.57,365.92A49.42,49.42,0,1,1,221,316.5,49.48,49.48,0,0,1,171.57,365.92Zm0-88.64a39.23,39.23,0,1,0,39.22,39.22A39.27,39.27,0,0,0,171.57,277.28Z" transform="translate(606.83 276.1)"/><polygon class="cls-47" points="766.54 573.59 766.54 611.61 803.83 592.6 766.54 573.59"/><rect class="cls-56" x="2363.31" y="618.35" width="158.17" height="76.12" rx="36.1"/><path class="cls-56" d="M1848.72,418.36l22.12,17.28a1.53,1.53,0,0,0,2.35-1.8l-6.49-15.48Z" transform="translate(606.83 276.1)"/><circle class="cls-2" cx="2477.32" cy="654.9" r="10.81"/><circle class="cls-2" cx="2443.31" cy="656.4" r="10.81"/><circle class="cls-2" cx="2409.29" cy="657.9" r="10.81"/></svg>