<svg id="Слой_1" data-name="Слой 1" xmlns="http://www.w3.org/2000/svg" xmlns:xlink="http://www.w3.org/1999/xlink" viewBox="0 0 208.03 202.86"><defs><style>.cls-1,.cls-11,.cls-22,.cls-26,.cls-31,.cls-4{fill:none;}.cls-2{fill:url(#Degradado_sin_nombre_36);}.cls-3{fill:url(#Degradado_sin_nombre_11);}.cls-11,.cls-4{stroke:#eaf1f3;}.cls-11,.cls-22,.cls-26,.cls-31,.cls-4{stroke-miterlimit:10;}.cls-22,.cls-26,.cls-4{stroke-width:0.25px;}.cls-5{fill:#8e8bfa;}.cls-6{fill:#fff;}.cls-7{fill:#eaf1f3;}.cls-8{clip-path:url(#clip-path);}.cls-9{fill:#668afa;}.cls-10{fill:#8fe4c5;}.cls-12{clip-path:url(#clip-path-2);}.cls-13{fill:#c5c5c5;}.cls-14{fill:#43303d;}.cls-15{fill:#a6abb7;}.cls-16{fill:#d3dae9;}.cls-17{fill:#e48892;}.cls-18{fill:#d54655;}.cls-19{fill:#eec2ac;}.cls-20{fill:#283d50;}.cls-21{fill:#de5e68;}.cls-22{stroke:#43303d;}.cls-23{fill:#a1653c;}.cls-24{fill:#e0dbd5;}.cls-25{fill:#3d4668;}.cls-26{stroke:#b1bddb;}.cls-27{fill:#98a1c8;}.cls-28{fill:url(#Безымянный_градиент_2);}.cls-29{fill:#6b2f21;}.cls-30{fill:#d9d9d9;}.cls-31{stroke:#b1e4ce;}.cls-32{fill:#b1e4ce;}</style><linearGradient id="Degradado_sin_nombre_36" x1="579.69" y1="382.61" x2="775.54" y2="382.61" gradientUnits="userSpaceOnUse"><stop offset="0" stop-color="#2acaff"/><stop offset="1" stop-color="#2adfc3"/></linearGradient><linearGradient id="Degradado_sin_nombre_11" x1="599.9" y1="394.89" x2="787.72" y2="394.89" gradientUnits="userSpaceOnUse"><stop offset="0" stop-color="#76aadb"/><stop offset="1" stop-color="#4a72b2"/></linearGradient><clipPath id="clip-path" transform="translate(-579.69 -288.14)"><circle class="cls-1" cx="666.26" cy="305.77" r="14.33"/></clipPath><clipPath id="clip-path-2" transform="translate(-579.69 -288.14)"><circle class="cls-1" cx="770.59" cy="343.48" r="13.02"/></clipPath><linearGradient id="Безымянный_градиент_2" x1="1282.31" y1="-18.41" x2="1305.22" y2="-18.18" gradientTransform="matrix(0.92, -0.32, -0.45, -0.93, -550.5, 769.18)" gradientUnits="userSpaceOnUse"><stop offset="0" stop-color="#eef3fa"/><stop offset="0.25" stop-color="#e6edf8"/><stop offset="1" stop-color="#d2dff1"/></linearGradient></defs><title>about-develop-new</title><path class="cls-2" d="M594.57,421.47s-40.92-40,12.95-75.92,112.1-52.15,146-47.9,25.38,86-3.89,135.65S650,480.22,594.57,421.47Z" transform="translate(-579.69 -288.14)"/><path class="cls-3" d="M766.8,336.34s47.07,32.57,0,77-101.73,70.26-135.89,71.78-39.48-80.47-19-134.38S702.27,287.75,766.8,336.34Z" transform="translate(-579.69 -288.14)"/><line class="cls-4" x1="13.15" y1="27.03" x2="13.15" y2="37.02"/><path class="cls-5" d="M597.86,314.48a5,5,0,1,1-5-5,5,5,0,0,1,5,5Z" transform="translate(-579.69 -288.14)"/><line class="cls-4" x1="13.15" y1="10.61" x2="13.15" y2="20.32"/><path class="cls-5" d="M597.86,297.23a5,5,0,1,1-5-5,5,5,0,0,1,5,5Z" transform="translate(-579.69 -288.14)"/><polygon class="cls-6" points="12.76 11.45 10.44 8.46 12.54 9.34 17.37 5.11 12.76 11.45"/><path class="cls-5" d="M597.86,332.07a5,5,0,1,1-5-5,5,5,0,0,1,5,5Z" transform="translate(-579.69 -288.14)"/><polygon class="cls-6" points="12.76 28.31 10.44 25.32 12.54 26.2 17.37 21.96 12.76 28.31"/><polygon class="cls-6" points="12.76 46.08 10.44 43.1 12.54 43.98 17.37 39.75 12.76 46.08"/><rect class="cls-5" x="21.14" y="5.64" width="20.5" height="2.76"/><rect class="cls-7" x="21.14" y="9.59" width="35.88" height="7.72"/><rect class="cls-7" x="21.14" y="26.76" width="35.88" height="7.72"/><rect class="cls-7" x="21.14" y="44.15" width="35.88" height="7.72"/><rect class="cls-5" x="21.14" y="23.01" width="20.5" height="2.76"/><rect class="cls-5" x="21.14" y="40.23" width="20.5" height="2.76"/><g class="cls-8"><circle class="cls-5" cx="86.57" cy="17.63" r="14.33"/><polygon class="cls-7" points="91.42 2.64 86.61 17.65 72.81 4.4 92.35 0 91.42 2.64"/><polygon class="cls-9" points="91.42 2.64 86.61 17.65 102.99 7.58 92.35 0 91.42 2.64"/><polygon class="cls-10" points="86.61 31.98 86.61 17.65 102.99 7.58 104.23 24.63 89.98 33.96 86.61 31.98"/></g><line class="cls-11" x1="115.17" y1="3.7" x2="156.08" y2="3.7"/><line class="cls-11" x1="115.17" y1="6.51" x2="156.08" y2="6.51"/><line class="cls-11" x1="115.17" y1="9.32" x2="156.08" y2="9.32"/><line class="cls-11" x1="115.17" y1="12.13" x2="156.08" y2="12.13"/><line class="cls-11" x1="115.17" y1="14.94" x2="156.08" y2="14.94"/><line class="cls-11" x1="115.17" y1="17.75" x2="156.08" y2="17.75"/><line class="cls-11" x1="115.17" y1="21.44" x2="156.08" y2="21.44"/><line class="cls-11" x1="115.17" y1="24.18" x2="156.08" y2="24.18"/><line class="cls-11" x1="115.17" y1="26.94" x2="156.08" y2="26.94"/><line class="cls-11" x1="115.17" y1="29.68" x2="156.08" y2="29.68"/><g class="cls-12"><circle class="cls-5" cx="190.91" cy="55.34" r="13.02"/><polygon class="cls-7" points="195.27 41.66 190.9 55.3 178.36 43.25 196.13 39.26 195.27 41.66"/><polygon class="cls-7" points="195.27 41.66 190.9 55.3 207.86 56.77 201.85 43.19 195.27 41.66"/><polygon class="cls-10" points="190.9 68.32 190.9 55.3 205.48 55.3 206.93 61.63 193.97 70.11 190.9 68.32"/></g><circle class="cls-6" cx="190.93" cy="55.32" r="7.38"/><line class="cls-11" x1="182.39" y1="72.35" x2="200.6" y2="72.35"/><line class="cls-11" x1="182.39" y1="76.34" x2="200.6" y2="76.34"/><line class="cls-11" x1="182.39" y1="80.33" x2="200.6" y2="80.33"/><polygon class="cls-13" points="24.93 202.51 26.55 202.51 39.76 138.1 36.42 138.1 24.93 202.51"/><polygon class="cls-13" points="149.6 202.51 147.97 202.51 134.76 138.1 138.11 138.1 149.6 202.51"/><path class="cls-14" d="M602.48,387.48a4.55,4.55,0,0,0-1,2.08,3.21,3.21,0,0,1,1.08-1.46c.66-.43,1.55-.37,2.22-.77a3.83,3.83,0,0,0,1.24-1.8,5.47,5.47,0,0,1-1.72,1A3.38,3.38,0,0,0,602.48,387.48Z" transform="translate(-579.69 -288.14)"/><rect class="cls-15" x="28.47" y="171.46" width="2.46" height="23.83"/><rect class="cls-16" x="27.72" y="167.98" width="3.95" height="3.47"/><rect class="cls-16" x="28.21" y="186.12" width="2.98" height="7.43"/><rect class="cls-16" x="27.72" y="193.55" width="3.95" height="3.47"/><rect class="cls-15" x="24.9" y="161.41" width="9.59" height="6.57"/><rect class="cls-15" x="16.81" y="159.46" width="26.74" height="4.92" rx="0.51"/><polygon class="cls-15" points="20.17 200.34 27.72 196.6 27.72 193.99 19.18 199.72 20.17 200.34"/><circle class="cls-15" cx="19.18" cy="201.07" r="1.76"/><circle class="cls-15" cx="29.7" cy="201.07" r="1.76"/><polygon class="cls-15" points="39.22 200.34 31.67 196.6 31.67 193.99 40.22 199.72 39.22 200.34"/><path class="cls-15" d="M621.68,489.22a1.78,1.78,0,0,1-1.77,1.78,1.78,1.78,0,0,1,0-3.55h0A1.78,1.78,0,0,1,621.68,489.22Z" transform="translate(-579.69 -288.14)"/><rect class="cls-15" x="29.21" y="195.29" width="0.96" height="5.76"/><path class="cls-17" d="M592.05,450.29a1.9,1.9,0,0,1-1.89-1.43c-.65-2.66-1.82-7.63-1.89-20.07a119.47,119.47,0,0,0-3.85-28.53,2.81,2.81,0,0,1,1.4-3.08h0a3.71,3.71,0,0,1,1.89-.52h23.87s9.79,17.53,11.08,23.53,3.07,29.05,3.07,29.05Z" transform="translate(-579.69 -288.14)"/><path class="cls-18" d="M592.82,450.33s-2.22-4.36-2.26-21.54c0-14.15-2.83-25.78-3.64-30.27a1.58,1.58,0,0,1,1.25-1.86,1.53,1.53,0,0,1,.3,0h25.35s9.84,17.53,11.08,23.55S628,449.23,628,449.23Z" transform="translate(-579.69 -288.14)"/><path class="cls-17" d="M615.94,450.33H591.81a1.23,1.23,0,0,1-1.23-1.23v-4h25.36v5.22Z" transform="translate(-579.69 -288.14)"/><path class="cls-18" d="M632.15,450.33H596.49v-3.68a1.55,1.55,0,0,1,1.55-1.54h34.11a1.55,1.55,0,0,1,1.55,1.54h0v2.14A1.55,1.55,0,0,1,632.15,450.33Z" transform="translate(-579.69 -288.14)"/><path class="cls-19" d="M600.07,390.62s3.69-1.17,4.06-2.78c.3-1.3.78-5.35.78-5.35h6.48a29.46,29.46,0,0,0,0,4.79c.61,2.91,4.27,3.87,4.27,3.87l.51,9.1-9.43,7.95L597.6,399Z" transform="translate(-579.69 -288.14)"/><path class="cls-19" d="M614.79,372.58c1.61,2.16,1.28,2.47,1.06,5.44a23.48,23.48,0,0,1-1.28,6.14c-.43,1.12-2.72,5.95-6.79,4.18a12.57,12.57,0,0,1-5.56-5,16.41,16.41,0,0,1-.87-5.42c0-2-.05-4.55,0-6C601.63,366.65,611.82,368.62,614.79,372.58Z" transform="translate(-579.69 -288.14)"/><path class="cls-20" d="M625.39,433.9c3.51-.77,5.47.37,7.55,2.89s1.27,8.62,0,13.67-6.09,38.68-6.09,38.68h-3.58s-.94-13.21-1.55-22.92,1.53-23.53,1.53-23.53l-13.64-8.77S622.24,434.58,625.39,433.9Z" transform="translate(-579.69 -288.14)"/><path class="cls-20" d="M625.22,429c2.68,2.51,10.58,6.73,9,11.94l-10.56,4.48s-10.74-3.89-14-11.54l-3.3-7.65,7.08-2.83Z" transform="translate(-579.69 -288.14)"/><path class="cls-20" d="M617.51,435.75c1.94,1.4,7.19,3.71,6.15,9.69-.54,3-9.14,21.45-13.83,29.19-2.39,3.94-6.65,12.2-6.65,12.2l-4,.94s3.08-10,5.18-19.26,8.22-20.3,8.22-20.3a62.92,62.92,0,0,0-7.89-4.53c-3.36-1.47-5.17-2.06-.12-6.9S613.72,433,617.51,435.75Z" transform="translate(-579.69 -288.14)"/><path class="cls-19" d="M625.22,407.28a24.9,24.9,0,0,0,2.08,6.05c.84,1.46,18.17,7.85,18.17,7.85H635.35s-9.64-1.27-12.38-5a66.53,66.53,0,0,1-5.3-8.94Z" transform="translate(-579.69 -288.14)"/><path class="cls-20" d="M619,392.46c1.81.79,3.46,5.32,4.78,9.18a24.48,24.48,0,0,1,1.43,5.66s-4.63,2.65-7.08,2c0,0-2.33-8.39-.73-12.62Z" transform="translate(-579.69 -288.14)"/><path class="cls-20" d="M610.08,429.32c5.06-.2,10.1-.32,15.1-.3-2.46-1.59-4.62-2.7-5.09-3.17-1.06-1.05-.7-10.38.08-13.32s.72-6.29.17-7.79S619,392.46,619,392.46l-3.39-1.28s1,7.86-7.21,7.86-8.33-8.38-8.33-8.38l-5.28,1.17s-.39,10.22-.19,14.87,2.4,12.68,3,16.88c.5,3.27-.41,5.27-1,7.69A33.43,33.43,0,0,1,610.08,429.32Z" transform="translate(-579.69 -288.14)"/><path class="cls-21" d="M603.43,486.15c-1.13-.23-1.54.23-2.56.94a4.23,4.23,0,0,1-2.15.68v3.07h7.89Z" transform="translate(-579.69 -288.14)"/><path class="cls-21" d="M627.55,486.72s-.11,1-1.82,1.53a2.89,2.89,0,0,1-2.83-.94l-.38,3.47,13.46.08Z" transform="translate(-579.69 -288.14)"/><path class="cls-19" d="M627.79,420.38c-1.51-.18-3-1.6-8.81-1.66a91.57,91.57,0,0,1-9.88-1.89,20.33,20.33,0,0,1-5.58-2.41s-2.15-8-3-13.06c-2.38-.27-4.72-.57-7.1-.95-.09,6.33,4.4,17.59,5.89,18.71,2.91,2.19,9.74,2.09,11.38,2.12,3.78.06,20,.5,20,.5S632,420.88,627.79,420.38Z" transform="translate(-579.69 -288.14)"/><path class="cls-20" d="M602.47,409.33s-2.17-12.65-2.79-14c-3.22-6.89-7.66-3.22-7,2.1.28,2.27.45,8.13,1.61,13.66A18,18,0,0,0,602.47,409.33Z" transform="translate(-579.69 -288.14)"/><polygon class="cls-15" points="44.65 133.54 51.04 133.54 57.4 111.22 52.56 111.22 44.65 133.54"/><polygon class="cls-16" points="46.49 133.54 71.37 133.54 77.75 111.22 52.87 111.22 46.49 133.54"/><rect class="cls-16" x="42.83" y="133.04" width="28.55" height="1.66"/><rect class="cls-15" x="28.55" y="133.04" width="14.28" height="1.66"/><path class="cls-15" d="M639.84,411.61c-.72,1.71-.21,3.56,1.13,4.13s3-.36,3.77-2.07.21-3.56-1.13-4.12S640.56,409.9,639.84,411.61Z" transform="translate(-579.69 -288.14)"/><path class="cls-20" d="M596.6,431.23c-1,4.52,1.28,14.41,16,17l8.4,3.4a11.06,11.06,0,0,0,2.28-8.95c-1-5.19-6.94-7.16-10.82-13.43,0,0-6.1-2.55-10-1.18A17.19,17.19,0,0,0,596.6,431.23Z" transform="translate(-579.69 -288.14)"/><path class="cls-14" d="M616,375.66s-1.77.07-3.94-3.2c0,0,.23,1.48-1.89,3.48s-4,1.46-4.33,2.42a7.59,7.59,0,0,0-.35,1.83s-.35,0-.7-.52c-.22-.34-.34-1.17-.72-1.42-1-.64-2.63.22-2.1,2.09a4.15,4.15,0,0,0,1.61,2c0,3.2,1.28,4.19,1.28,4.19s-2.17,1-3.27.53c-1.6-.65-2-1.65-2-3.44a4.29,4.29,0,0,1-2.12-1.1c-2.22-2.2.34-8.5,1.37-9.24,0,0-2.43-3.44.62-5.74s4.28,1.44,4.28,1.44c1-.78,5.23-1,7.37-.24C617.24,371,616,375.66,616,375.66Z" transform="translate(-579.69 -288.14)"/><path class="cls-22" d="M612,372.42c.19,1.22,0,4.07-3.28,6.3" transform="translate(-579.69 -288.14)"/><rect class="cls-15" x="166.74" y="171.45" width="2.46" height="23.83"/><rect class="cls-16" x="165.99" y="167.99" width="3.95" height="3.47"/><rect class="cls-16" x="166.49" y="186.12" width="2.98" height="7.43"/><rect class="cls-16" x="165.99" y="193.55" width="3.95" height="3.47"/><rect class="cls-15" x="163.18" y="161.41" width="9.59" height="6.57"/><rect class="cls-15" x="154.13" y="159.45" width="26.74" height="4.92" rx="0.51"/><polygon class="cls-15" points="177.51 200.34 169.95 196.6 169.95 193.99 178.5 199.72 177.51 200.34"/><path class="cls-15" d="M760,489.22a1.78,1.78,0,1,1-1.78-1.77h0A1.78,1.78,0,0,1,760,489.22Z" transform="translate(-579.69 -288.14)"/><circle class="cls-15" cx="167.98" cy="201.07" r="1.76"/><polygon class="cls-15" points="158.45 200.34 166 196.6 166 193.99 157.46 199.72 158.45 200.34"/><circle class="cls-15" cx="157.46" cy="201.07" r="1.76"/><rect class="cls-15" x="167.49" y="195.29" width="0.96" height="5.76"/><path class="cls-17" d="M765,450.29a1.89,1.89,0,0,0,1.88-1.43c.65-2.66,1.82-7.63,1.89-20.07,0-13.71,7.22-24.13,8.2-28.53a2.81,2.81,0,0,0-1.41-3.08h0a3.67,3.67,0,0,0-1.88-.52h-28.2s-9.8,17.5-11.09,23.52-3.08,29.05-3.08,29.05Z" transform="translate(-579.69 -288.14)"/><path class="cls-18" d="M764.24,450.33s2.23-4.36,2.27-21.54c0-14.15,7.18-25.78,8-30.27a1.59,1.59,0,0,0-1.28-1.86,1.36,1.36,0,0,0-.29,0h-29.7s-9.79,17.53-11.07,23.55-3.08,29.05-3.08,29.05Z" transform="translate(-579.69 -288.14)"/><path class="cls-17" d="M733.3,445.11h33.17v4a1.23,1.23,0,0,1-1.24,1.23H733.3v-5.22Z" transform="translate(-579.69 -288.14)"/><path class="cls-18" d="M724.91,445.11h11a1.55,1.55,0,0,1,1.55,1.54v3.68H724.91a1.54,1.54,0,0,1-1.55-1.54v-2.14A1.54,1.54,0,0,1,724.91,445.11Z" transform="translate(-579.69 -288.14)"/><path class="cls-19" d="M739.18,391.51c-2.3,2.29-2.45,13.77-4.77,19.73,0,0-15.83,6.19-23,8l2.5,2.64s21.44-5.15,24.16-7c4.16-2.76,6.61-13.95,7-19.55S741.6,389.11,739.18,391.51Z" transform="translate(-579.69 -288.14)"/><path class="cls-19" d="M713.12,419.64l-1.75-.4s-3.63-.34-4.79-.5-2.53,1.16-4.12,1.65a14.79,14.79,0,0,0-3.11,1.48h1.26l2.58.42,2.32-.42a22.79,22.79,0,0,1,4.37,0,19,19,0,0,0,4,0Z" transform="translate(-579.69 -288.14)"/><path class="cls-19" d="M728.78,431.22c-4.9,1.62-10.93,4.23-12.69,5.88s-5.24,4-2.44,13c1.79,5.75,9.6,34.91,9.6,34.91l4-.7s-1.41-16.92-2.83-29.56c-.69-6.13-1-7.85-1-7.85l5.31-2.16c6.73-2.76,4.42-14.32,4.42-14.32Z" transform="translate(-579.69 -288.14)"/><path class="cls-19" d="M717.79,435.33c-1.76,1.64-3,1.1-5.66,10.16-1.69,5.79-7.86,35-7.86,35l3.69,1.59c5-13.95,5-13.94,10.8-25.27a50.73,50.73,0,0,0,4-10.91l10.76-.65c6.73-2.77,4.43-12.59,4.43-12.59S719.56,433.69,717.79,435.33Z" transform="translate(-579.69 -288.14)"/><path class="cls-9" d="M758.58,426.65c0,4.72,3.42,9.93-.54,15.29-3.58,4.85-24.53,3.31-24.53,3.31s3-5.11.15-9c-1.79-2.48-5.92-4.77-5.92-4.77l11.71-3.77,9.43-7.3Z" transform="translate(-579.69 -288.14)"/><path class="cls-23" d="M746.83,390.46c-.63,2.15-5.12,2.1-8.43-1.89s-5.72-10.86-2.42-15.69,7.74,4.53,9.24,9.51A35.21,35.21,0,0,1,746.83,390.46Z" transform="translate(-579.69 -288.14)"/><path class="cls-19" d="M736.39,372.78c-.89,1.05,0,5.07.11,5.66.3,1.15-.28,2.74.06,3s.5,0,1.07.19c0,0,1.62,3.06,1.88,3.69.42.95,2.68-.74,3.36,0,.5.52.52,1.5.69,2.7l-1.32,5.33L753,391.29a53.74,53.74,0,0,1-4-6.82c-.8-2.15.21-4.49-.07-7.37s-1.54-6.61-5.66-7A8.1,8.1,0,0,0,736.39,372.78Z" transform="translate(-579.69 -288.14)"/><path class="cls-24" d="M739.8,427.11a22.94,22.94,0,0,1,7.21,0c4.49.61,11.14-.66,11.14-.66s-2.73-14-2.56-20.4.67-13.21.67-13.21l-11.94-2s-2.89,1-4.52,5.66S738.42,421.27,739.8,427.11Z" transform="translate(-579.69 -288.14)"/><path class="cls-20" d="M743.57,388c-.89.88-3.77,2-3.77,3.27s-2.27,12.07-2.14,14.33,1,10.86.46,13.5a63.44,63.44,0,0,0-.51,8.49l2.19-.5s-.64-14.94,0-20.47,4.52-15.72,4.52-15.72l-1.47-.5Z" transform="translate(-579.69 -288.14)"/><path class="cls-20" d="M747.91,390.92l-3.59-.12s-1.2,5.53-1.2,16.18A172.46,172.46,0,0,0,745,428a22.11,22.11,0,0,0,6.6,1.2,15.79,15.79,0,0,0,6.61-1.26,135.11,135.11,0,0,1,0-17.31c.63-8.55,2.91-10.49,2.47-16.09-.74-9.28-9.14-6-9.14-6Z" transform="translate(-579.69 -288.14)"/><path class="cls-9" d="M744.32,390.8s5.78-2.77,6.67-4.52a6,6,0,0,1,.5,2.25c-.13.76-5.67,6-5.67,6Z" transform="translate(-579.69 -288.14)"/><path class="cls-23" d="M749.15,391.46c1.42-7.13-2.38-9.24-6.53-11.78a21.45,21.45,0,0,1-6.61-6.83s1.62-5.23,6.3-6.29,10.68,1.89,12.19,9.24c1.07,5.23,2.47,7.08,6,9.64,4.29,3.07,5.56,10.94.57,14.73-4.62,3.51-2-4.82-3.67-9.49-.29-.8-3.89,3.22-5.89,3.89S748.88,392.61,749.15,391.46Z" transform="translate(-579.69 -288.14)"/><path class="cls-9" d="M743.57,388a3.15,3.15,0,0,0,.75,2.77l-2.14,3s-.62-2.39,0-3.4S743.57,388,743.57,388Z" transform="translate(-579.69 -288.14)"/><path class="cls-20" d="M723,482.91s.12,1.07,1.82,1.55a2.91,2.91,0,0,0,2.83-.94L728,487l-5.43,3.83h-4.52l2.44-2.71Z" transform="translate(-579.69 -288.14)"/><path class="cls-20" d="M704.86,478.11a1.88,1.88,0,0,0,.67,2.46,2.86,2.86,0,0,0,3,0l-.7,3.43L695,480Z" transform="translate(-579.69 -288.14)"/><path class="cls-19" d="M754.65,392.57c-1.25,3-4.89,12.82-7.21,18.79,0,0-16.87,5.39-24.08,7.22l2.5,2.64s20.57-3.15,25-5.24,8.81-16.61,9.58-20.42C761.56,390.06,756,389.34,754.65,392.57Z" transform="translate(-579.69 -288.14)"/><path class="cls-19" d="M725.11,419l-1.75-.41s-3.62-.34-4.78-.5-2.54,1.16-4.13,1.66a13.86,13.86,0,0,0-3.11,1.48h1.26l2.58.41,2.32-.41a21.28,21.28,0,0,1,4.37,0,19,19,0,0,0,4,0Z" transform="translate(-579.69 -288.14)"/><path class="cls-25" d="M658.23,347.06l-4.58,10.61,1.18.5,4.58-10.61a.27.27,0,0,0-.14-.32l-.73-.31A.25.25,0,0,0,658.23,347.06Z" transform="translate(-579.69 -288.14)"/><path class="cls-25" d="M658.26,349.65l-.77-.33,1.28-3a.43.43,0,0,1,.55-.22h0a.41.41,0,0,1,.23.53v0Z" transform="translate(-579.69 -288.14)"/><path class="cls-19" d="M670.26,372.25s-4.5,12.36-6.14,12.26c-1.23,0-9.43-11.32-10.78-13.21s-3.89-6.52-3.89-6.52l3.35-1s5.76,6.93,7.24,8.18,2.1,1.71,2.1,1.71l1.71-4.71Z" transform="translate(-579.69 -288.14)"/><path class="cls-25" d="M667.77,359.38c-1.81.48-2.44,2.09-3.22,5.41a66.65,66.65,0,0,1-1.89,6.48l6,2.77s1.07-5.92,1.47-9.65S669.35,359,667.77,359.38Z" transform="translate(-579.69 -288.14)"/><path class="cls-20" d="M692.23,486.6V491h-8.4s.31-1.58,4.3-2.31l.58-2.07Z" transform="translate(-579.69 -288.14)"/><path class="cls-20" d="M674.47,486.6V491h-8.42s.32-1.58,4.3-2.31l.6-2.07Z" transform="translate(-579.69 -288.14)"/><path class="cls-20" d="M690.39,398.37s1.54,13.91,1.59,28.87.94,59.35.94,59.35h-6s-6.22-42.92-8.49-52.52-8.14-35.52-8.14-35.52Z" transform="translate(-579.69 -288.14)"/><path class="cls-19" d="M681.12,347.85s.38,3,.71,4.58a12,12,0,0,0,.83,2.83,33.21,33.21,0,0,0,3.77,4.24s-10,5.28-12.95,5.28-1.88-5.89-1.88-5.89,3.21-2.54,3.69-3.82a29,29,0,0,0,.74-5Z" transform="translate(-579.69 -288.14)"/><path class="cls-20" d="M677.27,413.64s-1.13,22.78-1.36,27.26,0,45.67,0,45.67-5.66.16-5.66,0-5.33-43.4-6-54.48-.28-24.15-1.2-25.68,2.47-8,2.47-8l8,2.13Z" transform="translate(-579.69 -288.14)"/><path class="cls-7" d="M684.34,356.54l10.3,4.43s-2,8.33-2.11,11.67-1.3,29.46-1.3,29.46S688.08,407,672.88,405c-5.86-.75-8.75-3.61-8.75-3.61s1.65-28.79,2.1-32.08,1.58-9.92,1.58-9.92l5-1.53,2,3Z" transform="translate(-579.69 -288.14)"/><path class="cls-26" d="M672.09,399.91" transform="translate(-579.69 -288.14)"/><path class="cls-26" d="M674.75,360.87" transform="translate(-579.69 -288.14)"/><polygon class="cls-25" points="104.2 66.6 95.06 72.73 97.57 75.61 104.66 68.4 104.2 66.6"/><polygon class="cls-25" points="95.06 72.73 92.57 74.73 93.04 69.71 93.97 68.4 95.06 72.73"/><path class="cls-27" d="M665.12,378.81l-8.79,2.54a2.05,2.05,0,0,1-2.35-1L645.43,362a1.37,1.37,0,0,1,.6-1.84,1.12,1.12,0,0,1,.35-.12l8.71-2.57c1.58-.16,2.37.15,2.77,1l8.58,18.14C666.8,377.49,666.65,378.09,665.12,378.81Z" transform="translate(-579.69 -288.14)"/><path class="cls-28" d="M664.62,379l-8.83,2.56a2.08,2.08,0,0,1-2.36-1l-8.58-18.36a1.36,1.36,0,0,1,.59-1.84,1.45,1.45,0,0,1,.35-.12l8.76-2.58a2.13,2.13,0,0,1,2.43,1L665.63,377a1.42,1.42,0,0,1-.65,1.91A1.27,1.27,0,0,1,664.62,379Z" transform="translate(-579.69 -288.14)"/><path class="cls-19" d="M690.12,374.08s-8.17,13.56-9.26,14-15.18-8.72-17.83-10.43-4.86-3.39-5.19-3.67a14,14,0,0,1-1.09-3,4.49,4.49,0,0,0,.37-.49l.35.19-.19-1.1.33-.63.33.11.11-1.11.48-.84s1.39,1.58,2.25,2.51a12.22,12.22,0,0,0,1.88,1.64,13.52,13.52,0,0,1,0-1.8,4.92,4.92,0,0,0-.16-1.32l1.37.82s1.21,3.78,1.43,4.1a7,7,0,0,0,4.14,3.88c5.85,2.22,9.09,3.06,9.09,3.06-.22,0,5.33-10.13,5.33-10.13Z" transform="translate(-579.69 -288.14)"/><path class="cls-25" d="M695,366.1c-.79,3.69-6.19,11.75-6.19,11.75l-6.61-5s2.6-5.19,4-7.91c1.6-3,3.1-6.67,5.93-5.6S695.65,363.14,695,366.1Z" transform="translate(-579.69 -288.14)"/><path class="cls-19" d="M669.49,340.06c-.7.64-1.88,1.93-1.79,2.68a30,30,0,0,0,.63,4.23c.37,1.25,1.11,4.51,1.64,5.95s1.15,3.4,1.59,3.59a13.84,13.84,0,0,0,5-1c.72-.53,4.59-4.77,3.77-7.91,0,0,1,.13,1.63-3,.16-.81-3.13-3.11-3.64-3.91-1.24-1.95-5.78-.42-7.07-.32A2.74,2.74,0,0,1,669.49,340.06Z" transform="translate(-579.69 -288.14)"/><path class="cls-29" d="M667.7,342.74s.26-1.1,1.26-.86a10.51,10.51,0,0,0,7.28-1.61,7,7,0,0,0,.94,2.41,4.47,4.47,0,0,1,1,2c.19.62,1,.81,1,.81s.36-1.75,1.14-1.89c1.56-.23,1.37,1.89.73,2.54a13.61,13.61,0,0,1-1.31,1.21,7.78,7.78,0,0,0,.5,1.55,7.61,7.61,0,0,0,1.27,1.56s.41-4.17,1.4-6.07.94-5.44-1.89-6.17a4,4,0,0,0-4.38-3c-3.78.16-6.73,1.65-8.38,1.5a5.13,5.13,0,0,1-2.15-.5s-.82,2.7.25,4.13A9.42,9.42,0,0,1,667.7,342.74Z" transform="translate(-579.69 -288.14)"/><polygon class="cls-15" points="133.92 133.54 130.42 133.54 126.92 111.22 129.58 111.22 133.92 133.54"/><polygon class="cls-16" points="132.91 133.54 119.27 133.54 115.77 111.22 129.42 111.22 132.91 133.54"/><rect class="cls-16" x="119.08" y="133.04" width="14.83" height="1.66"/><rect class="cls-15" x="133.92" y="133.04" width="18.71" height="1.66"/><path class="cls-15" d="M705.11,411.61c.4,1.71.11,3.56-.62,4.13s-1.66-.36-2.06-2.07-.11-3.56.62-4.12S704.72,409.9,705.11,411.61Z" transform="translate(-579.69 -288.14)"/><rect class="cls-30" x="0.31" y="134.87" width="168" height="3.23"/><polygon class="cls-30" points="18.24 202.51 19.86 202.51 33.07 138.1 29.73 138.1 18.24 202.51"/><polygon class="cls-30" points="142.91 202.51 141.28 202.51 128.07 138.1 131.42 138.1 142.91 202.51"/><rect class="cls-7" x="127.39" y="42.62" width="28.28" height="27.99"/><rect class="cls-6" x="131.62" y="46.87" width="9.91" height="20"/><rect class="cls-11" x="127.39" y="37.27" width="28.28" height="5.35"/><path class="cls-10" d="M732,338.28a3.52,3.52,0,1,1-3.52-3.52h0A3.53,3.53,0,0,1,732,338.28Z" transform="translate(-579.69 -288.14)"/><polygon class="cls-6" points="148.46 51.52 146.83 49.42 148.31 50.05 151.7 47.08 148.46 51.52"/><circle class="cls-10" cx="148.74" cy="60.57" r="3.52"/><polygon class="cls-6" points="148.46 61.95 146.83 59.87 148.31 60.48 151.7 57.52 148.46 61.95"/><rect class="cls-10" x="175.9" y="17.28" width="4.87" height="10.24"/><rect class="cls-10" x="183.03" y="21.12" width="4.87" height="6.4"/><rect class="cls-10" x="190.17" y="18.08" width="4.87" height="9.44"/><rect class="cls-10" x="197.3" y="10.82" width="4.87" height="16.7"/><polyline class="cls-31" points="175.9 13.86 180.77 12.15 185.47 13.86 197.66 4.05"/><polygon class="cls-32" points="199.74 2.38 197.77 5.92 197.51 4.17 195.86 3.54 199.74 2.38"/><polyline class="cls-4" points="171.15 31.37 206.99 31.37 206.99 9.56"/></svg>