<svg id="Слой_1" data-name="Слой 1" xmlns="http://www.w3.org/2000/svg" viewBox="0 0 596.77 436.19"><defs><style>.cls-1{fill:#e1d8f6;}.cls-2{fill:#aaaae6;}.cls-3{fill:#b2cdec;}.cls-4{fill:#cde6ed;}.cls-5{fill:#e5e7f6;}.cls-6{fill:#c5c0f5;}.cls-7{fill:#3b3a66;}.cls-8{fill:#d3e7ef;}.cls-9{fill:#677cea;}.cls-10{fill:#889eeb;}.cls-11{fill:#95b1eb;}.cls-12{fill:#f0edf6;}.cls-13{fill:#e5edf6;}.cls-14{fill:#eeeff6;}.cls-15{isolation:isolate;}.cls-16{fill:#9a9ad0;}.cls-17{fill:#8686b4;}.cls-18,.cls-22{opacity:0.1;}.cls-19{fill:#ddb4a2;}.cls-20{fill:#bacdec;}.cls-21{fill:#cfa292;}.cls-23{fill:#96c9ec;}</style></defs><title>about-reputation-2</title><g id="Perfect_Five_Stars" data-name="Perfect Five Stars"><path class="cls-1" d="M349,555.9c-27.88,0-25.53,12.38,4.05,11.91s20.2,20.19,58.71,19.25,62.46-13.62,105.66-13.62,71.39,28.18,152.16,28.18,383.22-32.87,173.76-64.81S349,555.9,349,555.9Z" transform="translate(-319.1 -165.43)"/><path class="cls-2" d="M432,440.13c14.11-14.66,11.06-24.61,11.34-38.44s27.1-21.84,29.31-17.69S450,397,460,417.18s22.68,16.59,18.25,37.88-21.57,39-18.53,47.84S416,546.59,414.33,533.59,432,440.13,432,440.13Z" transform="translate(-319.1 -165.43)"/><path class="cls-3" d="M416.26,509.81s3.32-14.93,14.93-23.64,22.4-29.45,11.62-45.21S421.24,407.78,425,392.43s-11.61-21.15-13.69-39.4-7-1.66-3.31,9.54-24.48,49.36-24.48,68.85,5,58.07,16.6,66.78S416.26,509.81,416.26,509.81Z" transform="translate(-319.1 -165.43)"/><path class="cls-4" d="M417.51,501.52c-4-10.7-7.71-21.49-10.86-32.5s-5.56-22.36-5.86-34a87.88,87.88,0,0,1,6.13-34A147.6,147.6,0,0,0,412,384.87a58.84,58.84,0,0,0,1.59-8.31,25.85,25.85,0,0,0,.13-4.22,6.58,6.58,0,0,0-1.18-4,6.86,6.86,0,0,1,1.68,3.92,27.16,27.16,0,0,1,.25,4.32,62,62,0,0,1-.87,8.6,146.59,146.59,0,0,1-4.25,16.68c-3.53,10.77-5.61,21.85-5.24,33.08.21,11.22,2.44,22.36,5,33.41,1.26,5.54,2.74,11,4.19,16.55S416.19,496,417.51,501.52Z" transform="translate(-319.1 -165.43)"/><path class="cls-4" d="M408,535.94s-7.87-19-25.9-20.32-33.43-1-42.61-15.73-3.61-20-1.64-32.13-2.95-20.65-17.37-14.75c-5.91,2.3,8.19-21,27.2-12.78S368,473.66,377.49,477.6s45.24,12.78,44.58,35.72S408,535.94,408,535.94Z" transform="translate(-319.1 -165.43)"/><path class="cls-3" d="M859.6,424.2s14.47-9.92,14-20.79-1.75-35.78,15.81-26.05,9.53,25.19,8.53,45.22,2.51,26.05,7.27,39.79-32.11,12-41.64,34.93S831.08,432.11,859.6,424.2Z" transform="translate(-319.1 -165.43)"/><path class="cls-2" d="M831.49,510.36c29.77,0,44.27-9.16,35.49-24.43s-8.39-11.45-.38-28.63,12.22-18.32-2.67-30.91-13-28.63-11.25-51.53S822.71,341.28,817,363s-20.23,24.05-13.74,42,20.23,27.48,14.5,42.36S791,471.43,802.1,489.75A43.62,43.62,0,0,0,831.49,510.36Z" transform="translate(-319.1 -165.43)"/><polygon class="cls-5" points="538.69 317.09 537.52 315.12 518.45 326.4 518.45 273.21 533.12 260.77 531.64 259.02 518.45 270.21 518.45 225.08 516.15 225.08 516.15 244.54 498.68 232.43 497.38 234.31 516.15 247.33 516.15 312.29 497.35 299.22 496.04 301.11 516.15 315.08 516.15 392.14 518.45 392.14 518.45 329.06 538.69 317.09"/><path class="cls-6" d="M775.73,561.52a581,581,0,0,0,85.91,0s14.66-7.13,10-11.2-18.53,2.85-24.64,2,0-9.56,7.33-10.58,16.29-21,4.07-18.53-25.85,13.64-23.61,4.28S857.36,518,857.36,509s-16.08-21.38-20.56-12.42-15.06,27.28-20.15,21-23.21-17.71-25.45-11.6,4.27,11.81,4.27,15.06-9.16-3.25-11.8-8.55-10-2.24-9.16,4.28,14,18.73,13.43,23.82-8.14,12.62-15.47,5.09S755.37,557.24,775.73,561.52Z" transform="translate(-319.1 -165.43)"/><path class="cls-5" d="M618.17,493.31l-3.11,34.82-2.52,27.77H349s-11.27-11.27,28.17-23.78,28.78-57,62.6-61.36,43.2,8.76,65.74,33.18S564.34,515.21,618.17,493.31Z" transform="translate(-319.1 -165.43)"/><path class="cls-6" d="M615.06,528.13l-2.82,27.77H388.41c-1.35-.53-2.06-.79-2.06-.79,33.14-18.3,107.79-22.54,142-16.42S614,527.42,614,527.42Z" transform="translate(-319.1 -165.43)"/><path class="cls-2" d="M599.93,552.58l-1,.63c-8.91-13.7-9.93-20-10.61-24.08-.54-3.31-.86-5.3-4.83-9-9.19-8.55-11.48-14.36-11.57-14.6l1.08-.41c0,.05,2.32,5.82,11.28,14.16,4.26,4,4.63,6.22,5.19,9.65C590.16,533,591.15,539.09,599.93,552.58Z" transform="translate(-319.1 -165.43)"/><path class="cls-7" d="M573.55,500.33c.87,1.95-1,5.76-1,5.76s-4.12-1.11-5-3.06a3.34,3.34,0,1,1,6-2.7Z" transform="translate(-319.1 -165.43)"/><path class="cls-2" d="M571.69,499.91a.15.15,0,0,0-.19.08l-.77,1.77-.88-1.95a.14.14,0,0,0-.19-.07.15.15,0,0,0-.07.19l1.56,3.48-2.28-.17a.13.13,0,0,0-.15.13.15.15,0,0,0,.13.16l2.44.19,1.09,2.43a.14.14,0,0,0,.19.07.14.14,0,0,0,.08-.19l-1.76-3.91.87-2A.14.14,0,0,0,571.69,499.91Z" transform="translate(-319.1 -165.43)"/><path class="cls-7" d="M582.9,509.15c-.26,2.12-3.88,4.39-3.88,4.39s-2.94-3.09-2.68-5.21a3.35,3.35,0,1,1,6.56.82Z" transform="translate(-319.1 -165.43)"/><path class="cls-2" d="M581.52,507.83a.14.14,0,0,0-.2,0l-1.57,1.12.26-2.12a.15.15,0,0,0-.12-.16.15.15,0,0,0-.17.12l-.47,3.79-1.86-1.33a.14.14,0,0,0-.2,0,.14.14,0,0,0,0,.2l2,1.43-.4,3a.15.15,0,0,0,.13.16.15.15,0,0,0,.16-.13l.6-4.62,1.79-1.27A.14.14,0,0,0,581.52,507.83Z" transform="translate(-319.1 -165.43)"/><path class="cls-7" d="M572.35,517.05c2.14-.13,4.64-3.58,4.64-3.58s-2.89-3.15-5-3a3.35,3.35,0,1,0,.38,6.6Z" transform="translate(-319.1 -165.43)"/><path class="cls-2" d="M571.13,515.59a.15.15,0,0,1,0-.21l1.21-1.5-2.13.13a.15.15,0,0,1-.15-.14.13.13,0,0,1,.13-.15l3.82-.22-1.21-1.95a.15.15,0,0,1,0-.2.15.15,0,0,1,.2,0l1.29,2.08,3-.2a.14.14,0,0,1,.15.14.14.14,0,0,1-.13.15l-4.65.29-1.39,1.7A.14.14,0,0,1,571.13,515.59Z" transform="translate(-319.1 -165.43)"/><path class="cls-7" d="M597.05,533.92c-1.1,1.84-5.32,2.47-5.32,2.47s-1.46-4-.37-5.85a3.35,3.35,0,1,1,5.69,3.38Z" transform="translate(-319.1 -165.43)"/><path class="cls-2" d="M596.31,532.16a.15.15,0,0,0-.17-.11l-1.89.39,1.09-1.84a.14.14,0,0,0-.05-.2.16.16,0,0,0-.2.05l-2,3.29-1.17-2a.15.15,0,1,0-.25.15L593,534l-1.57,2.6a.15.15,0,1,0,.25.15l2.4-4,2.15-.44A.15.15,0,0,0,596.31,532.16Z" transform="translate(-319.1 -165.43)"/><path class="cls-7" d="M586.44,542.5c2.14,0,4.92-3.2,4.92-3.2s-2.63-3.37-4.77-3.41a3.35,3.35,0,1,0-.15,6.61Z" transform="translate(-319.1 -165.43)"/><path class="cls-2" d="M585.34,540.94a.13.13,0,0,1,0-.2l1.33-1.4-2.14-.05a.15.15,0,1,1,0-.29l3.82.09-1.05-2a.14.14,0,0,1,.06-.19.15.15,0,0,1,.2.06l1.12,2.17,3,0a.15.15,0,0,1,0,.29l-4.66-.08-1.51,1.59A.15.15,0,0,1,585.34,540.94Z" transform="translate(-319.1 -165.43)"/><path class="cls-7" d="M593.91,522.18c-.95,1.91-5.11,2.87-5.11,2.87s-1.76-3.89-.81-5.81a3.35,3.35,0,1,1,5.92,2.94Z" transform="translate(-319.1 -165.43)"/><path class="cls-2" d="M593,520.48a.14.14,0,0,0-.18-.1l-1.85.53,1-1.91a.16.16,0,0,0-.07-.2.15.15,0,0,0-.19.07l-1.7,3.42-1.31-1.87a.16.16,0,0,0-.21,0,.14.14,0,0,0,0,.2l1.41,2-1.37,2.72a.14.14,0,0,0,.06.19.15.15,0,0,0,.2-.07l2.08-4.16,2.12-.61A.14.14,0,0,0,593,520.48Z" transform="translate(-319.1 -165.43)"/><path class="cls-7" d="M581.46,526.81c2.12.24,5.17-2.74,5.17-2.74s-2.31-3.59-4.44-3.83a3.35,3.35,0,1,0-.73,6.57Z" transform="translate(-319.1 -165.43)"/><path class="cls-2" d="M580.5,525.17a.15.15,0,0,1,0-.21l1.45-1.27-2.12-.24a.15.15,0,0,1-.13-.16.14.14,0,0,1,.16-.12l3.8.42-.87-2.12a.15.15,0,0,1,.08-.19.15.15,0,0,1,.19.08l.92,2.27,3,.31a.15.15,0,1,1,0,.29l-4.64-.5-1.65,1.45A.14.14,0,0,1,580.5,525.17Z" transform="translate(-319.1 -165.43)"/><path class="cls-8" d="M600.11,524.8c.95,5.57,1.5,7.32,4.77,13.6s3.32,4,.49,6.69-2.56,10.08-2.56,10.08a15.81,15.81,0,0,1-1.85,1.52l-.45.3c-.75.46-1.51.73-1.91.33a13.53,13.53,0,0,0-6.71-3.7c-3.34-.63-2.18-4.77-6.38-7.64s-6.9-4.86-3.15-6.82a1.3,1.3,0,0,1,.3-.13,3.94,3.94,0,0,1,2.19,0,9.24,9.24,0,0,1,1.07.32l.56.21.28.13a21.6,21.6,0,0,1,2.69,1.46,42,42,0,0,1,4.08,2.92c1.18,1,2,1.64,2,1.64a3.86,3.86,0,0,0,0-.51h0a6.48,6.48,0,0,0-2.24-4.35,4.64,4.64,0,0,0-.64-.48c-.49-.32-.91-.61-1.25-.88,0,0,0,0,0,0a0,0,0,0,1,0,0,2.48,2.48,0,0,1-.35-.27,2.34,2.34,0,0,1-.91-1.3,1.67,1.67,0,0,1,.26-1.05,6.78,6.78,0,0,1,.85-1.07l.3-.31.1-.11a3.67,3.67,0,0,0,.8-2.36,4.61,4.61,0,0,0,0-.53c0-.87,0-1.88,0-3a43.78,43.78,0,0,1,.1-5.79,19.52,19.52,0,0,1,.56-3h0l.06-.19a12.25,12.25,0,0,1,.83-2.12,10.81,10.81,0,0,1,1-1.67C599.6,509.83,599.17,519.22,600.11,524.8Z" transform="translate(-319.1 -165.43)"/><path class="cls-7" d="M597.76,521.19a29.54,29.54,0,0,0-.78,8.43c0,.17,0,.33,0,.5,0,1.18.1,2.36.2,3.53.14,1.82.35,3.62.57,5.43.37,3,.86,5.94,1.41,8.89s1.11,5.84,1.79,8.72l-.45.3c-.89-1.18-1.82-2.34-2.76-3.5s-1.92-2.29-2.92-3.39-2.05-2.16-3.16-3.17a15,15,0,0,0-3.62-2.6,14.49,14.49,0,0,1,3.76,2.45,39.71,39.71,0,0,1,3.27,3.09c1.8,1.89,3.52,3.86,5.14,5.92-.23-1-.45-2-.67-3-.09-.42-.18-.84-.26-1.25-.25-1.17-.48-2.33-.7-3.5-.53-3-1-5.94-1.35-8.93-.19-1.63-.35-3.25-.44-4.88-.09-1.38-.14-2.75-.15-4.13,0-.29,0-.58,0-.86a34.24,34.24,0,0,1,.19-3.66A20.19,20.19,0,0,1,597.76,521.19Z" transform="translate(-319.1 -165.43)"/><path class="cls-2" d="M433.17,561.39l2.08.31c4.3-29.28,1.25-40.33-.76-47.65-1.62-5.84-2.59-9.37,1.14-18.43,8.67-21,8-32.3,8-32.77l-2.09.14c0,.11.59,11.33-7.86,31.83-4,9.73-2.9,13.73-1.23,19.79C434.43,521.76,437.41,532.56,433.17,561.39Z" transform="translate(-319.1 -165.43)"/><path class="cls-7" d="M437.06,455.48c0,3.87,6.06,8.71,6.06,8.71s5.95-4.94,5.91-8.81-2.74-7-6-7S437,451.61,437.06,455.48Z" transform="translate(-319.1 -165.43)"/><path class="cls-2" d="M439.81,453.4a.26.26,0,0,1,.37,0l2.61,2.33,0-3.87a.26.26,0,0,1,.26-.26.25.25,0,0,1,.27.26l.06,6.91,3.62-2a.26.26,0,1,1,.26.46l-3.88,2.15.05,4.83a.27.27,0,0,1-.53,0l-.07-7.77-3-2.65A.27.27,0,0,1,439.81,453.4Z" transform="translate(-319.1 -165.43)"/><path class="cls-7" d="M428.35,477.07c2,3.29,9.7,4.29,9.7,4.29s2.51-7.31.47-10.6-6-4.54-8.78-2.8S426.31,473.78,428.35,477.07Z" transform="translate(-319.1 -165.43)"/><path class="cls-2" d="M429.61,473.86a.26.26,0,0,1,.31-.21l3.44.64-2-3.29a.26.26,0,0,1,.44-.28l3.65,5.88,2-3.6a.26.26,0,1,1,.46.26l-2.2,3.85,2.94,4.66a.26.26,0,0,1-.08.36.26.26,0,0,1-.37-.09l-4.48-7.15-3.91-.73A.26.26,0,0,1,429.61,473.86Z" transform="translate(-319.1 -165.43)"/><path class="cls-7" d="M451.68,482.08c-3.61,1.41-10.34-2.38-10.34-2.38s2.37-7.35,6-8.76,7.51-.06,8.71,3S455.28,480.67,451.68,482.08Z" transform="translate(-319.1 -165.43)"/><path class="cls-2" d="M452.59,478.75a.27.27,0,0,0-.12-.35l-3.14-1.54,3.6-1.41a.26.26,0,0,0,.15-.34.25.25,0,0,0-.34-.15l-6.44,2.52.52-4.11a.26.26,0,0,0-.23-.3.27.27,0,0,0-.29.23l-.55,4.4-5.15,2a.27.27,0,0,0-.15.34.26.26,0,0,0,.34.14l7.88-3,3.56,1.75A.27.27,0,0,0,452.59,478.75Z" transform="translate(-319.1 -165.43)"/><path class="cls-7" d="M423.81,528.52c3.19,2.2,10.61,0,10.61,0s-.63-7.7-3.82-9.9-7.29-1.77-9.16,1S420.63,526.32,423.81,528.52Z" transform="translate(-319.1 -165.43)"/><path class="cls-2" d="M423.69,525.07a.25.25,0,0,1,.19-.31l3.41-.79-3.19-2.2a.25.25,0,0,1-.06-.36.26.26,0,0,1,.36-.07l5.7,3.92.43-4.12a.27.27,0,0,1,.29-.23.25.25,0,0,1,.23.29l-.46,4.4,4.56,3.09a.28.28,0,0,1,.06.37.26.26,0,0,1-.36.07l-7-4.76-3.88.9A.26.26,0,0,1,423.69,525.07Z" transform="translate(-319.1 -165.43)"/><path class="cls-7" d="M447.73,534.6c-3.47,1.7-10.49-1.54-10.49-1.54s1.77-7.52,5.25-9.22,7.47-.66,8.92,2.32S451.21,532.91,447.73,534.6Z" transform="translate(-319.1 -165.43)"/><path class="cls-2" d="M448.37,531.21a.26.26,0,0,0-.14-.34L445,529.58l3.48-1.69a.27.27,0,0,0,.12-.35.26.26,0,0,0-.35-.12l-6.22,3,.18-4.14a.26.26,0,0,0-.25-.27.26.26,0,0,0-.27.25l-.2,4.43-5,2.37a.27.27,0,0,0-.12.35.26.26,0,0,0,.35.12l7.61-3.66,3.69,1.47A.26.26,0,0,0,448.37,531.21Z" transform="translate(-319.1 -165.43)"/><path class="cls-7" d="M420.09,506.83c3,2.43,10.58.85,10.58.85s0-7.73-3.05-10.16-7.13-2.32-9.21.25S417.08,504.39,420.09,506.83Z" transform="translate(-319.1 -165.43)"/><path class="cls-2" d="M420.23,503.38a.27.27,0,0,1,.22-.3l3.46-.53-3-2.43a.26.26,0,1,1,.33-.41l5.38,4.35.75-4.07a.27.27,0,0,1,.3-.22.26.26,0,0,1,.21.31l-.8,4.36,4.31,3.43a.26.26,0,1,1-.33.41L424.46,503l-3.93.6A.27.27,0,0,1,420.23,503.38Z" transform="translate(-319.1 -165.43)"/><path class="cls-7" d="M444.08,505c-3.31,2-10.59-.61-10.59-.61s1.1-7.65,4.41-9.64,7.39-1.33,9.09,1.51S447.4,503,444.08,505Z" transform="translate(-319.1 -165.43)"/><path class="cls-2" d="M444.42,501.6a.26.26,0,0,0-.18-.32l-3.35-1,3.31-2a.25.25,0,0,0,.09-.36.27.27,0,0,0-.36-.09L438,501.4l-.18-4.14a.27.27,0,0,0-.53,0l.2,4.42-4.74,2.81a.25.25,0,0,0-.09.36.27.27,0,0,0,.36.09l7.25-4.32,3.81,1.13A.27.27,0,0,0,444.42,501.6Z" transform="translate(-319.1 -165.43)"/><path class="cls-8" d="M411.87,515.82c2.66,9.89,3.08,13.18,2.45,26s-2.42,9.15,4.25,11.38,11.82,14.64,11.82,14.64a29.55,29.55,0,0,0,4.2,1.11c.32.06.65.12,1,.15,1.59.19,3,.06,3.39-.9A24.35,24.35,0,0,1,447.2,557c5-3.56,0-9.49,4.71-17.4s7.68-13.21,0-13.61a4.06,4.06,0,0,0-.6,0,7.14,7.14,0,0,0-3.61,1.61,13.31,13.31,0,0,0-1.51,1.34c-.26.24-.52.49-.77.77l-.38.42a40.8,40.8,0,0,0-3.3,4.43,79.7,79.7,0,0,0-4.51,7.9c-1.23,2.44-2,4.16-2,4.16s-.16-.32-.36-.86h0a11.73,11.73,0,0,1,.39-8.85,9.38,9.38,0,0,1,.69-1.27,25.45,25.45,0,0,0,1.39-2.39s0,0,0-.06a.07.07,0,0,0,0-.06,6.18,6.18,0,0,0,.37-.72,4.16,4.16,0,0,0,.51-2.82,2.91,2.91,0,0,0-1.23-1.53A11.78,11.78,0,0,0,434.9,527c-.23-.1-.48-.19-.72-.28l-.25-.1c-1.19-.44-2.17-1.62-3.1-3.28-.14-.28-.3-.55-.43-.85-.73-1.41-1.43-3.1-2.19-4.93a76,76,0,0,0-4.54-9.45,34.31,34.31,0,0,0-3.17-4.48h0a3.08,3.08,0,0,1-.24-.27,23,23,0,0,0-3-2.86,21.72,21.72,0,0,0-2.85-2C401.39,490.82,409.21,505.94,411.87,515.82Z" transform="translate(-319.1 -165.43)"/><path class="cls-7" d="M413,508.11c3.34,3.94,5.61,8.6,7.67,13.29.13.27.24.54.36.81.84,2,1.61,4,2.35,6,1.13,3.1,2.16,6.22,3.16,9.36,1.63,5.17,3.07,10.43,4.39,15.7s2.6,10.43,3.66,15.69c.32.06.65.12,1,.15.58-2.61,1.23-5.23,1.9-7.84s1.42-5.22,2.25-7.78,1.73-5.12,2.79-7.61a27.11,27.11,0,0,1,4-7,26,26,0,0,0-4.33,6.88,72.56,72.56,0,0,0-3,7.55c-1.54,4.48-2.88,9-4,13.64-.36-1.8-.75-3.6-1.15-5.4-.15-.76-.33-1.52-.5-2.26q-.72-3.15-1.49-6.28c-1.37-5.27-2.87-10.52-4.55-15.71-.9-2.82-1.87-5.62-2.95-8.37-.9-2.34-1.86-4.63-2.88-6.91-.21-.48-.43-.94-.66-1.41a65.34,65.34,0,0,0-3.09-5.86A35.66,35.66,0,0,0,413,508.11Z" transform="translate(-319.1 -165.43)"/><path class="cls-9" d="M432.29,566.36c-2.37-2.35-1.21-3.6-.38-5.22s1.27-2.63-.22-4.58,3.92-3.78,4.57-1.66-1.88,4.71.46,6.08,4.09,1.64.95,3.19A36.15,36.15,0,0,1,432.29,566.36Z" transform="translate(-319.1 -165.43)"/><path class="cls-10" d="M432.82,571.59s-1.21-4.59-3.19-4.85-2.62,1.66-5.17,0-6.5-3.76-7.08-2.29,2.49,1,3.38,3.32.77,4.78,3.83,5S429.89,573.19,432.82,571.59Z" transform="translate(-319.1 -165.43)"/><path class="cls-11" d="M432.55,571.59s6.86-2.6,5.8-5-3.39-2.26-3.37-5.8-.62-10.73-1.61-11.12-2.94,4.48-2.91,6.85-1.87,2.92-3.33,5.78-.42,5.23,2,7.09A14.55,14.55,0,0,0,432.55,571.59Z" transform="translate(-319.1 -165.43)"/><path class="cls-5" d="M432.55,571.59A32.51,32.51,0,0,1,431.4,562a32.91,32.91,0,0,1,.47-4.85,25.58,25.58,0,0,1,1.22-4.7,61.84,61.84,0,0,0-1,9.57c-.05,1.6,0,3.2.05,4.8S432.41,570,432.55,571.59Z" transform="translate(-319.1 -165.43)"/><path class="cls-5" d="M432.82,571.59a26.68,26.68,0,0,1-4.06-.68,22.92,22.92,0,0,1-3.92-1.33,10.92,10.92,0,0,1-1.79-1.08,7.61,7.61,0,0,1-1.46-1.49,9.21,9.21,0,0,0-1.45-1.41,3.38,3.38,0,0,0-1.8-.84,3.38,3.38,0,0,1,2,.63,10.23,10.23,0,0,1,1.59,1.35,9.4,9.4,0,0,0,1.44,1.39,11.48,11.48,0,0,0,1.74,1,26.63,26.63,0,0,0,3.8,1.41C430.17,570.93,431.49,571.27,432.82,571.59Z" transform="translate(-319.1 -165.43)"/><path class="cls-3" d="M432.41,571.66s5,2.44,6.71.88.54-3.57,3.95-4.56,8.3-2.86,7.44-4.49-2.82,1.4-5.52.44-4.8-3-7.31-.42S433.24,567.85,432.41,571.66Z" transform="translate(-319.1 -165.43)"/><path class="cls-5" d="M432.41,571.66a31.23,31.23,0,0,1,3.7-3.07,27.08,27.08,0,0,1,4.17-2.44,12.35,12.35,0,0,1,2.32-.76,9.19,9.19,0,0,1,2.44-.15,10.83,10.83,0,0,0,2.34-.2,4,4,0,0,0,2.12-.95,3.85,3.85,0,0,1-2.05,1.24,11.42,11.42,0,0,1-2.4.37,11,11,0,0,0-2.33.22,12.77,12.77,0,0,0-2.2.77,31.17,31.17,0,0,0-4.16,2.28C435,569.82,433.71,570.73,432.41,571.66Z" transform="translate(-319.1 -165.43)"/><path class="cls-12" d="M505.17,231l0,.26a11.92,11.92,0,0,1-10.38,13.08,366.38,366.38,0,0,1-97.46-.15A12.07,12.07,0,0,1,387,233.79a26.46,26.46,0,0,1-.12-5.57,25.62,25.62,0,0,1,34.48-21.71,33.29,33.29,0,0,1,61.26,7.71,18.66,18.66,0,0,1,3.09-.21A20.05,20.05,0,0,1,505.17,231Z" transform="translate(-319.1 -165.43)"/><path class="cls-13" d="M549.3,254.09a1.36,1.36,0,0,0,0,.2,8.8,8.8,0,0,1-7.66,9.65,270.59,270.59,0,0,1-71.92-.11,8.93,8.93,0,0,1-7.63-7.68A19.37,19.37,0,0,1,462,252a18.89,18.89,0,0,1,25.44-16,24.57,24.57,0,0,1,45.21,5.69,14.32,14.32,0,0,1,2.28-.16A14.82,14.82,0,0,1,549.3,254.09Z" transform="translate(-319.1 -165.43)"/><path class="cls-13" d="M817.69,244.94s0,.07,0,.11a5,5,0,0,1-4.31,5.43,152.17,152.17,0,0,1-40.45-.07,5,5,0,0,1-4.29-4.31,10.54,10.54,0,0,1,0-2.32,10.64,10.64,0,0,1,14.31-9,13.82,13.82,0,0,1,25.43,3.2,7.86,7.86,0,0,1,1.28-.08A8.31,8.31,0,0,1,817.69,244.94Z" transform="translate(-319.1 -165.43)"/><path class="cls-12" d="M875.75,232.41a1,1,0,0,1,0,.17,7.73,7.73,0,0,1-6.75,8.5,238.24,238.24,0,0,1-63.35-.09,7.85,7.85,0,0,1-6.71-6.76,16.64,16.64,0,0,1,22.33-17.74,21.65,21.65,0,0,1,39.83,5,12.08,12.08,0,0,1,2-.13A13,13,0,0,1,875.75,232.41Z" transform="translate(-319.1 -165.43)"/><rect class="cls-14" x="280.62" y="93.77" width="184.41" height="309.23" rx="20.89"/><rect class="cls-8" x="306.29" y="122.65" width="57.29" height="45.54" rx="6.65"/><rect class="cls-8" x="306.29" y="177.12" width="93.93" height="16.27" rx="5.09"/><rect class="cls-8" x="306.29" y="196.85" width="93.93" height="16.27" rx="5.09"/><rect class="cls-8" x="306.29" y="318.95" width="132.43" height="58.38" rx="11.44"/><g class="cls-15"><path class="cls-16" d="M736.21,436.28c0-1,0-2,0-3,0-.09,0-.18,0-.27,0-1.14-.13-2.27-.26-3.39,0-.07,0-.14,0-.21,0-.45-.14-.88-.21-1.32-.12-.7-.21-1.4-.35-2.09,0-.12-.07-.23-.09-.34-.19-.83-.42-1.64-.66-2.44-.12-.43-.21-.88-.34-1.3,0-.06,0-.11-.07-.17a41.47,41.47,0,0,0-1.87-4.63c-.07-.14-.11-.3-.18-.44-.15-.32-.34-.6-.5-.91-.41-.8-.84-1.58-1.31-2.35-.28-.47-.57-.93-.87-1.39-.49-.75-1-1.48-1.55-2.19-.32-.42-.63-.84-1-1.25-.62-.76-1.28-1.48-2-2.2-.3-.31-.57-.63-.87-.93a41.69,41.69,0,0,0-3.12-2.83l0,0-.15-.1a40.83,40.83,0,0,0-4-2.8c-.19-.12-.35-.27-.54-.38s-.51-.26-.76-.4c-.66-.38-1.33-.74-2-1.08-.31-.16-.6-.35-.92-.49s-.5-.2-.74-.31c-.52-.23-1-.45-1.58-.66-.35-.13-.68-.3-1-.43s-.65-.2-1-.3-.9-.3-1.36-.43l-.84-.27c-.5-.13-1-.23-1.51-.34l-1.14-.26-.44-.1c-1-.19-2-.34-3.1-.44h-.16c-1-.1-2-.17-3-.19H495.28c-.81,0-1.62,0-2.43.07l-.22,0c-1.09.07-2.16.18-3.21.34h0l-.18,0c-1.09.17-2.15.4-3.2.66l-.41.08-.43.14a36.17,36.17,0,0,0-4,1.32l-.1,0-.35.17c-1,.39-1.89.83-2.81,1.3l-.84.44c-1,.57-2,1.16-3,1.81h0l-9.28,6.27c1-.65,2-1.25,3-1.81.28-.16.56-.3.83-.44.92-.47,1.85-.91,2.81-1.31l.46-.2a38.35,38.35,0,0,1,4-1.31l.84-.23c1-.26,2.1-.48,3.18-.65l.23,0c1.05-.16,2.12-.27,3.2-.34.88-.06,1.77-.1,2.66-.1H686.56a38.57,38.57,0,0,1,3.9.2h.13c1.21.12,2.39.32,3.56.55.38.07.75.17,1.13.25.79.18,1.58.38,2.36.61L699,402c.68.23,1.35.48,2,.74s1.06.42,1.58.65,1.11.53,1.66.8,1.36.7,2,1.08c.44.25.87.52,1.3.79a42.52,42.52,0,0,1,4,2.79c.05.05.12.09.18.14a41.42,41.42,0,0,1,3.11,2.82c.31.3.58.63.88.94.67.71,1.32,1.44,1.94,2.2.34.4.65.83,1,1.25.54.71,1.06,1.44,1.56,2.18.3.46.59.92.87,1.39.46.77.9,1.56,1.31,2.36.23.44.47.89.68,1.34a39.58,39.58,0,0,1,1.86,4.63c.16.48.28,1,.42,1.47.23.8.47,1.61.65,2.44s.31,1.61.44,2.42c.07.45.17.89.22,1.34.16,1.27.27,2.56.31,3.86s0,2.42-.08,3.61c0,.39-.06.78-.1,1.17-.07.84-.17,1.68-.3,2.5-.06.4-.12.8-.2,1.2-.16.85-.35,1.68-.56,2.51-.09.34-.16.69-.26,1-.27,1-.59,1.89-.94,2.81-.08.22-.14.45-.22.67-.17.43-.39.84-.57,1.26-.33.76-.65,1.52-1,2.26-.1.18-.21.35-.31.54-.6,1.12-1.25,2.21-1.95,3.26-.22.32-.45.63-.68,1a38.18,38.18,0,0,1-3.5,4.3,37.5,37.5,0,0,1-6.17,5.21l9.28-6.27a37.5,37.5,0,0,0,6.17-5.21,38.08,38.08,0,0,0,3.5-4.31c.13-.17.28-.31.4-.49s.18-.31.28-.46a37.75,37.75,0,0,0,1.95-3.25c.08-.15.19-.29.27-.45l0-.1c.37-.72.69-1.48,1-2.23.18-.41.39-.8.56-1.22a.14.14,0,0,1,0-.06c.08-.22.14-.45.22-.66.31-.84.62-1.68.87-2.54a2.86,2.86,0,0,0,.07-.28c.1-.34.17-.68.26-1,.15-.61.32-1.21.45-1.83,0-.22.07-.46.12-.69.07-.4.13-.79.19-1.19s.15-.8.2-1.2.07-.87.11-1.3.07-.78.09-1.18C736.17,436.71,736.2,436.5,736.21,436.28Z" transform="translate(-319.1 -165.43)"/><path class="cls-17" d="M686.56,399.91c21.67,0,39.75,17.78,40.39,39.68a38.68,38.68,0,0,1-10.69,28.06,37.58,37.58,0,0,1-27.38,11.65H524.64l-59.45,29a2.6,2.6,0,0,1-1.18.29,2.84,2.84,0,0,1-2.28-4.41l12.62-27.49a41.1,41.1,0,0,1-26.42-37.1,38.85,38.85,0,0,1,10.69-28.06A37.61,37.61,0,0,1,486,399.91Z" transform="translate(-319.1 -165.43)"/><path class="cls-8" d="M650.51,417.18l-4,12.2a1.47,1.47,0,0,1-1.41,1H632.3a1.49,1.49,0,0,0-.88,2.7l10.38,7.54a1.5,1.5,0,0,1,.54,1.67l-4,12.2a1.49,1.49,0,0,0,2.29,1.66l10.38-7.54a1.49,1.49,0,0,1,1.75,0l10.38,7.54a1.49,1.49,0,0,0,2.3-1.66l-4-12.2a1.5,1.5,0,0,1,.54-1.67l10.38-7.54a1.49,1.49,0,0,0-.87-2.7H658.73a1.48,1.48,0,0,1-1.42-1l-4-12.2A1.49,1.49,0,0,0,650.51,417.18Z" transform="translate(-319.1 -165.43)"/><path class="cls-8" d="M598.61,417.18l-4,12.2a1.49,1.49,0,0,1-1.42,1H580.4a1.49,1.49,0,0,0-.88,2.7l10.38,7.54a1.5,1.5,0,0,1,.54,1.67l-4,12.2a1.49,1.49,0,0,0,2.29,1.66l10.38-7.54a1.49,1.49,0,0,1,1.75,0l10.38,7.54a1.49,1.49,0,0,0,2.3-1.66l-4-12.2a1.5,1.5,0,0,1,.54-1.67l10.38-7.54a1.49,1.49,0,0,0-.87-2.7H606.83a1.48,1.48,0,0,1-1.42-1l-4-12.2A1.49,1.49,0,0,0,598.61,417.18Z" transform="translate(-319.1 -165.43)"/><path class="cls-8" d="M546.71,417.18l-4,12.2a1.48,1.48,0,0,1-1.42,1H528.5a1.5,1.5,0,0,0-.88,2.7L538,440.65a1.5,1.5,0,0,1,.55,1.67l-4,12.2a1.49,1.49,0,0,0,2.29,1.66l10.38-7.54a1.49,1.49,0,0,1,1.75,0l10.39,7.54a1.49,1.49,0,0,0,2.29-1.66l-4-12.2a1.5,1.5,0,0,1,.54-1.67l10.38-7.54a1.49,1.49,0,0,0-.87-2.7H554.93a1.48,1.48,0,0,1-1.42-1l-4-12.2A1.49,1.49,0,0,0,546.71,417.18Z" transform="translate(-319.1 -165.43)"/><path class="cls-8" d="M494.81,417.18l-4,12.2a1.48,1.48,0,0,1-1.42,1H476.6a1.5,1.5,0,0,0-.88,2.7l10.38,7.54a1.49,1.49,0,0,1,.55,1.67l-4,12.2a1.49,1.49,0,0,0,2.29,1.66l10.38-7.54a1.5,1.5,0,0,1,1.76,0l10.38,7.54a1.49,1.49,0,0,0,2.29-1.66l-4-12.2a1.5,1.5,0,0,1,.54-1.67l10.39-7.54a1.5,1.5,0,0,0-.88-2.7H503a1.48,1.48,0,0,1-1.42-1l-4-12.2A1.49,1.49,0,0,0,494.81,417.18Z" transform="translate(-319.1 -165.43)"/></g><path class="cls-18" d="M732.24,416.89,744,399.72a2.86,2.86,0,0,0-3.31-4.32l-19.87,7.1-3.35,1.2a2.86,2.86,0,0,1-3.23-.94l-5.3-6.84-9.73-12.66a2.87,2.87,0,0,0-5.14,1.81l.26,8.56.45,16.08a2.83,2.83,0,0,1-1.88,2.78l-23.22,8.27a2.87,2.87,0,0,0,.19,5.45l23.63,6.91a2.85,2.85,0,0,1,2,2.67l.75,24.64a2.84,2.84,0,0,0,5.19,1.51l13.9-20.33a2.93,2.93,0,0,1,3.19-1.13l8.3,2.45,1,.3a14.51,14.51,0,0,0,2,4.28,11.55,11.55,0,0,0,3,2.7s0-.07,0-.11c.19-.41.37-.83.56-1.24v0a5.9,5.9,0,0,0,.23-.67c.34-.83.64-1.69.9-2.56,0-.07,0-.19,0-.26.11-.34.18-.68.26-1,.15-.61.34-1.21.45-1.85a3.12,3.12,0,0,0,.11-.67l.23-1.2c0-.42.11-.79.19-1.21s.07-.86.11-1.27.07-.79.07-1.21c0-.22,0-.41.08-.63,0-1,0-2,0-3V433c0-1.12-.11-2.25-.26-3.38,0-.07,0-.15,0-.22,0-.45-.15-.87-.23-1.32-.11-.67-.18-1.39-.33-2.06a1.29,1.29,0,0,1-.08-.38c-.19-.83-.45-1.61-.68-2.44-.11-.41-.18-.87-.33-1.28l-4.59.23a3.05,3.05,0,0,1,.42-2.14Z" transform="translate(-319.1 -165.43)"/><path class="cls-19" d="M758.91,411.38l-5.74,1.23-30.25,1.59-.88,7.29,32.38,3.06a47.45,47.45,0,0,0,5.9-.4C758.46,420.21,758.59,414.72,758.91,411.38Z" transform="translate(-319.1 -165.43)"/><path class="cls-20" d="M696.75,376.59l.71,24.62a2.86,2.86,0,0,1-1.89,2.78l-23.2,8.29a2.86,2.86,0,0,0,.16,5.44l23.64,6.92a2.86,2.86,0,0,1,2.05,2.67l.72,24.62a2.86,2.86,0,0,0,5.22,1.53l13.89-20.34a2.85,2.85,0,0,1,3.17-1.13l23.64,6.93a2.87,2.87,0,0,0,3.07-4.5l-15.06-19.5a2.87,2.87,0,0,1-.09-3.36l13.89-20.34a2.86,2.86,0,0,0-3.32-4.31l-23.2,8.29a2.86,2.86,0,0,1-3.23-.94l-15-19.5A2.86,2.86,0,0,0,696.75,376.59Z" transform="translate(-319.1 -165.43)"/><path class="cls-19" d="M815,562.33s.4,3.89-.63,5.18,10.1,1,10.1,1-3.38-5.66-2.11-8.25S815,562.33,815,562.33Z" transform="translate(-319.1 -165.43)"/><path class="cls-7" d="M803.24,576.59l21.58-2.49c1.3-2.44.9-4.79-.82-7.07a19.52,19.52,0,0,1-9.91-.35c-2.55,2.65-6.55,5-11.18,7.11C801.44,574.61,801.84,575.57,803.24,576.59Z" transform="translate(-319.1 -165.43)"/><rect class="cls-3" x="803.22" y="575.34" width="21.76" height="0.93" transform="translate(-379.73 -68.33) rotate(-6.58)"/><path class="cls-7" d="M845.24,451.3c-.37.86-.71,1.7-1.08,2.56-2.75,6.47-5.5,12.79-8.27,18.76-5.32,11.57-10.72,22-16.22,30.22l3.75,60.27-1.15.11-7.18.68-1.31.13-12.15-62.29,12.88-52.88.71-2.91,1.1-4.5,5,1.7,17.68,6Z" transform="translate(-319.1 -165.43)"/><path class="cls-19" d="M875.13,556.94s1.53,3.59.93,5.14S886,560,886,560s-4.91-4.4-4.46-7.25S875.13,556.94,875.13,556.94Z" transform="translate(-319.1 -165.43)"/><path class="cls-7" d="M868.11,574.06l19.87-8.8c.52-2.71-.56-4.83-2.88-6.5a19.5,19.5,0,0,1-9.57,2.61c-1.65,3.29-4.78,6.68-8.56,10.11C865.81,572.7,866.48,573.5,868.11,574.06Z" transform="translate(-319.1 -165.43)"/><rect class="cls-3" x="867.37" y="569.61" width="21.76" height="0.93" transform="translate(-474.66 238.68) rotate(-23.87)"/><path class="cls-7" d="M874,558.68l10.4-3.13L858.09,499c1-19.19,1.26-37.21-1.91-49.64l-24.45,1.46,9.77,55.62Z" transform="translate(-319.1 -165.43)"/><path class="cls-3" d="M857,449.91c1.28,2.44-40.75,22.07-45.77,14.69-2.69-4-8.43-16.33-25-32,0,0,0,0,0,0-2.35-2.77-4.76-5.74-7.29-9l-1.7-2.24q-4.08-5.43-8.45-12.08c3.18-2.09,6.19-4.16,9.13-6a74.81,74.81,0,0,1,10.3-5.73,29.42,29.42,0,0,1,13.5-2.83C828.58,405.91,831.51,427.05,857,449.91Z" transform="translate(-319.1 -165.43)"/><path class="cls-19" d="M804.2,415.21c-1.79,2.3-3.12,4.06-4.26,5.54a1.72,1.72,0,0,1-.24.31,40.67,40.67,0,0,1-9.34,9.34c-.45.36-.91.73-1.41,1.1a29.35,29.35,0,0,1-2.74,1.15,15.47,15.47,0,0,1-1.66.64s0,0-.06,0c-8.46,2.94-20.16,4.74-32.76,6.17-.5.09-1,.12-1.55.18l-2,.25-1.76.18-2.65.29-1-7.37,3.16-.83,5.27-1.35,27.77-7.25,6.55-1.7L793.16,410A22.59,22.59,0,0,0,804.2,415.21Z" transform="translate(-319.1 -165.43)"/><path class="cls-21" d="M772.32,397.57l10.79-6.77c1.35,4.25,2.28,5.27,6.43,7.48,1.38,4.93-11.9,11.83-11.44,5.36C776.27,399.93,775.72,399.87,772.32,397.57Z" transform="translate(-319.1 -165.43)"/><path class="cls-21" d="M772.29,403.12c1.8.47,7.46-5,12.59-11.54l-10.11-18.23L758.9,382C759.47,392.81,769,403.14,772.29,403.12Z" transform="translate(-319.1 -165.43)"/><path class="cls-19" d="M742.68,433c-1.49-1.83-3.63-2.73-5.47-3.73-1.5.3-1.48.68-1.64,1.88,1,.87,1.54,1.26,1.44,2.64-2.13,1-6.33-.79-6.47-.37-.37,1.36.74,3.54,2.05,5.6a11,11,0,0,0,5.35,3.74,12.76,12.76,0,0,0,5.82-2.38Z" transform="translate(-319.1 -165.43)"/><path class="cls-7" d="M755.33,385.34c-1.24,2.73,3,4.87,6,6.21a15.44,15.44,0,0,0,7.1-7.33c2,2,4.9,4.86,4.57,6.58a4.3,4.3,0,0,0,3.15-1c-.88-1.48-1.21-3-.45-4.22.51-.78.66-.85,1.84-.87,1.48,0,1.85,1.56,1.36,2.93-1.29,3.12,3.08,3.89,5,5.25,1.69-1.65,2.6-4.14,2.15-5.75-.76-5-1.76-9.14-7.55-11.95-3.78-3.57-11.1-4.66-14.85-.18C760.86,382.94,757.62,380.6,755.33,385.34Z" transform="translate(-319.1 -165.43)"/><path class="cls-3" d="M768.76,409.28l-9.85,2.1c-.32,3.34-.45,8.83,1.41,12.77,5.49-.63,12.56-2,19.54-3.33Z" transform="translate(-319.1 -165.43)"/><g class="cls-22"><polygon points="178.41 264.56 181.22 285.11 182.19 284.8 179.37 264.25 178.41 264.56"/><path d="M578.46,411.78c-.19-2.74-4.32-5.64-10.07-8.19.08-.19.19-.38.27-.56l2.81-9.4H510.39c0,.27,0,.53,0,.75a.59.59,0,0,0,.23.38c-.34,14.43,5.93,20.1,14.61,25.77-5.18,1.92-10.44,4.06-15.51,6.32.07.26.15.48.22.75a14.81,14.81,0,0,1-4.09.41,4,4,0,0,0-.08-.64,7.59,7.59,0,0,0-7.32,2.33l2.81,20.55c1.36.79,2.45.75,2.9-.94,1.05-5.11,2.36-9.69,4.43-13.15-.26-.34-.45-.71-.68-1.05a15.9,15.9,0,0,1,4-2,5.4,5.4,0,0,0,1.58,2c7.14-1.92,15.52-3.91,23.82-6,1.43,13.68,5.49,36,8.6,50.12H556l-1.5-53.72c0-.3-.11-.6-.15-.9C568.06,420.72,578.58,416.44,578.46,411.78Zm-29.53,1.13c-.64-.87-1.31-1.69-2-2.52a51.11,51.11,0,0,0,6.73,1.43C552.16,412.12,550.59,412.49,548.93,412.91Z" transform="translate(-319.1 -165.43)"/></g><path class="cls-19" d="M500,260.29l1.55,2.34.05,1,7-.95-.31-1.17-.74-2.77c1.17-.77,1.93-3.75,2.29-5,.22-1,.71-5-.59-7-.38-.63-2.95-1.83-2.73.38a7.2,7.2,0,0,1-.67,3c-1.56-2.86-1.07-6-5-7.63-6.76,2-6.74,7.17-5.15,11.9C496.56,256.49,498.09,259.36,500,260.29Z" transform="translate(-319.1 -165.43)"/><path class="cls-19" d="M560.85,470.3s-.73,3.64.12,5-9.65,0-9.65,0,3.73-5.05,2.76-7.62S560.85,470.3,560.85,470.3Z" transform="translate(-319.1 -165.43)"/><path class="cls-7" d="M572.85,486.27l-23-5c-1.15-2.77-.47-5.26,1.62-7.54a21.21,21.21,0,0,0,10.73.67c2.47,3.13,6.53,6,11.3,8.85C575,484.33,574.46,485.32,572.85,486.27Z" transform="translate(-319.1 -165.43)"/><rect class="cls-3" x="549.43" y="483.77" width="23.58" height="1.01" transform="translate(688.52 910.63) rotate(-167.82)"/><path class="cls-19" d="M517,420s-3.54,1.17-4.47,2.48-3-7.63-3-7.63,5.76.52,7.78-1.47S517,420,517,420Z" transform="translate(-319.1 -165.43)"/><path class="cls-7" d="M506.29,437.09l-2.81-20.52a7.53,7.53,0,0,1,7.35-2.34c.21,3.46,1,6.5,2.8,8.78-2.05,3.45-3.39,8.05-4.43,13.15C508.73,437.85,507.67,437.9,506.29,437.09Z" transform="translate(-319.1 -165.43)"/><polygon class="cls-3" points="183.41 251.41 186.23 271.96 187.19 271.65 184.38 251.1 183.41 251.41"/><path class="cls-23" d="M536.78,381.72c5.17,7,21.47,17.27,22.75,30.7l1.68,58.49c-4,1-4,2.24-8.61,2.35-3.14-12.68-8.73-42-10.34-58.08-14.26-10.27-27.16-13.07-26.61-33.7Z" transform="translate(-319.1 -165.43)"/><path class="cls-3" d="M524.93,383.4c8.41,8.42,25.3,14.21,33.73,15.26-11.46,2.34-28.49,8.22-43.91,15,1.22,3.84,1.83,6.88,3.8,8.3,25.07-6.75,65.16-14.27,64.92-23.36-.41-5.46-16.42-11.61-29.66-14.21Z" transform="translate(-319.1 -165.43)"/><path class="cls-5" d="M554.71,383.71c-.76,3-38.69.79-39.29-2.46-.79-17.06,6.73-59.33,9-64.93a83.44,83.44,0,0,1,9.48-1.93l0,0a72.44,72.44,0,0,1,15.46-.74,66.29,66.29,0,0,1,8.86,1.15c-.28,6.2-.35,11.72-.32,16.83,0,1.38,0,2.74.08,4.05C558.15,342.71,556.22,373.3,554.71,383.71Z" transform="translate(-319.1 -165.43)"/><path class="cls-21" d="M536.3,303.66c.61,3.44.24,6.56-2.34,10.7-2.72.95,2.53,7.26,8.16,6.93a8.64,8.64,0,0,0,7.31-7.66c-2.75-1.24-2.18-4.77-2.11-8Z" transform="translate(-319.1 -165.43)"/><path class="cls-19" d="M533.18,305.42c3.94,3.05,13.41,6.31,16.25,5.11,5.08-1.5,6.69-23.06,1.17-28.27l-15.18,3.48L528.63,296C529.67,299.9,530.16,303.25,533.18,305.42Z" transform="translate(-319.1 -165.43)"/><path class="cls-7" d="M538.83,291.25c7.25,1.4,9.22-2.06,13.25-1,1.4.72,1,2.93,2,4.21,2.21-5,2.51-11-2.66-14.68-3.33-1.87-9.35-4.63-15.31-1.87-4.56,1.62-9.63,9.65-9.71,14.22-.39,12.65-9.33,7.92-17.17,6.44-11.21-1.78-19,3.3-22.05,7.47-8,9.87,4,5,11.62,11.95,15,10.12,14.07-8.12,25.93-4.58,10.14,3,15.26-8.7,12.31-11.2-1.19-.19-1.7-1.52-1.68-2.63-.17-1.44-.69-2.39.69-3.05.49-.17,2.23.33,3.08,2.37C540.23,297,539.6,294,538.83,291.25Z" transform="translate(-319.1 -165.43)"/><path class="cls-5" d="M525.28,331.54c-.09-.06-18.39-15.31-20.27-21.4-2.15-7.08-3-28.95-4.22-46.73a.28.28,0,0,0,0-.12l8.51-3.12L517,307.65l14.19,8.44-3.13,12.56-2.06,1Z" transform="translate(-319.1 -165.43)"/><path class="cls-19" d="M592.44,261.3l-1.56,2.35,0,1-7-.93.31-1.17.73-2.78c-1.17-.76-1.94-3.74-2.29-5-.22-1-.72-5,.57-7,.39-.63,3-1.84,2.73.37a7.13,7.13,0,0,0,.68,3c1.56-2.86,1.06-6,5-7.64,6.76,2,6.75,7.17,5.16,11.9C595.84,257.5,594.32,260.37,592.44,261.3Z" transform="translate(-319.1 -165.43)"/><path class="cls-5" d="M582.29,316.86c-4.84,7.26-30,23-30,23l-.48-22.62,22.56-9.12,8.51-45.75,1.25.2,5.69.94,1.06.17,1.16.18C588.57,286.59,586.85,309.8,582.29,316.86Z" transform="translate(-319.1 -165.43)"/><path class="cls-2" d="M534.05,397.8l-11.3-11.22a1.07,1.07,0,0,1,.68-1.83c7.59-.45,30.78-1.82,31-1.82s7.83,11.74,7.83,11.74Z" transform="translate(-319.1 -165.43)"/><path class="cls-7" d="M569.35,393.83l-34,4.19c-1.79.22-2.76-1.19-2.18-3.15l6-20a5.83,5.83,0,0,1,4.31-3.95l34-4.19c1.79-.22,2.76,1.19,2.17,3.15l-6,20A5.81,5.81,0,0,1,569.35,393.83Z" transform="translate(-319.1 -165.43)"/><polygon class="cls-8" points="234.34 25.2 237.04 30.13 241.96 32.82 237.04 35.52 234.34 40.44 231.65 35.52 226.72 32.82 231.65 30.13 234.34 25.2"/><polygon class="cls-8" points="200.57 44.26 204.27 51.03 211.05 54.74 204.27 58.44 200.57 65.22 196.86 58.44 190.09 54.74 196.86 51.03 200.57 44.26"/><polygon class="cls-8" points="195.59 0 200.42 8.83 209.25 13.66 200.42 18.49 195.59 27.32 190.76 18.49 181.93 13.66 190.76 8.83 195.59 0"/></g></svg>