<svg id="Слой_1" data-name="Слой 1" xmlns="http://www.w3.org/2000/svg" xmlns:xlink="http://www.w3.org/1999/xlink" viewBox="0 0 208.98 188.17"><defs><style>.cls-1{fill:url(#Degradado_sin_nombre_36);}.cls-2{fill:url(#Degradado_sin_nombre_11);}.cls-3{fill:#e1d8f6;}.cls-4{fill:#aaaae6;}.cls-5{fill:#b2cdec;}.cls-6{fill:#cde6ed;}.cls-7{fill:#e5e7f6;}.cls-8{fill:#c5c0f5;}.cls-9{fill:#3b3a66;}.cls-10{fill:#d3e7ef;}.cls-11{fill:#677cea;}.cls-12{fill:#889eeb;}.cls-13{fill:#95b1eb;}.cls-14{fill:#f0edf6;}.cls-15{fill:#e5edf6;}.cls-16{fill:#eeeff6;}.cls-17{fill:#9a9ad0;}.cls-18{fill:#8686b4;}.cls-19,.cls-23{opacity:0.1;}.cls-19{isolation:isolate;}.cls-20{fill:#ddb4a2;}.cls-21{fill:#bacdec;}.cls-22{fill:#cfa292;}.cls-24{fill:#96c9ec;}</style><linearGradient id="Degradado_sin_nombre_36" x1="579.69" y1="382.61" x2="775.54" y2="382.61" gradientUnits="userSpaceOnUse"><stop offset="0" stop-color="#2acaff"/><stop offset="1" stop-color="#2adfc3"/></linearGradient><linearGradient id="Degradado_sin_nombre_11" x1="599.9" y1="394.89" x2="787.72" y2="394.89" gradientUnits="userSpaceOnUse"><stop offset="0" stop-color="#76aadb"/><stop offset="1" stop-color="#4a72b2"/></linearGradient></defs><title>about-reputation-new</title><path class="cls-1" d="M594.57,421.47s-40.92-40,12.95-75.92,112.1-52.15,146-47.9,25.38,86-3.89,135.65S650,480.22,594.57,421.47Z" transform="translate(-579.02 -296.99)"/><path class="cls-2" d="M766.8,336.34s47.07,32.57,0,77-101.73,70.26-135.89,71.78-39.48-80.47-19-134.38S702.27,287.75,766.8,336.34Z" transform="translate(-579.02 -296.99)"/><g id="Perfect_Five_Stars" data-name="Perfect Five Stars"><path class="cls-3" d="M589.48,438.73c-9.76,0-8.94,4.34,1.42,4.17s7.07,7.07,20.56,6.74,21.87-4.77,37-4.77,25,9.87,53.28,9.87,134.19-11.51,60.85-22.69S589.48,438.73,589.48,438.73Z" transform="translate(-579.02 -296.99)"/><path class="cls-4" d="M618.55,398.19c4.94-5.13,3.87-8.62,4-13.46s9.49-7.65,10.26-6.19-7.93,4.55-4.43,11.62,7.94,5.81,6.39,13.26-7.55,13.66-6.49,16.75-15.31,15.3-15.89,10.75S618.55,398.19,618.55,398.19Z" transform="translate(-579.02 -296.99)"/><path class="cls-5" d="M613,422.59a15.82,15.82,0,0,1,5.23-8.28c4.07-3.05,7.85-10.31,4.07-15.83s-7.55-11.62-6.24-17-4.06-7.41-4.79-13.8-2.45-.58-1.16,3.34-8.57,17.29-8.57,24.11,1.75,20.34,5.81,23.39S613,422.59,613,422.59Z" transform="translate(-579.02 -296.99)"/><path class="cls-6" d="M613.47,419.69c-1.4-3.75-2.7-7.53-3.8-11.38a47.79,47.79,0,0,1-2-11.91,30.82,30.82,0,0,1,2.14-11.9,50.87,50.87,0,0,0,1.78-5.66,20.48,20.48,0,0,0,.56-2.91,9.12,9.12,0,0,0,0-1.48,2.26,2.26,0,0,0-.41-1.4,2.45,2.45,0,0,1,.59,1.38,9.5,9.5,0,0,1,.09,1.51,21.62,21.62,0,0,1-.31,3,51,51,0,0,1-1.49,5.84,33.76,33.76,0,0,0-1.83,11.59,56.28,56.28,0,0,0,1.75,11.69c.44,1.94,1,3.86,1.47,5.8S613,417.76,613.47,419.69Z" transform="translate(-579.02 -296.99)"/><path class="cls-6" d="M610.14,431.74s-2.75-6.65-9.07-7.11-11.7-.35-14.92-5.51-1.26-7-.57-11.25-1-7.23-6.09-5.17c-2.06.81,2.87-7.35,9.53-4.47s7.11,11.7,10.44,13.08,15.84,4.48,15.61,12.51S610.14,431.74,610.14,431.74Z" transform="translate(-579.02 -296.99)"/><path class="cls-5" d="M768.28,392.61s5.07-3.47,4.9-7.28-.61-12.53,5.54-9.12,3.34,8.82,3,15.84.87,9.12,2.54,13.93-11.24,4.2-14.58,12.23S758.29,395.38,768.28,392.61Z" transform="translate(-579.02 -296.99)"/><path class="cls-4" d="M758.44,422.79c10.42,0,15.5-3.21,12.42-8.56s-2.93-4-.13-10,4.28-6.42-.93-10.83-4.56-10-3.94-18-10.5-11.76-12.5-4.16-7.08,8.43-4.81,14.71,7.09,9.62,5.08,14.83-9.37,8.43-5.48,14.85A15.27,15.27,0,0,0,758.44,422.79Z" transform="translate(-579.02 -296.99)"/><polygon class="cls-7" points="188.63 116.05 188.22 115.36 181.54 119.31 181.54 100.68 186.68 96.33 186.16 95.71 181.54 99.63 181.54 83.83 180.74 83.83 180.74 90.64 174.62 86.4 174.16 87.06 180.74 91.62 180.74 114.37 174.15 109.79 173.69 110.45 180.74 115.34 180.74 142.33 181.54 142.33 181.54 120.24 188.63 116.05"/><path class="cls-8" d="M738.91,440.7a204.06,204.06,0,0,0,30.08,0s5.14-2.5,3.51-3.92-6.49,1-8.63.7,0-3.35,2.56-3.71,5.71-7.35,1.43-6.49-9.05,4.78-8.27,1.5,7.91-3.32,7.91-6.47-5.64-7.49-7.2-4.35-5.28,9.55-7.06,7.35-8.13-6.2-8.91-4.06,1.49,4.14,1.49,5.28-3.2-1.14-4.13-3-3.5-.78-3.21,1.5,4.91,6.56,4.71,8.34-2.85,4.42-5.42,1.78S731.78,439.2,738.91,440.7Z" transform="translate(-579.02 -296.99)"/><path class="cls-7" d="M683.74,416.81,682.65,429l-.88,9.72H589.48s-3.94-3.94,9.87-8.33,10.07-19.95,21.92-21.48,15.12,3.07,23,11.62S664.89,424.48,683.74,416.81Z" transform="translate(-579.02 -296.99)"/><path class="cls-8" d="M682.65,429l-1,9.72H603.28l-.72-.27c11.61-6.41,37.75-7.9,49.73-5.75s30-3.95,30-3.95Z" transform="translate(-579.02 -296.99)"/><path class="cls-4" d="M677.35,437.57l-.35.22c-3.12-4.8-3.48-7-3.71-8.43a4.4,4.4,0,0,0-1.7-3.15c-3.21-3-4-5-4.05-5.12l.38-.14s.81,2,4,5a4.81,4.81,0,0,1,1.82,3.38C673.93,430.71,674.28,432.85,677.35,437.57Z" transform="translate(-579.02 -296.99)"/><path class="cls-9" d="M668.11,419.27c.31.69-.35,2-.35,2s-1.44-.39-1.75-1.07A1.17,1.17,0,0,1,668,418.9,1.34,1.34,0,0,1,668.11,419.27Z" transform="translate(-579.02 -296.99)"/><path class="cls-4" d="M667.46,419.13a0,0,0,0,0-.06,0l-.27.62-.31-.68a0,0,0,0,0-.07,0h0a0,0,0,0,0,0,.06l.54,1.22-.8-.06a.07.07,0,0,0-.05,0h0a0,0,0,0,0,.05.05l.85.07.38.85a.05.05,0,0,0,.07,0h0a.05.05,0,0,0,0-.07h0l-.62-1.37.31-.7a.05.05,0,0,0,0-.07Z" transform="translate(-579.02 -296.99)"/><path class="cls-9" d="M671.39,422.36c-.09.74-1.36,1.54-1.36,1.54s-1-1.08-.94-1.83a1.17,1.17,0,0,1,2.34-.09A1.2,1.2,0,0,1,671.39,422.36Z" transform="translate(-579.02 -296.99)"/><path class="cls-4" d="M670.9,421.9a0,0,0,0,0-.07,0h0l-.55.39.1-.74a.06.06,0,0,0,0-.06.07.07,0,0,0-.06.05l-.16,1.32-.65-.46a0,0,0,0,0-.07,0h0a0,0,0,0,0,0,.07h0l.7.5-.14,1a0,0,0,0,0,0,.05,0,0,0,0,0,.06,0l.21-1.62.63-.44A0,0,0,0,0,670.9,421.9Z" transform="translate(-579.02 -296.99)"/><path class="cls-9" d="M667.69,425.13c.75-.05,1.63-1.26,1.63-1.26s-1-1.1-1.75-1.05a1.18,1.18,0,0,0-.25,2.34,1.22,1.22,0,0,0,.38,0Z" transform="translate(-579.02 -296.99)"/><path class="cls-4" d="M667.27,424.62a.06.06,0,0,1,0-.08l.42-.52-.75,0a.05.05,0,0,1-.05-.05.05.05,0,0,1,0-.05h0l1.33-.08-.42-.68a0,0,0,1,1,.07-.07l.45.73,1-.07a.06.06,0,0,1,.06,0h0a0,0,0,0,1-.05.05h0l-1.63.1-.49.6S667.29,424.62,667.27,424.62Z" transform="translate(-579.02 -296.99)"/><path class="cls-9" d="M676.34,431c-.38.64-1.86.86-1.86.86s-.51-1.4-.13-2a1.17,1.17,0,0,1,2.18.87A1.5,1.5,0,0,1,676.34,431Z" transform="translate(-579.02 -296.99)"/><path class="cls-4" d="M676.08,430.42s0,0-.06,0l-.66.14.38-.65a0,0,0,0,0,0-.07h0a.06.06,0,0,0-.07,0L675,431l-.41-.7a.05.05,0,0,0-.07,0,0,0,0,0,0,0,.06s0,0,0,0l.46.74-.55.91a.06.06,0,0,0,.08.08v0l.84-1.4.75-.16S676.09,430.44,676.08,430.42Z" transform="translate(-579.02 -296.99)"/><path class="cls-9" d="M672.63,434c.75,0,1.72-1.12,1.72-1.12s-.92-1.18-1.67-1.19a1.17,1.17,0,1,0-.43,2.3,1.2,1.2,0,0,0,.38,0Z" transform="translate(-579.02 -296.99)"/><path class="cls-4" d="M672.24,433.49s0,0,0-.06h0l.47-.49H672a.06.06,0,1,1,0-.11h0l1.34,0-.37-.7s0-.06,0-.07h0a.06.06,0,0,1,.07,0l.39.76h1.05s0,0,0,.06,0,0,0,0l-1.63,0-.53.56Z" transform="translate(-579.02 -296.99)"/><path class="cls-9" d="M675.24,426.92c-.33.67-1.79,1-1.79,1s-.61-1.36-.28-2a1.17,1.17,0,0,1,2.24.69A.91.91,0,0,1,675.24,426.92Z" transform="translate(-579.02 -296.99)"/><path class="cls-4" d="M674.92,426.33s0,0-.06,0h0l-.65.19.35-.67a.06.06,0,0,0,0-.07.05.05,0,0,0-.07,0l-.59,1.19-.46-.65a.06.06,0,0,0-.08,0s0,.05,0,.07h0l.5.7-.48.95a.07.07,0,0,0,0,.07h0a.05.05,0,0,0,.07,0l.73-1.45.74-.22s0,0,0-.07Z" transform="translate(-579.02 -296.99)"/><path class="cls-9" d="M670.88,428.55c.75.08,1.81-1,1.81-1s-.81-1.26-1.55-1.35a1.17,1.17,0,0,0-.64,2.26A1.24,1.24,0,0,0,670.88,428.55Z" transform="translate(-579.02 -296.99)"/><path class="cls-4" d="M670.55,428a0,0,0,0,1,0-.07l.5-.45-.74-.08a0,0,0,0,1,0-.06,0,0,0,0,1,.05,0h0l1.33.15-.3-.74a.05.05,0,0,1,0-.07,0,0,0,0,1,.06,0l.33.79,1.05.11s0,0,.06,0,0,.05,0,.06h0l-1.63-.17-.58.5S670.56,428,670.55,428Z" transform="translate(-579.02 -296.99)"/><path class="cls-10" d="M677.41,427.84a12.68,12.68,0,0,0,1.67,4.76c1.15,2.2,1.17,1.4.18,2.35s-.9,3.53-.9,3.53a5.56,5.56,0,0,1-.65.53l-.16.1c-.26.16-.53.26-.67.12a4.74,4.74,0,0,0-2.34-1.3c-1.17-.22-.77-1.67-2.24-2.67s-2.42-1.7-1.1-2.39l.1-.05a1.44,1.44,0,0,1,.77,0,2.29,2.29,0,0,1,.37.12l.2.07.1.05a6.13,6.13,0,0,1,.94.51,14.28,14.28,0,0,1,1.43,1c.41.35.7.57.7.57V435h0a2.26,2.26,0,0,0-.78-1.53l-.23-.17-.44-.3h0l-.12-.1a.86.86,0,0,1-.32-.45.6.6,0,0,1,.09-.37,2.79,2.79,0,0,1,.3-.38l.11-.1,0,0a1.26,1.26,0,0,0,.28-.83v-1.24a15.14,15.14,0,0,1,0-2,6.07,6.07,0,0,1,.19-1h0l0-.07a4.74,4.74,0,0,1,.29-.74,4.36,4.36,0,0,1,.35-.59C677.23,422.6,677.08,425.89,677.41,427.84Z" transform="translate(-579.02 -296.99)"/><path class="cls-9" d="M676.59,426.58a10.44,10.44,0,0,0-.27,2.95v.17c0,.42,0,.83.07,1.24.05.64.12,1.27.2,1.9.13,1.05.3,2.08.49,3.12s.39,2,.63,3.05l-.16.1c-.31-.41-.64-.82-1-1.22s-.67-.8-1-1.19-.72-.76-1.11-1.11a5.4,5.4,0,0,0-1.26-.91,5.21,5.21,0,0,1,1.31.86,13.1,13.1,0,0,1,1.15,1.08q.95,1,1.8,2.07l-.24-1.05-.09-.43c-.08-.41-.17-.82-.24-1.23-.19-1.05-.35-2.08-.47-3.13-.07-.57-.13-1.14-.16-1.71s0-1,0-1.44v-.3a11.15,11.15,0,0,1,.07-1.29A7.31,7.31,0,0,1,676.59,426.58Z" transform="translate(-579.02 -296.99)"/><path class="cls-4" d="M619,440.65l.72.11c1.51-10.25.44-14.12-.26-16.68-.57-2.05-.91-3.28.4-6.46,3-7.35,2.8-11.31,2.8-11.47l-.73.05s.2,4-2.76,11.14c-1.4,3.41-1,4.81-.43,6.93C619.4,426.78,620.44,430.56,619,440.65Z" transform="translate(-579.02 -296.99)"/><path class="cls-9" d="M620.32,403.57c0,1.35,2.12,3.05,2.12,3.05s2.08-1.73,2.07-3.09a2.12,2.12,0,1,0-4.19,0Z" transform="translate(-579.02 -296.99)"/><path class="cls-4" d="M621.28,402.84a.09.09,0,0,1,.13,0h0l.91.82V402.3a.1.1,0,0,1,.1-.09h0a.09.09,0,0,1,.09.08h0l0,2.42,1.27-.7a.08.08,0,0,1,.12,0,.09.09,0,0,1,0,.13h0l-1.36.75,0,1.69a.09.09,0,0,1-.11.08.11.11,0,0,1-.08-.08l0-2.72-1.05-.92a.1.1,0,0,1,0-.14Z" transform="translate(-579.02 -296.99)"/><path class="cls-9" d="M617.27,411.13c.7,1.15,3.39,1.5,3.39,1.5s.88-2.56.17-3.71a2.12,2.12,0,1,0-3.56,2.21Z" transform="translate(-579.02 -296.99)"/><path class="cls-4" d="M617.71,410a.08.08,0,0,1,.1-.07h0l1.2.22-.7-1.15a.08.08,0,0,1,0-.12.09.09,0,0,1,.13,0l1.27,2.06.7-1.26a.1.1,0,0,1,.13,0,.1.1,0,0,1,0,.12h0l-.77,1.35,1,1.63a.09.09,0,0,1,0,.13h0a.09.09,0,0,1-.13,0h0l-1.57-2.51-1.37-.25A.09.09,0,0,1,617.71,410Z" transform="translate(-579.02 -296.99)"/><path class="cls-9" d="M625.44,412.88c-1.27.5-3.62-.83-3.62-.83s.83-2.57,2.1-3.07a2.12,2.12,0,1,1,1.52,3.9Z" transform="translate(-579.02 -296.99)"/><path class="cls-4" d="M625.76,411.72a.1.1,0,0,0,0-.13l-1.1-.54,1.27-.49a.1.1,0,0,0,0-.12h0a.09.09,0,0,0-.11-.05h0l-2.26.88.19-1.44a.1.1,0,0,0-.08-.1h0a.1.1,0,0,0-.1.08l-.19,1.54-1.8.7a.09.09,0,1,0,.06.17h0l2.76-1.05,1.25.61a.1.1,0,0,0,.12,0Z" transform="translate(-579.02 -296.99)"/><path class="cls-9" d="M615.68,429.14c1.12.77,3.71,0,3.71,0s-.22-2.69-1.33-3.46a2.12,2.12,0,1,0-2.38,3.46Z" transform="translate(-579.02 -296.99)"/><path class="cls-4" d="M615.64,427.94a.08.08,0,0,1,.06-.11h0l1.2-.28-1.12-.77a.08.08,0,0,1,0-.12h0a.08.08,0,0,1,.12,0l2,1.37.15-1.44a.1.1,0,0,1,.1-.08.08.08,0,0,1,.08.09h0l-.16,1.54,1.6,1.08a.1.1,0,0,1-.11.16l-2.45-1.67-1.36.32A.1.1,0,0,1,615.64,427.94Z" transform="translate(-579.02 -296.99)"/><path class="cls-9" d="M624.05,431.27c-1.21.6-3.67-.54-3.67-.54s.62-2.63,1.84-3.22a2.12,2.12,0,1,1,1.83,3.76Z" transform="translate(-579.02 -296.99)"/><path class="cls-4" d="M624.28,430.09a.09.09,0,0,0,0-.12h0l-1.13-.45,1.22-.6a.09.09,0,0,0,0-.12.1.1,0,0,0-.12,0h0l-2.18,1.05.06-1.45a.09.09,0,0,0-.09-.09h0a.08.08,0,0,0-.09.08h0l-.07,1.55-1.75.83a.1.1,0,0,0,0,.13.09.09,0,0,0,.12,0h0l2.66-1.28,1.3.51a.1.1,0,0,0,.12,0Z" transform="translate(-579.02 -296.99)"/><path class="cls-9" d="M614.38,421.55c1,.85,3.7.3,3.7.3s0-2.71-1.07-3.56a2.12,2.12,0,1,0-2.63,3.26Z" transform="translate(-579.02 -296.99)"/><path class="cls-4" d="M614.42,420.34a.09.09,0,0,1,.08-.1l1.21-.19-1.05-.85a.09.09,0,0,1,0-.13.09.09,0,0,1,.13,0h0l1.88,1.52.26-1.43a.09.09,0,0,1,.11-.07.08.08,0,0,1,.07.1h0l-.28,1.52,1.51,1.2a.09.09,0,0,1-.11.15l-2.31-1.85-1.38.21A.11.11,0,0,1,614.42,420.34Z" transform="translate(-579.02 -296.99)"/><path class="cls-9" d="M622.78,420.91c-1.16.7-3.71-.22-3.71-.22s.38-2.67,1.54-3.37a2.12,2.12,0,1,1,2.17,3.59Z" transform="translate(-579.02 -296.99)"/><path class="cls-4" d="M622.9,419.72a.09.09,0,0,0-.07-.11l-1.17-.35,1.16-.7a.09.09,0,0,0,0-.12h0a.1.1,0,0,0-.13,0l-2.07,1.25-.07-1.45a.1.1,0,0,0-.11-.08.11.11,0,0,0-.07.08l.07,1.55-1.66,1a.1.1,0,0,0,0,.12h0a.09.09,0,0,0,.12,0l2.54-1.52,1.34.4A.1.1,0,0,0,622.9,419.72Z" transform="translate(-579.02 -296.99)"/><path class="cls-10" d="M611.5,424.7c.93,3.46,1.08,4.61.85,9.1s-.84,3.21,1.49,4,4.14,5.12,4.14,5.12a9.37,9.37,0,0,0,1.47.39l.35.05c.56.07,1.05,0,1.19-.31a8.53,8.53,0,0,1,2.88-3.92c1.75-1.25,0-3.33,1.65-6.1s2.69-4.62,0-4.76h-.21a2.48,2.48,0,0,0-1.27.56,5.76,5.76,0,0,0-.53.47,3.31,3.31,0,0,0-.26.27l-.14.15a14.45,14.45,0,0,0-1.15,1.55,26.05,26.05,0,0,0-1.58,2.77c-.43.85-.7,1.45-.7,1.45a2.47,2.47,0,0,1-.13-.3h0a4.11,4.11,0,0,1,.14-3.1,3.75,3.75,0,0,1,.24-.44,8.77,8.77,0,0,0,.49-.84v0l.13-.25a1.48,1.48,0,0,0,.17-1,1,1,0,0,0-.43-.54,4.54,4.54,0,0,0-.73-.37l-.25-.1-.09,0a2.39,2.39,0,0,1-1.08-1.15,2.8,2.8,0,0,1-.15-.3c-.26-.49-.51-1.08-.77-1.72a26.49,26.49,0,0,0-1.59-3.31,12.35,12.35,0,0,0-1.11-1.57h0l-.09-.1a9.15,9.15,0,0,0-2-1.7C607.83,415.94,610.57,421.24,611.5,424.7Z" transform="translate(-579.02 -296.99)"/><path class="cls-9" d="M611.89,422a18.61,18.61,0,0,1,2.69,4.65l.12.28c.3.71.57,1.41.83,2.11.39,1.08.75,2.17,1.1,3.27.57,1.81,1.08,3.66,1.54,5.5s.91,3.65,1.28,5.5l.35.05c.21-.92.43-1.83.67-2.75s.5-1.83.79-2.72.6-1.79,1-2.67a9.91,9.91,0,0,1,1.4-2.45,9.14,9.14,0,0,0-1.51,2.41,24.34,24.34,0,0,0-1,2.65q-.81,2.34-1.4,4.77c-.13-.63-.27-1.26-.41-1.89,0-.27-.11-.53-.17-.79-.17-.74-.34-1.47-.52-2.2q-.72-2.78-1.6-5.5c-.31-1-.65-2-1-2.93s-.65-1.62-1-2.42c-.07-.17-.15-.33-.23-.5-.32-.7-.69-1.38-1.08-2.05A11.87,11.87,0,0,0,611.89,422Z" transform="translate(-579.02 -296.99)"/><path class="cls-11" d="M618.65,442.39c-.83-.82-.43-1.26-.14-1.82a1.21,1.21,0,0,0-.07-1.61c-.52-.68,1.37-1.32,1.6-.58s-.66,1.65.16,2.13,1.43.58.33,1.12A12.32,12.32,0,0,1,618.65,442.39Z" transform="translate(-579.02 -296.99)"/><path class="cls-12" d="M618.83,444.23s-.42-1.61-1.11-1.7-.92.58-1.81,0-2.28-1.32-2.48-.8.87.35,1.18,1.16.27,1.67,1.34,1.75A4.52,4.52,0,0,0,618.83,444.23Z" transform="translate(-579.02 -296.99)"/><path class="cls-13" d="M618.74,444.23s2.4-.91,2-1.75-1.19-.8-1.18-2-.22-3.75-.56-3.89-1,1.57-1,2.4-.66,1-1.17,2a1.85,1.85,0,0,0,.7,2.49A5.22,5.22,0,0,0,618.74,444.23Z" transform="translate(-579.02 -296.99)"/><path class="cls-7" d="M618.74,444.23a11.25,11.25,0,0,1-.4-3.36,10.75,10.75,0,0,1,.16-1.7,8.71,8.71,0,0,1,.43-1.65,21,21,0,0,0-.35,3.36c0,.56,0,1.12,0,1.68S618.69,443.67,618.74,444.23Z" transform="translate(-579.02 -296.99)"/><path class="cls-7" d="M618.83,444.23a11.38,11.38,0,0,1-1.42-.24,8.2,8.2,0,0,1-1.37-.47,3.4,3.4,0,0,1-.63-.38,2.79,2.79,0,0,1-.51-.52,3,3,0,0,0-.51-.49,1.2,1.2,0,0,0-.63-.3,1.17,1.17,0,0,1,.7.23,3.1,3.1,0,0,1,.56.47,3.24,3.24,0,0,0,.5.48,3.42,3.42,0,0,0,.61.35,9.29,9.29,0,0,0,1.33.5C617.91,444,618.37,444.11,618.83,444.23Z" transform="translate(-579.02 -296.99)"/><path class="cls-5" d="M618.69,444.25s1.75.86,2.35.31.19-1.25,1.38-1.6,2.91-1,2.61-1.57-1,.49-1.94.15-1.68-1.05-2.56-.14A5.46,5.46,0,0,0,618.69,444.25Z" transform="translate(-579.02 -296.99)"/><path class="cls-7" d="M618.69,444.25a10.27,10.27,0,0,1,1.3-1.07,8.88,8.88,0,0,1,1.46-.86,4.5,4.5,0,0,1,.81-.26,3,3,0,0,1,.85-.06,3.21,3.21,0,0,0,.82-.07,1.35,1.35,0,0,0,.74-.33,1.25,1.25,0,0,1-.71.43,3.49,3.49,0,0,1-.84.13,4.47,4.47,0,0,0-.82.08,5.41,5.41,0,0,0-.77.27,11.48,11.48,0,0,0-1.46.8C619.6,443.61,619.14,443.93,618.69,444.25Z" transform="translate(-579.02 -296.99)"/><path class="cls-14" d="M644.17,325v.09a4.18,4.18,0,0,1-3.64,4.58,128.22,128.22,0,0,1-34.12-.05,4.22,4.22,0,0,1-3.62-3.64,9.09,9.09,0,0,1,0-1.95,8.94,8.94,0,0,1,12.07-7.6,11.65,11.65,0,0,1,21.45,2.69,7.83,7.83,0,0,1,1.08-.07A7,7,0,0,1,644.17,325Z" transform="translate(-579.02 -296.99)"/><path class="cls-15" d="M659.62,333.05v.07a3.08,3.08,0,0,1-2.68,3.38,95.27,95.27,0,0,1-25.19,0,3.15,3.15,0,0,1-2.67-2.69,7.11,7.11,0,0,1,0-1.46,6.61,6.61,0,0,1,7.18-6,6.47,6.47,0,0,1,1.73.39,8.61,8.61,0,0,1,15.83,2,5.37,5.37,0,0,1,.8-.05A5.19,5.19,0,0,1,659.62,333.05Z" transform="translate(-579.02 -296.99)"/><path class="cls-15" d="M753.6,329.84v0a1.74,1.74,0,0,1-1.51,1.9,53.28,53.28,0,0,1-14.16,0,1.76,1.76,0,0,1-1.5-1.51,3.66,3.66,0,0,1,0-.81,3.72,3.72,0,0,1,4.05-3.37,3.92,3.92,0,0,1,1,.21,4.84,4.84,0,0,1,8.9,1.13,1.71,1.71,0,0,1,.45,0A2.9,2.9,0,0,1,753.6,329.84Z" transform="translate(-579.02 -296.99)"/><path class="cls-14" d="M773.94,325.45v.06a2.72,2.72,0,0,1-2.37,3,83.19,83.19,0,0,1-22.18,0,2.75,2.75,0,0,1-2.35-2.37,5.82,5.82,0,0,1,5-6.53,5.92,5.92,0,0,1,2.8.32,7.59,7.59,0,0,1,13.95,1.75,4.05,4.05,0,0,1,.7,0A4.56,4.56,0,0,1,773.94,325.45Z" transform="translate(-579.02 -296.99)"/><rect class="cls-16" x="98.26" y="37.85" width="64.58" height="108.28" rx="7.32"/><rect class="cls-10" x="107.25" y="47.96" width="20.06" height="15.95" rx="2.33"/><rect class="cls-10" x="107.25" y="67.03" width="32.89" height="5.7" rx="1.78"/><rect class="cls-10" x="107.25" y="73.94" width="32.89" height="5.7" rx="1.78"/><rect class="cls-10" x="107.25" y="116.7" width="46.37" height="20.44" rx="4.01"/><path class="cls-17" d="M725.07,396.84V395.7a9.39,9.39,0,0,0-.09-1.19v-.07a3.4,3.4,0,0,0-.07-.46c0-.25-.08-.49-.13-.74a.35.35,0,0,0,0-.11,7.74,7.74,0,0,0-.23-.86c0-.15-.07-.31-.12-.45s0,0,0-.06a14.45,14.45,0,0,0-.66-1.62,1,1,0,0,0-.06-.16c0-.11-.12-.21-.17-.32-.15-.28-.3-.55-.46-.82s-.2-.33-.31-.49-.35-.52-.54-.76a4.82,4.82,0,0,0-.35-.44,10.13,10.13,0,0,0-.7-.77l-.31-.33a12.8,12.8,0,0,0-1.09-1h0l-.05,0a13.07,13.07,0,0,0-1.4-1,2.31,2.31,0,0,0-.19-.14l-.27-.14c-.23-.13-.46-.26-.7-.38l-.32-.17-.26-.11-.55-.23a3.68,3.68,0,0,1-.35-.15l-.35-.1c-.12,0-.32-.11-.48-.15l-.29-.1-.53-.12-.4-.09-.15,0c-.35-.07-.7-.12-1.09-.16h-.06c-.35,0-.7-.06-1-.06H640.7c-.28,0-.56,0-.85,0h-.07c-.38,0-.76.06-1.13.12h-.06c-.38.06-.75.14-1.12.23l-.14,0-.15.05a11.61,11.61,0,0,0-1.41.46h0l-.12.06c-.35.14-.66.29-1,.46l-.29.15-1.05.63h0l-3.25,2.2c.35-.23.7-.44,1.05-.64l.29-.15c.32-.16.65-.32,1-.46l.16-.07a13.65,13.65,0,0,1,1.41-.46l.29-.08a9.91,9.91,0,0,1,1.11-.22h.08a10.64,10.64,0,0,1,1.12-.12c.31,0,.62,0,.94,0h70.22a12.39,12.39,0,0,1,1.36.07h.05c.42,0,.83.11,1.24.19l.4.09c.28.06.55.13.83.21l.47.19.7.26.56.23.58.28c.19.09.47.24.7.38l.45.27a14,14,0,0,1,1.4,1l.07.05a14.53,14.53,0,0,1,1.09,1l.3.32a10,10,0,0,1,.68.78l.35.43c.19.25.37.51.55.77s.21.32.3.48.32.55.46.83.17.31.24.47a13.35,13.35,0,0,1,.65,1.62c.06.17.1.35.15.51s.16.57.23.86.11.56.15.85.06.31.08.47c0,.44.09.89.11,1.35s0,.84,0,1.26a2.85,2.85,0,0,1,0,.41c0,.3-.06.59-.1.88,0,.14,0,.28-.07.42s-.12.59-.2.88c0,.11,0,.24-.09.35a9.38,9.38,0,0,1-.33,1c0,.08-.05.16-.07.23s-.14.3-.2.45-.23.53-.35.79a1.18,1.18,0,0,0-.11.19,13.29,13.29,0,0,1-.69,1.14l-.23.35a14.87,14.87,0,0,1-1.23,1.5,13,13,0,0,1-2.16,1.83l3.25-2.2a13.44,13.44,0,0,0,2.16-1.82,15,15,0,0,0,1.23-1.51,2.09,2.09,0,0,1,.14-.17l.09-.16a13.29,13.29,0,0,0,.69-1.14c0-.05.06-.1.09-.16v0c.13-.26.24-.52.35-.79s.14-.28.2-.42v0c0-.08.05-.16.07-.23.11-.3.22-.59.31-.89a.44.44,0,0,0,0-.1c0-.12.06-.24.09-.35s.12-.43.16-.64a2,2,0,0,1,0-.24c0-.14,0-.28.07-.42s.05-.28.07-.42,0-.31,0-.46,0-.27,0-.41A1.38,1.38,0,0,0,725.07,396.84Z" transform="translate(-579.02 -296.99)"/><path class="cls-18" d="M707.69,384.11A14.31,14.31,0,0,1,721.83,398a13.53,13.53,0,0,1-3.74,9.83,13.16,13.16,0,0,1-9.59,4.08H651l-20.82,10.15a1,1,0,0,1-1.21-1.44l4.42-9.63a14.4,14.4,0,0,1-9.26-13,13.58,13.58,0,0,1,3.75-9.82,13.15,13.15,0,0,1,9.59-4.07Z" transform="translate(-579.02 -296.99)"/><path class="cls-10" d="M695.06,390.16l-1.4,4.27a.52.52,0,0,1-.49.35h-4.48a.52.52,0,0,0-.53.52.5.5,0,0,0,.22.42l3.63,2.64a.54.54,0,0,1,.19.59l-1.4,4.27a.53.53,0,0,0,.34.66.5.5,0,0,0,.46-.08l3.64-2.64a.53.53,0,0,1,.61,0l3.63,2.64a.52.52,0,0,0,.81-.58l-1.4-4.27a.54.54,0,0,1,.19-.59l3.63-2.64a.52.52,0,0,0-.3-.94h-4.47a.54.54,0,0,1-.5-.35l-1.4-4.27a.54.54,0,0,0-.67-.32A.57.57,0,0,0,695.06,390.16Z" transform="translate(-579.02 -296.99)"/><path class="cls-10" d="M676.89,390.16l-1.4,4.27a.54.54,0,0,1-.5.35h-4.48a.52.52,0,0,0-.31.94l3.64,2.64a.54.54,0,0,1,.19.59l-1.4,4.27a.52.52,0,0,0,.34.66.51.51,0,0,0,.46-.08l3.63-2.64a.54.54,0,0,1,.62,0l3.63,2.64a.52.52,0,0,0,.81-.58l-1.4-4.27a.53.53,0,0,1,.18-.59l3.64-2.64a.51.51,0,0,0,.12-.72.53.53,0,0,0-.43-.22h-4.46a.52.52,0,0,1-.5-.35l-1.4-4.27a.54.54,0,0,0-.67-.32A.54.54,0,0,0,676.89,390.16Z" transform="translate(-579.02 -296.99)"/><path class="cls-10" d="M658.71,390.16l-1.4,4.27a.52.52,0,0,1-.49.35h-4.48a.52.52,0,0,0-.52.53.51.51,0,0,0,.21.41l3.63,2.65a.53.53,0,0,1,.2.59l-1.4,4.27a.52.52,0,0,0,.34.66.51.51,0,0,0,.46-.08l3.63-2.64a.54.54,0,0,1,.62,0l3.63,2.64a.52.52,0,0,0,.73-.12.5.5,0,0,0,.08-.46l-1.4-4.27a.53.53,0,0,1,.18-.59l3.64-2.64a.51.51,0,0,0,.12-.72.53.53,0,0,0-.43-.22h-4.47a.52.52,0,0,1-.49-.35l-1.41-4.27a.51.51,0,0,0-.66-.32A.52.52,0,0,0,658.71,390.16Z" transform="translate(-579.02 -296.99)"/><path class="cls-10" d="M640.54,390.16l-1.4,4.27a.52.52,0,0,1-.5.35h-4.48a.52.52,0,0,0-.3.94l3.63,2.64a.54.54,0,0,1,.19.59l-1.4,4.27a.54.54,0,0,0,.34.66.5.5,0,0,0,.46-.08l3.64-2.64a.54.54,0,0,1,.62,0L645,403.8a.52.52,0,0,0,.73-.12.53.53,0,0,0,.07-.46l-1.4-4.27a.54.54,0,0,1,.19-.59l3.64-2.64a.51.51,0,0,0,.1-.73.51.51,0,0,0-.41-.21h-4.48a.52.52,0,0,1-.5-.35l-1.4-4.27a.52.52,0,0,0-1,0Z" transform="translate(-579.02 -296.99)"/><path class="cls-19" d="M723.68,390.05l4.12-6a1,1,0,0,0-1.16-1.51l-7,2.49-1.17.42a1,1,0,0,1-1.13-.33l-1.86-2.4-3.4-4.43a1,1,0,0,0-1.41-.18,1,1,0,0,0-.39.81l.09,3,.15,5.63a1,1,0,0,1-.65,1l-8.13,2.9a1,1,0,0,0,.06,1.91l8.28,2.42a1,1,0,0,1,.7.93l.26,8.63a1,1,0,0,0,1,1,1,1,0,0,0,.8-.44l4.86-7.12a1,1,0,0,1,1.12-.39l2.91.85.35.11a5,5,0,0,0,.7,1.5,4.1,4.1,0,0,0,1,.94v0c.07-.14.13-.29.19-.43h0a2.34,2.34,0,0,0,.09-.24c.11-.29.22-.59.31-.89V400c0-.12.06-.24.09-.35s.12-.43.16-.65a2,2,0,0,0,0-.24l.08-.42a3.27,3.27,0,0,1,.06-.42,3.42,3.42,0,0,0,0-.44,3.11,3.11,0,0,0,0-.43.58.58,0,0,1,0-.22V395.7a8,8,0,0,0-.1-1.19v-.07a2.57,2.57,0,0,0-.08-.47c0-.23-.06-.48-.11-.72a.31.31,0,0,1,0-.13c-.07-.29-.16-.57-.24-.86,0-.14-.06-.3-.11-.44l-1.61.08a1,1,0,0,1,.15-.75Z" transform="translate(-579.02 -296.99)"/><path class="cls-20" d="M733,388.13l-2,.43-10.59.55-.31,2.56,11.34,1.07a17.67,17.67,0,0,0,2.06-.14A9.33,9.33,0,0,1,733,388.13Z" transform="translate(-579.02 -296.99)"/><path class="cls-21" d="M711.25,375.94l.25,8.62a1,1,0,0,1-.66,1l-8.12,2.9a1,1,0,0,0,0,1.91l8.28,2.42a1,1,0,0,1,.72.93l.25,8.62a1,1,0,0,0,1,1,1,1,0,0,0,.8-.44l4.86-7.12a1,1,0,0,1,1.11-.4l8.28,2.43a1,1,0,0,0,1.08-1.58l-5.28-6.83a1,1,0,0,1,0-1.17l4.86-7.12a1,1,0,0,0-.26-1.4,1,1,0,0,0-.9-.11l-8.12,2.9a1,1,0,0,1-1.13-.33l-5.26-6.83a1,1,0,0,0-1.39-.22A1,1,0,0,0,711.25,375.94Z" transform="translate(-579.02 -296.99)"/><path class="cls-20" d="M752.66,441s.14,1.37-.22,1.82,3.54.35,3.54.35-1.19-2-.74-2.89S752.66,441,752.66,441Z" transform="translate(-579.02 -296.99)"/><path class="cls-9" d="M748.54,446l7.56-.87a2.14,2.14,0,0,0-.29-2.48,6.81,6.81,0,0,1-3.47-.12,13.18,13.18,0,0,1-3.91,2.49C747.91,445.28,748.05,445.62,748.54,446Z" transform="translate(-579.02 -296.99)"/><rect class="cls-5" x="748.53" y="445.55" width="7.62" height="0.33" transform="translate(-625.14 -207.84) rotate(-6.58)"/><path class="cls-9" d="M763.25,402.1l-.38.9c-1,2.27-1.92,4.48-2.89,6.57a80.24,80.24,0,0,1-5.68,10.58l1.31,21.11-.4,0-2.52.23-.45.05L748,419.77l4.51-18.52.25-1,.38-1.58,1.76.6,6.19,2.1Z" transform="translate(-579.02 -296.99)"/><path class="cls-20" d="M773.72,439.1s.53,1.25.32,1.8,3.48-.73,3.48-.73-1.71-1.54-1.56-2.54S773.72,439.1,773.72,439.1Z" transform="translate(-579.02 -296.99)"/><path class="cls-9" d="M771.26,445.09l7-3.08a2.17,2.17,0,0,0-1-2.28,6.8,6.8,0,0,1-3.35.92,13.49,13.49,0,0,1-3,3.54C770.45,444.61,770.69,444.9,771.26,445.09Z" transform="translate(-579.02 -296.99)"/><rect class="cls-5" x="771" y="443.52" width="7.62" height="0.33" transform="translate(-692.29 54.5) rotate(-23.87)"/><path class="cls-9" d="M773.32,439.71l3.64-1.1-9.21-19.8c.35-6.72.44-13-.67-17.39l-8.56.52,3.42,19.47Z" transform="translate(-579.02 -296.99)"/><path class="cls-5" d="M767.37,401.62c.45.85-14.27,7.73-16,5.14a45.91,45.91,0,0,0-8.75-11.2h0c-.83-1-1.67-2-2.55-3.16l-.6-.78q-1.43-1.9-3-4.23c1.11-.73,2.17-1.46,3.2-2.1a27.56,27.56,0,0,1,3.6-2,10.32,10.32,0,0,1,4.73-1C757.42,386.21,758.44,393.61,767.37,401.62Z" transform="translate(-579.02 -296.99)"/><path class="cls-20" d="M748.88,389.47c-.63.8-1.09,1.42-1.49,1.94a.43.43,0,0,1-.09.1,14,14,0,0,1-3.27,3.28l-.49.38a8.09,8.09,0,0,1-1,.4,5.83,5.83,0,0,1-.58.23h0A57.27,57.27,0,0,1,730.51,398c-.18,0-.35,0-.55.06l-.7.09-.61.06-.93.1-.35-2.58,1.11-.29,1.84-.47,9.73-2.54,2.29-.6,2.67-4.15A8,8,0,0,0,748.88,389.47Z" transform="translate(-579.02 -296.99)"/><path class="cls-22" d="M737.72,383.29l3.78-2.37a3.5,3.5,0,0,0,2.25,2.62c.48,1.72-4.17,4.14-4,1.87C739.1,384.12,738.91,384.09,737.72,383.29Z" transform="translate(-579.02 -296.99)"/><path class="cls-22" d="M737.71,385.23c.63.17,2.61-1.75,4.41-4l-3.55-6.38-5.55,3C733.22,381.62,736.55,385.24,737.71,385.23Z" transform="translate(-579.02 -296.99)"/><path class="cls-20" d="M727.34,395.7a5.67,5.67,0,0,0-1.92-1.31c-.52.1-.52.24-.57.66.35.3.54.44.5.92-.74.35-2.21-.27-2.26-.13a3.14,3.14,0,0,0,.71,2,3.82,3.82,0,0,0,1.88,1.31,4.47,4.47,0,0,0,2-.83Z" transform="translate(-579.02 -296.99)"/><path class="cls-9" d="M731.77,379c-.44.95,1.05,1.7,2.1,2.17a5.38,5.38,0,0,0,2.48-2.57c.71.7,1.72,1.71,1.6,2.31a1.54,1.54,0,0,0,1.11-.35,1.4,1.4,0,0,1-.16-1.48c.18-.27.23-.3.64-.3s.65.54.48,1c-.45,1.09,1.08,1.36,1.75,1.84a2.32,2.32,0,0,0,.75-2c-.26-1.75-.61-3.2-2.64-4.19-1.32-1.25-3.89-1.63-5.2-.06C733.7,378.17,732.57,377.35,731.77,379Z" transform="translate(-579.02 -296.99)"/><path class="cls-5" d="M736.47,387.39l-3.45.74a9.33,9.33,0,0,0,.49,4.47c1.93-.22,4.4-.7,6.85-1.17Z" transform="translate(-579.02 -296.99)"/><g class="cls-23"><polygon points="62.47 97.65 63.45 104.85 63.79 104.74 62.8 97.54 62.47 97.65"/><path d="M669.83,388.27c-.06-1-1.51-2-3.52-2.87a1.21,1.21,0,0,1,.09-.2l1-3.29H646v.26a.17.17,0,0,0,.08.14c-.12,5.05,2.07,7,5.11,9-1.81.67-3.65,1.42-5.43,2.21l.08.26a4.94,4.94,0,0,1-1.43.15l0-.23a2.67,2.67,0,0,0-2.57.82l1,7.2c.48.27.86.26,1-.33a15,15,0,0,1,1.56-4.61,3.87,3.87,0,0,1-.24-.37,5.92,5.92,0,0,1,1.4-.7,1.72,1.72,0,0,0,.55.7c2.5-.67,5.44-1.36,8.34-2.1.5,4.79,1.93,12.61,3,17.55H662l-.53-18.81c0-.1,0-.21-.05-.31C666.19,391.4,669.87,389.9,669.83,388.27Zm-10.34.39c-.22-.3-.46-.59-.7-.88a17.06,17.06,0,0,0,2.36.5C660.62,388.38,660.07,388.51,659.49,388.66Z" transform="translate(-579.02 -296.99)"/></g><path class="cls-20" d="M642.36,335.22l.54.82,0,.35,2.45-.34-.11-.41-.26-1c.41-.26.68-1.31.8-1.75a4.07,4.07,0,0,0-.2-2.45c-.14-.22-1-.64-1,.14a2.55,2.55,0,0,1-.23,1.05c-.55-1-.38-2.1-1.75-2.68-2.37.7-2.36,2.52-1.81,4.17A4.15,4.15,0,0,0,642.36,335.22Z" transform="translate(-579.02 -296.99)"/><path class="cls-20" d="M663.67,408.76a3.44,3.44,0,0,0,0,1.75c.3.47-3.38,0-3.38,0s1.3-1.77,1-2.67S663.67,408.76,663.67,408.76Z" transform="translate(-579.02 -296.99)"/><path class="cls-9" d="M667.87,414.35l-8.06-1.75a2.35,2.35,0,0,1,.57-2.64,7.39,7.39,0,0,0,3.76.23,14.59,14.59,0,0,0,4,3.1C668.62,413.67,668.43,414,667.87,414.35Z" transform="translate(-579.02 -296.99)"/><rect class="cls-5" x="663.61" y="409.52" width="0.35" height="8.26" transform="translate(-459.62 678.24) rotate(-77.82)"/><path class="cls-20" d="M648.31,391.14a4.18,4.18,0,0,0-1.56.87c-.33.46-1.06-2.67-1.06-2.67s2,.18,2.73-.51S648.31,391.14,648.31,391.14Z" transform="translate(-579.02 -296.99)"/><path class="cls-9" d="M644.56,397.13l-1-7.19a2.64,2.64,0,0,1,2.57-.82,5.4,5.4,0,0,0,1,3.08,15,15,0,0,0-1.55,4.6C645.41,397.39,645,397.41,644.56,397.13Z" transform="translate(-579.02 -296.99)"/><polygon class="cls-5" points="64.22 93.05 65.21 100.24 65.54 100.14 64.56 92.94 64.22 93.05"/><path class="cls-24" d="M655.24,377.74c1.81,2.45,7.52,6.05,8,10.75l.59,20.48c-1.4.35-1.4.79-3,.82a191.86,191.86,0,0,1-3.62-20.33c-5-3.6-9.51-4.58-9.32-11.81Z" transform="translate(-579.02 -296.99)"/><path class="cls-5" d="M651.09,378.33c2.94,2.95,8.86,5,11.81,5.34a86.08,86.08,0,0,0-15.38,5.25c.43,1.35.64,2.41,1.33,2.91,8.78-2.36,22.82-5,22.74-8.18-.15-1.91-5.75-4.07-10.39-5Z" transform="translate(-579.02 -296.99)"/><path class="cls-7" d="M661.52,378.44c-.27,1.05-13.55.27-13.76-.87-.28-6,2.35-20.77,3.15-22.73a28.73,28.73,0,0,1,3.32-.68h0a25.77,25.77,0,0,1,5.41-.26,23.07,23.07,0,0,1,3.1.41c-.09,2.17-.12,4.1-.11,5.89,0,.48,0,1,0,1.42C662.72,364.08,662,374.79,661.52,378.44Z" transform="translate(-579.02 -296.99)"/><path class="cls-22" d="M655.07,350.4a4.91,4.91,0,0,1-.82,3.75c-1,.33.89,2.54,2.86,2.43a3,3,0,0,0,2.56-2.68c-1-.44-.77-1.67-.74-2.81Z" transform="translate(-579.02 -296.99)"/><path class="cls-20" d="M654,351c1.38,1.07,4.69,2.21,5.69,1.79,1.78-.53,2.34-8.07.41-9.9l-5.32,1.22-2.38,3.59C652.75,349.09,652.92,350.26,654,351Z" transform="translate(-579.02 -296.99)"/><path class="cls-9" d="M656,346.06c2.54.49,3.23-.72,4.64-.35.5.25.35,1,.71,1.47.77-1.75.87-3.85-.94-5.14-1.16-.65-3.27-1.62-5.36-.65-1.59.56-3.37,3.38-3.4,5-.13,4.43-3.26,2.77-6,2.25a8,8,0,0,0-7.72,2.62c-2.8,3.45,1.4,1.75,4.07,4.18,5.25,3.55,4.92-2.84,9.08-1.6,3.55,1.05,5.34-3.05,4.31-3.92a.85.85,0,0,1-.59-.92c-.06-.51-.24-.84.24-1.07.17-.06.78.11,1.08.83A3.8,3.8,0,0,0,656,346.06Z" transform="translate(-579.02 -296.99)"/><path class="cls-7" d="M651.21,360.17s-6.44-5.36-7.1-7.5c-.75-2.48-1.05-10.13-1.48-16.36a0,0,0,0,0,0,0l3-1.09,2.7,16.62,5,3-1.1,4.4-.72.35Z" transform="translate(-579.02 -296.99)"/><path class="cls-20" d="M674.73,335.57l-.55.82v.35l-2.45-.32.11-.41.25-1c-.41-.27-.67-1.31-.8-1.76a4.15,4.15,0,0,1,.2-2.45c.14-.22,1-.64,1,.13a2.38,2.38,0,0,0,.24,1.05c.54-1,.37-2.1,1.75-2.67,2.36.7,2.36,2.51,1.8,4.17A4.3,4.3,0,0,1,674.73,335.57Z" transform="translate(-579.02 -296.99)"/><path class="cls-7" d="M671.17,355c-1.69,2.54-10.5,8.05-10.5,8.05l-.17-7.92,7.9-3.19,3-16,.44.07,2,.32.37.06.41.07C673.37,344.43,672.77,352.55,671.17,355Z" transform="translate(-579.02 -296.99)"/><path class="cls-4" d="M654.28,383.37l-4-3.93a.38.38,0,0,1,0-.53.41.41,0,0,1,.24-.11l10.86-.64c.07,0,2.74,4.11,2.74,4.11Z" transform="translate(-579.02 -296.99)"/><path class="cls-9" d="M666.64,382l-11.9,1.47c-.63.07-1-.42-.77-1.11l2.1-7a2,2,0,0,1,1.51-1.38l11.91-1.47c.63-.08,1,.42.76,1.1l-2.1,7A2.05,2.05,0,0,1,666.64,382Z" transform="translate(-579.02 -296.99)"/><polygon class="cls-10" points="82.05 13.84 83 15.56 84.72 16.5 83 17.45 82.05 19.17 81.11 17.45 79.39 16.5 81.11 15.56 82.05 13.84"/><polygon class="cls-10" points="70.23 20.51 71.52 22.88 73.9 24.18 71.52 25.48 70.23 27.85 68.93 25.48 66.56 24.18 68.93 22.88 70.23 20.51"/><polygon class="cls-10" points="68.48 5.01 70.18 8.1 73.27 9.79 70.18 11.49 68.48 14.58 66.79 11.49 63.7 9.79 66.79 8.1 68.48 5.01"/></g></svg>