<svg id="Слой_1" data-name="Слой 1" xmlns="http://www.w3.org/2000/svg" xmlns:xlink="http://www.w3.org/1999/xlink" viewBox="0 0 208.03 188.17"><defs><style>.cls-1{fill:url(#Degradado_sin_nombre_36);}.cls-2{fill:url(#Безымянный_градиент_12);}.cls-3{fill:#4c8;}.cls-4{fill:#46cccc;}.cls-19,.cls-33,.cls-4,.cls-5{opacity:0.4;}.cls-15,.cls-19,.cls-22,.cls-23,.cls-26,.cls-27,.cls-4,.cls-5,.cls-7{isolation:isolate;}.cls-5{fill:#48cc90;}.cls-6{fill:#5439f7;}.cls-14,.cls-15,.cls-7{fill:#7bcaff;}.cls-26,.cls-27,.cls-7{opacity:0.5;}.cls-8{fill:#d3d3d3;}.cls-9{fill:#f2f2f2;}.cls-10{fill:#f9f4ea;}.cls-11{fill:#bbceff;}.cls-12{fill:#f6f3ff;}.cls-13,.cls-15,.cls-22{opacity:0.6;}.cls-16{fill:#edf4fc;}.cls-17{fill:#ffc550;}.cls-18{fill:#a6edc8;}.cls-19,.cls-24{fill:#375e82;}.cls-20{fill:#38464c;}.cls-21{fill:#676772;}.cls-22{fill:#bde5f2;}.cls-23{fill:#e3fbff;opacity:0.3;}.cls-25{fill:#d1d9fe;}.cls-26{fill:#abb2b7;}.cls-27{fill:#cad3db;}.cls-28{fill:#fff;}.cls-29{fill:#32a066;}.cls-30{fill:#72edad;}.cls-31{fill:#ffe1ab;}.cls-32{fill:#2aa866;}.cls-34{fill:#e2e2e2;}.cls-35{fill:#d6ddea;}.cls-36{fill:#31af6d;}.cls-37{fill:#40f;}.cls-38{fill:#ffaf84;}.cls-39{fill:#2e2947;}.cls-40{fill:#ed8c62;}.cls-41{fill:#454068;}.cls-42{fill:#370bd8;}.cls-43{fill:#332f4f;}.cls-44{fill:#35b773;}</style><linearGradient id="Degradado_sin_nombre_36" x1="579.69" y1="382.61" x2="775.54" y2="382.61" gradientUnits="userSpaceOnUse"><stop offset="0" stop-color="#2acaff"/><stop offset="1" stop-color="#2adfc3"/></linearGradient><linearGradient id="Безымянный_градиент_12" x1="599.9" y1="394.89" x2="787.72" y2="394.89" gradientUnits="userSpaceOnUse"><stop offset="0" stop-color="#76aadb"/><stop offset="1" stop-color="#4a72b2"/></linearGradient></defs><title>about-seo-new</title><path class="cls-1" d="M594.57,421.47s-40.92-40,12.95-75.92,112.1-52.15,146-47.9,25.38,86-3.89,135.65S650,480.22,594.57,421.47Z" transform="translate(-579.69 -296.99)"/><path class="cls-2" d="M766.8,336.34s47.07,32.57,0,77-101.73,70.26-135.89,71.78-39.48-80.47-19-134.38S702.27,287.75,766.8,336.34Z" transform="translate(-579.69 -296.99)"/><path class="cls-3" d="M632.67,339.49l-3.4-3.39,1.26-1.47a10.54,10.54,0,0,1-1.25-3l-1.93-.15v-4.81l1.93-.14a10.26,10.26,0,0,1,1.25-3L629.27,322l3.4-3.4,1.46,1.26a11.08,11.08,0,0,1,3-1.25l.15-1.93h4.81l.14,1.93a10.72,10.72,0,0,1,3,1.25l1.47-1.26,3.4,3.4-1.27,1.47a10.68,10.68,0,0,1,1.26,3l1.93.14v4.81l-1.93.15a11.11,11.11,0,0,1-1.26,3l1.27,1.47-3.4,3.39-1.47-1.26a10.19,10.19,0,0,1-3,1.26l-.14,1.93H637.3l-.15-1.93a10.78,10.78,0,0,1-3-1.25Zm9.14-6.8a4,4,0,0,0,.87-.66,4.63,4.63,0,0,0,.67-.86,4.24,4.24,0,0,0,0-4.22,4.11,4.11,0,0,0-1.54-1.53,4.24,4.24,0,0,0-4.22,0,4.57,4.57,0,0,0-.86.66,4,4,0,0,0-.66.87,4.19,4.19,0,0,0,0,4.22,4.26,4.26,0,0,0,1.52,1.52,4.17,4.17,0,0,0,4.22,0Z" transform="translate(-579.69 -296.99)"/><path class="cls-4" d="M616.7,326l-1-2.32.93-.48a6.27,6.27,0,0,1,0-1.73l-.93-.45.93-2.35.94.3a5.6,5.6,0,0,1,1.2-1.23l-.33-.94,2.32-1,.48.93a6.19,6.19,0,0,1,1.72,0l.45-.93,2.35.93-.29.94a5.88,5.88,0,0,1,1.23,1.21l.94-.34,1,2.33-.94.47a5.58,5.58,0,0,1,0,1.73l.94.45-.94,2.35-.93-.3a5.88,5.88,0,0,1-1.21,1.23l.34.94-2.33,1-.47-.93a6.27,6.27,0,0,1-1.73,0l-.45.93-2.35-.93.3-.94a5.64,5.64,0,0,1-1.24-1.2Zm5.81-1.56a1.8,1.8,0,0,0,.55-.15,2.48,2.48,0,0,0,.49-.3,2.24,2.24,0,0,0,.82-2.07,2.16,2.16,0,0,0-.16-.55,2.5,2.5,0,0,0-.29-.5,2.21,2.21,0,0,0-2.07-.81,2.05,2.05,0,0,0-.55.16,2.25,2.25,0,0,0-.5.29,2.21,2.21,0,0,0-.81,2.07,1.73,1.73,0,0,0,.15.55,2.29,2.29,0,0,0,.3.5A2.21,2.21,0,0,0,622.51,324.42Z" transform="translate(-579.69 -296.99)"/><path class="cls-5" d="M696,313.42a1.57,1.57,0,1,1,1.57-1.57h0A1.57,1.57,0,0,1,696,313.42Z" transform="translate(-579.69 -296.99)"/><path class="cls-4" d="M588.92,391a2.44,2.44,0,1,1,2.43-2.43h0A2.43,2.43,0,0,1,588.92,391Zm0-3.92a1.5,1.5,0,1,0,1.5,1.49h0A1.5,1.5,0,0,0,588.92,387.09Z" transform="translate(-579.69 -296.99)"/><path class="cls-4" d="M691.4,317.35v-.88h.87a.72.72,0,0,0,0-1.44h-.89v-.89a.73.73,0,0,0-.73-.72.71.71,0,0,0-.71.72V315h-.88a.72.72,0,1,0,0,1.44h.88v.88a.72.72,0,0,0,.71.73.73.73,0,0,0,.73-.72h0Z" transform="translate(-579.69 -296.99)"/><path class="cls-5" d="M586.17,382.34a.79.79,0,0,1,0-1.58.8.8,0,0,1,.8.78v0a.78.78,0,0,1-.78.78Z" transform="translate(-579.69 -296.99)"/><path class="cls-6" d="M770.2,429.69a5.28,5.28,0,0,1-4.93,5.62h0l-55.85,3.26-5.1.29-3.43.2-5.18.3-8.2.48-6.78.39-2.88.17-6.77.39-53.56,3.12a5.28,5.28,0,0,1-5.62-4.92v-.05l-5.66-97.79,158.29-9.22Z" transform="translate(-579.69 -296.99)"/><path class="cls-7" d="M751.72,425.42,612.36,439.29a9.07,9.07,0,0,1-9.91-8.12l-7.4-74.42a9.06,9.06,0,0,1,8.11-9.91l139.36-13.9a9,9,0,0,1,9.91,8.11l7.41,74.44a9.06,9.06,0,0,1-8.09,9.93Z" transform="translate(-579.69 -296.99)"/><rect class="cls-7" x="44.64" y="53.23" width="74.89" height="82.37" rx="4.62"/><path class="cls-8" d="M764.5,331.94l-158.29,9.21-.74-12.69a2.17,2.17,0,0,1,2-2.29l154-9a2.18,2.18,0,0,1,2.3,2.05Z" transform="translate(-579.69 -296.99)"/><rect class="cls-9" x="608.63" y="328.56" width="152.72" height="4.92" transform="translate(-597.76 -256.64) rotate(-3.33)"/><rect class="cls-10" x="608.48" y="328.66" width="2.56" height="2.56" transform="translate(-597.82 -261.01) rotate(-3.33)"/><rect class="cls-10" x="613.01" y="328.4" width="2.56" height="2.56" transform="translate(-597.85 -260.64) rotate(-3.34)"/><rect class="cls-10" x="617.54" y="328.14" width="2.56" height="2.56" transform="translate(-597.83 -260.38) rotate(-3.34)"/><path class="cls-11" d="M621.08,371.62a2.13,2.13,0,0,1-2.12-2l-.65-11.2a2.08,2.08,0,0,1,.53-1.54,2.15,2.15,0,0,1,1.47-.71l66.2-3.86a2.15,2.15,0,0,1,2.25,2l.66,11.2a2.14,2.14,0,0,1-2,2.25l-66.21,3.86Zm65.57-18.28h0l-66.21,3.86a1.07,1.07,0,0,0-.74.36,1.11,1.11,0,0,0-.29.79l.66,11.24a1.1,1.1,0,0,0,1.15,1l66.21-3.86a1.12,1.12,0,0,0,.75-.36,1.14,1.14,0,0,0,.28-.79l-.66-11.24a1.09,1.09,0,0,0-1.14-1Z" transform="translate(-579.69 -296.99)"/><path class="cls-11" d="M622.23,390.64a2.15,2.15,0,0,1-2.13-2l-.65-11.19a2.14,2.14,0,0,1,2-2.26l66.2-3.83a2.13,2.13,0,0,1,2.25,2h0l.65,11.19a2.13,2.13,0,0,1-2,2.26l-66.2,3.85Zm65.57-18.29h-.07l-66.2,3.86a1.09,1.09,0,0,0-1,1.16l.65,11.2a1.09,1.09,0,0,0,1.15,1h0l66.2-3.86a1.09,1.09,0,0,0,1-1.14h0l-.64-11.24a1.11,1.11,0,0,0-1.13-1Z" transform="translate(-579.69 -296.99)"/><path class="cls-12" d="M684.43,384.84l-66.3-1.08a1.62,1.62,0,0,1-1.59-1.64l.19-11.24a1.61,1.61,0,0,1,1.63-1.59h0l66.3,1.11a1.61,1.61,0,0,1,1.58,1.64h0l-.17,11.24A1.61,1.61,0,0,1,684.43,384.84Z" transform="translate(-579.69 -296.99)"/><path class="cls-11" d="M623.34,409.65a2.15,2.15,0,0,1-2.13-2l-.65-11.2a2.08,2.08,0,0,1,.53-1.54,2.15,2.15,0,0,1,1.47-.71l66.2-3.85a2.15,2.15,0,0,1,2.26,2l.65,11.19a2.13,2.13,0,0,1-2,2.26h0l-66.2,3.86Zm65.57-18.28h-.07l-66.19,3.86a1.08,1.08,0,0,0-1,1.16l.64,11.19a1.12,1.12,0,0,0,1.16,1l66.21-3.86a1.09,1.09,0,0,0,1-1.15h0L690,392.36a1.09,1.09,0,0,0-1.11-1Z" transform="translate(-579.69 -296.99)"/><path class="cls-4" d="M778.35,402.06l-62.23-3.56A3.35,3.35,0,0,1,713,395h0l4.68-81.79a3.37,3.37,0,0,1,3.55-3.17h0l62.21,3.53a3.38,3.38,0,0,1,3.18,3.55l-4.68,81.81a3.38,3.38,0,0,1-3.53,3.19Z" transform="translate(-579.69 -296.99)"/><path class="cls-11" d="M624.44,428.66a2.11,2.11,0,0,1-2.12-2l-.66-11.24a2.16,2.16,0,0,1,.55-1.55,2.1,2.1,0,0,1,1.46-.7l66.2-3.86a2.11,2.11,0,0,1,1.55.54,2.15,2.15,0,0,1,.71,1.47l.64,11.19a2.13,2.13,0,0,1-2,2.26h0l-66.19,3.86ZM690,410.38H690l-66.21,3.85a1.13,1.13,0,0,0-.76.37,1.09,1.09,0,0,0-.27.79l.66,11.2a1.09,1.09,0,0,0,1.15,1l66.19-3.83a1.1,1.1,0,0,0,1-1.15l-.65-11.24a1.09,1.09,0,0,0-1.09-1Z" transform="translate(-579.69 -296.99)"/><g class="cls-13"><rect class="cls-14" x="633.34" y="358.83" width="1.64" height="27.95" transform="matrix(0.02, -1, 1, 0.02, -328.58, 703.84)"/><rect class="cls-14" x="633.3" y="361.76" width="1.64" height="27.95" transform="matrix(0.02, -1, 1, 0.02, -331.54, 706.68)"/><rect class="cls-14" x="624.23" y="374.55" width="1.64" height="12.39" transform="translate(-347.81 701.08) rotate(-88.85)"/></g><rect class="cls-15" x="664.88" y="372.55" width="7.56" height="7.56" transform="translate(-298.16 741.81) rotate(-89.07)"/><rect class="cls-15" x="673.69" y="372.68" width="7.56" height="7.56" transform="translate(-289.63 750.74) rotate(-89.07)"/><rect class="cls-3" x="742.66" y="396.1" width="42.4" height="1.05" transform="translate(-218.84 860.15) rotate(-89.52)"/><rect class="cls-16" x="710.33" y="409.78" width="14.27" height="1.05" transform="translate(-278.52 827.32) rotate(-89.52)"/><rect class="cls-16" x="725.7" y="402.15" width="29.9" height="1.05" transform="translate(-247.9 842.94) rotate(-89.52)"/><path class="cls-17" d="M763.81,407.87h-.07c-6.21-.06-9.21-6.89-12.11-13.51s-5.62-12.77-11.06-12.82h-.06c-5.44,0-8.25,6.15-11.24,12.64s-6.09,13.3-12.26,13.3h-.07v-1.15H717c5.44,0,8.25-6.13,11.24-12.63s6.08-13.3,12.25-13.3h.07c6.22.05,9.21,6.88,12.1,13.5s5.62,12.77,11.07,12.82h.06c5.43,0,8.24-6.14,11.24-12.64s6.08-13.3,12.25-13.3h.08v1.15h-.07c-5.43,0-8.24,6.13-11.24,12.63S770,407.87,763.81,407.87Z" transform="translate(-579.69 -296.99)"/><rect class="cls-18" x="752" y="367.52" width="4.56" height="9.13" transform="translate(-239.66 807.07) rotate(-86.75)"/><rect class="cls-18" x="735.88" y="366.61" width="4.56" height="9.13" transform="translate(-253.95 790.12) rotate(-86.75)"/><rect class="cls-18" x="719.74" y="365.68" width="4.56" height="9.13" transform="translate(-268.26 773.13) rotate(-86.75)"/><rect class="cls-7" x="628.51" y="397.74" width="28.22" height="2.21" transform="translate(-601.77 -258.99) rotate(-3.33)"/><rect class="cls-7" x="628.79" y="401.85" width="19" height="2.21" transform="translate(-602.08 -259.12) rotate(-3.34)"/><rect class="cls-7" x="649.95" y="401.06" width="4.74" height="2.21" transform="translate(-601.95 -258.42) rotate(-3.33)"/><rect class="cls-7" x="626.32" y="360.18" width="28.22" height="2.21" transform="translate(-599.59 -259.18) rotate(-3.33)"/><rect class="cls-7" x="626.56" y="364.43" width="16.79" height="2.21" transform="translate(-599.85 -259.49) rotate(-3.33)"/><rect class="cls-7" x="645.53" y="363.28" width="17.79" height="2.21" transform="translate(-599.75 -258.36) rotate(-3.33)"/><rect class="cls-7" x="629.65" y="417.23" width="11.27" height="2.21" transform="translate(-602.92 -259.38) rotate(-3.33)"/><rect class="cls-7" x="642.99" y="416.45" width="11.27" height="2.21" transform="translate(-602.85 -258.61) rotate(-3.33)"/><rect class="cls-7" x="629.9" y="420.87" width="19" height="2.21" transform="translate(-603.19 -259.02) rotate(-3.34)"/><rect class="cls-7" x="651.03" y="419.71" width="18.72" height="2.21" transform="translate(-603.02 -257.92) rotate(-3.33)"/><path class="cls-19" d="M645.52,366A23.23,23.23,0,0,0,613,399.09l-2.16,2.42-.5-.44-.66.67.52,8.76,4.51-5.53-.5-.45,2.17-2.42A23.23,23.23,0,0,0,645.52,366Zm-2.7,28.7a17,17,0,1,1,4.3-12.33,17,17,0,0,1-4.3,12.33Z" transform="translate(-579.69 -296.99)"/><rect class="cls-20" x="597.88" y="388.51" width="8.25" height="4.52" transform="translate(-669.82 283.67) rotate(-48.33)"/><path class="cls-21" d="M581.34,414h0a4,4,0,0,0,5.63-.32l.11-.13,15.68-19.21-4.38-3.9-17.26,17.8a4,4,0,0,0,.08,5.63Z" transform="translate(-579.69 -296.99)"/><path class="cls-22" d="M598,373.83a20.13,20.13,0,0,0,33.64,13.74,18.85,18.85,0,0,0,3.09-3.52,20,20,0,0,0,3.53-11v-1.58A20.18,20.18,0,0,0,617,352.54a13.81,13.81,0,0,0-1.59.16,19.92,19.92,0,0,0-8.17,3,18.61,18.61,0,0,0-2.31,1.74,19.52,19.52,0,0,0-3.14,3.47A20.12,20.12,0,0,0,598,373.83Z" transform="translate(-579.69 -296.99)"/><path class="cls-23" d="M607.16,355.74l29,25.82a20.16,20.16,0,0,0,2.07-8.49L615.33,352.7A19.92,19.92,0,0,0,607.16,355.74Z" transform="translate(-579.69 -296.99)"/><path class="cls-23" d="M601.71,361l29.91,26.62a18.85,18.85,0,0,0,3.09-3.52l-29.86-26.57A19.91,19.91,0,0,0,601.71,361Z" transform="translate(-579.69 -296.99)"/><path class="cls-24" d="M618.08,395.87a23.21,23.21,0,1,1,17.36-7.77A23.22,23.22,0,0,1,618.08,395.87Zm0-40.27h-1a17.1,17.1,0,1,0,1,0Z" transform="translate(-579.69 -296.99)"/><path class="cls-17" d="M746.1,363.47a22.92,22.92,0,0,0,31.76-14.61l-11-3.07a11.5,11.5,0,0,1-14.18,8,10.66,10.66,0,0,1-1.74-.64Z" transform="translate(-579.69 -296.99)"/><path class="cls-16" d="M738.68,358l.52.54,8.26-7.88a11.5,11.5,0,1,1,18.92-12.43l10.51-4.47A22.93,22.93,0,1,0,738.68,358Z" transform="translate(-579.69 -296.99)"/><path class="cls-3" d="M767.28,343.34a11.85,11.85,0,0,1-.41,2.44l11,3.08a22.78,22.78,0,0,0-.94-15.12l-10.51,4.47A11.29,11.29,0,0,1,767.28,343.34Z" transform="translate(-579.69 -296.99)"/><path class="cls-25" d="M739.2,358.51a22.33,22.33,0,0,0,6.9,5l4.82-10.35a11.53,11.53,0,0,1-3.46-2.49Z" transform="translate(-579.69 -296.99)"/><path class="cls-16" d="M723,326.84a4,4,0,0,1,5.23,3.19l-2,.31a2,2,0,0,0-1.87-1.69,1.77,1.77,0,0,0-.76.1Z" transform="translate(-579.69 -296.99)"/><path class="cls-17" d="M721.59,327.66l.1-.09,1.28,1.55a2,2,0,0,0,2.58,3.12,2.25,2.25,0,0,0,.48-.58l1.75,1a4.27,4.27,0,0,1-.83,1,4,4,0,1,1-5.36-6Z" transform="translate(-579.69 -296.99)"/><path class="cls-17" d="M726.29,330.78a3.23,3.23,0,0,0,0-.44l2-.31a3.92,3.92,0,0,1-.46,2.62l-1.81-1A2,2,0,0,0,726.29,330.78Z" transform="translate(-579.69 -296.99)"/><path class="cls-3" d="M721.69,327.57a4.18,4.18,0,0,1,1.3-.73l.64,1.87a2,2,0,0,0-.66.37Z" transform="translate(-579.69 -296.99)"/><path class="cls-3" d="M726.49,356.81a4,4,0,0,1-3.84,2.23,3.91,3.91,0,0,1-2.12-.77l1.17-1.62a2,2,0,0,0,2.81-.43,3.21,3.21,0,0,0,.19-.31Z" transform="translate(-579.69 -296.99)"/><path class="cls-25" d="M726.92,355.24a.33.33,0,0,1,0,.14l-2-.19a2,2,0,1,0-4,.35l-1.94.53a4.36,4.36,0,0,1-.14-1.3,4,4,0,1,1,8,.45h0Z" transform="translate(-579.69 -296.99)"/><path class="cls-16" d="M721.38,356.35a1.47,1.47,0,0,0,.32.29l-1.17,1.63a4,4,0,0,1-1.53-2.19l1.94-.53A1.91,1.91,0,0,0,721.38,356.35Z" transform="translate(-579.69 -296.99)"/><path class="cls-17" d="M726.92,355.42a4,4,0,0,1-.4,1.43l-1.8-.94a2.22,2.22,0,0,0,.21-.72Z" transform="translate(-579.69 -296.99)"/><path class="cls-25" d="M721.78,346.44a4,4,0,0,1-1.82-5.36,3.67,3.67,0,0,1,.36-.6l1.62,1.17a2,2,0,0,0,.13,2.54,2.09,2.09,0,0,0,.6.46Z" transform="translate(-579.69 -296.99)"/><path class="cls-3" d="M723.35,346.87h-.13l.17-2a2,2,0,0,0,1.53-.5,2,2,0,0,0-1.87-3.46l-.54-1.93a3.85,3.85,0,0,1,1.3-.14,4,4,0,1,1-.45,8Z" transform="translate(-579.69 -296.99)"/><path class="cls-17" d="M722.24,341.37a1.78,1.78,0,0,0-.29.32l-1.58-1.21a4,4,0,0,1,2.18-1.52l.53,1.93A2,2,0,0,0,722.24,341.37Z" transform="translate(-579.69 -296.99)"/><path class="cls-16" d="M723.18,346.85a3.67,3.67,0,0,1-1.44-.41l.94-1.79a2,2,0,0,0,.72.2Z" transform="translate(-579.69 -296.99)"/><path class="cls-26" d="M761.37,432.08l-6,14.77a1.56,1.56,0,0,1-2,.87h0l-20.24-8.17a1.56,1.56,0,0,1-.87-2l6-14.78a1.56,1.56,0,0,1,2-.86h0l20.24,8.17A1.55,1.55,0,0,1,761.37,432.08Z" transform="translate(-579.69 -296.99)"/><path class="cls-27" d="M762.45,430.35l-5.17,15.07a1.56,1.56,0,0,1-2,.94l-20.61-7.08a1.58,1.58,0,0,1-.94-2l5.16-15.07a1.58,1.58,0,0,1,2-.94l20.61,7.08a1.56,1.56,0,0,1,.94,2Z" transform="translate(-579.69 -296.99)"/><path class="cls-16" d="M764,428.05l-4.2,15.41a1.55,1.55,0,0,1-1.87,1.1l-21.1-5.78a1.56,1.56,0,0,1-1.09-1.92L740,421.5a1.57,1.57,0,0,1,1.91-1.1h0l21.06,5.75A1.56,1.56,0,0,1,764,428.05Z" transform="translate(-579.69 -296.99)"/><path class="cls-3" d="M764,428.05l-.94,3.41L739,424.9l.93-3.41a1.57,1.57,0,0,1,1.91-1.1h0l21.06,5.76A1.55,1.55,0,0,1,764,428Z" transform="translate(-579.69 -296.99)"/><rect class="cls-28" x="750.37" y="416.21" width="1.15" height="24.95" transform="matrix(0.26, -0.96, 0.96, 0.26, -440.07, 743.23)"/><path class="cls-29" d="M747.32,423.79A1.87,1.87,0,1,1,746,421.5h0A1.88,1.88,0,0,1,747.32,423.79Z" transform="translate(-579.69 -296.99)"/><path class="cls-29" d="M760.09,427.33a1.88,1.88,0,1,1-1.32-2.3h0A1.88,1.88,0,0,1,760.09,427.33Z" transform="translate(-579.69 -296.99)"/><path class="cls-17" d="M745.52,424.62a1.33,1.33,0,0,1-1.28-1.58v0l.73-2.67a1.28,1.28,0,1,1,2.47.67l-.73,2.67A1.28,1.28,0,0,1,745.52,424.62Z" transform="translate(-579.69 -296.99)"/><path class="cls-17" d="M758.28,428.1a.91.91,0,0,1-.33,0,1.29,1.29,0,0,1-1-1.55v0l.82-2.74a1.26,1.26,0,0,1,1.52-.94h0a1.28,1.28,0,0,1,.94,1.55v0l-.74,2.67A1.27,1.27,0,0,1,758.28,428.1Z" transform="translate(-579.69 -296.99)"/><rect class="cls-30" x="740.87" y="428.75" width="2.06" height="2.43" transform="matrix(0.26, -0.96, 0.96, 0.26, -447.96, 735.44)"/><rect class="cls-30" x="756.99" y="433.2" width="2.06" height="2.43" transform="translate(-440.49 754.17) rotate(-74.72)"/><rect class="cls-30" x="752.99" y="432.05" width="2.06" height="2.43" transform="translate(-442.22 749.56) rotate(-74.73)"/><rect class="cls-30" x="748.95" y="430.96" width="2.06" height="2.43" transform="translate(-444.14 744.86) rotate(-74.73)"/><rect class="cls-30" x="744.91" y="429.85" width="2.06" height="2.43" transform="translate(-446.05 740.14) rotate(-74.73)"/><rect class="cls-30" x="739.98" y="431.98" width="2.06" height="2.43" transform="translate(-451.73 736.96) rotate(-74.73)"/><rect class="cls-30" x="756.15" y="436.39" width="2.06" height="2.43" transform="translate(-444.08 755.81) rotate(-74.73)"/><rect class="cls-30" x="752.11" y="435.28" width="2.06" height="2.43" transform="translate(-445.98 751.09) rotate(-74.73)"/><rect class="cls-30" x="748.03" y="434.23" width="2.06" height="2.43" transform="translate(-448.09 746.28) rotate(-74.72)"/><rect class="cls-30" x="744.02" y="433.08" width="2.06" height="2.43" transform="translate(-449.82 741.67) rotate(-74.73)"/><rect class="cls-30" x="739.06" y="435.25" width="2.06" height="2.43" transform="translate(-455.68 738.37) rotate(-74.72)"/><rect class="cls-30" x="755.28" y="439.62" width="2.06" height="2.43" transform="translate(-447.84 757.35) rotate(-74.73)"/><rect class="cls-30" x="749.34" y="434.15" width="2.05" height="2.41" transform="translate(-445.7 748.83) rotate(-74.85)"/><rect class="cls-30" x="747.18" y="437.41" width="2.06" height="2.43" transform="translate(-451.67 747.91) rotate(-74.73)"/><rect class="cls-30" x="743.14" y="436.31" width="2.06" height="2.43" transform="translate(-453.58 743.2) rotate(-74.73)"/><path class="cls-17" d="M595.52,422.71l1.87,9.84a1.5,1.5,0,0,0,1.76,1.19h0l20.55-4a1.49,1.49,0,0,0,1.19-1.75L619,418.17a1.49,1.49,0,0,0-1.73-1.19h0l-20.53,4A1.5,1.5,0,0,0,595.52,422.71Z" transform="translate(-579.69 -296.99)"/><path class="cls-31" d="M595.52,422.7l.1.53,11.24,4.34a3.38,3.38,0,0,0,3.51-.69l8.76-8.21-.1-.53a1.49,1.49,0,0,0-1.75-1.19h0l-20.54,4A1.49,1.49,0,0,0,595.52,422.7Z" transform="translate(-579.69 -296.99)"/><path class="cls-3" d="M594.66,434.21a3.74,3.74,0,1,0,3-4.39h0A3.74,3.74,0,0,0,594.66,434.21Z" transform="translate(-579.69 -296.99)"/><path class="cls-3" d="M648.18,449.46l-6.12,6.11-6.12-6.11a8.65,8.65,0,1,1,12.24,0Z" transform="translate(-579.69 -296.99)"/><path class="cls-32" d="M644.15,445.44a3,3,0,1,1,0-4.2A3,3,0,0,1,644.15,445.44Z" transform="translate(-579.69 -296.99)"/><g class="cls-33"><path class="cls-24" d="M695.92,376.86a7.58,7.58,0,0,0-.89-3c-1.68-3.64-5.39-9-7.86-12.35a2,2,0,0,0-.24-.27,1.68,1.68,0,0,0-1.47-.88h-4.32a17.33,17.33,0,0,0,.13-3.3,7.57,7.57,0,0,0,3.16-3.18,1,1,0,0,0,1-.19,2.71,2.71,0,0,0,.94-2.08,2.92,2.92,0,0,0-.43-1.46,7.84,7.84,0,0,0,.27-1.43c.13-1.68,0-3.53-2.13-4.37.85-1.32-2.43-4.09-5.18-3.14-6.3,2.18-6.34-.21-6.34-.21-2.72.8-3,3.31-1.78,4.41a4.75,4.75,0,0,0-.65,3.31,4.54,4.54,0,0,0,.12.81,8.28,8.28,0,0,0-.06.86,7.54,7.54,0,0,0,6.33,7.43,9.81,9.81,0,0,1-.22,2.54h-4.83a1.69,1.69,0,0,0-1.32.64,1.85,1.85,0,0,0-.47.41c-2.64,3.15-8.81,10.78-9.3,13.5-.38,2,2,7.34,4.4,11.92a2.59,2.59,0,0,1-.68.4,2,2,0,0,0,1.31,3.8,6.46,6.46,0,0,0,2-1.13c-.08,1.77-.13,2.81-.13,2.81s-.23,5.38.14,10.82c.09,2.12.79,18.46,1.73,24.72.43,2.81,1.19,7.73,1.88,12.46l6.76-.39c-.76-4.91-1.56-10.18-2-13.12-.84-5.51-1.5-20.25-1.64-23.54h3c.11,2.74.8,18.45,1.72,24.55.4,2.67,1.12,7.34,1.87,11.9l6.78-.39c-.74-4.74-1.5-9.73-1.93-12.52-.93-6.18-1.66-24-1.67-24.19a2.16,2.16,0,0,0,0-.36,20.16,20.16,0,0,0,.33-10c-.06-.73-.08-1.58-.07-2.51a6.68,6.68,0,0,0,1.87,1.07,1.88,1.88,0,0,0,.66.12,2,2,0,0,0,.65-3.9h-.07c1.12-1,2.1-2,2.95-2.81C695.86,379,695.9,377.46,695.92,376.86Zm-28.22,6.83c-1.72-3.5-3.25-7-3.34-8.1.3-.93,2.16-3.63,4.44-6.61-.46,4.55-.83,10.11-1.1,14.71Zm16.62,1c.41-5.62,1.25-12.34,2-17.41,2.81,4,5.26,8.09,5.56,9.36C691.25,377.9,687.78,381.48,684.32,384.7Z" transform="translate(-579.69 -296.99)"/><path class="cls-24" d="M716,397.9a9.26,9.26,0,0,1-1.1-.53c1.48-2.27,4.12-7.28,3.4-13.11-.52-4.11-6.92-11.34-7.65-12.18a1.55,1.55,0,0,0-1.12-.49,1.77,1.77,0,0,0-.56-.09h-5.32a17.55,17.55,0,0,1,.06-2.05,7.64,7.64,0,0,0,7.37-7.63s2.17-6-5.62-8.73c-.29-.11-.57-.18-.86-.26a4.33,4.33,0,0,0-1.31-1.82c-3-2.7-8.65-1.11-9.82,2.88-1.09,3.75.31,5.12,1.64,7.69a2.46,2.46,0,0,0,.29,3.44,1,1,0,0,0,.23.13,13.29,13.29,0,0,1-1.72,4.18,12.64,12.64,0,0,0,4.79-1.49A7.42,7.42,0,0,0,700.8,369a19.31,19.31,0,0,0-.1,2.52h-3.21a1.7,1.7,0,0,0-1.13.44l-.12.12-.07.08-.06.08c-.14.2-.55.8-1.11,1.64-1.63,2.5-4.45,7.19-4.82,10.2a3.26,3.26,0,0,1-.06.62c-.38,5.74,3.82,10.61,6.18,12.87a7,7,0,0,1-.74.34,1.47,1.47,0,0,0,.54,2.85,1.4,1.4,0,0,0,.54-.1l.49-.21c-1.65,8.1,1,20.61,1,20.61h.27c-.15,2.81-.34,5.34-.59,7-.38,2.51-1.27,6.89-2.21,11.24l5.18-.3c.83-4,1.6-7.86,2-10.24.29-1.88.49-4.69.64-7.77h3.18c-.21,2.81-.45,5.33-.7,7-.37,2.46-1,6.55-1.66,10.78l5.1-.3c.59-3.83,1.15-7.49,1.49-9.74.28-1.88.56-4.69.78-7.77h.47c.5-2.18.94-14.82,1.08-21.24a12.75,12.75,0,0,0,1.78.87,1.24,1.24,0,0,0,.54.1,1.48,1.48,0,0,0,1.47-1.49,1.46,1.46,0,0,0-.94-1.36Zm-17.17-2c-1.87-1.68-6.36-6.35-5.73-11.44.23-1.82,1.87-4.9,3.39-7.38,1.21,6.1,2.73,13.11,2.34,18.82Zm12.7-18.05c1.88,2.5,3.64,5.24,3.82,6.77a16.71,16.71,0,0,1-2.2,9.9C713,391.3,712.41,383.64,711.57,377.83Z" transform="translate(-579.69 -296.99)"/></g><path class="cls-34" d="M655.74,466h62.54a1.47,1.47,0,0,0,1.47-1.47h0a1.47,1.47,0,0,0-1.47-1.47H655.74a1.47,1.47,0,0,0-1.47,1.47h0a1.47,1.47,0,0,0,1.47,1.47Z" transform="translate(-579.69 -296.99)"/><polygon class="cls-35" points="103.27 163.27 102.48 157.08 99.57 156.65 100.97 163.13 103.27 163.27"/><path class="cls-3" d="M680.09,459.28a.91.91,0,0,0-.5.22,10,10,0,0,1-3.94,2.38c-1.62.44-.94,1.22.62,1.22,2.34,0,3.28-.1,4.33-.07s.36.07,2.94.07c1.18,0,.79-2.31.16-3.69a.84.84,0,0,0-.94-.5Z" transform="translate(-579.69 -296.99)"/><polygon class="cls-35" points="90.83 163.27 90.03 157.08 87.13 156.65 88.53 163.13 90.83 163.27"/><path class="cls-3" d="M667.66,459.28a1.06,1.06,0,0,0-.51.22,16.49,16.49,0,0,1-5.62,2.53c-1.66.24-1.75,1.07.6,1.07s4.06-.22,5.1-.19a28.77,28.77,0,0,0,3.34.19c2,0,1.36-2.52.66-3.69a.94.94,0,0,0-.94-.5Z" transform="translate(-579.69 -296.99)"/><path class="cls-36" d="M667.22,337.15c1.73-.31,5,3.19.94,8.38-2.87,3.69-4.4-1-4.57-3.11S663.65,337.8,667.22,337.15Z" transform="translate(-579.69 -296.99)"/><path class="cls-37" d="M666.27,356.43a2.26,2.26,0,0,0-3.18.28h0c-3,3.55-9.92,12.18-10.48,15.22-.46,2.52,3.21,9.41,6.38,14.7l2.81-1.7c-3.64-5.23-3.81-10-4.68-12.25.52-1.69,5.55-7.16,9.75-12.18C667.62,359.53,667.22,357.23,666.27,356.43Z" transform="translate(-579.69 -296.99)"/><path class="cls-38" d="M657.29,390.53a3,3,0,0,1-2-1.81c-1-2.59.6-1.88,1.78-2.3.58-.2,1.42-1.55,1.75-1.94a2,2,0,0,1,2.81-.46l.17.13c.93.81.73,2,.25,3.19a5.44,5.44,0,0,1-2.57,3A2.39,2.39,0,0,1,657.29,390.53Z" transform="translate(-579.69 -296.99)"/><path class="cls-38" d="M676.17,353a11.88,11.88,0,0,1-1.34,6c-1.38,2.18-1.65,2.63-1.68,2.67a2.67,2.67,0,1,1-4.59-2.74s.22-.37,1.74-2.81a4.83,4.83,0,0,0,.47-2.08,17.46,17.46,0,0,0-.13-3.61,2.67,2.67,0,0,1,5.28-.78A21.73,21.73,0,0,1,676.17,353Z" transform="translate(-579.69 -296.99)"/><path class="cls-37" d="M682.7,357.74c-1.32,7.6-3.9,26.65-3.34,34.31h-19s1.14-28.24,2.95-35.11a1.87,1.87,0,0,1,1.82-1.4h15.75a1.87,1.87,0,0,1,1.85,2.2Z" transform="translate(-579.69 -296.99)"/><path class="cls-39" d="M678.54,404.44s2.31-4.25.82-12.39h-19a121.91,121.91,0,0,0,.17,12.39Z" transform="translate(-579.69 -296.99)"/><path class="cls-39" d="M680.63,431c-1-7-.75-27.7-1.18-30.09-.38-2.06-3.59-2-5.68-1.87s-4.07,2.87-4,5c0,.84,2.51,20.72,3.62,28.1.81,5.32,4.32,19.29,5.62,25.52l4.82-.55C682.9,450.84,681.44,436.33,680.63,431Z" transform="translate(-579.69 -296.99)"/><path class="cls-39" d="M670,431c-.57-7.15-.83-27.35-.84-27.56-.08-2.1-2.91-3.44-5-3.37a3.81,3.81,0,0,0-3.65,3.95c0,.85.85,20.72,2,28.1.8,5.32,2.74,19.77,4.27,26l4.32-.55C670.07,451.35,670.39,436.34,670,431Z" transform="translate(-579.69 -296.99)"/><path class="cls-37" d="M682.78,356.83a2.28,2.28,0,0,0-3.16-.49h0a3.06,3.06,0,0,0-.58,3.75c4.06,5.57,8.27,12.12,8.71,13.92-4,3.25-2.11,5.42-9.89,10.72l2,2.54c11-9.27,12.76-12.35,12.78-13.17C692.73,371,686.5,362,682.78,356.83Z" transform="translate(-579.69 -296.99)"/><path class="cls-40" d="M676.17,353a8.41,8.41,0,0,1-4.31,1.17,6.58,6.58,0,0,1-1.09-.07,17.43,17.43,0,0,0-.13-3.61,2.67,2.67,0,0,1,5.28-.79A21.57,21.57,0,0,1,676.17,353Z" transform="translate(-579.69 -296.99)"/><path class="cls-38" d="M664,344.43c0,4.68,3.45,8.71,8.15,8.71,4,0,8.5-4.15,8.5-8.84a8.51,8.51,0,0,0-8.5-8.51h0C667.47,335.79,664,339.74,664,344.43Z" transform="translate(-579.69 -296.99)"/><path class="cls-38" d="M681.83,390.48a3.22,3.22,0,0,1-1.81-.65,8.12,8.12,0,0,1-2.49-2.21,2.29,2.29,0,0,1,3.56-2.88c.4.45,1.08,1.48,1.65,1.64,1.8.51,2.54,1,1.88,2.08A4.18,4.18,0,0,1,681.83,390.48Z" transform="translate(-579.69 -296.99)"/><path class="cls-3" d="M678.09,337.15c-1.74-.31-5.3,3.75-.36,8,2.72,2.38,3.81-.71,4-2.81S681.66,337.8,678.09,337.15Z" transform="translate(-579.69 -296.99)"/><path class="cls-3" d="M673.48,334c3.3-1.14,7.28,2.48,5.62,3.82-.74.58-.7.5-2.58,1.05s-9.71,1.17-11.65.23-1.94-4.33,1.49-5.33C666.34,333.72,666.38,336.41,673.48,334Z" transform="translate(-579.69 -296.99)"/><path class="cls-38" d="M681.9,345.68a3.1,3.1,0,0,1-1.09,2.35,1.22,1.22,0,0,1-1.72-.19,1.21,1.21,0,0,1-.27-.75v-2.81a1.23,1.23,0,0,1,1.24-1.21,1.25,1.25,0,0,1,.75.27A3.06,3.06,0,0,1,681.9,345.68Z" transform="translate(-579.69 -296.99)"/><path class="cls-16" d="M675.35,366.88l-4.22-4.68a.83.83,0,0,0-1.17-.07h0l-5.19,4.73H667l-.4,4.11a.83.83,0,0,0,.72.93h4.62a.85.85,0,0,0,.84-.76l.41-4.26Z" transform="translate(-579.69 -296.99)"/><path class="cls-38" d="M668.55,355.54c-.44,1.54,1,2.44,3.55,2.08a12.18,12.18,0,0,0,5.14-2.08Z" transform="translate(-579.69 -296.99)"/><path class="cls-41" d="M681.89,458.18c0-.22-3.34-21.38-3.86-28.19-.53-7.16-1.51-25.29-1.51-28.1v-10.2H677v10.2c0,2.81.94,20.9,1.51,28.06.5,6.79,3.82,27.93,3.85,28.14Z" transform="translate(-579.69 -296.99)"/><rect class="cls-41" x="89.53" y="94.71" width="0.47" height="12.87"/><path class="cls-41" d="M669.45,401.86a2.34,2.34,0,0,1-2.34-2.34v-7.83h.47v7.83a1.87,1.87,0,0,0,1.87,1.87Z" transform="translate(-579.69 -296.99)"/><path class="cls-42" d="M708.3,345c-3.35-3-9.75-1.23-11.06,3.26s.55,6,2.13,9.22-1.64,8.18-1.64,8.18,9.89-.69,9.88-9.37C707.6,350.81,712.38,348.7,708.3,345Z" transform="translate(-579.69 -296.99)"/><path class="cls-38" d="M710.51,376.46a1.78,1.78,0,0,1-.85.24,1.65,1.65,0,0,1-1.43-.82s-.28-.46-1.72-2.72c-1.16-1.88-1.26-4.76-1.16-6.72a19.65,19.65,0,0,1,.2-2,1.67,1.67,0,1,1,3.31.38s0,.07,0,.11a17.68,17.68,0,0,0-.18,2.3,8.56,8.56,0,0,0,.67,4.18l1.75,2.81A1.67,1.67,0,0,1,710.51,376.46Z" transform="translate(-579.69 -296.99)"/><path class="cls-38" d="M709.79,404.24c0,.66-.3,12.69-.84,21.65v.28c-.17,2.52-.49,5-.74,6.56-1.11,7.39-6.43,27.31-6.62,28.17l-2-.16c.06-.21.23-20.27,2.55-29a32.4,32.4,0,0,0,.53-5.48V426c.55-8.86.59-21.73.6-21.89a2.81,2.81,0,0,1,2.81-2.81h0C707.64,401.31,709.79,402.69,709.79,404.24Z" transform="translate(-579.69 -296.99)"/><path class="cls-38" d="M718.74,404.27c0,.66-.53,12.76-1.27,21.68V426c-.21,2.62-.45,5-.7,6.63-.86,5.71-5.25,22.13-6.17,28l-2-.43c0-16.86,1.55-23.82,2.54-27.81a30.92,30.92,0,0,0,.14-6.33.89.89,0,0,1,0-.23c-.27-9.36.15-16.78.09-21.33.06-1.55,3.15-3.24,4.68-3.21a2.82,2.82,0,0,1,2.73,2.89Z" transform="translate(-579.69 -296.99)"/><path class="cls-40" d="M708.85,364.9a17.68,17.68,0,0,0-.18,2.3,8.26,8.26,0,0,1-3.32-.76,19.65,19.65,0,0,1,.2-2,1.67,1.67,0,1,1,3.31.38s0,.07,0,.11Z" transform="translate(-579.69 -296.99)"/><path class="cls-38" d="M716.68,357.18c-.76,4.75-3.22,9.3-8,9.3s-8.29-4.24-8.29-9,3.27-8.92,8-8.92S717.44,352.49,716.68,357.18Z" transform="translate(-579.69 -296.99)"/><path class="cls-38" d="M722.83,397.93c-.83-.25-1.49.25-2.48-1,3.06-5.13,5.62-7.91,4.83-14.51-.58-4.64-7.79-12.77-8.61-13.68a1.67,1.67,0,1,0-2.48,2.24c2.81,3.13,7.44,9.14,7.78,11.85.93,7.39-4.09,13.7-4.13,13.75a.41.41,0,0,0-.07.11l-.09.14-.08.14,0,.16a.38.38,0,0,0,0,.15.48.48,0,0,0,0,.17v.11a.48.48,0,0,0,0,.17.38.38,0,0,0,0,.15.43.43,0,0,0,0,.16.38.38,0,0,0,0,.15.59.59,0,0,0,.06.14,1.09,1.09,0,0,0,.08.15l.09.14.11.11a.28.28,0,0,0,.09.1l.06.06h0a9.19,9.19,0,0,0,2.67,1.68,1.84,1.84,0,0,0,.61.12,2.84,2.84,0,0,0,2.17-1.25C723.77,398.64,723.71,398.2,722.83,397.93Z" transform="translate(-579.69 -296.99)"/><path class="cls-40" d="M709.79,404.24c0,.66-.3,12.69-.84,21.65v.28l-6.29.17V426c.55-8.85.6-21.72.6-21.88a2.81,2.81,0,0,1,2.81-2.81h0C707.64,401.31,709.79,402.69,709.79,404.24Z" transform="translate(-579.69 -296.99)"/><path class="cls-40" d="M718.74,404.27c0,.66-.53,12.76-1.27,21.68l-6.24.17a.89.89,0,0,1,0-.23c-.27-9.36.15-16.78.09-21.33.07-1.55,3.15-3.24,4.68-3.21a2.81,2.81,0,0,1,2.74,2.88Z" transform="translate(-579.69 -296.99)"/><path class="cls-3" d="M702.47,423.92s-4.44-20.74.77-28.2H719.5s-.56,24.85-1.34,28.2Z" transform="translate(-579.69 -296.99)"/><path class="cls-39" d="M719.43,394.76a5,5,0,0,0,.07.93H703.24l0-.93v-.28c0-1.14,0-2.31-.06-3.51v-.37a12.3,12.3,0,0,0-.11-1.34v-.38c-.11-1.12-.25-2.25-.42-3.4a.78.78,0,0,0,0-.3c-.07-.47-.14-.94-.22-1.41v-.24c-.19-1.18-.4-2.37-.63-3.54h0c-.1-.53-.19-1.06-.3-1.59v-.1c-.22-1.12-.44-2.24-.66-3.32a2.42,2.42,0,0,0-.1-.45c-.06-.36-.14-.72-.2-1.06s-.09-.44-.12-.66c-.17-.85-.32-1.68-.46-2.48a.49.49,0,0,1,0-.17,1.89,1.89,0,0,1,1.9-2.07H714.8a1.84,1.84,0,0,1,1.64.94,1.38,1.38,0,0,1,.21.48c.06.23.12.47.17.73.15.63.3,1.35.44,2.13a3.45,3.45,0,0,1,.93.44,4.15,4.15,0,0,1,.86.76,3.51,3.51,0,0,1,.58.94,2.81,2.81,0,0,1,.19.58,3.72,3.72,0,0,1,.11.88,3.78,3.78,0,0,1-.79,2.31.47.47,0,0,1-.11.13,3.23,3.23,0,0,1-.79.73c0,.27.07.54.09.81V380c.13,1.15.25,2.32.36,3.47v.31c0,.45.09.89.12,1.32v.39c.1,1.14.2,2.23.27,3.26a1.8,1.8,0,0,0,0,.52c0,.41.07.8.09,1.18a2.37,2.37,0,0,0,0,.53c.11,1.33.18,2.45.23,3.26A1.83,1.83,0,0,0,719.43,394.76Z" transform="translate(-579.69 -296.99)"/><path class="cls-43" d="M719.43,394.26c-5.37-.11-10.73,0-16.09.24,0-1.13,0-2.3-.07-3.5v-.37c5.31-.25,10.61-.3,15.93-.16a2.37,2.37,0,0,0,0,.53C719.27,392.33,719.35,393.45,719.43,394.26Z" transform="translate(-579.69 -296.99)"/><path class="cls-43" d="M719,388.77q-8-.21-15.92.13c-.11-1.11-.26-2.24-.42-3.39a.7.7,0,0,0,0-.31q8-.31,16.07-.08v.39C718.81,386.65,718.92,387.74,719,388.77Z" transform="translate(-579.69 -296.99)"/><path class="cls-43" d="M718.49,383.52q-8.09-.25-16.18.06c-.19-1.18-.4-2.37-.63-3.54h0q8.22-.3,16.45,0v0C718.3,381.17,718.42,382.34,718.49,383.52Z" transform="translate(-579.69 -296.99)"/><path class="cls-43" d="M719.76,376a3.74,3.74,0,0,1-.79,2.32.69.69,0,0,1-.11.13q-8.73-.35-17.45,0c-8.72.34,0-.07,0-.1-.23-1.13-.44-2.24-.67-3.32q9.46-.32,18.93.12A4.09,4.09,0,0,1,719.76,376Z" transform="translate(-579.69 -296.99)"/><path class="cls-43" d="M718.88,373.57q-9.23-.4-18.45-.1a3.85,3.85,0,0,0-.13-.66c-.16-.85-.31-1.68-.45-2.48a.49.49,0,0,1,0-.17q8.43-.26,16.86.08c.15.63.3,1.35.44,2.13a3.6,3.6,0,0,1,.93.44A4.12,4.12,0,0,1,718.88,373.57Z" transform="translate(-579.69 -296.99)"/><path class="cls-38" d="M704.61,398.36a.7.7,0,0,0,.08-.2v-.73a1.42,1.42,0,0,0-.05-.22v-.1a.87.87,0,0,0-.07-.17l-.06-.12-.09-.14-.11-.13h0l-.11-.11-.09-.08c-.09-.07-7.5-6.41-7.36-13.67.06-3.16,4.55-9.61,6.11-11.84a1.67,1.67,0,0,0-2.73-1.92c-.63.94-6.12,8.82-6.68,13.36-.84,6.76,5.85,12.18,8.61,14.84-1.11,1.06-1.88.64-2.55.74-.94.14-.94.8-.77,1.7a2.93,2.93,0,0,0,.56,1.26,1.3,1.3,0,0,0,1.64.25,14.31,14.31,0,0,0,3.19-2.1h0s0-.05.07-.06l.15-.17v-.05h0a.74.74,0,0,0,.13-.21A.27.27,0,0,0,704.61,398.36Z" transform="translate(-579.69 -296.99)"/><path class="cls-37" d="M704,353.2c3.46,2,11.6,1.46,13.11,4,0,0,2.44-6.73-6.29-9.84C702.73,344.48,699.15,350.43,704,353.2Z" transform="translate(-579.69 -296.99)"/><path class="cls-37" d="M704.44,349.6c2.26.81-.93,8.14-4.59,8.14C698.27,357.74,698.08,347.34,704.44,349.6Z" transform="translate(-579.69 -296.99)"/><path class="cls-38" d="M698.92,358.69a2.76,2.76,0,0,0,.93,2.1,1.11,1.11,0,0,0,1.55-.17,1.06,1.06,0,0,0,.23-.69v-2.5a1.1,1.1,0,0,0-1.78-.86A2.8,2.8,0,0,0,698.92,358.69Z" transform="translate(-579.69 -296.99)"/><polygon class="cls-44" points="125.3 124.89 124.89 124.66 136.99 102.72 137.4 102.95 125.3 124.89"/><polygon class="cls-44" points="131.37 124.86 130.92 124.7 137.45 105.6 137.9 105.75 131.37 124.86"/><path class="cls-28" d="M703.55,368.09l.14.19a7.92,7.92,0,0,0,1.6,1.62,7.42,7.42,0,0,0,4.18,1.62,2.35,2.35,0,0,0,1.69-.58c.67-.64.66-1.7,0-2.81Z" transform="translate(-579.69 -296.99)"/><path class="cls-38" d="M704.15,368.09a6.92,6.92,0,0,0,1.45,1.46c1.87,1.45,4.17,1.88,5.09,1,.57-.55.49-1.49-.11-2.47Z" transform="translate(-579.69 -296.99)"/><path class="cls-43" d="M701.72,460.32a.81.81,0,0,1,.37.15,7.34,7.34,0,0,0,2.81,1.74c1.18.31.72.88-.44.88-1.7,0-2.39-.07-3.14,0s-.27,0-2.13,0c-.86,0-.57-1.68-.12-2.68a.59.59,0,0,1,.67-.36Z" transform="translate(-579.69 -296.99)"/><path class="cls-43" d="M710.69,460.32a.84.84,0,0,1,.38.15,11.66,11.66,0,0,0,4,1.88c1.21.17,1.28.77-.43.77s-2.95-.15-3.74-.13a19.79,19.79,0,0,1-2.43.13c-1.43,0-.94-1.82-.47-2.67a.64.64,0,0,1,.68-.36Z" transform="translate(-579.69 -296.99)"/></svg>