<svg xmlns="http://www.w3.org/2000/svg" viewBox="0 0 221.38 166.55"><defs><style>.cls-1{isolation:isolate;}.cls-2{fill:#4c8;}.cls-3{fill:#46cccc;}.cls-18,.cls-3,.cls-32,.cls-4{opacity:0.4;}.cls-4{fill:#48cc90;}.cls-5{fill:#5439f7;}.cls-13,.cls-14,.cls-6{fill:#7bcaff;}.cls-25,.cls-26,.cls-6{opacity:0.5;}.cls-7{fill:#d3d3d3;}.cls-8{fill:#f2f2f2;}.cls-9{fill:#f9f4ea;}.cls-10{fill:#bbceff;}.cls-11{fill:#f6f3ff;}.cls-12,.cls-14,.cls-21{opacity:0.6;}.cls-15{fill:#edf4fc;}.cls-16{fill:#ffc550;}.cls-17{fill:#a6edc8;}.cls-18,.cls-23{fill:#375e82;}.cls-18,.cls-25,.cls-26,.cls-32{mix-blend-mode:multiply;}.cls-19{fill:#38464c;}.cls-20{fill:#676772;}.cls-21{fill:#bde5f2;}.cls-22{fill:#e3fbff;opacity:0.3;}.cls-24{fill:#d1d9fe;}.cls-25{fill:#abb2b7;}.cls-26{fill:#cad3db;}.cls-27{fill:#fff;}.cls-28{fill:#32a066;}.cls-29{fill:#72edad;}.cls-30{fill:#ffe1ab;}.cls-31{fill:#2aa866;}.cls-33{fill:#e2e2e2;}.cls-34{fill:#d6ddea;}.cls-35{fill:#31af6d;}.cls-36{fill:#40f;}.cls-37{fill:#ffaf84;}.cls-38{fill:#2e2947;}.cls-39{fill:#ed8c62;}.cls-40{fill:#454068;}.cls-41{fill:#370bd8;}.cls-42{fill:#332f4f;}.cls-43{fill:#35b773;}</style></defs><title>about-seo</title><g class="cls-1"><g id="Слой_1" data-name="Слой 1"><path class="cls-2" d="M629.37,332l-3.63-3.62,1.35-1.57a11.34,11.34,0,0,1-1.34-3.23l-2.06-.16v-5.13l2.06-.15a11.11,11.11,0,0,1,1.34-3.23l-1.35-1.57,3.63-3.63,1.56,1.35a11.94,11.94,0,0,1,3.23-1.34l.16-2.06h5.13l.15,2.06a11.69,11.69,0,0,1,3.23,1.34l1.57-1.35,3.63,3.63-1.35,1.57a11.39,11.39,0,0,1,1.34,3.23l2.06.15v5.13l-2.06.16a11.63,11.63,0,0,1-1.34,3.23l1.35,1.57L644.4,332l-1.57-1.35A11.11,11.11,0,0,1,639.6,332l-.15,2.06h-5.13l-.16-2.06a11.34,11.34,0,0,1-3.23-1.34Zm9.76-7.26a4.17,4.17,0,0,0,.93-.71,4.81,4.81,0,0,0,.71-.92,4.52,4.52,0,0,0,0-4.5,4.4,4.4,0,0,0-1.64-1.64,4.52,4.52,0,0,0-4.5,0,4.81,4.81,0,0,0-.92.71,4.17,4.17,0,0,0-.71.93,4.47,4.47,0,0,0,0,4.5,4.55,4.55,0,0,0,1.63,1.63A4.47,4.47,0,0,0,639.13,324.73Z" transform="translate(-573.14 -300.51)"/><path class="cls-3" d="M612.32,317.57l-1.07-2.48,1-.51a6.31,6.31,0,0,1,0-1.84l-1-.48,1-2.51,1,.32a6.15,6.15,0,0,1,1.28-1.32l-.35-1,2.48-1.07.51,1a6,6,0,0,1,1.84,0l.48-1,2.51,1-.32,1a6.2,6.2,0,0,1,1.32,1.29l1-.36,1.07,2.48-1,.51a6.32,6.32,0,0,1,0,1.84l1,.48-1,2.51-1-.32a6.2,6.2,0,0,1-1.29,1.32l.36,1-2.48,1.07-.51-1a6.32,6.32,0,0,1-1.84,0l-.48,1-2.51-1,.32-1a5.93,5.93,0,0,1-1.32-1.28Zm6.2-1.66a2.46,2.46,0,0,0,.59-.16,3.11,3.11,0,0,0,.53-.32,2.4,2.4,0,0,0,.87-2.21,2.09,2.09,0,0,0-.17-.59,2.54,2.54,0,0,0-.31-.53,2.37,2.37,0,0,0-2.21-.87,2.09,2.09,0,0,0-.59.17,2.54,2.54,0,0,0-.53.31,2.37,2.37,0,0,0-.87,2.21,2.09,2.09,0,0,0,.17.59,2.54,2.54,0,0,0,.31.53A2.37,2.37,0,0,0,618.52,315.91Z" transform="translate(-573.14 -300.51)"/><path class="cls-4" d="M697,304.16a1.67,1.67,0,1,1,1.67-1.67A1.67,1.67,0,0,1,697,304.16Z" transform="translate(-573.14 -300.51)"/><path class="cls-3" d="M582.66,387a2.6,2.6,0,1,1,2.6-2.59A2.6,2.6,0,0,1,582.66,387Zm0-4.19a1.6,1.6,0,1,0,1.6,1.6A1.6,1.6,0,0,0,582.66,382.81Z" transform="translate(-573.14 -300.51)"/><path class="cls-3" d="M692.07,308.36v-.94H693a.77.77,0,0,0,0-1.54h-.95v-.95a.77.77,0,0,0-1.54,0v.95h-.94a.77.77,0,0,0,0,1.54h.94v.94a.77.77,0,1,0,1.54,0Z" transform="translate(-573.14 -300.51)"/><path class="cls-4" d="M579.73,377.74a.84.84,0,1,1,.83-.83A.83.83,0,0,1,579.73,377.74Z" transform="translate(-573.14 -300.51)"/><path class="cls-5" d="M776.2,428.3a5.64,5.64,0,0,1-5.31,6l-59.63,3.47-5.45.32-3.66.21-5.53.32-8.75.51-7.24.42-3.08.18-7.22.42-57.19,3.33a5.64,5.64,0,0,1-6-5.31L601.1,333.77l169-9.85Z" transform="translate(-573.14 -300.51)"/><path class="cls-6" d="M756.47,423.74l-148.78,14.8a9.67,9.67,0,0,1-10.58-8.66l-7.9-79.46a9.67,9.67,0,0,1,8.66-10.58L746.65,325a9.67,9.67,0,0,1,10.58,8.66l7.91,79.47A9.67,9.67,0,0,1,756.47,423.74Z" transform="translate(-573.14 -300.51)"/><rect class="cls-6" x="47.33" y="42.94" width="79.95" height="87.94" rx="4.93"/><path class="cls-7" d="M770.12,323.93l-169,9.84-.79-13.55a2.33,2.33,0,0,1,2.19-2.45l164.38-9.58a2.33,2.33,0,0,1,2.46,2.19Z" transform="translate(-573.14 -300.51)"/><rect class="cls-8" x="603.73" y="320.28" width="163.05" height="5.25" transform="translate(-590.76 -260.11) rotate(-3.33)"/><rect class="cls-9" x="603.53" y="320.46" width="2.73" height="2.73" transform="translate(-590.8 -264.86) rotate(-3.33)"/><rect class="cls-9" x="608.37" y="320.18" width="2.73" height="2.73" transform="translate(-590.83 -264.46) rotate(-3.34)"/><rect class="cls-9" x="613.21" y="319.9" width="2.73" height="2.73" transform="translate(-590.8 -264.18) rotate(-3.34)"/><path class="cls-10" d="M617,366.3a2.29,2.29,0,0,1-2.27-2.15l-.69-11.95a2.23,2.23,0,0,1,.57-1.65,2.29,2.29,0,0,1,1.57-.76l70.67-4.12a2.3,2.3,0,0,1,2.41,2.15l.7,11.95a2.29,2.29,0,0,1-2.14,2.41l-70.68,4.12Zm70-19.52H687l-70.68,4.12a1.16,1.16,0,0,0-.8.39,1.18,1.18,0,0,0-.3.84l.7,12a1.17,1.17,0,0,0,1.23,1.1l70.68-4.12a1.2,1.2,0,0,0,.81-.39,1.17,1.17,0,0,0,.29-.84l-.7-12A1.16,1.16,0,0,0,687,346.78Z" transform="translate(-573.14 -300.51)"/><path class="cls-10" d="M618.23,386.6a2.29,2.29,0,0,1-2.28-2.15l-.69-11.95a2.28,2.28,0,0,1,2.14-2.41L688.08,366a2.27,2.27,0,0,1,2.4,2.14l.7,11.95a2.28,2.28,0,0,1-2.14,2.41l-70.68,4.12Zm70-19.52h-.07l-70.68,4.12a1.17,1.17,0,0,0-1.09,1.24l.69,11.95a1.17,1.17,0,0,0,1.24,1.1L689,381.37a1.16,1.16,0,0,0,1.1-1.23l-.69-12A1.18,1.18,0,0,0,688.21,367.08Z" transform="translate(-573.14 -300.51)"/><path class="cls-11" d="M684.63,380.41l-70.78-1.15a1.73,1.73,0,0,1-1.7-1.75l.2-12a1.72,1.72,0,0,1,1.75-1.7L684.89,365a1.72,1.72,0,0,1,1.69,1.75l-.19,12A1.72,1.72,0,0,1,684.63,380.41Z" transform="translate(-573.14 -300.51)"/><path class="cls-10" d="M619.41,406.9a2.29,2.29,0,0,1-2.27-2.15l-.7-11.95a2.27,2.27,0,0,1,.57-1.65,2.31,2.31,0,0,1,1.57-.76l70.68-4.11a2.3,2.3,0,0,1,2.41,2.14l.69,11.95a2.27,2.27,0,0,1-2.14,2.41l-70.68,4.12Zm70-19.52h-.07l-70.67,4.12a1.18,1.18,0,0,0-.81.39,1.14,1.14,0,0,0-.29.85l.69,11.95a1.19,1.19,0,0,0,1.24,1.1l70.68-4.12a1.16,1.16,0,0,0,1.09-1.23l-.69-12A1.17,1.17,0,0,0,689.39,387.38Z" transform="translate(-573.14 -300.51)"/><path class="cls-3" d="M784.9,398.8,718.47,395a3.59,3.59,0,0,1-3.38-3.79l5-87.33a3.59,3.59,0,0,1,3.8-3.38l66.42,3.77a3.61,3.61,0,0,1,3.39,3.79l-5,87.34A3.59,3.59,0,0,1,784.9,398.8Z" transform="translate(-573.14 -300.51)"/><path class="cls-10" d="M620.59,427.2a2.27,2.27,0,0,1-2.27-2.14l-.7-12a2.28,2.28,0,0,1,.58-1.65,2.23,2.23,0,0,1,1.56-.75l70.68-4.12a2.24,2.24,0,0,1,1.65.57,2.29,2.29,0,0,1,.76,1.57l.69,11.95a2.27,2.27,0,0,1-2.14,2.41l-70.67,4.12Zm70-19.52h-.07l-70.68,4.11a1.2,1.2,0,0,0-.81.39,1.18,1.18,0,0,0-.29.85l.7,11.95a1.17,1.17,0,0,0,1.23,1.1L691.34,422a1.18,1.18,0,0,0,1.1-1.23l-.7-12a1.18,1.18,0,0,0-.39-.8A1.16,1.16,0,0,0,690.58,407.68Z" transform="translate(-573.14 -300.51)"/><g class="cls-12"><rect class="cls-13" x="616.03" y="366.72" width="29.84" height="1.75" transform="translate(-567.08 -310.73) rotate(0.93)"/><rect class="cls-13" x="615.98" y="369.83" width="29.84" height="1.75" transform="translate(-567.02 -310.72) rotate(0.93)"/><rect class="cls-13" x="615.93" y="372.81" width="13.23" height="1.75" transform="matrix(1, 0.02, -0.02, 1, -566.97, -310.6)"/></g><rect class="cls-14" x="663.75" y="367.32" width="8.07" height="8.07" transform="translate(-567.01 -311.33) rotate(0.93)"/><rect class="cls-14" x="673.14" y="367.47" width="8.07" height="8.07" transform="translate(-567 -311.49) rotate(0.93)"/><rect class="cls-2" x="746.75" y="392.41" width="45.27" height="1.12" transform="translate(-203.11 858.55) rotate(-89.52)"/><rect class="cls-15" x="712.25" y="407.01" width="15.24" height="1.12" transform="translate(-266.82 823.52) rotate(-89.52)"/><rect class="cls-15" x="728.68" y="398.88" width="31.92" height="1.12" transform="translate(-234.15 840.21) rotate(-89.52)"/><path class="cls-16" d="M769.38,405h-.08c-6.63-.06-9.83-7.36-12.92-14.42s-6-13.64-11.81-13.69h-.07c-5.8,0-8.8,6.56-12,13.49s-6.5,14.2-13.09,14.2h-.07v-1.22h.06c5.81,0,8.81-6.55,12-13.49s6.5-14.2,13.08-14.2h.08c6.64.05,9.83,7.35,12.92,14.41s6,13.64,11.81,13.69h.07c5.8,0,8.8-6.55,12-13.49s6.49-14.2,13.08-14.2h.08v1.22h-.07c-5.8,0-8.8,6.55-12,13.49S776,405,769.38,405Z" transform="translate(-573.14 -300.51)"/><rect class="cls-17" x="756.78" y="361.93" width="4.87" height="9.75" transform="translate(595.32 -670.91) rotate(93.25)"/><rect class="cls-17" x="739.55" y="360.95" width="4.87" height="9.75" transform="translate(576.16 -654.74) rotate(93.25)"/><rect class="cls-17" x="722.32" y="359.97" width="4.87" height="9.75" transform="translate(556.97 -638.58) rotate(93.25)"/><rect class="cls-6" x="624.95" y="394.15" width="30.13" height="2.36" transform="translate(-595.04 -262.63) rotate(-3.33)"/><rect class="cls-6" x="625.21" y="398.62" width="20.29" height="2.36" transform="translate(-595.33 -262.86) rotate(-3.34)"/><rect class="cls-6" x="647.82" y="397.74" width="5.06" height="2.36" transform="translate(-595.21 -262.07) rotate(-3.33)"/><rect class="cls-6" x="622.62" y="354.04" width="30.13" height="2.36" transform="translate(-592.72 -262.83) rotate(-3.33)"/><rect class="cls-6" x="622.87" y="358.57" width="17.93" height="2.36" transform="translate(-592.99 -263.15) rotate(-3.33)"/><rect class="cls-6" x="643.12" y="357.36" width="18.99" height="2.36" transform="translate(-592.88 -261.96) rotate(-3.33)"/><rect class="cls-6" x="626.15" y="414.98" width="12.03" height="2.36" transform="translate(-596.25 -263.08) rotate(-3.33)"/><rect class="cls-6" x="640.4" y="414.15" width="12.03" height="2.36" transform="translate(-596.18 -262.25) rotate(-3.33)"/><rect class="cls-6" x="626.39" y="418.92" width="20.29" height="2.36" transform="translate(-596.51 -262.75) rotate(-3.34)"/><rect class="cls-6" x="648.99" y="417.61" width="19.99" height="2.36" transform="translate(-596.37 -261.49) rotate(-3.33)"/><path class="cls-18" d="M643.09,360.27a24.8,24.8,0,0,0-34.69,35.36l-2.3,2.58-.54-.47-.7.72.55,9.35,4.82-5.91-.53-.48,2.31-2.58a24.8,24.8,0,0,0,31.08-38.57Zm-2.88,30.64a18.19,18.19,0,1,1,4.59-13.17A18.24,18.24,0,0,1,640.21,390.91Z" transform="translate(-573.14 -300.51)"/><rect class="cls-19" x="594.17" y="382.36" width="4.83" height="8.81" transform="translate(212 771.78) rotate(-138.33)"/><path class="cls-20" d="M574.57,411.5h0a4.26,4.26,0,0,0,6.13-.48l16.74-20.51-4.68-4.16-18.42,19A4.25,4.25,0,0,0,574.57,411.5Z" transform="translate(-573.14 -300.51)"/><path class="cls-21" d="M592.34,368.66a21.49,21.49,0,0,0,35.91,14.67,20.42,20.42,0,0,0,3.3-3.76,21.44,21.44,0,0,0,3.77-11.72c0-.56,0-1.12,0-1.69a21.54,21.54,0,0,0-22.73-20.23c-.57,0-1.15.1-1.7.17a21.22,21.22,0,0,0-8.72,3.24,20.72,20.72,0,0,0-2.47,1.86,21.06,21.06,0,0,0-3.35,3.71A21.41,21.41,0,0,0,592.34,368.66Z" transform="translate(-573.14 -300.51)"/><path class="cls-22" d="M602.14,349.34l31,27.57a21.46,21.46,0,0,0,2.21-9.06L610.86,346.1A21.22,21.22,0,0,0,602.14,349.34Z" transform="translate(-573.14 -300.51)"/><path class="cls-22" d="M596.32,354.91l31.93,28.42a20.42,20.42,0,0,0,3.3-3.76L599.67,351.2A21.06,21.06,0,0,0,596.32,354.91Z" transform="translate(-573.14 -300.51)"/><path class="cls-23" d="M613.8,392.19a24.79,24.79,0,1,1,18.53-8.3A24.7,24.7,0,0,1,613.8,392.19Zm0-43q-.54,0-1.08,0a18.25,18.25,0,1,0,1.08,0Z" transform="translate(-573.14 -300.51)"/><path class="cls-16" d="M750.47,357.6A24.45,24.45,0,0,0,784.38,342l-11.73-3.28a12.29,12.29,0,0,1-17,7.84Z" transform="translate(-573.14 -300.51)"/><path class="cls-15" d="M742.55,351.72c.18.2.37.39.56.58l8.81-8.41a12.28,12.28,0,1,1,20.2-13.27l11.22-4.77a24.48,24.48,0,1,0-40.79,25.87Z" transform="translate(-573.14 -300.51)"/><path class="cls-2" d="M773.08,336.11a12.28,12.28,0,0,1-.43,2.6L784.38,342a24.38,24.38,0,0,0-1-16.14l-11.22,4.77A12.12,12.12,0,0,1,773.08,336.11Z" transform="translate(-573.14 -300.51)"/><path class="cls-24" d="M743.11,352.3a23.91,23.91,0,0,0,7.36,5.3l5.15-11.05a12.38,12.38,0,0,1-3.7-2.66Z" transform="translate(-573.14 -300.51)"/><path class="cls-15" d="M725.8,318.49a4.31,4.31,0,0,1,4.58,1.22,4.23,4.23,0,0,1,1,2.19l-2.11.33a2.16,2.16,0,0,0-2-1.81,2,2,0,0,0-.81.11Z" transform="translate(-573.14 -300.51)"/><path class="cls-16" d="M724.3,319.36l.11-.09,1.37,1.65a2.16,2.16,0,1,0,3.26,2.72l1.87,1.05a4.35,4.35,0,0,1-.88,1.09,4.3,4.3,0,0,1-5.73-6.42Z" transform="translate(-573.14 -300.51)"/><path class="cls-16" d="M729.32,322.7a2.43,2.43,0,0,0,0-.47l2.11-.33a4.2,4.2,0,0,1-.5,2.79L729,323.64A2.15,2.15,0,0,0,729.32,322.7Z" transform="translate(-573.14 -300.51)"/><path class="cls-2" d="M724.41,319.27a4.46,4.46,0,0,1,1.39-.78l.68,2a2.1,2.1,0,0,0-.7.39Z" transform="translate(-573.14 -300.51)"/><path class="cls-2" d="M729.54,350.49a4.32,4.32,0,0,1-4.1,2.38,4.25,4.25,0,0,1-2.27-.82l1.25-1.73a2.15,2.15,0,0,0,3.2-.79Z" transform="translate(-573.14 -300.51)"/><path class="cls-24" d="M730,348.81a.76.76,0,0,1,0,.15l-2.13-.2a2.19,2.19,0,0,0-.54-1.63,2.16,2.16,0,0,0-3.69,2l-2.07.57a4.57,4.57,0,0,1-.15-1.39,4.3,4.3,0,0,1,8.59.48Z" transform="translate(-573.14 -300.51)"/><path class="cls-15" d="M724.08,350a2,2,0,0,0,.34.31l-1.25,1.73a4.22,4.22,0,0,1-1.63-2.33l2.07-.57A2.09,2.09,0,0,0,724.08,350Z" transform="translate(-573.14 -300.51)"/><path class="cls-16" d="M730,349a4.35,4.35,0,0,1-.43,1.53l-1.92-1a2.27,2.27,0,0,0,.22-.77Z" transform="translate(-573.14 -300.51)"/><path class="cls-24" d="M724.51,339.42a4.28,4.28,0,0,1-1.56-6.37l1.73,1.25a2.17,2.17,0,0,0,.14,2.71,2.11,2.11,0,0,0,.64.49Z" transform="translate(-573.14 -300.51)"/><path class="cls-2" d="M726.18,339.87l-.14,0,.19-2.13a2.12,2.12,0,0,0,1.63-.54,2.16,2.16,0,0,0-2-3.69l-.57-2.06a4,4,0,0,1,1.39-.15,4.3,4.3,0,0,1-.49,8.59Z" transform="translate(-573.14 -300.51)"/><path class="cls-16" d="M725,334a2.45,2.45,0,0,0-.31.34L723,333.05a4.25,4.25,0,0,1,2.33-1.62l.57,2.06A2.21,2.21,0,0,0,725,334Z" transform="translate(-573.14 -300.51)"/><path class="cls-15" d="M726,339.85a3.92,3.92,0,0,1-1.53-.43l1-1.92a2,2,0,0,0,.77.22Z" transform="translate(-573.14 -300.51)"/><path class="cls-25" d="M766.78,430.85l-6.37,15.77a1.66,1.66,0,0,1-2.17.92l-21.6-8.72a1.67,1.67,0,0,1-.93-2.17l6.37-15.77a1.66,1.66,0,0,1,2.17-.92l21.61,8.72A1.67,1.67,0,0,1,766.78,430.85Z" transform="translate(-573.14 -300.51)"/><path class="cls-26" d="M767.93,429l-5.52,16.09a1.67,1.67,0,0,1-2.11,1l-22-7.56a1.67,1.67,0,0,1-1-2.12l5.51-16.09a1.67,1.67,0,0,1,2.12-1l22,7.56A1.65,1.65,0,0,1,767.93,429Z" transform="translate(-573.14 -300.51)"/><path class="cls-15" d="M769.6,426.54,765.12,443a1.66,1.66,0,0,1-2,1.17L740.6,438a1.67,1.67,0,0,1-1.17-2.05l4.48-16.4a1.66,1.66,0,0,1,2.05-1.17l22.48,6.14A1.65,1.65,0,0,1,769.6,426.54Z" transform="translate(-573.14 -300.51)"/><path class="cls-2" d="M769.6,426.54l-1,3.64-25.69-7,1-3.64a1.66,1.66,0,0,1,2.05-1.17l22.48,6.14A1.65,1.65,0,0,1,769.6,426.54Z" transform="translate(-573.14 -300.51)"/><rect class="cls-27" x="742.28" y="426.65" width="26.64" height="1.23" transform="translate(-433.89 -484.47) rotate(15.27)"/><path class="cls-28" d="M751.77,422a2,2,0,1,1-1.4-2.45A2,2,0,0,1,751.77,422Z" transform="translate(-573.14 -300.51)"/><path class="cls-28" d="M765.41,425.77a2,2,0,1,1-1.4-2.45A2,2,0,0,1,765.41,425.77Z" transform="translate(-573.14 -300.51)"/><path class="cls-16" d="M749.85,422.88a1.49,1.49,0,0,1-.36-.05,1.36,1.36,0,0,1-1-1.67l.78-2.85a1.36,1.36,0,1,1,2.63.72l-.78,2.85A1.36,1.36,0,0,1,749.85,422.88Z" transform="translate(-573.14 -300.51)"/><path class="cls-16" d="M763.48,426.6a1.47,1.47,0,0,1-.36,0,1.37,1.37,0,0,1-1-1.68L763,422a1.35,1.35,0,0,1,1.67-1,1.37,1.37,0,0,1,1,1.68l-.78,2.85A1.37,1.37,0,0,1,763.48,426.6Z" transform="translate(-573.14 -300.51)"/><rect class="cls-29" x="744.67" y="427.5" width="2.59" height="2.2" transform="translate(-433.9 -481.86) rotate(15.27)"/><rect class="cls-29" x="761.93" y="432.21" width="2.59" height="2.2" transform="translate(-431.99 -486.3) rotate(15.28)"/><rect class="cls-29" x="757.61" y="431.03" width="2.59" height="2.2" transform="translate(-432.52 -485.15) rotate(15.27)"/><rect class="cls-29" x="753.3" y="429.86" width="2.59" height="2.2" transform="translate(-432.98 -484.05) rotate(15.27)"/><rect class="cls-29" x="748.98" y="428.68" width="2.59" height="2.2" transform="translate(-433.44 -482.96) rotate(15.27)"/><rect class="cls-29" x="743.72" y="430.95" width="2.59" height="2.2" transform="translate(-433.03 -481.49) rotate(15.27)"/><rect class="cls-29" x="760.99" y="435.66" width="2.59" height="2.2" transform="translate(-431.18 -485.87) rotate(15.27)"/><rect class="cls-29" x="756.67" y="434.48" width="2.59" height="2.2" transform="translate(-431.64 -484.78) rotate(15.27)"/><rect class="cls-29" x="752.36" y="433.31" width="2.59" height="2.2" transform="translate(-432.04 -483.74) rotate(15.28)"/><rect class="cls-29" x="748.04" y="432.13" width="2.59" height="2.2" transform="translate(-432.57 -482.59) rotate(15.27)"/><rect class="cls-29" x="742.78" y="434.4" width="2.59" height="2.2" transform="translate(-432.09 -481.18) rotate(15.28)"/><rect class="cls-29" x="760.05" y="439.11" width="2.59" height="2.2" transform="translate(-430.3 -485.5) rotate(15.27)"/><rect class="cls-29" x="755.73" y="437.93" width="2.59" height="2.2" transform="matrix(0.96, 0.26, -0.26, 0.96, -430.71, -484.46)"/><rect class="cls-29" x="751.41" y="436.75" width="2.59" height="2.2" transform="translate(-431.23 -483.31) rotate(15.27)"/><rect class="cls-29" x="747.1" y="435.58" width="2.59" height="2.2" transform="translate(-431.69 -482.22) rotate(15.27)"/><path class="cls-16" d="M589.71,420.84l2,10.51a1.6,1.6,0,0,0,1.88,1.27l21.94-4.27a1.6,1.6,0,0,0,1.27-1.87L614.79,416a1.59,1.59,0,0,0-1.87-1.27L591,419A1.6,1.6,0,0,0,589.71,420.84Z" transform="translate(-573.14 -300.51)"/><path class="cls-30" d="M589.71,420.83l.11.57,12,4.63a3.6,3.6,0,0,0,3.74-.73l9.36-8.77-.11-.57a1.6,1.6,0,0,0-1.88-1.27L591,419A1.59,1.59,0,0,0,589.71,420.83Z" transform="translate(-573.14 -300.51)"/><path class="cls-2" d="M588.79,433.12a4,4,0,1,0,3.16-4.69A4,4,0,0,0,588.79,433.12Z" transform="translate(-573.14 -300.51)"/><path class="cls-2" d="M645.93,449.4l-6.53,6.53-6.54-6.53a9.24,9.24,0,1,1,13.07,0Z" transform="translate(-573.14 -300.51)"/><path class="cls-31" d="M641.63,445.11a3.16,3.16,0,1,1,0-4.48A3.17,3.17,0,0,1,641.63,445.11Z" transform="translate(-573.14 -300.51)"/><g class="cls-32"><path class="cls-23" d="M696.9,371.89a8.2,8.2,0,0,0-.95-3.18c-1.8-3.89-5.76-9.58-8.39-13.18a1.8,1.8,0,0,0-.26-.29,1.77,1.77,0,0,0-1.57-.94h-4.61a18.84,18.84,0,0,0,.14-3.53,8,8,0,0,0,3.37-3.39,1.09,1.09,0,0,0,1.06-.2,2.9,2.9,0,0,0,1-2.22,2.94,2.94,0,0,0-.46-1.56,7.9,7.9,0,0,0,.29-1.53c.14-1.79,0-3.77-2.27-4.66.9-1.41-2.6-4.37-5.53-3.36-6.73,2.33-6.77-.22-6.77-.22-2.91.85-3.19,3.53-1.9,4.71a5.07,5.07,0,0,0-.7,3.53c0,.25.07.55.13.87a9.07,9.07,0,0,0-.06.91,8.05,8.05,0,0,0,6.76,7.94,10.45,10.45,0,0,1-.24,2.71h-5.16a1.78,1.78,0,0,0-1.4.68,2.13,2.13,0,0,0-.51.44c-2.81,3.36-9.4,11.51-9.93,14.41-.4,2.16,2.18,7.84,4.7,12.73a2.84,2.84,0,0,1-.72.43,2.14,2.14,0,1,0,1.4,4.05,7.21,7.21,0,0,0,2.08-1.2c-.09,1.88-.14,3-.14,3s-.25,5.74.15,11.55c.09,2.26.84,19.71,1.85,26.39.45,3,1.26,8.25,2,13.3l7.22-.42c-.81-5.24-1.67-10.86-2.14-14-.89-5.88-1.6-21.62-1.75-25.13h3.18c.12,2.92.86,19.69,1.84,26.21.43,2.85,1.2,7.83,2,12.7l7.24-.42c-.79-5.06-1.61-10.38-2.06-13.36-1-6.6-1.78-25.64-1.79-25.83a2.47,2.47,0,0,0,0-.38,21.47,21.47,0,0,0,.35-10.65c-.06-.78-.08-1.68-.07-2.68a7.13,7.13,0,0,0,2,1.15,1.91,1.91,0,0,0,.7.12,2.14,2.14,0,0,0,.7-4.16l-.08,0c1.2-1.11,2.24-2.11,3.15-3C696.83,374.21,696.88,372.53,696.9,371.89Zm-30.13,7.29c-1.84-3.73-3.47-7.5-3.57-8.64.32-1,2.31-3.88,4.74-7.06C667.45,368.34,667.06,374.27,666.77,379.18Zm17.74,1.08c.44-6,1.34-13.17,2.14-18.59,3,4.33,5.62,8.64,5.94,10C691.91,373,688.21,376.82,684.51,380.26Z" transform="translate(-573.14 -300.51)"/><path class="cls-23" d="M718.38,394.36a9.51,9.51,0,0,1-1.17-.57c1.57-2.42,4.39-7.77,3.62-14-.55-4.39-7.38-12.1-8.16-13a1.61,1.61,0,0,0-1.2-.52,2,2,0,0,0-.6-.1h-5.68a19.32,19.32,0,0,1,.07-2.19,8.16,8.16,0,0,0,7.87-8.15s2.31-6.37-6-9.32c-.31-.11-.61-.19-.92-.27a4.71,4.71,0,0,0-1.4-1.95c-3.17-2.88-9.23-1.18-10.48,3.08-1.17,4,.33,5.47,1.75,8.21a2.61,2.61,0,0,0,.31,3.67,1,1,0,0,0,.24.14,14.22,14.22,0,0,1-1.83,4.46,13.38,13.38,0,0,0,5.11-1.59,7.89,7.89,0,0,0,2.2,1.22,20.47,20.47,0,0,0-.11,2.69h-3.42a1.79,1.79,0,0,0-1.21.47l-.13.13-.07.08-.07.09c-.15.21-.59.85-1.18,1.75-1.74,2.67-4.75,7.68-5.15,10.89q0,.33-.06.66c-.41,6.13,4.08,11.33,6.59,13.74a7.25,7.25,0,0,1-.79.36,1.58,1.58,0,0,0,.58,3.05,1.49,1.49,0,0,0,.58-.11l.52-.22c-1.76,8.64,1.1,22,1.1,22h.29c-.16,3-.36,5.7-.63,7.5-.41,2.69-1.36,7.36-2.36,12l5.53-.32c.89-4.26,1.71-8.39,2.1-10.93.31-2,.53-5,.69-8.29h3.39c-.22,3-.48,5.69-.75,7.5-.39,2.63-1.07,7-1.77,11.51l5.45-.32c.63-4.09,1.22-8,1.59-10.4.3-2,.59-5,.83-8.29h.5c.54-2.33,1-15.82,1.16-22.68a13.89,13.89,0,0,0,1.89.93,1.46,1.46,0,0,0,.58.11,1.58,1.58,0,0,0,.57-3.05Zm-18.33-2.16c-2-1.8-6.79-6.78-6.12-12.21.25-1.95,2-5.24,3.62-7.88C698.84,378.62,700.46,386.1,700.05,392.2Zm13.56-19.27c2,2.67,3.88,5.59,4.08,7.23a17.94,17.94,0,0,1-2.35,10.57C715.11,387.31,714.5,379.13,713.61,372.93Z" transform="translate(-573.14 -300.51)"/></g><path class="cls-33" d="M654,467.06h66.77a1.57,1.57,0,0,0,1.57-1.57h0a1.57,1.57,0,0,0-1.57-1.57H654a1.57,1.57,0,0,0-1.57,1.57h0A1.57,1.57,0,0,0,654,467.06Z" transform="translate(-573.14 -300.51)"/><polygon class="cls-34" points="109.92 160.42 109.08 153.81 105.97 153.35 107.47 160.27 109.92 160.42"/><path class="cls-2" d="M680,459.89a1,1,0,0,0-.54.23,10.76,10.76,0,0,1-4.2,2.54c-1.73.47-1,1.3.66,1.3,2.5,0,3.5-.1,4.62-.07s.39.07,3.14.07c1.26,0,.84-2.46.17-3.94a.89.89,0,0,0-1-.53Z" transform="translate(-573.14 -300.51)"/><polygon class="cls-34" points="96.64 160.42 95.79 153.81 92.69 153.35 94.18 160.27 96.64 160.42"/><path class="cls-2" d="M666.73,459.89a1.12,1.12,0,0,0-.55.23,17.32,17.32,0,0,1-6,2.7c-1.77.26-1.87,1.14.64,1.14s4.34-.23,5.45-.2a31.31,31.31,0,0,0,3.57.2c2.11,0,1.45-2.69.7-3.94a1,1,0,0,0-1-.53Z" transform="translate(-573.14 -300.51)"/><path class="cls-35" d="M666.26,329.5c1.85-.33,5.3,3.4,1,8.94-3.06,3.94-4.7-1.12-4.88-3.32S662.45,330.19,666.26,329.5Z" transform="translate(-573.14 -300.51)"/><path class="cls-36" d="M665.24,350.08a2.41,2.41,0,0,0-3.4.31c-3.17,3.79-10.59,13-11.19,16.25-.49,2.69,3.43,10.05,6.81,15.69l3-1.81c-3.89-5.58-4.07-10.71-5-13.08.56-1.8,5.93-7.64,10.41-13C666.69,353.39,666.26,350.94,665.24,350.08Z" transform="translate(-573.14 -300.51)"/><path class="cls-37" d="M655.66,386.49a3.24,3.24,0,0,1-2.14-1.94c-1.12-2.76.64-2,1.9-2.45.62-.21,1.52-1.66,1.87-2.07a2.15,2.15,0,0,1,3.18-.35c1,.86.78,2.17.27,3.4a5.8,5.8,0,0,1-2.74,3.19A2.56,2.56,0,0,1,655.66,386.49Z" transform="translate(-573.14 -300.51)"/><path class="cls-37" d="M675.81,346.42a12.6,12.6,0,0,1-1.43,6.44c-1.47,2.32-1.76,2.8-1.79,2.85a2.85,2.85,0,0,1-4.9-2.93s.23-.39,1.86-3a5.39,5.39,0,0,0,.5-2.22,19.14,19.14,0,0,0-.14-3.85,2.85,2.85,0,0,1,5.64-.84A23.4,23.4,0,0,1,675.81,346.42Z" transform="translate(-573.14 -300.51)"/><path class="cls-36" d="M682.79,351.48c-1.41,8.11-4.17,28.45-3.57,36.63H658.9s1.22-30.15,3.15-37.49a2,2,0,0,1,1.94-1.49h16.82A2,2,0,0,1,682.79,351.48Z" transform="translate(-573.14 -300.51)"/><path class="cls-38" d="M678.34,401.34s2.47-4.54.88-13.23H658.9a132,132,0,0,0,.18,13.23Z" transform="translate(-573.14 -300.51)"/><path class="cls-38" d="M680.58,429.71c-1.12-7.45-.81-29.57-1.27-32.12-.4-2.2-3.83-2.09-6.06-2s-4.34,3.07-4.25,5.31c0,.9,2.68,22.12,3.87,30,.86,5.68,4.61,20.59,6,27.25l5.14-.59C683,450.87,681.44,435.38,680.58,429.71Z" transform="translate(-573.14 -300.51)"/><path class="cls-38" d="M669.18,429.67c-.61-7.63-.88-29.2-.89-29.42-.09-2.24-3.11-3.67-5.34-3.6a4.07,4.07,0,0,0-3.9,4.22c0,.9.91,22.12,2.1,30,.86,5.68,2.93,21.1,4.56,27.79l4.62-.59C669.3,451.42,669.64,435.39,669.18,429.67Z" transform="translate(-573.14 -300.51)"/><path class="cls-36" d="M682.87,350.51a2.41,2.41,0,0,0-3.37-.52,3.25,3.25,0,0,0-.62,4c4.33,5.94,8.83,12.94,9.3,14.86-4.3,3.47-2.26,5.79-10.56,11.44l2.13,2.72c11.77-9.9,13.63-13.19,13.65-14.06C693.49,365.59,686.84,356,682.87,350.51Z" transform="translate(-573.14 -300.51)"/><path class="cls-39" d="M675.81,346.42a9,9,0,0,1-4.6,1.25,7.45,7.45,0,0,1-1.16-.08,19.14,19.14,0,0,0-.14-3.85,2.85,2.85,0,0,1,5.64-.84A23.4,23.4,0,0,1,675.81,346.42Z" transform="translate(-573.14 -300.51)"/><path class="cls-37" d="M662.84,337.27c0,5,3.69,9.3,8.7,9.3,4.27,0,9.08-4.43,9.08-9.44a9.08,9.08,0,0,0-9.08-9.08C666.53,328.05,662.84,332.26,662.84,337.27Z" transform="translate(-573.14 -300.51)"/><path class="cls-37" d="M681.86,386.43a3.42,3.42,0,0,1-1.94-.69,8.59,8.59,0,0,1-2.65-2.36,2.45,2.45,0,0,1,3.8-3.08c.42.49,1.15,1.59,1.76,1.76,1.92.54,2.71,1.1,2,2.22S682.83,386.42,681.86,386.43Z" transform="translate(-573.14 -300.51)"/><path class="cls-2" d="M677.86,329.5c-1.85-.33-5.65,4-.38,8.58,2.9,2.54,4.07-.76,4.25-3S681.67,330.19,677.86,329.5Z" transform="translate(-573.14 -300.51)"/><path class="cls-2" d="M672.94,326.08c3.52-1.22,7.77,2.65,6,4.08-.79.62-.75.53-2.75,1.12s-10.37,1.25-12.44.25-2.07-4.63,1.59-5.7C665.32,325.83,665.36,328.71,672.94,326.08Z" transform="translate(-573.14 -300.51)"/><path class="cls-37" d="M681.93,338.6a3.27,3.27,0,0,1-1.16,2.51,1.31,1.31,0,0,1-2.13-1v-3a1.31,1.31,0,0,1,2.13-1A3.27,3.27,0,0,1,681.93,338.6Z" transform="translate(-573.14 -300.51)"/><path class="cls-15" d="M674.94,361.24l-4.51-5a.88.88,0,0,0-1.26-.06l-5.54,5.05H666l-.43,4.38a.89.89,0,0,0,.89,1h4.82a.9.9,0,0,0,.89-.81l.44-4.55Z" transform="translate(-573.14 -300.51)"/><path class="cls-37" d="M667.68,349.13c-.47,1.64,1.08,2.61,3.79,2.22a13.07,13.07,0,0,0,5.49-2.22Z" transform="translate(-573.14 -300.51)"/><path class="cls-40" d="M681.92,458.71c0-.23-3.57-22.82-4.12-30.09-.57-7.65-1.61-27-1.61-30v-10.9h.5v10.9c0,3,1,22.31,1.61,29.95.54,7.25,4.08,29.82,4.11,30.05Z" transform="translate(-573.14 -300.51)"/><rect class="cls-40" x="95.25" y="87.22" width="0.5" height="13.74"/><path class="cls-40" d="M668.64,398.58a2.5,2.5,0,0,1-2.5-2.5v-8.35h.5v8.35a2,2,0,0,0,2,2Z" transform="translate(-573.14 -300.51)"/><path class="cls-41" d="M710.12,337.87c-3.58-3.25-10.41-1.32-11.81,3.48s.59,6.36,2.27,9.84-1.75,8.73-1.75,8.73,10.56-.73,10.55-10C709.37,344.08,714.47,341.83,710.12,337.87Z" transform="translate(-573.14 -300.51)"/><path class="cls-37" d="M712.48,371.46a1.8,1.8,0,0,1-.91.26,1.77,1.77,0,0,1-1.53-.87s-.3-.49-1.83-2.91c-1.24-2-1.35-5.08-1.24-7.17a21.48,21.48,0,0,1,.21-2.17,1.78,1.78,0,1,1,3.52.52,18.68,18.68,0,0,0-.19,2.46,9.1,9.1,0,0,0,.72,4.46l1.87,3A1.79,1.79,0,0,1,712.48,371.46Z" transform="translate(-573.14 -300.51)"/><path class="cls-37" d="M711.71,401.12c0,.71-.32,13.55-.9,23.12,0,.1,0,.2,0,.3-.18,2.69-.52,5.3-.79,7-1.19,7.89-6.86,29.16-7.07,30.07l-2.14-.17c.06-.22.24-21.64,2.72-30.91a34.36,34.36,0,0,0,.56-5.85c0-.11,0-.22,0-.33.59-9.45.64-23.19.65-23.36a3,3,0,0,1,3-3h0C709.41,398,711.71,399.47,711.71,401.12Z" transform="translate(-573.14 -300.51)"/><path class="cls-37" d="M721.26,401.16c0,.7-.56,13.62-1.35,23.14a.28.28,0,0,0,0,.09c-.23,2.79-.48,5.28-.75,7.08-.92,6.09-5.61,23.62-6.59,29.92l-2.18-.46c0-18,1.66-25.43,2.72-29.69.37-1.48.21-4.35.14-6.76a1.93,1.93,0,0,1,0-.24c-.28-10,.16-17.92.1-22.77.07-1.66,3.36-3.46,5-3.43A3,3,0,0,1,721.26,401.16Z" transform="translate(-573.14 -300.51)"/><path class="cls-39" d="M710.7,359.12a18.68,18.68,0,0,0-.19,2.46,8.91,8.91,0,0,1-3.54-.81,21.48,21.48,0,0,1,.21-2.17,1.78,1.78,0,1,1,3.52.52Z" transform="translate(-573.14 -300.51)"/><path class="cls-37" d="M719.06,350.88c-.81,5.07-3.44,9.93-8.52,9.93s-8.85-4.53-8.85-9.61,3.49-9.52,8.57-9.52S719.87,345.87,719.06,350.88Z" transform="translate(-573.14 -300.51)"/><path class="cls-37" d="M725.63,394.39c-.89-.27-1.59.26-2.65-1.06,3.27-5.48,6-8.44,5.16-15.49-.62-4.95-8.32-13.63-9.19-14.61a1.78,1.78,0,1,0-2.65,2.39c3,3.35,7.94,9.76,8.3,12.66,1,7.89-4.36,14.62-4.41,14.68a.41.41,0,0,0-.07.11l-.1.15-.08.15-.06.17a.94.94,0,0,0,0,.16,1.16,1.16,0,0,0,0,.18V394a.54.54,0,0,0,0,.18.88.88,0,0,0,0,.16.85.85,0,0,0,0,.17.75.75,0,0,0,0,.16,1.11,1.11,0,0,0,.07.16,1.09,1.09,0,0,0,.08.15l.1.15.12.12a.48.48,0,0,0,.09.11l.07.06h0a9.6,9.6,0,0,0,2.85,1.8,1.91,1.91,0,0,0,.65.12,3,3,0,0,0,2.32-1.33C726.63,395.15,726.57,394.68,725.63,394.39Z" transform="translate(-573.14 -300.51)"/><path class="cls-39" d="M711.71,401.12c0,.71-.32,13.55-.9,23.12,0,.1,0,.2,0,.3l-6.72.18c0-.11,0-.22,0-.33.59-9.45.64-23.19.65-23.36a3,3,0,0,1,3-3h0C709.41,398,711.71,399.47,711.71,401.12Z" transform="translate(-573.14 -300.51)"/><path class="cls-39" d="M721.26,401.16c0,.7-.56,13.62-1.35,23.14l-6.67.18a1.93,1.93,0,0,1,0-.24c-.28-10,.16-17.92.1-22.77.07-1.66,3.36-3.46,5-3.43A3,3,0,0,1,721.26,401.16Z" transform="translate(-573.14 -300.51)"/><path class="cls-2" d="M703.89,422.13s-4.74-22.14.82-30.1h17.36s-.59,26.53-1.43,30.1Z" transform="translate(-573.14 -300.51)"/><path class="cls-38" d="M722,391c0,.64.07,1,.07,1H704.71l.06-1c0-.1,0-.2,0-.3,0-1.21,0-2.46-.07-3.74,0-.13,0-.26,0-.4,0-.47-.06-.95-.11-1.43,0-.14,0-.27,0-.41-.12-1.19-.27-2.4-.45-3.62,0-.11,0-.22-.05-.33-.07-.5-.15-1-.23-1.5a2.38,2.38,0,0,0,0-.26c-.2-1.26-.43-2.53-.67-3.78a0,0,0,0,0,0,0c-.11-.56-.21-1.13-.32-1.69,0,0,0-.07,0-.11-.24-1.2-.47-2.39-.71-3.54,0-.17-.07-.33-.1-.49-.07-.38-.15-.76-.22-1.13s-.09-.47-.13-.7c-.18-.91-.34-1.79-.49-2.65a1.1,1.1,0,0,1,0-.18,2,2,0,0,1,.27-1.21,2,2,0,0,1,1.76-1h13.81a2,2,0,0,1,1.75,1,1.79,1.79,0,0,1,.22.51c.06.25.13.51.18.78.16.68.32,1.45.47,2.28a3.79,3.79,0,0,1,1,.47,4.13,4.13,0,0,1,.91.81,3.67,3.67,0,0,1,.62,1,3.48,3.48,0,0,1,.21.62,4.17,4.17,0,0,1,.11.94,4,4,0,0,1-.84,2.47.53.53,0,0,1-.12.14,3.68,3.68,0,0,1-.84.78c0,.28.07.57.09.86a.09.09,0,0,1,0,.05c.14,1.23.27,2.48.39,3.71l0,.33c0,.48.09.95.13,1.41,0,.14,0,.28,0,.42.1,1.21.21,2.38.29,3.48,0,.19,0,.37.05.55,0,.44.07.86.09,1.26,0,.19,0,.38.05.57.11,1.42.19,2.61.24,3.48C722,390.68,722,390.86,722,391Z" transform="translate(-573.14 -300.51)"/><path class="cls-42" d="M722,390.47q-8.6-.17-17.18.26c0-1.21,0-2.46-.07-3.74,0-.13,0-.26,0-.4q8.49-.39,17-.17c0,.19,0,.38.05.57C721.83,388.41,721.91,389.6,722,390.47Z" transform="translate(-573.14 -300.51)"/><path class="cls-42" d="M721.53,384.61q-8.5-.23-17,.14c-.12-1.19-.27-2.4-.45-3.62,0-.11,0-.22-.05-.33,5.71-.23,11.44-.26,17.16-.09,0,.14,0,.28,0,.42C721.34,382.34,721.45,383.51,721.53,384.61Z" transform="translate(-573.14 -300.51)"/><path class="cls-42" d="M721,379q-8.64-.27-17.28.07c-.2-1.26-.43-2.53-.67-3.78a0,0,0,0,0,0,0q8.77-.32,17.56,0a.09.09,0,0,1,0,.05C720.79,376.49,720.92,377.74,721,379Z" transform="translate(-573.14 -300.51)"/><path class="cls-42" d="M722.35,371a4,4,0,0,1-.84,2.47.53.53,0,0,1-.12.14q-9.32-.36-18.63,0s0-.07,0-.11c-.24-1.2-.47-2.39-.71-3.54q10.1-.33,20.21.13A4.17,4.17,0,0,1,722.35,371Z" transform="translate(-573.14 -300.51)"/><path class="cls-42" d="M721.41,368.38q-9.84-.44-19.7-.11c0-.23-.09-.47-.13-.7-.18-.91-.34-1.79-.49-2.65a1.1,1.1,0,0,1,0-.18q9-.28,18,.08c.16.68.32,1.45.47,2.28a3.79,3.79,0,0,1,1,.47A4.13,4.13,0,0,1,721.41,368.38Z" transform="translate(-573.14 -300.51)"/><path class="cls-37" d="M706.18,394.85a.83.83,0,0,0,.08-.22.42.42,0,0,0,0-.1,1.85,1.85,0,0,0,0-.23s0-.07,0-.11a1.92,1.92,0,0,0,0-.24s0-.07,0-.1a1.89,1.89,0,0,0-.05-.23.61.61,0,0,0,0-.11,1.42,1.42,0,0,0-.08-.18l-.06-.13-.1-.15a1.71,1.71,0,0,0-.11-.14l0,0a1.31,1.31,0,0,0-.12-.11l-.1-.09c-.09-.07-8-6.84-7.85-14.59.06-3.38,4.85-10.26,6.52-12.64a1.78,1.78,0,0,0-2.92-2.05c-.67,1-6.53,9.41-7.13,14.26-.89,7.22,6.25,13,9.19,15.84-1.18,1.13-2,.69-2.72.79-1,.15-1,.86-.82,1.82a3.1,3.1,0,0,0,.6,1.34,1.38,1.38,0,0,0,1.75.27,15.35,15.35,0,0,0,3.4-2.24h0a.27.27,0,0,1,.08-.07l.16-.18,0-.05h0a1.35,1.35,0,0,0,.14-.22A.41.41,0,0,0,706.18,394.85Z" transform="translate(-573.14 -300.51)"/><path class="cls-36" d="M705.49,346.63c3.7,2.12,12.39,1.56,14,4.25,0,0,2.6-7.18-6.72-10.5C704.17,337.32,700.35,343.67,705.49,346.63Z" transform="translate(-573.14 -300.51)"/><path class="cls-36" d="M706,342.79c2.41.86-1,8.69-4.91,8.69C699.41,351.48,699.2,340.38,706,342.79Z" transform="translate(-573.14 -300.51)"/><path class="cls-37" d="M700.1,352.49a2.94,2.94,0,0,0,1,2.25,1.17,1.17,0,0,0,1.9-.92v-2.67a1.17,1.17,0,0,0-1.9-.92A3,3,0,0,0,700.1,352.49Z" transform="translate(-573.14 -300.51)"/><polygon class="cls-43" points="133.44 119.45 133 119.2 145.92 95.78 146.36 96.02 133.44 119.45"/><polygon class="cls-43" points="139.92 119.41 139.44 119.24 146.41 98.85 146.89 99.01 139.92 119.41"/><path class="cls-27" d="M705.05,362.53l.14.2a8.72,8.72,0,0,0,1.71,1.73,7.89,7.89,0,0,0,4.46,1.73,2.5,2.5,0,0,0,1.81-.62c.71-.68.7-1.81,0-3Z" transform="translate(-573.14 -300.51)"/><path class="cls-37" d="M705.69,362.53a7.3,7.3,0,0,0,1.54,1.56c2,1.55,4.46,2,5.44,1.08.61-.59.52-1.59-.12-2.64Z" transform="translate(-573.14 -300.51)"/><path class="cls-42" d="M703.09,461a.79.79,0,0,1,.4.16,7.69,7.69,0,0,0,3,1.85c1.26.33.76.94-.47.94-1.82,0-2.55-.07-3.36,0s-.28,0-2.27,0c-.92,0-.61-1.79-.13-2.86a.63.63,0,0,1,.72-.38Z" transform="translate(-573.14 -300.51)"/><path class="cls-42" d="M712.67,461a.79.79,0,0,1,.4.16,12.4,12.4,0,0,0,4.32,2c1.29.19,1.36.83-.46.83s-3.15-.16-4-.14a23.72,23.72,0,0,1-2.59.14c-1.53,0-1-1.95-.5-2.86a.68.68,0,0,1,.72-.38Z" transform="translate(-573.14 -300.51)"/></g></g></svg>