<svg id="Слой_1" data-name="Слой 1" xmlns="http://www.w3.org/2000/svg" xmlns:xlink="http://www.w3.org/1999/xlink" viewBox="0 0 208.31 188.17"><defs><style>.cls-1{fill:none;}.cls-2{fill:url(#Degradado_sin_nombre_36);}.cls-3{fill:url(#Безымянный_градиент_12);}.cls-4{fill:url(#Безымянный_градиент_27);}.cls-5{fill:url(#Безымянный_градиент_27-2);}.cls-6{fill:url(#Безымянный_градиент_27-3);}.cls-7{fill:url(#Безымянный_градиент_27-4);}.cls-8{fill:url(#Безымянный_градиент_27-5);}.cls-9{fill:url(#Безымянный_градиент_27-6);}.cls-10{fill:url(#Безымянный_градиент_27-7);}.cls-11{fill:url(#Безымянный_градиент_27-8);}.cls-12{fill:url(#Безымянный_градиент_74);}.cls-13{fill:url(#Безымянный_градиент_74-2);}.cls-14{fill:url(#Безымянный_градиент_74-3);}.cls-15{fill:url(#Безымянный_градиент_74-4);}.cls-16{fill:url(#Безымянный_градиент_74-5);}.cls-17{fill:url(#Безымянный_градиент_74-6);}.cls-18{fill:url(#Безымянный_градиент_74-7);}.cls-19{fill:url(#Безымянный_градиент_74-8);}.cls-20{fill:url(#Безымянный_градиент_74-9);}.cls-21{fill:#e27575;}.cls-21,.cls-65,.cls-72{opacity:0.3;}.cls-21,.cls-28,.cls-30,.cls-65,.cls-72{isolation:isolate;}.cls-22{fill:#fff;}.cls-23{fill:url(#Безымянный_градиент_18);}.cls-24{fill:url(#Безымянный_градиент_37);}.cls-25{fill:url(#Безымянный_градиент_61);}.cls-26{fill:url(#Безымянный_градиент_37-2);}.cls-27{fill:url(#Безымянный_градиент_37-3);}.cls-28{opacity:0.2;fill:url(#Безымянный_градиент_74-10);}.cls-29{fill:url(#Безымянный_градиент_62);}.cls-30{fill:#91c1fd;opacity:0.1;}.cls-31{fill:url(#Безымянный_градиент_65);}.cls-32{fill:#e1e1e1;}.cls-33{fill:url(#Безымянный_градиент_74-11);}.cls-34{fill:url(#Безымянный_градиент_27-9);}.cls-35{fill:#d8fcaa;}.cls-36{fill:url(#Безымянный_градиент_65-2);}.cls-37{fill:url(#Безымянный_градиент_65-3);}.cls-38{fill:url(#Безымянный_градиент_65-4);}.cls-39{fill:url(#Безымянный_градиент_73);}.cls-40{fill:url(#Безымянный_градиент_73-2);}.cls-41{fill:url(#Безымянный_градиент_73-3);}.cls-42{fill:url(#Безымянный_градиент_74-12);}.cls-43{fill:url(#Безымянный_градиент_37-4);}.cls-44{fill:url(#Безымянный_градиент_37-5);}.cls-45{fill:url(#Безымянный_градиент_37-6);}.cls-46{fill:url(#Безымянный_градиент_65-5);}.cls-47{fill:url(#Безымянный_градиент_62-2);}.cls-48{fill:url(#Безымянный_градиент_73-4);}.cls-49{fill:url(#Безымянный_градиент_73-5);}.cls-50{fill:#d49573;}.cls-51{fill:url(#Безымянный_градиент_73-6);}.cls-52{fill:#ebad85;}.cls-53{fill:url(#Безымянный_градиент_73-7);}.cls-54{fill:url(#Безымянный_градиент_73-8);}.cls-55{fill:url(#Безымянный_градиент_65-6);}.cls-56{fill:url(#Безымянный_градиент_65-7);}.cls-57{fill:url(#Безымянный_градиент_62-3);}.cls-58{fill:url(#Безымянный_градиент_62-4);}.cls-59{fill:url(#Безымянный_градиент_71);}.cls-60{fill:url(#Безымянный_градиент_71-2);}.cls-61{fill:url(#Безымянный_градиент_71-3);}.cls-62{fill:url(#Безымянный_градиент_71-4);}.cls-63{fill:url(#Безымянный_градиент_71-5);}.cls-64{clip-path:url(#clip-path);}.cls-65{fill:url(#Безымянный_градиент_54);}.cls-66{fill:url(#Безымянный_градиент_65-8);}.cls-67{fill:url(#Безымянный_градиент_65-9);}.cls-68{fill:url(#Безымянный_градиент_65-10);}.cls-69{fill:url(#Безымянный_градиент_65-11);}.cls-70{fill:url(#Безымянный_градиент_71-6);}.cls-71{fill:url(#Безымянный_градиент_62-5);}.cls-72{fill:url(#Безымянный_градиент_61-2);}.cls-73{fill:url(#Безымянный_градиент_62-6);}.cls-74{fill:url(#Безымянный_градиент_73-9);}.cls-75{fill:url(#Безымянный_градиент_65-12);}.cls-76{fill:url(#Безымянный_градиент_65-13);}.cls-77{fill:url(#Безымянный_градиент_73-10);}.cls-78{fill:url(#Безымянный_градиент_71-7);}.cls-79{fill:url(#Безымянный_градиент_71-8);}.cls-80{fill:url(#Безымянный_градиент_71-9);}.cls-81{fill:url(#Безымянный_градиент_71-10);}.cls-82{fill:url(#Безымянный_градиент_71-11);}.cls-83{fill:url(#Безымянный_градиент_74-13);}.cls-84{fill:url(#Безымянный_градиент_73-11);}.cls-85{fill:url(#Безымянный_градиент_74-14);}</style><linearGradient id="Degradado_sin_nombre_36" x1="579.69" y1="382.61" x2="775.54" y2="382.61" gradientUnits="userSpaceOnUse"><stop offset="0" stop-color="#2acaff"/><stop offset="1" stop-color="#2adfc3"/></linearGradient><linearGradient id="Безымянный_градиент_12" x1="599.9" y1="394.89" x2="787.72" y2="394.89" gradientUnits="userSpaceOnUse"><stop offset="0" stop-color="#76aadb"/><stop offset="1" stop-color="#4a72b2"/></linearGradient><linearGradient id="Безымянный_градиент_27" x1="1019.97" y1="-23.73" x2="1005.44" y2="14.67" gradientTransform="matrix(0.86, -0.51, -0.51, -0.86, -287.17, 883.62)" gradientUnits="userSpaceOnUse"><stop offset="0" stop-color="#488063"/><stop offset="1" stop-color="#c0ff4c"/></linearGradient><linearGradient id="Безымянный_градиент_27-2" x1="465.98" y1="-20.68" x2="478.08" y2="1.38" gradientTransform="translate(998.26 130.55) rotate(149.33)" xlink:href="#Безымянный_градиент_27"/><linearGradient id="Безымянный_градиент_27-3" x1="474.61" y1="-8.7" x2="476.46" y2="-5.33" gradientTransform="translate(998.26 130.55) rotate(149.33)" xlink:href="#Безымянный_градиент_27"/><linearGradient id="Безымянный_градиент_27-4" x1="476.32" y1="-3.88" x2="477.49" y2="-0.82" gradientTransform="translate(998.26 130.55) rotate(149.33)" xlink:href="#Безымянный_градиент_27"/><linearGradient id="Безымянный_градиент_27-5" x1="471.09" y1="-7.21" x2="471.09" y2="-4.33" gradientTransform="translate(998.26 130.55) rotate(149.33)" xlink:href="#Безымянный_градиент_27"/><linearGradient id="Безымянный_градиент_27-6" x1="473.25" y1="-14.59" x2="475.7" y2="-10.12" gradientTransform="translate(998.26 130.55) rotate(149.33)" xlink:href="#Безымянный_градиент_27"/><linearGradient id="Безымянный_градиент_27-7" x1="468.23" y1="-12.58" x2="468.24" y2="-8.01" gradientTransform="translate(998.26 130.55) rotate(149.33)" xlink:href="#Безымянный_градиент_27"/><linearGradient id="Безымянный_градиент_27-8" x1="472.75" y1="-2.38" x2="473.24" y2="-0.19" gradientTransform="translate(998.26 130.55) rotate(149.33)" xlink:href="#Безымянный_градиент_27"/><linearGradient id="Безымянный_градиент_74" x1="1203.29" y1="119.23" x2="1183" y2="172.87" gradientTransform="matrix(0.99, -0.16, -0.16, -0.99, -557.48, 687.89)" gradientUnits="userSpaceOnUse"><stop offset="0" stop-color="#2f2bc9"/><stop offset="0.65" stop-color="#cd2366"/><stop offset="1" stop-color="#e1b993"/></linearGradient><linearGradient id="Безымянный_градиент_74-2" x1="284.48" y1="121.22" x2="301.38" y2="152.03" gradientTransform="matrix(-0.99, 0.16, -0.16, -0.99, 915.97, 456.18)" xlink:href="#Безымянный_градиент_74"/><linearGradient id="Безымянный_градиент_74-3" x1="296.51" y1="137.96" x2="299.08" y2="142.67" gradientTransform="matrix(-0.99, 0.16, -0.16, -0.99, 915.97, 456.18)" xlink:href="#Безымянный_градиент_74"/><linearGradient id="Безымянный_градиент_74-4" x1="298.36" y1="144.71" x2="299.99" y2="148.98" gradientTransform="matrix(-0.99, 0.16, -0.16, -0.99, 915.97, 456.18)" xlink:href="#Безымянный_градиент_74"/><linearGradient id="Безымянный_градиент_74-5" x1="289.95" y1="139.39" x2="289.96" y2="143.43" gradientTransform="matrix(-0.99, 0.16, -0.16, -0.99, 915.97, 456.18)" xlink:href="#Безымянный_градиент_74"/><linearGradient id="Безымянный_градиент_74-6" x1="294.52" y1="129.79" x2="297.95" y2="136.03" gradientTransform="matrix(-0.99, 0.16, -0.16, -0.99, 915.97, 456.18)" xlink:href="#Безымянный_градиент_74"/><linearGradient id="Безымянный_градиент_74-7" x1="285.77" y1="131.9" x2="285.8" y2="138.29" gradientTransform="matrix(-0.99, 0.16, -0.16, -0.99, 915.97, 456.18)" xlink:href="#Безымянный_градиент_74"/><linearGradient id="Безымянный_градиент_74-8" x1="292.78" y1="146.66" x2="293.47" y2="149.72" gradientTransform="matrix(-0.99, 0.16, -0.16, -0.99, 915.97, 456.18)" xlink:href="#Безымянный_градиент_74"/><linearGradient id="Безымянный_градиент_74-9" x1="1275.43" y1="2.96" x2="1266.07" y2="81.39" gradientTransform="matrix(0.99, -0.14, -0.14, -0.99, -495.53, 601.88)" xlink:href="#Безымянный_градиент_74"/><linearGradient id="Безымянный_градиент_18" x1="1211.02" y1="62.02" x2="1220.9" y2="54.11" gradientTransform="matrix(1, 0, 0, -1, -564.04, 488.36)" gradientUnits="userSpaceOnUse"><stop offset="0" stop-color="#2f2bc9"/><stop offset="0.72" stop-color="#9e2582"/><stop offset="1" stop-color="#cd2366"/></linearGradient><linearGradient id="Безымянный_градиент_37" x1="1206.72" y1="51.74" x2="1223.38" y2="16.84" gradientTransform="matrix(1, 0, 0, -1, -564.04, 488.36)" gradientUnits="userSpaceOnUse"><stop offset="0" stop-color="#2f2bc9"/><stop offset="1" stop-color="#cd2366"/></linearGradient><linearGradient id="Безымянный_градиент_61" x1="1218.78" y1="-2.16" x2="1218.78" y2="150.29" gradientTransform="matrix(1, 0, 0, -1, -564.04, 488.36)" gradientUnits="userSpaceOnUse"><stop offset="0" stop-color="#64a4ec"/><stop offset="1" stop-color="#caffff"/></linearGradient><linearGradient id="Безымянный_градиент_37-2" x1="1223.71" y1="109.13" x2="1306.45" y2="141.47" gradientTransform="matrix(1, 0.03, 0.03, -1, -576.66, 463.07)" xlink:href="#Безымянный_градиент_37"/><linearGradient id="Безымянный_градиент_37-3" x1="1193.06" y1="104.65" x2="1241.71" y2="120.45" gradientTransform="matrix(1, 0.03, 0.03, -1, -576.66, 463.07)" xlink:href="#Безымянный_градиент_37"/><linearGradient id="Безымянный_градиент_74-10" x1="1085.23" y1="18.14" x2="1297.08" y2="105.25" gradientTransform="matrix(1, 0, 0, -1, -564.04, 488.36)" xlink:href="#Безымянный_градиент_74"/><linearGradient id="Безымянный_градиент_62" x1="1315.17" y1="195.9" x2="1314.12" y2="246.63" gradientTransform="matrix(0.99, 0.14, 0.14, -0.99, -618.24, 372.02)" gradientUnits="userSpaceOnUse"><stop offset="0" stop-color="#311087"/><stop offset="1" stop-color="#65affc"/></linearGradient><linearGradient id="Безымянный_градиент_65" x1="1166.75" y1="159.99" x2="1211.03" y2="191.53" gradientTransform="matrix(1, 0, 0, -1, -564.04, 488.36)" gradientUnits="userSpaceOnUse"><stop offset="0" stop-color="#d41747"/><stop offset="1" stop-color="#ecb334"/></linearGradient><linearGradient id="Безымянный_градиент_74-11" x1="1129.75" y1="71.28" x2="1138.83" y2="84.27" gradientTransform="matrix(0.98, -0.2, -0.2, -0.98, -456.63, 614.6)" xlink:href="#Безымянный_градиент_74"/><linearGradient id="Безымянный_градиент_27-9" x1="1387.28" y1="300.95" x2="1413.38" y2="339.06" gradientTransform="matrix(0.94, 0.34, 0.34, -0.94, -646.96, 158.66)" xlink:href="#Безымянный_градиент_27"/><linearGradient id="Безымянный_градиент_65-2" x1="1343.04" y1="234.6" x2="1343.04" y2="242.15" gradientTransform="matrix(0.99, 0.14, 0.14, -0.99, -618.78, 361.63)" xlink:href="#Безымянный_градиент_65"/><linearGradient id="Безымянный_градиент_65-3" x1="1343.05" y1="221.27" x2="1343.05" y2="237.11" gradientTransform="matrix(0.99, 0.14, 0.14, -0.99, -618.78, 361.63)" xlink:href="#Безымянный_градиент_65"/><linearGradient id="Безымянный_градиент_65-4" x1="1343.06" y1="234.6" x2="1343.06" y2="242.15" gradientTransform="matrix(0.99, 0.14, 0.14, -0.99, -618.78, 361.63)" xlink:href="#Безымянный_градиент_65"/><linearGradient id="Безымянный_градиент_73" x1="977.35" y1="-214.76" x2="977.35" y2="-208.06" gradientTransform="matrix(0.84, -0.54, -0.54, -0.84, -328.58, 790.1)" gradientUnits="userSpaceOnUse"><stop offset="0" stop-color="#d41747"/><stop offset="1" stop-color="#86005b"/></linearGradient><linearGradient id="Безымянный_градиент_73-2" x1="977.35" y1="-226.6" x2="977.35" y2="-212.54" xlink:href="#Безымянный_градиент_73"/><linearGradient id="Безымянный_градиент_73-3" x1="977.34" y1="-214.76" x2="977.34" y2="-208.06" xlink:href="#Безымянный_градиент_73"/><linearGradient id="Безымянный_градиент_74-12" x1="1156.57" y1="73.09" x2="1172.88" y2="44.98" gradientTransform="matrix(1, 0, 0, -1, -564.04, 488.36)" xlink:href="#Безымянный_градиент_74"/><linearGradient id="Безымянный_градиент_37-4" x1="1162.05" y1="52.95" x2="1179.87" y2="39.56" xlink:href="#Безымянный_градиент_37"/><linearGradient id="Безымянный_градиент_37-5" x1="1161.68" y1="52.44" x2="1179.48" y2="39.04" xlink:href="#Безымянный_градиент_37"/><linearGradient id="Безымянный_градиент_37-6" x1="1160.28" y1="50.59" x2="1178.1" y2="37.2" xlink:href="#Безымянный_градиент_37"/><linearGradient id="Безымянный_градиент_65-5" x1="1228.23" y1="31.24" x2="1255.86" y2="64.96" xlink:href="#Безымянный_градиент_65"/><linearGradient id="Безымянный_градиент_62-2" x1="1145.57" y1="112.32" x2="1204.6" y2="159.2" gradientTransform="matrix(1, 0, 0, -1, -564.04, 488.36)" xlink:href="#Безымянный_градиент_62"/><linearGradient id="Безымянный_градиент_73-4" x1="197.5" y1="326.81" x2="209.87" y2="337.08" gradientTransform="translate(704.79 779.24) rotate(-154.46)" xlink:href="#Безымянный_градиент_73"/><linearGradient id="Безымянный_градиент_73-5" x1="341.57" y1="0.11" x2="353.95" y2="10.38" gradientTransform="translate(994.81 349.36) rotate(178.28)" xlink:href="#Безымянный_градиент_73"/><linearGradient id="Безымянный_градиент_73-6" x1="1205.99" y1="154.17" x2="1209.52" y2="134.64" gradientTransform="matrix(1, 0, 0, -1, -564.04, 488.36)" xlink:href="#Безымянный_градиент_73"/><linearGradient id="Безымянный_градиент_73-7" x1="1155.67" y1="72.72" x2="1148.8" y2="55.6" gradientTransform="matrix(0.98, -0.19, -0.19, -0.98, -472.04, 617.9)" xlink:href="#Безымянный_градиент_73"/><linearGradient id="Безымянный_градиент_73-8" x1="551.78" y1="-71.15" x2="546.97" y2="-83.14" gradientTransform="matrix(0.23, -0.97, -0.97, -0.23, 443.15, 858.98)" xlink:href="#Безымянный_градиент_73"/><linearGradient id="Безымянный_градиент_65-6" x1="399.65" y1="32.06" x2="400.73" y2="45.35" gradientTransform="translate(1021.82 330.3) rotate(169.03)" xlink:href="#Безымянный_градиент_65"/><linearGradient id="Безымянный_градиент_65-7" x1="413.61" y1="24.19" x2="414.68" y2="37.48" gradientTransform="translate(1038.79 393.77) rotate(176.57)" xlink:href="#Безымянный_градиент_65"/><linearGradient id="Безымянный_градиент_62-3" x1="345.29" y1="-66.37" x2="404.32" y2="-19.48" gradientTransform="matrix(-0.92, 0.4, -0.4, -0.92, 1055.94, 155.14)" xlink:href="#Безымянный_градиент_62"/><linearGradient id="Безымянный_градиент_62-4" x1="346.35" y1="-67.7" x2="405.39" y2="-20.82" gradientTransform="matrix(-0.92, 0.4, -0.4, -0.92, 1055.94, 155.14)" xlink:href="#Безымянный_градиент_62"/><linearGradient id="Безымянный_градиент_71" x1="1276.49" y1="545.97" x2="1238.79" y2="549.73" gradientTransform="matrix(0.74, 0.67, 0.67, -0.74, -677.72, -87.48)" gradientUnits="userSpaceOnUse"><stop offset="0" stop-color="#00005f"/><stop offset="1" stop-color="#3965fb"/></linearGradient><linearGradient id="Безымянный_градиент_71-2" x1="1145.45" y1="47.3" x2="1131.29" y2="44.54" gradientTransform="matrix(0.98, -0.19, -0.19, -0.98, -472.04, 617.9)" xlink:href="#Безымянный_градиент_71"/><linearGradient id="Безымянный_градиент_71-3" x1="1144.06" y1="54.39" x2="1129.9" y2="51.62" gradientTransform="matrix(0.98, -0.19, -0.19, -0.98, -472.04, 617.9)" xlink:href="#Безымянный_градиент_71"/><linearGradient id="Безымянный_градиент_71-4" x1="1125.01" y1="28.98" x2="1155.84" y2="77.74" gradientTransform="matrix(0.98, -0.19, -0.19, -0.98, -472.04, 617.9)" xlink:href="#Безымянный_градиент_71"/><linearGradient id="Безымянный_градиент_71-5" x1="1130.32" y1="25.63" x2="1161.14" y2="74.39" gradientTransform="matrix(0.98, -0.19, -0.19, -0.98, -472.04, 617.9)" xlink:href="#Безымянный_градиент_71"/><clipPath id="clip-path" transform="translate(-579.69 -296.99)"><path class="cls-1" d="M650,350.56c-.08-.25-1.14-2.56-1.27-2.85a17.33,17.33,0,0,1-.86-2.31c-.14-.44-.27-.87-.39-1.33a20.23,20.23,0,0,0,2.53-1.88,1.4,1.4,0,0,0,.32-.47.73.73,0,0,0,.12-.35v-.21h0a26.55,26.55,0,0,0-1.29-6.76,31.42,31.42,0,0,0-1.49-4.35,1.6,1.6,0,0,0-.72-.86,2.89,2.89,0,0,0-1.45-.52c.49-3.78-.07-7-3-9.49-1.74-1.46-6.52-3.12-8.24,3.58S621.44,333,624.19,340.33a7.71,7.71,0,0,0,3.93,4.15l-.22.11a4.69,4.69,0,0,0-.75,0c-.75.1-1.11.62-1,.81l.06.1a3.61,3.61,0,0,0-.8-.13,1.41,1.41,0,0,0-.81.09,1.44,1.44,0,0,0-.87.75,3.78,3.78,0,0,0-.5,1.53c-.49,3.77-.46,7.41-1.78,14.62h0a.16.16,0,0,1,0,.1,3.85,3.85,0,0,1-1.35,1.48c-.76.54-2.5,1.05-1.46,1.19a6,6,0,0,0,2.73-.49,14.11,14.11,0,0,1,1.81-.46c.69-.13.87-.2.75-.66h0c.87-4.28,2.76-8.56,3.3-12.49,3.18,2.2,7.52,5,9.47,6.13a13,13,0,0,0,1.17.61c-2.67,2.19-5.54,4.65-7.13,6a1.78,1.78,0,0,0-.5.87,4.09,4.09,0,0,0-.36.8c-1.26,3.58-5.53,13.35-7.05,16.38h0a.51.51,0,0,0-.09.13,3.74,3.74,0,0,1-1.53,1.31c-.82.43-2.6.72-1.6,1a6.17,6.17,0,0,0,2.77-.12,10.63,10.63,0,0,1,1.86-.23c.92-.06.92-.12.74-1.15v-.09c1.39-2,8.19-11.91,9.12-16.23l.24-.12c2-1.19,13.55-6.95,14.64-7.6a6,6,0,0,0,1.48-1.17C651.32,356.73,652,355,650,350.56Zm-2.21-9.87c-.24.17-.49.36-.76.58v-2.86C647.33,339.38,647.6,340.15,647.75,340.69Zm2.1,9.9-1,.2Zm-1.82.35-.37.06Zm-3.79.72.82-.15Zm-16.38-5.5.23-.1c.46.08.81-.37,2-.86a12,12,0,0,0,8.64-1.05,56.59,56.59,0,0,1,.11,7.13C635,349.54,629.51,347,627.86,346.16Z"/></clipPath><linearGradient id="Безымянный_градиент_54" x1="516.83" y1="611.92" x2="637.01" y2="538.08" gradientTransform="matrix(0.49, -0.68, 0.48, 0.42, 103.34, 523.98)" gradientUnits="userSpaceOnUse"><stop offset="0" stop-color="#0000fa"/><stop offset="1" stop-color="#86005b"/></linearGradient><linearGradient id="Безымянный_градиент_65-8" x1="1172.9" y1="98.86" x2="1172.9" y2="119.33" gradientTransform="matrix(1, -0.06, -0.06, -1, -535.38, 528.45)" xlink:href="#Безымянный_градиент_65"/><linearGradient id="Безымянный_градиент_65-9" x1="1184.46" y1="112.33" x2="1200.47" y2="112.33" gradientTransform="matrix(1, -0.06, -0.06, -1, -535.38, 528.45)" xlink:href="#Безымянный_градиент_65"/><linearGradient id="Безымянный_градиент_65-10" x1="1171.54" y1="103.7" x2="1171.54" y2="111.65" gradientTransform="matrix(1, -0.06, -0.06, -1, -1115.06, 231.46)" xlink:href="#Безымянный_градиент_65"/><linearGradient id="Безымянный_градиент_65-11" x1="1172.72" y1="103.71" x2="1172.72" y2="111.65" gradientTransform="matrix(1, -0.06, -0.06, -1, -1115.06, 231.46)" xlink:href="#Безымянный_градиент_65"/><linearGradient id="Безымянный_градиент_71-6" x1="1259.55" y1="72.7" x2="1256.37" y2="69.41" gradientTransform="matrix(0.71, 0.71, 0.71, -0.71, -211.56, -470.89)" xlink:href="#Безымянный_градиент_71"/><linearGradient id="Безымянный_градиент_62-5" x1="1078.38" y1="928.87" x2="1094.99" y2="918.5" gradientTransform="matrix(-0.14, 0.99, 0.99, 0.14, -35.22, -833.79)" xlink:href="#Безымянный_градиент_62"/><linearGradient id="Безымянный_градиент_61-2" x1="1258.32" y1="75.59" x2="1272.45" y2="75.59" gradientTransform="matrix(0.99, -0.13, -0.13, -0.99, -508.92, 601.06)" xlink:href="#Безымянный_градиент_61"/><linearGradient id="Безымянный_градиент_62-6" x1="1053.67" y1="914.76" x2="1068.14" y2="924.31" gradientTransform="matrix(-0.14, 0.99, 0.99, 0.14, -35.22, -833.79)" xlink:href="#Безымянный_градиент_62"/><linearGradient id="Безымянный_градиент_73-9" x1="1292.41" y1="58.04" x2="1320.91" y2="64.27" gradientTransform="matrix(1, -0.06, -0.06, -1, -538.71, 538.34)" xlink:href="#Безымянный_градиент_73"/><linearGradient id="Безымянный_градиент_65-12" x1="1260.51" y1="8.42" x2="1267.42" y2="8.42" gradientTransform="matrix(1, -0.06, -0.06, -1, -538.71, 538.34)" xlink:href="#Безымянный_градиент_65"/><linearGradient id="Безымянный_градиент_65-13" x1="1289.05" y1="-9.83" x2="1293.33" y2="-9.83" gradientTransform="matrix(1, -0.06, -0.06, -1, -538.71, 538.34)" xlink:href="#Безымянный_градиент_65"/><linearGradient id="Безымянный_градиент_73-10" x1="1277.9" y1="30.5" x2="1292.66" y2="85.52" gradientTransform="matrix(1, -0.06, -0.06, -1, -538.71, 538.34)" xlink:href="#Безымянный_градиент_73"/><linearGradient id="Безымянный_градиент_71-7" x1="1437.09" y1="23.7" x2="1437.09" y2="86.84" gradientTransform="matrix(1, 0.05, 0.05, -1, -698.62, 441.55)" xlink:href="#Безымянный_градиент_71"/><linearGradient id="Безымянный_градиент_71-8" x1="1373.45" y1="-79.28" x2="1373.45" y2="-16.15" gradientTransform="matrix(0.98, -0.18, -0.18, -0.98, -613.23, 656.82)" xlink:href="#Безымянный_градиент_71"/><linearGradient id="Безымянный_градиент_71-9" x1="1479.95" y1="114.66" x2="1479.95" y2="177.8" gradientTransform="matrix(0.97, 0.23, 0.23, -0.97, -735.74, 256.83)" xlink:href="#Безымянный_градиент_71"/><linearGradient id="Безымянный_градиент_71-10" x1="1312.37" y1="-409.2" x2="1312.37" y2="-346.72" gradientTransform="matrix(1, -0.03, -0.03, -1, -597.99, 99.06)" xlink:href="#Безымянный_градиент_71"/><linearGradient id="Безымянный_градиент_71-11" x1="406.76" y1="1605.35" x2="406.76" y2="1656.31" gradientTransform="matrix(0.47, 0.88, 0.88, -0.47, -914.33, 848.58)" xlink:href="#Безымянный_градиент_71"/><linearGradient id="Безымянный_градиент_74-13" x1="1449.21" y1="113.6" x2="1435.85" y2="137.24" gradientTransform="matrix(1, 0.05, 0.05, -1, -698.62, 441.55)" xlink:href="#Безымянный_градиент_74"/><linearGradient id="Безымянный_градиент_73-11" x1="1267.11" y1="85.2" x2="1294.03" y2="60.17" gradientTransform="matrix(1, -0.06, -0.06, -1, -538.71, 538.34)" xlink:href="#Безымянный_градиент_73"/><linearGradient id="Безымянный_градиент_74-14" x1="1448.76" y1="113.35" x2="1435.39" y2="136.98" gradientTransform="matrix(1, 0.05, 0.05, -1, -698.62, 441.55)" xlink:href="#Безымянный_градиент_74"/></defs><title>about-perfomance-new</title><path class="cls-2" d="M594.57,421.47s-40.92-40,12.95-75.92,112.1-52.15,146-47.9,25.38,86-3.89,135.65S650,480.22,594.57,421.47Z" transform="translate(-579.69 -296.99)"/><path class="cls-3" d="M766.8,336.34s47.07,32.57,0,77-101.73,70.26-135.89,71.78-39.48-80.47-19-134.38S702.27,287.75,766.8,336.34Z" transform="translate(-579.69 -296.99)"/><path class="cls-4" d="M582.08,366c-2.73,1-2.38,3.28-1.22,4.34,1.64,1.5,2.73,1,1.58,4.26-.87,2.42.51,5,3.32,4.69,3.94-.48,2,3,2.46,4.83.87,3.84,3.56,2.89,8.08,1.66a9.41,9.41,0,0,0,7.44-8.14c.53-3.06.17-5.76-2.22-6.6-3.47-1.22-4.72,2.41-5.55-.71-.5-1.88-2.47-4.55-5.86-2.3S586,364.53,582.08,366Z" transform="translate(-579.69 -296.99)"/><path class="cls-5" d="M603.33,385.76l-.58-.87-1.17-1.69c-.4-.55-.86-1.08-1.26-1.62l-.65-.81c-.21-.26-.45-.51-.67-.78-.46-.5-.87-1-1.38-1.52a44.77,44.77,0,0,0-6.26-5.33,31.3,31.3,0,0,0-7.25-3.84v.08c.31.13.62.28.92.44s.61.31.87.48.6.33.87.5.59.34.87.53c.57.36,1.15.72,1.74,1.12l.86.57.81.61.81.61.78.64.79.64c.26.21.5.45.76.68l.74.68.38.33.37.35,1.43,1.44c.46.48.87,1,1.37,1.48.22.25.46.5.68.76s.42.53.63.78c.43.53.87,1,1.3,1.57s.8,1.09,1.21,1.63l.6.82" transform="translate(-579.69 -296.99)"/><path class="cls-6" d="M592,376a4.72,4.72,0,0,0-1.45.07,5.63,5.63,0,0,0-.69.14l-.69.21a8,8,0,0,0-1.28.63,4.17,4.17,0,0,0-1.1,1v0a14.39,14.39,0,0,1,2.53-1.14,24.48,24.48,0,0,1,2.67-.87Z" transform="translate(-579.69 -296.99)"/><path class="cls-7" d="M588.38,372.71a3.32,3.32,0,0,0-1.21-.17h-.6l-.59.09a5.59,5.59,0,0,0-1.13.39,3.25,3.25,0,0,0-1,.71v.06a10.79,10.79,0,0,1,2.23-.66,19.58,19.58,0,0,1,2.29-.4Z" transform="translate(-579.69 -296.99)"/><path class="cls-8" d="M594.23,374a3.57,3.57,0,0,0,0-.8,4,4,0,0,0-.11-.71c0-.22,0-.21-.07-.33v-.32a3,3,0,0,1,0-.73h0a1.41,1.41,0,0,0-.3.72,2.28,2.28,0,0,0,0,.78,4.38,4.38,0,0,0,.57,1.44Z" transform="translate(-579.69 -296.99)"/><path class="cls-9" d="M596.51,379.74a6.52,6.52,0,0,0-1.92.07c-.31.05-.61.12-.92.19a6.67,6.67,0,0,0-.86.29,9.43,9.43,0,0,0-1.74.87,5.51,5.51,0,0,0-1.46,1.26v.06A18.85,18.85,0,0,1,593,381a37,37,0,0,1,3.53-1.11Z" transform="translate(-579.69 -296.99)"/><path class="cls-10" d="M599.16,377.32a6.89,6.89,0,0,0-.22-2,8.34,8.34,0,0,1-.19-2v-.52c0-.18,0-.25-.08-.13a1.06,1.06,0,0,0-.09.25c0,.15-.1.3-.13.45a6.83,6.83,0,0,0-.17,1,4.9,4.9,0,0,0,.79,3Z" transform="translate(-579.69 -296.99)"/><path class="cls-11" d="M589.8,371a2.43,2.43,0,0,0-.17-.6c-.07-.18-.15-.34-.22-.51s-.16-.31-.22-.46a2.25,2.25,0,0,1-.17-.54h0a1.08,1.08,0,0,0-.07.59,2.21,2.21,0,0,0,.17.57,4.55,4.55,0,0,0,.69,1Z" transform="translate(-579.69 -296.99)"/><path class="cls-12" d="M593.63,345.27c-4.06-.07-4.76,3.06-3.79,5,1.37,2.79,3.06,2.66-.11,6.34-2.34,2.72-1.88,6.8,1.95,7.81,5.35,1.38,1.11,4.92.73,7.56-.78,5.44,3.16,5.56,9.66,6.26,6.68.7,10.79-1.8,13.83-6.82,2.25-3.7,3.15-7.39.47-9.71-3.85-3.32-7.37.74-6.86-3.75.3-2.69-.87-7.17-6.45-6S599.48,345.37,593.63,345.27Z" transform="translate(-579.69 -296.99)"/><path class="cls-13" d="M611.22,381.81l-.33-1.4-.66-2.79c-.25-.93-.55-1.84-.82-2.76l-.42-1.38c-.15-.45-.33-.86-.49-1.35-.34-.87-.67-1.8-1-2.68A60.46,60.46,0,0,0,602,359.33a42.75,42.75,0,0,0-7.48-8.68l-.06.08c.34.34.66.69,1,1.06l.94,1.07c.3.37.61.73.87,1.11s.6.74.87,1.13c.55.77,1.12,1.52,1.64,2.32l.79,1.17.75,1.21.74,1.21.69,1.23.7,1.23c.23.41.42.87.64,1.26s.43.87.63,1.26l.33.63c.1.21.19.44.28.65l1.14,2.6c.36.87.69,1.74,1,2.61.17.44.35.86.5,1.32s.28.86.43,1.35c.29.87.61,1.79.87,2.69s.49,1.83.74,2.75l.38,1.37" transform="translate(-579.69 -296.99)"/><path class="cls-14" d="M601.45,363.43a7.09,7.09,0,0,0-1.91-.66c-.32-.07-.65-.13-1-.17s-.66-.05-1-.07a12,12,0,0,0-2,.16,5.89,5.89,0,0,0-1.92.69v.07a19.35,19.35,0,0,1,3.88-.21,36.12,36.12,0,0,1,3.89.26Z" transform="translate(-579.69 -296.99)"/><path class="cls-15" d="M598.41,357.22a5.44,5.44,0,0,0-1.49-.87,7.3,7.3,0,0,0-.79-.26c-.27-.07-.54-.12-.81-.17a7.77,7.77,0,0,0-1.67-.08,4.49,4.49,0,0,0-1.68.43v.07a15.83,15.83,0,0,1,3.23.27,31.44,31.44,0,0,1,3.18.65Z" transform="translate(-579.69 -296.99)"/><path class="cls-16" d="M605.38,361.87a6.08,6.08,0,0,0,.35-1.07c.08-.34.15-.66.2-1,0-.16.05-.31.08-.46v-.23a.54.54,0,0,0,0-.22,5.65,5.65,0,0,1,.33-1v-.05a2,2,0,0,0-.74.79,3.39,3.39,0,0,0-.35,1,6.59,6.59,0,0,0,0,2.17Z" transform="translate(-579.69 -296.99)"/><path class="cls-17" d="M605.42,370.51a9.12,9.12,0,0,0-2.53-.86c-.43-.11-.87-.15-1.31-.22s-.86-.06-1.31-.09a14.18,14.18,0,0,0-2.6.21,8,8,0,0,0-2.55.87v.09a26.13,26.13,0,0,1,5.15-.27,49.3,49.3,0,0,1,5.16.34Z" transform="translate(-579.69 -296.99)"/><path class="cls-18" d="M610.09,368.71a9.59,9.59,0,0,0,.74-2.74,12.14,12.14,0,0,1,.77-2.69c.1-.22.2-.44.32-.66s.11-.33-.06-.21a1.54,1.54,0,0,0-.23.29,5.08,5.08,0,0,0-.41.51c-.26.39-.51.79-.73,1.2a7,7,0,0,0-.48,4.34Z" transform="translate(-579.69 -296.99)"/><path class="cls-19" d="M601.12,355.75a3.66,3.66,0,0,0,.08-.87v-1.5a2.93,2.93,0,0,1,0-.78h0a1.57,1.57,0,0,0-.39.73,3.19,3.19,0,0,0-.06.87,5.58,5.58,0,0,0,.39,1.61Z" transform="translate(-579.69 -296.99)"/><path class="cls-20" d="M762.09,340.15l3.36,23.44a2.61,2.61,0,0,1-2.19,3l-23.45,3.37a2.49,2.49,0,0,1-.77,0h0a2.61,2.61,0,0,1-2.16-2.2l-3.36-23.44a2.61,2.61,0,0,1,2.2-2.94L759.17,338A2.61,2.61,0,0,1,762.09,340.15Z" transform="translate(-579.69 -296.99)"/><path class="cls-21" d="M747.76,339.59l-.3,29.21-7.65,1.11a2.49,2.49,0,0,1-.77,0l.29-29.1Z" transform="translate(-579.69 -296.99)"/><polygon class="cls-21" points="173.87 41.77 173.57 70.98 169.49 71.57 169.77 42.36 173.87 41.77"/><path class="cls-22" d="M756,347a5.16,5.16,0,0,0-7.25.67l-.15.2a5.16,5.16,0,0,0-7.22,1l-.14.2a5.27,5.27,0,0,0,1.29,7.11l6.52,4.88a2,2,0,0,0,2.82-.41h0l4.89-6.51A5.26,5.26,0,0,0,756,347Z" transform="translate(-579.69 -296.99)"/><path class="cls-23" d="M655.18,434.12a5.9,5.9,0,0,1-1.49,1.5l-5.32,3.81a91.13,91.13,0,0,1-7.35-12,40.71,40.71,0,0,1-3-7.35.72.72,0,0,0-.08-.28l12.16-2.9a39.48,39.48,0,0,0,3.33,7.31c.54,1,1.16,2.05,1.89,3.2A6.14,6.14,0,0,1,655.18,434.12Z" transform="translate(-579.69 -296.99)"/><path class="cls-24" d="M654.74,455.28l-10.65,7.6c-10-14.05-15.39-24.84-18.14-31.56a55.71,55.71,0,0,1-2.67-7.74l3.85-.87,9.79-2.33,1.12-.27,9.55-2.27v-.11a54.4,54.4,0,0,0,2.88,7.29c1.15,2.48,2.7,5.53,4.78,9.14q1.26,2.22,2.81,4.71A12.22,12.22,0,0,1,654.74,455.28Z" transform="translate(-579.69 -296.99)"/><path class="cls-25" d="M709.33,428l-37.46-5.75a33,33,0,0,0-13.41.67l-5,1.32-3,.79L641,427.43l-1.34.34-9.76,2.51-3.94,1-2.92.76a17.72,17.72,0,0,1-21.59-12.69l-6-23-1.73-6.75a17.71,17.71,0,0,1,12.7-21.59l6.89-1.79,9.76-2.53,18.75-4.86a33.39,33.39,0,0,0,12-5.92l29.93-23.26a6.14,6.14,0,0,1,8.61,1.13,6.23,6.23,0,0,1,1.08,2.19l1.92,7.44,12.16,46.89,8.58,33.08a6.12,6.12,0,0,1-4.5,7.41A6,6,0,0,1,709.33,428Z" transform="translate(-579.69 -296.99)"/><path class="cls-26" d="M691.14,337.92h0a3.48,3.48,0,0,1,4.26,2.45v.07l18.81,72.48a3.46,3.46,0,0,1-2.45,4.25l-.06,0h0a3.47,3.47,0,0,1-4.26-2.44l0-.07-18.81-72.5A3.52,3.52,0,0,1,691.14,337.92Z" transform="translate(-579.69 -296.99)"/><path class="cls-27" d="M639.68,427.76l-9.76,2.52a296.16,296.16,0,0,1-16.62-64l9.76-2.53A285.81,285.81,0,0,0,639.68,427.76Z" transform="translate(-579.69 -296.99)"/><path class="cls-28" d="M709.33,428l-37.46-5.75a33,33,0,0,0-13.41.67l-5,1.32c.54,1,1.17,2,1.89,3.2a6.16,6.16,0,0,1-.14,6.73q1.26,2.21,2.81,4.7a12.23,12.23,0,0,1-3.25,16.5L644.09,463c-10-14.06-15.39-24.85-18.14-31.56l-2.92.75a17.71,17.71,0,0,1-21.59-12.69l-6-23c8-1.73,16.7,1.65,25.1,5.16,4,1.67,8,3.39,11.72,4.57,9.33,3,17.55,2.78,22.93-8.86,11.46-24.75,30.17-23.49,43.47-16.29a44.36,44.36,0,0,1,8.91,6.28h0l8.59,33.09a6.13,6.13,0,0,1-4.39,7.47A6,6,0,0,1,709.33,428Z" transform="translate(-579.69 -296.99)"/><path class="cls-29" d="M724.8,333.26l-2.27,16a1.73,1.73,0,0,1-1.93,1.52h-.08l-16-2.27a1.85,1.85,0,0,1-.52-.16h0a1.74,1.74,0,0,1-1-1.85l2.28-16a1.73,1.73,0,0,1,1.93-1.51h.08l16,2.26a1.73,1.73,0,0,1,1.52,1.93A.22.22,0,0,1,724.8,333.26Z" transform="translate(-579.69 -296.99)"/><path class="cls-30" d="M715.49,330.15l-5.77,19.1-5.21-.75a1.5,1.5,0,0,1-.51-.15l5.76-19.05Z" transform="translate(-579.69 -296.99)"/><polygon class="cls-30" points="139.77 33.73 134 52.85 131.2 52.46 136.98 33.33 139.77 33.73"/><path class="cls-22" d="M714.18,334.07a1.19,1.19,0,0,0-1.65.26,18.08,18.08,0,0,1-2.48,3.29l-1.09-.16a.17.17,0,0,0-.19.15l-.82,5.75a.19.19,0,0,0,.15.2l.81.11a2.93,2.93,0,0,0,2.32,1.86l.48.07,3.16.44.7.1a1.18,1.18,0,0,0,1.34-1,1.15,1.15,0,0,0-.24-.86l.51.07a1.17,1.17,0,0,0,1-2,1.14,1.14,0,0,0,.93-1,1.17,1.17,0,0,0-1-1.33h0a1.17,1.17,0,0,0-.52-2.11h0l-4.44-.64C713.93,336.24,715.1,334.7,714.18,334.07Z" transform="translate(-579.69 -296.99)"/><path class="cls-31" d="M647.27,298l-38.65,7.88a1.74,1.74,0,0,0-1.35,2l2.31,11.29a1.73,1.73,0,0,0,2,1.33l3.81-.77,1.85-.37c.42.35,1.48,1.26,1.91,1.59a.87.87,0,0,0,1.21-.23l0,0c.27-.47.86-1.74,1.14-2.21l9.41-1.92,19.33-3.9a1.74,1.74,0,0,0,1.35-2l-2.3-11.29a1.74,1.74,0,0,0-2-1.38Z" transform="translate(-579.69 -296.99)"/><path class="cls-22" d="M617.39,312.13a1.92,1.92,0,0,0,.33-1.52l-.18-.92a2,2,0,0,0-2.2-1.57,1.91,1.91,0,0,0-1.56,2.21v.05l.21,1a1.88,1.88,0,0,0,.87,1.27,4,4,0,0,0-2,3.25.87.87,0,0,0,.86.88h.13l6.08-1.23a.81.81,0,0,0,.65-.95.66.66,0,0,0-.06-.2A4,4,0,0,0,617.39,312.13Z" transform="translate(-579.69 -296.99)"/><path class="cls-22" d="M632.48,304.62l-7.71,1.58a1.15,1.15,0,0,0-.91,1.36h0l.77,3.79a1.18,1.18,0,0,0,1.38.87l.75-.15s1.26,1.09,1.74,1.42a.69.69,0,0,0,1-.15l0-.05c.27-.48,1-2,1-2l3.23-.66a1.17,1.17,0,0,0,.91-1.38l-.77-3.79a1.15,1.15,0,0,0-1.37-.88Z" transform="translate(-579.69 -296.99)"/><path class="cls-32" d="M632.13,306.62l-6.25,1.28a.36.36,0,0,1-.41-.27.34.34,0,0,1,.27-.41l6.25-1.28a.36.36,0,0,1,.41.27.35.35,0,0,1-.26.41Z" transform="translate(-579.69 -296.99)"/><path class="cls-32" d="M632.47,308.26l-6.26,1.28a.34.34,0,0,1-.4-.27.35.35,0,0,1,.25-.41h0l6.25-1.28a.37.37,0,0,1,.41.27A.36.36,0,0,1,632.47,308.26Z" transform="translate(-579.69 -296.99)"/><path class="cls-32" d="M629.37,310.61l-2.83.57a.35.35,0,0,1-.4-.27.34.34,0,0,1,.27-.41l2.82-.57a.35.35,0,0,1,.41.27A.37.37,0,0,1,629.37,310.61Z" transform="translate(-579.69 -296.99)"/><path class="cls-22" d="M647.69,308.21a3.54,3.54,0,0,0-1.11-1.93l-.16-.81a2.85,2.85,0,0,0-2.87-2.28V303a.5.5,0,1,0-1,.09.43.43,0,0,0,0,.11l0,.24a2.83,2.83,0,0,0-1.73,3.21l.16.82h0a3.56,3.56,0,0,0-.31,2.18l.07.36a.35.35,0,0,0,.39.26l1.39-.29a.27.27,0,0,0,.16.26,2.85,2.85,0,0,0,3.31-.67.27.27,0,0,0,.05-.31l1.39-.28a.33.33,0,0,0,.26-.39Z" transform="translate(-579.69 -296.99)"/><path class="cls-33" d="M641.83,309.7a1.51,1.51,0,1,1-1.78-1.16h0A1.52,1.52,0,0,1,641.83,309.7Z" transform="translate(-579.69 -296.99)"/><path class="cls-34" d="M786.6,337.76l-13.89-5.07a2.18,2.18,0,0,0-2.8,1.29l-3.28,9a2.17,2.17,0,0,0,1.29,2.79h0l1.34.5s.94,3,1.32,3.93a1.31,1.31,0,0,0,1.7.71.31.31,0,0,0,.1-.05c.87-.48,3.55-2.14,3.55-2.14l5.8,2.14a2.19,2.19,0,0,0,2.8-1.29v0l3.31-9A2.19,2.19,0,0,0,786.6,337.76Z" transform="translate(-579.69 -296.99)"/><path class="cls-35" d="M783.69,341.54l-11.21-4.11a.71.71,0,1,1,.37-1.38l.12.05,11.2,4.11a.7.7,0,0,1,.42.91.69.69,0,0,1-.9.42Z" transform="translate(-579.69 -296.99)"/><path class="cls-35" d="M782.52,344.7l-11.2-4.11a.71.71,0,0,1-.42-.91.7.7,0,0,1,.91-.42l11.2,4.12a.7.7,0,0,1,.42.87.71.71,0,0,1-.89.46Z" transform="translate(-579.69 -296.99)"/><path class="cls-35" d="M775.21,345.6l-5.05-1.85a.7.7,0,0,1-.42-.91.69.69,0,0,1,.9-.42l5.06,1.86a.7.7,0,1,1-.49,1.32Z" transform="translate(-579.69 -296.99)"/><path class="cls-36" d="M745.48,316.43l5.51,7.39-15.07-2.15,7.36-5.55a1.57,1.57,0,0,1,2.2.31Z" transform="translate(-579.69 -296.99)"/><path class="cls-37" d="M751,323.84l-1,7.08a.72.72,0,0,1-.82.61l-13.67-2a.74.74,0,0,1-.61-.82l1-7.09a.66.66,0,0,1,.3-.49.75.75,0,0,1,.5-.12L750.38,323a.72.72,0,0,1,.45.26A.76.76,0,0,1,751,323.84Z" transform="translate(-579.69 -296.99)"/><path class="cls-38" d="M750.83,323.27l-1.73,1-4.71,2.77a2.53,2.53,0,0,1-3.09-.44l-3.72-4-1.33-1.43a.72.72,0,0,1,.5-.12L750.41,323A.73.73,0,0,1,750.83,323.27Z" transform="translate(-579.69 -296.99)"/><path class="cls-22" d="M749.79,319.59l-.67,4.69-4.7,2.77a2.55,2.55,0,0,1-3.1-.44l-3.74-4,.67-4.69a1.34,1.34,0,0,1,1.5-1.13h0l8.9,1.27a1.33,1.33,0,0,1,1.13,1.5Z" transform="translate(-579.69 -296.99)"/><path class="cls-32" d="M747.43,320.7l-7.23-1a.45.45,0,0,1-.36-.5.44.44,0,0,1,.49-.36h0l7.22,1a.44.44,0,0,1,.37.5.43.43,0,0,1-.49.37Z" transform="translate(-579.69 -296.99)"/><path class="cls-32" d="M747.13,322.74l-7.21-1a.43.43,0,1,1,.12-.86h0l7.22,1a.44.44,0,0,1-.13.87Z" transform="translate(-579.69 -296.99)"/><path class="cls-32" d="M742.88,324.21l-3.26-.46a.44.44,0,0,1-.37-.5.45.45,0,0,1,.5-.37l3.25.47a.44.44,0,0,1,.37.49.43.43,0,0,1-.48.37Z" transform="translate(-579.69 -296.99)"/><path class="cls-39" d="M608.05,440.45l8,1.74-11.38,7.31,1.74-8A1.4,1.4,0,0,1,608.05,440.45Z" transform="translate(-579.69 -296.99)"/><path class="cls-40" d="M616.06,442.22l3.47,5.36a.64.64,0,0,1-.19.87L609,455.07a.64.64,0,0,1-.87-.2l-3.47-5.35a.7.7,0,0,1-.08-.51.61.61,0,0,1,.27-.36L615.19,442a.69.69,0,0,1,.45-.09A.65.65,0,0,1,616.06,442.22Z" transform="translate(-579.69 -296.99)"/><path class="cls-41" d="M615.62,441.93l-.56,1.67-1.56,4.6a2.23,2.23,0,0,1-2.32,1.5l-4.83-.5-1.74-.18a.61.61,0,0,1,.28-.37l10.3-6.62A.72.72,0,0,1,615.62,441.93Z" transform="translate(-579.69 -296.99)"/><path class="cls-42" d="M612.79,440.07l2.27,3.53-1.56,4.6a2.23,2.23,0,0,1-2.32,1.5l-4.83-.5-2.27-3.53a1.19,1.19,0,0,1,.35-1.64l6.72-4.34A1.19,1.19,0,0,1,612.79,440.07Z" transform="translate(-579.69 -296.99)"/><path class="cls-43" d="M611.85,442.19l-5.45,3.47a.39.39,0,0,1-.53-.12h0a.38.38,0,0,1,.14-.5l5.45-3.47a.38.38,0,0,1,.52.11h0A.37.37,0,0,1,611.85,442.19Z" transform="translate(-579.69 -296.99)"/><path class="cls-44" d="M612.84,443.73l-5.46,3.47a.37.37,0,0,1-.52-.11h0a.36.36,0,0,1,.12-.51h0l5.45-3.47a.39.39,0,0,1,.53.12h0A.4.4,0,0,1,612.84,443.73Z" transform="translate(-579.69 -296.99)"/><path class="cls-45" d="M610.83,447.19l-2.46,1.58a.38.38,0,0,1-.41-.65h0l2.45-1.58a.39.39,0,0,1,.53.12A.38.38,0,0,1,610.83,447.19Z" transform="translate(-579.69 -296.99)"/><path class="cls-46" d="M686.91,439.35l-3.11,2,1-4.63a1.73,1.73,0,0,0-1.34-2l-12.73-2.61a1.74,1.74,0,0,0-2,1.35L666,446.19a1.74,1.74,0,0,0,1.35,2l12.73,2.6a1.74,1.74,0,0,0,2-1.34l.94-4.63,2,3.11a1,1,0,0,0,1.43.29,1.06,1.06,0,0,0,.45-.66l1.46-7.19a1,1,0,0,0-1.57-1.06Z" transform="translate(-579.69 -296.99)"/><polygon class="cls-22" points="95.1 140.47 93.57 147.97 98.09 144.98 95.1 140.47"/><path class="cls-47" d="M642.48,319.15c-1.74-1.47-6.52-3.13-8.23,3.58s-12.81,10.31-10.06,17.6,16.17,7.07,18.63-1.18S647.87,323.68,642.48,319.15Z" transform="translate(-579.69 -296.99)"/><path class="cls-48" d="M636.72,342.17c.54-.65,1.56-2.25,3.12-6.38a32.64,32.64,0,0,0,1.37-4.34c.34-1.38-.72-2-1.45-1.68a5,5,0,0,0-2.44,2.52c-1.24,4.1-2.08,7.23-2.54,8.22C634.09,341.92,636.08,343,636.72,342.17Z" transform="translate(-579.69 -296.99)"/><path class="cls-49" d="M628,346.06c.62.2.92-.53,2.92-1.16a18.47,18.47,0,0,0,5.53-2.52c1.25-.78.64-2.89-1-2.24-1.42.55-6.95,4.27-7.81,4.6C627.05,344.94,627.48,345.88,628,346.06Z" transform="translate(-579.69 -296.99)"/><path class="cls-50" d="M643.08,325.08c0,.12.72,2.6,1.12,4.6a1.82,1.82,0,0,1-1,2.15h0a1.73,1.73,0,0,1-1.74-1.52c-.16-1.17-.37-2.33-.64-3.48Z" transform="translate(-579.69 -296.99)"/><path class="cls-51" d="M647.19,335.75a33.92,33.92,0,0,0-.2,5.61,13.92,13.92,0,0,0,.79,4c.27.79.58,1.56.87,2.31.13.29,1.19,2.61,1.27,2.85l-11.07,2.13c-.31-2.19.87-9.47-1.67-13.56-1.74-2.84-.23-3.22.33-6a7.37,7.37,0,0,1,.53-2,3.17,3.17,0,0,1,1.49-1.36,5.41,5.41,0,0,1,1-.35c1.85-.51,6.16-1.9,7.08.68a5,5,0,0,1,.2,2.2c-.11.83-.33,1.63-.5,2.44C647.29,335.09,647.23,335.42,647.19,335.75Z" transform="translate(-579.69 -296.99)"/><path class="cls-52" d="M641,346.77c-.57,1.27-1.07,1.86-1,2.53s1.16,0,1.42-.4,1.29-1.84,1.11-2.39S641.36,345.83,641,346.77Z" transform="translate(-579.69 -296.99)"/><path class="cls-53" d="M650.43,341.33c0-.87-.09-2.75-1.29-7a29.26,29.26,0,0,0-1.49-4.34c-.55-1.32-1.73-1.18-2.16-.5A4.88,4.88,0,0,0,645,333c1.43,4,2.61,7.06,2.83,8.14C648.16,342.69,650.38,342.34,650.43,341.33Z" transform="translate(-579.69 -296.99)"/><path class="cls-54" d="M642,347.14c.51.12.87-.81,2.78-1.74a18.88,18.88,0,0,0,5.14-3.23c1.12-.95.23-3-1.33-2.09-1.33.74-6.38,5.21-7.07,5.81C641.11,346.29,641.5,347,642,347.14Z" transform="translate(-579.69 -296.99)"/><path class="cls-52" d="M643.1,322.71c.68,2.13.81,2.6.28,3.83a5.23,5.23,0,0,1-2.6,2.6,2.71,2.71,0,0,1-2.9-1.08,16.15,16.15,0,0,1-2.5-5.12,3.62,3.62,0,0,1,1.91-3.81C638.73,318.48,641.44,317.5,643.1,322.71Z" transform="translate(-579.69 -296.99)"/><path class="cls-52" d="M629,344.74a7.8,7.8,0,0,0-1.87-.16c-.75.1-1.11.62-1,.82a2.09,2.09,0,0,0,1.27.86,1.61,1.61,0,0,0,1.1-.55C628.77,345.42,629.63,344.9,629,344.74Z" transform="translate(-579.69 -296.99)"/><path class="cls-55" d="M621.44,362.43a3.8,3.8,0,0,1-1.35,1.49c-.76.53-2.5,1.05-1.45,1.18a5.79,5.79,0,0,0,2.72-.48,12.43,12.43,0,0,1,1.82-.46c.86-.18.86-.24.58-1.23C623.32,361.55,621.69,361.55,621.44,362.43Z" transform="translate(-579.69 -296.99)"/><path class="cls-56" d="M622.75,381.87a3.79,3.79,0,0,1-1.53,1.3c-.82.44-2.6.72-1.59,1a5.86,5.86,0,0,0,2.76-.12,11.79,11.79,0,0,1,1.86-.22c.92-.07.92-.13.74-1.15C624.73,381.25,623.12,381,622.75,381.87Z" transform="translate(-579.69 -296.99)"/><path class="cls-57" d="M635.25,321.68c-.21,1.74,6.69,1.74,7.89.94s-.16-3.11-1.74-3.93S635.76,317.65,635.25,321.68Z" transform="translate(-579.69 -296.99)"/><path class="cls-58" d="M637.27,320.41c.28,1.25-1.63,2.39-1.57,3.47,0,.69-.86-1.14-.75-2.2S636.69,317.91,637.27,320.41Z" transform="translate(-579.69 -296.99)"/><path class="cls-59" d="M623.25,347.73c.46-3.52,3.72-2.88,4.06.11.53,4.7-2.3,10.19-3.39,15.62-.41-1-.66-1.32-1.13-1.45a1.49,1.49,0,0,0-1.32.31C622.79,355.14,622.76,351.5,623.25,347.73Z" transform="translate(-579.69 -296.99)"/><path class="cls-60" d="M649.51,357.93s3.77-.45.45-7.37l-11.07,2.13s-2.11,4.34,2.87,6.74Z" transform="translate(-579.69 -296.99)"/><path class="cls-61" d="M624.24,348.82c-1.17-1-1.26-5.13,3.48-2.75,2.09,1.06,13.89,6.44,15,7a2.75,2.75,0,0,1,1.58,2.24c0,3.21-3.36,4.34-7.55,1.82C634,355.49,626.66,350.81,624.24,348.82Z" transform="translate(-579.69 -296.99)"/><path class="cls-62" d="M629.87,365.37c1.3-3.69,4.81-2.23,4.34.72-.7,4.19-7.76,14.43-9.18,16.5-.19.26-.29.12-.41,0a3,3,0,0,0-.87-.87,3.64,3.64,0,0,0-.87,0C624.35,378.71,628.59,368.94,629.87,365.37Z" transform="translate(-579.69 -296.99)"/><path class="cls-63" d="M643.41,353.59c4.22-2.19,8.22-1.07,7.87,2.15a4,4,0,0,1-2.27,2.89c-1.08.62-12.61,6.41-14.63,7.59-4.57,2.67-4.81-1.56-3.64-2.52C633.7,361.28,641.12,354.79,643.41,353.59Z" transform="translate(-579.69 -296.99)"/><path class="cls-52" d="M642.8,323.25c-.16.81.05,1.54.48,1.62s.86-.5,1.06-1.32,0-1.54-.47-1.62S643,322.43,642.8,323.25Z" transform="translate(-579.69 -296.99)"/><g class="cls-64"><path class="cls-65" d="M671.42,324.93c-8.61-5.16-23.24,1.15-27.53,10-4.34,9,3.59,14-5.16,26.3-6.94,9.75-2,21.23-1.73,30.07.35,9.71-13.79,16.95-13,25.64,1.85,20-14.32,27.33,1.85,32.57,16.6,5.37,17.53-3.43,36.21-2.31,16.24,1,21.62-32.4,21.71-45.29,0-13.65-9.27-16.57-3.17-30.71,3.64-8.46,6.33-13.26-3-23.24C672.86,342.83,687.9,334.78,671.42,324.93Z" transform="translate(-579.69 -296.99)"/></g><path class="cls-66" d="M638.67,349.35h-.19l-3.42-8a.51.51,0,0,0,.33-.51.53.53,0,0,0-.56-.5l-12,.67a.52.52,0,0,0-.42.25.51.51,0,0,0-.05.48l3.86,9a.52.52,0,0,0,.52.33l11.94-.66a.54.54,0,0,0-.06-1.07Z" transform="translate(-579.69 -296.99)"/><path class="cls-67" d="M646.53,350l-7.81.43a.5.5,0,0,1-.52-.32l-3.85-9a.53.53,0,0,1,.27-.7h0a.54.54,0,0,1,.7.28l3.7,8.68,7.42-.42a.54.54,0,0,1,.51.57.53.53,0,0,1-.45.5Z" transform="translate(-579.69 -296.99)"/><polygon class="cls-68" points="47.3 49.08 52.4 48.8 52.18 48.44 47.08 48.73 47.3 49.08"/><polygon class="cls-69" points="49.35 49.62 52.79 49.43 52.57 49.08 49.13 49.27 49.35 49.62"/><rect class="cls-70" x="728" y="367.57" width="2.89" height="1.59" transform="translate(-587.04 424.81) rotate(-52.42)"/><path class="cls-71" d="M722.79,377h0a1.4,1.4,0,0,0,2-.25l0-.05,5-7.11-1.63-1.25L722.57,375a1.38,1.38,0,0,0,.17,2Z" transform="translate(-579.69 -296.99)"/><path class="cls-72" d="M727.62,362.56a7.06,7.06,0,0,0,12.1,3.95,6.78,6.78,0,0,0,1-1.31,7.69,7.69,0,0,0,.45-.91,6.94,6.94,0,0,0,.5-3,3.51,3.51,0,0,0,0-.55,7.06,7.06,0,0,0-7.92-6.08l-.55.1a7,7,0,0,0-2.78,1.26,9.72,9.72,0,0,0-.77.67,6.64,6.64,0,0,0-1,1.29A6.94,6.94,0,0,0,727.62,362.56Z" transform="translate(-579.69 -296.99)"/><path class="cls-30" d="M730.37,356l10.8,8.32a6.94,6.94,0,0,0,.5-3l-8.52-6.53A7,7,0,0,0,730.37,356Z" transform="translate(-579.69 -296.99)"/><path class="cls-30" d="M728.6,357.94l11.12,8.57a6.78,6.78,0,0,0,1-1.31l-11.12-8.55A7,7,0,0,0,728.6,357.94Z" transform="translate(-579.69 -296.99)"/><path class="cls-73" d="M735.66,369.7a8.15,8.15,0,0,1-7.5-13h0a8.14,8.14,0,1,1,7.5,13Zm-1.81-14a6,6,0,0,0-4,2.29h0a6,6,0,1,0,4-2.29Z" transform="translate(-579.69 -296.99)"/><path class="cls-52" d="M728.51,375c-.29-.72-2-5.63-2.92-4.68-1.83,1.83-1.31,2.85-1,3.65a3.15,3.15,0,0,0,2.86,2.21C728.08,376.11,728.79,375.69,728.51,375Z" transform="translate(-579.69 -296.99)"/><path class="cls-52" d="M728.62,374.57c0-.37.14-2.79-.25-2.84-.61-.08-1,1.41-1.09,2.33-.06.5.43,1.4.86,1.39S728.59,375.14,728.62,374.57Z" transform="translate(-579.69 -296.99)"/><path class="cls-74" d="M762.29,406.5c-.43-4-.71-5-1.86-7.38h0a.17.17,0,0,0,0-.1c-.5-.79-1.89-2.38-6.16-5.21a31.54,31.54,0,0,0-4.71-2.73,2.09,2.09,0,0,0-3.06,1.19c-.12,1.45.7,3.47,1.49,3.94,4.45,2.52,8,4.18,9,5a1.42,1.42,0,0,0,.55.27,1.55,1.55,0,0,0,0,.43c.34,1.94,3.12,8.28,3.33,9.46.14.78,1.08,1,1.48.1C762.84,410.31,762.6,409.31,762.29,406.5Z" transform="translate(-579.69 -296.99)"/><path class="cls-75" d="M722.52,452.71a5,5,0,0,1-1.24,2.26c-.8.86-2.83,2.11-1.47,1.93a8,8,0,0,0,3.28-1.49,15.79,15.79,0,0,1,2.14-1.16c1.08-.52,1.06-.59.36-1.74C724.63,451,722.58,451.56,722.52,452.71Z" transform="translate(-579.69 -296.99)"/><path class="cls-76" d="M749.38,469.26a5.1,5.1,0,0,1,.2,2.6c-.18,1.19-1.22,3.32-.18,2.42a8,8,0,0,0,1.94-3,15.84,15.84,0,0,1,1.15-2.15c.63-1,.57-1.07-.63-1.62C750.22,466.7,748.8,468.27,749.38,469.26Z" transform="translate(-579.69 -296.99)"/><path class="cls-52" d="M748.94,384.61c-.37,2.42-.46,2.95-1.57,3.89a5.75,5.75,0,0,1-3.92,1c-1.24-.06-2-1.6-2.21-2.61a14.88,14.88,0,0,1,0-5.72,3.91,3.91,0,0,1,3.7-2.8C746.66,378.37,749.82,378.72,748.94,384.61Z" transform="translate(-579.69 -296.99)"/><path class="cls-52" d="M747.53,388.82v2.7a2.31,2.31,0,0,1-2.13,2.25h-.13c-1,0-2.24-1.06-2.1-2.1.1-.68.15-1.37.19-2a2.72,2.72,0,0,1,1.94-2.46h0a1.72,1.72,0,0,1,2.16,1.16A1.54,1.54,0,0,1,747.53,388.82Z" transform="translate(-579.69 -296.99)"/><path class="cls-77" d="M751.87,399.43a50.74,50.74,0,0,0-3.06,17.43l-14.66-.72s.77-13.72,2.12-21.19a5.58,5.58,0,0,1,3.3-4.15,10.44,10.44,0,0,1,3.95-.68l2.71.13a11,11,0,0,1,2.84.5C753,392.17,753.14,395.78,751.87,399.43Z" transform="translate(-579.69 -296.99)"/><path class="cls-78" d="M748.26,425.82s1.43-3,.51-9l-14.66-.72a81.24,81.24,0,0,0-1,8.93Z" transform="translate(-579.69 -296.99)"/><path class="cls-79" d="M741,447c-2-4.49,2.61-6.19,4.78-3.06,3,4.42,5.63,19.82,6.07,22.91.07.4.22.87,0,1.06a3.25,3.25,0,0,1-1.48.52c-.54.09-1.07.18-1.24-.48C748,463.5,743,451.31,741,447Z" transform="translate(-579.69 -296.99)"/><path class="cls-80" d="M740.34,425.77c.87-5.9,4.23-9.84,7.36-7.08a5,5,0,0,1,1.33,4.46c-.16,1.56-2.78,17.53-3.07,20.46-.64,6.61-5.29,3.68-5.41,1.74C740.23,440.58,739.87,429,740.34,425.77Z" transform="translate(-579.69 -296.99)"/><path class="cls-81" d="M725.56,452.5c0-7,2.46-18.93.6-24.58-1.19-3.59-5.53-3.57-5.21.87.34,4.75,2,13.89,1.73,23.14C722.71,452.86,725.54,453.32,725.56,452.5Z" transform="translate(-579.69 -296.99)"/><path class="cls-82" d="M724.25,431.27c-1.88.35-6.35-4.1-.28-6.78,2.7-1.19,11.95-5.82,13.39-6.46s3.57-1.48,4.19-.93c3.12,2.78.81,8.34-4.84,10.2C732.92,428.55,728.14,430.53,724.25,431.27Z" transform="translate(-579.69 -296.99)"/><path class="cls-52" d="M741.78,383.75c.3.87.19,1.68-.26,1.84s-1.06-.41-1.36-1.26-.18-1.68.26-1.84S741.45,382.89,741.78,383.75Z" transform="translate(-579.69 -296.99)"/><path class="cls-52" d="M748.1,384.07c-.39.81-.35,1.65.08,1.85s1.09-.31,1.47-1.13.35-1.65-.08-1.85S748.48,383.24,748.1,384.07Z" transform="translate(-579.69 -296.99)"/><path class="cls-83" d="M748.4,379.8c-1,1.37-5.58,1.27-7,.68s-1.21-3.47.92-3.56c1.2.05.32.3,1.27.74C744.06,377.89,749.5,378.35,748.4,379.8Z" transform="translate(-579.69 -296.99)"/><path class="cls-84" d="M740.71,390.69c-3.81-3.4-7-5.79-7.73-6.77l-.09-.1a2.09,2.09,0,0,0-.08-.34c-.58-1.87-4.29-7.74-5-8.69a.93.93,0,0,0-1.31-.1,1,1,0,0,0-.31.56c-.3,1.15.16,1.27.93,4.21a32,32,0,0,0,2,5.79h0a7.8,7.8,0,0,0,.75,1.43h0a43.18,43.18,0,0,0,8.18,8.68,2.09,2.09,0,0,0,3.25-.51C741.75,393.47,741.39,391.29,740.71,390.69Z" transform="translate(-579.69 -296.99)"/><path class="cls-52" d="M763.05,412.52c0-.78-.47-2.74-1.24-2.48a2,2,0,0,0-1.64,2.09c0,1.54.86,1.52,1.73,1.73C762.58,414.06,763.06,413.26,763.05,412.52Z" transform="translate(-579.69 -296.99)"/><path class="cls-85" d="M743.3,379.3c-1.45.78-1.81,1.51-1.85,3.25s.55,4.74,3.71,5.56,4.08-2.32,4.34-4.49.26-3.83-1.33-4.3C745.8,378.61,744.18,378.83,743.3,379.3Z" transform="translate(-579.69 -296.99)"/></svg>