<svg xmlns="http://www.w3.org/2000/svg" xmlns:xlink="http://www.w3.org/1999/xlink" viewBox="0 0 239.56 203.25"><defs><style>.cls-1{fill:none;}.cls-2{isolation:isolate;}.cls-3{fill:url(#Gradient_bez_nazwy_3);}.cls-4{fill:url(#Gradient_bez_nazwy_3-2);}.cls-5{fill:url(#Gradient_bez_nazwy_3-3);}.cls-6{fill:url(#Gradient_bez_nazwy_3-4);}.cls-7{fill:url(#Gradient_bez_nazwy_3-5);}.cls-8{fill:url(#Gradient_bez_nazwy_3-6);}.cls-9{fill:url(#Gradient_bez_nazwy_3-7);}.cls-10{fill:url(#Gradient_bez_nazwy_3-8);}.cls-11{fill:url(#Gradient_bez_nazwy_5);}.cls-12{fill:url(#Gradient_bez_nazwy_5-2);}.cls-13{fill:url(#Gradient_bez_nazwy_5-3);}.cls-14{fill:url(#Gradient_bez_nazwy_5-4);}.cls-15{fill:url(#Gradient_bez_nazwy_5-5);}.cls-16{fill:url(#Gradient_bez_nazwy_5-6);}.cls-17{fill:url(#Gradient_bez_nazwy_5-7);}.cls-18{fill:url(#Gradient_bez_nazwy_5-8);}.cls-19{fill:url(#Gradient_bez_nazwy_5-9);}.cls-20{fill:#e27575;}.cls-20,.cls-64,.cls-71{opacity:0.3;}.cls-20,.cls-29{mix-blend-mode:screen;}.cls-21{fill:#fff;}.cls-22{fill:url(#Gradient_bez_nazwy_12);}.cls-23{fill:url(#Gradient_bez_nazwy_11);}.cls-24{fill:url(#Gradient_bez_nazwy_10);}.cls-25{fill:url(#Gradient_bez_nazwy_11-2);}.cls-26{fill:url(#Gradient_bez_nazwy_11-3);}.cls-27{opacity:0.2;fill:url(#Gradient_bez_nazwy_5-10);}.cls-27,.cls-64{mix-blend-mode:multiply;}.cls-28{fill:url(#Gradient_bez_nazwy_9);}.cls-29{fill:#91c1fd;opacity:0.1;}.cls-30{fill:url(#Gradient_bez_nazwy_2);}.cls-31{fill:#e1e1e1;}.cls-32{fill:url(#Gradient_bez_nazwy_5-11);}.cls-33{fill:url(#Gradient_bez_nazwy_3-9);}.cls-34{fill:#d8fcaa;}.cls-35{fill:url(#Gradient_bez_nazwy_2-2);}.cls-36{fill:url(#Gradient_bez_nazwy_2-3);}.cls-37{fill:url(#Gradient_bez_nazwy_2-4);}.cls-38{fill:url(#Gradient_bez_nazwy_7);}.cls-39{fill:url(#Gradient_bez_nazwy_7-2);}.cls-40{fill:url(#Gradient_bez_nazwy_7-3);}.cls-41{fill:url(#Gradient_bez_nazwy_5-12);}.cls-42{fill:url(#Gradient_bez_nazwy_11-4);}.cls-43{fill:url(#Gradient_bez_nazwy_11-5);}.cls-44{fill:url(#Gradient_bez_nazwy_11-6);}.cls-45{fill:url(#Gradient_bez_nazwy_2-5);}.cls-46{fill:url(#Gradient_bez_nazwy_9-2);}.cls-47{fill:url(#Gradient_bez_nazwy_7-4);}.cls-48{fill:url(#Gradient_bez_nazwy_7-5);}.cls-49{fill:#d49573;}.cls-50{fill:url(#Gradient_bez_nazwy_7-6);}.cls-51{fill:#ebad85;}.cls-52{fill:url(#Gradient_bez_nazwy_7-7);}.cls-53{fill:url(#Gradient_bez_nazwy_7-8);}.cls-54{fill:url(#Gradient_bez_nazwy_2-6);}.cls-55{fill:url(#Gradient_bez_nazwy_2-7);}.cls-56{fill:url(#Gradient_bez_nazwy_9-3);}.cls-57{fill:url(#Gradient_bez_nazwy_9-4);}.cls-58{fill:url(#Gradient_bez_nazwy_8);}.cls-59{fill:url(#Gradient_bez_nazwy_8-2);}.cls-60{fill:url(#Gradient_bez_nazwy_8-3);}.cls-61{fill:url(#Gradient_bez_nazwy_8-4);}.cls-62{fill:url(#Gradient_bez_nazwy_8-5);}.cls-63{clip-path:url(#clip-path);}.cls-64{fill:url(#Gradient_bez_nazwy_4);}.cls-65{fill:url(#Gradient_bez_nazwy_2-8);}.cls-66{fill:url(#Gradient_bez_nazwy_2-9);}.cls-67{fill:url(#Gradient_bez_nazwy_2-10);}.cls-68{fill:url(#Gradient_bez_nazwy_2-11);}.cls-69{fill:url(#Gradient_bez_nazwy_8-6);}.cls-70{fill:url(#Gradient_bez_nazwy_9-5);}.cls-71{fill:url(#Gradient_bez_nazwy_10-2);}.cls-72{fill:url(#Gradient_bez_nazwy_9-6);}.cls-73{fill:url(#Gradient_bez_nazwy_7-9);}.cls-74{fill:url(#Gradient_bez_nazwy_2-12);}.cls-75{fill:url(#Gradient_bez_nazwy_2-13);}.cls-76{fill:url(#Gradient_bez_nazwy_7-10);}.cls-77{fill:url(#Gradient_bez_nazwy_8-7);}.cls-78{fill:url(#Gradient_bez_nazwy_8-8);}.cls-79{fill:url(#Gradient_bez_nazwy_8-9);}.cls-80{fill:url(#Gradient_bez_nazwy_8-10);}.cls-81{fill:url(#Gradient_bez_nazwy_8-11);}.cls-82{fill:url(#Gradient_bez_nazwy_5-13);}.cls-83{fill:url(#Gradient_bez_nazwy_7-11);}.cls-84{fill:url(#Gradient_bez_nazwy_5-14);}</style><linearGradient id="Gradient_bez_nazwy_3" x1="670.98" y1="253.89" x2="654.25" y2="209.66" gradientTransform="matrix(0.86, -0.51, 0.51, 0.86, -115.46, 502.41)" gradientUnits="userSpaceOnUse"><stop offset="0" stop-color="#488063"/><stop offset="1" stop-color="#c0ff4c"/></linearGradient><linearGradient id="Gradient_bez_nazwy_3-2" x1="815.54" y1="252.92" x2="829.48" y2="227.52" gradientTransform="matrix(-0.86, 0.51, 0.51, 0.86, 1168.25, -249.64)" xlink:href="#Gradient_bez_nazwy_3"/><linearGradient id="Gradient_bez_nazwy_3-3" x1="825.49" y1="239.13" x2="827.62" y2="235.25" gradientTransform="matrix(-0.86, 0.51, 0.51, 0.86, 1168.25, -249.64)" xlink:href="#Gradient_bez_nazwy_3"/><linearGradient id="Gradient_bez_nazwy_3-4" x1="826.94" y1="233.24" x2="828.29" y2="229.72" gradientTransform="matrix(-0.86, 0.51, 0.51, 0.86, 1168.25, -249.64)" xlink:href="#Gradient_bez_nazwy_3"/><linearGradient id="Gradient_bez_nazwy_3-5" x1="819.31" y1="236.95" x2="819.32" y2="233.63" gradientTransform="matrix(-0.86, 0.51, 0.51, 0.86, 1168.25, -249.64)" xlink:href="#Gradient_bez_nazwy_3"/><linearGradient id="Gradient_bez_nazwy_3-6" x1="823.86" y1="245.88" x2="826.68" y2="240.73" gradientTransform="matrix(-0.86, 0.51, 0.51, 0.86, 1168.25, -249.64)" xlink:href="#Gradient_bez_nazwy_3"/><linearGradient id="Gradient_bez_nazwy_3-7" x1="815.87" y1="243.13" x2="815.88" y2="237.87" gradientTransform="matrix(-0.86, 0.51, 0.51, 0.86, 1168.25, -249.64)" xlink:href="#Gradient_bez_nazwy_3"/><linearGradient id="Gradient_bez_nazwy_3-8" x1="822.18" y1="231.32" x2="822.74" y2="228.79" gradientTransform="matrix(-0.86, 0.51, 0.51, 0.86, 1168.25, -249.64)" xlink:href="#Gradient_bez_nazwy_3"/><linearGradient id="Gradient_bez_nazwy_5" x1="679.77" y1="279.18" x2="656.4" y2="217.4" gradientTransform="translate(-113.75 208.84) rotate(-9)" gradientUnits="userSpaceOnUse"><stop offset="0" stop-color="#2f2bc9"/><stop offset="0.65" stop-color="#cd2366"/><stop offset="1" stop-color="#e1b993"/></linearGradient><linearGradient id="Gradient_bez_nazwy_5-2" x1="805.51" y1="278.03" x2="824.97" y2="242.54" gradientTransform="matrix(-0.99, 0.16, 0.16, 0.99, 1354.98, -24.33)" xlink:href="#Gradient_bez_nazwy_5"/><linearGradient id="Gradient_bez_nazwy_5-3" x1="819.4" y1="258.77" x2="822.37" y2="253.35" gradientTransform="matrix(-0.99, 0.16, 0.16, 0.99, 1354.98, -24.33)" xlink:href="#Gradient_bez_nazwy_5"/><linearGradient id="Gradient_bez_nazwy_5-4" x1="821.43" y1="250.53" x2="823.31" y2="245.62" gradientTransform="matrix(-0.99, 0.16, 0.16, 0.99, 1354.98, -24.33)" xlink:href="#Gradient_bez_nazwy_5"/><linearGradient id="Gradient_bez_nazwy_5-5" x1="810.77" y1="255.73" x2="810.78" y2="251.07" gradientTransform="matrix(-0.99, 0.16, 0.16, 0.99, 1354.98, -24.33)" xlink:href="#Gradient_bez_nazwy_5"/><linearGradient id="Gradient_bez_nazwy_5-6" x1="817.12" y1="268.19" x2="821.07" y2="261" gradientTransform="matrix(-0.99, 0.16, 0.16, 0.99, 1354.98, -24.33)" xlink:href="#Gradient_bez_nazwy_5"/><linearGradient id="Gradient_bez_nazwy_5-7" x1="805.95" y1="264.35" x2="805.98" y2="257" gradientTransform="matrix(-0.99, 0.16, 0.16, 0.99, 1354.98, -24.33)" xlink:href="#Gradient_bez_nazwy_5"/><linearGradient id="Gradient_bez_nazwy_5-8" x1="814.77" y1="247.85" x2="815.56" y2="244.32" gradientTransform="matrix(-0.99, 0.16, 0.16, 0.99, 1354.98, -24.33)" xlink:href="#Gradient_bez_nazwy_5"/><linearGradient id="Gradient_bez_nazwy_5-9" x1="768.93" y1="411.78" x2="758.16" y2="321.45" gradientTransform="translate(-40.78 121.18) rotate(-8.17)" xlink:href="#Gradient_bez_nazwy_5"/><linearGradient id="Gradient_bez_nazwy_12" x1="641.18" y1="429.46" x2="652.56" y2="438.57" gradientUnits="userSpaceOnUse"><stop offset="0" stop-color="#2f2bc9"/><stop offset="0.72" stop-color="#9e2582"/><stop offset="1" stop-color="#cd2366"/></linearGradient><linearGradient id="Gradient_bez_nazwy_11" x1="636.22" y1="441.31" x2="655.4" y2="481.5" gradientUnits="userSpaceOnUse"><stop offset="0" stop-color="#2f2bc9"/><stop offset="1" stop-color="#cd2366"/></linearGradient><linearGradient id="Gradient_bez_nazwy_10" x1="650.14" y1="503.38" x2="650.14" y2="327.79" gradientUnits="userSpaceOnUse"><stop offset="0" stop-color="#64a4ec"/><stop offset="1" stop-color="#caffff"/></linearGradient><linearGradient id="Gradient_bez_nazwy_11-2" x1="645.08" y1="397.23" x2="740.38" y2="359.98" gradientTransform="translate(13.55 -24.81) rotate(1.95)" xlink:href="#Gradient_bez_nazwy_11"/><linearGradient id="Gradient_bez_nazwy_11-3" x1="609.78" y1="402.38" x2="665.81" y2="384.18" gradientTransform="translate(13.55 -24.81) rotate(1.95)" xlink:href="#Gradient_bez_nazwy_11"/><linearGradient id="Gradient_bez_nazwy_5-10" x1="496.29" y1="479.95" x2="740.29" y2="379.62" gradientTransform="matrix(1, 0, 0, 1, 0, 0)" xlink:href="#Gradient_bez_nazwy_5"/><linearGradient id="Gradient_bez_nazwy_9" x1="720.3" y1="366.93" x2="719.1" y2="308.5" gradientTransform="matrix(0.99, 0.14, -0.14, 0.99, 53.45, -108.51)" gradientUnits="userSpaceOnUse"><stop offset="0" stop-color="#311087"/><stop offset="1" stop-color="#65affc"/></linearGradient><linearGradient id="Gradient_bez_nazwy_2" x1="590.19" y1="316.6" x2="641.19" y2="280.27" gradientUnits="userSpaceOnUse"><stop offset="0" stop-color="#d41747"/><stop offset="1" stop-color="#ecb334"/></linearGradient><linearGradient id="Gradient_bez_nazwy_5-11" x1="628.31" y1="296.15" x2="638.76" y2="281.19" gradientTransform="translate(-45.92 141.48) rotate(-11.5)" xlink:href="#Gradient_bez_nazwy_5"/><linearGradient id="Gradient_bez_nazwy_3-9" x1="768.83" y1="387.73" x2="798.9" y2="343.84" gradientTransform="translate(182.3 -282.15) rotate(20.18)" xlink:href="#Gradient_bez_nazwy_3"/><linearGradient id="Gradient_bez_nazwy_2-2" x1="752.01" y1="321.95" x2="752.01" y2="313.26" gradientTransform="translate(54 -118.86) rotate(8.13)" xlink:href="#Gradient_bez_nazwy_2"/><linearGradient id="Gradient_bez_nazwy_2-3" x1="752.01" y1="337.3" x2="752.01" y2="319.06" gradientTransform="translate(54 -118.86) rotate(8.13)" xlink:href="#Gradient_bez_nazwy_2"/><linearGradient id="Gradient_bez_nazwy_2-4" x1="752.01" y1="321.95" x2="752.01" y2="313.26" gradientTransform="translate(54 -118.86) rotate(8.13)" xlink:href="#Gradient_bez_nazwy_2"/><linearGradient id="Gradient_bez_nazwy_7" x1="640.42" y1="440.88" x2="640.42" y2="433.16" gradientTransform="matrix(0.84, -0.54, 0.54, 0.84, -179.96, 424.24)" gradientUnits="userSpaceOnUse"><stop offset="0" stop-color="#d41747"/><stop offset="1" stop-color="#86005b"/></linearGradient><linearGradient id="Gradient_bez_nazwy_7-2" x1="640.42" y1="454.51" x2="640.42" y2="438.32" xlink:href="#Gradient_bez_nazwy_7"/><linearGradient id="Gradient_bez_nazwy_7-3" x1="640.42" y1="440.88" x2="640.42" y2="433.16" xlink:href="#Gradient_bez_nazwy_7"/><linearGradient id="Gradient_bez_nazwy_5-12" x1="578.47" y1="416.71" x2="597.26" y2="449.09" gradientTransform="matrix(1, 0, 0, 1, 0, 0)" xlink:href="#Gradient_bez_nazwy_5"/><linearGradient id="Gradient_bez_nazwy_11-4" x1="584.78" y1="439.92" x2="605.3" y2="455.34" xlink:href="#Gradient_bez_nazwy_11"/><linearGradient id="Gradient_bez_nazwy_11-5" x1="584.35" y1="440.5" x2="604.86" y2="455.93" xlink:href="#Gradient_bez_nazwy_11"/><linearGradient id="Gradient_bez_nazwy_11-6" x1="582.75" y1="442.62" x2="603.27" y2="458.05" xlink:href="#Gradient_bez_nazwy_11"/><linearGradient id="Gradient_bez_nazwy_2-5" x1="661.01" y1="464.91" x2="692.84" y2="426.07" xlink:href="#Gradient_bez_nazwy_2"/><linearGradient id="Gradient_bez_nazwy_9-2" x1="565.81" y1="371.54" x2="633.81" y2="317.54" gradientTransform="matrix(1, 0, 0, 1, 0, 0)" xlink:href="#Gradient_bez_nazwy_9"/><linearGradient id="Gradient_bez_nazwy_7-4" x1="828.5" y1="430.36" x2="842.75" y2="418.53" gradientTransform="matrix(-0.9, -0.43, -0.43, 0.9, 1597.6, 367.35)" xlink:href="#Gradient_bez_nazwy_7"/><linearGradient id="Gradient_bez_nazwy_7-5" x1="898.47" y1="463.43" x2="912.72" y2="451.6" gradientTransform="matrix(-1, 0.03, 0.03, 1, 1533.78, -138.97)" xlink:href="#Gradient_bez_nazwy_7"/><linearGradient id="Gradient_bez_nazwy_7-6" x1="635.44" y1="323.31" x2="639.51" y2="345.81" gradientTransform="matrix(1, 0, 0, 1, 0, 0)" xlink:href="#Gradient_bez_nazwy_7"/><linearGradient id="Gradient_bez_nazwy_7-7" x1="651.48" y1="301.94" x2="643.57" y2="321.66" gradientTransform="translate(-53.04 143.15) rotate(-10.87)" xlink:href="#Gradient_bez_nazwy_7"/><linearGradient id="Gradient_bez_nazwy_7-8" x1="705.06" y1="218.79" x2="699.52" y2="232.6" gradientTransform="translate(257.4 964.48) rotate(-76.91)" xlink:href="#Gradient_bez_nazwy_7"/><linearGradient id="Gradient_bez_nazwy_2-6" x1="904.95" y1="347.03" x2="906.19" y2="331.72" gradientTransform="matrix(-0.98, 0.19, 0.19, 0.98, 1437.77, -142.49)" xlink:href="#Gradient_bez_nazwy_2"/><linearGradient id="Gradient_bez_nazwy_2-7" x1="967.72" y1="429.37" x2="968.96" y2="414.06" gradientTransform="matrix(-1, 0.06, 0.06, 1, 1554.69, -94.53)" xlink:href="#Gradient_bez_nazwy_2"/><linearGradient id="Gradient_bez_nazwy_9-3" x1="735.7" y1="355.73" x2="803.69" y2="301.73" gradientTransform="matrix(-0.92, 0.4, 0.4, 0.92, 1310.46, -271.3)" xlink:href="#Gradient_bez_nazwy_9"/><linearGradient id="Gradient_bez_nazwy_9-4" x1="736.95" y1="357.31" x2="804.95" y2="303.31" gradientTransform="matrix(-0.92, 0.4, 0.4, 0.92, 1310.46, -271.3)" xlink:href="#Gradient_bez_nazwy_9"/><linearGradient id="Gradient_bez_nazwy_8" x1="658.71" y1="391.58" x2="615.29" y2="387.25" gradientTransform="matrix(0.74, 0.67, -0.67, 0.74, 401.29, -375.23)" gradientUnits="userSpaceOnUse"><stop offset="0" stop-color="#00005f"/><stop offset="1" stop-color="#3965fb"/></linearGradient><linearGradient id="Gradient_bez_nazwy_8-2" x1="639.73" y1="331.23" x2="623.42" y2="334.41" gradientTransform="translate(-53.04 143.15) rotate(-10.87)" xlink:href="#Gradient_bez_nazwy_8"/><linearGradient id="Gradient_bez_nazwy_8-3" x1="638.13" y1="323.05" x2="621.82" y2="326.24" gradientTransform="translate(-53.04 143.15) rotate(-10.87)" xlink:href="#Gradient_bez_nazwy_8"/><linearGradient id="Gradient_bez_nazwy_8-4" x1="616.13" y1="352.29" x2="651.63" y2="296.13" gradientTransform="translate(-53.04 143.15) rotate(-10.87)" xlink:href="#Gradient_bez_nazwy_8"/><linearGradient id="Gradient_bez_nazwy_8-5" x1="622.3" y1="356.19" x2="657.8" y2="300.03" gradientTransform="translate(-53.04 143.15) rotate(-10.87)" xlink:href="#Gradient_bez_nazwy_8"/><clipPath id="clip-path" transform="translate(-564.04 -281.64)"><path class="cls-1" d="M644.62,342.18c-.09-.29-1.31-2.95-1.46-3.28-.38-.87-.74-1.76-1-2.67-.16-.5-.31-1-.44-1.53a23,23,0,0,0,2.91-2.16A1.72,1.72,0,0,0,645,332a.84.84,0,0,0,.14-.41,2.09,2.09,0,0,1,0-.24v0c0-1.09-.22-3.3-1.49-7.79a35.53,35.53,0,0,0-1.72-5,1.83,1.83,0,0,0-.82-1,3.39,3.39,0,0,0-1.67-.6c.56-4.35-.09-8.1-3.43-10.92-2-1.69-7.51-3.6-9.48,4.12S611.77,322,614.94,330.4a8.87,8.87,0,0,0,4.52,4.77l-.25.13a6.35,6.35,0,0,0-.86,0c-.87.12-1.28.71-1.16.94l.08.11a4.36,4.36,0,0,0-.93-.15,1.74,1.74,0,0,0-.93.1,1.64,1.64,0,0,0-1,.87,4.34,4.34,0,0,0-.58,1.76c-.56,4.34-.53,8.53-2.05,16.84l0,0s0,.07-.05.11a4.34,4.34,0,0,1-1.55,1.71c-.88.62-2.88,1.21-1.68,1.37a6.9,6.9,0,0,0,3.14-.56,15.15,15.15,0,0,1,2.09-.53c.79-.15,1-.23.86-.76h0c1-4.93,3.18-9.87,3.8-14.39,3.67,2.53,8.66,5.7,10.91,7.06a14.56,14.56,0,0,0,1.35.7c-3.08,2.53-6.38,5.36-8.21,6.86a2,2,0,0,0-.58,1,5.63,5.63,0,0,0-.42.92c-1.45,4.12-6.36,15.37-8.12,18.87h0a.78.78,0,0,0-.1.15,4.34,4.34,0,0,1-1.76,1.5c-.95.5-3,.83-1.84,1.14a6.92,6.92,0,0,0,3.19-.14,13.33,13.33,0,0,1,2.14-.26c1.06-.07,1.06-.14.85-1.32,0,0,0,0,0-.06s0,0,0-.05c1.6-2.31,9.44-13.71,10.5-18.69l.28-.14c2.33-1.37,15.61-8,16.86-8.75a7,7,0,0,0,1.71-1.35C646.19,349.28,647,347.23,644.62,342.18Zm-2.55-11.37c-.27.2-.56.42-.87.67,0-1.1,0-2.2,0-3.3C641.59,329.3,641.9,330.19,642.07,330.81Zm2.42,11.4-1.2.23Zm-2.09.4-.43.08Zm-4.37.84.94-.18Zm-18.86-6.34.26-.11c.53.09.93-.43,2.29-1a13.77,13.77,0,0,0,9.95-1.2,64.76,64.76,0,0,1,.13,8.21C627.39,341,621.07,338.05,619.17,337.11Z"/></clipPath><linearGradient id="Gradient_bez_nazwy_4" x1="317.48" y1="1137.82" x2="455.9" y2="1222.86" gradientTransform="matrix(0.49, -0.68, -0.48, -0.42, 1035.99, 1126.92)" gradientUnits="userSpaceOnUse"><stop offset="0" stop-color="#0000fa"/><stop offset="1" stop-color="#86005b"/></linearGradient><linearGradient id="Gradient_bez_nazwy_2-8" x1="622.53" y1="349.32" x2="622.53" y2="325.74" gradientTransform="matrix(1, -0.06, 0.06, 1, -17.48, 40.03)" xlink:href="#Gradient_bez_nazwy_2"/><linearGradient id="Gradient_bez_nazwy_2-9" x1="633.29" y1="331.66" x2="651.74" y2="331.66" gradientTransform="matrix(1, -0.06, 0.06, 1, -17.48, 40.03)" xlink:href="#Gradient_bez_nazwy_2"/><linearGradient id="Gradient_bez_nazwy_2-10" x1="620.94" y1="343.74" x2="620.94" y2="334.59" gradientTransform="matrix(1, -0.06, 0.06, 1, -581.51, -241.61)" xlink:href="#Gradient_bez_nazwy_2"/><linearGradient id="Gradient_bez_nazwy_2-11" x1="622.3" y1="343.73" x2="622.3" y2="334.59" gradientTransform="matrix(1, -0.06, 0.06, 1, -581.51, -241.61)" xlink:href="#Gradient_bez_nazwy_2"/><linearGradient id="Gradient_bez_nazwy_8-6" x1="743.98" y1="340.42" x2="740.32" y2="344.21" gradientTransform="translate(1502.95 78.53) rotate(135)" xlink:href="#Gradient_bez_nazwy_8"/><linearGradient id="Gradient_bez_nazwy_9-5" x1="870.95" y1="430.45" x2="890.08" y2="442.39" gradientTransform="translate(1289.12 -444.6) rotate(98.04)" xlink:href="#Gradient_bez_nazwy_9"/><linearGradient id="Gradient_bez_nazwy_10-2" x1="741.99" y1="334.31" x2="758.26" y2="334.31" gradientTransform="matrix(0.99, -0.13, 0.13, 0.99, -44.86, 120.26)" xlink:href="#Gradient_bez_nazwy_10"/><linearGradient id="Gradient_bez_nazwy_9-6" x1="842.45" y1="446.72" x2="859.12" y2="435.72" gradientTransform="translate(1289.12 -444.6) rotate(98.04)" xlink:href="#Gradient_bez_nazwy_9"/><linearGradient id="Gradient_bez_nazwy_7-9" x1="756.87" y1="397.06" x2="789.7" y2="389.89" gradientTransform="matrix(1, -0.06, 0.06, 1, -20.81, 49.92)" xlink:href="#Gradient_bez_nazwy_7"/><linearGradient id="Gradient_bez_nazwy_2-12" x1="720.29" y1="453.94" x2="728.25" y2="453.94" gradientTransform="matrix(1, -0.06, 0.06, 1, -20.81, 49.92)" xlink:href="#Gradient_bez_nazwy_2"/><linearGradient id="Gradient_bez_nazwy_2-13" x1="753.16" y1="474.89" x2="758.1" y2="474.89" gradientTransform="matrix(1, -0.06, 0.06, 1, -20.81, 49.92)" xlink:href="#Gradient_bez_nazwy_2"/><linearGradient id="Gradient_bez_nazwy_7-10" x1="742.14" y1="430" x2="759.14" y2="366.63" gradientTransform="matrix(1, -0.06, 0.06, 1, -20.81, 49.92)" xlink:href="#Gradient_bez_nazwy_7"/><linearGradient id="Gradient_bez_nazwy_8-7" x1="868.61" y1="504.72" x2="868.61" y2="432" gradientTransform="translate(-96.88 -45.84) rotate(2.81)" xlink:href="#Gradient_bez_nazwy_8"/><linearGradient id="Gradient_bez_nazwy_8-8" x1="876.33" y1="485.9" x2="876.33" y2="413.18" gradientTransform="translate(-186.57 180.65) rotate(-10.29)" xlink:href="#Gradient_bez_nazwy_8"/><linearGradient id="Gradient_bez_nazwy_8-9" x1="875.87" y1="521.97" x2="875.87" y2="449.25" gradientTransform="translate(6.1 -210.46) rotate(13.37)" xlink:href="#Gradient_bez_nazwy_8"/><linearGradient id="Gradient_bez_nazwy_8-10" x1="761.9" y1="892.6" x2="761.9" y2="820.64" gradientTransform="translate(-54.89 -389.04) rotate(-1.56)" xlink:href="#Gradient_bez_nazwy_8"/><linearGradient id="Gradient_bez_nazwy_8-11" x1="-102.08" y1="-471.4" x2="-102.08" y2="-530.1" gradientTransform="translate(326.46 765.88) rotate(61.73)" xlink:href="#Gradient_bez_nazwy_8"/><linearGradient id="Gradient_bez_nazwy_5-13" x1="882.61" y1="401.13" x2="867.22" y2="373.91" gradientTransform="translate(-96.88 -45.84) rotate(2.81)" xlink:href="#Gradient_bez_nazwy_5"/><linearGradient id="Gradient_bez_nazwy_7-11" x1="729.53" y1="364.76" x2="760.53" y2="393.59" gradientTransform="matrix(1, -0.06, 0.06, 1, -20.81, 49.92)" xlink:href="#Gradient_bez_nazwy_7"/><linearGradient id="Gradient_bez_nazwy_5-14" x1="882.09" y1="401.42" x2="866.7" y2="374.2" gradientTransform="translate(-96.88 -45.84) rotate(2.81)" xlink:href="#Gradient_bez_nazwy_5"/></defs><title>about-perfomanse</title><g class="cls-2"><g id="Слой_1" data-name="Слой 1"><path class="cls-3" d="M566.44,359.94c-3.15,1.17-2.74,3.78-1.41,5,1.89,1.73,3.15,1.12,1.82,4.9-1,2.79.59,5.79,3.83,5.4,4.53-.55,2.33,3.43,2.83,5.57,1,4.42,4.1,3.33,9.3,1.91s7.74-4.62,8.57-9.38c.62-3.52.2-6.63-2.55-7.6-4-1.4-5.44,2.78-6.4-.82-.57-2.16-2.84-5.23-6.74-2.64S571,358.27,566.44,359.94Z" transform="translate(-564.04 -281.64)"/><path class="cls-4" d="M590.91,382.72l-.67-1-1.34-1.95c-.47-.63-1-1.24-1.46-1.87l-.74-.93c-.25-.3-.52-.59-.78-.89-.53-.58-1-1.18-1.59-1.76a50.8,50.8,0,0,0-7.21-6.13,35.76,35.76,0,0,0-8.35-4.43l0,.09c.36.15.72.33,1.07.51s.7.36,1,.55.69.38,1,.58.68.39,1,.61c.66.42,1.33.83,2,1.29l1,.66.93.7.93.7.9.74.91.74c.3.24.58.52.87.78l.86.78.44.38.42.41,1.65,1.65c.53.56,1,1.14,1.58,1.71.25.29.53.57.78.87s.48.61.73.9c.49.61,1,1.2,1.49,1.81s.92,1.26,1.39,1.88l.7.94" transform="translate(-564.04 -281.64)"/><path class="cls-5" d="M577.89,371.53a5.79,5.79,0,0,0-1.67.07,7.1,7.1,0,0,0-.8.17c-.27.07-.53.16-.79.24a9.19,9.19,0,0,0-1.48.72,4.94,4.94,0,0,0-1.27,1.1l0,.05a16.32,16.32,0,0,1,2.92-1.32,30.35,30.35,0,0,1,3.07-1Z" transform="translate(-564.04 -281.64)"/><path class="cls-6" d="M573.69,367.69a4,4,0,0,0-1.39-.2c-.23,0-.46,0-.69,0l-.68.11a6.26,6.26,0,0,0-1.3.45,3.72,3.72,0,0,0-1.16.82l0,.06a13.54,13.54,0,0,1,2.57-.76,26,26,0,0,1,2.64-.46Z" transform="translate(-564.04 -281.64)"/><path class="cls-7" d="M580.43,369.16a3.87,3.87,0,0,0,0-.92c0-.29-.08-.55-.13-.81s0-.25-.08-.38l0-.18a.68.68,0,0,0,0-.19,4.39,4.39,0,0,1,0-.85l0,0a1.69,1.69,0,0,0-.34.83,2.7,2.7,0,0,0,.05.9,5.2,5.2,0,0,0,.66,1.66Z" transform="translate(-564.04 -281.64)"/><path class="cls-8" d="M583.06,375.79a7.41,7.41,0,0,0-2.21.08c-.36.05-.71.14-1.06.22s-.69.22-1,.33a10.86,10.86,0,0,0-2,1,6.44,6.44,0,0,0-1.68,1.45l0,.07a22.11,22.11,0,0,1,3.87-1.76,40.87,40.87,0,0,1,4.07-1.28Z" transform="translate(-564.04 -281.64)"/><path class="cls-9" d="M586.11,373a8,8,0,0,0-.26-2.33,9.72,9.72,0,0,1-.21-2.29c0-.2,0-.4,0-.6s0-.29-.1-.15a1.66,1.66,0,0,0-.1.29c-.05.17-.11.35-.15.52a9.08,9.08,0,0,0-.2,1.14,5.71,5.71,0,0,0,.92,3.45Z" transform="translate(-564.04 -281.64)"/><path class="cls-10" d="M575.33,365.74a3.29,3.29,0,0,0-.2-.69c-.08-.2-.17-.39-.25-.58s-.18-.36-.26-.54a2.54,2.54,0,0,1-.19-.62h0a1.31,1.31,0,0,0-.08.68,2.52,2.52,0,0,0,.2.66,5,5,0,0,0,.79,1.13Z" transform="translate(-564.04 -281.64)"/><path class="cls-11" d="M579.74,336.09c-4.68-.09-5.48,3.52-4.36,5.79,1.57,3.21,3.52,3.06-.13,7.3-2.7,3.13-2.17,7.83,2.24,9,6.17,1.59,1.28,5.66.85,8.7-.9,6.27,3.63,6.41,11.12,7.21,7.7.81,12.43-2.07,15.93-7.85,2.59-4.26,3.63-8.51.54-11.18-4.43-3.83-8.49.85-7.9-4.32.35-3.1-1-8.26-7.43-6.87S586.48,336.2,579.74,336.09Z" transform="translate(-564.04 -281.64)"/><path class="cls-12" d="M600,378.17l-.38-1.61-.76-3.22c-.29-1.07-.63-2.12-.94-3.18l-.49-1.58c-.17-.52-.38-1-.56-1.56-.4-1-.77-2.07-1.18-3.09a69.47,69.47,0,0,0-6.26-11.65,49.38,49.38,0,0,0-8.62-10l-.07.09c.39.39.76.8,1.12,1.22s.73.82,1.08,1.24.7.84,1,1.27.69.86,1,1.31c.64.88,1.3,1.75,1.89,2.67l.92,1.35.86,1.39.85,1.39.8,1.42.8,1.42c.27.47.49,1,.74,1.45s.49,1,.73,1.45l.37.73c.12.24.22.5.33.74l1.31,3c.42,1,.79,2,1.19,3,.19.51.4,1,.57,1.52s.32,1,.5,1.56c.33,1,.7,2.06,1,3.1s.56,2.11.85,3.16l.44,1.58" transform="translate(-564.04 -281.64)"/><path class="cls-13" d="M588.75,357a8.33,8.33,0,0,0-2.2-.76,11.29,11.29,0,0,0-1.14-.19c-.38,0-.76-.06-1.14-.08a12.81,12.81,0,0,0-2.3.18,6.89,6.89,0,0,0-2.21.79l0,.08a23,23,0,0,1,4.47-.24,41.78,41.78,0,0,1,4.48.3Z" transform="translate(-564.04 -281.64)"/><path class="cls-14" d="M585.24,349.85a5.84,5.84,0,0,0-1.71-1,6.92,6.92,0,0,0-.91-.3c-.31-.08-.62-.14-.93-.2a8.89,8.89,0,0,0-1.93-.09,5.14,5.14,0,0,0-1.93.49v.08a18.64,18.64,0,0,1,3.72.32,32.52,32.52,0,0,1,3.66.75Z" transform="translate(-564.04 -281.64)"/><path class="cls-15" d="M593.27,355.2a7.09,7.09,0,0,0,.41-1.23c.09-.39.17-.76.23-1.12a4.89,4.89,0,0,1,.09-.53l0-.26a1,1,0,0,0,.06-.25,5.17,5.17,0,0,1,.38-1.13l0-.06a2.28,2.28,0,0,0-.86.91,3.89,3.89,0,0,0-.4,1.19,7.49,7.49,0,0,0,0,2.5Z" transform="translate(-564.04 -281.64)"/><path class="cls-16" d="M593.32,365.16a10.69,10.69,0,0,0-2.92-1c-.49-.12-1-.17-1.5-.25s-1-.07-1.51-.1a15.62,15.62,0,0,0-3,.24,9.26,9.26,0,0,0-2.93,1l0,.11a30.18,30.18,0,0,1,5.93-.32,56.07,56.07,0,0,1,5.94.4Z" transform="translate(-564.04 -281.64)"/><path class="cls-17" d="M598.7,363.08a11.14,11.14,0,0,0,.85-3.15,13.92,13.92,0,0,1,.89-3.1c.11-.26.23-.51.36-.76s.13-.38-.06-.24a1.76,1.76,0,0,0-.27.33,6.75,6.75,0,0,0-.47.59,14.93,14.93,0,0,0-.84,1.38,8,8,0,0,0-.55,5Z" transform="translate(-564.04 -281.64)"/><path class="cls-18" d="M588.37,348.15a4.39,4.39,0,0,0,.09-1c0-.31,0-.61,0-.89s0-.56,0-.83a3.23,3.23,0,0,1,.06-.9l0,0a1.73,1.73,0,0,0-.45.84,3.18,3.18,0,0,0-.07,1,6.57,6.57,0,0,0,.45,1.86Z" transform="translate(-564.04 -281.64)"/><path class="cls-19" d="M773.77,330.19l3.87,27a3,3,0,0,1-2.53,3.39l-27,3.88a2.94,2.94,0,0,1-.89,0h0a3,3,0,0,1-2.49-2.53l-3.87-27a3,3,0,0,1,2.54-3.38l27-3.87A3,3,0,0,1,773.77,330.19Z" transform="translate(-564.04 -281.64)"/><path class="cls-20" d="M757.26,329.54l-.34,33.65-8.81,1.27a2.94,2.94,0,0,1-.89,0l.33-33.51Z" transform="translate(-564.04 -281.64)"/><polygon class="cls-20" points="199.9 46.95 199.56 80.59 194.85 81.27 195.18 47.62 199.9 46.95"/><path class="cls-21" d="M766.78,338.07a5.93,5.93,0,0,0-8.53,1,5.94,5.94,0,0,0-8.48,1.42,6.06,6.06,0,0,0,1.49,8.18l7.51,5.62a2.32,2.32,0,0,0,3.25-.47l5.63-7.5A6.05,6.05,0,0,0,766.78,338.07Z" transform="translate(-564.04 -281.64)"/><path class="cls-22" d="M650.63,438.42a6.85,6.85,0,0,1-1.71,1.73l-6.13,4.38a105.06,105.06,0,0,1-8.47-13.84,47,47,0,0,1-3.43-8.46c0-.15-.07-.26-.09-.33l14-3.34a45.16,45.16,0,0,0,3.84,8.42c.62,1.13,1.34,2.36,2.17,3.69A7.07,7.07,0,0,1,650.63,438.42Z" transform="translate(-564.04 -281.64)"/><path class="cls-23" d="M650.13,462.79l-12.27,8.76c-11.56-16.19-17.73-28.62-20.9-36.35a63.58,63.58,0,0,1-3.07-8.92l4.43-1,11.28-2.69,1.29-.31,11-2.61,0-.13a62.73,62.73,0,0,0,3.32,8.4c1.32,2.85,3.11,6.37,5.5,10.53q1.46,2.55,3.24,5.42A14.09,14.09,0,0,1,650.13,462.79Z" transform="translate(-564.04 -281.64)"/><path class="cls-24" d="M713,431.34l-43.15-6.63a38.1,38.1,0,0,0-15.44.78L648.62,427l-3.49.91-10.81,2.8-1.54.4L621.54,434,617,435.2l-3.36.87a20.4,20.4,0,0,1-24.87-14.62L581.85,395l-2-7.78a20.4,20.4,0,0,1,14.63-24.86l7.94-2.06,11.24-2.92,21.59-5.6a38.36,38.36,0,0,0,13.87-6.82l34.48-26.78A7.07,7.07,0,0,1,694.75,322l2.22,8.57,14,54,9.89,38.11A7.06,7.06,0,0,1,713,431.34Z" transform="translate(-564.04 -281.64)"/><path class="cls-25" d="M692.05,327.62h0a4,4,0,0,1,4.92,2.9L718.63,414a4,4,0,0,1-2.89,4.92h0a4,4,0,0,1-4.93-2.89l-21.66-83.5A4.05,4.05,0,0,1,692.05,327.62Z" transform="translate(-564.04 -281.64)"/><path class="cls-26" d="M632.78,431.09,621.54,434a340.86,340.86,0,0,1-19.14-73.75l11.24-2.92A328.89,328.89,0,0,0,632.78,431.09Z" transform="translate(-564.04 -281.64)"/><path class="cls-27" d="M713,431.34l-43.15-6.63a38.1,38.1,0,0,0-15.44.78L648.62,427c.62,1.13,1.34,2.36,2.17,3.69a7.07,7.07,0,0,1-.16,7.75q1.46,2.55,3.24,5.42a14.09,14.09,0,0,1-3.74,19l-12.27,8.76c-11.56-16.19-17.73-28.62-20.9-36.35l-3.36.87a20.4,20.4,0,0,1-24.87-14.62L581.85,395c9.19-2,19.23,1.9,28.91,5.94,4.62,1.93,9.16,3.9,13.49,5.26,10.75,3.43,20.22,3.21,26.42-10.2,13.19-28.51,34.75-27.06,50.06-18.76A51.29,51.29,0,0,1,711,384.47h0l9.89,38.11A7.06,7.06,0,0,1,713,431.34Z" transform="translate(-564.04 -281.64)"/><path class="cls-28" d="M730.82,322.25l-2.62,18.48a2,2,0,0,1-2.31,1.74l-18.47-2.62a1.93,1.93,0,0,1-.59-.18h0a2,2,0,0,1-1.15-2.13l2.62-18.48a2,2,0,0,1,2.31-1.73l18.47,2.61A2,2,0,0,1,730.82,322.25Z" transform="translate(-564.04 -281.64)"/><path class="cls-29" d="M720.1,318.67l-6.65,22-6-.86a1.93,1.93,0,0,1-.59-.18l6.63-21.94Z" transform="translate(-564.04 -281.64)"/><polygon class="cls-29" points="160.63 37.68 153.98 59.71 150.75 59.26 157.41 37.22 160.63 37.68"/><path class="cls-21" d="M718.59,323.18a1.37,1.37,0,0,0-1.9.31,21.75,21.75,0,0,1-2.86,3.78l-1.26-.18a.2.2,0,0,0-.22.17l-.94,6.63a.21.21,0,0,0,.17.22l.94.13a3.35,3.35,0,0,0,2.67,2.14l.55.08,3.64.51.81.12a1.37,1.37,0,0,0,1.54-1.15,1.35,1.35,0,0,0-.28-1l.59.08a1.35,1.35,0,0,0,1.17-2.27,1.34,1.34,0,0,0,1.07-1.13,1.36,1.36,0,0,0-1.15-1.54h0a1.32,1.32,0,0,0,.55-.9,1.35,1.35,0,0,0-1.15-1.53l-5.12-.73C718.3,325.68,719.65,323.91,718.59,323.18Z" transform="translate(-564.04 -281.64)"/><path class="cls-30" d="M641.52,281.68,597,290.75a2,2,0,0,0-1.55,2.34l2.66,13a2,2,0,0,0,2.34,1.54l4.39-.89,2.13-.43c.48.41,1.7,1.45,2.2,1.83a1,1,0,0,0,1.41-.29c.32-.54,1-2,1.32-2.54l10.83-2.21L645,298.61a2,2,0,0,0,1.55-2.34l-2.65-13A2,2,0,0,0,641.52,281.68Z" transform="translate(-564.04 -281.64)"/><path class="cls-21" d="M607.1,297.91a2.17,2.17,0,0,0,.39-1.74l-.21-1.06a2.26,2.26,0,0,0-2.54-1.81,2.2,2.2,0,0,0-1.78,2.6l.24,1.14a2.17,2.17,0,0,0,1,1.46,4.64,4.64,0,0,0-2.32,3.75,1,1,0,0,0,1.14,1l7-1.42a.94.94,0,0,0,.68-1.32A4.64,4.64,0,0,0,607.1,297.91Z" transform="translate(-564.04 -281.64)"/><path class="cls-21" d="M624.49,289.27l-8.88,1.81a1.34,1.34,0,0,0-1.05,1.58l.89,4.37a1.34,1.34,0,0,0,1.58,1l.87-.17s1.45,1.25,2,1.63a.8.8,0,0,0,1.16-.23c.32-.55,1.17-2.27,1.17-2.27l3.72-.76a1.35,1.35,0,0,0,1.05-1.59l-.89-4.36A1.33,1.33,0,0,0,624.49,289.27Z" transform="translate(-564.04 -281.64)"/><path class="cls-31" d="M624.08,291.57l-7.2,1.47a.41.41,0,0,1-.47-.31.4.4,0,0,1,.31-.47l7.2-1.47a.4.4,0,0,1,.47.31A.39.39,0,0,1,624.08,291.57Z" transform="translate(-564.04 -281.64)"/><path class="cls-31" d="M624.47,293.46l-7.2,1.47a.4.4,0,0,1-.47-.31.39.39,0,0,1,.31-.47l7.2-1.47a.41.41,0,0,1,.47.31A.4.4,0,0,1,624.47,293.46Z" transform="translate(-564.04 -281.64)"/><path class="cls-31" d="M620.9,296.16l-3.25.66a.41.41,0,0,1-.47-.31.4.4,0,0,1,.31-.47l3.25-.66a.4.4,0,0,1,.47.31A.41.41,0,0,1,620.9,296.16Z" transform="translate(-564.04 -281.64)"/><path class="cls-21" d="M642,293.4a4.07,4.07,0,0,0-1.27-2.22l-.19-.94a3.28,3.28,0,0,0-3.3-2.62l0-.28a.58.58,0,1,0-1.13.23l.06.28a3.26,3.26,0,0,0-2,3.7l.19.94h0A4.06,4.06,0,0,0,634,295l.08.41a.39.39,0,0,0,.45.3l1.6-.33a.31.31,0,0,0,.18.3,3.29,3.29,0,0,0,3.82-.77.32.32,0,0,0,.06-.36l1.6-.32a.39.39,0,0,0,.3-.45Z" transform="translate(-564.04 -281.64)"/><path class="cls-32" d="M635.25,295.12a1.73,1.73,0,1,1-2-1.35A1.73,1.73,0,0,1,635.25,295.12Z" transform="translate(-564.04 -281.64)"/><path class="cls-33" d="M802,327.44,786,321.59a2.52,2.52,0,0,0-3.23,1.49L779,333.45a2.5,2.5,0,0,0,1.5,3.22l1.55.58s1.08,3.42,1.52,4.53a1.5,1.5,0,0,0,2.07.76c1-.56,4.09-2.47,4.09-2.47l6.68,2.46a2.51,2.51,0,0,0,3.23-1.5l3.81-10.36A2.52,2.52,0,0,0,802,327.44Z" transform="translate(-564.04 -281.64)"/><path class="cls-34" d="M798.64,331.79l-12.91-4.74a.82.82,0,1,1,.57-1.53l12.9,4.74a.81.81,0,0,1-.56,1.53Z" transform="translate(-564.04 -281.64)"/><path class="cls-34" d="M797.3,335.43l-12.9-4.74a.81.81,0,1,1,.56-1.53l12.9,4.75a.81.81,0,0,1,.49,1A.82.82,0,0,1,797.3,335.43Z" transform="translate(-564.04 -281.64)"/><path class="cls-34" d="M788.88,336.47l-5.82-2.14a.81.81,0,0,1,.56-1.53l5.82,2.14a.81.81,0,0,1-.56,1.53Z" transform="translate(-564.04 -281.64)"/><path class="cls-35" d="M754.64,302.87l6.34,8.51-17.36-2.48,8.48-6.39A1.81,1.81,0,0,1,754.64,302.87Z" transform="translate(-564.04 -281.64)"/><path class="cls-36" d="M761,311.4l-1.16,8.16a.83.83,0,0,1-.94.7L743.15,318a.84.84,0,0,1-.7-.94l1.17-8.17a.82.82,0,0,1,.35-.56.84.84,0,0,1,.58-.14l15.73,2.25a.85.85,0,0,1,.52.29A.84.84,0,0,1,761,311.4Z" transform="translate(-564.04 -281.64)"/><path class="cls-37" d="M760.8,310.75l-2,1.16-5.42,3.19a2.91,2.91,0,0,1-3.56-.51L745.54,310,744,308.35a.84.84,0,0,1,.58-.14l15.73,2.25A.85.85,0,0,1,760.8,310.75Z" transform="translate(-564.04 -281.64)"/><path class="cls-21" d="M759.6,306.51l-.77,5.4-5.42,3.19a2.91,2.91,0,0,1-3.56-.51L745.54,310l.77-5.4a1.53,1.53,0,0,1,1.74-1.3l10.25,1.47A1.53,1.53,0,0,1,759.6,306.51Z" transform="translate(-564.04 -281.64)"/><path class="cls-31" d="M756.88,307.79l-8.32-1.18a.51.51,0,0,1-.42-.57.5.5,0,0,1,.57-.42l8.31,1.19a.49.49,0,1,1-.14,1Z" transform="translate(-564.04 -281.64)"/><path class="cls-31" d="M756.54,310.14,748.23,309a.49.49,0,0,1,.14-1l8.32,1.19a.5.5,0,1,1-.15,1Z" transform="translate(-564.04 -281.64)"/><path class="cls-31" d="M751.64,311.83l-3.75-.53a.5.5,0,1,1,.15-1l3.74.54a.51.51,0,0,1,.43.56A.5.5,0,0,1,751.64,311.83Z" transform="translate(-564.04 -281.64)"/><path class="cls-38" d="M596.35,445.71l9.21,2-13.1,8.42,2-9.22A1.61,1.61,0,0,1,596.35,445.71Z" transform="translate(-564.04 -281.64)"/><path class="cls-39" d="M605.57,447.75l4,6.17a.73.73,0,0,1-.22,1l-11.87,7.63a.74.74,0,0,1-1-.23l-4-6.16a.77.77,0,0,1-.09-.59.72.72,0,0,1,.31-.42l11.87-7.63a.82.82,0,0,1,.52-.11A.77.77,0,0,1,605.57,447.75Z" transform="translate(-564.04 -281.64)"/><path class="cls-40" d="M605.07,447.42l-.65,1.92-1.79,5.3a2.57,2.57,0,0,1-2.68,1.72l-5.56-.57-2-.21a.7.7,0,0,1,.32-.42l11.86-7.63A.82.82,0,0,1,605.07,447.42Z" transform="translate(-564.04 -281.64)"/><path class="cls-41" d="M601.81,445.27l2.61,4.07-1.79,5.3a2.57,2.57,0,0,1-2.68,1.72l-5.56-.57-2.62-4.07a1.38,1.38,0,0,1,.41-1.89l7.74-5A1.38,1.38,0,0,1,601.81,445.27Z" transform="translate(-564.04 -281.64)"/><path class="cls-42" d="M600.72,447.71l-6.27,4a.44.44,0,0,1-.61-.14A.43.43,0,0,1,594,451l6.28-4a.43.43,0,0,1,.6.14A.42.42,0,0,1,600.72,447.71Z" transform="translate(-564.04 -281.64)"/><path class="cls-43" d="M601.86,449.49l-6.28,4a.44.44,0,0,1-.61-.14.43.43,0,0,1,.14-.6l6.27-4a.44.44,0,0,1,.61.14A.45.45,0,0,1,601.86,449.49Z" transform="translate(-564.04 -281.64)"/><path class="cls-44" d="M599.55,453.47l-2.83,1.82a.44.44,0,1,1-.48-.74l2.83-1.82a.44.44,0,0,1,.48.74Z" transform="translate(-564.04 -281.64)"/><path class="cls-45" d="M687.18,444.44l-3.58,2.36,1.09-5.33a2,2,0,0,0-1.55-2.35l-14.66-3a2,2,0,0,0-2.35,1.55l-3,14.65a2,2,0,0,0,1.55,2.35l14.66,3a2,2,0,0,0,2.35-1.55l1.09-5.33,2.36,3.58a1.19,1.19,0,0,0,2.16-.42l1.69-8.29A1.18,1.18,0,0,0,687.18,444.44Z" transform="translate(-564.04 -281.64)"/><polygon class="cls-21" points="109.18 160.62 107.41 169.27 112.62 165.82 109.18 160.62"/><path class="cls-46" d="M636,306c-2-1.69-7.51-3.6-9.48,4.12S611.77,322,614.94,330.4s18.62,8.14,21.45-1.36S642.21,311.22,636,306Z" transform="translate(-564.04 -281.64)"/><path class="cls-47" d="M629.37,332.52c.62-.76,1.8-2.6,3.59-7.35a37.45,37.45,0,0,0,1.58-5c.39-1.59-.83-2.29-1.67-1.94a5.69,5.69,0,0,0-2.81,2.9c-1.43,4.73-2.39,8.33-2.93,9.47C626.34,332.23,628.63,333.43,629.37,332.52Z" transform="translate(-564.04 -281.64)"/><path class="cls-48" d="M619.31,337c.72.23,1.06-.61,3.37-1.34a21.44,21.44,0,0,0,6.37-2.9c1.44-.9.73-3.33-1.19-2.58-1.63.63-8,4.92-9,5.3C618.23,335.71,618.73,336.79,619.31,337Z" transform="translate(-564.04 -281.64)"/><path class="cls-49" d="M636.69,312.83c0,.14.83,3,1.3,5.3a2.11,2.11,0,0,1-1.15,2.48h0a2,2,0,0,1-2-1.76,40.26,40.26,0,0,0-.74-4Z" transform="translate(-564.04 -281.64)"/><path class="cls-50" d="M641.43,325.12a38.74,38.74,0,0,0-.23,6.46,16.05,16.05,0,0,0,.91,4.65c.31.91.67,1.8,1,2.67.15.33,1.37,3,1.46,3.28l-12.75,2.45c-.36-2.52,1-10.91-1.92-15.62-2-3.27-.26-3.71.38-6.87a8.72,8.72,0,0,1,.61-2.32,3.69,3.69,0,0,1,1.72-1.57,6.81,6.81,0,0,1,1.15-.4c2.13-.59,7.09-2.19,8.15.79a5.56,5.56,0,0,1,.23,2.53c-.12.95-.38,1.88-.57,2.81C641.54,324.36,641.48,324.74,641.43,325.12Z" transform="translate(-564.04 -281.64)"/><path class="cls-51" d="M634.24,337.81c-.65,1.47-1.23,2.15-1.15,2.92s1.33,0,1.63-.46,1.49-2.12,1.28-2.76S634.71,336.73,634.24,337.81Z" transform="translate(-564.04 -281.64)"/><path class="cls-52" d="M645.16,331.55c.05-1-.1-3.17-1.48-8.05a35.53,35.53,0,0,0-1.72-5c-.63-1.52-2-1.36-2.49-.58a5.64,5.64,0,0,0-.54,4c1.65,4.66,3,8.13,3.26,9.37C642.55,333.11,645.1,332.71,645.16,331.55Z" transform="translate(-564.04 -281.64)"/><path class="cls-53" d="M635.46,338.24c.59.14,1-.93,3.2-2a21.51,21.51,0,0,0,5.92-3.73c1.3-1.09.27-3.4-1.53-2.4-1.53.85-7.35,6-8.14,6.69C634.43,337.26,634.87,338.1,635.46,338.24Z" transform="translate(-564.04 -281.64)"/><path class="cls-51" d="M636.72,310.1c.78,2.45.93,3,.32,4.41a6,6,0,0,1-3,3c-1.2.52-2.64-.37-3.34-1.25a18.47,18.47,0,0,1-2.87-5.9,4.15,4.15,0,0,1,2.2-4.38C631.68,305.23,634.81,304.1,636.72,310.1Z" transform="translate(-564.04 -281.64)"/><path class="cls-51" d="M620.5,335.47a9.46,9.46,0,0,0-2.15-.18c-.87.12-1.28.71-1.16.94s.9,1,1.47,1a1.93,1.93,0,0,0,1.27-.64C620.21,336.26,621.2,335.66,620.5,335.47Z" transform="translate(-564.04 -281.64)"/><path class="cls-54" d="M611.77,355.85a4.34,4.34,0,0,1-1.55,1.71c-.88.62-2.88,1.21-1.68,1.37a6.77,6.77,0,0,0,3.14-.56,15.15,15.15,0,0,1,2.09-.53c1-.21,1-.27.67-1.42C613.94,354.84,612.06,354.84,611.77,355.85Z" transform="translate(-564.04 -281.64)"/><path class="cls-55" d="M613.28,378.24a4.34,4.34,0,0,1-1.76,1.5c-.95.5-3,.83-1.84,1.14a6.92,6.92,0,0,0,3.19-.14,13.33,13.33,0,0,1,2.14-.26c1.06-.07,1.06-.14.85-1.32C615.56,377.52,613.7,377.28,613.28,378.24Z" transform="translate(-564.04 -281.64)"/><path class="cls-56" d="M627.68,308.92c-.24,2,7.7,2,9.08,1.08s-.18-3.59-2-4.53S628.26,304.27,627.68,308.92Z" transform="translate(-564.04 -281.64)"/><path class="cls-57" d="M630,307.45c.33,1.44-1.87,2.75-1.8,4,0,.79-1-1.32-.87-2.53S629.33,304.57,630,307.45Z" transform="translate(-564.04 -281.64)"/><path class="cls-58" d="M613.85,338.92c.53-4.06,4.29-3.32,4.68.12.61,5.42-2.65,11.74-3.9,18-.47-1.2-.76-1.52-1.31-1.68a1.76,1.76,0,0,0-1.52.36C613.32,347.45,613.29,343.26,613.85,338.92Z" transform="translate(-564.04 -281.64)"/><path class="cls-59" d="M644.1,350.67s4.34-.52.52-8.49l-12.75,2.45s-2.43,5,3.31,7.76Z" transform="translate(-564.04 -281.64)"/><path class="cls-60" d="M615,340.17c-1.35-1.11-1.46-5.9,4-3.16,2.41,1.22,16,7.41,17.25,8.06a3.13,3.13,0,0,1,1.81,2.58c0,3.7-3.87,5-8.69,2.1C626.21,347.86,617.78,342.47,615,340.17Z" transform="translate(-564.04 -281.64)"/><path class="cls-61" d="M621.48,359.23c1.5-4.25,5.54-2.56,5,.84-.81,4.82-8.94,16.62-10.57,19-.22.3-.34.14-.48,0-.4-.52-.77-.92-1-1a4.08,4.08,0,0,0-1,.05C615.12,374.6,620,363.35,621.48,359.23Z" transform="translate(-564.04 -281.64)"/><path class="cls-62" d="M637.08,345.67c4.85-2.52,9.46-1.23,9.06,2.47a4.64,4.64,0,0,1-2.61,3.33c-1.25.72-14.53,7.38-16.86,8.75-5.26,3.07-5.54-1.8-4.19-2.91C625.89,354.52,634.44,347.05,637.08,345.67Z" transform="translate(-564.04 -281.64)"/><path class="cls-51" d="M636.37,310.72c-.18.93.06,1.78.55,1.87s1-.58,1.23-1.52,0-1.78-.55-1.87S636.56,309.78,636.37,310.72Z" transform="translate(-564.04 -281.64)"/><g class="cls-63"><path class="cls-64" d="M669.34,312.66c-9.92-5.94-26.77,1.32-31.71,11.5-5,10.39,4.13,16.1-5.94,30.3-8,11.23-2.34,24.45-2,34.63.41,11.18-15.88,19.52-15,29.53,2.13,23-16.5,31.48,2.13,37.51,19.12,6.19,20.18-3.95,41.7-2.66,18.7,1.13,24.9-37.31,25-52.16.06-15.72-10.67-19.09-3.65-35.37,4.2-9.75,7.3-15.27-3.44-26.77C671,333.28,688.32,324,669.34,312.66Z" transform="translate(-564.04 -281.64)"/></g><path class="cls-65" d="M631.62,340.78h-.22l-3.94-9.24a.6.6,0,0,0,.38-.59.62.62,0,0,0-.65-.58l-13.76.77a.61.61,0,0,0-.49.29.62.62,0,0,0-.05.56l4.44,10.4a.62.62,0,0,0,.6.38l13.76-.77a.62.62,0,0,0-.07-1.23Z" transform="translate(-564.04 -281.64)"/><path class="cls-66" d="M640.67,341.51l-9,.5a.61.61,0,0,1-.6-.37l-4.43-10.4a.61.61,0,0,1,.32-.81.62.62,0,0,1,.81.32l4.26,10,8.55-.48a.62.62,0,0,1,.07,1.23Z" transform="translate(-564.04 -281.64)"/><polygon class="cls-67" points="54.12 55.37 59.99 55.04 59.74 54.63 53.87 54.96 54.12 55.37"/><polygon class="cls-68" points="56.48 55.99 60.44 55.77 60.19 55.36 56.23 55.58 56.48 55.99"/><rect class="cls-69" x="735.23" y="361.03" width="1.83" height="3.33" transform="translate(534.33 817.43) rotate(-142.42)"/><path class="cls-70" d="M728.5,372.62h0a1.61,1.61,0,0,0,2.3-.35l5.77-8.19-1.88-1.44-6.44,7.67A1.61,1.61,0,0,0,728.5,372.62Z" transform="translate(-564.04 -281.64)"/><path class="cls-71" d="M734.06,356A8.13,8.13,0,0,0,748,360.55a8,8,0,0,0,1.15-1.51,8.55,8.55,0,0,0,.52-1.05,8.08,8.08,0,0,0,.58-3.48q0-.31-.06-.63a8.13,8.13,0,0,0-9.12-7,6.37,6.37,0,0,0-.63.11,8,8,0,0,0-3.21,1.45,10.77,10.77,0,0,0-.88.77,7.56,7.56,0,0,0-1.16,1.49A8.09,8.09,0,0,0,734.06,356Z" transform="translate(-564.04 -281.64)"/><path class="cls-29" d="M737.23,348.42,749.67,358a8.08,8.08,0,0,0,.58-3.48L740.44,347A8,8,0,0,0,737.23,348.42Z" transform="translate(-564.04 -281.64)"/><path class="cls-29" d="M735.19,350.68,748,360.55a8,8,0,0,0,1.15-1.51l-12.8-9.85A7.56,7.56,0,0,0,735.19,350.68Z" transform="translate(-564.04 -281.64)"/><path class="cls-72" d="M743.33,364.22a9.38,9.38,0,0,1-8.64-15h0a9.38,9.38,0,1,1,8.64,15Zm-2.09-16.13a6.87,6.87,0,0,0-4.58,2.63h0a6.89,6.89,0,1,0,4.58-2.63Z" transform="translate(-564.04 -281.64)"/><path class="cls-51" d="M735.09,370.32c-.33-.83-2.27-6.49-3.36-5.4-2.11,2.11-1.51,3.29-1.19,4.21a3.65,3.65,0,0,0,3.29,2.55C734.59,371.6,735.41,371.12,735.09,370.32Z" transform="translate(-564.04 -281.64)"/><path class="cls-51" d="M735.22,369.83c0-.42.16-3.21-.29-3.27-.7-.09-1.13,1.62-1.26,2.68-.07.58.5,1.62,1,1.61S735.18,370.49,735.22,369.83Z" transform="translate(-564.04 -281.64)"/><path class="cls-73" d="M774,406.61c-.5-4.66-.82-5.77-2.14-8.5v0a.61.61,0,0,0,0-.12c-.58-.91-2.18-2.74-7.1-6a36.59,36.59,0,0,0-5.42-3.14c-1.79-.87-3.45.33-3.53,1.37-.14,1.67.81,4,1.72,4.54,5.12,2.9,9.24,4.81,10.35,5.73a1.55,1.55,0,0,0,.63.31,2.83,2.83,0,0,0,0,.5c.4,2.23,3.6,9.54,3.84,10.89.16.9,1.24,1.15,1.7.12C774.63,411,774.36,409.85,774,406.61Z" transform="translate(-564.04 -281.64)"/><path class="cls-74" d="M728.19,459.83a5.68,5.68,0,0,1-1.43,2.6c-.92,1-3.26,2.43-1.69,2.23a9.38,9.38,0,0,0,3.78-1.72,19.28,19.28,0,0,1,2.46-1.34c1.25-.59,1.22-.67.42-2C730.62,457.88,728.26,458.51,728.19,459.83Z" transform="translate(-564.04 -281.64)"/><path class="cls-75" d="M759.13,478.89a5.87,5.87,0,0,1,.23,3c-.21,1.37-1.41,3.82-.21,2.79a9.29,9.29,0,0,0,2.23-3.5,18.89,18.89,0,0,1,1.33-2.47c.72-1.18.66-1.23-.72-1.87C760.09,475.94,758.46,477.75,759.13,478.89Z" transform="translate(-564.04 -281.64)"/><path class="cls-51" d="M758.62,381.4c-.42,2.78-.53,3.39-1.81,4.48A6.56,6.56,0,0,1,752.3,387c-1.43-.07-2.29-1.84-2.55-3a17.1,17.1,0,0,1,0-6.59,4.52,4.52,0,0,1,4.26-3.23C756,374.21,759.63,374.61,758.62,381.4Z" transform="translate(-564.04 -281.64)"/><path class="cls-51" d="M757,386.25c0,1,0,2.09,0,3.11a2.67,2.67,0,0,1-2.46,2.59h-.15c-1.21-.06-2.58-1.22-2.41-2.42.11-.79.17-1.58.21-2.27a3.15,3.15,0,0,1,2.24-2.84h0A2,2,0,0,1,757,386.25Z" transform="translate(-564.04 -281.64)"/><path class="cls-76" d="M762,398.46a58.26,58.26,0,0,0-3.53,20.08l-16.88-.83s.88-15.8,2.44-24.4a6.45,6.45,0,0,1,3.8-4.79,12.15,12.15,0,0,1,4.55-.78l3.12.15a12.22,12.22,0,0,1,3.27.58C763.25,390.1,763.46,394.26,762,398.46Z" transform="translate(-564.04 -281.64)"/><path class="cls-77" d="M757.84,428.86s1.64-3.47.58-10.32l-16.88-.83A95.71,95.71,0,0,0,740.42,428Z" transform="translate(-564.04 -281.64)"/><path class="cls-78" d="M749.49,453.21c-2.31-5.17,3-7.13,5.5-3.53,3.48,5.09,6.49,22.83,7,26.39.07.46.25,1,0,1.22a3.64,3.64,0,0,1-1.71.6c-.62.1-1.23.21-1.43-.55C757.54,472.26,751.74,458.22,749.49,453.21Z" transform="translate(-564.04 -281.64)"/><path class="cls-79" d="M748.72,428.8c1-6.79,4.87-11.33,8.47-8.15,1.52,1.34,1.71,3.33,1.53,5.13s-3.2,20.19-3.53,23.57c-.74,7.61-6.09,4.24-6.23,2C748.59,445.86,748.18,432.5,748.72,428.8Z" transform="translate(-564.04 -281.64)"/><path class="cls-80" d="M731.69,459.59c0-8.06,2.84-21.8.69-28.31-1.37-4.14-6.36-4.11-6,1,.39,5.47,2.33,16,2,26.65C728.41,460,731.67,460.53,731.69,459.59Z" transform="translate(-564.04 -281.64)"/><path class="cls-81" d="M730.18,435.14c-2.16.4-7.31-4.72-.32-7.81,3.11-1.37,13.77-6.71,15.42-7.44s4.12-1.71,4.83-1.07c3.59,3.2.93,9.6-5.58,11.75C740.17,432,734.66,434.29,730.18,435.14Z" transform="translate(-564.04 -281.64)"/><path class="cls-51" d="M750.38,380.41c.34,1,.21,1.93-.31,2.11s-1.22-.47-1.56-1.45-.21-1.93.3-2.12S750,379.42,750.38,380.41Z" transform="translate(-564.04 -281.64)"/><path class="cls-51" d="M757.65,380.77c-.44.94-.4,1.9.1,2.13s1.25-.35,1.69-1.3.4-1.9-.09-2.13S758.09,379.82,757.65,380.77Z" transform="translate(-564.04 -281.64)"/><path class="cls-82" d="M758,375.86c-1.17,1.57-6.43,1.46-8.12.78s-1.4-4,1.06-4.1c1.38.06.37.34,1.46.85C753,373.65,759.27,374.18,758,375.86Z" transform="translate(-564.04 -281.64)"/><path class="cls-83" d="M749.14,388.4c-4.39-3.92-8-6.67-8.9-7.8a1.14,1.14,0,0,0-.11-.11,1.79,1.79,0,0,0-.09-.4c-.66-2.15-4.94-8.91-5.74-10a1.07,1.07,0,0,0-1.87.53c-.35,1.32.18,1.46,1.07,4.84a37.1,37.1,0,0,0,2.32,6.67.08.08,0,0,1,0,0,8.84,8.84,0,0,0,.86,1.65h0a50.06,50.06,0,0,0,9.42,10c1.56,1.23,3.44.41,3.74-.59C750.34,391.6,749.92,389.09,749.14,388.4Z" transform="translate(-564.04 -281.64)"/><path class="cls-51" d="M774.87,413.54c0-.9-.54-3.16-1.43-2.85a2.31,2.31,0,0,0-1.89,2.4c0,1.78,1,1.75,2,2C774.33,415.32,774.88,414.39,774.87,413.54Z" transform="translate(-564.04 -281.64)"/><path class="cls-84" d="M752.13,375.28c-1.67.9-2.09,1.74-2.14,3.74s.64,5.46,4.28,6.41,4.7-2.67,5-5.18.3-4.41-1.54-4.95C755,374.49,753.14,374.74,752.13,375.28Z" transform="translate(-564.04 -281.64)"/></g></g></svg>