<svg id="Слой_1" data-name="Слой 1" xmlns="http://www.w3.org/2000/svg" viewBox="0 0 1365.65 82.79"><defs><style>.cls-1{fill:#f8f8f8;}</style></defs><title>bg-content-new-top</title><path class="cls-1" d="M.35,355.05c0,4.24,41.68,16.14,45.07,17.26,43.44,14.33,88.27,24.46,133.37,31.92A1282.89,1282.89,0,0,0,506.94,415.4c34.72-3.27,69.23-7.28,103.66-12.93,36.29-5.94,72.33-13.46,107.88-22.86A1242.28,1242.28,0,0,1,946.35,342a1435.51,1435.51,0,0,1,270,6.17q36.75,4.28,73.24,10.37c6.93,1.16,76.41,11.55,76.41,14.77v-35H.35Z" transform="translate(-0.35 -338.3)"/></svg>