<svg id="Слой_1" data-name="Слой 1" xmlns="http://www.w3.org/2000/svg" viewBox="0 0 1920.57 388.57"><defs><style>.cls-1{fill:#f8f8f8;}</style></defs><title>footer-bg</title><path class="cls-1" d="M1621.36,3c-40.43-4.51-89,7.52-120.91,34.4-90.62,76.38-141.69,170.7-250,200.37-19.82,5.44-67.24,19-134.49,8.15-25.82-4.17-54.41-11.2-90.21-21.73-24.76-7.28-42.61-12-59.8-15.76-53.43-11.74-81.7-11.08-112.69-9.36C766,203.92,735.14,233.6,663.17,272,598.53,306.41,508,312.85,425.89,276,400,264.41,323.28,231.68,236.5,248.64c0,0-4.38.87-9.51,2C163,265.23,82.52,300.36-.09,384.89v5.41h282.9v.34H1448.4v-.34h472.07V235.85C1783.46,49,1693.63,11.06,1621.36,3Z" transform="translate(0.09 -2.07)"/></svg>