<svg id="Слой_1" data-name="Слой 1" xmlns="http://www.w3.org/2000/svg" viewBox="0 0 109 109"><defs><style>.cls-1{fill:#f2f2f2;}.cls-2{fill:#d91935;fill-rule:evenodd;}</style></defs><title>framework-bitrix</title><circle class="cls-1" cx="54.5" cy="54.5" r="54.5"/><path class="cls-2" d="M496.29,300a40.48,40.48,0,0,0-8.73,1v39.36a8.75,8.75,0,1,0,9.33-8.74v-7a15.76,15.76,0,1,1-16.34,15.75V303.19c-1,.42-2,.89-2.92,1.39v35.74a18.68,18.68,0,1,0,19.26-18.67v-7a25.68,25.68,0,1,1-26.26,25.67V309.23A40.29,40.29,0,1,0,496.29,300" transform="translate(-442 -285)"/></svg>