<svg id="Слой_1" data-name="Слой 1" xmlns="http://www.w3.org/2000/svg" viewBox="0 0 109 109"><defs><style>.cls-1{fill:#f2f2f2;}.cls-2{fill:#1a171b;}.cls-3{fill:#fff;}</style></defs><title>framework-symfony</title><circle class="cls-1" cx="54.5" cy="54.5" r="54.5"/><circle class="cls-2" cx="54.85" cy="55.06" r="40.06"/><path class="cls-3" d="M514.36,313.82c-4.07.14-7.62,2.39-10.26,5.49a34.49,34.49,0,0,0-6.28,11.56c-2.51-2.06-4.45-4.72-8.48-5.89A10.38,10.38,0,0,0,480,326.7a8.45,8.45,0,0,0-2.87,4.18c-1.21,3.93,1.27,7.43,2.4,8.68l2.46,2.64a3.73,3.73,0,0,1,1.13,3.8,4.54,4.54,0,0,1-5.78,2.67c-1.16-.36-2.83-1.22-2.46-2.44a10.66,10.66,0,0,1,.71-1.3,7.67,7.67,0,0,0,.31-.82A3.26,3.26,0,0,0,474,340a2.73,2.73,0,0,0-3.75,1.9c-.7,2.27.39,6.38,6.2,8.17,6.81,2.1,12.57-1.61,13.39-6.45.51-3-.85-5.28-3.36-8.17l-2-2.26a3.72,3.72,0,0,1-.38-5c1.08-1.36,2.62-1.95,5.13-1.26,3.68,1,5.32,3.55,8.06,5.61-1.13,3.7-1.87,7.42-2.54,10.75l-.41,2.49c-1.95,10.25-3.44,15.88-7.32,19.12a6.33,6.33,0,0,1-3.58,1.44,1,1,0,0,1-1.18-.84c0-.62.5-.91.84-1.18a2.15,2.15,0,0,0,1.25-2.26,3.39,3.39,0,0,0-3.65-3.24,4.23,4.23,0,0,0-3.93,4.29c.1,2.84,2.74,5,6.72,4.82,2.13-.07,6.88-.93,11.56-6.5,5.45-6.38,7-13.7,8.12-19.05l1.28-7.07c.71.08,1.48.14,2.3.16,6.79.14,10.19-3.37,10.24-5.93,0-1.55-1-3.07-2.49-3a2.84,2.84,0,0,0-2.69,2.19c-.31,1.42,2.16,2.71.23,4-1.37.89-3.83,1.51-7.29,1l.63-3.48c1.28-6.6,2.87-14.72,8.88-14.92.44,0,2,0,2.08,1.08,0,.36-.08.45-.49,1.26a2.88,2.88,0,0,0-.56,1.79,2.81,2.81,0,0,0,3.19,2.72c2.48-.08,3.19-2.49,3.15-3.73-.1-2.92-3.17-4.76-7.24-4.63Z" transform="translate(-442 -285)"/></svg>