<svg id="Слой_1" data-name="Слой 1" xmlns="http://www.w3.org/2000/svg" viewBox="0 0 109 109"><defs><style>.cls-1{fill:#f2f2f2;}.cls-2{fill:#ff2d20;fill-rule:evenodd;}</style></defs><title>framework-laravel</title><circle class="cls-1" cx="54.5" cy="54.5" r="54.5"/><path class="cls-2" d="M537,320.15a1.06,1.06,0,0,1,0,.31v16.27a1.21,1.21,0,0,1-.6,1l-13.65,7.86V361.2a1.21,1.21,0,0,1-.59,1l-28.51,16.41a.76.76,0,0,1-.21.08l-.08,0a1.22,1.22,0,0,1-.6,0l-.1,0-.19-.08L464,362.23a1.18,1.18,0,0,1-.6-1V312.39a1.65,1.65,0,0,1,0-.31,1,1,0,0,0,0-.1l.08-.18s.06-.07.08-.11l.11-.14.11-.08.13-.11h0l14.25-8.2a1.18,1.18,0,0,1,1.18,0l14.25,8.2h0l.13.1.11.09.11.14s.06.07.08.11l.08.18a1,1,0,0,0,0,.1,1.65,1.65,0,0,1,0,.31v30.49L506.12,336V320.46a1.55,1.55,0,0,1,0-.31l0-.1a1.07,1.07,0,0,1,.07-.19l.08-.1a1.71,1.71,0,0,1,.11-.14l.12-.09.13-.1h0L521,311.22a1.2,1.2,0,0,1,1.19,0l14.25,8.21.13.1.11.09a1.71,1.71,0,0,1,.11.14.39.39,0,0,1,.08.1c0,.06,0,.12.08.19A1,1,0,0,1,537,320.15ZM534.62,336V322.51l-5,2.87-6.89,4v13.53L534.63,336Zm-14.25,24.47V347l-6.77,3.87-19.35,11v13.67Zm-54.62-46.06v46.06l26.12,15V361.89l-13.65-7.72h0a.53.53,0,0,1-.12-.1L478,354h0a.58.58,0,0,1-.1-.12l-.09-.12h0l-.06-.15-.06-.13h0c0-.06,0-.12,0-.18a.59.59,0,0,1,0-.13h0V321.28l-6.89-4-5-2.87Zm13.06-8.89-11.87,6.83,11.87,6.84,11.87-6.84-11.87-6.83ZM485,348.21l6.88-4V314.45l-5,2.87-6.89,4v29.8Zm36.57-34.59-11.87,6.84,11.87,6.83,11.87-6.83Zm-1.19,15.73-6.88-4-5-2.87V336l6.89,4,5,2.87Zm-27.31,30.49,17.41-9.94,8.7-5-11.86-6.83L493.65,346l-12.44,7.17Z" transform="translate(-442 -285)"/></svg>