<svg id="Слой_1" data-name="Слой 1" xmlns="http://www.w3.org/2000/svg" xmlns:xlink="http://www.w3.org/1999/xlink" viewBox="0 0 109 109"><defs><style>.cls-1{fill:none;}.cls-2{fill:#f2f2f2;}.cls-3{clip-path:url(#clip-path);}.cls-4{fill:#7cc734;}.cls-4,.cls-5,.cls-6{fill-rule:evenodd;}.cls-5{fill:#3e7fca;}.cls-6{fill:#eb6e2e;}</style><clipPath id="clip-path" transform="translate(-442 -285)"><rect class="cls-1" x="312.14" y="-151" width="635.95" height="823"/></clipPath></defs><title>framework-yii</title><circle class="cls-2" cx="54.5" cy="54.5" r="54.5"/><g id="g4175"><g id="g4177"><g class="cls-3"><g id="g4179"><g id="g4185"><path id="path4187" class="cls-4" d="M503.33,327.9c-3.21-9.26,6.17-19.19,13.89-19.48,4.62,2.41,8.59,8.74,8.39,17.34-.6,10.58-8.1,19.71-16.25,28.12-.45-10.25-2.63-16.79-6-26" transform="translate(-442 -285)"/></g><g id="g4189"><path id="path4191" class="cls-5" d="M485.14,378.05c-1.29-10.33,2.91-19.15,7.07-24.53a51.37,51.37,0,0,0,4.66-6.95c2.19.95,8.07,4,11.31,9-.47,7.27-5.84,20.5-23,22.44" transform="translate(-442 -285)"/></g><g id="g4193"><path id="path4195" class="cls-6" d="M478.64,338.79c-13.69-3.83-17.07-15.86-16.46-24,13.3-5.39,27.61.13,35.87,11.64A57,57,0,0,1,508.2,353.9c-4-5.24-9-8.28-15.38-10.66-4.38-1.62-8.41-2.7-14.18-4.45" transform="translate(-442 -285)"/></g></g></g></g></g></svg>