<svg id="Слой_1" data-name="Слой 1" xmlns="http://www.w3.org/2000/svg" xmlns:xlink="http://www.w3.org/1999/xlink" viewBox="0 0 209.49 298.29"><defs><style>.cls-1{fill:url(#Degradado_sin_nombre_36);}.cls-2{fill:url(#Degradado_sin_nombre_11);}.cls-3{fill:#201600;}</style><linearGradient id="Degradado_sin_nombre_36" x1="579.69" y1="382.61" x2="775.54" y2="382.61" gradientUnits="userSpaceOnUse"><stop offset="0" stop-color="#2acaff"/><stop offset="1" stop-color="#2adfc3"/></linearGradient><linearGradient id="Degradado_sin_nombre_11" x1="599.9" y1="394.89" x2="787.72" y2="394.89" gradientUnits="userSpaceOnUse"><stop offset="0" stop-color="#76aadb"/><stop offset="1" stop-color="#4a72b2"/></linearGradient></defs><title>page-about</title><path class="cls-1" d="M594.57,421.47s-40.92-40,12.95-75.92,112.1-52.15,146-47.9,25.38,86-3.89,135.65S650,480.22,594.57,421.47Z" transform="translate(-578.23 -232.71)"/><path class="cls-2" d="M766.8,336.34s47.07,32.57,0,77-101.73,70.26-135.89,71.78-39.48-80.47-19-134.38S702.27,287.75,766.8,336.34Z" transform="translate(-578.23 -232.71)"/><path class="cls-3" d="M766.56,342.75a30.05,30.05,0,0,0-14.93-4c-25.54,0-39.13,2.71-51.33,7.48-11.77,4.62-14.17,7.33-14.17,7.33H679s-2.4-2.71-14.16-7.33c-12.2-4.8-25.82-7.48-51.33-7.48a30.07,30.07,0,0,0-14.94,4l-13.33-.95,1.6,12.56s-.85.18,4.12,3.48,5.83,14,10.79,24.15,8.82,15.24,28.91,18.16,32.48-7.61,37.07-14.09S678.42,362,679.27,362h6.58c.85,0,6.94,17.59,11.56,24.06s17,17,37.06,14.09,23.94-8,28.92-18.16,5.83-20.84,10.78-24.15,4.13-3.48,4.13-3.48l1.6-12.56Zm-95.64,24.33c-2.17,5.05-5.42,12.69-7.82,16-1.42,2-9.26,11.87-25.56,11.87a41.5,41.5,0,0,1-6.12-.47c-18.59-2.68-20.6-6.83-24.65-15.06a81.37,81.37,0,0,1-4.21-11.12c-2.09-6.52-2.86-12.53-1.24-15.81s5.29-8.25,12.1-8.25c26.13,0,38.61,2.78,49.29,7C671.35,354.65,673,362.18,670.92,367.08Zm91.59,1.29a83.14,83.14,0,0,1-4.2,11.12c-4,8.22-6.07,12.35-24.66,15.06a41.67,41.67,0,0,1-6.12.46c-16.3,0-24.14-9.88-25.56-11.86-2.4-3.36-5.65-11-7.81-16s-.42-12.43,8.17-15.81c10.68-4.18,23.14-7,49.3-7,6.83,0,10.49,5,12.09,8.26S764.6,361.84,762.51,368.37Z" transform="translate(-578.23 -232.71)"/><path class="cls-3" d="M785.85,301.35c-.38-1.26-3.81-9-13.77-11.53s-10.32-2.29-10.32-2.29a32.45,32.45,0,0,0,.91-4.15c.51-3-2.69-20.41-3.95-23.42s-11.48-14.19-11.48-14.19,8.67,13,9.7,16a5.38,5.38,0,0,1-.77,5.08s-10.71-15.45-16.46-19.73-22.06-10.84-22.06-10.84a60.44,60.44,0,0,1,11.61,6.91,26.39,26.39,0,0,1,8.15,10.84S729.75,246,708,238.6s-43.24-6.35-56.49-4.72a81.2,81.2,0,0,0-22.57,6A176.5,176.5,0,0,1,648.78,237a64.86,64.86,0,0,1,21.44,2.29s-8.93-.23-13.52,0-19.5,4.26-24.09,6.58a52.47,52.47,0,0,0-9.57,6.81s-1.65.47-4.33,1.5-7.28,4.72-7.28,4.72,12-5.08-6.88,3.45S579,297.54,578.31,307.83s3,25.54,3,25.54a58.8,58.8,0,0,0-1.19-9.78c-1-4.23,2.48-21.62,2.48-21.62a48.87,48.87,0,0,0,1.7,14.55A163.18,163.18,0,0,0,591.16,334s0-2.37-.77-9.93S596,309.12,596,309.12a35.68,35.68,0,0,0-1.52,9.08c-.42,6.09,2,9.23,2,9.23s-1.52-3.38,0-11.53,4.41-14,21.77-16.61,39.62,19.06,39.62,19.06,2.63,3.38,5.62,4.08,3.66-1.08,3.66-1.08a21.58,21.58,0,0,0,6.22,1c3.66.08,8.41-3.07,8.41-3.07s13.26,5.93,22.7,6.3a27.79,27.79,0,0,0,16.48-5,17.77,17.77,0,0,1,5.7-1.16c3.92-.31,11.94-2.68,16.15-3.53,8.41-1.71,13.31-10.89,13.31-10.89s-1.52,8.64.64,14.65,5.73,9.11,7.41,12.69-.13,9.11.38,8.64,4.34-4.84,4.72-7a6.76,6.76,0,0,1,.78-2.65s3.56-4.39,6.11-8.08,3.43-13.26,3.56-16.94-4.33-7.85-4.33-7.85-.13-.56,3.56.47,8,5.78,8,5.78S786.24,302.62,785.85,301.35Z" transform="translate(-578.23 -232.71)"/><path class="cls-3" d="M753.79,418.05c-17.74,0-38.1-17.44-53.21-17.44s-18,7.79-18,13.93c0,3.77,9.41,20.4,40.93,20.4,1.81,0,3.59-.1,5.32-.26a17.81,17.81,0,0,1-1.84,4.78c-1,1.8-6.55,2.42-6.55,2.42s2.56,1.68,4,1.68-3.58.69-5.88,4.61-3.48,6.09-3.48,6.09-6.78-1.65-9.62.78-6.22,5.59-10.14,3.92-5-6.43-5-6.43a14.78,14.78,0,0,1,2.66.37c1.78.36-.88-1.11-1.78-4.49s-.75-3.74-.75-3.74H674.63s.15.38-.75,3.74-3.56,4.85-1.78,4.49a14.78,14.78,0,0,1,2.66-.37s-1.14,4.75-5,6.43-7.27-1.5-10.14-3.92-9.62-.78-9.62-.78-1.19-2.19-3.48-6.09-7.33-4.61-5.88-4.61,4-1.68,4-1.68-5.57-.62-6.55-2.42a17.77,17.77,0,0,1-1.83-4.78,48.55,48.55,0,0,0,5.31.26c31.52,0,40.94-16.63,40.94-20.4,0-6.14-2.84-13.93-18-13.93S629,418.05,611.28,418.05c-13.13,0-21-10.53-21-10.53a67.57,67.57,0,0,0,8.25,9c0,2.14,0,7.6,0,9.33-.05,9.78-1.42,8.95-1.42,20.15s5.37,26.39,5.13,30.36a7.79,7.79,0,0,1-2.68,5.75s3.72-1.29,5.13-3.53,1.06-.8,1.06-.8,4.05,12.48,8.57,19.94,2.88,1.49,2.21-3c-.38-2.55.67,4.49,8.26,13.44s13.95,7,13.95,7-1-1.18-2.47-2.68,1.31-4.36,1.31-4.36,7.79,6.19,10.17,12.9,0,5.31,2.14,4.07a54.08,54.08,0,0,0,6.39-5.21s7.61-5.83,10.6-1.65c3.74,5.24-2.39,12.72-2.39,12.72s8.25-.57,12.27-3.3c3.54-2.4,5.42-8.08,5.83-9.44.42,1.36,2.3,7.07,5.83,9.44,4,2.73,12.28,3.3,12.28,3.3s-6.14-7.48-2.4-12.72c3-4.18,10.6,1.65,10.6,1.65a54.44,54.44,0,0,0,6.4,5.21c2.14,1.24-.23,2.64,2.14-4.07s10.16-12.9,10.16-12.9,2.76,2.87,1.32,4.36-2.48,2.68-2.48,2.68,6.37,1.94,14-7,8.64-16,8.25-13.44c-.67,4.49-2.29,10.42,2.22,3s8.56-19.94,8.56-19.94-.36-1.45,1.06.8,5.13,3.53,5.13,3.53a7.79,7.79,0,0,1-2.68-5.75c-.23-4,5.13-19.17,5.13-30.36s-1.36-10.37-1.41-20.15c0-1.73-.06-7.17-.06-9.33a68.45,68.45,0,0,0,8.26-9S767,418.05,753.79,418.05Z" transform="translate(-578.23 -232.71)"/></svg>