<svg id="Слой_1" data-name="Слой 1" xmlns="http://www.w3.org/2000/svg" xmlns:xlink="http://www.w3.org/1999/xlink" viewBox="0 0 208.03 205"><defs><style>.cls-1{fill:url(#Degradado_sin_nombre_36);}.cls-2{fill:url(#Degradado_sin_nombre_11);}.cls-3{fill:#201600;}</style><linearGradient id="Degradado_sin_nombre_36" x1="579.69" y1="382.61" x2="775.54" y2="382.61" gradientUnits="userSpaceOnUse"><stop offset="0" stop-color="#2acaff"/><stop offset="1" stop-color="#2adfc3"/></linearGradient><linearGradient id="Degradado_sin_nombre_11" x1="599.9" y1="394.89" x2="787.72" y2="394.89" gradientUnits="userSpaceOnUse"><stop offset="0" stop-color="#76aadb"/><stop offset="1" stop-color="#4a72b2"/></linearGradient></defs><title>page-about-2</title><path class="cls-1" d="M594.57,421.47s-40.92-40,12.95-75.92,112.1-52.15,146-47.9,25.38,86-3.89,135.65S650,480.22,594.57,421.47Z" transform="translate(-579.69 -287)"/><path class="cls-2" d="M766.8,336.34s47.07,32.57,0,77-101.73,70.26-135.89,71.78-39.48-80.47-19-134.38S702.27,287.75,766.8,336.34Z" transform="translate(-579.69 -287)"/><path class="cls-3" d="M743,362.63a20.67,20.67,0,0,0-10.26-2.73c-17.55,0-26.9,1.86-35.28,5.14-8.09,3.17-9.73,5-9.73,5h-4.91s-1.65-1.86-9.74-5c-8.38-3.3-17.74-5.14-35.27-5.14a20.69,20.69,0,0,0-10.27,2.73l-9.16-.66,1.1,8.64s-.59.12,2.83,2.39,4,9.62,7.41,16.59,6.07,10.48,19.88,12.48,22.31-5.23,25.47-9.68,7.36-16.54,7.94-16.54h4.52c.59,0,4.77,12.09,7.94,16.54s11.68,11.68,25.48,9.68,16.45-5.51,19.87-12.48,4-14.32,7.41-16.59,2.83-2.39,2.83-2.39l1.1-8.64ZM677.3,379.34c-1.49,3.48-3.73,8.73-5.37,11-1,1.37-6.37,8.16-17.57,8.16a28.8,28.8,0,0,1-4.2-.32c-12.78-1.85-14.17-4.7-16.95-10.36a56.18,56.18,0,0,1-2.89-7.64c-1.44-4.48-2-8.61-.85-10.86s3.63-5.68,8.31-5.68c18,0,26.54,1.92,33.88,4.81C677.6,370.8,678.73,376,677.3,379.34Zm63,.89a56.68,56.68,0,0,1-2.89,7.64c-2.79,5.66-4.17,8.49-17,10.35a27.76,27.76,0,0,1-4.2.32c-11.21,0-16.59-6.79-17.57-8.15-1.65-2.31-3.88-7.57-5.37-11s-.28-8.54,5.62-10.86c7.34-2.88,15.9-4.81,33.88-4.81,4.69,0,7.21,3.42,8.31,5.67S741.68,375.75,740.25,380.23Z" transform="translate(-579.69 -287)"/><path class="cls-3" d="M756.29,334.18a13.47,13.47,0,0,0-9.47-7.93c-6.84-1.74-7.09-1.58-7.09-1.58a21.08,21.08,0,0,0,.62-2.85c.36-2.06-1.84-14-2.71-16.1s-7.89-9.75-7.89-9.75,6,9,6.67,11a3.68,3.68,0,0,1-.53,3.49s-7.36-10.61-11.31-13.56-15.16-7.44-15.16-7.44a41.18,41.18,0,0,1,8,4.75,18.1,18.1,0,0,1,5.6,7.44s-5.27-5.54-20.25-10.61-29.71-4.36-38.82-3.25a56.11,56.11,0,0,0-15.51,4.13,122.42,122.42,0,0,1,13.67-2,44.61,44.61,0,0,1,14.73,1.57s-6.14-.15-9.29,0-13.4,2.93-16.56,4.53a35.52,35.52,0,0,0-6.57,4.68s-1.14.31-3,1a27.09,27.09,0,0,0-5,3.25s8.24-3.49-4.73,2.37-17.55,24.18-18,31.26,2,17.55,2,17.55a40.93,40.93,0,0,0-.82-6.72c-.71-2.91,1.7-14.86,1.7-14.86a33.63,33.63,0,0,0,1.17,10,112.5,112.5,0,0,0,4.74,12s0-1.63-.54-6.82,3.87-10.25,3.87-10.25a24.87,24.87,0,0,0-1.05,6.24c-.28,4.19,1.35,6.35,1.35,6.35s-1-2.32,0-7.93,3-9.62,15-11.41,27.23,13.1,27.23,13.1,1.81,2.32,3.86,2.8,2.52-.75,2.52-.75a14.75,14.75,0,0,0,4.27.7c2.52.05,5.78-2.11,5.78-2.11s9.11,4.07,15.6,4.32a19.05,19.05,0,0,0,11.33-3.44,12.24,12.24,0,0,1,3.92-.79c2.69-.22,8.21-1.85,11.09-2.43,5.78-1.17,9.15-7.48,9.15-7.48s-1,5.93.45,10.06,3.93,6.26,5.08,8.73-.09,6.25.27,5.93,3-3.33,3.24-4.83a4.88,4.88,0,0,1,.53-1.83s2.45-3,4.21-5.55,2.35-9.11,2.44-11.65-3-5.38-3-5.38-.08-.39,2.45.31,5.51,4,5.51,4S756.55,335,756.29,334.18Z" transform="translate(-579.69 -287)"/><path class="cls-3" d="M734.25,414.37c-12.19,0-26.18-12-36.57-12s-12.33,5.35-12.33,9.57c0,2.59,6.47,14,28.13,14,1.24,0,2.46-.07,3.65-.17a12.22,12.22,0,0,1-1.26,3.28c-.69,1.24-4.5,1.66-4.5,1.66a7.33,7.33,0,0,0,2.73,1.16c1,0-2.47.47-4,3.17s-2.4,4.18-2.4,4.18-4.66-1.13-6.61.53-4.27,3.85-7,2.7-3.45-4.42-3.45-4.42a10.26,10.26,0,0,1,1.82.25c1.23.25-.6-.76-1.22-3.08a7.82,7.82,0,0,1-.51-2.57H679.85a7.78,7.78,0,0,1-.51,2.57c-.62,2.3-2.45,3.33-1.23,3.08a10.41,10.41,0,0,1,1.83-.25s-.78,3.27-3.46,4.42-5-1-7-2.7-6.61-.53-6.61-.53-.81-1.5-2.39-4.18-5-3.17-4-3.17a7.42,7.42,0,0,0,2.73-1.16s-3.83-.42-4.5-1.66a11.58,11.58,0,0,1-1.26-3.28,36.3,36.3,0,0,0,3.65.17c21.66,0,28.13-11.43,28.13-14,0-4.22-2-9.57-12.34-9.57s-24.37,12-36.57,12c-9,0-14.45-7.23-14.45-7.23a46.38,46.38,0,0,0,5.68,6.19c0,1.47,0,5.23,0,6.41,0,6.72-1,6.16-1,13.85s3.68,18.13,3.52,20.86a5.39,5.39,0,0,1-1.84,4s2.55-.89,3.53-2.43.73-.55.73-.55,2.78,8.58,5.88,13.7,2,1,1.53-2c-.27-1.75.46,3.09,5.67,9.24s9.59,4.82,9.59,4.82-.73-.81-1.7-1.84.9-3,.9-3,5.35,4.26,7,8.87,0,3.65,1.47,2.8a37.68,37.68,0,0,0,4.39-3.58s5.23-4,7.29-1.14c2.57,3.6-1.65,8.74-1.65,8.74s5.67-.39,8.44-2.27c2.43-1.65,3.72-5.55,4-6.49.29.94,1.58,4.86,4,6.49,2.77,1.88,8.44,2.27,8.44,2.27s-4.22-5.14-1.65-8.74c2.06-2.87,7.29,1.14,7.29,1.14a37.68,37.68,0,0,0,4.39,3.58c1.47.85-.16,1.8,1.47-2.8s7-8.87,7-8.87,1.89,2,.9,3-1.7,1.84-1.7,1.84,4.38,1.33,9.59-4.82,5.94-11,5.67-9.24c-.46,3.09-1.57,7.17,1.53,2s5.88-13.7,5.88-13.7-.24-1,.73.55,3.53,2.43,3.53,2.43a5.38,5.38,0,0,1-1.85-4c-.16-2.73,3.53-13.17,3.53-20.86s-.94-7.13-1-13.85c0-1.18,0-4.92,0-6.41a46.8,46.8,0,0,0,5.67-6.19S743.29,414.37,734.25,414.37Z" transform="translate(-579.69 -287)"/></svg>