<svg id="Слой_1" data-name="Слой 1" xmlns="http://www.w3.org/2000/svg" xmlns:xlink="http://www.w3.org/1999/xlink" viewBox="0 0 208.72 188.17"><defs><style>.cls-1{fill:url(#Degradado_sin_nombre_36);}.cls-2{fill:url(#Degradado_sin_nombre_11);}.cls-3{fill:#6899fc;}.cls-4,.cls-9{fill:#e4e9fe;}.cls-5{fill:#87b7fd;}.cls-6{fill:#496dfb;}.cls-7{fill:#cbd5f0;}.cls-8{fill:#444460;opacity:0.2;}.cls-8,.cls-9{isolation:isolate;}.cls-9{opacity:0.21;}.cls-10{fill:#f9fbfc;}.cls-11{fill:#8a6fea;}.cls-12{fill:#ad86ea;}.cls-13{fill:#7558e9;}.cls-14{fill:#cfd5fd;}.cls-15{fill:#edd2a9;}.cls-16{fill:#534eb4;}.cls-17{fill:#e58a47;}.cls-18{fill:#ced3fd;}.cls-19{fill:#efc14d;}.cls-20{fill:#9fc14d;}.cls-21{fill:#cd502b;}.cls-22{fill:#fff;}.cls-23{fill:#dc4a42;}.cls-24{fill:#73cbfd;}.cls-25{fill:#df57a5;}.cls-26{fill:#efc261;}.cls-27{fill:#de4ecc;}.cls-28{fill:#e19975;}.cls-29{fill:#de5070;}.cls-30{fill:#f0c72f;}</style><linearGradient id="Degradado_sin_nombre_36" x1="579.69" y1="382.61" x2="775.54" y2="382.61" gradientUnits="userSpaceOnUse"><stop offset="0" stop-color="#2acaff"/><stop offset="1" stop-color="#2adfc3"/></linearGradient><linearGradient id="Degradado_sin_nombre_11" x1="599.9" y1="394.89" x2="787.72" y2="394.89" gradientUnits="userSpaceOnUse"><stop offset="0" stop-color="#76aadb"/><stop offset="1" stop-color="#4a72b2"/></linearGradient></defs><title>service-site-company-new</title><path class="cls-1" d="M594.57,421.47s-40.92-40,12.95-75.92,112.1-52.15,146-47.9,25.38,86-3.89,135.65S650,480.22,594.57,421.47Z" transform="translate(-579 -296.99)"/><path class="cls-2" d="M766.8,336.34s47.07,32.57,0,77-101.73,70.26-135.89,71.78-39.48-80.47-19-134.38S702.27,287.75,766.8,336.34Z" transform="translate(-579 -296.99)"/><path class="cls-3" d="M750.1,441.13A17.11,17.11,0,0,0,751.72,413a64,64,0,0,1,7.06-8.36c1.23-1.23,2.48-2.39,3.75-3.51.51.43,1,.87,1.49,1.33l4.18-2.57a4.57,4.57,0,0,1,6.26,1.51l4.18,6.83a4.58,4.58,0,0,1-1.51,6.27L773,417.08a33.39,33.39,0,0,1,1.36,9.73l4.76,1.34a4.56,4.56,0,0,1,3.13,5.63l-2.15,7.71a4.58,4.58,0,0,1-5.64,3.14l-4.75-1.33a32.74,32.74,0,0,1-4.53,6l2.58,4.18a4.58,4.58,0,0,1-1.53,6.27l-6.83,4.17a4.56,4.56,0,0,1-6.26-1.51l-2.58-4.18a32.3,32.3,0,0,1-7.49,1.3,52.63,52.63,0,0,1-1.85-15.9A17,17,0,0,0,750.1,441.13Z" transform="translate(-579 -296.99)"/><rect class="cls-4" x="4.68" y="49.14" width="161.71" height="114.9" rx="7.24"/><rect class="cls-5" x="6.81" y="50.66" width="157.45" height="111.87" rx="5.73"/><rect class="cls-6" x="13.62" y="55.92" width="143.84" height="96.74" rx="3.53"/><path class="cls-4" d="M579,457.94a6.07,6.07,0,0,0,6.07,6.07H744a6,6,0,0,0,6.07-6,6,6,0,0,0-.75-2.95H579.76" transform="translate(-579 -296.99)"/><path class="cls-7" d="M579.76,460.81a6.06,6.06,0,0,0,5.31,3.2H744a6.06,6.06,0,0,0,5.32-3.2H579.76" transform="translate(-579 -296.99)"/><path class="cls-8" d="M738.17,346.13H630.25v72.11a2.89,2.89,0,0,0,2.89,2.89H745.35V353.36A7.23,7.23,0,0,0,738.17,346.13Z" transform="translate(-579 -296.99)"/><rect class="cls-9" x="55.22" y="40.77" width="126.32" height="80.13" rx="2.88"/><path class="cls-10" d="M642.16,332.35H762.71a2.88,2.88,0,0,1,2.88,2.88v74.35a2.88,2.88,0,0,1-2.88,2.88H642.16a2.88,2.88,0,0,1-2.89-2.88h0V335.23A2.9,2.9,0,0,1,642.16,332.35Z" transform="translate(-579 -296.99)"/><rect class="cls-8" x="22.34" y="72.89" width="16.43" height="17.15" rx="1.81"/><rect class="cls-5" x="21.39" y="97.8" width="16.43" height="17.15" rx="1.81"/><rect class="cls-5" x="21.39" y="122.16" width="16.43" height="17.15" rx="1.81"/><path class="cls-11" d="M612.19,425.83a3.91,3.91,0,0,0-7.81,0v0s-.55,4.18,3.9,7.41C612.73,429.92,612.19,425.83,612.19,425.83Z" transform="translate(-579 -296.99)"/><path class="cls-10" d="M608.55,428.64a2.82,2.82,0,1,1,2.59-3,3.38,3.38,0,0,1,0,.45A2.82,2.82,0,0,1,608.55,428.64Z" transform="translate(-579 -296.99)"/><path class="cls-11" d="M613.61,403.13a5.4,5.4,0,1,1-5.4-5.4h0A5.4,5.4,0,0,1,613.61,403.13Z" transform="translate(-579 -296.99)"/><path class="cls-10" d="M612.56,403.13a4.36,4.36,0,1,1-4.35-4.36h0A4.36,4.36,0,0,1,612.56,403.13Z" transform="translate(-579 -296.99)"/><path class="cls-12" d="M608.21,398.77a4.36,4.36,0,0,1,4.17,3.14.17.17,0,0,0,.17.12h0a.17.17,0,0,0,.17-.18v0a4.7,4.7,0,0,0-9,0,.18.18,0,0,0,.13.22h0a.17.17,0,0,0,.17-.12A4.38,4.38,0,0,1,608.21,398.77Z" transform="translate(-579 -296.99)"/><path class="cls-13" d="M613,403.26a.53.53,0,0,0-.52.45,4.36,4.36,0,0,1-8.63,0,.55.55,0,0,0-.52-.45h0a.52.52,0,0,0-.51.53v.06a5.4,5.4,0,0,0,10.69,0,.51.51,0,0,0-.45-.58Z" transform="translate(-579 -296.99)"/><path class="cls-10" d="M612.56,403.13a4.36,4.36,0,1,1-4.35-4.36h0A4.36,4.36,0,0,1,612.56,403.13Z" transform="translate(-579 -296.99)"/><path class="cls-11" d="M612.45,404.53a.16.16,0,0,0-.16.11,4.36,4.36,0,0,1-8.17,0,.16.16,0,0,0-.16-.11h0a.17.17,0,0,0-.17.18.13.13,0,0,0,0,.06,4.7,4.7,0,0,0,8.81,0,.17.17,0,0,0-.1-.23Z" transform="translate(-579 -296.99)"/><path class="cls-11" d="M608.2,403.51h0a.2.2,0,0,1-.21-.2h0v-3.06a.21.21,0,0,1,.21-.21h0a.21.21,0,0,1,.21.21h0v3.06a.21.21,0,0,1-.2.21Z" transform="translate(-579 -296.99)"/><path class="cls-11" d="M608,403.18h0a.22.22,0,0,1,.3,0l1.89,1.6a.21.21,0,0,1,0,.29h0a.21.21,0,0,1-.29,0l-1.89-1.6A.21.21,0,0,1,608,403.18Z" transform="translate(-579 -296.99)"/><rect class="cls-14" x="29.08" y="102.08" width="0.16" height="0.42"/><rect class="cls-14" x="29.08" y="109.71" width="0.16" height="0.42"/><rect class="cls-14" x="25.12" y="106.02" width="0.42" height="0.16"/><rect class="cls-14" x="32.76" y="106.02" width="0.42" height="0.16"/><rect class="cls-14" x="605.37" y="400.14" width="0.16" height="0.42" transform="translate(-684.81 248.14) rotate(-44.98)"/><rect class="cls-14" x="610.78" y="405.58" width="0.16" height="0.42" transform="translate(-687.02 253.81) rotate(-45)"/><rect class="cls-14" x="605.21" y="405.72" width="0.42" height="0.16" transform="translate(-688.62 249.97) rotate(-45)"/><rect class="cls-14" x="610.61" y="400.32" width="0.42" height="0.16" transform="translate(-683.15 252.57) rotate(-45.03)"/><rect class="cls-5" x="21.39" y="72.35" width="16.43" height="17.15" rx="1.81"/><polyline class="cls-15" points="20.59 87.73 21.95 86.79 22.56 84.55 21.88 84.42 21.47 85.23 21.88 81.37 21.2 81.5 20.53 85.23 19.72 86.99 20.46 87.47"/><polygon class="cls-15" points="28.6 91.75 28.78 90.13 30.76 88.14 31.22 88.77 30.49 89.59 34.28 88.68 34.28 89.49 30.76 90.85 30.04 92.11 28.6 91.75"/><polygon class="cls-16" points="3.9 131.9 11.28 168.01 16.86 167.42 13.07 166.02 14.47 165.62 12.48 131.9 3.9 131.9"/><path class="cls-16" d="M594.67,428.29s9.4,8.78,8,19.35c-1.6,8.36-5,11.57-5,11.57l-1-.2,1.54,4.09-4.49-4.78s5.54-7.64,2.09-15.57A21.38,21.38,0,0,0,584.9,432s6.43-5.84,6.88-5.69A32,32,0,0,1,594.67,428.29Z" transform="translate(-579 -296.99)"/><path class="cls-17" d="M582.05,429.29l15.66.89s-5.08-17.5-5.22-17.95a10.63,10.63,0,0,0-5.08-3.73l13.16-23.8-1.94-1.35s-15.41,18.7-17.21,22.45" transform="translate(-579 -296.99)"/><path class="cls-15" d="M588.9,406.69s.66,1.93,1,3.13c0,0-3.2-.07-4.34-1.55l1.2-2.88Z" transform="translate(-579 -296.99)"/><path class="cls-15" d="M591.34,400.61s.95,5.53,0,6.78-4.17-.88-5.55-2.88-1.63-6.53.68-6.91A4.26,4.26,0,0,1,591.34,400.61Z" transform="translate(-579 -296.99)"/><path class="cls-17" d="M589.88,410.83s12.35-7.76,13.36-9.39S607,388,607,388l2.39.6s-1.39,13.25-1.79,14.62-12.53,14.35-15.35,14.35S588.49,414,589.88,410.83Z" transform="translate(-579 -296.99)"/><path class="cls-16" d="M584.69,397.84a4.68,4.68,0,0,1,4.51-1.71c2.88.54,3.61-.08,3.61-.08s-.63,3.13-2.62,3.87-2.52.55-2.52.55a6.72,6.72,0,0,1,1.35,1.89c.28.81-.9-1.05-1.35-.36s0,2,.9,1.89.36.64,0,1.36-.9,1.62-1.45,1.36A6.42,6.42,0,0,1,584,403C583.25,400.74,583.06,398.6,584.69,397.84Z" transform="translate(-579 -296.99)"/><rect class="cls-4" x="68.03" y="43.74" width="37.9" height="63.88" rx="1.36"/><rect class="cls-5" x="74.53" y="48.89" width="24.54" height="5.41" rx="1.09"/><path class="cls-5" d="M661.75,381.38h-4.88a2.1,2.1,0,0,1-2.09-2.09h0a2.09,2.09,0,0,1,2.09-2.09h4.88a2.09,2.09,0,0,1,2.09,2.09h0A2.1,2.1,0,0,1,661.75,381.38Z" transform="translate(-579 -296.99)"/><path class="cls-11" d="M675.82,381.38H671a2.09,2.09,0,0,1-2.09-2.09h0A2.08,2.08,0,0,1,671,377.2h4.87a2.08,2.08,0,0,1,2.09,2.09h0A2.09,2.09,0,0,1,675.82,381.38Z" transform="translate(-579 -296.99)"/><rect class="cls-10" x="73.99" y="59.72" width="26.35" height="4.15"/><rect class="cls-10" x="73.99" y="66.76" width="26.35" height="4.15"/><rect class="cls-18" x="79.68" y="73.53" width="15.16" height="0.95"/><path class="cls-11" d="M763,392.8H715.65a5.28,5.28,0,0,1-5.22-5.28h0a5.23,5.23,0,0,1,5.17-5.28H763a5.22,5.22,0,0,1,5.27,5.17v.11h0A5.29,5.29,0,0,1,763,392.8Z" transform="translate(-579 -296.99)"/><path class="cls-4" d="M722,348H692.51a4.33,4.33,0,0,1-4.33-4.33h0a4.33,4.33,0,0,1,4.33-4.33H722a4.31,4.31,0,0,1,4.32,4.32h0A4.31,4.31,0,0,1,722,348Z" transform="translate(-579 -296.99)"/><path class="cls-19" d="M699.55,343.71a1.36,1.36,0,1,1-1.37-1.35h0A1.37,1.37,0,0,1,699.55,343.71Z" transform="translate(-579 -296.99)"/><path class="cls-20" d="M708.8,343.71a1.36,1.36,0,1,1-1.37-1.35h0A1.35,1.35,0,0,1,708.8,343.71Z" transform="translate(-579 -296.99)"/><path class="cls-21" d="M717.42,343.71a1.36,1.36,0,1,1-1.37-1.35h0A1.37,1.37,0,0,1,717.42,343.71Z" transform="translate(-579 -296.99)"/><circle class="cls-22" cx="29.41" cy="81.98" r="3.3"/><path class="cls-11" d="M611.83,375h-.58l-.84-1.18a.32.32,0,0,0-.28-.15H606.8a.33.33,0,0,0-.29.15l-.84,1.18h-.57a1.63,1.63,0,0,0-1.64,1.63h0v4.79a1.64,1.64,0,0,0,1.64,1.64h6.73a1.65,1.65,0,0,0,1.64-1.64v-4.74a1.64,1.64,0,0,0-1.6-1.68Zm-3.37,6.41a2.43,2.43,0,1,1,2.42-2.43,2.42,2.42,0,0,1-2.42,2.43Z" transform="translate(-579 -296.99)"/><circle class="cls-5" cx="29.46" cy="81.99" r="1.6"/><rect class="cls-4" x="120.39" y="59.92" width="29.04" height="19.08" rx="2.13"/><path class="cls-23" d="M714,366.3h-.06a.79.79,0,0,1-.37-.1l-11.19-6.26a.78.78,0,0,1-.3-1.05.76.76,0,0,1,1-.3h0l10.85,6,10.85-6a.78.78,0,0,1,1,.29.79.79,0,0,1-.3,1.05l-11.2,6.26A.69.69,0,0,1,714,366.3Z" transform="translate(-579 -296.99)"/><rect class="cls-16" x="156" y="30.48" width="36.01" height="46.55" rx="1.89"/><path class="cls-24" d="M743.05,333.72h-2.4c-.12,0-.23-.21-.23-.47h0c0-.25.11-.46.23-.46h2.4c.13,0,.23.21.23.46h0C743.26,333.51,743.18,333.72,743.05,333.72Z" transform="translate(-579 -296.99)"/><path class="cls-24" d="M757.88,333.72h-13.7c-.13,0-.23-.21-.23-.47h0c0-.25.1-.46.23-.46h13.7c.13,0,.23.21.23.46h0C758.13,333.51,758,333.72,757.88,333.72Z" transform="translate(-579 -296.99)"/><path class="cls-25" d="M748.56,335.63h-4.38c-.13,0-.23-.21-.23-.46h0c0-.26.1-.47.23-.47h4.38c.13,0,.23.21.23.47h0C748.79,335.42,748.69,335.63,748.56,335.63Z" transform="translate(-579 -296.99)"/><path class="cls-4" d="M755.79,335.63h-6.26c-.14,0-.23-.21-.23-.46h0c0-.26.09-.47.23-.47h6.26c.13,0,.23.21.23.47h0C756,335.42,755.89,335.63,755.79,335.63Z" transform="translate(-579 -296.99)"/><path class="cls-4" d="M757.88,345h-13.7c-.13,0-.23-.21-.23-.46h0c0-.26.1-.47.23-.47h13.7c.13,0,.23.21.23.47h0C758.13,344.75,758,345,757.88,345Z" transform="translate(-579 -296.99)"/><path class="cls-24" d="M743.05,346.88h-2.4c-.12,0-.23-.2-.23-.47h0c0-.25.11-.45.23-.45h2.4c.13,0,.23.2.23.45h0C743.26,346.68,743.18,346.88,743.05,346.88Z" transform="translate(-579 -296.99)"/><path class="cls-4" d="M748.56,346.88h-4.38c-.13,0-.23-.2-.23-.47h0c0-.25.1-.45.23-.45h4.38c.13,0,.23.2.23.45h0C748.79,346.68,748.69,346.88,748.56,346.88Z" transform="translate(-579 -296.99)"/><path class="cls-25" d="M755.79,346.88h-6.26c-.14,0-.23-.2-.23-.47h0c0-.25.09-.45.23-.45h6.26c.13,0,.23.2.23.45h0C756,346.68,755.89,346.88,755.79,346.88Z" transform="translate(-579 -296.99)"/><path class="cls-25" d="M761.31,337.55H744.18c-.13,0-.23-.21-.23-.47h0c0-.25.1-.46.23-.46h17.13c.12,0,.23.21.23.46h0C761.54,337.34,761.43,337.55,761.31,337.55Z" transform="translate(-579 -296.99)"/><rect class="cls-24" x="174.48" y="41.55" width="4.48" height="0.93" rx="0.24"/><path class="cls-4" d="M749.87,339.46h-5.69c-.13,0-.23-.21-.23-.46h0c0-.26.1-.47.23-.47h5.69c.13,0,.23.21.23.47h0C750.1,339.25,750,339.46,749.87,339.46Z" transform="translate(-579 -296.99)"/><path class="cls-24" d="M752.9,339.46h-2.26c-.12,0-.23-.21-.23-.46h0c0-.26.11-.47.23-.47h2.26c.12,0,.23.21.23.47h0C753.13,339.25,753,339.46,752.9,339.46Z" transform="translate(-579 -296.99)"/><path class="cls-4" d="M743.05,341.32h-2.4c-.12,0-.23-.21-.23-.47h0c0-.25.11-.46.23-.46h2.4c.13,0,.23.21.23.46h0C743.26,341.16,743.18,341.32,743.05,341.32Z" transform="translate(-579 -296.99)"/><path class="cls-4" d="M761.31,341.32H744.18c-.13,0-.23-.21-.23-.47h0c0-.25.1-.46.23-.46h17.13c.12,0,.23.21.23.46h0C761.54,341.16,761.43,341.32,761.31,341.32Z" transform="translate(-579 -296.99)"/><path class="cls-4" d="M743.05,348.66h-2.4c-.12,0-.23-.21-.23-.47h0c0-.25.11-.46.23-.46h2.4c.13,0,.23.21.23.46h0C743.26,348.47,743.18,348.66,743.05,348.66Z" transform="translate(-579 -296.99)"/><rect class="cls-4" x="174.48" y="50.74" width="6.19" height="0.93" rx="0.29"/><path class="cls-4" d="M749.87,348.66h-5.69c-.13,0-.23-.21-.23-.47h0c0-.25.1-.46.23-.46h5.69c.13,0,.23.21.23.46h0C750.1,348.47,750,348.66,749.87,348.66Z" transform="translate(-579 -296.99)"/><path class="cls-4" d="M752.9,348.66h-2.26c-.12,0-.23-.21-.23-.47h0c0-.25.11-.46.23-.46h2.26c.12,0,.23.21.23.46h0C753.13,348.47,753,348.66,752.9,348.66Z" transform="translate(-579 -296.99)"/><path class="cls-26" d="M743.05,350.56h-2.4c-.12,0-.23-.21-.23-.46h0c0-.26.11-.47.23-.47h2.4c.13,0,.23.21.23.47h0C743.26,350.3,743.18,350.56,743.05,350.56Z" transform="translate(-579 -296.99)"/><path class="cls-24" d="M747.15,350.56h-3c-.13,0-.23-.21-.23-.46h0c0-.26.1-.47.23-.47h3c.12,0,.23.21.23.47h0C747.38,350.3,747.27,350.56,747.15,350.56Z" transform="translate(-579 -296.99)"/><path class="cls-24" d="M740.65,343.25c-.12,0-.23-.21-.23-.46h0c0-.26.11-.47.23-.47h2.4c.13,0,.23.21.23.47h0c0,.25-.1.46-.23.46" transform="translate(-579 -296.99)"/><rect class="cls-4" x="174.48" y="45.32" width="7" height="0.93" rx="0.3"/><path class="cls-26" d="M749.87,343.25h-5.69c-.13,0-.23-.21-.23-.46h0c0-.26.1-.47.23-.47h5.69c.13,0,.23.21.23.47h0C750.1,343,750,343.25,749.87,343.25Z" transform="translate(-579 -296.99)"/><path class="cls-26" d="M752.9,343.25h-2.26c-.12,0-.23-.21-.23-.46h0c0-.26.11-.47.23-.47h2.26c.12,0,.23.21.23.47h0C753.13,343,753,343.25,752.9,343.25Z" transform="translate(-579 -296.99)"/><path class="cls-4" d="M757.88,352.48h-13.7c-.13,0-.23-.21-.23-.47h0c0-.25.1-.46.23-.46h13.7c.13,0,.23.21.23.46h0C758.13,352.27,758,352.48,757.88,352.48Z" transform="translate(-579 -296.99)"/><path class="cls-4" d="M748.56,354.39h-4.38c-.13,0-.23-.21-.23-.46h0c0-.26.1-.47.23-.47h4.38c.13,0,.23.21.23.47h0C748.79,354.18,748.69,354.39,748.56,354.39Z" transform="translate(-579 -296.99)"/><path class="cls-4" d="M755.79,354.39h-6.26c-.14,0-.23-.21-.23-.46h0c0-.26.09-.47.23-.47h6.26c.13,0,.23.21.23.47h0C756,354.18,755.89,354.39,755.79,354.39Z" transform="translate(-579 -296.99)"/><path class="cls-4" d="M757.88,363.73h-13.7c-.13,0-.23-.21-.23-.46h0c0-.26.1-.47.23-.47h13.7c.13,0,.23.21.23.47h0C758.13,363.52,758,363.73,757.88,363.73Z" transform="translate(-579 -296.99)"/><path class="cls-25" d="M743.05,365.65h-2.4c-.12,0-.23-.21-.23-.47h0c0-.25.11-.46.23-.46h2.4c.13,0,.23.21.23.46h0C743.26,365.44,743.18,365.65,743.05,365.65Z" transform="translate(-579 -296.99)"/><path class="cls-24" d="M748.56,365.65h-4.38c-.13,0-.23-.21-.23-.47h0c0-.25.1-.46.23-.46h4.38c.13,0,.23.21.23.46h0C748.79,365.44,748.69,365.65,748.56,365.65Z" transform="translate(-579 -296.99)"/><path class="cls-4" d="M755.79,365.65h-6.26c-.14,0-.23-.21-.23-.47h0c0-.25.09-.46.23-.46h6.26c.13,0,.23.21.23.46h0C756,365.44,755.89,365.65,755.79,365.65Z" transform="translate(-579 -296.99)"/><path class="cls-25" d="M743.05,356.31h-2.4c-.12,0-.23-.2-.23-.47h0c0-.25.11-.46.23-.46h2.4c.13,0,.23.21.23.46h0C743.26,356.11,743.18,356.31,743.05,356.31Z" transform="translate(-579 -296.99)"/><rect class="cls-25" x="164.95" y="58.4" width="12.76" height="0.93" rx="0.28"/><path class="cls-4" d="M743.05,358.23h-2.4c-.12,0-.23-.2-.23-.46h0c0-.26.11-.46.23-.46h2.4c.13,0,.23.2.23.46h0C743.26,358,743.18,358.23,743.05,358.23Z" transform="translate(-579 -296.99)"/><path class="cls-4" d="M749.87,358.23h-5.69c-.13,0-.23-.2-.23-.46h0c0-.26.1-.46.23-.46h5.69c.13,0,.23.2.23.46h0C750.1,358,750,358.23,749.87,358.23Z" transform="translate(-579 -296.99)"/><path class="cls-4" d="M752.9,358.23h-2.26c-.12,0-.23-.2-.23-.46h0c0-.26.11-.46.23-.46h2.26c.12,0,.23.2.23.46h0C753.13,358,753,358.23,752.9,358.23Z" transform="translate(-579 -296.99)"/><path class="cls-4" d="M743.05,360.08h-2.4c-.12,0-.23-.21-.23-.46h0c0-.26.11-.47.23-.47h2.4c.13,0,.23.21.23.47h0C743.26,359.87,743.18,360.08,743.05,360.08Z" transform="translate(-579 -296.99)"/><rect class="cls-4" x="164.95" y="62.17" width="16.07" height="0.93" rx="0.31"/><path class="cls-4" d="M743.05,367.42h-2.4c-.12,0-.23-.2-.23-.47h0c0-.25.11-.45.23-.45h2.4c.13,0,.23.2.23.45h0C743.26,367.27,743.18,367.42,743.05,367.42Z" transform="translate(-579 -296.99)"/><path class="cls-4" d="M761.28,367.42H753.7c-.12,0-.23-.2-.23-.47h0c0-.25.11-.45.23-.45h7.57c.13,0,.23.2.23.45h0C761.51,367.27,761.41,367.42,761.28,367.42Z" transform="translate(-579 -296.99)"/><path class="cls-4" d="M749.87,367.42h-5.69c-.13,0-.23-.2-.23-.47h0c0-.25.1-.45.23-.45h5.69c.13,0,.23.2.23.45h0C750.1,367.27,750,367.42,749.87,367.42Z" transform="translate(-579 -296.99)"/><path class="cls-4" d="M752.9,367.42h-2.26c-.12,0-.23-.2-.23-.47h0c0-.25.11-.45.23-.45h2.26c.12,0,.23.2.23.45h0C753.13,367.27,753,367.42,752.9,367.42Z" transform="translate(-579 -296.99)"/><rect class="cls-26" x="164.95" y="71.37" width="10.61" height="0.93" rx="0.25"/><rect class="cls-25" x="174.48" y="64.09" width="7.4" height="0.93" rx="0.31"/><path class="cls-26" d="M749.87,362.05h-5.69c-.13,0-.23-.21-.23-.47h0c0-.25.1-.46.23-.46h5.69c.13,0,.23.21.23.46h0C750.1,361.8,750,362.05,749.87,362.05Z" transform="translate(-579 -296.99)"/><path class="cls-26" d="M752.9,362.05h-2.26c-.12,0-.23-.21-.23-.47h0c0-.25.11-.46.23-.46h2.26c.12,0,.23.21.23.46h0C753.13,361.8,753,362.05,752.9,362.05Z" transform="translate(-579 -296.99)"/><circle class="cls-27" cx="189.1" cy="31.44" r="7.58"/><path class="cls-10" d="M767.56,327.72l-3,1.1,3,1.1V331l-4.3-1.63v-1.18l4.3-1.62Z" transform="translate(-579 -296.99)"/><path class="cls-10" d="M768.54,326.61l4.3,1.62v1.18l-4.3,1.63v-1.12l3-1.1-3-1.1Z" transform="translate(-579 -296.99)"/><circle class="cls-19" cx="138.97" cy="159.31" r="8.22"/><path class="cls-22" d="M722.31,455.76a3.72,3.72,0,0,1-.24,1.4,2.35,2.35,0,0,1-.69,1,1.62,1.62,0,0,1-1,.36,1.31,1.31,0,0,1-.69-.19,1.1,1.1,0,0,1-.44-.49h-.08a1.91,1.91,0,0,1-1.46.68,2,2,0,0,1-1.49-.57,2.07,2.07,0,0,1-.54-1.54,2.35,2.35,0,0,1,.71-1.81,2.58,2.58,0,0,1,1.85-.7,7.17,7.17,0,0,1,1,.08,6.55,6.55,0,0,1,.9.21l-.11,2.6c0,.49.13.75.39.75s.41-.17.55-.51a3.53,3.53,0,0,0,.21-1.29,3.26,3.26,0,0,0-.36-1.51,2.45,2.45,0,0,0-1-1,3.19,3.19,0,0,0-1.49-.34,3.8,3.8,0,0,0-1.86.43,3.07,3.07,0,0,0-1.22,1.28,4.27,4.27,0,0,0-.42,1.92,3.08,3.08,0,0,0,.79,2.26,3.14,3.14,0,0,0,2.27.78,6.44,6.44,0,0,0,1.24-.13,7.58,7.58,0,0,0,1.32-.36v1a6.17,6.17,0,0,1-2.51.48,4.43,4.43,0,0,1-3.14-1,3.85,3.85,0,0,1-1.12-3,4.84,4.84,0,0,1,.57-2.38,4.34,4.34,0,0,1,1.64-1.68,4.89,4.89,0,0,1,2.45-.6,4.31,4.31,0,0,1,2.09.48,3.36,3.36,0,0,1,1.42,1.35A4.05,4.05,0,0,1,722.31,455.76Zm-5.44.67c0,.74.31,1.11.91,1.11a.86.86,0,0,0,.73-.33,2.12,2.12,0,0,0,.31-1.1l.07-1.18a3.18,3.18,0,0,0-.62-.05,1.35,1.35,0,0,0-1,.41A1.73,1.73,0,0,0,716.87,456.43Z" transform="translate(-579 -296.99)"/><path class="cls-11" d="M676.66,314H625.08a7.58,7.58,0,0,0,0,15.16h3.79l3.7,3.64,3.67-3.67h40.45a7.58,7.58,0,0,0,0-15.16Z" transform="translate(-579 -296.99)"/><path class="cls-22" d="M661.9,324H628a.85.85,0,0,1-.86-.85h0a.86.86,0,0,1,.86-.85H661.9a.85.85,0,0,1,.85.85h0A.85.85,0,0,1,661.9,324Z" transform="translate(-579 -296.99)"/><path class="cls-22" d="M651.29,319.34H628a.86.86,0,0,1-.86-.86h0a.86.86,0,0,1,.86-.85h23.32a.85.85,0,0,1,.85.85h0A.86.86,0,0,1,651.29,319.34Z" transform="translate(-579 -296.99)"/><path class="cls-15" d="M747.16,410.08s-.63,1.87-1,3c0,0,3.14-.06,4.18-1.5l-1.16-2.76Z" transform="translate(-579 -296.99)"/><polygon class="cls-28" points="167.69 164.76 167.95 165.94 169.66 166.04 169.29 164.6 167.69 164.76"/><path class="cls-16" d="M747,462.92s-2.86,1.5-2.84,1.59,4.83-.41,4.83-.41l-.29-1Z" transform="translate(-579 -296.99)"/><polygon class="cls-28" points="182.12 162.39 182.79 163.4 184.41 162.87 183.56 161.65 182.12 162.39"/><path class="cls-16" d="M761.79,460.37s-2.09,2.43-2.09,2.51,4.35-2.09,4.35-2.09l-.66-.91Z" transform="translate(-579 -296.99)"/><path class="cls-19" d="M743.52,430.61s-4.91,16,2.87,31.46h2.31s-4.61-17.46,1.15-31.6Z" transform="translate(-579 -296.99)"/><path class="cls-19" d="M747.77,431.18s.76,16.7,13.3,28.65l2.17-.77S753,444.17,753.7,428.88Z" transform="translate(-579 -296.99)"/><path class="cls-28" d="M745.53,393.47v-1.11l-.19-.71-.56.15-.58-.53a.48.48,0,0,0-.69,0,.44.44,0,0,0-.08.11,5,5,0,0,0-.44,1.23.5.5,0,0,0,.12.41l.88,1a.49.49,0,0,0,.5.14l.7-.21A.51.51,0,0,0,745.53,393.47Z" transform="translate(-579 -296.99)"/><path class="cls-29" d="M754,415.13s-6.4-6.85-6.82-9.4-1.35-12.12-1.35-12.12l-2,.38s-.68,13.66-.09,15.24,4.45,9.58,7,10.32S755,417.8,754,415.13Z" transform="translate(-579 -296.99)"/><path class="cls-28" d="M745.1,403.82s-1.44,4.8-.52,6,4.28.12,5.58-1.83,1.57-6.26-.65-6.65S745.63,401.89,745.1,403.82Z" transform="translate(-579 -296.99)"/><path class="cls-29" d="M753.76,431.91s1.3-13.85,1.3-17.61v-.49a3.69,3.69,0,0,0-4.32-2.2,31,31,0,0,0-4.69,1.54h0a9.33,9.33,0,0,0-2.37,2.32,22.37,22.37,0,0,0-.43,15.87Z" transform="translate(-579 -296.99)"/><path class="cls-28" d="M735.42,394.18l-.17-1a.29.29,0,0,0,0-.13l-.31-.66-.53.24-.66-.41a.48.48,0,0,0-.67.13.35.35,0,0,0-.06.14,5.62,5.62,0,0,0-.22,1.29.46.46,0,0,0,.2.38l1,.79a.49.49,0,0,0,.52,0l.65-.32A.47.47,0,0,0,735.42,394.18Z" transform="translate(-579 -296.99)"/><path class="cls-29" d="M747.55,414s-7.49-5.63-8.35-8.08-3.47-11.69-3.47-11.69l-1.87.72s1.74,13.58,2.6,15,6.06,8.66,8.65,8.94S749,416.47,747.55,414Z" transform="translate(-579 -296.99)"/><path class="cls-16" d="M750.45,401.32s-3.86-1.64-5.69,1.73c-1,2.09,2.09.1,2.7.77s-.77,2-.39,2.5,1-.86,1.44-.09-.57.87-1.24,1.72.58,2.09-.39,2.89-3.62,1.33-2,5.51-2.68,5.22-.86,10.87,14.24,8.84,16.54,2.09-5.38-8.36-4.9-11.35,2.21-3.75-.1-6.73-3.75-4.72-3.13-6.64a2.52,2.52,0,0,0-1.6-3.18A2.37,2.37,0,0,0,750.45,401.32Z" transform="translate(-579 -296.99)"/><path class="cls-30" d="M760.93,378.07a8.27,8.27,0,1,0,8.28,8.27,8.26,8.26,0,0,0-8.28-8.27Zm-4.18,7.62a1,1,0,1,1,2.09,0,1,1,0,0,1-2.09,0Zm4.18,5.16a2.65,2.65,0,0,1-2.6-2.28h5.22A2.64,2.64,0,0,1,760.93,390.85Zm3.13-4.18a.81.81,0,1,1,.09,0Z" transform="translate(-579 -296.99)"/><polygon class="cls-10" points="59.07 148.18 58.58 147.21 71.7 140.65 88.24 140.92 106.2 134.16 119.91 134.16 134.56 129.28 134.68 129.29 146.43 130.63 153.05 127.18 153.55 128.14 146.63 131.73 146.47 131.71 134.68 130.38 120.01 135.24 106.3 135.24 88.43 142.01 88.32 142.01 71.95 141.74 59.07 148.18"/><path class="cls-16" d="M686.19,419.19s13,21,11.37,35.68l8.85.18-3.79-2.19,1-.18s-3.24-22.69-6.26-30.75c-3.22-8.43-4.18-5.31-4.18-5.31Z" transform="translate(-579 -296.99)"/><path class="cls-16" d="M681.5,417.88s.72,14.62-.36,20.21-4.32,16.6-4.32,16.6l8.35.18L683,453.34l-1.39-.81s5.91-15.88,6.45-23.46a99.43,99.43,0,0,1,1.44-11.92Z" transform="translate(-579 -296.99)"/><polyline class="cls-15" points="119.48 77.63 120.84 76.68 121.45 74.45 120.77 74.31 120.36 75.13 120.77 71.27 120.09 71.41 119.42 75.13 118.61 76.89 119.35 77.36"/><polygon class="cls-15" points="127.49 81.64 127.67 80.02 129.66 78.04 130.1 78.67 129.38 79.48 133.17 78.57 133.17 79.39 129.66 80.74 128.93 82.01 127.49 81.64"/><path class="cls-5" d="M697.55,373.25s-15.41,18.7-17.21,22.44c0,0-.75,1.35-.75,5.22s1.35,18.26,1.35,18.26l15.66.9s-5.08-17.51-5.22-17.95a10.59,10.59,0,0,0-5.08-3.74l13.2-23.8Z" transform="translate(-579 -296.99)"/><path class="cls-15" d="M687.79,396.58s.66,1.94,1,3.13c0,0-3.2-.06-4.33-1.55l1.2-2.87Z" transform="translate(-579 -296.99)"/><path class="cls-15" d="M690.23,390.51s.95,5.52,0,6.78-4.17-.88-5.55-2.89-1.63-6.53.68-6.9A4.24,4.24,0,0,1,690.23,390.51Z" transform="translate(-579 -296.99)"/><path class="cls-5" d="M688.77,400.74s12.36-7.78,13.36-9.4,3.78-13.45,3.78-13.45l2.39.59s-1.39,13.26-1.8,14.62S694,407.45,691.16,407.45,687.38,403.92,688.77,400.74Z" transform="translate(-579 -296.99)"/><path class="cls-16" d="M689.36,389.28s.62-2.17-.72-3.25a4.38,4.38,0,0,0-4.07-.54c0,.63,1.45,1,1,1.35s-2.26,0-2.71,1.9.19,2.25.19,2.25a2.24,2.24,0,0,0,.18,2.8c1.17,1.62,3.82,3,4.48,2.79s.3-2.7.3-2.7-1.53-.18-1.63-1.17.72-1,1.05-.72.45,1.17.72,1-.1-2.09-.1-2.09A3.9,3.9,0,0,0,689.36,389.28Z" transform="translate(-579 -296.99)"/><path class="cls-11" d="M696.62,444.54l-9.27,2.55A4.83,4.83,0,0,0,684,453l1.75,6.4a4.83,4.83,0,0,0,5.91,3.37l2.79-.77,2.74,2.72,1-3.73,2.78-.76a4.83,4.83,0,0,0,3.36-5.91l-1.75-6.39A4.84,4.84,0,0,0,696.62,444.54Z" transform="translate(-579 -296.99)"/><path class="cls-22" d="M690.48,455.05a1,1,0,1,1-1.3-.75,1,1,0,0,1,1.3.75Z" transform="translate(-579 -296.99)"/><path class="cls-22" d="M695.16,453.76a1.08,1.08,0,0,1-2.09.57h0a1.08,1.08,0,0,1,2.09-.57Z" transform="translate(-579 -296.99)"/><path class="cls-22" d="M699.84,452.48a1,1,0,1,1-1.3-.74,1,1,0,0,1,1.3.74Z" transform="translate(-579 -296.99)"/><circle class="cls-19" cx="71.73" cy="140.92" r="1.71"/><circle class="cls-29" cx="134.71" cy="129.92" r="1.71"/></svg>