<svg xmlns="http://www.w3.org/2000/svg" xmlns:xlink="http://www.w3.org/1999/xlink" viewBox="0 0 210.19 188.17"><defs><style>.cls-1,.cls-9{fill:none;}.cls-2{isolation:isolate;}.cls-3{fill:url(#Degradado_sin_nombre_36);}.cls-4{fill:url(#Degradado_sin_nombre_11);}.cls-5{fill:#dbe6fd;}.cls-13,.cls-5{opacity:0.55;}.cls-18,.cls-5{mix-blend-mode:multiply;}.cls-11,.cls-6{fill:#b7c7fc;}.cls-6{opacity:0.5;}.cls-7{fill:#b2c7f6;}.cls-18,.cls-8{opacity:0.25;}.cls-9{stroke:#fff;stroke-linecap:round;stroke-linejoin:round;}.cls-10{fill:#c0cefc;}.cls-12{fill:#fff;}.cls-13,.cls-14{fill:#dadefc;}.cls-15{fill:url(#linear-gradient);}.cls-16{fill:#b72d80;opacity:0.75;}.cls-17{fill:url(#linear-gradient-2);}.cls-18{fill:#6b8eef;}.cls-19{fill:url(#linear-gradient-3);}.cls-20{fill:#f0caaf;}.cls-21{fill:#6d362c;}.cls-22{fill:#d77042;}.cls-23{fill:#c55938;}.cls-24{fill:#34364c;}.cls-25{fill:#2c2e40;}.cls-26{fill:#c5836f;}.cls-27{fill:#4f76fa;}.cls-28{fill:#728efb;}.cls-29{fill:#4060ea;}.cls-30{fill:#d89a80;}.cls-31{fill:#292f6e;}.cls-32{fill:url(#linear-gradient-4);}.cls-33{fill:url(#linear-gradient-5);}.cls-34{fill:url(#linear-gradient-6);}.cls-35{clip-path:url(#clip-path);}.cls-36{fill:#c2d3fc;}.cls-37{fill:url(#linear-gradient-7);}.cls-38{fill:url(#linear-gradient-8);}</style><linearGradient id="Degradado_sin_nombre_36" x1="579.69" y1="382.61" x2="775.54" y2="382.61" gradientUnits="userSpaceOnUse"><stop offset="0" stop-color="#2acaff"/><stop offset="1" stop-color="#2adfc3"/></linearGradient><linearGradient id="Degradado_sin_nombre_11" x1="599.9" y1="394.89" x2="787.72" y2="394.89" gradientUnits="userSpaceOnUse"><stop offset="0" stop-color="#76aadb"/><stop offset="1" stop-color="#4a72b2"/></linearGradient><linearGradient id="linear-gradient" x1="666.8" y1="404.15" x2="711.17" y2="404.15" gradientUnits="userSpaceOnUse"><stop offset="0" stop-color="#d74f4b"/><stop offset="1" stop-color="#cd3893"/></linearGradient><linearGradient id="linear-gradient-2" x1="670.57" y1="404.8" x2="705.93" y2="404.8" xlink:href="#linear-gradient"/><linearGradient id="linear-gradient-3" x1="642.01" y1="367.4" x2="734.49" y2="367.4" xlink:href="#linear-gradient"/><linearGradient id="linear-gradient-4" x1="743.58" y1="348.24" x2="761.05" y2="348.24" xlink:href="#linear-gradient"/><linearGradient id="linear-gradient-5" x1="749.21" y1="348.24" x2="755.42" y2="348.24" xlink:href="#linear-gradient"/><linearGradient id="linear-gradient-6" x1="599.65" y1="371.33" x2="615.37" y2="371.33" xlink:href="#linear-gradient"/><clipPath id="clip-path" transform="translate(-578.81 -296.99)"><polyline class="cls-1" points="607.51 373.3 616.36 364.88 607.51 364.88 598.66 364.88 607.51 373.3"/></clipPath><linearGradient id="linear-gradient-7" x1="131.92" y1="29.5" x2="162.33" y2="29.5" xlink:href="#linear-gradient"/><linearGradient id="linear-gradient-8" x1="151.98" y1="41.8" x2="158.76" y2="41.8" xlink:href="#linear-gradient"/></defs><title>page-policy</title><g class="cls-2"><g id="Слой_1" data-name="Слой 1"><path class="cls-3" d="M594.57,421.47s-40.92-40,12.95-75.92,112.1-52.15,146-47.9,25.38,86-3.89,135.65S650,480.22,594.57,421.47Z" transform="translate(-578.81 -296.99)"/><path class="cls-4" d="M766.8,336.34s47.07,32.57,0,77-101.73,70.26-135.89,71.78-39.48-80.47-19-134.38S702.27,287.75,766.8,336.34Z" transform="translate(-578.81 -296.99)"/><path class="cls-5" d="M641.49,434.56c0,1.52-13.43,2.76-30,2.76s-30-1.24-30-2.76,13.43-2.76,30-2.76S641.49,433,641.49,434.56Z" transform="translate(-578.81 -296.99)"/><path class="cls-5" d="M744.07,439.2c0,1.52-24.61,2.76-55,2.76s-55-1.24-55-2.76,24.61-2.76,55-2.76S744.07,437.67,744.07,439.2Z" transform="translate(-578.81 -296.99)"/><path class="cls-5" d="M789,450.22c0,1.52-15.64,2.76-34.93,2.76s-34.94-1.24-34.94-2.76,15.64-2.76,34.94-2.76S789,448.69,789,450.22Z" transform="translate(-578.81 -296.99)"/><path class="cls-5" d="M719.13,447.49c0,.8-3.12,1.46-7,1.46s-7-.66-7-1.46,3.13-1.47,7-1.47S719.13,446.68,719.13,447.49Z" transform="translate(-578.81 -296.99)"/><path class="cls-6" d="M728.9,367.37a14.15,14.15,0,0,0,.05-2.84,13.43,13.43,0,0,0-.56-2.78l-3.41.82a9.91,9.91,0,0,0-1.38-2.64l2.6-2.34a13.14,13.14,0,0,0-4.33-3.61L720,357a9.5,9.5,0,0,0-2.84-.89l.19-3.5a13.57,13.57,0,0,0-5.62.51l.82,3.41a9.8,9.8,0,0,0-2.64,1.39l-2.33-2.61a13.35,13.35,0,0,0-3.61,4.33l3,1.83a9.8,9.8,0,0,0-.89,2.84l-3.49-.19a12.8,12.8,0,0,0-.05,2.84,13.43,13.43,0,0,0,.56,2.78l3.4-.82a9.65,9.65,0,0,0,1.39,2.64l-2.61,2.34a13.47,13.47,0,0,0,4.33,3.61l1.83-3a9.56,9.56,0,0,0,2.85.89l-.19,3.49a12.71,12.71,0,0,0,2.83.05,13.3,13.3,0,0,0,2.78-.56l-.82-3.4a9.65,9.65,0,0,0,2.64-1.39l2.34,2.61a13.35,13.35,0,0,0,3.61-4.33l-3-1.83a9.56,9.56,0,0,0,.89-2.85Zm-12.66,3.75a5.41,5.41,0,1,1,4.9-5.88A5.41,5.41,0,0,1,716.24,371.12Z" transform="translate(-578.81 -296.99)"/><path class="cls-6" d="M707.15,345.09a7.93,7.93,0,0,0,0-1.69,7.54,7.54,0,0,0-.33-1.65l-2,.49a5.59,5.59,0,0,0-.82-1.57l1.55-1.38a8.11,8.11,0,0,0-2.58-2.15l-1.08,1.78a5.74,5.74,0,0,0-1.69-.53l.11-2.08a7.84,7.84,0,0,0-1.68,0,7.54,7.54,0,0,0-1.65.33l.49,2a5.59,5.59,0,0,0-1.57.82l-1.39-1.55a7.92,7.92,0,0,0-2.14,2.57l1.77,1.09a5.74,5.74,0,0,0-.53,1.69l-2.07-.12a7.94,7.94,0,0,0,0,1.69,8.18,8.18,0,0,0,.33,1.65l2-.49a5.89,5.89,0,0,0,.83,1.57L693.14,349a7.81,7.81,0,0,0,2.57,2.14l1.08-1.77a5.82,5.82,0,0,0,1.69.52l-.11,2.08a7.83,7.83,0,0,0,3.33-.3l-.48-2a5.84,5.84,0,0,0,1.56-.83l1.39,1.55a7.81,7.81,0,0,0,2.14-2.57l-1.77-1.09a5.65,5.65,0,0,0,.53-1.69Zm-7.52,2.22a3.21,3.21,0,1,1,2.91-3.48A3.22,3.22,0,0,1,699.63,347.31Z" transform="translate(-578.81 -296.99)"/><path class="cls-7" d="M731.38,412.58c1.65-2.08,3.36-4.25,3.9-6.85a32.63,32.63,0,0,0,1.12-7.51,20.08,20.08,0,0,1,1.18-7.24c2.55-7.28,5.59-6.08,6.67-5.38s1.44,2,1.26,4c-.14,1.59-2.16,8.89.4,8.08,3-.93,3.82-8.7,4.58-11.23,1.13-3.78,3.23-7.72,6.52-10,1.62-1.14,3.88-1.85,5.54-.76a4.56,4.56,0,0,1,1.79,3c.73,3.51-.87,6.86-2.57,9.82-.72,1.23-5.95,6.71-2.17,6.59.9,0,9-4.9,9,1.18,0,2.14-2.64,4-6.72,6.26-2.55,1.4-11.76,4.74-11.61,7.13s5.4-.75,4.3,3.53c-.62,2.4-4,3.75-6.32,4.4-1.09.31-2.23.4-3.3.78-1.26.45-2.89,1.72-2.16,3.24.32.66,1.05,1.07,1.34,1.74a2.08,2.08,0,0,1-.39,2.1,4.91,4.91,0,0,1-1.83,1.27c-4.37,2-9.51,1.76-14.06.25a45.24,45.24,0,0,1-12.48-7.06" transform="translate(-578.81 -296.99)"/><g class="cls-8"><path class="cls-9" d="M759.75,379.39s-8.08,24.84-25.49,38.78" transform="translate(-578.81 -296.99)"/><path class="cls-9" d="M764.71,397s-9.47,5.66-16.68,5.75" transform="translate(-578.81 -296.99)"/><path class="cls-9" d="M742.55,388.61c-.95,3.95-2.69,15.07.43,20.93" transform="translate(-578.81 -296.99)"/><path class="cls-9" d="M751.26,413.54s-3.75,2.51-14.38,2.39" transform="translate(-578.81 -296.99)"/><path class="cls-9" d="M742,423.71a16.72,16.72,0,0,1-10-3.15" transform="translate(-578.81 -296.99)"/></g><path class="cls-10" d="M765.5,428.31c-1.93-6.62-.5-13.76,1.77-20.27a11.18,11.18,0,0,1,2.34-4.33,2.64,2.64,0,0,1,2.26-.93c1.22.25,1.73,1.7,1.87,2.94.86,7.8-4.28,14.95-5.58,22.69" transform="translate(-578.81 -296.99)"/><path class="cls-10" d="M760,425a20.25,20.25,0,0,0-1.83-5.69,10,10,0,0,0-4.07-4.28,2.26,2.26,0,0,0-2.5-.08c-.73.65-.49,1.84-.06,2.72,2.36,4.79,8.39,6.94,10.69,11.76" transform="translate(-578.81 -296.99)"/><path class="cls-10" d="M762.81,428.89a41.71,41.71,0,0,1-3.77-8.71,16.08,16.08,0,0,1,0-9.37c.32-.92,1.11-2,2-1.66a1.86,1.86,0,0,1,.81.69,15.92,15.92,0,0,1,2.69,8,77.16,77.16,0,0,0,.94,8.48,2.4,2.4,0,0,0,.51,1.16.9.9,0,0,0,1.14.18,1.21,1.21,0,0,0,.35-.61c.4-1.24,6.54-14,12.1-14.88a3.89,3.89,0,0,1,1.36-.05c7,1.16-8.74,15.73-8.86,17.9,5.69-4.87,6.89-5.77,9.48-6.24,2-.36,5.47,1.41,4.33,3.85-.79,1.69-2.77,2.44-4.59,2.81-2,.39-4,.52-6,1.08a7.86,7.86,0,0,0-4.88,3.4" transform="translate(-578.81 -296.99)"/><path class="cls-7" d="M643.23,399.13c-5.61-2.95-2.31-8.41-3.14-12-1.37-5.86-2.92-7-6.13-5.89-1.56.56-2.44,2.85-2.79,4.32-.55,2.34-.13,4.77.19,7.12.27,2,1.48,6.41-.94,7.18s-2.79-2.43-5.72-4.76c-1.32-1.05-4.87-1.48-5.66,1.11-1.4,4.61.77,6.8,11.68,12.91,1.86,1,5.88,2.13,5.64,3.18s-3.07-.21-5.16.51c-3.39,1.15-1.87,3.28-.67,4,9.48,5.48,17.18,3.07,20.89,4.78,1.61.75,2.68,2.29,3.94,3.54,2.79,2.77,3.85,2.28,7.77,2.18a10,10,0,0,0,6.37-2.23,2.46,2.46,0,0,0,1-2.45,2.68,2.68,0,0,0-1.22-1.25c-3.54-2.19-7.71-3.14-11.33-5.19a21.43,21.43,0,0,1-10.44-14.95" transform="translate(-578.81 -296.99)"/><g class="cls-8"><path class="cls-9" d="M635.19,385.21a19.12,19.12,0,0,0,.68,4.56c1.18,5.1,2.38,10.25,4.73,14.92,3.08,6.12,8,11.11,12.91,15.83a20.38,20.38,0,0,0,5.77,4.29" transform="translate(-578.81 -296.99)"/><path class="cls-9" d="M621.89,399.14c5.56,5.48,13.33,8.05,21,9.62" transform="translate(-578.81 -296.99)"/><path class="cls-9" d="M634.12,415.68c4.28.86,12.8,2.8,16.54,2.06" transform="translate(-578.81 -296.99)"/></g><path class="cls-11" d="M758.72,341.13l2.78-2.07a17.25,17.25,0,0,0-5.31-5.31l-2.07,2.78a13.35,13.35,0,0,0-3.87-1.6l.51-3.44a17,17,0,0,0-7.51,0l.5,3.44a13.58,13.58,0,0,0-3.87,1.6l-2.07-2.78a17.22,17.22,0,0,0-5.3,5.31l2.78,2.07a13.65,13.65,0,0,0-1.61,3.87l-3.43-.5a16.57,16.57,0,0,0,0,7.5l3.43-.5a13.9,13.9,0,0,0,1.61,3.87l-2.78,2.07a17.08,17.08,0,0,0,5.3,5.3l2.07-2.78a13.6,13.6,0,0,0,3.87,1.61l-.5,3.43a16.61,16.61,0,0,0,7.51,0l-.51-3.43a13.37,13.37,0,0,0,3.87-1.61l2.07,2.78a17.22,17.22,0,0,0,5.31-5.3l-2.78-2.07a13.9,13.9,0,0,0,1.61-3.87l3.43.5a17,17,0,0,0,0-7.5l-3.43.5A13.65,13.65,0,0,0,758.72,341.13ZM747,357.37a9.12,9.12,0,1,1,9.12-9.12A9.12,9.12,0,0,1,747,357.37Z" transform="translate(-578.81 -296.99)"/><path class="cls-11" d="M649.82,360l1.16-1.67a10.2,10.2,0,0,0-4-2l-.63,1.94a8.11,8.11,0,0,0-2.46-.17l-.37-2a9.89,9.89,0,0,0-2.17.46,11.3,11.3,0,0,0-2,.94l.92,1.83a8,8,0,0,0-1.86,1.62l-1.68-1.17a10.18,10.18,0,0,0-2,4l1.94.64a8.06,8.06,0,0,0-.17,2.46l-2,.36a10,10,0,0,0,.46,2.18,9.73,9.73,0,0,0,.94,2l1.83-.92a7.62,7.62,0,0,0,1.62,1.86L638.22,374a10.18,10.18,0,0,0,4,2l.63-1.94a8.15,8.15,0,0,0,2.47.17l.36,2a10.54,10.54,0,0,0,2.17-.47,9.81,9.81,0,0,0,2-.94l-.92-1.82a8.28,8.28,0,0,0,1.86-1.62l1.68,1.16a10.14,10.14,0,0,0,2-3.95l-1.94-.64a8.11,8.11,0,0,0,.17-2.46l2-.36a9.86,9.86,0,0,0-.46-2.18,10.06,10.06,0,0,0-.94-2l-1.82.93A8.11,8.11,0,0,0,649.82,360Zm-3.58,11.06a5.15,5.15,0,1,1,3.24-6.52A5.16,5.16,0,0,1,646.24,371.07Z" transform="translate(-578.81 -296.99)"/><path class="cls-12" d="M72.24,66.47h74.4a9,9,0,0,1,9,9v66.71a0,0,0,0,1,0,0H63.2a0,0,0,0,1,0,0V75.51A9,9,0,0,1,72.24,66.47Z"/><rect class="cls-13" x="69.91" y="121.18" width="30.83" height="15.31" rx="2.08"/><rect class="cls-13" x="69.91" y="78.09" width="55.13" height="2.74" rx="1.17"/><rect class="cls-13" x="69.91" y="83.75" width="55.13" height="2.74" rx="1.17"/><rect class="cls-13" x="69.91" y="89.42" width="55.13" height="2.74" rx="1.17"/><rect class="cls-13" x="69.91" y="95.09" width="55.13" height="2.74" rx="1.17"/><rect class="cls-13" x="69.91" y="100.75" width="55.13" height="2.74" rx="1.17"/><rect class="cls-13" x="69.91" y="106.42" width="55.13" height="2.74" rx="1.17"/><polygon class="cls-14" points="125.39 133.12 125.94 134.23 127.16 134.41 126.28 135.27 126.48 136.5 125.39 135.92 124.29 136.5 124.5 135.27 123.61 134.41 124.84 134.23 125.39 133.12"/><polygon class="cls-14" points="130.83 133.12 131.38 134.23 132.61 134.41 131.72 135.27 131.93 136.5 130.83 135.92 129.73 136.5 129.94 135.27 129.06 134.41 130.28 134.23 130.83 133.12"/><polygon class="cls-14" points="136.28 133.12 136.82 134.23 138.05 134.41 137.16 135.27 137.37 136.5 136.28 135.92 135.18 136.5 135.39 135.27 134.5 134.41 135.73 134.23 136.28 133.12"/><polygon class="cls-14" points="141.72 133.12 142.27 134.23 143.5 134.41 142.61 135.27 142.82 136.5 141.72 135.92 140.62 136.5 140.83 135.27 139.94 134.41 141.17 134.23 141.72 133.12"/><polygon class="cls-14" points="147.16 133.12 147.71 134.23 148.94 134.41 148.05 135.27 148.26 136.5 147.16 135.92 146.07 136.5 146.28 135.27 145.39 134.41 146.62 134.23 147.16 133.12"/><path class="cls-15" d="M699.05,386.72A24.67,24.67,0,0,1,689,380.54a24.67,24.67,0,0,1-10.06,6.18,39,39,0,0,1-12.13,1.71s0,21.28,7.3,29.85c6.85,8.05,14.89,9.47,14.89,9.47s8-1.42,14.89-9.47c7.29-8.57,7.29-29.85,7.29-29.85A38.93,38.93,0,0,1,699.05,386.72Z" transform="translate(-578.81 -296.99)"/><path class="cls-16" d="M688.25,424.36a25.94,25.94,0,0,1-12.38-8.22c-4.51-5.3-6-17.49-6.41-24.49a40.1,40.1,0,0,0,9.77-1.8,29.81,29.81,0,0,0,9-4.86,29.81,29.81,0,0,0,9,4.86,39.93,39.93,0,0,0,9.77,1.8c-.36,7-1.9,19.19-6.41,24.49A25.94,25.94,0,0,1,688.25,424.36Z" transform="translate(-578.81 -296.99)"/><path class="cls-17" d="M688.25,423.27a24.72,24.72,0,0,1-11.57-7.81c-4.14-4.86-5.67-15.88-6.11-22.84a40,40,0,0,0,9-1.76,30.87,30.87,0,0,0,8.69-4.52,31,31,0,0,0,8.69,4.52,40,40,0,0,0,9,1.76c-.45,7-2,18-6.11,22.84A24.72,24.72,0,0,1,688.25,423.27Z" transform="translate(-578.81 -296.99)"/><path class="cls-12" d="M692,400.33a3.73,3.73,0,1,1-3.73-3.72A3.73,3.73,0,0,1,692,400.33Z" transform="translate(-578.81 -296.99)"/><path class="cls-12" d="M688.25,411.92h0a1.57,1.57,0,0,1-1.57-1.57v-8.59a1.57,1.57,0,0,1,1.57-1.57h0a1.57,1.57,0,0,1,1.57,1.57v8.59A1.57,1.57,0,0,1,688.25,411.92Z" transform="translate(-578.81 -296.99)"/><path class="cls-18" d="M698.31,386.72a24.67,24.67,0,0,1-10.06-6.18v47.21s8-1.42,14.89-9.47c7.29-8.57,7.29-29.85,7.29-29.85A38.93,38.93,0,0,1,698.31,386.72Z" transform="translate(-578.81 -296.99)"/><path class="cls-19" d="M729.15,363.46H647.34a5.33,5.33,0,0,0-5.33,5.33v2.54h92.48v-2.54A5.34,5.34,0,0,0,729.15,363.46Z" transform="translate(-578.81 -296.99)"/><path class="cls-12" d="M720.77,367.4a.86.86,0,0,1-.86.85.86.86,0,0,1,0-1.71A.86.86,0,0,1,720.77,367.4Z" transform="translate(-578.81 -296.99)"/><path class="cls-12" d="M725,367.4a.85.85,0,0,1-.85.85.86.86,0,1,1,.85-.85Z" transform="translate(-578.81 -296.99)"/><path class="cls-12" d="M729.26,367.4a.86.86,0,1,1-.86-.86A.85.85,0,0,1,729.26,367.4Z" transform="translate(-578.81 -296.99)"/><path class="cls-7" d="M602.92,433.17H581.19c-4.25,0-3.56-5,8.24-2.8-2.89-1.32-2.91-3.09-2.67-3.56a1.81,1.81,0,0,1,1.54-.67c1.51.12,2.64,1,4,1.78a8.44,8.44,0,0,1-3.76-7.22,3,3,0,0,1,.77-2.15,3.17,3.17,0,0,1,2.55-.82c1.6.32,4.52,3,5.69,4.1-6-5.46-8.21-14.08-4.4-16,6.4-3.31,11.24,15.43,11.24,15.43s-3.18-14.08,2.16-14.17,1,16.37,1,16.37" transform="translate(-578.81 -296.99)"/><path class="cls-12" d="M778.51,431.28a9.5,9.5,0,0,0-3,.5,14.74,14.74,0,0,0-29.48.44c0,.37,0,.74,0,1.1a8.16,8.16,0,0,0-15.19,4.16,8,8,0,0,0,.22,1.85,5.86,5.86,0,1,0-2.84,11h50.29a9.52,9.52,0,0,0,0-19Z" transform="translate(-578.81 -296.99)"/><path class="cls-12" d="M601,423a6,6,0,0,1,2,.34,9.69,9.69,0,0,1,19.38.28c0,.25,0,.49,0,.73a5.37,5.37,0,0,1,10,2.73,5.43,5.43,0,0,1-.15,1.22,3.85,3.85,0,1,1,1.87,7.22H601A6.26,6.26,0,0,1,601,423Z" transform="translate(-578.81 -296.99)"/><path class="cls-14" d="M734.22,389.92l2.18-.79a11.47,11.47,0,0,0-2.36-4.42l-1.86,1.37A9.33,9.33,0,0,0,730,384.3l1-2.1a11.31,11.31,0,0,0-4.8-1.46l-.35,2.3a9,9,0,0,0-2.79.27l-.78-2.18a11.45,11.45,0,0,0-4.42,2.35l1.37,1.87a9.08,9.08,0,0,0-1.78,2.16l-2.1-1a11.31,11.31,0,0,0-1.46,4.8l2.29.35a9.22,9.22,0,0,0,.27,2.78l-2.18.78a11.44,11.44,0,0,0,2.36,4.43l1.87-1.37a9.12,9.12,0,0,0,2.16,1.78l-1,2.09a11.38,11.38,0,0,0,2.31,1,12.14,12.14,0,0,0,2.48.46l.35-2.3a9,9,0,0,0,2.79-.27l.78,2.18a11.56,11.56,0,0,0,4.43-2.35L731.44,399a8.85,8.85,0,0,0,1.78-2.16l2.1,1a11.31,11.31,0,0,0,1.46-4.8l-2.29-.35A8.89,8.89,0,0,0,734.22,389.92ZM723.86,397a5.08,5.08,0,1,1,6.34-3.37A5.08,5.08,0,0,1,723.86,397Z" transform="translate(-578.81 -296.99)"/><path class="cls-7" d="M740.3,458.39c0,.82-5.18,1.5-11.58,1.5s-11.58-.68-11.58-1.5,5.19-1.51,11.58-1.51S740.3,457.56,740.3,458.39Z" transform="translate(-578.81 -296.99)"/><path class="cls-20" d="M734.53,454.52s.15,1.6.2,2,1.37.35,1.5.13a11.24,11.24,0,0,0,.09-2.1" transform="translate(-578.81 -296.99)"/><path class="cls-21" d="M736.6,457a8.78,8.78,0,0,1,0,1.13l-1.5.1L735,458a2.45,2.45,0,0,1-.85.31l-1.27.08c-.92.07-1.46,0-1.49-.18-.15-.67,1-.72,1.25-.73a2.36,2.36,0,0,0,1.86-.94c.12-.31.06-.39.23-.34a.41.41,0,0,1,.27.2.78.78,0,0,0,.81.38.9.9,0,0,0,.49-.28A.54.54,0,0,1,736.6,457Z" transform="translate(-578.81 -296.99)"/><path class="cls-20" d="M724.31,455a12.2,12.2,0,0,0,.07,1.53c.08.41,1.38.28,1.51.05a12,12,0,0,0,0-2.11" transform="translate(-578.81 -296.99)"/><path class="cls-21" d="M726.26,457c0,.43,0,1.23,0,1.23l-1.33.32-.16-.22a2.29,2.29,0,0,1-.79.42,4.78,4.78,0,0,1-1.25.12,3,3,0,0,1-1.9-.57c-.15-.67,1.31-.59,1.6-.61a2,2,0,0,0,1.6-1.12c.12-.32.05-.39.23-.35a.44.44,0,0,1,.28.2.82.82,0,0,0,.85.36,1,1,0,0,0,.5-.29A.54.54,0,0,1,726.26,457Z" transform="translate(-578.81 -296.99)"/><path class="cls-22" d="M732.3,409.88a4.59,4.59,0,0,0,2,2.56c1.83.92,4.76.42,5.7.05,1.47-.59,1-10.09-.74-13.14-.4-.72-2-1.07-2.93-1.27-.27,2.57.72,8.87,2.18,11.52C738.46,410.08,732.3,409.88,732.3,409.88Z" transform="translate(-578.81 -296.99)"/><path class="cls-23" d="M739.42,410.3c.43-.59-.22-7.2-.18-8.22l-2,3.69c.37,1.51-1.15,4.17-3,4.15l-.26.36C735.06,410.53,739,410.89,739.42,410.3Z" transform="translate(-578.81 -296.99)"/><path class="cls-24" d="M731.38,434.84a49.85,49.85,0,0,0,.65,6.39c.27,1.42,3.48.56,3.4-.69-.11-1.78.68-5,1.38-13.52.11-1.28.68-1.43,1.06-4.07a10.18,10.18,0,0,0-1.08-5.39l-5.48-.36-.08,7.7,0,2.61S731.19,431.08,731.38,434.84Z" transform="translate(-578.81 -296.99)"/><path class="cls-24" d="M735.42,440.24a11.76,11.76,0,0,1,1.19,3.8c.22,2.72-.06,11.65-.06,11.65a5.82,5.82,0,0,1-2.14.08s-2.54-14.9-2.66-16.61S735.42,440.24,735.42,440.24Z" transform="translate(-578.81 -296.99)"/><path class="cls-25" d="M731.38,434.84a46.62,46.62,0,0,1,1.8-5c.88-1.89,1.4-3,1.4-3,3.14-3.29.34-7.23.34-7.23l-1.74,2.33c-.17.2-1.19,2-1.95,3l0,2.61S731.19,431.08,731.38,434.84Z" transform="translate(-578.81 -296.99)"/><path class="cls-24" d="M726.85,441.11a9.62,9.62,0,0,1,1.32-4.43s-4.18-3.2-4.24-3.95c0,0-.6,4.69-.81,6.14-.37,2.51.88,16.85.88,16.85a5.23,5.23,0,0,0,2.12,0,58.79,58.79,0,0,1,1.13-9.29A14,14,0,0,0,726.85,441.11Z" transform="translate(-578.81 -296.99)"/><path class="cls-24" d="M727.2,417.55c-1.63,3.64-3.4,15.39-3.83,19.44-.18,1.72,1.26,4.33,2.92,2.77,2-1.85,4.8-10.95,5.8-12.45s4.74-2.88,2.19-10.49" transform="translate(-578.81 -296.99)"/><path class="cls-20" d="M735.08,397.11a6.92,6.92,0,0,1-.25-2.62c.19-1.12.86-3.12.61-4.62s-2.14-2.75-4.14-2.56-2.59,2.12-2.92,3.23a11.66,11.66,0,0,0-.2,3.72,2.64,2.64,0,0,0,.92,1.84c.34.19,1.59-.06,1.81.18a6,6,0,0,1,.39,1.65" transform="translate(-578.81 -296.99)"/><path class="cls-23" d="M736,398.37a2.75,2.75,0,0,0-.32-1.22c-.29-.33-2.33-.48-2.95-.44a9.09,9.09,0,0,0-2.4.84c-.21.15.12,1,.12,1Z" transform="translate(-578.81 -296.99)"/><path class="cls-21" d="M735,395.21s-2.74.07-3.31,0a2,2,0,0,1-1.82-1.66c.67,0,.72-1.41.36-1.94s-.82-.21-.88.29,0,.34-.13.41-.43.08-.36-.89a3.59,3.59,0,0,1,.37-1.6c.25-.56.38-.53.61-.63a1.74,1.74,0,0,1-1-.88,1.85,1.85,0,0,1,.56-2.65,1.17,1.17,0,0,0,.93.86c1.21.33,3.4.05,4.46.67.46.27.86.86.64,1.32,0,0,.88-.14.93,1.6.11,3.52-1.08,3.83-1.17,4.38S735.27,395.08,735,395.21Z" transform="translate(-578.81 -296.99)"/><path class="cls-22" d="M727.2,417.55c.26.09.49.25.76.33a5.22,5.22,0,0,0,2,0l2-.17c3.53-.15,4.74.7,5.32-.16a1,1,0,0,0,.12-.73,5.26,5.26,0,0,1-.28-1.83c.09-.65.21-1.44.38-2.33.59-3.1,1.74-7.83,1.9-10.67.22-4.08-3.91-4-3.91-4-6.08-.38-8.35,1.37-8.68,4,0,.19,0,.39-.05.6-.16,2.69.61,8.26,1,11.51C727.87,415,726.68,417.36,727.2,417.55Z" transform="translate(-578.81 -296.99)"/><path class="cls-23" d="M727,417.79a3.46,3.46,0,0,0,2,.19c-.93.07-1.91-.52-1.7-1a8.28,8.28,0,0,0,.86-2.41c.25-3.28.18-12.56.31-12.4-.15.29-.56.7-1.74,1,0,2.71.48,7.5.66,10.54S726,417,727,417.79Z" transform="translate(-578.81 -296.99)"/><path class="cls-20" d="M714.44,394.5c0-.16.22-.09.27,0a.5.5,0,0,1,0,.12,3.88,3.88,0,0,1,0-.53c0-.15.2-.09.26,0v-.21c0-.2.22-.12.27,0a1.45,1.45,0,0,1,0,.27v-.15c0-.16.2-.12.25,0a1.77,1.77,0,0,1,.06.31c0,.16.07.33.09.49s.2.82.54.89c.52.1.18-.8.54-1,.11-.07.25.63.26,1a4.16,4.16,0,0,1,0,.83c0,.23-.15.57-.13.71a3.39,3.39,0,0,0,.18.51l-1.19.5a3.08,3.08,0,0,0-.33-.88,3.27,3.27,0,0,1-.95-1.4,6.17,6.17,0,0,1-.17-1.06S714.44,394.55,714.44,394.5Z" transform="translate(-578.81 -296.99)"/><path class="cls-22" d="M715.67,398.1s.4,2.34.8,4.21a18.07,18.07,0,0,0,1.39,4.31.06.06,0,0,1,0,0,6.65,6.65,0,0,0,1.84,2.34c2.28,1.05,7.46-5.06,8.66-4.68,2.45.66,4.28-6.36,4.28-6.36a30.91,30.91,0,0,0-4.64.41c-1.86.39-6.82,6.6-7.07,6.61s-.67-.91-1.22-2c-1.24-2.36-2.61-5.35-2.61-5.35L716,398Z" transform="translate(-578.81 -296.99)"/><path class="cls-20" d="M728.21,391.33s-.86,1.3-.76,1.58.94.26.94.26" transform="translate(-578.81 -296.99)"/><path class="cls-26" d="M620.07,406.56c1.11,1.33,2,4.46,3.15,5.77a42.7,42.7,0,0,0,7.25,5.6c.12-.81,1.83-.31,1.22-.85-1.88-1.7-5.14-3.43-6.25-6.55a58.68,58.68,0,0,0-3.44-6.6" transform="translate(-578.81 -296.99)"/><path class="cls-27" d="M643,415.62H623V403.41a1.73,1.73,0,0,1,1.73-1.74h7.54a.83.83,0,0,1,.52.19l1.83,1.55a.85.85,0,0,0,.55.2h6.09a1.73,1.73,0,0,1,1.73,1.73Z" transform="translate(-578.81 -296.99)"/><rect class="cls-12" x="45.49" y="107.28" width="17.67" height="9.63" rx="1.74"/><rect class="cls-28" x="44.2" y="109.24" width="19.99" height="12.65" rx="3.27"/><path class="cls-29" d="M635.89,410.73h-.39v-.83a2.5,2.5,0,1,0-5,0v.83h-.39a.48.48,0,0,0-.49.48v3.9a1.44,1.44,0,0,0,1.45,1.44h3.85a1.44,1.44,0,0,0,1.45-1.44v-3.9A.48.48,0,0,0,635.89,410.73Zm-4.47-.83a1.58,1.58,0,0,1,3.16,0v.83h-3.16Z" transform="translate(-578.81 -296.99)"/><path class="cls-12" d="M633.88,412.72a.88.88,0,1,0-1.75,0,.86.86,0,0,0,.51.78v1.57a.37.37,0,1,0,.73,0V413.5A.86.86,0,0,0,633.88,412.72Z" transform="translate(-578.81 -296.99)"/><path class="cls-7" d="M605.29,456.45c0,.92,5.73,1.66,12.81,1.66s12.81-.74,12.81-1.66-5.74-1.66-12.81-1.66S605.29,455.53,605.29,456.45Z" transform="translate(-578.81 -296.99)"/><path class="cls-30" d="M617.78,417.94l-5.08-4.17s-2.29,3.2-1.37,6.24a28.74,28.74,0,0,0,1.25,2.95c.23.66,1.87,10.07,1.77,10.76s-.89,2.63-1.17,4.66c-.34,2.45-.17,10.4-.43,12.51s1.7,2.44,1.79,1.72c.83-6.1,3.12-15.63,3.42-18.68S618,425.3,617.78,417.94Z" transform="translate(-578.81 -296.99)"/><path class="cls-26" d="M617.87,423.94l-2.11,5a11.28,11.28,0,0,1,1.6,5.23c0,1,0,1.93,0,2.9a1.55,1.55,0,0,0,0,.21c.27-1.44.47-2.62.55-3.39a94,94,0,0,0,0-10Z" transform="translate(-578.81 -296.99)"/><path class="cls-30" d="M614.85,450.65a13,13,0,0,0-.3,2.5,3.85,3.85,0,0,0,1.06,1.38c.49.31,1.57.66,1.66.8a.34.34,0,0,1-.06.45,2.26,2.26,0,0,1-1.53.41c-1.46-.22-1.62-.87-2.47-1-.15,0-.42.21-.83,0a1,1,0,0,1-.58-.93,4.08,4.08,0,0,1,.63-1.57,13.38,13.38,0,0,0,.38-2.52" transform="translate(-578.81 -296.99)"/><path class="cls-31" d="M617.33,455.88c.1-.18.12-.46,0-.52a10,10,0,0,0-.91-.54c-.29-.12-.74-.23-.58-.15s-.13.41-.39.4a8.3,8.3,0,0,1-2.12-.77,1.8,1.8,0,0,1-1.12-1.2,3.43,3.43,0,0,0-.52,1,1.8,1.8,0,0,0-.1.79,1.91,1.91,0,0,1,.09.75,1.5,1.5,0,0,0,.54.19,2.52,2.52,0,0,0,.58,0l.06-.48a2.21,2.21,0,0,1,.47,0,2.36,2.36,0,0,1,.71.33c.11.12.2.34.34.41a3,3,0,0,0,1.2.29C616.58,456.49,617.15,456.2,617.33,455.88Z" transform="translate(-578.81 -296.99)"/><path class="cls-30" d="M624.76,455.49c-.11-.12-1.27-.31-1.82-.54a3.17,3.17,0,0,1-1.27-1.21,13.88,13.88,0,0,1-.08-2.43c.11-4.34.91-14.94,1-17.48.2-4.41-.37-9-2.07-16.06l-6.32-4.85a11.26,11.26,0,0,0-1.18,6.44c.34,1.83,1.86,2.11,2.11,2.82s4.09,12.15,4.09,12.15a21.37,21.37,0,0,0-.79,5.19c0,2.31,1,9.29,1.21,12a9.05,9.05,0,0,1,0,2.16c-.19.49-.67,1.06-.65,1.67a1,1,0,0,0,.72.83c.45.14.7-.12.85-.13.9,0,1.14.58,2.68.58a2.41,2.41,0,0,0,1.53-.64A.32.32,0,0,0,624.76,455.49Z" transform="translate(-578.81 -296.99)"/><path class="cls-31" d="M624.89,456c.09-.2.08-.47,0-.52a9.65,9.65,0,0,0-1-.4c-.31-.08-.79-.12-.62-.06s-.08.42-.35.45a8.93,8.93,0,0,1-2.29-.44,1.45,1.45,0,0,1-1.15-1,4,4,0,0,0-.57,1.11,1.8,1.8,0,0,0,0,.8,1.75,1.75,0,0,1,.19.72,1.52,1.52,0,0,0,.58.11,2.31,2.31,0,0,0,.61-.09v-.48a2.38,2.38,0,0,1,.48,0,1.59,1.59,0,0,1,.79.28,1.48,1.48,0,0,0,.42.3,3.24,3.24,0,0,0,1.25.1C624.2,456.74,624.75,456.37,624.89,456Z" transform="translate(-578.81 -296.99)"/><path class="cls-24" d="M612.93,413.43a7.29,7.29,0,0,0-2.08,6.71c.16.7,1,2.58,1.21,3.28a37.75,37.75,0,0,1,1.24,5.76c2.5,1.5,7.26.94,9.32-.51a40.57,40.57,0,0,0-.59-7.07,24.16,24.16,0,0,0-2.12-7.52c-.08-.32-.08-1-.15-1.37" transform="translate(-578.81 -296.99)"/><path class="cls-22" d="M619.69,398.29c.4.13.25,1.08.65,1.21s.85,0,1.11.12c1.4.79,1,2.36,1.21,4.31.59,1.5.75,2.85.28,3.69a13.1,13.1,0,0,1-1.92,2.19,6.69,6.69,0,0,0-.83,3.39c0,.24.19.67.13.91-.12.45-.81.59-1.58.61-1.78,0-4.48-.61-5.27-.58s-1.46-.34-1.38-.78.36-.44.48-1c.27-1.31.47-4.6.68-5.71a31.17,31.17,0,0,1,2.1-7.59" transform="translate(-578.81 -296.99)"/><path class="cls-23" d="M623.73,405.12a13.08,13.08,0,0,0-1.61-2.11l-1.52.68a17.17,17.17,0,0,1,1.17,4.49,3.66,3.66,0,0,0,.88-.09c.15-.24.09-.12.29-.47A6,6,0,0,0,623.73,405.12Z" transform="translate(-578.81 -296.99)"/><path class="cls-30" d="M624.77,394.44a7.3,7.3,0,0,0,.26-2c0-1.13-.19-2.77-2.06-3.44s-4-.27-4.57,1.08-.47,3.41-.56,4.5A6.77,6.77,0,0,1,617,397l4,1.74a7.93,7.93,0,0,1,.93-1.61c.27-.17.37.52,1.27.44.38,0,.79-.72,1.1-1.56l0-.09a3.27,3.27,0,0,0,.48,0c.28-.08.26-.2.19-.38A5,5,0,0,1,624.77,394.44Z" transform="translate(-578.81 -296.99)"/><path class="cls-30" d="M630.37,417.61a2.16,2.16,0,0,0,1.12,1.36.69.69,0,0,0,.47,0c.22.1.92.18.66-.23a2,2,0,0,0,1.51.32c.19,0,.18-.22-.23-.34a2.05,2.05,0,0,1-1.29-1.08c.09-.06.16.06.39.1s.4-.08.41-.19-.31-.19-.38-.23l-.77-.51a1.49,1.49,0,0,0-.81-.3c-.06,0-.61,0-.47.23" transform="translate(-578.81 -296.99)"/><path class="cls-30" d="M621.25,404.65c.67,1.39,2.43,6,2.71,6.51,1.07,2.08,6.59,6.6,6.59,6.6a1.11,1.11,0,0,0,.93-1.08c-1.58-1.1-4.54-5.8-5.15-6.36-.4-.37-2.19-7.63-2.19-7.63" transform="translate(-578.81 -296.99)"/><path class="cls-22" d="M622.76,399.54c-1.54-.59-3-.59-4.18-1.77-1.2.92,1.44,6.23,2.09,6.37s1.54,3.08,1.7,3.48a3.58,3.58,0,0,0,2.91-1.22C624.41,403.73,624.25,400.11,622.76,399.54Z" transform="translate(-578.81 -296.99)"/><path class="cls-21" d="M621.53,399.68c-.11-.4-.41-.72-.48-1.12a1.88,1.88,0,0,1,.23-1.21,2.1,2.1,0,0,1,.53-.5,1.82,1.82,0,0,0,.85-2.22,2.82,2.82,0,0,1-.14-1c0-.3.09-.62.42-.66a.38.38,0,0,1,.46.22c.05.14-.06,1.1.26.56a2.27,2.27,0,0,0,.57-1.78c0-.14-.05-.72,0-.81a2.32,2.32,0,0,1,.79,1.63,1.19,1.19,0,0,0,.54-1,2.59,2.59,0,0,0-.23-1.21,3.54,3.54,0,0,0-2.17-2.15,5,5,0,0,0-2-.53c-.69,0-1.55.23-1.75.75-1-.25-1.5.59-1.73.89A4.74,4.74,0,0,0,617,391c-.25.75-.3,1.56-.5,2.33a3.31,3.31,0,0,1-.91,1.72c-.47.42-1.12.46-1.63.85a2.58,2.58,0,0,0-1,2.12c0,.81.45,1.69,0,2.43-.16.24-.38.44-.54.68a1.85,1.85,0,0,0,0,1.91,3.42,3.42,0,0,0,1.65,1.41,4.76,4.76,0,0,0,1.79.24,4.63,4.63,0,0,0,3.38-1.05c.69-.59.25-.93.92-1.57.37-.35.91-.54,1.18-1a1.76,1.76,0,0,0,.18-1.29Z" transform="translate(-578.81 -296.99)"/><path class="cls-12" d="M752.32,343.28c-4.91,0-8.12,5-8.12,5s3.21,5,8.12,5,8.11-5,8.11-5S757.22,343.28,752.32,343.28Z" transform="translate(-578.81 -296.99)"/><path class="cls-32" d="M752.31,353.73c-5.12,0-8.41-5-8.54-5.21l-.19-.28.19-.28c.13-.22,3.42-5.21,8.54-5.21s8.42,5,8.55,5.21l.19.28-.19.28C760.73,348.74,757.44,353.73,752.31,353.73Zm-7.47-5.49c.76,1,3.58,4.44,7.47,4.44s6.72-3.42,7.48-4.44c-.76-1-3.58-4.44-7.48-4.44S745.6,347.22,744.84,348.24Z" transform="translate(-578.81 -296.99)"/><path class="cls-33" d="M755.42,348.24a3.11,3.11,0,1,1-3.1-3.1A3.1,3.1,0,0,1,755.42,348.24Z" transform="translate(-578.81 -296.99)"/><path class="cls-12" d="M752.53,347.3a1.25,1.25,0,1,1-1.25-1.24A1.25,1.25,0,0,1,752.53,347.3Z" transform="translate(-578.81 -296.99)"/><path class="cls-34" d="M614.4,364.85H600.63a1,1,0,0,0-1,1v9a1,1,0,0,0,1,1h1.25l3.12,2.05-.4-2.05h9.8a1,1,0,0,0,1-1v-9A1,1,0,0,0,614.4,364.85Z" transform="translate(-578.81 -296.99)"/><path class="cls-12" d="M608.66,373.3a1.15,1.15,0,1,1-1.15-1.15A1.15,1.15,0,0,1,608.66,373.3Z" transform="translate(-578.81 -296.99)"/><g class="cls-35"><path class="cls-12" d="M607.51,377.22a3.92,3.92,0,1,1,3.92-3.92A3.93,3.93,0,0,1,607.51,377.22Zm0-6.75a2.83,2.83,0,1,0,2.83,2.83A2.83,2.83,0,0,0,607.51,370.47Z" transform="translate(-578.81 -296.99)"/><path class="cls-12" d="M607.51,379.81A6.51,6.51,0,1,1,614,373.3,6.52,6.52,0,0,1,607.51,379.81Zm0-11.93a5.42,5.42,0,1,0,5.42,5.42A5.42,5.42,0,0,0,607.51,367.88Z" transform="translate(-578.81 -296.99)"/></g><rect class="cls-36" x="81.61" y="40.13" width="19.06" height="13.24" rx="2"/><polyline class="cls-36" points="94.73 53.07 94.19 55.86 98.44 53.07"/><path class="cls-12" d="M670.17,348.25a4.36,4.36,0,1,1,4.36-4.36A4.36,4.36,0,0,1,670.17,348.25Zm0-8.27a3.92,3.92,0,1,0,3.91,3.91A3.92,3.92,0,0,0,670.17,340Z" transform="translate(-578.81 -296.99)"/><path class="cls-12" d="M670.17,348.25c-1.09,0-1.94-1.91-1.94-4.36s.85-4.35,1.94-4.35,2,1.91,2,4.35S671.27,348.25,670.17,348.25Zm0-8.27c-.71,0-1.5,1.61-1.5,3.91s.79,3.92,1.5,3.92,1.51-1.61,1.51-3.92S670.88,340,670.17,340Z" transform="translate(-578.81 -296.99)"/><rect class="cls-12" x="87.23" y="46.68" width="8.26" height="0.44"/><path class="cls-12" d="M670.17,342.28c-2.39,0-3.24-.84-3.27-.88l.32-.31-.16.16.15-.16s.78.74,3,.74,3-.73,3-.74l.32.31S672.57,342.28,670.17,342.28Z" transform="translate(-578.81 -296.99)"/><path class="cls-12" d="M667.21,346.7l-.31-.31s.88-.88,3.27-.88,3.24.84,3.28.88l-.32.31s-.77-.74-3-.74S667.22,346.69,667.21,346.7Z" transform="translate(-578.81 -296.99)"/><rect class="cls-37" x="131.92" y="18.93" width="30.41" height="21.12" rx="3.19"/><polyline class="cls-38" points="152.84 39.57 151.98 44.02 158.76 39.57"/><path class="cls-12" d="M730.78,331.5a5.41,5.41,0,1,1,5.41-5.41A5.41,5.41,0,0,1,730.78,331.5Zm0-8.5a3.09,3.09,0,1,0,3.09,3.09A3.1,3.1,0,0,0,730.78,323Z" transform="translate(-578.81 -296.99)"/><polygon class="cls-12" points="139.19 32.69 136.87 32.69 136.87 27.95 147.72 27.95 147.72 30.27 139.19 30.27 139.19 32.69"/><rect class="cls-12" x="140.47" y="29.11" width="2.32" height="2.7"/></g></g></svg>