<svg id="Слой_1" data-name="Слой 1" xmlns="http://www.w3.org/2000/svg" xmlns:xlink="http://www.w3.org/1999/xlink" viewBox="0 0 208.01 204.99"><defs><style>.cls-1{fill:#9cb0fb;}.cls-2{fill:url(#Безымянный_градиент);}.cls-3{fill:url(#Безымянный_градиент_2);}.cls-4{fill:#e1e7fd;}.cls-5{fill:#ced9fd;}.cls-6{fill:#f0f1f1;}.cls-7{clip-path:url(#clip-path);}.cls-8{fill:#ebd681;}.cls-9{fill:#3154fa;}.cls-10{fill:#b42228;}.cls-11{fill:#cb2228;}.cls-12{fill:#d71c1e;}.cls-13{fill:#cfd1d2;}.cls-14{fill:#a5a6a9;}.cls-15{fill:#babcbe;}.cls-16{fill:#4874f6;}.cls-17{fill:#222;}.cls-18{fill:#9b7b53;}.cls-19{fill:#e5e5e6;}.cls-20{fill:#808083;}.cls-21{fill:#13174e;}.cls-22{fill:#6f88e7;}.cls-23{fill:#ead181;}</style><linearGradient id="Безымянный_градиент" x1="579.71" y1="944.6" x2="775.49" y2="944.6" gradientTransform="translate(-579.69 -848.99)" gradientUnits="userSpaceOnUse"><stop offset="0" stop-color="#2acaff"/><stop offset="1" stop-color="#2adfc3"/></linearGradient><linearGradient id="Безымянный_градиент_2" x1="599.9" y1="956.87" x2="787.72" y2="956.87" gradientTransform="translate(-579.69 -848.99)" gradientUnits="userSpaceOnUse"><stop offset="0" stop-color="#76aadb"/><stop offset="1" stop-color="#4a72b2"/></linearGradient><clipPath id="clip-path" transform="translate(-0.02 -0.62)"><path class="cls-1" d="M159.24,135.61a45.22,45.22,0,0,0-16,34.15H92.81A45,45,0,0,0,77,135.69,62.85,62.85,0,0,1,55,87c.47-32.89,27.18-60.52,60-62a63,63,0,0,1,44.17,110.67ZM143.55,174h-51v7.93h51Zm0,12.77h-51a13.83,13.83,0,0,0,13.83,13.83h23.35A13.82,13.82,0,0,0,143.55,186.77Z"/></clipPath></defs><title>page-development-4</title><path class="cls-2" d="M14.88,134.48S-26,94.48,27.83,58.56s112.1-52.15,146-47.9,25.38,86-3.89,135.65S70.31,193.23,14.88,134.48Z" transform="translate(-0.02 -0.62)"/><path class="cls-3" d="M187.11,49.35s47.07,32.57,0,77S85.38,196.61,51.22,198.13s-39.48-80.47-19-134.38S122.58.76,187.11,49.35Z" transform="translate(-0.02 -0.62)"/><path class="cls-4" d="M202,122.27q-.17-19.53.29-39.18c0-.34,0-.69,0-1,.21-11.63-.56-23.41-4-33.34A39.35,39.35,0,0,0,190,34.44c-9.32-9.93-18.87-14.54-30-13.95s-22.29.62-32.85-5c-15.5-8.29-37-5.32-52.83,4.36-13.7,8.41-23.61,25-29.83,40.76-6.61,16.76-11.56,39.39-7,58.23,2.09,8.56,7,17,14.38,20.56,6.29,3,13.59,2.31,20.46,3.25,12,1.65,22.84,8.44,32.08,17.32,14.16,13.6,24.26,37.46,42.26,44.08,6.85,2.51,14.78,2,22.62-1.4,14.81-6.47,28.63-24.45,32.45-43.91C204.05,147,202.09,133.88,202,122.27Z" transform="translate(-0.02 -0.62)"/><path class="cls-5" d="M82.42,59H77.76a31.08,31.08,0,0,0-3.52-8.48l3.3-3.3a2.79,2.79,0,0,0,0-4l-6.79-6.79a2.81,2.81,0,0,0-4,0l-3.29,3.3A31.12,31.12,0,0,0,55,36.24V31.57a2.8,2.8,0,0,0-2.8-2.8h-9.6a2.81,2.81,0,0,0-2.8,2.8v4.67a31.06,31.06,0,0,0-8.48,3.51L28,36.45a2.81,2.81,0,0,0-4,0l-6.78,6.79a2.79,2.79,0,0,0,0,4l3.29,3.3A31.06,31.06,0,0,0,17.07,59H12.41a2.81,2.81,0,0,0-2.81,2.8v9.6a2.8,2.8,0,0,0,2.81,2.8h4.66a31.12,31.12,0,0,0,3.51,8.49L17.29,86a2.79,2.79,0,0,0,0,4l6.78,6.79a2.81,2.81,0,0,0,4,0l3.3-3.3a31.08,31.08,0,0,0,8.48,3.52v4.66a2.8,2.8,0,0,0,2.8,2.8h9.6a2.8,2.8,0,0,0,2.8-2.8V96.93a31.14,31.14,0,0,0,8.49-3.52l3.29,3.3a2.81,2.81,0,0,0,4,0l6.79-6.79a2.79,2.79,0,0,0,0-4l-3.3-3.29a31.14,31.14,0,0,0,3.52-8.49h4.66a2.8,2.8,0,0,0,2.8-2.8v-9.6A2.8,2.8,0,0,0,82.42,59Zm-35,26.54A18.94,18.94,0,1,1,66.35,66.58,18.94,18.94,0,0,1,47.41,85.52Z" transform="translate(-0.02 -0.62)"/><path class="cls-4" d="M49.47,168.43H47.64a11.78,11.78,0,0,0-1.38-3.33l1.3-1.3a1.1,1.1,0,0,0,0-1.56l-2.67-2.66a1.1,1.1,0,0,0-1.56,0L42,160.87a12.59,12.59,0,0,0-3.34-1.38v-1.83a1.1,1.1,0,0,0-1.1-1.1H33.83a1.1,1.1,0,0,0-1.1,1.1v1.83a12.59,12.59,0,0,0-3.34,1.38l-1.29-1.29a1.1,1.1,0,0,0-1.56,0l-2.66,2.66a1.1,1.1,0,0,0,0,1.56l1.29,1.3a12.39,12.39,0,0,0-1.38,3.33H22a1.1,1.1,0,0,0-1.1,1.1v3.77a1.1,1.1,0,0,0,1.1,1.1h1.83a12.59,12.59,0,0,0,1.38,3.34L23.88,179a1.1,1.1,0,0,0,0,1.56l2.66,2.67a1.1,1.1,0,0,0,1.56,0l1.29-1.3a12,12,0,0,0,3.34,1.38v1.83a1.11,1.11,0,0,0,1.1,1.11H37.6a1.11,1.11,0,0,0,1.1-1.11v-1.83A12,12,0,0,0,42,182l1.29,1.3a1.1,1.1,0,0,0,1.56,0l2.67-2.67a1.1,1.1,0,0,0,0-1.56l-1.3-1.29a12,12,0,0,0,1.38-3.34h1.83a1.1,1.1,0,0,0,1.1-1.1v-3.77A1.1,1.1,0,0,0,49.47,168.43ZM35.72,178.86a7.44,7.44,0,1,1,7.44-7.44A7.44,7.44,0,0,1,35.72,178.86Z" transform="translate(-0.02 -0.62)"/><path class="cls-4" d="M31.68,149.74H30.56a7.56,7.56,0,0,0-.84-2l.79-.79a.68.68,0,0,0,0-.95l-1.63-1.62a.66.66,0,0,0-.95,0l-.79.79a7.16,7.16,0,0,0-2-.85v-1.11a.67.67,0,0,0-.67-.67h-2.3a.67.67,0,0,0-.67.67v1.11a7.28,7.28,0,0,0-2,.85l-.79-.79a.66.66,0,0,0-.95,0L16.08,146a.66.66,0,0,0,0,.95l.79.79a7.28,7.28,0,0,0-.85,2H14.91a.67.67,0,0,0-.67.67v2.3a.67.67,0,0,0,.67.67H16a7.16,7.16,0,0,0,.85,2l-.79.79a.66.66,0,0,0,0,1l1.62,1.63a.68.68,0,0,0,.95,0l.79-.79a7.56,7.56,0,0,0,2,.84V160a.67.67,0,0,0,.67.67h2.3a.67.67,0,0,0,.67-.67v-1.12a7.43,7.43,0,0,0,2-.84l.79.79a.68.68,0,0,0,.95,0l1.63-1.63a.68.68,0,0,0,0-1l-.79-.79a7.43,7.43,0,0,0,.84-2h1.12a.67.67,0,0,0,.67-.67v-2.3A.67.67,0,0,0,31.68,149.74Zm-8.39,6.36a4.54,4.54,0,1,1,4.54-4.54A4.53,4.53,0,0,1,23.29,156.1Z" transform="translate(-0.02 -0.62)"/><ellipse class="cls-6" cx="72.33" cy="194.2" rx="67.29" ry="7.87"/><path class="cls-1" d="M159.24,135.61a45.22,45.22,0,0,0-16,34.15H92.81A45,45,0,0,0,77,135.69,62.85,62.85,0,0,1,55,87c.47-32.89,27.18-60.52,60-62a63,63,0,0,1,44.17,110.67ZM143.55,174h-51v7.93h51Zm0,12.77h-51a13.83,13.83,0,0,0,13.83,13.83h23.35A13.82,13.82,0,0,0,143.55,186.77Z" transform="translate(-0.02 -0.62)"/><g class="cls-7"><path class="cls-8" d="M139.87,133.22l2.94,4.08,1.85.65c.69.25,1.6,1.34,1.35,2-1.27,3.52-5.44,13-6.5,14.39,0,0-1.41-1.18-.9-2.37s1.26-10.19,1.26-10.19L137.06,138Z" transform="translate(-0.02 -0.62)"/><path class="cls-9" d="M146.73,139.66s-1.86-2.18-3-2a5.47,5.47,0,0,1,.61,3.61c-.55,1.7-1.92,7.26-5,6-.53,1.91-1.23,5.73-.93,7.55a1.78,1.78,0,0,0,1.55-.37s2.1-2.93,2.81-4l3.53-8.68,2.52-.09.44-1Z" transform="translate(-0.02 -0.62)"/><path class="cls-9" d="M149.43,98.36s-27.93,5.13-31.57,7-.56,6.3,4.35,13,15.71,22.26,15.71,22.26l4.24-4.84L130,114.28s29.11.59,32-2.8,2.78-8,1.31-13.35Z" transform="translate(-0.02 -0.62)"/><path class="cls-9" d="M127.11,42.19c-2.76-.06-9.2,11.24,9.18,17.6C142.57,62,154.56,59.3,157,56c0,0-9.95-21.64-20.52-20.59C127.7,36.3,127.11,42.19,127.11,42.19Z" transform="translate(-0.02 -0.62)"/><path class="cls-8" d="M105.32,89.7,109.49,87l5.49.85L133.7,84l.63,5.49L115.65,90l-2,.45a2.5,2.5,0,0,1-1.72-.24l-2.5-1.35L105.76,91Z" transform="translate(-0.02 -0.62)"/><path class="cls-10" d="M139.21,60.13c-4.3.56-2.18,7-4.05,22.78L116.91,86l1,4.43s19.78-.24,22.8-.74C144,81.48,146.48,59.19,139.21,60.13Z" transform="translate(-0.02 -0.62)"/><path class="cls-8" d="M147.21,59.27c-1.92,1.79-1.61,4-4.41,3.87-4.36.61-4.23-5.13-4.23-5.13-1.68.56-4.76.83-7.22-2.86a24.51,24.51,0,0,1-4-11.53c-.27-2.28.7-3.76,4.56-4.83s6.71.09,9.87,4.2c2.58,3.37,3,11.29,3,11.29C145.51,55.73,147.21,59.27,147.21,59.27Z" transform="translate(-0.02 -0.62)"/><path class="cls-11" d="M163.31,98.13s-9.11.75-13.88.23c-1.82-14.26-4-17.57-4-17.57-4.91-.61-6.36-2.18-6.36-4.55A108.47,108.47,0,0,0,137,61.49a3.11,3.11,0,0,1,1.87-1.29,3.43,3.43,0,0,0,3.9,2.94c3.7-.44,2-4.66,2-4.66a7.72,7.72,0,0,1,6.25-.91,11,11,0,0,1,5.54,3.55c3.51,3.9,3.68,8,4.25,13.22s-.37,7.21-.08,13.56C161,92.4,163,97,163.31,98.13Z" transform="translate(-0.02 -0.62)"/><path class="cls-8" d="M120.21,96.53l2.43-4a2,2,0,0,1,1.29-.79l4.93-.77,20.59-3.47.22,5.28-19.37.31-1.82,1.16a2.44,2.44,0,0,1-1.79.31l-3-.64-2.88,3.51Z" transform="translate(-0.02 -0.62)"/><path class="cls-12" d="M148,60.75c.83-1.9,1.64-3.22,3.92-3.14,6.38.23,2,9.69,6.48,28.11.45,1.87.71,6.86-4.57,7.16s-20.4,1.94-20.4,1.94l-2.07-6.08,18.54-2.57S145.83,65.66,148,60.75Z" transform="translate(-0.02 -0.62)"/><path class="cls-13" d="M114.72,95.71H81.63L75.9,77.35a2.39,2.39,0,0,1,2.29-3.1h28.07a2.4,2.4,0,0,1,2.29,1.68Z" transform="translate(-0.02 -0.62)"/><path class="cls-14" d="M81.61,95.1h49.82a1,1,0,0,1,1,1v0a1,1,0,0,1-1,1H83.54a1.93,1.93,0,0,1-1.93-1.93v0a0,0,0,0,1,0,0Z"/><path class="cls-15" d="M81.61,95.1H114.7a0,0,0,0,1,0,0v0A1.93,1.93,0,0,1,112.78,97H83.54a1.93,1.93,0,0,1-1.93-1.93v0A0,0,0,0,1,81.61,95.1Z"/><path class="cls-6" d="M93.48,82.83a1.52,1.52,0,0,0-.21,0A2,2,0,0,1,91.71,85v0a1.8,1.8,0,1,0,1.77-2.15Z" transform="translate(-0.02 -0.62)"/><path class="cls-8" d="M129.36,146.83l.37,4.26.59,1.87c.22.7-.11,2.08-.8,2.29-3.58,1.09-13.68,3.46-15.41,3.43,0,0,.09-1.83,1.35-2.14s8.91-5.11,8.91-5.11l0-3.61Z" transform="translate(-0.02 -0.62)"/><path class="cls-9" d="M130.39,156.24s.17-3.49-.33-4.4a5.63,5.63,0,0,1-2.54,2.85c-1.7.58-7,2.82-7.85-.37-1.84.72-5.32,2.46-6.6,3.79a1.81,1.81,0,0,0,1.23,1s3.6-.08,4.92-.18l9.43-1.93,1.21,1.5,1.08-.25Z" transform="translate(-0.02 -0.62)"/><path class="cls-16" d="M163.31,98.13c2.48,5.21,7.38,17.49-5.11,18.22-14.38.85-32.29.7-32.29.7l4.23,31.49-6.76,1.28s-1.82-11-4.37-20.82-8.18-19.46-.73-22.15S163.31,98.13,163.31,98.13Z" transform="translate(-0.02 -0.62)"/><path class="cls-17" d="M126.89,170.25H79.79a3.89,3.89,0,0,1-3.57-2.76,5.27,5.27,0,0,1,.69-5l24.68-32L79.68,102a1.74,1.74,0,0,1,.09-2.17,1.15,1.15,0,0,1,1.82.1l21.75,28.24L125.09,100a1.16,1.16,0,0,1,1.83-.1A1.76,1.76,0,0,1,127,102l-21.91,28.44,24.68,32a5.25,5.25,0,0,1,.69,5A3.88,3.88,0,0,1,126.89,170.25Zm-23.55-37.52L78.82,164.57a1.77,1.77,0,0,0-.23,1.69,1.33,1.33,0,0,0,1.2.93h47.1a1.35,1.35,0,0,0,1.21-.93,1.78,1.78,0,0,0-.24-1.69Z" transform="translate(-0.02 -0.62)"/><path class="cls-18" d="M145.12,101.29H61.56a1.82,1.82,0,0,1-1.82-1.83h0a1.82,1.82,0,0,1,1.82-1.82h83.56A1.83,1.83,0,0,1,147,99.46h0A1.83,1.83,0,0,1,145.12,101.29Z" transform="translate(-0.02 -0.62)"/><polygon class="cls-17" points="169.36 164.8 147.81 164.8 152.75 118.86 154.47 119.04 149.73 163.08 167.45 163.08 162.72 119.19 164.44 119.01 169.36 164.8"/><path class="cls-17" d="M164.42,170.38H142.86l5.78-53.24h10Zm-19.64-1.72H162.5l-5.41-49.8h-6.9Z" transform="translate(-0.02 -0.62)"/><rect class="cls-18" x="141.54" y="115.63" width="27.11" height="3.72"/><polygon class="cls-18" points="169.97 119.35 167.37 119.35 169.97 105.32 172.57 105.32 169.97 119.35"/></g><path class="cls-16" d="M147.44,59.49c-7.45,2.27-6.38-5.12-6.38-5.12,2.83.63,2.06-6.15-.83-6.53-1.83-.25-1.43,2.53-1.43,2.53-6.55,4-14.65-3.1-13.9-8.16.4-2.73,1.08-4.52,4.24-6.43,3.88-2.34,7.71-1.46,11.19-.14,7.47,2.85,7.59,10.39,15.38,10.75,17.68.82,13.57,12.52,23.51,15.43,5.72,1.67,13,3.25,13.47,12.68C193.25,85.94,173.11,86.29,167,85c-7.92-1.69-9-14.92-10.61-19.9C154.4,59,152.38,58,147.44,59.49Z" transform="translate(-0.02 -0.62)"/><path class="cls-9" d="M72.11,82.09c-3.85,0-5.38,1.59-5.38,5,0,.31-.6.31-.6,0,0-3.43-1.22-5-5.37-5-.31,0-.31-.6,0-.6,4.28,0,5.37-2,5.37-5,0-.32.6-.32.6,0,0,3.6,1.46,5,5.38,5C72.42,81.49,72.42,82.09,72.11,82.09Z" transform="translate(-0.02 -0.62)"/><path class="cls-9" d="M53.5,65.64c-5.37,0-7.49,2.22-7.49,7,0,.44-.84.44-.84,0,0-4.77-1.7-7-7.49-7-.44,0-.44-.84,0-.84,6,0,7.49-2.76,7.49-7,0-.44.84-.44.84,0,0,5,2,7,7.49,7C53.93,64.8,53.93,65.64,53.5,65.64Z" transform="translate(-0.02 -0.62)"/><path class="cls-9" d="M74.7,33.39c-9.62,0-13.43,4-13.43,12.53,0,.79-1.5.79-1.5,0,0-8.56-3-12.53-13.43-12.53-.77,0-.77-1.5,0-1.5,10.71,0,13.44-5,13.44-12.52,0-.79,1.49-.79,1.49,0,0,9,3.65,12.52,13.43,12.52C75.48,31.89,75.48,33.39,74.7,33.39Z" transform="translate(-0.02 -0.62)"/><path class="cls-19" d="M68.69,197.16c0,1.35-6.11,2.44-13.65,2.44s-13.65-1.09-13.65-2.44,6.12-2.44,13.65-2.44S68.69,195.81,68.69,197.16Z" transform="translate(-0.02 -0.62)"/><path class="cls-15" d="M67.8,197.83a22.18,22.18,0,0,1-10.56,0c-.74-.19-1.43-.54-1.58-1.3l-3-15.05H72.39l-3,15.05C69.23,197.29,68.54,197.61,67.8,197.83Z" transform="translate(-0.02 -0.62)"/><ellipse class="cls-20" cx="62.54" cy="180.86" rx="9.83" ry="1.44"/><path class="cls-13" d="M72,183.54a34,34,0,0,1-6.71,4.3,4.72,4.72,0,0,0-1.85,1.27,1.45,1.45,0,0,0,.18,2c.27.18.67.3.66.62a.59.59,0,0,1-.18.37,18.27,18.27,0,0,1-2.45,1.78c-.78.65-1.28,1.9-.59,2.65a2.91,2.91,0,0,0,1.11.78c.56.21.68,1.15.9,1.15a15.48,15.48,0,0,0,4.75-.64,1.63,1.63,0,0,0,1.59-1.3Z" transform="translate(-0.02 -0.62)"/><path class="cls-16" d="M59.12,106.43a18.38,18.38,0,0,1-.07-7.64c.44-2.65,1.6-5.14,4.24-4.65s3.43,3.54,3.57,5.75c.2,3.07-.78,6-1.12,9-.51,4.57.54,9.57,1.74,14,1,3.56,2.16,6.45,3.1,10.61a21.88,21.88,0,0,1-.11,9.55C69.63,146.58,64.1,159,63,171.76c-.51-16.31-3.75-20.88-4.83-26.44a24.82,24.82,0,0,1-.72-6.9c.53-5.94,2.17-11.72,3.16-17.6S60.61,112.59,59.12,106.43Z" transform="translate(-0.02 -0.62)"/><path class="cls-21" d="M62.44,181.83h0a.33.33,0,0,1-.31-.37c2.51-29.28.5-79.5.48-80a.35.35,0,1,1,.69,0c0,.51,2,50.77-.48,80.1A.36.36,0,0,1,62.44,181.83Z" transform="translate(-0.02 -0.62)"/><path class="cls-21" d="M63.66,151.74h0a.35.35,0,0,1-.33-.36c.39-8.61,4.32-11.28,4.49-11.39a.35.35,0,1,1,.38.58h0s-3.81,2.62-4.18,10.84A.34.34,0,0,1,63.66,151.74Z" transform="translate(-0.02 -0.62)"/><path class="cls-21" d="M63.71,145.5a.34.34,0,0,1-.34-.32c-.52-8.74-3.76-10-3.8-10a.35.35,0,0,1-.21-.44.34.34,0,0,1,.43-.22c.15.05,3.72,1.31,4.27,10.6a.35.35,0,0,1-.33.36Z" transform="translate(-0.02 -0.62)"/><path class="cls-21" d="M63.68,134.76h0a.35.35,0,0,1-.31-.38c.65-6.78,2.8-8.74,2.89-8.82a.33.33,0,0,1,.48,0,.35.35,0,0,1,0,.49s-2,1.93-2.67,8.37A.33.33,0,0,1,63.68,134.76Z" transform="translate(-0.02 -0.62)"/><path class="cls-16" d="M40.91,130.47c-.76-1.88-4-9-3.5-11.41,1.41.56,5.32,6.63,6.61,9.34a88.43,88.43,0,0,0,6.7,10.72c1.68,2.3,2.63,2.91,3.89,5.49.93,1.84,2.37,9.45,2.48,12.19.22,5.11-1.11,6.13.39,15.78-3.2-12.14-10-19.37-11.1-23-1.26-4.1-1.29-5.77-2.27-10.16S43.31,136.18,40.91,130.47Z" transform="translate(-0.02 -0.62)"/><path class="cls-21" d="M58.79,182.17a.36.36,0,0,1-.35-.32c-1.71-21.76-15.9-52.07-17.22-53.75a.28.28,0,0,1-.09-.07.34.34,0,0,1,0-.48.38.38,0,0,1,.37-.07c.58.24,4.77,9.1,8.44,18.75s8.2,23.56,9.15,35.57a.34.34,0,0,1-.32.37Zm-17.17-54.1,0,0Zm0,0Z" transform="translate(-0.02 -0.62)"/><path class="cls-21" d="M54.08,159.67a.35.35,0,0,1-.33-.26c-1.61-6.19.29-9.31.6-9.51a.34.34,0,0,1,.48.11.33.33,0,0,1,0,.4c-.09.13-1.94,2.83-.38,8.82a.34.34,0,0,1-.25.42Z" transform="translate(-0.02 -0.62)"/><path class="cls-21" d="M52.69,155.11a.35.35,0,0,1-.32-.22c-2.34-5.9-4.79-6.17-5.06-6.18a.37.37,0,0,1-.34-.29l.34-.06,0-.34c.53,0,3.24.44,5.68,6.61a.34.34,0,0,1-.19.45A.31.31,0,0,1,52.69,155.11Z" transform="translate(-0.02 -0.62)"/><path class="cls-21" d="M50,147.36a.34.34,0,0,1-.33-.25c-1.3-4.94-.51-7.18-.2-7.31a.35.35,0,0,1,.45.19.39.39,0,0,1,0,.3c0,.11-.81,2,.43,6.64a.35.35,0,0,1-.25.42Z" transform="translate(-0.02 -0.62)"/><path class="cls-22" d="M80.58,145.92c1-1.14,5.4-5.11,7.37-4.92-.23,1.11-3.59,5-4.92,6.64a23.91,23.91,0,0,0-4.23,7.66c-.59,1.86-.46,2.65-1.24,4.37-.6,1.17-3.69,5.19-4.83,6.66C70.59,169,68.25,170,66,176.62c1.5-8.7,2.72-17.16,4.37-19.68,1.82-2.74,2.86-3.51,5.29-5.85S77.41,149.31,80.58,145.92Z" transform="translate(-0.02 -0.62)"/><path class="cls-21" d="M64.71,182.17h-.07a.35.35,0,0,1-.27-.41,84.07,84.07,0,0,1,9.49-24.69,66.91,66.91,0,0,1,8-11.06l.46-.54a.35.35,0,0,1,.42-.2.37.37,0,0,1,.24.23c.06.21,0,.23-.6,1a66.76,66.76,0,0,0-7.9,10.95,83.57,83.57,0,0,0-9.4,24.48A.34.34,0,0,1,64.71,182.17Z" transform="translate(-0.02 -0.62)"/><path class="cls-21" d="M69.66,166.5a.29.29,0,0,1-.16,0,.35.35,0,0,1-.16-.46c1.94-4,4.61-4.39,5.13-4.43l0,.34h.34a.35.35,0,0,1-.33.34c-.28,0-2.74.3-4.55,4A.35.35,0,0,1,69.66,166.5Z" transform="translate(-0.02 -0.62)"/><path class="cls-21" d="M71.06,163.42a.35.35,0,0,1-.14,0,.34.34,0,0,1-.18-.45c1.7-4.14.69-5.68.61-5.79a.34.34,0,0,1-.08-.38.34.34,0,0,1,.46-.18s1.77,1.47-.36,6.61A.34.34,0,0,1,71.06,163.42Z" transform="translate(-0.02 -0.62)"/><path class="cls-21" d="M73.78,158.26a.33.33,0,0,1-.21-.07.36.36,0,0,1-.07-.49c2-2.64,3.65-3,4.11-3.1l.06.34L78,155a.36.36,0,0,1-.31.28c-.28,0-1.75.35-3.65,2.84A.33.33,0,0,1,73.78,158.26Z" transform="translate(-0.02 -0.62)"/><circle class="cls-9" cx="118.98" cy="24" r="8.03"/><path class="cls-23" d="M113.56,24.15l3.31-1.4.3.93-2.42.95,2.42.94-.3.94-3.31-1.41Z" transform="translate(-0.02 -0.62)"/><path class="cls-23" d="M118.54,28.36h-1.18L120,20.9h1.16Z" transform="translate(-0.02 -0.62)"/><path class="cls-23" d="M124.91,25.1l-3.31,1.41-.3-.94,2.42-.94-2.42-.95.3-.93,3.31,1.4Z" transform="translate(-0.02 -0.62)"/><circle class="cls-9" cx="104.55" cy="9.54" r="9.54"/><path class="cls-23" d="M99.63,8.45l.14.51c0,.18.11.37.17.57l.18.6c.06.2.12.38.18.55,0-.18.09-.38.14-.6s.1-.44.14-.67.09-.46.13-.69l.12-.67h.87c-.12.63-.27,1.27-.43,1.92s-.35,1.26-.54,1.84H100c-.13-.35-.25-.71-.37-1.09s-.24-.77-.35-1.15c-.12.38-.23.76-.35,1.15s-.24.74-.36,1.09h-.78c-.19-.58-.37-1.2-.53-1.84s-.31-1.29-.44-1.92h.92c0,.22.07.44.12.67s.09.46.13.69l.15.67q.08.33.15.6l.19-.56.18-.6c0-.2.11-.39.16-.57s.09-.35.13-.5Z" transform="translate(-0.02 -0.62)"/><path class="cls-23" d="M104.91,8.45l.14.51c.06.18.11.37.17.57l.18.6c.06.2.12.38.18.55,0-.18.1-.38.14-.6s.1-.44.14-.67S106,9,106,8.72l.12-.67H107c-.13.63-.28,1.27-.44,1.92s-.35,1.26-.54,1.84h-.77c-.13-.35-.25-.71-.37-1.09s-.24-.77-.35-1.15c-.12.38-.23.76-.35,1.15s-.24.74-.36,1.09H103c-.2-.58-.38-1.2-.54-1.84s-.31-1.29-.44-1.92H103c0,.22.07.44.12.67s.09.46.13.69l.15.67q.08.33.15.6c.06-.18.13-.36.19-.56l.18-.6c0-.2.11-.39.16-.57l.13-.5Z" transform="translate(-0.02 -0.62)"/><path class="cls-23" d="M110.19,8.45l.14.51c.06.18.11.37.17.57l.18.6c.06.2.12.38.18.55q.08-.27.15-.6c0-.22.09-.44.13-.67s.09-.46.13-.69l.12-.67h.88c-.13.63-.28,1.27-.44,1.92s-.35,1.26-.54,1.84h-.77c-.13-.35-.25-.71-.37-1.09s-.23-.77-.35-1.15c-.12.38-.23.76-.35,1.15s-.23.74-.36,1.09h-.77c-.2-.58-.37-1.2-.54-1.84s-.31-1.29-.44-1.92h.92l.12.67c0,.23.09.46.13.69l.15.67q.07.33.15.6c.06-.18.13-.36.19-.56l.18-.6c.06-.2.11-.39.16-.57l.13-.5Z" transform="translate(-0.02 -0.62)"/><circle class="cls-4" cx="98.45" cy="38.28" r="5.64" transform="translate(-1.03 73.22) rotate(-40.91)"/><circle class="cls-4" cx="89.61" cy="51.52" r="2.82"/><path class="cls-4" d="M93.36,66.84a1.3,1.3,0,1,0-1.3,1.31A1.3,1.3,0,0,0,93.36,66.84Z" transform="translate(-0.02 -0.62)"/><circle class="cls-9" cx="109.85" cy="38.8" r="6.77"/><path class="cls-23" d="M106.84,37.9h.59v2.62h-.59V39.41h-1v1.11h-.59V37.9h.59v1h1Z" transform="translate(-0.02 -0.62)"/><path class="cls-23" d="M110,37.9v.5h-.79v2.12h-.59V38.4h-.79v-.5Z" transform="translate(-0.02 -0.62)"/><path class="cls-23" d="M111,37.9a2.86,2.86,0,0,1,.16.31l.18.39.2.44.17.42q.09-.2.18-.42c.07-.15.13-.29.19-.44l.19-.39a2.86,2.86,0,0,1,.16-.31H113c0,.17,0,.37.07.58s0,.44,0,.68,0,.47,0,.7,0,.46,0,.66h-.57c0-.25,0-.53,0-.83s0-.6-.06-.91c0,.11-.1.22-.15.35l-.17.39-.15.37c0,.12-.1.22-.13.3h-.42l-.12-.3c-.06-.12-.11-.24-.16-.37l-.17-.39c0-.13-.1-.24-.15-.35l-.06.91c0,.3,0,.58,0,.83h-.57q0-.3,0-.66c0-.23,0-.47,0-.7s0-.46.06-.68,0-.41.07-.58Z" transform="translate(-0.02 -0.62)"/><path class="cls-23" d="M115.47,40v.5h-1.75V37.9h.59V40Z" transform="translate(-0.02 -0.62)"/><circle class="cls-9" cx="96.65" cy="45.08" r="5.4" transform="translate(-8.1 24.38) rotate(-14.15)"/><path class="cls-23" d="M94.63,46.47a1.31,1.31,0,0,1-1-.37,1.46,1.46,0,0,1-.35-1.05,1.64,1.64,0,0,1,.11-.6,1.29,1.29,0,0,1,.29-.45,1.33,1.33,0,0,1,.44-.28,1.67,1.67,0,0,1,.55-.09,1.58,1.58,0,0,1,.32,0l.25.05.17.07.11.06-.18.49a2,2,0,0,0-.29-.11,1.52,1.52,0,0,0-.38,0,.87.87,0,0,0-.28,0,.61.61,0,0,0-.24.15.89.89,0,0,0-.17.27,1.16,1.16,0,0,0-.06.4,1.29,1.29,0,0,0,0,.35.67.67,0,0,0,.14.28.65.65,0,0,0,.24.19.8.8,0,0,0,.36.07l.24,0,.19,0,.14-.05.12,0,.16.49a1.28,1.28,0,0,1-.36.14A2.26,2.26,0,0,1,94.63,46.47Z" transform="translate(-0.02 -0.62)"/><path class="cls-23" d="M96.75,46l.21,0,.14-.06.07-.09a.36.36,0,0,0,0-.11.27.27,0,0,0-.13-.23,1.82,1.82,0,0,0-.43-.19l-.27-.1a1.43,1.43,0,0,1-.24-.16.62.62,0,0,1-.17-.22.79.79,0,0,1-.07-.32.89.89,0,0,1,.07-.34.86.86,0,0,1,.2-.26,1.07,1.07,0,0,1,.32-.16,1.31,1.31,0,0,1,.41-.06,1.65,1.65,0,0,1,.48.06,1.75,1.75,0,0,1,.33.13l-.18.48a1.45,1.45,0,0,0-.25-.1,1.06,1.06,0,0,0-.34-.05.6.6,0,0,0-.31.06.21.21,0,0,0-.1.19.2.2,0,0,0,0,.13.3.3,0,0,0,.1.09.52.52,0,0,0,.15.07.75.75,0,0,0,.18.07,3.4,3.4,0,0,1,.37.16.86.86,0,0,1,.26.18.6.6,0,0,1,.16.24,1,1,0,0,1,0,.33.71.71,0,0,1-.27.59,1.27,1.27,0,0,1-.8.21l-.33,0-.26-.05L96,46.33l-.13-.07.17-.48.3.12A1.78,1.78,0,0,0,96.75,46Z" transform="translate(-0.02 -0.62)"/><path class="cls-23" d="M99,46l.22,0,.13-.06a.18.18,0,0,0,.07-.09.2.2,0,0,0,0-.11.28.28,0,0,0-.12-.23,2,2,0,0,0-.43-.19l-.27-.1a1.43,1.43,0,0,1-.24-.16.62.62,0,0,1-.17-.22.66.66,0,0,1-.07-.32.74.74,0,0,1,.07-.34.73.73,0,0,1,.2-.26,1,1,0,0,1,.32-.16,1.31,1.31,0,0,1,.41-.06,1.68,1.68,0,0,1,.81.19l-.18.48-.25-.1a1.16,1.16,0,0,0-.34-.05.65.65,0,0,0-.32.06.22.22,0,0,0-.09.19.28.28,0,0,0,0,.13l.1.09.15.07.19.07c.14.05.26.11.37.16a1,1,0,0,1,.26.18.6.6,0,0,1,.16.24,1,1,0,0,1,0,.33.71.71,0,0,1-.27.59,1.31,1.31,0,0,1-.81.21l-.32,0-.26-.05-.19-.07a.91.91,0,0,1-.14-.07l.18-.48.3.12A1.75,1.75,0,0,0,99,46Z" transform="translate(-0.02 -0.62)"/><circle class="cls-9" cx="100.89" cy="52.58" r="4.77"/><path class="cls-23" d="M98.52,51.94a1.57,1.57,0,0,1,.83.19.7.7,0,0,1,.29.62.7.7,0,0,1-.3.63,1.48,1.48,0,0,1-.83.19h-.17v.81H97.8V52a2.2,2.2,0,0,1,.37,0Zm0,.47h-.22v.69h.17a.84.84,0,0,0,.43-.08.29.29,0,0,0,.14-.28.31.31,0,0,0,0-.17.24.24,0,0,0-.1-.1.43.43,0,0,0-.17-.06Z" transform="translate(-0.02 -0.62)"/><path class="cls-23" d="M101.49,52H102v2.41h-.54v-1h-.91v1H100V52h.54v.92h.91Z" transform="translate(-0.02 -0.62)"/><path class="cls-23" d="M103.31,51.94a1.53,1.53,0,0,1,.82.19.68.68,0,0,1,.29.62.71.71,0,0,1-.29.63,1.48,1.48,0,0,1-.83.19h-.17v.81h-.55V52a2.32,2.32,0,0,1,.38,0Zm0,.47h-.21v.69h.17a.8.8,0,0,0,.42-.08.29.29,0,0,0,.14-.28.43.43,0,0,0,0-.17.27.27,0,0,0-.11-.1.38.38,0,0,0-.16-.06Z" transform="translate(-0.02 -0.62)"/><circle class="cls-9" cx="93.08" cy="61.77" r="3.45" transform="translate(-10.17 18.48) rotate(-11.11)"/><path class="cls-23" d="M92.6,62.15a1.52,1.52,0,0,1,0,.38.81.81,0,0,1-.15.31.77.77,0,0,1-.31.21,1.35,1.35,0,0,1-.48.07,1.56,1.56,0,0,1-.46-.06,1.06,1.06,0,0,1-.32-.15l.2-.48a1.15,1.15,0,0,0,.25.12.87.87,0,0,0,.28.05.45.45,0,0,0,.33-.11.59.59,0,0,0,.09-.37V60.34h.62Z" transform="translate(-0.02 -0.62)"/><path class="cls-23" d="M93.93,62.6l.22,0a.26.26,0,0,0,.13-.06.13.13,0,0,0,.07-.09.2.2,0,0,0,0-.11.25.25,0,0,0-.12-.22,1.87,1.87,0,0,0-.44-.2l-.26-.1a1,1,0,0,1-.24-.16.62.62,0,0,1-.24-.54.74.74,0,0,1,.07-.34.63.63,0,0,1,.2-.26.76.76,0,0,1,.31-.16,1.42,1.42,0,0,1,.42-.06,1.68,1.68,0,0,1,.81.19L94.7,61l-.25-.1a1.16,1.16,0,0,0-.34-.05.65.65,0,0,0-.32.06.22.22,0,0,0-.09.19.28.28,0,0,0,0,.13l.1.09.15.07.19.07c.14.05.26.11.37.16a1,1,0,0,1,.26.18A.78.78,0,0,1,95,62a1,1,0,0,1,.05.33.7.7,0,0,1-.27.59,1.31,1.31,0,0,1-.81.21,1.57,1.57,0,0,1-.32,0l-.26-.05-.2-.07L93,62.92l.17-.49.3.12A1.84,1.84,0,0,0,93.93,62.6Z" transform="translate(-0.02 -0.62)"/><path class="cls-9" d="M98.45,69.57a2.33,2.33,0,1,0-2.32,2.33A2.32,2.32,0,0,0,98.45,69.57Z" transform="translate(-0.02 -0.62)"/><path class="cls-23" d="M95.12,69.45a.19.19,0,0,0,.17-.07.3.3,0,0,0,0-.18v-.4a.64.64,0,0,1,0-.2.31.31,0,0,1,.1-.15.38.38,0,0,1,.18-.09,1.09,1.09,0,0,1,.28,0h0v.31h-.07a.2.2,0,0,0-.16.06.31.31,0,0,0,0,.16v.35a.88.88,0,0,1,0,.24.45.45,0,0,1-.15.16.45.45,0,0,1,.15.16.88.88,0,0,1,0,.24v.35a.31.31,0,0,0,0,.16.2.2,0,0,0,.16.06H96v.31h0a1.09,1.09,0,0,1-.28,0,.38.38,0,0,1-.18-.09.31.31,0,0,1-.1-.15.64.64,0,0,1,0-.2V70a.36.36,0,0,0,0-.19.22.22,0,0,0-.17-.06Z" transform="translate(-0.02 -0.62)"/><path class="cls-23" d="M97.14,69.77a.24.24,0,0,0-.18.06.36.36,0,0,0,0,.19v.4a.64.64,0,0,1,0,.2.38.38,0,0,1-.09.15.51.51,0,0,1-.18.09,1.14,1.14,0,0,1-.28,0h-.06v-.31h.07a.18.18,0,0,0,.16-.06.24.24,0,0,0,0-.16V70a.61.61,0,0,1,0-.24.16.16,0,0,0,0-.32.61.61,0,0,1,0-.24v-.35a.24.24,0,0,0,0-.16.18.18,0,0,0-.16-.06h-.07v-.31h.06a1.14,1.14,0,0,1,.28,0,.51.51,0,0,1,.18.09.38.38,0,0,1,.09.15.64.64,0,0,1,0,.2v.4a.3.3,0,0,0,0,.18.21.21,0,0,0,.18.07Z" transform="translate(-0.02 -0.62)"/></svg>