<svg id="Слой_1" data-name="Слой 1" xmlns="http://www.w3.org/2000/svg" xmlns:xlink="http://www.w3.org/1999/xlink" viewBox="0 0 197.28 204.43"><defs><style>.cls-1{fill:#9cb0fb;}.cls-2{fill:#e1e7fd;}.cls-3{fill:#ced9fd;}.cls-4{fill:#f0f1f1;}.cls-5{clip-path:url(#clip-path);}.cls-6{fill:#ebd681;}.cls-7{fill:#3154fa;}.cls-8{fill:#b42228;}.cls-9{fill:#cb2228;}.cls-10{fill:#d71c1e;}.cls-11{fill:#cfd1d2;}.cls-12{fill:#a5a6a9;}.cls-13{fill:#babcbe;}.cls-14{fill:#4874f6;}.cls-15{fill:#222;}.cls-16{fill:#9b7b53;}.cls-17{fill:#e5e5e6;}.cls-18{fill:#808083;}.cls-19{fill:#13174e;}.cls-20{fill:#6f88e7;}.cls-21{fill:#ead181;}</style><clipPath id="clip-path" transform="translate(-4.95 -0.66)"><path class="cls-1" d="M158.72,135.29a45.08,45.08,0,0,0-15.9,34.06H92.48a44.86,44.86,0,0,0-15.81-34A62.65,62.65,0,0,1,54.79,86.8c.47-32.81,27.1-60.36,59.88-61.87a62.84,62.84,0,0,1,44.05,110.36Zm-15.64,38.29H92.22v7.9h50.86Zm0,12.73H92.22A13.78,13.78,0,0,0,106,200.1h23.3A13.78,13.78,0,0,0,143.08,186.31Z"/></clipPath></defs><title>page-develoment-3</title><path class="cls-2" d="M201.36,122q-.15-19.48.29-39.07l0-1c.2-11.61-.56-23.35-4-33.25a39.33,39.33,0,0,0-8.28-14.24c-9.29-9.89-18.82-14.49-29.94-13.91s-22.23.62-32.76-5C111.25,7.2,89.76,10.17,74,19.82,60.35,28.2,50.46,44.75,44.26,60.47c-6.59,16.71-11.52,39.27-6.94,58.07,2.07,8.53,7,17,14.34,20.5,6.27,3,13.55,2.3,20.4,3.24,12,1.65,22.78,8.42,32,17.27,14.12,13.57,24.19,37.37,42.14,44,6.82,2.51,14.74,2,22.55-1.39,14.78-6.46,28.56-24.39,32.37-43.79C203.41,146.63,201.45,133.57,201.36,122Z" transform="translate(-4.95 -0.66)"/><path class="cls-3" d="M82.11,58.87H77.47A31.24,31.24,0,0,0,74,50.41l3.29-3.29a2.79,2.79,0,0,0,0-3.95l-6.77-6.76a2.78,2.78,0,0,0-4,0l-3.29,3.28a30.91,30.91,0,0,0-8.46-3.5V31.54A2.79,2.79,0,0,0,52,28.75H42.42a2.79,2.79,0,0,0-2.8,2.79v4.65a30.91,30.91,0,0,0-8.46,3.5l-3.29-3.28a2.78,2.78,0,0,0-3.95,0l-6.77,6.76a2.79,2.79,0,0,0,0,3.95l3.29,3.29a30.91,30.91,0,0,0-3.5,8.46H12.29a2.79,2.79,0,0,0-2.79,2.8v9.57A2.79,2.79,0,0,0,12.29,74h4.65a30.91,30.91,0,0,0,3.5,8.46l-3.29,3.29a2.79,2.79,0,0,0,0,4l6.77,6.77a2.79,2.79,0,0,0,3.95,0l3.29-3.29a31.24,31.24,0,0,0,8.46,3.51v4.64a2.8,2.8,0,0,0,2.8,2.8H52a2.79,2.79,0,0,0,2.79-2.8V96.72a31.24,31.24,0,0,0,8.46-3.51l3.29,3.29a2.79,2.79,0,0,0,4,0l6.77-6.77a2.79,2.79,0,0,0,0-4L74,82.49A31.24,31.24,0,0,0,77.47,74h4.64a2.79,2.79,0,0,0,2.8-2.79V61.67A2.8,2.8,0,0,0,82.11,58.87ZM47.2,85.33A18.88,18.88,0,1,1,66.08,66.45,18.88,18.88,0,0,1,47.2,85.33Z" transform="translate(-4.95 -0.66)"/><path class="cls-2" d="M49.26,168H47.43a12.32,12.32,0,0,0-1.38-3.32l1.29-1.3a1.09,1.09,0,0,0,0-1.55l-2.66-2.66a1.09,1.09,0,0,0-1.55,0l-1.29,1.29a12.05,12.05,0,0,0-3.33-1.37v-1.83a1.09,1.09,0,0,0-1.09-1.1H33.65a1.09,1.09,0,0,0-1.09,1.1v1.83a12.05,12.05,0,0,0-3.33,1.37l-1.29-1.29a1.09,1.09,0,0,0-1.55,0l-2.66,2.66a1.09,1.09,0,0,0,0,1.55L25,164.7A12.32,12.32,0,0,0,23.64,168H21.81a1.09,1.09,0,0,0-1.09,1.1v3.76a1.09,1.09,0,0,0,1.09,1.1h1.83A12.46,12.46,0,0,0,25,177.3l-1.29,1.29a1.1,1.1,0,0,0,0,1.56l2.66,2.66a1.09,1.09,0,0,0,1.55,0l1.29-1.29a12.05,12.05,0,0,0,3.33,1.37v1.83a1.09,1.09,0,0,0,1.09,1.1h3.77a1.09,1.09,0,0,0,1.09-1.1v-1.83a12.05,12.05,0,0,0,3.33-1.37l1.29,1.29a1.09,1.09,0,0,0,1.55,0l2.66-2.66a1.1,1.1,0,0,0,0-1.56l-1.29-1.29A12.46,12.46,0,0,0,47.43,174h1.83a1.09,1.09,0,0,0,1.09-1.1v-3.76A1.09,1.09,0,0,0,49.26,168Zm-13.72,10.4A7.42,7.42,0,1,1,43,171,7.42,7.42,0,0,1,35.54,178.42Z" transform="translate(-4.95 -0.66)"/><path class="cls-2" d="M31.51,149.38H30.39a7.48,7.48,0,0,0-.83-2l.78-.79a.68.68,0,0,0,0-.95L28.72,144a.66.66,0,0,0-.94,0l-.79.79a7.56,7.56,0,0,0-2-.84v-1.11a.67.67,0,0,0-.67-.67H22a.67.67,0,0,0-.67.67V144a7.7,7.7,0,0,0-2,.84l-.78-.79a.68.68,0,0,0-.95,0L16,145.62a.68.68,0,0,0,0,.95l.79.79a7.19,7.19,0,0,0-.84,2H14.78a.67.67,0,0,0-.67.67v2.3a.67.67,0,0,0,.67.66H15.9a7.13,7.13,0,0,0,.84,2l-.79.79a.66.66,0,0,0,0,.94l1.62,1.63a.68.68,0,0,0,.95,0l.78-.79a7.7,7.7,0,0,0,2,.84v1.11a.67.67,0,0,0,.67.67h2.29a.67.67,0,0,0,.67-.67v-1.11a7.56,7.56,0,0,0,2-.84l.79.79a.66.66,0,0,0,.94,0l1.62-1.63a.66.66,0,0,0,0-.94l-.78-.79a7.41,7.41,0,0,0,.83-2h1.12a.67.67,0,0,0,.67-.66v-2.3A.67.67,0,0,0,31.51,149.38Zm-8.36,6.34a4.52,4.52,0,1,1,4.52-4.52A4.52,4.52,0,0,1,23.15,155.72Z" transform="translate(-4.95 -0.66)"/><ellipse class="cls-4" cx="67.11" cy="193.67" rx="67.11" ry="7.84"/><path class="cls-1" d="M158.72,135.29a45.08,45.08,0,0,0-15.9,34.06H92.48a44.86,44.86,0,0,0-15.81-34A62.65,62.65,0,0,1,54.79,86.8c.47-32.81,27.1-60.36,59.88-61.87a62.84,62.84,0,0,1,44.05,110.36Zm-15.64,38.29H92.22v7.9h50.86Zm0,12.73H92.22A13.78,13.78,0,0,0,106,200.1h23.3A13.78,13.78,0,0,0,143.08,186.31Z" transform="translate(-4.95 -0.66)"/><g class="cls-5"><path class="cls-6" d="M139.41,132.9l2.93,4.08,1.85.65c.68.24,1.59,1.33,1.34,2-1.27,3.5-5.43,13-6.49,14.35,0,0-1.4-1.17-.89-2.37s1.25-10.16,1.25-10.16l-2.79-3.76Z" transform="translate(-4.95 -0.66)"/><path class="cls-7" d="M146.25,139.33s-1.86-2.18-3-2a5.48,5.48,0,0,1,.61,3.59c-.56,1.7-1.93,7.25-5,6-.52,1.9-1.22,5.71-.92,7.53a1.78,1.78,0,0,0,1.55-.37s2.09-2.92,2.8-4l3.52-8.66,2.51-.09.44-1Z" transform="translate(-4.95 -0.66)"/><path class="cls-7" d="M148.94,98.14s-27.86,5.11-31.49,7-.56,6.29,4.34,13,15.67,22.2,15.67,22.2l4.23-4.83L129.6,114s29,.59,31.88-2.79,2.76-7.93,1.3-13.32Z" transform="translate(-4.95 -0.66)"/><path class="cls-7" d="M126.68,42.13c-2.75-.07-9.18,11.21,9.15,17.55,6.26,2.17,18.23-.5,20.7-3.77,0,0-9.93-21.59-20.47-20.54C127.27,36.25,126.68,42.13,126.68,42.13Z" transform="translate(-4.95 -0.66)"/><path class="cls-6" d="M105,89.5l4.16-2.67,5.47.85,18.67-3.87.63,5.47-18.63.55-2,.45a2.42,2.42,0,0,1-1.71-.24l-2.49-1.35-3.67,2.11Z" transform="translate(-4.95 -0.66)"/><path class="cls-8" d="M138.75,60c-4.3.55-2.18,6.94-4,22.72l-18.2,3.05,1,4.43s19.72-.24,22.73-.74C143.53,81.31,146,59.08,138.75,60Z" transform="translate(-4.95 -0.66)"/><path class="cls-6" d="M146.73,59.15c-1.92,1.79-1.61,4-4.4,3.87-4.35.61-4.22-5.12-4.22-5.12-1.67.56-4.75.83-7.2-2.85a24.39,24.39,0,0,1-4-11.5c-.27-2.27.7-3.75,4.54-4.81s6.7.09,9.85,4.18c2.57,3.37,3,11.26,3,11.26C145,55.63,146.73,59.15,146.73,59.15Z" transform="translate(-4.95 -0.66)"/><path class="cls-9" d="M162.78,97.91s-9.08.75-13.84.23C147.12,83.92,145,80.62,145,80.62c-4.9-.61-6.34-2.18-6.34-4.53a107.69,107.69,0,0,0-2.09-14.71,3.06,3.06,0,0,1,1.87-1.29A3.41,3.41,0,0,0,142.33,63c3.69-.44,2-4.65,2-4.65a7.71,7.71,0,0,1,6.23-.9A10.86,10.86,0,0,1,156.11,61c3.5,3.89,3.66,8,4.24,13.19s-.37,7.18-.08,13.52C160.47,92.19,162.49,96.8,162.78,97.91Z" transform="translate(-4.95 -0.66)"/><path class="cls-6" d="M119.8,96.32l2.42-4a2,2,0,0,1,1.29-.78l4.92-.76L149,87.32l.22,5.27-19.32.31L128,94.05a2.41,2.41,0,0,1-1.78.31l-3-.64-2.88,3.5Z" transform="translate(-4.95 -0.66)"/><path class="cls-10" d="M147.5,60.63c.83-1.89,1.64-3.21,3.91-3.12,6.36.22,2,9.66,6.46,28,.46,1.86.71,6.84-4.56,7.14S133,94.61,133,94.61l-2.06-6.06L149.4,86S145.35,65.53,147.5,60.63Z" transform="translate(-4.95 -0.66)"/><path class="cls-11" d="M114.32,95.5h-33L75.61,77.19a2.39,2.39,0,0,1,2.28-3.1h28a2.39,2.39,0,0,1,2.28,1.68Z" transform="translate(-4.95 -0.66)"/><path class="cls-12" d="M76.37,94.84h49.91a.73.73,0,0,1,.73.73V96a.73.73,0,0,1-.73.73H77.82a1.45,1.45,0,0,1-1.45-1.45v-.47A0,0,0,0,1,76.37,94.84Z"/><path class="cls-13" d="M76.37,94.84h33a0,0,0,0,1,0,0v.47a1.45,1.45,0,0,1-1.45,1.45H77.82a1.45,1.45,0,0,1-1.45-1.45v-.47a0,0,0,0,1,0,0Z"/><path class="cls-4" d="M93.14,82.66l-.21,0a2,2,0,0,1-1.56,2.09v0a1.8,1.8,0,1,0,1.77-2.14Z" transform="translate(-4.95 -0.66)"/><path class="cls-6" d="M128.92,146.48l.37,4.25.59,1.86c.22.7-.1,2.08-.8,2.29-3.57,1.08-13.64,3.44-15.37,3.42,0,0,.09-1.83,1.35-2.13s8.89-5.1,8.89-5.1l0-3.6Z" transform="translate(-4.95 -0.66)"/><path class="cls-7" d="M130,155.86s.17-3.47-.32-4.38a5.62,5.62,0,0,1-2.55,2.84c-1.69.58-6.94,2.81-7.82-.37-1.84.72-5.3,2.45-6.58,3.78a1.78,1.78,0,0,0,1.23,1s3.59-.07,4.9-.18l9.41-1.92,1.2,1.5,1.08-.25Z" transform="translate(-4.95 -0.66)"/><path class="cls-14" d="M162.78,97.91c2.48,5.2,7.36,17.44-5.09,18.18-14.34.84-32.21.69-32.21.69l4.22,31.4L123,149.46s-1.82-11-4.35-20.76-8.17-19.41-.73-22.09S162.78,97.91,162.78,97.91Z" transform="translate(-4.95 -0.66)"/><path class="cls-15" d="M126.46,169.84h-47a3.9,3.9,0,0,1-3.56-2.75,5.25,5.25,0,0,1,.69-5l24.61-32L79.38,101.79a1.73,1.73,0,0,1,.09-2.16,1.15,1.15,0,0,1,1.82.1L103,127.89l21.69-28.16a1.15,1.15,0,0,1,1.82-.1,1.74,1.74,0,0,1,.08,2.16l-21.85,28.37,24.61,32a5.22,5.22,0,0,1,.69,5A3.89,3.89,0,0,1,126.46,169.84ZM103,132.42,78.52,164.17a1.78,1.78,0,0,0-.23,1.68,1.33,1.33,0,0,0,1.2.93h47a1.32,1.32,0,0,0,1.2-.93,1.75,1.75,0,0,0-.23-1.68Z" transform="translate(-4.95 -0.66)"/><path class="cls-16" d="M144.64,101.06H61.31a1.82,1.82,0,0,1-1.82-1.82h0a1.83,1.83,0,0,1,1.82-1.82h83.33a1.82,1.82,0,0,1,1.82,1.82h0A1.81,1.81,0,0,1,144.64,101.06Z" transform="translate(-4.95 -0.66)"/><polygon class="cls-15" points="163.88 164.35 142.39 164.35 147.32 118.53 149.03 118.72 144.3 162.63 161.97 162.63 157.26 118.86 158.97 118.68 163.88 164.35"/><path class="cls-15" d="M163.88,170H142.39l5.77-53.1h10Zm-19.58-1.72H162l-5.4-49.66H149.7Z" transform="translate(-4.95 -0.66)"/><rect class="cls-16" x="136.14" y="115.31" width="27.04" height="3.71"/><polygon class="cls-16" points="164.49 119.02 161.9 119.02 164.49 105.03 167.08 105.03 164.49 119.02"/></g><path class="cls-14" d="M147,59.38c-7.44,2.26-6.36-5.1-6.36-5.1,2.82.62,2.05-6.14-.83-6.52-1.84-.25-1.43,2.53-1.43,2.53-6.54,4-14.61-3.1-13.86-8.14a7.62,7.62,0,0,1,4.22-6.41c3.87-2.34,7.69-1.46,11.16-.14,7.45,2.83,7.58,10.36,15.35,10.72,17.62.81,13.52,12.48,23.44,15.38,5.7,1.67,13,3.24,13.43,12.65.56,11.41-19.53,11.76-25.59,10.46-7.9-1.68-9-14.87-10.58-19.84C153.89,58.85,151.88,57.88,147,59.38Z" transform="translate(-4.95 -0.66)"/><path class="cls-7" d="M71.83,81.92c-3.84,0-5.36,1.58-5.36,5,0,.31-.6.31-.6,0,0-3.42-1.22-5-5.36-5-.31,0-.31-.6,0-.6,4.27,0,5.36-2,5.36-5,0-.31.6-.31.6,0,0,3.6,1.45,5,5.36,5C72.14,81.32,72.14,81.92,71.83,81.92Z" transform="translate(-4.95 -0.66)"/><path class="cls-7" d="M53.27,65.51c-5.35,0-7.47,2.21-7.47,7,0,.44-.84.44-.84,0,0-4.76-1.69-7-7.47-7-.43,0-.43-.83,0-.83,6,0,7.48-2.76,7.48-7,0-.44.83-.44.83,0,0,5,2,7,7.47,7C53.7,64.68,53.7,65.51,53.27,65.51Z" transform="translate(-4.95 -0.66)"/><path class="cls-7" d="M74.42,33.34c-9.6,0-13.4,4-13.4,12.51,0,.78-1.49.78-1.49,0,0-8.54-3-12.51-13.4-12.51-.77,0-.77-1.49,0-1.49,10.68,0,13.4-5,13.4-12.49,0-.78,1.49-.78,1.49,0,0,9,3.64,12.49,13.4,12.49C75.19,31.85,75.19,33.34,74.42,33.34Z" transform="translate(-4.95 -0.66)"/><path class="cls-17" d="M68.42,196.67c0,1.35-6.09,2.44-13.61,2.44S41.2,198,41.2,196.67s6.09-2.43,13.61-2.43S68.42,195.33,68.42,196.67Z" transform="translate(-4.95 -0.66)"/><path class="cls-13" d="M67.53,197.34a22,22,0,0,1-10.52,0c-.75-.19-1.44-.54-1.59-1.29l-3-15H72.11l-3,15C69,196.8,68.27,197.12,67.53,197.34Z" transform="translate(-4.95 -0.66)"/><ellipse class="cls-18" cx="57.35" cy="180.37" rx="9.81" ry="1.44"/><path class="cls-11" d="M71.7,183.09A33.84,33.84,0,0,1,65,187.38a4.49,4.49,0,0,0-1.84,1.26,1.45,1.45,0,0,0,.17,2c.27.18.67.3.67.62a.58.58,0,0,1-.19.37,19.74,19.74,0,0,1-2.44,1.77c-.78.65-1.28,1.9-.59,2.64a2.8,2.8,0,0,0,1.11.78c.55.21.68,1.15.89,1.15a15.37,15.37,0,0,0,4.74-.64,1.61,1.61,0,0,0,1.58-1.29Z" transform="translate(-4.95 -0.66)"/><path class="cls-14" d="M58.87,106.19a18.28,18.28,0,0,1-.06-7.62c.43-2.64,1.6-5.12,4.22-4.63s3.42,3.52,3.57,5.73c.2,3.06-.79,6-1.12,9-.51,4.56.54,9.55,1.73,14,1,3.55,2.16,6.42,3.09,10.57a21.77,21.77,0,0,1-.1,9.53c-.85,3.47-6.36,15.87-7.43,28.59C62.27,155.08,59,150.52,58,145a24.68,24.68,0,0,1-.72-6.88c.52-5.93,2.17-11.69,3.15-17.55S60.36,112.33,58.87,106.19Z" transform="translate(-4.95 -0.66)"/><path class="cls-19" d="M62.19,181.38h0a.35.35,0,0,1-.32-.37c2.51-29.21.51-79.29.49-79.79a.34.34,0,0,1,.33-.36.35.35,0,0,1,.36.33c0,.5,2,50.63-.49,79.87A.35.35,0,0,1,62.19,181.38Z" transform="translate(-4.95 -0.66)"/><path class="cls-19" d="M63.4,151.38h0a.35.35,0,0,1-.33-.36c.38-8.59,4.3-11.25,4.47-11.36a.34.34,0,0,1,.48.1.35.35,0,0,1-.1.48h0s-3.79,2.61-4.16,10.81A.35.35,0,0,1,63.4,151.38Z" transform="translate(-4.95 -0.66)"/><path class="cls-19" d="M63.45,145.16a.35.35,0,0,1-.34-.33c-.51-8.72-3.75-9.94-3.78-10a.35.35,0,0,1-.22-.44.33.33,0,0,1,.43-.21c.15,0,3.71,1.3,4.26,10.56a.34.34,0,0,1-.32.36Z" transform="translate(-4.95 -0.66)"/><path class="cls-19" d="M63.42,134.44h0a.34.34,0,0,1-.31-.37c.65-6.76,2.79-8.72,2.88-8.8a.34.34,0,1,1,.46.51s-2,1.93-2.65,8.35A.35.35,0,0,1,63.42,134.44Z" transform="translate(-4.95 -0.66)"/><path class="cls-14" d="M40.71,130.17c-.76-1.88-4-9-3.49-11.39,1.41.56,5.31,6.61,6.6,9.32a87.58,87.58,0,0,0,6.68,10.7c1.67,2.29,2.63,2.89,3.88,5.47.92,1.83,2.36,9.42,2.47,12.15.22,5.1-1.1,6.11.39,15.74-3.19-12.11-10-19.32-11.06-22.91-1.26-4.09-1.3-5.75-2.27-10.13S43.11,135.86,40.71,130.17Z" transform="translate(-4.95 -0.66)"/><path class="cls-19" d="M58.54,181.73a.35.35,0,0,1-.34-.32C56.49,159.71,42.34,129.48,41,127.8a.18.18,0,0,1-.08-.07.34.34,0,0,1,0-.48.36.36,0,0,1,.37-.06c.58.23,4.76,9.07,8.42,18.69s8.18,23.49,9.13,35.47a.35.35,0,0,1-.32.37Zm-17.12-54-.05,0Zm0,0Z" transform="translate(-4.95 -0.66)"/><path class="cls-19" d="M53.85,159.28a.34.34,0,0,1-.33-.26c-1.6-6.17.29-9.28.6-9.48a.34.34,0,0,1,.45.51c-.09.13-1.94,2.82-.38,8.8a.36.36,0,0,1-.25.42Z" transform="translate(-4.95 -0.66)"/><path class="cls-19" d="M52.47,154.73a.36.36,0,0,1-.33-.21c-2.33-5.88-4.77-6.15-5-6.17a.34.34,0,0,1-.34-.28l.34-.06,0-.35c.52,0,3.23.45,5.67,6.6a.35.35,0,0,1-.2.45A.25.25,0,0,1,52.47,154.73Z" transform="translate(-4.95 -0.66)"/><path class="cls-19" d="M49.78,147a.34.34,0,0,1-.33-.26c-1.3-4.92-.51-7.15-.19-7.28a.36.36,0,0,1,.45.19.35.35,0,0,1,0,.3c0,.11-.8,2,.43,6.62a.36.36,0,0,1-.25.42Z" transform="translate(-4.95 -0.66)"/><path class="cls-20" d="M80.27,145.57c1-1.13,5.4-5.09,7.36-4.9-.23,1.11-3.58,5-4.91,6.62a23.9,23.9,0,0,0-4.22,7.64c-.59,1.85-.46,2.64-1.24,4.35a81.24,81.24,0,0,1-4.81,6.64c-2.13,2.66-4.47,3.63-6.73,10.27,1.51-8.67,2.72-17.12,4.37-19.63,1.81-2.73,2.85-3.5,5.27-5.84S77.12,149,80.27,145.57Z" transform="translate(-4.95 -0.66)"/><path class="cls-19" d="M64.45,181.73h-.07a.34.34,0,0,1-.27-.41,84,84,0,0,1,9.46-24.62,67.58,67.58,0,0,1,8-11c.2-.23.4-.44.46-.53a.35.35,0,0,1,.42-.21.36.36,0,0,1,.24.24c.06.21,0,.22-.6,1A65.73,65.73,0,0,0,74.17,157a82.83,82.83,0,0,0-9.38,24.41A.35.35,0,0,1,64.45,181.73Z" transform="translate(-4.95 -0.66)"/><path class="cls-19" d="M69.38,166.09a.4.4,0,0,1-.15,0,.35.35,0,0,1-.16-.46c1.94-4,4.6-4.38,5.11-4.42l0,.34h.34a.36.36,0,0,1-.33.34c-.27,0-2.73.3-4.54,4A.34.34,0,0,1,69.38,166.09Z" transform="translate(-4.95 -0.66)"/><path class="cls-19" d="M70.78,163a.28.28,0,0,1-.13,0,.34.34,0,0,1-.19-.45c1.7-4.12.69-5.66.61-5.76a.35.35,0,0,1-.08-.39.34.34,0,0,1,.46-.18s1.76,1.47-.35,6.6A.36.36,0,0,1,70.78,163Z" transform="translate(-4.95 -0.66)"/><path class="cls-19" d="M73.49,157.88a.37.37,0,0,1-.2-.07.34.34,0,0,1-.07-.49c2-2.64,3.64-3,4.09-3.1l.07.34.34.07a.37.37,0,0,1-.31.28c-.28,0-1.75.34-3.64,2.83A.35.35,0,0,1,73.49,157.88Z" transform="translate(-4.95 -0.66)"/><circle class="cls-7" cx="113.64" cy="23.94" r="8"/><path class="cls-21" d="M113.16,24.14l3.31-1.4.3.93-2.42.94,2.42.94-.3.93-3.31-1.39Z" transform="translate(-4.95 -0.66)"/><path class="cls-21" d="M118.13,28.34H117l2.59-7.44h1.16Z" transform="translate(-4.95 -0.66)"/><path class="cls-21" d="M124.49,25.09l-3.31,1.39-.3-.93,2.41-.94-2.41-.94.3-.93,3.31,1.4Z" transform="translate(-4.95 -0.66)"/><circle class="cls-7" cx="99.24" cy="9.51" r="9.51"/><path class="cls-21" d="M99.27,8.48c0,.15.09.32.15.5s.1.38.16.58l.18.59c.07.2.12.38.18.55q.07-.27.15-.6c0-.21.09-.44.13-.67s.09-.46.13-.69l.12-.66h.87c-.12.63-.27,1.26-.43,1.91s-.35,1.26-.54,1.84H99.6c-.13-.35-.25-.71-.37-1.09S99,10,98.88,9.59c-.11.39-.23.77-.34,1.15s-.24.74-.36,1.09h-.77c-.2-.58-.38-1.2-.54-1.84s-.31-1.28-.44-1.91h.92q0,.31.12.66c0,.23.08.46.13.69s.1.46.15.67.09.42.14.6c.07-.17.13-.36.19-.56s.13-.4.18-.59.11-.39.16-.58l.14-.49Z" transform="translate(-4.95 -0.66)"/><path class="cls-21" d="M104.54,8.48l.14.5c.06.19.11.38.17.58l.18.59c.06.2.12.38.18.55.05-.18.09-.38.14-.6s.1-.44.14-.67.09-.46.13-.69.08-.45.12-.66h.87c-.13.63-.27,1.26-.44,1.91s-.34,1.26-.53,1.84h-.77c-.13-.35-.25-.71-.37-1.09s-.23-.76-.35-1.15c-.12.39-.23.77-.35,1.15s-.23.74-.36,1.09h-.77c-.19-.58-.37-1.2-.53-1.84s-.31-1.28-.44-1.91h.91q.06.31.12.66c0,.23.09.46.14.69s.09.46.14.67.1.42.15.6c.07-.17.13-.36.19-.56l.18-.59c.06-.2.11-.39.16-.58l.13-.49Z" transform="translate(-4.95 -0.66)"/><path class="cls-21" d="M109.81,8.48,110,9c0,.19.11.38.17.58l.18.59c.06.2.12.38.18.55l.14-.6c0-.21.09-.44.14-.67s.08-.46.13-.69.08-.45.11-.66h.88c-.13.63-.27,1.26-.44,1.91s-.34,1.26-.53,1.84h-.78c-.12-.35-.24-.71-.36-1.09s-.24-.76-.35-1.15c-.12.39-.23.77-.35,1.15s-.23.74-.36,1.09h-.77c-.19-.58-.37-1.2-.54-1.84s-.31-1.28-.43-1.91h.91q.06.31.12.66c0,.23.09.46.14.69s.09.46.14.67.1.42.15.6c.06-.17.13-.36.19-.56l.18-.59c0-.2.11-.39.16-.58l.13-.49Z" transform="translate(-4.95 -0.66)"/><circle class="cls-2" cx="98.1" cy="38.23" r="5.62" transform="translate(-6.02 72.92) rotate(-40.91)"/><circle class="cls-2" cx="84.34" cy="51.37" r="2.81"/><path class="cls-2" d="M93,66.71A1.3,1.3,0,1,0,91.73,68,1.3,1.3,0,0,0,93,66.71Z" transform="translate(-4.95 -0.66)"/><circle class="cls-7" cx="104.53" cy="38.69" r="6.75"/><path class="cls-21" d="M106.46,37.85h.59v2.61h-.59V39.35h-1v1.11h-.58V37.85h.58v1h1Z" transform="translate(-4.95 -0.66)"/><path class="cls-21" d="M109.6,37.85v.5h-.79v2.11h-.59V38.35h-.79v-.5Z" transform="translate(-4.95 -0.66)"/><path class="cls-21" d="M110.63,37.85c.05.08.1.18.16.3l.19.4c.06.14.12.29.19.44l.18.42c.05-.14.11-.28.17-.42s.13-.3.2-.44l.18-.4c.06-.12.11-.22.16-.3h.53c0,.17,0,.36.07.58s0,.44.06.67,0,.47,0,.7,0,.46,0,.66h-.57c0-.25,0-.53,0-.83s0-.6-.06-.9c0,.1-.09.22-.15.35l-.17.38-.15.37c0,.12-.1.22-.13.3h-.41c0-.08-.08-.18-.13-.3l-.16-.37c0-.13-.11-.25-.16-.38l-.16-.35c0,.3,0,.6,0,.9s0,.58,0,.83h-.58c0-.2,0-.42,0-.66s0-.47,0-.7,0-.46.06-.67,0-.41.07-.58Z" transform="translate(-4.95 -0.66)"/><path class="cls-21" d="M115.08,40v.5h-1.75V37.85h.59V40Z" transform="translate(-4.95 -0.66)"/><circle class="cls-7" cx="96.31" cy="45.01" r="5.39" transform="translate(-13.03 24.24) rotate(-14.15)"/><path class="cls-21" d="M94.29,46.39a1.34,1.34,0,0,1-1-.36A1.49,1.49,0,0,1,92.94,45a1.64,1.64,0,0,1,.1-.6,1.29,1.29,0,0,1,.29-.45,1.16,1.16,0,0,1,.44-.27,1.42,1.42,0,0,1,.55-.1,1.58,1.58,0,0,1,.32,0,.84.84,0,0,1,.24.06l.18.06.1.06-.17.49a2.09,2.09,0,0,0-.3-.11,1.38,1.38,0,0,0-.37,0,.87.87,0,0,0-.28,0,.61.61,0,0,0-.24.15.89.89,0,0,0-.17.27,1.16,1.16,0,0,0-.06.4,2,2,0,0,0,0,.35.67.67,0,0,0,.14.28.65.65,0,0,0,.24.19,1,1,0,0,0,.36.06h.24l.18,0,.15,0,.11,0,.17.49a1.59,1.59,0,0,1-.36.14A2.26,2.26,0,0,1,94.29,46.39Z" transform="translate(-4.95 -0.66)"/><path class="cls-21" d="M96.4,45.87a.62.62,0,0,0,.21,0,.3.3,0,0,0,.14-.06.18.18,0,0,0,.07-.08.5.5,0,0,0,0-.12.25.25,0,0,0-.13-.22,1.64,1.64,0,0,0-.43-.19L96,45.07a1,1,0,0,1-.24-.15,1,1,0,0,1-.18-.22.79.79,0,0,1-.06-.32.74.74,0,0,1,.07-.34.73.73,0,0,1,.2-.26.91.91,0,0,1,.31-.16,1.33,1.33,0,0,1,.42-.06,1.63,1.63,0,0,1,.47.06,1.75,1.75,0,0,1,.33.13l-.18.48a1.45,1.45,0,0,0-.25-.1,1,1,0,0,0-.33-.05.65.65,0,0,0-.32.06.22.22,0,0,0-.09.19.28.28,0,0,0,0,.13.45.45,0,0,0,.1.09l.15.07.19.07a2,2,0,0,1,.36.16,1.06,1.06,0,0,1,.26.17.63.63,0,0,1,.16.24,1.11,1.11,0,0,1,0,.34.71.71,0,0,1-.27.59,1.32,1.32,0,0,1-.8.2,1.72,1.72,0,0,1-.33,0l-.25,0a.69.69,0,0,1-.19-.07l-.14-.06.17-.49a1,1,0,0,0,.3.12A1.44,1.44,0,0,0,96.4,45.87Z" transform="translate(-4.95 -0.66)"/><path class="cls-21" d="M98.68,45.87a.62.62,0,0,0,.21,0,.26.26,0,0,0,.14-.06.18.18,0,0,0,.07-.08.5.5,0,0,0,0-.12.25.25,0,0,0-.13-.22,1.64,1.64,0,0,0-.43-.19l-.26-.11a1,1,0,0,1-.24-.15.72.72,0,0,1-.17-.22.66.66,0,0,1-.07-.32.74.74,0,0,1,.07-.34.73.73,0,0,1,.2-.26,1,1,0,0,1,.31-.16,1.33,1.33,0,0,1,.42-.06,1.63,1.63,0,0,1,.47.06,1.51,1.51,0,0,1,.33.13l-.18.48a1.45,1.45,0,0,0-.25-.1,1,1,0,0,0-.33-.05.65.65,0,0,0-.32.06.22.22,0,0,0-.09.19.28.28,0,0,0,0,.13.45.45,0,0,0,.1.09l.15.07.19.07a2,2,0,0,1,.36.16.9.9,0,0,1,.26.17.63.63,0,0,1,.16.24,1.11,1.11,0,0,1,0,.34.71.71,0,0,1-.27.59,1.32,1.32,0,0,1-.8.2,1.57,1.57,0,0,1-.32,0l-.26,0a.69.69,0,0,1-.19-.07l-.14-.06.17-.49a1.17,1.17,0,0,0,.3.12A1.44,1.44,0,0,0,98.68,45.87Z" transform="translate(-4.95 -0.66)"/><circle class="cls-7" cx="95.59" cy="52.44" r="4.76"/><path class="cls-21" d="M98.17,51.85A1.53,1.53,0,0,1,99,52a.67.67,0,0,1,.29.62.71.71,0,0,1-.29.63,1.57,1.57,0,0,1-.83.19H98v.8h-.54V51.92a2.2,2.2,0,0,1,.37-.05Zm0,.46H98V53h.17a.89.89,0,0,0,.42-.08.27.27,0,0,0,.14-.28.4.4,0,0,0,0-.17.38.38,0,0,0-.11-.11l-.16-.05Z" transform="translate(-4.95 -0.66)"/><path class="cls-21" d="M101.13,51.88h.54v2.4h-.54v-1h-.91v1h-.54v-2.4h.54v.92h.91Z" transform="translate(-4.95 -0.66)"/><path class="cls-21" d="M102.94,51.85a1.59,1.59,0,0,1,.83.19.83.83,0,0,1,0,1.25,1.57,1.57,0,0,1-.83.19h-.17v.8h-.54V51.92a2.18,2.18,0,0,1,.38-.05Zm0,.46h-.22V53h.17a.89.89,0,0,0,.42-.08.28.28,0,0,0,.15-.28.39.39,0,0,0,0-.17.35.35,0,0,0-.1-.11.69.69,0,0,0-.17-.05Z" transform="translate(-4.95 -0.66)"/><circle class="cls-7" cx="92.74" cy="61.65" r="3.44" transform="translate(-15.09 18.36) rotate(-11.11)"/><path class="cls-21" d="M92.26,62a1.53,1.53,0,0,1,0,.38.83.83,0,0,1-.16.31.74.74,0,0,1-.3.21,1.35,1.35,0,0,1-.48.07,1.56,1.56,0,0,1-.46-.06,1.37,1.37,0,0,1-.32-.15l.2-.48a1.15,1.15,0,0,0,.25.12.82.82,0,0,0,.28,0,.41.41,0,0,0,.32-.11.53.53,0,0,0,.1-.37V60.23h.61Z" transform="translate(-4.95 -0.66)"/><path class="cls-21" d="M93.59,62.48l.22,0a.39.39,0,0,0,.13-.06.13.13,0,0,0,.07-.09.2.2,0,0,0,0-.11.26.26,0,0,0-.12-.22,1.62,1.62,0,0,0-.43-.19l-.27-.11a.78.78,0,0,1-.24-.16.62.62,0,0,1-.17-.22.63.63,0,0,1-.07-.32.77.77,0,0,1,.07-.34.73.73,0,0,1,.2-.26,1,1,0,0,1,.31-.16,1.42,1.42,0,0,1,.42-.06,1.75,1.75,0,0,1,.48.06,2.85,2.85,0,0,1,.33.13l-.18.49-.25-.11a1.18,1.18,0,0,0-.34,0,.65.65,0,0,0-.32.06.2.2,0,0,0-.09.18.25.25,0,0,0,0,.13l.1.09.15.08.19.07.37.15a1,1,0,0,1,.26.18.61.61,0,0,1,.15.24.81.81,0,0,1,.06.33.7.7,0,0,1-.27.59,1.31,1.31,0,0,1-.81.21,1.57,1.57,0,0,1-.32,0l-.26,0a.84.84,0,0,1-.19-.07l-.14-.06.17-.49.31.12A1.69,1.69,0,0,0,93.59,62.48Z" transform="translate(-4.95 -0.66)"/><path class="cls-7" d="M98.1,69.43a2.32,2.32,0,1,0-2.32,2.32A2.31,2.31,0,0,0,98.1,69.43Z" transform="translate(-4.95 -0.66)"/><path class="cls-21" d="M94.77,69.31a.24.24,0,0,0,.18-.06.35.35,0,0,0,0-.18v-.4a.66.66,0,0,1,0-.21.42.42,0,0,1,.09-.14.4.4,0,0,1,.18-.1,1.14,1.14,0,0,1,.28,0h.06v.32h-.07c-.08,0-.13,0-.16,0a.24.24,0,0,0,0,.16v.35a.57.57,0,0,1,0,.24.16.16,0,0,0,0,.32.61.61,0,0,1,0,.24v.35a.24.24,0,0,0,0,.16s.08.05.16.05h.07v.32h-.06a1.14,1.14,0,0,1-.28,0,.51.51,0,0,1-.18-.09.6.6,0,0,1-.09-.15.66.66,0,0,1,0-.21v-.4a.35.35,0,0,0,0-.18.24.24,0,0,0-.18-.06Z" transform="translate(-4.95 -0.66)"/><path class="cls-21" d="M96.79,69.63a.21.21,0,0,0-.17.06.28.28,0,0,0-.06.18v.4a.66.66,0,0,1,0,.21.4.4,0,0,1-.09.15.51.51,0,0,1-.18.09,1.14,1.14,0,0,1-.28,0h0v-.32H96c.08,0,.14,0,.16-.05a.24.24,0,0,0,0-.16v-.35a.86.86,0,0,1,0-.24.16.16,0,0,0,0-.32.8.8,0,0,1,0-.24v-.35a.24.24,0,0,0,0-.16s-.08,0-.16,0h-.06v-.32h0a1.14,1.14,0,0,1,.28,0,.4.4,0,0,1,.18.1.31.31,0,0,1,.09.14.66.66,0,0,1,0,.21v.4a.28.28,0,0,0,.06.18.21.21,0,0,0,.17.06Z" transform="translate(-4.95 -0.66)"/></svg>