<svg id="Слой_1" data-name="Слой 1" xmlns="http://www.w3.org/2000/svg" viewBox="0 0 422.07 363.24"><defs><style>.cls-1{fill:#a4c639;}.cls-2{fill:#f8006b;}.cls-3{fill:#3111ff;}.cls-4{fill:#ffd800;}</style></defs><title>popup-bg-new</title><rect class="cls-1" x="47.75" y="20.74" width="27.58" height="14.33" rx="7.17"/><rect class="cls-1" x="242.6" y="308.47" width="27.58" height="14.33" rx="7.17"/><rect class="cls-1" x="860.12" y="426.58" width="27.58" height="14.33" rx="7.17" transform="translate(-521.11 544) rotate(-45)"/><rect class="cls-2" x="807.93" y="495.25" width="27.58" height="14.33" rx="7.17" transform="translate(125.57 -634.87) rotate(45)"/><rect class="cls-2" x="627.81" y="214.55" width="27.58" height="14.33" rx="7.17" transform="translate(-439.23 317.63) rotate(-45)"/><rect class="cls-3" x="772.28" y="243.71" width="27.58" height="14.33" rx="7.17" transform="translate(-417.53 428.33) rotate(-45)"/><rect class="cls-3" x="601.11" y="545.21" width="27.58" height="14.33" rx="7.17" transform="translate(-680.86 395.6) rotate(-45)"/><rect class="cls-3" x="482.44" y="363.91" width="27.58" height="14.33" rx="7.17" transform="translate(-62.64 -443.19) rotate(45)"/><rect class="cls-4" x="528.57" y="534.07" width="27.58" height="14.33" rx="7.17" transform="translate(71.2 -425.97) rotate(45)"/><rect class="cls-4" x="866.8" y="294.7" width="27.58" height="14.33" rx="7.17" transform="translate(1 -735.24) rotate(45)"/><path class="cls-1" d="M722.2,234.81a5.92,5.92,0,1,1-5.92-5.92A5.92,5.92,0,0,1,722.2,234.81Z" transform="translate(-470.37 -200.99)"/><path class="cls-2" d="M732.68,469.27a5.92,5.92,0,1,1-5.92-5.92A5.92,5.92,0,0,1,732.68,469.27Z" transform="translate(-470.37 -200.99)"/><path class="cls-2" d="M837.48,206.9a5.92,5.92,0,1,1-5.91-5.91A5.92,5.92,0,0,1,837.48,206.9Z" transform="translate(-470.37 -200.99)"/><path class="cls-1" d="M502.15,454.48a5.92,5.92,0,1,1-5.92-5.92A5.92,5.92,0,0,1,502.15,454.48Z" transform="translate(-470.37 -200.99)"/><path class="cls-4" d="M749.66,215.4a3.68,3.68,0,1,1-3.68-3.68A3.68,3.68,0,0,1,749.66,215.4Z" transform="translate(-470.37 -200.99)"/><path class="cls-3" d="M477.73,411.63a3.68,3.68,0,1,1-3.68-3.68A3.68,3.68,0,0,1,477.73,411.63Z" transform="translate(-470.37 -200.99)"/><path class="cls-3" d="M892.4,382a3.68,3.68,0,1,1-3.68-3.68A3.68,3.68,0,0,1,892.4,382Z" transform="translate(-470.37 -200.99)"/><path class="cls-3" d="M714,265.69a3.68,3.68,0,1,1-3.68-3.68A3.68,3.68,0,0,1,714,265.69Z" transform="translate(-470.37 -200.99)"/><path class="cls-3" d="M846.07,250.87a3.68,3.68,0,1,1-3.68-3.68A3.68,3.68,0,0,1,846.07,250.87Z" transform="translate(-470.37 -200.99)"/><path class="cls-3" d="M629.72,262a3.68,3.68,0,1,1-3.68-3.68A3.68,3.68,0,0,1,629.72,262Z" transform="translate(-470.37 -200.99)"/><path class="cls-3" d="M485.09,324.08a3.68,3.68,0,1,1-3.68-3.68A3.68,3.68,0,0,1,485.09,324.08Z" transform="translate(-470.37 -200.99)"/><path class="cls-3" d="M549.37,475.19a3.68,3.68,0,1,1-3.68-3.69A3.68,3.68,0,0,1,549.37,475.19Z" transform="translate(-470.37 -200.99)"/><path class="cls-3" d="M772.68,498.74a3.69,3.69,0,1,1-3.68-3.68A3.68,3.68,0,0,1,772.68,498.74Z" transform="translate(-470.37 -200.99)"/><path class="cls-3" d="M653,533.88a3.68,3.68,0,1,1-3.68-3.68A3.68,3.68,0,0,1,653,533.88Z" transform="translate(-470.37 -200.99)"/><path class="cls-4" d="M585.08,244.41a3.68,3.68,0,1,1-3.68-3.69A3.68,3.68,0,0,1,585.08,244.41Z" transform="translate(-470.37 -200.99)"/><path class="cls-4" d="M856.71,487.6a3.68,3.68,0,1,1-3.68-3.68A3.68,3.68,0,0,1,856.71,487.6Z" transform="translate(-470.37 -200.99)"/><path class="cls-4" d="M570.35,363.82a3.68,3.68,0,1,1-3.68-3.69A3.68,3.68,0,0,1,570.35,363.82Z" transform="translate(-470.37 -200.99)"/><path class="cls-4" d="M786.07,316.69a3.69,3.69,0,1,1-3.68-3.68A3.68,3.68,0,0,1,786.07,316.69Z" transform="translate(-470.37 -200.99)"/><path class="cls-4" d="M884.27,234.81a3.68,3.68,0,1,1-3.68-3.68A3.68,3.68,0,0,1,884.27,234.81Z" transform="translate(-470.37 -200.99)"/><path class="cls-4" d="M665.73,262a3.68,3.68,0,1,1-3.68-3.68A3.68,3.68,0,0,1,665.73,262Z" transform="translate(-470.37 -200.99)"/><path class="cls-1" d="M789.75,537.56a3.68,3.68,0,1,1-3.68-3.68A3.68,3.68,0,0,1,789.75,537.56Z" transform="translate(-470.37 -200.99)"/><path class="cls-1" d="M560.86,419a3.69,3.69,0,1,1-3.68-3.69A3.68,3.68,0,0,1,560.86,419Z" transform="translate(-470.37 -200.99)"/><path class="cls-1" d="M695.87,502.42a3.68,3.68,0,1,1-3.68-3.68A3.68,3.68,0,0,1,695.87,502.42Z" transform="translate(-470.37 -200.99)"/><path class="cls-1" d="M577.72,296.19a3.69,3.69,0,1,1-3.68-3.68A3.68,3.68,0,0,1,577.72,296.19Z" transform="translate(-470.37 -200.99)"/><path class="cls-4" d="M665.73,502.42a3.68,3.68,0,1,1-3.68-3.68A3.68,3.68,0,0,1,665.73,502.42Z" transform="translate(-470.37 -200.99)"/><path class="cls-4" d="M521.8,415.31a3.69,3.69,0,1,1-3.68-3.68A3.69,3.69,0,0,1,521.8,415.31Z" transform="translate(-470.37 -200.99)"/><path class="cls-2" d="M485.09,262a3.68,3.68,0,1,1-3.68-3.68A3.68,3.68,0,0,1,485.09,262Z" transform="translate(-470.37 -200.99)"/><path class="cls-2" d="M869.45,332.45a3.68,3.68,0,1,1-3.68-3.68A3.68,3.68,0,0,1,869.45,332.45Z" transform="translate(-470.37 -200.99)"/><path class="cls-2" d="M592.44,541.24a3.68,3.68,0,1,1-3.68-3.68A3.68,3.68,0,0,1,592.44,541.24Z" transform="translate(-470.37 -200.99)"/><path class="cls-2" d="M811.33,430.06a3.69,3.69,0,1,1-3.69-3.68A3.68,3.68,0,0,1,811.33,430.06Z" transform="translate(-470.37 -200.99)"/><path class="cls-2" d="M772.68,279.31a3.69,3.69,0,1,1-3.68-3.68A3.68,3.68,0,0,1,772.68,279.31Z" transform="translate(-470.37 -200.99)"/><path class="cls-2" d="M499.91,502.42a3.68,3.68,0,1,1-3.68-3.68A3.68,3.68,0,0,1,499.91,502.42Z" transform="translate(-470.37 -200.99)"/></svg>