<svg id="Слой_1" data-name="Слой 1" xmlns="http://www.w3.org/2000/svg" xmlns:xlink="http://www.w3.org/1999/xlink" viewBox="0 0 493.41 493.64"><defs><style>.cls-1{mask:url(#mask);}.cls-2{mix-blend-mode:multiply;fill:url(#linear-gradient);}.cls-3{fill:url(#linear-gradient-2);}.cls-4{fill:#c0cef8;}.cls-10,.cls-5,.cls-7,.cls-8{fill:#fff;}.cls-5{opacity:0.5;}.cls-6{fill:#99b0f6;}.cls-7{opacity:0.6;}.cls-9{opacity:0.9;}.cls-10{fill-rule:evenodd;}.cls-11{fill:url(#linear-gradient-3);}.cls-12{fill:url(#linear-gradient-4);}.cls-13{fill:url(#linear-gradient-5);}.cls-14{fill:url(#linear-gradient-6);}.cls-15{fill:url(#linear-gradient-7);}.cls-16{fill:url(#linear-gradient-8);}.cls-17{fill:url(#linear-gradient-9);}.cls-18{fill:url(#linear-gradient-10);}.cls-19{mask:url(#mask-2);}.cls-20{fill:url(#linear-gradient-11);}.cls-21{fill:url(#linear-gradient-12);}.cls-22{fill:url(#linear-gradient-13);}.cls-23{fill:url(#linear-gradient-14);}.cls-24{fill:url(#linear-gradient-15);}.cls-25{fill:url(#linear-gradient-16);}.cls-26{fill:url(#linear-gradient-17);}.cls-27{fill:url(#linear-gradient-18);}.cls-28{fill:url(#linear-gradient-19);}.cls-29{fill:url(#linear-gradient-20);}.cls-30{fill:url(#linear-gradient-21);}.cls-31{fill:url(#linear-gradient-22);}.cls-32{fill:url(#linear-gradient-23);}.cls-33{fill:url(#linear-gradient-24);}.cls-34{fill:url(#linear-gradient-25);}.cls-35{fill:url(#linear-gradient-26);}.cls-36{fill:url(#linear-gradient-27);}.cls-37{fill:url(#linear-gradient-28);}.cls-38{fill:url(#linear-gradient-29);}.cls-39{fill:url(#linear-gradient-30);}.cls-40{filter:url(#luminosity-noclip-2);}.cls-41{filter:url(#luminosity-noclip);}</style><filter id="luminosity-noclip" x="661.29" y="-8576" width="55.03" height="32766" filterUnits="userSpaceOnUse" color-interpolation-filters="sRGB"><feFlood flood-color="#fff" result="bg"/><feBlend in="SourceGraphic" in2="bg"/></filter><mask id="mask" x="661.29" y="-8576" width="55.03" height="32766" maskUnits="userSpaceOnUse"><g class="cls-41"/></mask><linearGradient id="linear-gradient" x1="661.29" y1="544.05" x2="716.31" y2="544.05" gradientUnits="userSpaceOnUse"><stop offset="0" stop-color="#fff"/><stop offset="1"/></linearGradient><linearGradient id="linear-gradient-2" x1="1016.05" y1="779.1" x2="585.9" y2="244.88" gradientUnits="userSpaceOnUse"><stop offset="0" stop-color="#dbe1fc"/><stop offset="1" stop-color="#e9edfb"/></linearGradient><linearGradient id="linear-gradient-3" x1="683.46" y1="636.99" x2="687.59" y2="487.27" gradientUnits="userSpaceOnUse"><stop offset="0" stop-color="#5153fa"/><stop offset="1" stop-color="#4344dc"/></linearGradient><linearGradient id="linear-gradient-4" x1="619.95" y1="442.02" x2="618.01" y2="394.95" gradientUnits="userSpaceOnUse"><stop offset="0" stop-color="#0f005c"/><stop offset="1" stop-color="#1e168c"/></linearGradient><linearGradient id="linear-gradient-5" x1="617.49" y1="371.35" x2="627.2" y2="506.25" xlink:href="#linear-gradient-4"/><linearGradient id="linear-gradient-6" x1="751.09" y1="436.61" x2="749.15" y2="389.54" xlink:href="#linear-gradient-4"/><linearGradient id="linear-gradient-7" x1="748.28" y1="361.94" x2="757.98" y2="496.84" xlink:href="#linear-gradient-4"/><linearGradient id="linear-gradient-8" x1="694.41" y1="296.25" x2="681.31" y2="392.33" xlink:href="#linear-gradient-3"/><linearGradient id="linear-gradient-9" x1="698.36" y1="371.07" x2="650.32" y2="819.45" xlink:href="#linear-gradient-3"/><linearGradient id="linear-gradient-10" x1="652.65" y1="544.07" x2="724.95" y2="544.07" xlink:href="#linear-gradient-4"/><filter id="luminosity-noclip-2" x="661.29" y="520.4" width="55.03" height="47.3" filterUnits="userSpaceOnUse" color-interpolation-filters="sRGB"><feFlood flood-color="#fff" result="bg"/><feBlend in="SourceGraphic" in2="bg"/></filter><mask id="mask-2" x="190.69" y="367.4" width="55.03" height="47.3" maskUnits="userSpaceOnUse"><g class="cls-40"><g transform="translate(-470.59 -153)"><g class="cls-1"><path class="cls-2" d="M705.28,567.7h-32a8.27,8.27,0,0,1-8.23-7.27l-3.69-30.8a8.26,8.26,0,0,1,8.22-9.23H708a8.27,8.27,0,0,1,8.25,9l-2.74,30.8A8.28,8.28,0,0,1,705.28,567.7Z"/></g></g></g></mask><linearGradient id="linear-gradient-11" x1="542.43" y1="759.57" x2="704.23" y2="519.07" xlink:href="#linear-gradient-4"/><linearGradient id="linear-gradient-12" x1="-1188.81" y1="749.39" x2="-1185.86" y2="823.07" gradientTransform="matrix(-1, 0, 0, 1, -331.62, 0)" xlink:href="#linear-gradient-4"/><linearGradient id="linear-gradient-13" x1="-1192.85" y1="644.59" x2="-1192.85" y2="480.13" gradientTransform="matrix(-1, 0, 0, 1, -331.62, 0)" xlink:href="#linear-gradient-4"/><linearGradient id="linear-gradient-14" x1="-1273.84" y1="752.79" x2="-1270.89" y2="826.47" gradientTransform="matrix(-1, 0, 0, 1, -331.62, 0)" xlink:href="#linear-gradient-4"/><linearGradient id="linear-gradient-15" x1="-1278.54" y1="644.59" x2="-1278.54" y2="480.13" gradientTransform="matrix(-1, 0, 0, 1, -331.62, 0)" xlink:href="#linear-gradient-4"/><linearGradient id="linear-gradient-16" x1="-1279.77" y1="621.97" x2="-1266.94" y2="621.97" gradientTransform="matrix(-1, 0, 0, 1, -331.62, 0)" gradientUnits="userSpaceOnUse"><stop offset="0" stop-color="#ecb9b8"/><stop offset="1" stop-color="#e5908c"/></linearGradient><linearGradient id="linear-gradient-17" x1="-1211.82" y1="621.13" x2="-1201.13" y2="621.13" xlink:href="#linear-gradient-16"/><linearGradient id="linear-gradient-18" x1="948.01" y1="339.15" x2="896.45" y2="554.55" xlink:href="#linear-gradient-4"/><linearGradient id="linear-gradient-19" x1="-1185.23" y1="456.77" x2="-1228.99" y2="513.34" gradientTransform="matrix(-1, 0, 0, 1, -331.62, 0)" gradientUnits="userSpaceOnUse"><stop offset="0" stop-color="#ad286b"/><stop offset="1" stop-color="#45296b"/></linearGradient><linearGradient id="linear-gradient-20" x1="-436.14" y1="1027.52" x2="-374.1" y2="1111.36" gradientTransform="matrix(-0.99, -0.11, -0.11, 0.99, -44.05, -66.12)" xlink:href="#linear-gradient-4"/><linearGradient id="linear-gradient-21" x1="-941.44" y1="319.19" x2="-936.44" y2="288.35" gradientTransform="matrix(-0.99, -0.11, -0.11, 0.99, -44.05, -66.12)" xlink:href="#linear-gradient-16"/><linearGradient id="linear-gradient-22" x1="-924.95" y1="268.65" x2="-959.02" y2="294.72" gradientTransform="matrix(-0.99, -0.11, -0.11, 0.99, -44.05, -66.12)" xlink:href="#linear-gradient-16"/><linearGradient id="linear-gradient-23" x1="-948.89" y1="248.08" x2="-918.04" y2="287.79" gradientTransform="matrix(-0.99, -0.11, -0.11, 0.99, -44.05, -66.12)" xlink:href="#linear-gradient-4"/><linearGradient id="linear-gradient-24" x1="-929.18" y1="263.13" x2="-963.25" y2="289.2" gradientTransform="matrix(-0.99, -0.11, -0.11, 0.99, -44.05, -66.12)" xlink:href="#linear-gradient-16"/><linearGradient id="linear-gradient-25" x1="2904.03" y1="2659.39" x2="2684.08" y2="2948.15" gradientTransform="translate(-2362.73 2664.4) rotate(-79.31)" gradientUnits="userSpaceOnUse"><stop offset="0" stop-color="#e5908c"/><stop offset="1" stop-color="#df6f63"/></linearGradient><linearGradient id="linear-gradient-26" x1="2839.78" y1="2753.33" x2="2695.01" y2="2760.47" gradientTransform="translate(-2362.73 2664.4) rotate(-79.31)" xlink:href="#linear-gradient-2"/><linearGradient id="linear-gradient-27" x1="882.83" y1="426.26" x2="721.85" y2="606.1" gradientTransform="matrix(1, 0, 0, 1, 0, 0)" xlink:href="#linear-gradient-25"/><linearGradient id="linear-gradient-28" x1="831.14" y1="379.99" x2="670.17" y2="559.83" gradientTransform="matrix(1, 0, 0, 1, 0, 0)" xlink:href="#linear-gradient-25"/><linearGradient id="linear-gradient-29" x1="-469.58" y1="1052.35" x2="-407.54" y2="1136.2" gradientTransform="matrix(-0.99, -0.11, -0.11, 0.99, -44.05, -66.12)" xlink:href="#linear-gradient-4"/><linearGradient id="linear-gradient-30" x1="925.78" y1="429.71" x2="1009.48" y2="296.49" gradientTransform="matrix(1, 0, 0, 1, 0, 0)" xlink:href="#linear-gradient-16"/></defs><title>portfolio</title><path class="cls-3" d="M897.71,568.42c-9.88,10.4-19.23,17.11-26.61,22.41-86.83,62.29-189.56,44.14-211.4,39.7-32.24-6.55-94.56-19.21-139.62-72.19-68.17-80.17-57.56-206.47-4.68-289.84C525.07,253.25,576.16,168.6,680,155c62.84-8.22,136.1,8.35,189.15,52.8C980.51,301.12,972.59,489.59,897.71,568.42Z" transform="translate(-470.59 -153)"/><path class="cls-4" d="M470.76,295.05c-.76-1.48,1.2-3.08,2.83-2.31,16.55,7.8,57.94,33.15,64.07,93.74,7.7,76,32,98.46,58.09,109.38,0,0-32.18-.24-57.93-22.75C474.6,417.83,484.24,321.48,470.76,295.05Z" transform="translate(-470.59 -153)"/><path class="cls-5" d="M486.9,315.42c3.74,7.75,7.29,15.58,10.51,23.53s6.24,15.95,8.93,24.07,5.11,16.3,7.18,24.59,3.79,16.64,5.46,25,3.39,16.86,6.07,25.14a76.7,76.7,0,0,0,12,23.41c1.36,1.77,2.77,3.52,4.29,5.17s3.06,3.3,4.66,4.89a93.25,93.25,0,0,0,10.48,8.84,101.78,101.78,0,0,0,25,13,2.13,2.13,0,0,0,2.54-.94,1.51,1.51,0,0,0-.85-2.15h0c-2.16-.84-4.3-1.71-6.39-2.65-1.06-.46-2.08-1-3.12-1.44s-2.05-1-3-1.55A92,92,0,0,1,540.58,459a73.78,73.78,0,0,1-6.78-10.75,82.61,82.61,0,0,1-4.87-11.67c-2.67-8-4.41-16.39-6.2-24.76s-3.68-16.78-6-25.07c-1.12-4.16-2.33-8.28-3.62-12.39-.64-2.05-1.32-4.09-2-6.13s-1.41-4.07-2.14-6.09q-4.41-12.14-9.68-24c-3.56-7.86-7.37-15.61-11.51-23.21a.53.53,0,0,0-.68-.17A.45.45,0,0,0,486.9,315.42Z" transform="translate(-470.59 -153)"/><path class="cls-6" d="M546.29,421.32a3.58,3.58,0,0,1-5.92.43c-8.67-11-30.34-44.38-19.69-91.58,9-39.85,10.08-62.32,9.87-72.55a2.24,2.24,0,0,1,4-1.42C549.15,275.12,591.6,341.2,546.29,421.32Z" transform="translate(-470.59 -153)"/><path class="cls-5" d="M542.9,420.77l-.19.06a1,1,0,0,1-1.19-.75c-.13-.6-13.78-61.15-3.77-117.13a1,1,0,1,1,2,.35c-9.93,55.57,3.62,115.74,3.76,116.34A1,1,0,0,1,542.9,420.77Z" transform="translate(-470.59 -153)"/><path class="cls-6" d="M830.65,581.37H559.76V193.91c0-13.63,10.35-24.54,22.83-24.08l255.83,3.82c13,.19,23.42,12,23.07,26.22L852.56,558.1C852.24,571.05,842.52,581.37,830.65,581.37Z" transform="translate(-470.59 -153)"/><path class="cls-7" d="M825.83,522.59H564V200.24c0-11.34,10-20.42,22.08-20l247.3,3.17c12.61.17,22.64,10,22.3,21.82l-8.63,298C846.7,514,837.31,522.59,825.83,522.59Z" transform="translate(-470.59 -153)"/><path class="cls-6" d="M564.32,205.6l292.2,2.28v-14c-.39-5.84-6.14-13.65-15.07-13.65l-263.83-3.31c-6.29-.07-13.72,8.74-13.6,15.5Z" transform="translate(-470.59 -153)"/><circle class="cls-7" cx="107.75" cy="37.77" r="4.08"/><circle class="cls-7" cx="124.07" cy="38.24" r="4.08"/><circle class="cls-7" cx="610.33" cy="191.24" r="4.08" transform="translate(-186.61 588.31) rotate(-76.72)"/><rect class="cls-6" x="109.57" y="67.49" width="106.5" height="67.02" rx="7.59"/><path class="cls-8" d="M678.55,284.78H588.28a4.82,4.82,0,0,1-4.81-4.81V228.15a4.82,4.82,0,0,1,4.81-4.81h90.27a4.82,4.82,0,0,1,4.81,4.81V280A4.82,4.82,0,0,1,678.55,284.78Zm-90.27-60.84a4.22,4.22,0,0,0-4.21,4.21V280a4.22,4.22,0,0,0,4.21,4.22h90.27a4.22,4.22,0,0,0,4.22-4.22V228.15a4.22,4.22,0,0,0-4.22-4.21Z" transform="translate(-470.59 -153)"/><path class="cls-8" d="M598.32,277.2h53.54a2.15,2.15,0,0,0,1.85-3.25l-21.19-36a2.16,2.16,0,0,0-3.82.19l-10.23,22.43a2.16,2.16,0,0,1-3.42.69l-4.14-3.79a2.14,2.14,0,0,0-3.22.35l-11.14,16A2.15,2.15,0,0,0,598.32,277.2Z" transform="translate(-470.59 -153)"/><circle class="cls-8" cx="651.13" cy="236.84" r="7.7" transform="translate(-511.66 114.2) rotate(-22.5)"/><rect class="cls-6" x="109.57" y="146.37" width="106.5" height="67.02" rx="9.24"/><path class="cls-8" d="M600.89,356.05h53.53a2.16,2.16,0,0,0,1.86-3.25l-21.19-36a2.16,2.16,0,0,0-3.82.19L621,339.4a2.16,2.16,0,0,1-3.42.69l-4.14-3.8a2.15,2.15,0,0,0-3.22.36l-11.14,16A2.15,2.15,0,0,0,600.89,356.05Z" transform="translate(-470.59 -153)"/><circle class="cls-8" cx="653.7" cy="315.69" r="7.7" transform="translate(-541.64 121.19) rotate(-22.5)"/><path class="cls-8" d="M678.47,364.18H588.21a4.82,4.82,0,0,1-4.82-4.82V307.54a4.82,4.82,0,0,1,4.82-4.81h90.26a4.81,4.81,0,0,1,4.81,4.81v51.82A4.81,4.81,0,0,1,678.47,364.18Zm-90.26-60.85a4.22,4.22,0,0,0-4.22,4.21v51.82a4.22,4.22,0,0,0,4.22,4.22h90.26a4.22,4.22,0,0,0,4.22-4.22V307.54a4.22,4.22,0,0,0-4.22-4.21Z" transform="translate(-470.59 -153)"/><rect class="cls-6" x="241.91" y="67.49" width="125.37" height="78.9" rx="7.59"/><path class="cls-8" d="M829.12,296.12H721.26a4.82,4.82,0,0,1-4.81-4.81v-62.6a4.82,4.82,0,0,1,4.81-4.81H829.12a4.82,4.82,0,0,1,4.82,4.81v62.6A4.82,4.82,0,0,1,829.12,296.12ZM721.26,224.49a4.22,4.22,0,0,0-4.21,4.22v62.6a4.23,4.23,0,0,0,4.21,4.22H829.12a4.23,4.23,0,0,0,4.22-4.22v-62.6a4.22,4.22,0,0,0-4.22-4.22Z" transform="translate(-470.59 -153)"/><g class="cls-9"><path class="cls-8" d="M774.41,281.89a22.27,22.27,0,1,1,22.26-22.27A22.29,22.29,0,0,1,774.41,281.89Zm0-40.8a18.54,18.54,0,1,0,18.53,18.53A18.55,18.55,0,0,0,774.41,241.09Z" transform="translate(-470.59 -153)"/><path class="cls-10" d="M767.44,268.2v-16a2.2,2.2,0,0,1,3.33-1.89l13.49,8a2.2,2.2,0,0,1,0,3.79l-13.49,8A2.21,2.21,0,0,1,767.44,268.2Z" transform="translate(-470.59 -153)"/></g><rect class="cls-6" x="241.13" y="159.76" width="125.37" height="78.9" rx="7.59"/><path class="cls-8" d="M828.34,388.39H720.48a4.82,4.82,0,0,1-4.81-4.81V321a4.82,4.82,0,0,1,4.81-4.81H828.34a4.82,4.82,0,0,1,4.81,4.81v62.6A4.82,4.82,0,0,1,828.34,388.39ZM720.48,316.76a4.23,4.23,0,0,0-4.22,4.22v62.6a4.23,4.23,0,0,0,4.22,4.22H828.34a4.23,4.23,0,0,0,4.22-4.22V321a4.23,4.23,0,0,0-4.22-4.22Z" transform="translate(-470.59 -153)"/><g class="cls-9"><path class="cls-8" d="M773.63,374.16a22.27,22.27,0,1,1,22.26-22.26A22.28,22.28,0,0,1,773.63,374.16Zm0-40.8a18.54,18.54,0,1,0,18.53,18.54A18.56,18.56,0,0,0,773.63,333.36Z" transform="translate(-470.59 -153)"/><path class="cls-10" d="M766.65,360.47v-16a2.21,2.21,0,0,1,3.34-1.89l13.48,8a2.2,2.2,0,0,1,0,3.79l-13.48,8A2.21,2.21,0,0,1,766.65,360.47Z" transform="translate(-470.59 -153)"/></g><path class="cls-11" d="M518.77,500.06l3.54,110.35a35.9,35.9,0,0,0,35.76,34.67l264.26,1.56a25.91,25.91,0,0,0,25.83-22c4.13-27.87,9.39-77.74,3.47-124.54Z" transform="translate(-470.59 -153)"/><path class="cls-8" d="M813,639.86H811a.32.32,0,0,1-.32-.32.32.32,0,0,1,.32-.32H813a.32.32,0,0,1,0,.64Zm4.49,0a.32.32,0,0,1,0-.64c.63,0,1.26-.1,1.89-.19a.32.32,0,0,1,.36.27.33.33,0,0,1-.27.37c-.65.09-1.3.15-1.94.19Zm-10.91,0h-1.93a.31.31,0,0,1-.31-.32.32.32,0,0,1,.32-.32h1.92a.32.32,0,0,1,.32.33A.31.31,0,0,1,806.55,639.82Zm-6.42,0h-1.92a.33.33,0,0,1-.32-.33.32.32,0,0,1,.32-.32h0l1.93,0a.32.32,0,0,1,.32.32A.34.34,0,0,1,800.13,639.79Zm-6.41,0h-1.93a.32.32,0,0,1-.32-.33.34.34,0,0,1,.33-.31h1.92a.32.32,0,0,1,.32.32A.32.32,0,0,1,793.72,639.75Zm-6.42,0h-1.92a.32.32,0,0,1-.32-.32.32.32,0,0,1,.32-.32h1.92a.32.32,0,0,1,.32.32A.32.32,0,0,1,787.3,639.71Zm-6.41,0H779a.32.32,0,0,1-.32-.32A.34.34,0,0,1,779,639h1.93a.33.33,0,0,1,.32.32A.32.32,0,0,1,780.89,639.67Zm-6.42,0h0l-1.93,0a.32.32,0,0,1,0-.64h1.93a.33.33,0,0,1,0,.65Zm-6.42,0h-1.92a.33.33,0,0,1,0-.65h0l1.93,0a.32.32,0,0,1,0,.64Zm-6.41,0h-1.93a.32.32,0,1,1,0-.64h1.93a.32.32,0,0,1,.32.32A.32.32,0,0,1,761.64,639.56Zm-6.42,0h-1.93a.32.32,0,0,1-.32-.32.33.33,0,0,1,.33-.32h1.92a.32.32,0,0,1,.32.32A.32.32,0,0,1,755.22,639.52Zm-6.42,0h-1.92a.32.32,0,0,1,0-.64h1.93a.32.32,0,0,1,0,.64Zm-6.41,0h0l-1.93,0a.32.32,0,0,1-.32-.32.33.33,0,0,1,.32-.32h1.93a.33.33,0,0,1,0,.65Zm-6.42,0H734a.32.32,0,0,1,0-.64H736a.32.32,0,1,1,0,.64Zm-6.41,0h-1.93a.32.32,0,0,1-.32-.32.32.32,0,0,1,.32-.32h1.93a.32.32,0,0,1,.32.32A.33.33,0,0,1,729.56,639.37Zm-6.42,0h-1.93a.32.32,0,0,1-.32-.32.32.32,0,0,1,.32-.32h1.93a.32.32,0,0,1,.32.32A.32.32,0,0,1,723.14,639.33Zm-6.42,0h0l-1.92,0a.32.32,0,0,1-.32-.32.34.34,0,0,1,.32-.32h1.92a.33.33,0,0,1,0,.65Zm-6.41,0h-1.93a.33.33,0,0,1-.32-.33.32.32,0,0,1,.32-.32h0l1.93,0a.32.32,0,0,1,.32.32A.33.33,0,0,1,710.31,639.26Zm-6.42,0H702a.33.33,0,0,1-.32-.32.35.35,0,0,1,.33-.32h1.92a.32.32,0,0,1,0,.64Zm-6.42,0h-1.92a.32.32,0,0,1-.32-.32.32.32,0,0,1,.32-.32h1.93a.32.32,0,0,1,0,.64Zm-6.41,0h-1.93a.32.32,0,0,1-.32-.32.33.33,0,0,1,.32-.32h1.93a.32.32,0,1,1,0,.64Zm-6.42,0h0l-1.93,0a.31.31,0,0,1-.31-.32.32.32,0,0,1,.32-.32h1.92a.33.33,0,0,1,.32.33A.32.32,0,0,1,684.64,639.11Zm-6.42,0H676.3a.32.32,0,0,1-.32-.33.31.31,0,0,1,.32-.31h1.93a.32.32,0,0,1,.32.32A.33.33,0,0,1,678.22,639.07Zm-6.41,0h-1.93a.32.32,0,1,1,0-.64h1.93a.32.32,0,0,1,.32.32A.32.32,0,0,1,671.81,639Zm-6.42,0h-1.92a.32.32,0,1,1,0-.64h1.92a.32.32,0,0,1,.32.32A.32.32,0,0,1,665.39,639ZM659,639h-1.93a.32.32,0,0,1,0-.64H659a.33.33,0,0,1,.32.33A.32.32,0,0,1,659,639Zm-6.42,0h-1.93a.34.34,0,0,1-.32-.33.33.33,0,0,1,.32-.32h0l1.92,0a.32.32,0,0,1,.32.32A.32.32,0,0,1,652.56,638.92Zm-6.42,0h-1.92a.32.32,0,0,1-.32-.32.32.32,0,0,1,.32-.32h1.92a.32.32,0,0,1,0,.64Zm-6.41,0H637.8a.32.32,0,0,1,0-.64h1.93a.32.32,0,0,1,.32.32A.32.32,0,0,1,639.73,638.84Zm-6.42,0h-1.93a.32.32,0,0,1-.32-.32.33.33,0,0,1,.33-.32h1.92a.32.32,0,0,1,.32.32A.32.32,0,0,1,633.31,638.8Zm-6.42,0h0l-1.92,0a.32.32,0,0,1-.32-.32.34.34,0,0,1,.32-.32h1.93a.32.32,0,0,1,.31.33A.32.32,0,0,1,626.89,638.77Zm-6.41,0h-1.93a.32.32,0,0,1-.32-.33.33.33,0,0,1,.32-.32h0l1.93,0a.32.32,0,0,1,.32.32A.32.32,0,0,1,620.48,638.73Zm-6.42,0h-1.93a.31.31,0,0,1-.31-.32.32.32,0,0,1,.32-.32h1.92a.32.32,0,1,1,0,.64Zm-6.42,0h-1.92a.32.32,0,1,1,0-.64h1.93a.32.32,0,1,1,0,.64Zm216.1,0a.32.32,0,0,1-.1-.63c.6-.2,1.19-.42,1.77-.67a.34.34,0,0,1,.43.17.34.34,0,0,1-.18.43c-.59.25-1.21.48-1.82.68Zm-222.51,0H599.3a.32.32,0,0,1-.32-.32.32.32,0,0,1,.33-.32h1.92a.32.32,0,0,1,.32.33A.32.32,0,0,1,601.23,638.61Zm-6.42,0h-1.92a.33.33,0,0,1-.32-.33.32.32,0,0,1,.32-.32h1.92a.33.33,0,0,1,.32.33A.32.32,0,0,1,594.81,638.58Zm-6.41,0h-1.93a.32.32,0,0,1-.32-.33.31.31,0,0,1,.32-.31h1.93a.32.32,0,0,1,.32.32A.32.32,0,0,1,588.4,638.54Zm-6.42,0h-1.93a.33.33,0,0,1-.32-.32.32.32,0,0,1,.32-.32H582a.32.32,0,0,1,0,.64Zm-6.42,0h-1.92a.32.32,0,0,1,0-.64h1.93a.32.32,0,0,1,0,.64Zm-6.41,0h0l-1.92,0a.32.32,0,0,1-.32-.32.32.32,0,0,1,.32-.32h1.93a.32.32,0,0,1,.32.33A.33.33,0,0,1,569.15,638.43Zm-6.42-.08h0c-.65,0-1.3-.08-1.94-.15a.32.32,0,1,1,.07-.64c.63.07,1.27.12,1.9.15a.32.32,0,0,1,.3.34A.32.32,0,0,1,562.73,638.35Zm-6.34-.91h-.07c-.63-.15-1.26-.32-1.88-.51a.32.32,0,0,1,.19-.61c.6.18,1.22.35,1.84.5a.32.32,0,0,1-.08.63Zm273.11-1.61a.32.32,0,0,1-.27-.14.32.32,0,0,1,.09-.45c.53-.34,1-.72,1.55-1.1a.32.32,0,1,1,.39.51c-.51.39-1,.77-1.59,1.13A.34.34,0,0,1,829.5,635.83Zm-279.17-.47a.31.31,0,0,1-.13,0c-.58-.26-1.17-.55-1.74-.85a.32.32,0,1,1,.29-.56c.57.29,1.14.57,1.72.83a.32.32,0,0,1,.16.42A.33.33,0,0,1,550.33,635.36Zm-5.56-3.17a.3.3,0,0,1-.18-.06c-.53-.37-1.05-.76-1.56-1.16a.32.32,0,0,1,0-.45.33.33,0,0,1,.45,0c.49.39,1,.78,1.53,1.14a.32.32,0,0,1,.07.45A.33.33,0,0,1,544.77,632.19Zm289.58-.53a.32.32,0,0,1-.21-.08.31.31,0,0,1,0-.45c.42-.47.83-1,1.21-1.47a.33.33,0,0,1,.45-.06.32.32,0,0,1,.06.45c-.39.52-.81,1-1.24,1.5A.29.29,0,0,1,834.35,631.66ZM539.89,628a.31.31,0,0,1-.22-.09c-.45-.47-.9-1-1.32-1.43a.33.33,0,0,1,0-.46.32.32,0,0,1,.45,0c.42.47.85.94,1.29,1.4a.31.31,0,0,1,0,.45A.32.32,0,0,1,539.89,628ZM838,626.38l-.14,0a.32.32,0,0,1-.14-.43c.28-.56.55-1.14.79-1.73a.32.32,0,0,1,.59.25c-.24.6-.52,1.19-.81,1.77A.32.32,0,0,1,838,626.38Zm-302.09-3.32a.33.33,0,0,1-.27-.15c-.35-.54-.7-1.09-1-1.65a.32.32,0,1,1,.55-.32c.32.54.66,1.09,1,1.62a.31.31,0,0,1-.09.44A.32.32,0,0,1,535.87,623.06Zm304.22-2.71H840a.32.32,0,0,1-.25-.38c.1-.47.19-1,.26-1.43l.06-.44a.32.32,0,0,1,.64.09l-.07.44c-.07.5-.16,1-.26,1.48A.32.32,0,0,1,840.09,620.35Zm-307.24-3a.34.34,0,0,1-.3-.19c-.24-.6-.48-1.21-.69-1.82a.31.31,0,0,1,.19-.41.32.32,0,0,1,.41.2c.21.6.44,1.2.69,1.78a.32.32,0,0,1-.18.42A.25.25,0,0,1,532.85,617.4ZM841.05,614h0a.32.32,0,0,1-.27-.36c.09-.62.17-1.26.26-1.9a.32.32,0,0,1,.64.08c-.09.65-.18,1.28-.26,1.91A.33.33,0,0,1,841.05,614ZM531,611.28a.31.31,0,0,1-.31-.26c-.14-.63-.25-1.27-.35-1.91a.32.32,0,0,1,.64-.09c.09.62.2,1.25.33,1.87a.31.31,0,0,1-.24.38Zm310.95-3.63h0a.31.31,0,0,1-.28-.36l.24-1.9a.31.31,0,0,1,.36-.28.31.31,0,0,1,.27.35l-.24,1.92A.31.31,0,0,1,841.9,607.65Zm-311.67-2.73a.33.33,0,0,1-.32-.32l-.06-1.92a.32.32,0,0,1,.31-.33.3.3,0,0,1,.33.31l.06,1.92a.32.32,0,0,1-.31.34Zm312.44-3.64h0a.32.32,0,0,1-.28-.35c.08-.63.15-1.27.22-1.91a.33.33,0,0,1,.35-.29.33.33,0,0,1,.29.36c-.08.64-.15,1.28-.22,1.91A.33.33,0,0,1,842.67,601.28ZM530,598.5a.31.31,0,0,1-.32-.31l-.07-1.92a.33.33,0,0,1,.65,0l.06,1.92a.32.32,0,0,1-.31.33Zm313.34-3.6h0a.31.31,0,0,1-.29-.35c.07-.63.13-1.27.2-1.91a.32.32,0,0,1,.35-.29.32.32,0,0,1,.29.35c-.07.65-.13,1.28-.2,1.92A.33.33,0,0,1,843.37,594.9Zm-313.55-2.81a.33.33,0,0,1-.32-.31l-.06-1.93a.32.32,0,0,1,.31-.33.34.34,0,0,1,.33.31l.06,1.93a.32.32,0,0,1-.31.33ZM844,588.51h0a.32.32,0,0,1-.29-.35l.18-1.92a.31.31,0,0,1,.34-.29.32.32,0,0,1,.29.35c0,.64-.11,1.28-.17,1.92A.32.32,0,0,1,844,588.51Zm-314.38-2.83a.33.33,0,0,1-.33-.31l-.06-1.93a.33.33,0,0,1,.31-.33.32.32,0,0,1,.33.31l.07,1.92a.34.34,0,0,1-.31.34Zm314.94-3.56h0a.31.31,0,0,1-.29-.34l.15-1.92a.3.3,0,0,1,.34-.29.32.32,0,0,1,.3.34l-.15,1.92A.33.33,0,0,1,844.56,582.12Zm-315.15-2.86a.31.31,0,0,1-.32-.31L529,577a.31.31,0,0,1,.31-.33.32.32,0,0,1,.33.31l.06,1.92a.31.31,0,0,1-.31.33ZM845,575.72h0a.32.32,0,0,1-.3-.34l.13-1.92a.32.32,0,0,1,.64,0l-.13,1.93A.32.32,0,0,1,845,575.72ZM529.2,572.85a.33.33,0,0,1-.32-.31l-.06-1.92a.32.32,0,0,1,.31-.34.32.32,0,0,1,.33.31l.06,1.93a.32.32,0,0,1-.31.33Zm316.23-3.54h0a.32.32,0,0,1-.3-.34c0-.64.07-1.28.11-1.92a.31.31,0,0,1,.33-.3.32.32,0,0,1,.31.33c0,.65-.07,1.29-.11,1.93A.32.32,0,0,1,845.43,569.31ZM529,566.44a.31.31,0,0,1-.32-.31l-.07-1.93a.33.33,0,0,1,.65,0l.06,1.93a.34.34,0,0,1-.31.33Zm316.75-3.54h0a.32.32,0,0,1-.31-.33c0-.64.05-1.28.08-1.93a.32.32,0,0,1,.64,0c0,.64,0,1.28-.08,1.92A.32.32,0,0,1,845.75,562.9Zm-317-2.88a.32.32,0,0,1-.32-.31l-.06-1.92a.31.31,0,0,1,.31-.33.33.33,0,0,1,.33.31l.06,1.92a.31.31,0,0,1-.31.33ZM846,556.49h0a.33.33,0,0,1-.31-.33c0-.64,0-1.28.05-1.93a.33.33,0,0,1,.33-.31.32.32,0,0,1,.31.33c0,.64,0,1.29-.05,1.93A.32.32,0,0,1,846,556.49Zm-317.4-2.88a.33.33,0,0,1-.32-.31l-.06-1.92a.32.32,0,1,1,.64,0l.07,1.93a.33.33,0,0,1-.32.33Zm317.54-3.54h0a.32.32,0,0,1-.32-.32l0-1.93a.34.34,0,0,1,.32-.32.33.33,0,0,1,.32.33c0,.64,0,1.28,0,1.93A.33.33,0,0,1,846.12,550.07ZM528.38,547.2a.32.32,0,0,1-.32-.31L528,545a.32.32,0,0,1,.31-.33.33.33,0,0,1,.33.31l.06,1.93a.33.33,0,0,1-.31.33Zm317.79-3.54a.33.33,0,0,1-.32-.33v-1.92a.32.32,0,0,1,.32-.32h0a.32.32,0,0,1,.32.32c0,.59,0,1.18,0,1.77v.15A.33.33,0,0,1,846.17,543.66Zm-318-2.88a.32.32,0,0,1-.32-.31l-.06-1.92a.32.32,0,0,1,.64,0l.06,1.92a.31.31,0,0,1-.31.33Zm318-3.54a.32.32,0,0,1-.32-.32c0-.63,0-1.28,0-1.92a.32.32,0,0,1,.32-.32.31.31,0,0,1,.32.31c0,.64,0,1.28,0,1.93a.32.32,0,0,1-.32.32ZM528,534.37a.33.33,0,0,1-.33-.31l-.06-1.92a.32.32,0,0,1,.31-.33.32.32,0,0,1,.33.31l.07,1.92a.33.33,0,0,1-.31.33Zm318-3.54a.31.31,0,0,1-.32-.31c0-.64,0-1.28-.07-1.92a.32.32,0,0,1,.31-.34.31.31,0,0,1,.33.31c0,.64,0,1.29.07,1.93a.34.34,0,0,1-.31.33ZM527.76,528a.32.32,0,0,1-.32-.31l-.06-1.93a.32.32,0,0,1,.31-.33.33.33,0,0,1,.33.31l.06,1.93a.32.32,0,0,1-.31.33Zm318-3.54a.33.33,0,0,1-.32-.31c0-.64-.07-1.28-.1-1.92a.32.32,0,0,1,.3-.34.34.34,0,0,1,.34.31c0,.64.07,1.28.1,1.92a.32.32,0,0,1-.31.34Zm-318.17-2.88a.32.32,0,0,1-.32-.31l-.06-1.92a.32.32,0,0,1,.64,0l.06,1.92a.31.31,0,0,1-.31.33ZM845.34,518a.33.33,0,0,1-.32-.3c0-.64-.09-1.28-.13-1.91a.32.32,0,0,1,.29-.35.33.33,0,0,1,.35.3c0,.64.09,1.28.13,1.92a.31.31,0,0,1-.29.34Zm-318-2.88a.31.31,0,0,1-.32-.31L527,512.9a.32.32,0,0,1,.31-.33.32.32,0,0,1,.34.31l.06,1.92a.32.32,0,0,1-.31.33Zm317.5-3.51a.32.32,0,0,1-.32-.3l-.18-1.91a.33.33,0,0,1,.29-.35.32.32,0,0,1,.35.29l.18,1.92a.32.32,0,0,1-.3.34Zm-317.71-2.9a.33.33,0,0,1-.32-.31l-.06-1.93a.32.32,0,0,1,.31-.33.34.34,0,0,1,.33.31l.06,1.93a.32.32,0,0,1-.31.33Zm317.08-3.49a.32.32,0,0,1-.32-.29c-.07-.63-.14-1.27-.22-1.91a.32.32,0,0,1,.29-.35.31.31,0,0,1,.35.28c.08.64.15,1.28.22,1.91a.33.33,0,0,1-.29.36Zm-317.29-2.92a.33.33,0,0,1-.32-.32l-.07-2.25h1.17a.32.32,0,1,1,0,.64h-.51l.06,1.59a.34.34,0,0,1-.32.34Zm315.18-1.93h-1.92a.32.32,0,1,1,0-.64h1.92a.32.32,0,1,1,0,.64Zm-6.41,0h-1.93a.32.32,0,0,1,0-.64h1.93a.32.32,0,1,1,0,.64Zm-6.42,0h-1.93a.32.32,0,1,1,0-.64h1.93a.32.32,0,0,1,0,.64Zm-6.42,0h-1.92a.32.32,0,1,1,0-.64h1.92a.32.32,0,1,1,0,.64Zm-6.41,0h-1.93a.32.32,0,0,1,0-.64h1.93a.32.32,0,1,1,0,.64Zm-6.42,0H808.1a.32.32,0,1,1,0-.64H810a.32.32,0,0,1,0,.64Zm-6.42,0h-1.92a.32.32,0,1,1,0-.64h1.92a.32.32,0,1,1,0,.64Zm-6.41,0h-1.93a.32.32,0,0,1,0-.64h1.93a.32.32,0,1,1,0,.64Zm-6.42,0h-1.92a.32.32,0,1,1,0-.64h1.92a.32.32,0,0,1,0,.64Zm-6.42,0h-1.92a.32.32,0,1,1,0-.64h1.92a.32.32,0,1,1,0,.64Zm-6.41,0H776a.32.32,0,0,1,0-.64H778a.32.32,0,1,1,0,.64Zm-6.42,0h-1.92a.32.32,0,1,1,0-.64h1.92a.32.32,0,0,1,0,.64Zm-6.42,0h-1.92a.32.32,0,1,1,0-.64h1.92a.32.32,0,1,1,0,.64Zm-6.41,0h-1.93a.32.32,0,0,1,0-.64h1.93a.32.32,0,1,1,0,.64Zm-6.42,0h-1.92a.32.32,0,1,1,0-.64h1.92a.32.32,0,0,1,0,.64Zm-6.41,0h-1.93a.32.32,0,1,1,0-.64h1.93a.32.32,0,0,1,0,.64Zm-6.42,0h-1.93a.32.32,0,0,1,0-.64h1.93a.32.32,0,1,1,0,.64Zm-6.42,0h-1.92a.32.32,0,1,1,0-.64H733a.32.32,0,0,1,0,.64Zm-6.41,0h-1.93a.32.32,0,1,1,0-.64h1.93a.32.32,0,0,1,0,.64Zm-6.42,0h-1.93a.32.32,0,0,1,0-.64h1.93a.32.32,0,1,1,0,.64Zm-6.42,0h-1.92a.32.32,0,1,1,0-.64h1.92a.32.32,0,0,1,0,.64Zm-6.41,0h-1.93a.32.32,0,1,1,0-.64h1.93a.32.32,0,0,1,0,.64Zm-6.42,0H699a.32.32,0,1,1,0-.64H701a.32.32,0,1,1,0,.64Zm-6.42,0h-1.92a.32.32,0,1,1,0-.64h1.92a.32.32,0,0,1,0,.64Zm-6.41,0h-1.93a.32.32,0,1,1,0-.64h1.93a.32.32,0,0,1,0,.64Zm-6.42,0h-1.92a.32.32,0,1,1,0-.64h1.92a.32.32,0,1,1,0,.64Zm-6.42,0h-1.92a.32.32,0,1,1,0-.64h1.92a.32.32,0,0,1,0,.64Zm-6.41,0h-1.93a.32.32,0,1,1,0-.64h1.93a.32.32,0,0,1,0,.64Zm-6.42,0h-1.92a.32.32,0,0,1,0-.64h1.92a.32.32,0,1,1,0,.64Zm-6.42,0h-1.92a.32.32,0,1,1,0-.64H656a.32.32,0,1,1,0,.64Zm-6.41,0h-1.93a.32.32,0,1,1,0-.64h1.93a.32.32,0,0,1,0,.64Zm-6.42,0h-1.92a.32.32,0,0,1,0-.64h1.92a.32.32,0,1,1,0,.64Zm-6.41,0h-1.93a.32.32,0,1,1,0-.64h1.93a.32.32,0,0,1,0,.64Zm-6.42,0h-1.93a.32.32,0,1,1,0-.64h1.93a.32.32,0,0,1,0,.64Zm-6.42,0H622a.32.32,0,0,1,0-.64H624a.32.32,0,1,1,0,.64Zm-6.41,0h-1.93a.32.32,0,1,1,0-.64h1.93a.32.32,0,0,1,0,.64Zm-6.42,0h-1.93a.32.32,0,1,1,0-.64h1.93a.32.32,0,0,1,0,.64Zm-6.42,0h-1.92a.32.32,0,0,1,0-.64h1.92a.32.32,0,1,1,0,.64Zm-6.41,0h-1.93a.32.32,0,1,1,0-.64h1.93a.32.32,0,0,1,0,.64Zm-6.42,0H590a.32.32,0,1,1,0-.64h1.92a.32.32,0,0,1,0,.64Zm-6.42,0h-1.92a.32.32,0,0,1,0-.64h1.92a.32.32,0,1,1,0,.64Zm-6.41,0h-1.93a.32.32,0,1,1,0-.64H579a.32.32,0,0,1,0,.64Zm-6.42,0H570.7a.32.32,0,1,1,0-.64h1.92a.32.32,0,0,1,0,.64Zm-6.42,0h-1.92a.32.32,0,0,1,0-.64h1.92a.32.32,0,1,1,0,.64Zm-6.41,0h-1.93a.32.32,0,1,1,0-.64h1.93a.32.32,0,0,1,0,.64Zm-6.42,0h-1.92a.32.32,0,1,1,0-.64h1.92a.32.32,0,0,1,0,.64Zm-6.41,0H545a.32.32,0,0,1,0-.64H547a.32.32,0,1,1,0,.64Zm-6.42,0h-1.93a.32.32,0,1,1,0-.64h1.93a.32.32,0,0,1,0,.64Zm-6.42,0H532.2a.32.32,0,1,1,0-.64h1.92a.32.32,0,0,1,0,.64Z" transform="translate(-470.59 -153)"/><path class="cls-12" d="M596.21,420l.8-8.51a6.53,6.53,0,0,1,5-3.82c8.23-1.31,28.65-3.62,38.48,3.73l1.47,9.89Z" transform="translate(-470.59 -153)"/><path class="cls-13" d="M621.93,411.76a11.82,11.82,0,0,1-5.7,0,5.13,5.13,0,0,1-3.92-5V380.12h13.56v26.63A5.16,5.16,0,0,1,621.93,411.76Z" transform="translate(-470.59 -153)"/><path class="cls-14" d="M727.57,420l.8-8.51a6.53,6.53,0,0,1,5-3.82c8.23-1.31,28.65-3.62,38.48,3.73l1.47,9.89Z" transform="translate(-470.59 -153)"/><path class="cls-15" d="M753.29,411.76a11.82,11.82,0,0,1-5.7,0,5.13,5.13,0,0,1-3.92-5V377.31h13.56v29.44A5.16,5.16,0,0,1,753.29,411.76Z" transform="translate(-470.59 -153)"/><path class="cls-16" d="M610.93,386.65l145.85-4.83a7,7,0,0,0,6.72-5.77,59.43,59.43,0,0,0,.45-18.49,16.81,16.81,0,0,0-16.3-14.23c-27.21-.65-96.48-.63-134.66,14.47a13.35,13.35,0,0,0-8,9.25,32.31,32.31,0,0,0-.35,14.81A6.28,6.28,0,0,0,610.93,386.65Z" transform="translate(-470.59 -153)"/><path class="cls-6" d="M608.4,379.07a.64.64,0,0,1-.63-.58,33.88,33.88,0,0,1,.87-11,12.14,12.14,0,0,1,8.28-8.41c8.13-2.39,23.65-6.44,36.34-6.8a.65.65,0,0,1,0,1.29c-12.55.35-27.95,4.37-36,6.74a10.83,10.83,0,0,0-7.4,7.52,33.62,33.62,0,0,0-.84,10.53.64.64,0,0,1-.57.7Z" transform="translate(-470.59 -153)"/><path class="cls-17" d="M528.54,416.63c47.12-.6,251-2.74,310.17,4.4a12.06,12.06,0,0,1,10.36,9.34c3.5,15.82,10.54,52.56,9.71,89a10.57,10.57,0,0,1-8.64,10.07L715,555H667L523,526.36a11.27,11.27,0,0,1-9.08-10.45c-.93-18.33-2.4-61.32,2.56-89A12.46,12.46,0,0,1,528.54,416.63Z" transform="translate(-470.59 -153)"/><path class="cls-8" d="M713.87,543.66h-1.93a.32.32,0,0,1-.32-.32.32.32,0,0,1,.32-.32h1.93a.33.33,0,0,1,.32.32A.32.32,0,0,1,713.87,543.66Zm-6.42,0h-1.93a.32.32,0,0,1-.32-.32.33.33,0,0,1,.32-.32h1.93a.32.32,0,0,1,.32.32A.32.32,0,0,1,707.45,543.66Zm-6.42,0h-1.92a.32.32,0,0,1-.32-.32.32.32,0,0,1,.32-.32H701a.32.32,0,0,1,.32.32A.32.32,0,0,1,701,543.66Zm-6.41,0h-1.93a.32.32,0,0,1-.32-.32.32.32,0,0,1,.32-.32h1.93a.33.33,0,0,1,.32.32A.32.32,0,0,1,694.62,543.66Zm-6.42,0h-1.92a.32.32,0,0,1-.33-.32.33.33,0,0,1,.33-.32h1.92a.32.32,0,0,1,.32.32A.32.32,0,0,1,688.2,543.66Zm-6.42,0h-1.92a.32.32,0,0,1-.32-.32.32.32,0,0,1,.32-.32h1.92a.32.32,0,0,1,.32.32A.32.32,0,0,1,681.78,543.66Zm-6.41,0h-1.93a.32.32,0,0,1-.32-.32.33.33,0,0,1,.32-.32h1.93a.33.33,0,0,1,.32.32A.32.32,0,0,1,675.37,543.66Zm-6.42,0h-.84l-2-.38a.32.32,0,0,1,.13-.63l1.88.38H669a.32.32,0,0,1,.32.32A.32.32,0,0,1,669,543.66Zm49.33-.83a.33.33,0,0,1-.32-.26.32.32,0,0,1,.26-.37l1.89-.36a.33.33,0,0,1,.38.25.33.33,0,0,1-.26.38l-1.89.36Zm-56.46-.42h-.06l-1.89-.38a.32.32,0,0,1,.12-.63l1.89.38a.3.3,0,0,1,.25.37A.31.31,0,0,1,661.82,542.41Zm62.76-.77a.32.32,0,0,1-.31-.26.33.33,0,0,1,.25-.38l1.9-.35a.31.31,0,0,1,.37.25.33.33,0,0,1-.26.38l-1.89.35Zm-69.05-.48h-.07l-1.88-.38a.32.32,0,1,1,.12-.63l1.89.38a.32.32,0,0,1,.25.37A.31.31,0,0,1,655.53,541.16Zm75.36-.71a.33.33,0,0,1-.32-.26.32.32,0,0,1,.26-.38l1.89-.36a.33.33,0,0,1,.38.26.32.32,0,0,1-.26.37l-1.89.36Zm-81.66-.54h-.06l-1.89-.37a.33.33,0,0,1-.25-.38.32.32,0,0,1,.38-.25l1.88.38a.32.32,0,0,1,.26.37A.32.32,0,0,1,649.23,539.91Zm88-.66a.31.31,0,0,1-.31-.26.32.32,0,0,1,.25-.37l1.9-.36a.32.32,0,1,1,.11.63l-1.89.36Zm-94.25-.59h-.06l-1.89-.37a.32.32,0,0,1-.25-.38.31.31,0,0,1,.37-.25L643,538a.32.32,0,0,1-.06.64Zm100.56-.6a.32.32,0,0,1-.06-.64l1.89-.35a.31.31,0,0,1,.37.25.32.32,0,0,1-.25.38l-1.89.36Zm-106.85-.65h-.07L634.7,537a.33.33,0,0,1-.26-.38.32.32,0,0,1,.38-.25l1.89.37a.33.33,0,0,1,.25.38A.32.32,0,0,1,636.65,537.41Zm113.15-.54a.32.32,0,0,1-.06-.64l1.89-.36a.33.33,0,0,1,.38.26.32.32,0,0,1-.26.37l-1.89.36Zm-119.45-.71h-.06l-1.89-.37a.33.33,0,0,1-.25-.38.32.32,0,0,1,.38-.25l1.89.37a.32.32,0,0,1-.07.64Zm125.76-.48a.33.33,0,0,1-.32-.27.32.32,0,0,1,.26-.37l1.89-.36a.32.32,0,0,1,.37.26.31.31,0,0,1-.25.37l-1.89.36Zm-132.05-.77H624l-1.89-.37a.32.32,0,0,1-.25-.38.3.3,0,0,1,.37-.25l1.89.37a.31.31,0,0,1,.25.38A.32.32,0,0,1,624.06,534.91Zm138.35-.43a.32.32,0,0,1-.06-.63l1.89-.36a.32.32,0,1,1,.12.63l-1.89.36Zm-144.64-.82h-.07l-1.88-.38a.32.32,0,1,1,.12-.62l1.89.37a.32.32,0,0,1,.25.38A.32.32,0,0,1,617.77,533.66Zm151-.37a.32.32,0,0,1-.32-.26.33.33,0,0,1,.26-.38l1.89-.35a.31.31,0,0,1,.37.25.32.32,0,0,1-.25.38l-1.89.35Zm-157.25-.89h-.06l-1.89-.38a.32.32,0,0,1-.25-.37.32.32,0,0,1,.38-.26l1.89.38a.32.32,0,0,1-.07.63ZM775,532.1a.31.31,0,0,1-.31-.26.32.32,0,0,1,.25-.38l1.89-.36a.33.33,0,0,1,.38.26.32.32,0,0,1-.26.37l-1.89.36Zm-169.84-1h-.06l-1.89-.38a.31.31,0,0,1-.25-.38.32.32,0,0,1,.37-.25l1.89.38a.32.32,0,0,1-.06.63Zm176.15-.25a.31.31,0,0,1-.32-.26.32.32,0,0,1,.26-.37l1.89-.36a.32.32,0,0,1,.37.26.31.31,0,0,1-.25.37l-1.89.36Zm-182.44-1h-.07l-1.88-.38a.32.32,0,0,1-.26-.38.33.33,0,0,1,.38-.25l1.89.38a.32.32,0,0,1-.06.63Zm188.74-.19a.32.32,0,0,1-.06-.63l1.89-.36a.33.33,0,0,1,.38.25.32.32,0,0,1-.26.38l-1.89.36Zm-195-1.06h-.06l-1.89-.38a.32.32,0,0,1-.25-.38.32.32,0,0,1,.38-.25l1.89.38a.32.32,0,0,1-.07.63Zm201.34-.13a.32.32,0,0,1-.31-.26.33.33,0,0,1,.26-.38l1.89-.35a.31.31,0,0,1,.37.25.33.33,0,0,1-.25.38l-1.9.35ZM586.3,527.4h-.06l-1.89-.37a.32.32,0,0,1,.12-.63l1.89.38a.3.3,0,0,1,.25.37A.31.31,0,0,1,586.3,527.4Zm213.94-.07a.33.33,0,0,1-.32-.27.32.32,0,0,1,.26-.37l1.89-.36a.32.32,0,1,1,.12.63l-1.89.36ZM580,526.15h-.07l-1.88-.37a.33.33,0,0,1-.26-.38.32.32,0,0,1,.38-.25l1.89.37a.33.33,0,0,1,.25.38A.32.32,0,0,1,580,526.15Zm226.53,0a.31.31,0,0,1-.31-.26.32.32,0,0,1,.25-.37l1.9-.36a.32.32,0,1,1,.11.63l-1.89.36Zm6.31-1.19a.32.32,0,0,1-.06-.64l1.89-.35a.32.32,0,0,1,.38.25.34.34,0,0,1-.26.38l-1.89.36Zm-239.14,0h-.06l-1.89-.37a.33.33,0,0,1-.25-.38.32.32,0,0,1,.38-.25l1.89.37a.32.32,0,0,1-.07.64Zm245.44-1.15a.32.32,0,0,1-.06-.64l1.9-.36a.32.32,0,0,1,.37.26.32.32,0,0,1-.26.37l-1.89.36Zm-251.73-.1h-.06l-1.89-.37a.33.33,0,0,1-.25-.38.31.31,0,0,1,.37-.25l1.89.37a.32.32,0,0,1-.06.64Zm258-1.09a.33.33,0,0,1-.32-.27.32.32,0,0,1,.26-.37l1.89-.36a.32.32,0,0,1,.12.63l-1.89.36Zm-264.33-.16h-.07l-1.88-.37a.33.33,0,0,1-.26-.38.32.32,0,0,1,.38-.25l1.89.37a.32.32,0,0,1-.06.64Zm270.63-1a.32.32,0,0,1-.06-.63l1.89-.36a.32.32,0,1,1,.12.63l-1.89.36Zm-276.93-.21h-.06l-1.89-.38a.32.32,0,0,1-.25-.37.31.31,0,0,1,.38-.25l1.89.37a.32.32,0,0,1-.07.64Zm283.24-1a.33.33,0,0,1-.32-.26.33.33,0,0,1,.26-.38l1.89-.35a.31.31,0,0,1,.37.25.32.32,0,0,1-.25.38l-1.89.35Zm-289.53-.27h-.06l-1.89-.38a.31.31,0,0,1-.25-.37.32.32,0,0,1,.37-.26l1.89.38a.31.31,0,0,1,.25.38A.32.32,0,0,1,548.54,519.9ZM844.37,519a.32.32,0,0,1-.31-.26.32.32,0,0,1,.25-.38l1.89-.36a.32.32,0,0,1,.38.26.32.32,0,0,1-.26.37l-1.89.36Zm-302.12-.34h-.07l-1.88-.38a.32.32,0,0,1-.26-.37.33.33,0,0,1,.38-.26l1.89.38a.32.32,0,0,1,.25.38A.31.31,0,0,1,542.25,518.64Zm-6.3-1.25h-.06L534,517a.32.32,0,0,1,.13-.63l1.89.38a.32.32,0,0,1-.07.63Zm-6.29-1.25h-.06l-1.89-.38a.32.32,0,0,1-.25-.38.31.31,0,0,1,.37-.25l1.89.38a.3.3,0,0,1,.25.37A.31.31,0,0,1,529.66,516.14Zm317.54-1.27h0a.32.32,0,0,1-.32-.33v-1.92a.32.32,0,0,1,.32-.32h0a.32.32,0,0,1,.32.32v1.93A.33.33,0,0,1,847.2,514.87Zm-321.82-1.72a.32.32,0,0,1-.32-.3c0-.62-.06-1.26-.09-1.93a.32.32,0,0,1,.31-.33.31.31,0,0,1,.33.3c0,.67.06,1.31.09,1.93a.32.32,0,0,1-.3.33Zm321.77-4.7a.31.31,0,0,1-.32-.31c0-.65,0-1.29-.05-1.92a.32.32,0,0,1,.31-.33.29.29,0,0,1,.33.31c0,.64,0,1.28.05,1.92a.32.32,0,0,1-.32.33Zm-322-1.71a.33.33,0,0,1-.32-.31l-.07-1.92a.32.32,0,0,1,.64,0l.08,1.93a.34.34,0,0,1-.31.33ZM847,502a.32.32,0,0,1-.32-.31c0-.64,0-1.28-.08-1.91a.32.32,0,0,1,.3-.34.32.32,0,0,1,.34.31c0,.64.06,1.28.08,1.92a.32.32,0,0,1-.3.33Zm-322.07-1.71a.33.33,0,0,1-.32-.32l0-1.92a.31.31,0,0,1,.31-.33.32.32,0,0,1,.33.31l.05,1.93a.32.32,0,0,1-.31.33Zm321.74-4.69a.32.32,0,0,1-.32-.3q-.06-1-.12-1.92a.32.32,0,1,1,.64-.05l.12,1.93a.33.33,0,0,1-.3.34Zm-321.9-1.73a.31.31,0,0,1-.32-.31l0-1.93a.33.33,0,0,1,.31-.33.32.32,0,0,1,.33.32l0,1.92a.32.32,0,0,1-.31.33Zm321.45-4.68a.31.31,0,0,1-.32-.29c-.05-.64-.11-1.28-.16-1.92a.32.32,0,0,1,.29-.35.33.33,0,0,1,.35.3c0,.63.11,1.28.16,1.92a.32.32,0,0,1-.3.34Zm-321.56-1.74a.32.32,0,0,1-.32-.31l0-1.93a.32.32,0,0,1,.32-.32h0a.32.32,0,0,1,.32.32l0,1.92a.31.31,0,0,1-.31.32Zm321-4.65a.31.31,0,0,1-.32-.29c-.06-.64-.13-1.28-.19-1.91a.33.33,0,0,1,.28-.36.32.32,0,0,1,.35.29c.07.64.13,1.28.2,1.92a.34.34,0,0,1-.29.35Zm-321-1.76a.32.32,0,0,1-.32-.32v-1.93a.32.32,0,0,1,.32-.32h0a.32.32,0,0,1,.32.32v1.92a.33.33,0,0,1-.32.33Zm320.35-4.62a.32.32,0,0,1-.32-.29c-.07-.64-.15-1.28-.22-1.91a.33.33,0,0,1,.28-.36.32.32,0,0,1,.35.29c.08.63.15,1.27.23,1.91a.32.32,0,0,1-.28.35Zm-320.33-1.8h0a.32.32,0,0,1-.32-.32c0-.64,0-1.28,0-1.93a.32.32,0,0,1,.32-.31h0a.32.32,0,0,1,.31.32c0,.64,0,1.29,0,1.92A.32.32,0,0,1,524.59,474.66Zm319.55-4.57a.32.32,0,0,1-.32-.28c-.08-.64-.17-1.28-.25-1.91a.32.32,0,1,1,.63-.09c.09.63.17,1.27.26,1.91a.33.33,0,0,1-.28.36Zm-319.45-1.84h0a.32.32,0,0,1-.31-.33c0-.64,0-1.28,0-1.92a.32.32,0,0,1,.33-.32.34.34,0,0,1,.32.33c0,.64,0,1.28,0,1.92A.32.32,0,0,1,524.69,468.25Zm318.57-4.52a.33.33,0,0,1-.32-.28c-.09-.64-.19-1.27-.28-1.9a.32.32,0,1,1,.63-.1c.1.63.19,1.27.29,1.91a.32.32,0,0,1-.27.36Zm-318.39-1.9h0a.32.32,0,0,1-.31-.33c0-.64.05-1.28.08-1.93a.33.33,0,0,1,.33-.3.31.31,0,0,1,.31.33c0,.64,0,1.28-.08,1.92A.31.31,0,0,1,524.87,461.83Zm317.42-4.45a.32.32,0,0,1-.32-.27c-.1-.64-.21-1.27-.31-1.9a.32.32,0,0,1,.26-.37.32.32,0,0,1,.37.27c.11.62.21,1.26.31,1.9a.32.32,0,0,1-.26.37Zm-317.13-2h0a.32.32,0,0,1-.3-.34c0-.64.07-1.29.11-1.93a.31.31,0,0,1,.33-.3.32.32,0,0,1,.31.34c0,.64-.08,1.28-.11,1.92A.33.33,0,0,1,525.16,455.42Zm316.06-4.37a.31.31,0,0,1-.31-.27c-.12-.64-.23-1.27-.34-1.89a.32.32,0,0,1,.63-.11c.11.62.23,1.25.34,1.89a.34.34,0,0,1-.26.38Zm-315.66-2h0a.33.33,0,0,1-.3-.35l.15-1.92a.32.32,0,0,1,.34-.29.32.32,0,0,1,.3.34l-.15,1.92A.32.32,0,0,1,525.56,449Zm314.51-4.27a.33.33,0,0,1-.32-.27q-.18-1-.36-1.89a.31.31,0,0,1,.25-.37.33.33,0,0,1,.38.25q.18.93.36,1.89a.32.32,0,0,1-.25.38Zm-314-2.13h0a.32.32,0,0,1-.28-.35c.06-.64.12-1.28.19-1.92a.33.33,0,0,1,.36-.28.32.32,0,0,1,.28.35c-.07.63-.13,1.27-.2,1.91A.31.31,0,0,1,526.11,442.61Zm312.71-4.17a.32.32,0,0,1-.31-.26c-.14-.65-.27-1.28-.4-1.88a.32.32,0,0,1,.25-.38.32.32,0,0,1,.38.24q.19.91.39,1.89a.31.31,0,0,1-.25.38Zm-312-2.2h0a.32.32,0,0,1-.28-.36c.08-.64.17-1.28.26-1.91a.32.32,0,0,1,.64.09c-.09.63-.18,1.27-.26,1.91A.32.32,0,0,1,526.83,436.24Zm309.93-3.39h0l-1.91-.22a.32.32,0,0,1-.28-.35.32.32,0,0,1,.35-.29l1.92.22a.32.32,0,0,1,0,.64Zm-6.38-.67h0l-1.92-.17a.32.32,0,0,1-.29-.35.34.34,0,0,1,.35-.29l1.92.17a.32.32,0,0,1,0,.64Zm-6.39-.53h0L822,431.5a.31.31,0,0,1-.29-.34.32.32,0,0,1,.34-.3L824,431a.32.32,0,0,1,.3.34A.33.33,0,0,1,824,431.65Zm-6.41-.46h0l-1.92-.12a.32.32,0,0,1-.3-.34.32.32,0,0,1,.34-.3l1.92.12a.32.32,0,0,1,0,.64Zm-6.4-.39h0l-1.92-.1a.32.32,0,0,1,0-.64l1.93.1a.32.32,0,0,1,.3.34A.32.32,0,0,1,811.18,430.8Zm-6.41-.34h0l-1.92-.09a.32.32,0,0,1,0-.64l1.93.09a.32.32,0,0,1,.3.34A.32.32,0,0,1,804.77,430.46Zm-6.41-.3h0l-1.93-.08a.32.32,0,0,1-.3-.34.31.31,0,0,1,.33-.3l1.92.08a.32.32,0,0,1,.31.34A.32.32,0,0,1,798.36,430.16Zm-6.41-.27h0l-1.93-.07a.32.32,0,0,1-.3-.33.31.31,0,0,1,.33-.31l1.92.07a.32.32,0,0,1,.31.34A.32.32,0,0,1,792,429.89Zm-264.16,0h-.06a.32.32,0,0,1-.26-.37l.11-.61a1.13,1.13,0,0,1,1.11-1h.16a.29.29,0,0,1,.33.31.33.33,0,0,1-.32.33h-.16a.49.49,0,0,0-.49.42l-.11.61A.32.32,0,0,1,527.79,429.89Zm257.75-.23h0l-1.93-.07a.34.34,0,0,1-.31-.33.32.32,0,0,1,.33-.31l1.93.06a.33.33,0,0,1,.31.34A.33.33,0,0,1,785.54,429.66Zm-6.42-.22h0l-1.92-.06a.32.32,0,0,1-.31-.33.32.32,0,0,1,.33-.31l1.92.06a.31.31,0,0,1,.31.33A.31.31,0,0,1,779.12,429.44Zm-6.41-.19h0l-1.92-.06a.32.32,0,1,1,0-.64l1.93.05a.33.33,0,0,1,0,.65Zm-6.41-.18h0l-1.93-.05a.32.32,0,0,1-.31-.33.32.32,0,0,1,.33-.31l1.92.05a.32.32,0,1,1,0,.64Zm-6.42-.16h0l-1.92,0a.32.32,0,0,1-.31-.33.3.3,0,0,1,.32-.31l1.93,0a.31.31,0,0,1,.31.33A.32.32,0,0,1,759.88,428.91Zm-6.41-.14h0l-1.93,0a.33.33,0,0,1-.31-.33.32.32,0,0,1,.33-.31l1.92,0a.32.32,0,0,1,.32.32A.33.33,0,0,1,753.47,428.77Zm-6.42-.13h0l-1.92,0a.32.32,0,0,1-.32-.32.31.31,0,0,1,.33-.32l1.93,0a.32.32,0,0,1,0,.64Zm-213.7-.1a.32.32,0,1,1,0-.64l1.92,0a.33.33,0,0,1,.33.31.32.32,0,0,1-.32.33l-1.92,0Zm207.28,0h0l-1.93,0a.32.32,0,0,1,0-.64h0l1.92,0a.32.32,0,0,1,.32.33A.33.33,0,0,1,740.63,428.52Zm-200.86,0a.33.33,0,0,1,0-.65l1.92,0a.31.31,0,0,1,.33.32.32.32,0,0,1-.32.32l-1.92,0Zm194.45-.05h0l-1.92,0a.32.32,0,0,1-.32-.33.31.31,0,0,1,.33-.31l1.92,0a.32.32,0,0,1,.32.32A.32.32,0,0,1,734.22,428.42Zm-188,0a.33.33,0,0,1,0-.65l1.92,0a.32.32,0,1,1,0,.64l-1.93,0Zm6.42-.07a.32.32,0,1,1,0-.64l1.92,0a.32.32,0,1,1,0,.64l-1.93,0Zm175.19,0h0l-1.93,0a.32.32,0,0,1-.31-.33.31.31,0,0,1,.32-.31h0l1.93,0a.32.32,0,0,1,0,.64ZM559,428.27a.32.32,0,0,1-.32-.32.33.33,0,0,1,.32-.33H561a.32.32,0,1,1,0,.64l-1.93,0Zm162.36,0h0l-1.92,0a.33.33,0,0,1-.32-.33.31.31,0,0,1,.33-.32l1.92,0a.32.32,0,0,1,0,.64Zm-155.94,0a.32.32,0,1,1,0-.64l1.92,0h0a.32.32,0,1,1,0,.64l-1.93,0Zm149.52,0h0l-1.93,0a.32.32,0,0,1-.32-.32.33.33,0,0,1,.33-.32l1.92,0a.32.32,0,0,1,.32.33A.31.31,0,0,1,715,428.16Zm-143.1,0a.32.32,0,0,1,0-.64h1.93a.31.31,0,0,1,.32.31.32.32,0,0,1-.32.33Zm6.42,0a.32.32,0,0,1,0-.64h1.93a.31.31,0,0,1,.32.31.32.32,0,0,1-.32.33Zm130.26,0h0l-1.92,0a.32.32,0,0,1-.32-.32.32.32,0,0,1,.32-.32h0l1.93,0a.32.32,0,0,1,.32.32A.33.33,0,0,1,708.55,428.1Zm-123.85,0a.33.33,0,0,1,0-.65h1.93a.32.32,0,1,1,0,.64l-1.92,0Zm117.44,0h-1.93a.33.33,0,0,1,0-.65h0l1.92,0a.32.32,0,1,1,0,.64Zm-111,0a.32.32,0,0,1-.32-.31.32.32,0,0,1,.32-.33h1.93a.32.32,0,0,1,.32.32.32.32,0,0,1-.32.32Zm104.6,0h-1.93a.32.32,0,0,1-.31-.33.3.3,0,0,1,.32-.31h1.92a.32.32,0,0,1,.32.32A.32.32,0,0,1,695.72,428Zm-98.18,0a.33.33,0,0,1,0-.65h1.93a.33.33,0,0,1,.32.32.32.32,0,0,1-.32.32l-1.93,0Zm91.77,0h-1.93a.32.32,0,0,1-.32-.33.32.32,0,0,1,.32-.31h1.93a.32.32,0,0,1,.32.32A.33.33,0,0,1,689.31,428Zm-85.35,0a.32.32,0,1,1,0-.64h1.92a.33.33,0,0,1,.33.32.32.32,0,0,1-.32.32Zm78.93,0H681a.32.32,0,0,1-.32-.32.32.32,0,0,1,.32-.32h1.93a.32.32,0,0,1,0,.64Zm-72.51,0a.32.32,0,0,1,0-.64h1.92a.32.32,0,0,1,0,.64Zm6.42,0a.33.33,0,0,1,0-.65h1.93a.32.32,0,1,1,0,.64Zm59.67,0h-1.92a.32.32,0,0,1-.32-.33.31.31,0,0,1,.32-.31h1.92a.32.32,0,0,1,.32.32A.32.32,0,0,1,676.47,427.88Zm-53.26,0a.33.33,0,0,1,0-.65h1.93a.32.32,0,0,1,0,.64Zm46.85,0h-1.93a.33.33,0,0,1,0-.65h1.93a.32.32,0,0,1,0,.64Zm-40.43,0a.32.32,0,0,1,0-.64h1.93a.33.33,0,0,1,.32.32.32.32,0,0,1-.32.32Zm34,0h-1.93a.32.32,0,1,1,0-.64h1.93a.33.33,0,0,1,0,.65Zm-27.59,0a.32.32,0,0,1-.32-.32.32.32,0,0,1,.32-.32H638a.33.33,0,0,1,.32.32.32.32,0,0,1-.32.32Zm21.17,0H655.3a.32.32,0,0,1,0-.64h1.92a.32.32,0,0,1,.32.32A.32.32,0,0,1,657.22,427.83Zm-14.75,0a.32.32,0,1,1,0-.64h1.92a.32.32,0,0,1,0,.64Zm8.34,0h-1.93a.32.32,0,1,1,0-.64h1.93a.32.32,0,0,1,0,.64Z" transform="translate(-470.59 -153)"/><path class="cls-18" d="M710.46,575.15H668.4a10.87,10.87,0,0,1-10.81-9.55l-4.86-40.48A10.85,10.85,0,0,1,663.54,513h50.53a10.86,10.86,0,0,1,10.84,11.8l-3.61,40.47A10.87,10.87,0,0,1,710.46,575.15Z" transform="translate(-470.59 -153)"/><g class="cls-19"><path class="cls-20" d="M705.28,567.7h-32a8.27,8.27,0,0,1-8.23-7.27l-3.69-30.8a8.26,8.26,0,0,1,8.22-9.23H708a8.27,8.27,0,0,1,8.25,9l-2.74,30.8A8.28,8.28,0,0,1,705.28,567.7Z" transform="translate(-470.59 -153)"/></g><path class="cls-21" d="M866.47,644c-9.83.45-19.35.17-25.7-.16,5.78-4.12,19.11-13.08,30.26-16.64l7.66-.46s2.59,4,3.52,13C880.94,641.31,877.23,643.51,866.47,644Z" transform="translate(-470.59 -153)"/><path class="cls-22" d="M840.69,643.91l.08-.06c6.35.33,15.87.61,25.7.16,10.76-.5,14.47-2.7,15.74-4.29,0,.42.09.83.12,1.27a3.58,3.58,0,0,1-3.29,3.87c-8,.61-28,2-37.65,1.48A1.34,1.34,0,0,1,840.69,643.91Z" transform="translate(-470.59 -153)"/><path class="cls-23" d="M936.79,641.38c.72-4.62,1.87-11.29,2.76-13,1.4-2.68,6.19,0,6.19,0a12.59,12.59,0,0,1,4.91,4.18c1,1.66,3.72,6.4,5.57,9.62a2.21,2.21,0,0,1,.29,1.15l-19.18.67A3.82,3.82,0,0,1,936.79,641.38Z" transform="translate(-470.59 -153)"/><path class="cls-24" d="M956.51,643.34a2.18,2.18,0,0,1-2.13,2.12l-13.66.38a3.84,3.84,0,0,1-3.39-1.83Z" transform="translate(-470.59 -153)"/><path class="cls-25" d="M935.32,613c.17.56,2.65,12.57,3.73,17.85a3,3,0,0,0,3.1,2.4c.81,0,1.76-.11,2.75-.24a3.63,3.63,0,0,0,3.16-3.46c.17-4.62.26-13.49-1.44-16.93C944.28,607.92,935.32,613,935.32,613Z" transform="translate(-470.59 -153)"/><path class="cls-26" d="M880.2,616.49c-1.07,0,.42,5.48-1.19,10.91a2.77,2.77,0,0,1-2.55,2.2c-.83,0-1.81,0-2.81-.08a3.08,3.08,0,0,1-2.84-2.78l-1.31-14.08Z" transform="translate(-470.59 -153)"/><path class="cls-27" d="M850.46,466.82c.47,2.31,17.22,100,18.24,150.55a1.72,1.72,0,0,0,1.48,1.67,33.78,33.78,0,0,0,10.28-.06,1.23,1.23,0,0,0,1-1.12c.58-9.42,5.29-89.06-.47-126.56,0,0,47.62,100.23,54.84,127.86a1.43,1.43,0,0,0,1.48,1.09,36,36,0,0,0,9.65-1.71,2.52,2.52,0,0,0,1.59-3c-4-16.53-32.3-130.48-51.49-155.59Z" transform="translate(-470.59 -153)"/><path class="cls-28" d="M881,491.93a.63.63,0,0,0,.44-1.06l-6.37-6.52a.63.63,0,0,0-.9.87l6.38,6.52A.6.6,0,0,0,881,491.93Z" transform="translate(-470.59 -153)"/><path class="cls-29" d="M834.35,340.76c14.25-2.15,42.21-5.21,60.45.14l-2,56.37-66.08-7.13-5.6-8S823.73,342.35,834.35,340.76Z" transform="translate(-470.59 -153)"/><path class="cls-30" d="M867.26,310.58S868.58,333,868.33,340c0,0-18.35,3-22.72-.13l3.45-26.58Z" transform="translate(-470.59 -153)"/><path class="cls-31" d="M849.42,288.12s-7.39,13-8.56,20.08-3.2,11.57,4.9,13.9,15.51-1,20-7.75c0,0,7.08-10.33,6.24-15S849.42,288.12,849.42,288.12Z" transform="translate(-470.59 -153)"/><path class="cls-32" d="M863.53,308.93l-1-.12s5.25-8.36,1.64-10.32-18.26-6.62-20.92-12.28c-2.56-5.46.93-11.78,5.28-13.18a.56.56,0,0,1,.68.33l.28.69a.56.56,0,0,0,1,0h0a.56.56,0,0,1,1-.05c.82,1.7,3.22,4.57,10.26,6.67,10,3,16.29,7.83,15.69,14.89a.56.56,0,0,0,.82.55c.81-.37,2-.46,3.5,1.07,2.54,2.65.74,8.63-5.94,13a.57.57,0,0,0-.07.91c1,.84,2.51,2.74-2,4.58s-7.22,1.34-8.18,1a.56.56,0,0,1-.36-.63l1.06-6.2a.56.56,0,0,0-.5-.65Z" transform="translate(-470.59 -153)"/><path class="cls-33" d="M863.14,310.2s3.19-8.45,6.83-5.59-3.07,9.53-6.24,9.51Z" transform="translate(-470.59 -153)"/><path class="cls-34" d="M784,384.85l1.75-6.88a6.58,6.58,0,0,1,7.7-4.83l165,33.66a6.91,6.91,0,0,1,5.38,8.2l-10.06,47.69Z" transform="translate(-470.59 -153)"/><path class="cls-4" d="M768.34,468.51l12.41-89.21a3.2,3.2,0,0,1,3.85-2.67l169.5,37.64a6.66,6.66,0,0,1,5,8l-14.22,61.66Z" transform="translate(-470.59 -153)"/><path class="cls-35" d="M772.82,464.47l4.75-79.62a3.36,3.36,0,0,1,4-3.09L952.89,418a4.63,4.63,0,0,1,3.62,5.26l-9.12,57.52Z" transform="translate(-470.59 -153)"/><path class="cls-36" d="M760.41,483.29l10.78-86.24A7.51,7.51,0,0,1,780,390.6l175.63,33.15a6.55,6.55,0,0,1,5.23,7.66L946.07,510a7.11,7.11,0,0,1-7.92,5.72L767.89,493A8.7,8.7,0,0,1,760.41,483.29Z" transform="translate(-470.59 -153)"/><path class="cls-37" d="M841.84,402.26h0a6.74,6.74,0,0,1-7.87,5.38l-39.17-7.39a6.75,6.75,0,0,1-5.37-7.88h0a6.73,6.73,0,0,1,7.88-5.37l39.16,7.39A6.73,6.73,0,0,1,841.84,402.26Z" transform="translate(-470.59 -153)"/><path class="cls-38" d="M876.37,365.48,894.8,340.9s29.62,31.46,35.3,71.39l-18.48,9C905.89,407.86,895.34,389.64,876.37,365.48Z" transform="translate(-470.59 -153)"/><path class="cls-39" d="M902.78,476.2c2.18-3.65,6.44-10.6,8.52-12.77a8.88,8.88,0,0,0-5.53-.75c-3.64.44-6.49-1.33-6.38-3.31l17.35-5.32c.78-1.63,4.21-10.87-5.12-32.75l18.48-9a83.18,83.18,0,0,1-6.49,47.21s-5.74,17.82-12.33,21.77C894.08,491.59,901.94,477.61,902.78,476.2Z" transform="translate(-470.59 -153)"/></svg>