<svg id="Слой_1" data-name="Слой 1" xmlns="http://www.w3.org/2000/svg" viewBox="0 0 490.6 436.9"><defs><style>.cls-1{fill:#fff;}</style></defs><title>react-logo</title><path class="cls-1" d="M928.3,383.5c0-32.5-40.7-63.3-103.1-82.4,14.4-63.6,8-114.2-20.2-130.4a43.84,43.84,0,0,0-22.4-5.6v22.3A23.16,23.16,0,0,1,794,190c13.6,7.8,19.5,37.5,14.9,75.7-1.1,9.4-2.9,19.3-5.1,29.4a484.62,484.62,0,0,0-63.5-10.9,487.8,487.8,0,0,0-41.6-50c32.6-30.3,63.2-46.9,84-46.9V165h0c-27.5,0-63.5,19.6-99.9,53.6-36.4-33.8-72.4-53.2-99.9-53.2v22.3c20.7,0,51.4,16.5,84,46.6a472.31,472.31,0,0,0-41.3,49.9,467,467,0,0,0-63.6,11c-2.3-10-4-19.7-5.2-29-4.7-38.2,1.1-67.9,14.6-75.8,3-1.8,6.9-2.6,11.5-2.6V165.5h0a44.59,44.59,0,0,0-22.6,5.6c-28.1,16.2-34.4,66.7-19.9,130.1-62.2,19.2-102.7,49.9-102.7,82.3s40.7,63.3,103.1,82.4c-14.4,63.6-8,114.2,20.2,130.4,6.5,3.8,14.1,5.6,22.5,5.6,27.5,0,63.5-19.6,99.9-53.6,36.4,33.8,72.4,53.2,99.9,53.2a44.59,44.59,0,0,0,22.6-5.6c28.1-16.2,34.4-66.7,19.9-130.1C887.8,446.7,928.3,415.9,928.3,383.5ZM798.1,316.8c-3.7,12.9-8.3,26.2-13.5,39.5-4.1-8-8.4-16-13.1-24s-9.5-15.8-14.4-23.4C771.3,311,785,313.6,798.1,316.8ZM752.3,423.3c-7.8,13.5-15.8,26.3-24.1,38.2-14.9,1.3-30,2-45.2,2s-30.2-.7-45-1.9q-12.45-17.85-24.2-38Q602.4,404,593,383.8c6.2-13.4,13.2-26.8,20.7-39.9,7.8-13.5,15.8-26.3,24.1-38.2,14.9-1.3,30-2,45.2-2s30.2.7,45,1.9q12.45,17.85,24.2,38,11.4,19.65,20.8,39.8C766.7,396.8,759.8,410.2,752.3,423.3Zm32.3-13c5.4,13.4,10,26.8,13.8,39.8-13.1,3.2-26.9,5.9-41.2,8,4.9-7.7,9.8-15.6,14.4-23.7S780.5,418.3,784.6,410.3ZM683.2,517a412.27,412.27,0,0,1-27.8-32c9,.4,18.2.7,27.5.7s18.7-.2,27.8-.7A390.33,390.33,0,0,1,683.2,517Zm-74.4-58.9c-14.2-2.1-27.9-4.7-41-7.9,3.7-12.9,8.3-26.2,13.5-39.5,4.1,8,8.4,16,13.1,24S603.9,450.5,608.8,458.1ZM682.7,250a412.27,412.27,0,0,1,27.8,32c-9-.4-18.2-.7-27.5-.7s-18.7.2-27.8.7A390.33,390.33,0,0,1,682.7,250Zm-74,58.9c-4.9,7.7-9.8,15.6-14.4,23.7s-8.9,16-13,24c-5.4-13.4-10-26.8-13.8-39.8C580.6,313.7,594.4,311,608.7,308.9ZM518.2,434.1c-35.4-15.1-58.3-34.9-58.3-50.6s22.9-35.6,58.3-50.6c8.6-3.7,18-7,27.7-10.1a480.28,480.28,0,0,0,22.5,60.9,473.51,473.51,0,0,0-22.2,60.6C536.3,441.2,526.9,437.8,518.2,434.1ZM572,577c-13.6-7.8-19.5-37.5-14.9-75.7,1.1-9.4,2.9-19.3,5.1-29.4a484.62,484.62,0,0,0,63.5,10.9,487.8,487.8,0,0,0,41.6,50c-32.6,30.3-63.2,46.9-84,46.9A23.87,23.87,0,0,1,572,577Zm237.2-76.2c4.7,38.2-1.1,67.9-14.6,75.8-3,1.8-6.9,2.6-11.5,2.6-20.7,0-51.4-16.5-84-46.6a472.31,472.31,0,0,0,41.3-49.9,467,467,0,0,0,63.6-11A279.94,279.94,0,0,1,809.2,500.8Zm38.5-66.7c-8.6,3.7-18,7-27.7,10.1a480.28,480.28,0,0,0-22.5-60.9,473.51,473.51,0,0,0,22.2-60.6c9.9,3.1,19.3,6.5,28.1,10.2,35.4,15.1,58.3,34.9,58.3,50.6S883.1,419.1,847.7,434.1Z" transform="translate(-437.7 -165)"/><path class="cls-1" d="M582.8,165.4Z" transform="translate(-437.7 -165)"/><circle class="cls-1" cx="245.2" cy="218.5" r="45.7"/><path class="cls-1" d="M782.5,165.1Z" transform="translate(-437.7 -165)"/></svg>