<svg id="Слой_1" data-name="Слой 1" xmlns="http://www.w3.org/2000/svg" viewBox="0 0 58.39 127.95"><defs><style>.cls-1{fill:#fff;}.cls-2{fill:#62699d;}.cls-3{fill:#2a404b;}.cls-4{fill:#425866;}.cls-5{fill:#875534;}.cls-6{fill:#ffc310;}.cls-7{fill:#ffc983;}.cls-8{fill:#e0f2fc;}.cls-9{fill:#784321;}.cls-10{fill:#f0a86d;}</style></defs><title>reviews-man-5</title><path class="cls-1" d="M680,401c-.34-2.33-.67-4.51-1-6.69-1.68-11.88-3.4-23.75-5-35.63-.59-4.33-1-8.69-1.36-13a2.84,2.84,0,0,1,.76-1.7c1.26-1.61,2.93-2,5-1.85,3.87.23,7.75.21,11.62.28a2.91,2.91,0,0,1,2.84,3c-.18,4.3-.4,8.59-.62,12.89q-.7,14.16-1.43,28.31c-.17,3.45-.3,6.89-.56,10.33-.05.62-.65,1.21-1,1.79a5,5,0,0,1-5.52,2.36A20.09,20.09,0,0,0,680,401Z" transform="translate(-653.61 -294.82)"/><path class="cls-2" d="M675.69,345.05c1.91,1.39,4.12,2.95,6.28,4.59a1.11,1.11,0,0,0,1.63,0c2.16-1.73,4.37-3.4,6.84-5.3a18.58,18.58,0,0,1,.77,4.06c-.39,10.12-.9,20.24-1.37,30.36q-.42,9.31-.82,18.63a1.73,1.73,0,0,1-.91,1.49c-2.88,2.08-6.12,1.22-9.38,1.39-.2-1.76-.41-3.43-.59-5.11q-2.4-22.39-4.77-44.8a3.78,3.78,0,0,1,.53-1.76C674.45,347.4,675.08,346.25,675.69,345.05Z" transform="translate(-653.61 -294.82)"/><path class="cls-3" d="M678.94,401.31v-2.88h6.71v2.88Z" transform="translate(-653.61 -294.82)"/><path class="cls-4" d="M673.81,340.46c2.1,3.72,2.55,7.72,3.26,11.64,1.07,5.85,2.24,11.69,3.18,17.57a46.23,46.23,0,0,1,.25,6.87c0,8.17,0,16.34.06,24.52a2.33,2.33,0,0,1-.89,1.95c-1.71,1.47-3.36,3-5,4.53s-1.58,1.39-3-.07c-2.62-2.8-5.18-5.65-7.84-8.4a4.14,4.14,0,0,1-1.17-3.48c.47-5.55.92-11.11,1.39-16.66.29-3.56.62-7.12.86-10.69a14.51,14.51,0,0,0-.26-2.77c-.82-6-1.67-12-2.46-17.94a1.52,1.52,0,0,1,.56-1.23C666.41,344.32,670.11,342.41,673.81,340.46Z" transform="translate(-653.61 -294.82)"/><path class="cls-4" d="M691.43,340.36c3.87,2,7.53,3.92,11.14,5.88a1.62,1.62,0,0,1,.66,1.3c-.85,6.31-1.76,12.62-2.65,18.94a7.58,7.58,0,0,0-.09,1.65q.94,11.56,1.91,23.15a11.88,11.88,0,0,0,.18,2.16c.87,3.16-.49,5.45-2.65,7.57s-4.38,4.53-6.52,6.85a1.29,1.29,0,0,1-2.15.1c-1.91-1.76-3.86-3.46-5.75-5.24a1.94,1.94,0,0,1-.59-1.29c0-10.13-.11-20.26.1-30.39.06-3,1-6,1.49-8.92,1-5.35,1.9-10.71,3-16A48.68,48.68,0,0,1,691.43,340.36Z" transform="translate(-653.61 -294.82)"/><path class="cls-5" d="M668.61,399.84c-.67,3.94-1.3,7.74-1.94,11.55-.56,3.31-1.14,6.62-1.7,9.93a1.46,1.46,0,0,1-2,1.36c-1.89-.5-3.77-1-5.65-1.56-1.4-.4-1.78-.93-1.44-2.43.53-2.41,1.16-4.79,1.76-7.18,1-4.08,2-8.17,3.13-12.23.11-.43.91-1,1.28-1C664.21,398.71,666.37,399.3,668.61,399.84Z" transform="translate(-653.61 -294.82)"/><path class="cls-3" d="M674.85,349.56c-1.31-.49-2.43-.86-3.51-1.34a1.18,1.18,0,0,1-.61-.88c0-1.78.17-3.57.32-5.35a1.38,1.38,0,0,1,.51-.89c.82-.59,1.7-1.1,2.61-1.67a36.48,36.48,0,0,1,2.73,9.42c1.12,6.68,2.33,13.35,3.49,20,.06.33.06.66.12,1.36-.34-.61-.51-.88-.65-1.17-2.47-5.12-4.91-10.25-7.41-15.36a1.25,1.25,0,0,1,.22-1.66C673.4,351.29,674.07,350.47,674.85,349.56Z" transform="translate(-653.61 -294.82)"/><path class="cls-3" d="M691.84,339.74l.38.13c1.94.85,3,2.1,2.38,4.42a25.79,25.79,0,0,0-.37,4.38l-3.73.63c.83.91,1.6,1.66,2.25,2.51a1.56,1.56,0,0,1,.31,1.28c-2.5,5.35-5,10.68-7.59,16a3.23,3.23,0,0,1-.37.4c1.09-5.95,2.19-11.74,3.2-17.55.67-3.9,1.31-7.8,3.14-11.37C691.58,340.32,691.69,340.05,691.84,339.74Z" transform="translate(-653.61 -294.82)"/><path class="cls-3" d="M698.52,391c0,1.72-.39,2.94-2.06,3.62s-3.24,1.69-5,2.62a26.31,26.31,0,0,1-.65-2.62.9.9,0,0,1,.47-.73C693.68,392.94,696.07,392,698.52,391Z" transform="translate(-653.61 -294.82)"/><path class="cls-3" d="M669.52,391c0,1.72.39,2.94,2.07,3.62s3.23,1.69,5,2.62c.24-.92.5-1.76.65-2.62a.9.9,0,0,0-.47-.73C674.37,392.94,672,392,669.52,391Z" transform="translate(-653.61 -294.82)"/><path class="cls-6" d="M671.83,340.31c.39-2,.59-3.46,3.74-2.92s6.34,1.34,9.61.81c1.8-.29,3.62-.48,5.39-.87a1.13,1.13,0,0,1,1.42.59,3.54,3.54,0,0,1,.56,3.45,1.23,1.23,0,0,0-.08.38c-.16,2.33-1,4.16-3.26,5.26-2,.95-4,1.82-6.19,1.19a35.89,35.89,0,0,1-4.65-1.59c-1.52-.65-2.89-1.67-4.44-2.24C672.1,343.69,671.71,342.39,671.83,340.31Z" transform="translate(-653.61 -294.82)"/><path class="cls-7" d="M665.55,400.68l3.88-1.16c1.75,2,1.43,4.19.82,6.43C667.7,404.7,666.05,402.88,665.55,400.68Z" transform="translate(-653.61 -294.82)"/><path class="cls-7" d="M700.28,401c-.31,2.19-1.7,3.44-3.23,4.64a1.85,1.85,0,0,1-1.13-2.37c.26-1.06.17-2.17,1.19-3,.52-.41.86-.52,1.42-.18S699.7,400.67,700.28,401Z" transform="translate(-653.61 -294.82)"/><path class="cls-8" d="M669.34,399l-3.82,3.07c-1.19-1.66-1.18-1.74.3-3l2.45-2Z" transform="translate(-653.61 -294.82)"/><path class="cls-5" d="M665.83,399.07l-2,.07c1.06-18.8,2.1-37.49,3.15-56.23,1.45.24,1.5-.67,1.45.24-.58,11.77-1,25.21-1.61,37q-.42,8.55-.83,17.1C666,397.8,665.9,398.37,665.83,399.07Z" transform="translate(-653.61 -294.82)"/><path class="cls-8" d="M700.89,400.45l-1.4,2.29-3.3-3.08,1.06-1.44Z" transform="translate(-653.61 -294.82)"/><path class="cls-3" d="M664.16,401.22l-3.38-7.2q-3.45-7.33-6.87-14.68a2.32,2.32,0,0,1-.27-1.41q4.07-15.15,8.19-30.29c.15-.55.48-.26.91-.78.59,3.3,1,5.75,1.61,9.06.42,2.34.7,4.72,1.28,7,.77,3.07-.36,5.89-.84,8.8s-1.1,5.5-1.6,8.26a3.92,3.92,0,0,0,.16,1.86q2.46,7.45,5,14.86a1.25,1.25,0,0,1-.5,1.7C666.65,399.27,665.49,400.21,664.16,401.22Z" transform="translate(-653.61 -294.82)"/><path class="cls-3" d="M703.21,346.86c.2.62.5.32.6.67,2.63,9.82,5.18,19.66,8,29.43a5.54,5.54,0,0,1-.45,4.28c-3,6.3-5.94,12.63-8.91,18.94-.21.46-.45.91-.76,1.54-1.44-1.1-2.83-2.11-4.14-3.22-.21-.18-.15-.85,0-1.23,1.63-4.88,3.32-9.74,4.92-14.63a5.3,5.3,0,0,0,.14-2.47c-.81-4.44-1.8-8.84-2.53-13.29a13.13,13.13,0,0,1,.4-4.15c.84-5.08,1.74-10.15,2.63-15.22A4.32,4.32,0,0,1,703.21,346.86Z" transform="translate(-653.61 -294.82)"/><path class="cls-7" d="M697.1,319.49c3.39,1.1,4.25,4.83,1.65,7.37A20.68,20.68,0,0,1,696,328.6a2.35,2.35,0,0,0-.76,1,20.89,20.89,0,0,1-5.37,8.42c-4.25,3.78-9.49,3.79-13.74,0a19.49,19.49,0,0,1-5.14-7.81,2.34,2.34,0,0,0-1.78-1.54,5.77,5.77,0,0,1-3.84-4.25,3.48,3.48,0,0,1,1.17-4.09,13.3,13.3,0,0,1,2.38-1.1,22.47,22.47,0,0,1,1.54-9.25c1.56-4,3.82-7.45,7.84-9.39a11.08,11.08,0,0,1,12.27,1.9c4.36,4.11,6.18,9.33,6.47,15.19,0,.47,0,.94,0,1.41A2.86,2.86,0,0,0,697.1,319.49Z" transform="translate(-653.61 -294.82)"/><path class="cls-9" d="M694,297.49c.69.68,1.35,1,1.51,1.53.41,1.33.59,2.72.87,4.1,2,.31,2.12.54,1.68,2.56a3.78,3.78,0,0,0-.07.89c.09,2.53.31,5.06.25,7.58a30.18,30.18,0,0,1-.81,4.87c-.05.26-.51.66-.64.62a1.32,1.32,0,0,1-.76-.72,36.32,36.32,0,0,1-.83-3.86,9.61,9.61,0,0,0-3.08-5.59c-.19-.17-.36-.42-.58-.49a6.1,6.1,0,0,1-3.86-3.54c-1.65.5-3.22,1-4.8,1.43-1.78.52-2.11.37-2.89-1.25-3.54,0-6.89,2.94-8,5.84a49,49,0,0,0-1.38,5.68c-.18.79,0,2-1.19,1.88-.4,0-1-1.19-1-1.86-.26-3.77-.1-7.5,1.83-10.91a4.78,4.78,0,0,1,.6-1,5.67,5.67,0,0,0,1.81-3.84c.08-1.6,1.31-2.61,2.75-3.24,3.46-1.53,7.1-1.58,10.78-1.25,2.07.19,4.06.19,5.54-1.69.59-.75,1.4-.47,1.76.29A8,8,0,0,1,694,297.49Z" transform="translate(-653.61 -294.82)"/><path class="cls-9" d="M690.64,335.09c.46,1.65-.65,2.82-2,3.86-4.24,3.35-7.8,3.06-11.87-.92-1.88-1.84-1.2-4.2-.43-6.34a4.57,4.57,0,0,1,4.49-2.95,1.69,1.69,0,0,1,.75.09,5.23,5.23,0,0,1,.83.66,4.14,4.14,0,0,1-.86.77,17.22,17.22,0,0,0-2.52,1.08c-1.38.94-1.46,1.89-.57,3.54A2.89,2.89,0,0,0,682,336.6a4.63,4.63,0,0,1,2.28,0,2.89,2.89,0,0,0,3.64-1.73c.89-1.68.76-2.59-.73-3.61a15.36,15.36,0,0,0-2.19-.94,7.33,7.33,0,0,1-1.06-.72c.38-.27.72-.71,1.13-.78,2.69-.48,5.27,1.84,5.52,4.9C690.66,334.07,690.64,334.46,690.64,335.09Z" transform="translate(-653.61 -294.82)"/><path class="cls-10" d="M683.23,333.69c-1.16-.27-2.32-.47-3.44-.84-.3-.1-.44-.69-.65-1.06.4-.08.86-.33,1.21-.23a9.59,9.59,0,0,0,5.76,0c.34-.1.79.17,1.19.27-.23.37-.38.94-.7,1.05C685.53,333.23,684.4,333.42,683.23,333.69Z" transform="translate(-653.61 -294.82)"/><path class="cls-9" d="M691.45,317.22a23.88,23.88,0,0,1-2.63.4c-.42,0-.85-.32-1.27-.49.26-.38.46-1.05.77-1.11a16.16,16.16,0,0,1,3.73-.26c.44,0,.83.77,1.24,1.19-.48.13-1,.27-1.44.39a1.23,1.23,0,0,1-.38,0Z" transform="translate(-653.61 -294.82)"/><path class="cls-9" d="M675.87,315.34a15.87,15.87,0,0,1,2.38.74c.31.16.42.72.62,1.09-.35.17-.71.49-1,.48-1.31,0-2.62-.13-3.92-.26-.26,0-.68-.22-.7-.37s.11-.76.32-.85A21.11,21.11,0,0,1,675.87,315.34Z" transform="translate(-653.61 -294.82)"/><path class="cls-9" d="M689.81,318.88a1.65,1.65,0,0,1-.12,3.3,1.58,1.58,0,0,1-1.6-1.66A1.68,1.68,0,0,1,689.81,318.88Z" transform="translate(-653.61 -294.82)"/><path class="cls-9" d="M676.71,318.87a1.66,1.66,0,0,1,1.63,1.66,1.61,1.61,0,0,1-1.73,1.64,1.54,1.54,0,0,1-1.55-1.68A1.62,1.62,0,0,1,676.71,318.87Z" transform="translate(-653.61 -294.82)"/></svg>