<svg xmlns="http://www.w3.org/2000/svg" xmlns:xlink="http://www.w3.org/1999/xlink" viewBox="0 0 208.31 188.17"><defs><style>.cls-1{isolation:isolate;}.cls-2{fill:url(#Degradado_sin_nombre_36);}.cls-3{fill:url(#Degradado_sin_nombre_11);}.cls-4{fill:#022333;opacity:0.06;mix-blend-mode:multiply;}.cls-5{fill:#eacda4;}.cls-6{fill:#a7ceb9;}.cls-7{fill:#1a1a1a;}.cls-8{fill:#6f6357;}.cls-9{fill:#7ab8dd;}.cls-10{fill:#3c5d84;}.cls-11{fill:#eacdb0;}.cls-12{fill:#ce8d95;}.cls-13{fill:#3a3029;}.cls-14{fill:#4e4e4e;}.cls-15{fill:#29abe2;opacity:0.16;}.cls-16{fill:#333;}.cls-17{fill:#e9dcd4;}.cls-18{fill:#b3b8e2;}.cls-19{fill:#ce732e;}.cls-20{fill:#6c4e28;}.cls-21{fill:#d592c1;opacity:0.1;}.cls-22{fill:#d17c42;}.cls-23{fill:#116b84;}.cls-24{fill:#363636;}</style><linearGradient id="Degradado_sin_nombre_36" x1="579.69" y1="382.61" x2="775.54" y2="382.61" gradientUnits="userSpaceOnUse"><stop offset="0" stop-color="#2acaff"/><stop offset="1" stop-color="#2adfc3"/></linearGradient><linearGradient id="Degradado_sin_nombre_11" x1="599.9" y1="394.89" x2="787.72" y2="394.89" gradientUnits="userSpaceOnUse"><stop offset="0" stop-color="#76aadb"/><stop offset="1" stop-color="#4a72b2"/></linearGradient></defs><title>reviews-page</title><g class="cls-1"><g id="Слой_1" data-name="Слой 1"><path class="cls-2" d="M594.57,421.47s-40.92-40,12.95-75.92,112.1-52.15,146-47.9,25.38,86-3.89,135.65S650,480.22,594.57,421.47Z" transform="translate(-579.69 -296.99)"/><path class="cls-3" d="M766.8,336.34s47.07,32.57,0,77-101.73,70.26-135.89,71.78-39.48-80.47-19-134.38S702.27,287.75,766.8,336.34Z" transform="translate(-579.69 -296.99)"/><path class="cls-4" d="M589.64,461.21c3.09,7.55,19.63,5.83,25.9,6.12q19.35.9,38.7,1.35,38.71.9,77.44,0c13.69-.32,29.26.59,42.44-3.8,5-1.14,19.39-4.58,11.62-12.51-2.65-2.71-6.74-3.27-10.52-3.57-20.49-1.61-41.08.36-61.63.39-1.58,0-3.66-.44-3.77-2-.16-2.14,3.74-3.18,3.14-5.25-.34-1.17-1.88-1.41-3.11-1.42-19-.17-37.79-.52-56.83-.18-19.33.35-38.68,1.05-58,1.05a7.9,7.9,0,0,0-4.36.93c-3.58,2.45.44,5.77,3,6.36,2.93.67,6.38,1.35,7.66,4.07a2.54,2.54,0,0,1,0,2.38,3.13,3.13,0,0,1-2.65,1.1c-2.62.09-8.29-.68-9.22,2.95A3.2,3.2,0,0,0,589.64,461.21Z" transform="translate(-579.69 -296.99)"/><path class="cls-5" d="M626.07,367.17l-.13-.13a.59.59,0,0,1-.11-.7c.49-.7,1.62.6,1.44-.61,0-.33-1.36-1.91-1.24-2.08a2,2,0,0,1,2.91-.38,4.52,4.52,0,0,1,.8,2.17c.19,1.11.21,2.25.44,3.36a.37.37,0,0,1-.25.5c-.67.36-1.7,1-2.42.4a.79.79,0,0,1-.2-.34l-.4-1.05a2.22,2.22,0,0,0-.4-.76A5.46,5.46,0,0,0,626.07,367.17Z" transform="translate(-579.69 -296.99)"/><path class="cls-6" d="M633.11,378.47c-.15-.49-.32-1-.49-1.62s-1.88-8.8-1.9-8.79c-.27.06-4.26,1.09-4.31.81l1.26,6.72c.74,3.92.29,7.13-3.17,9.31-1.37.87-2.88,1.49-4.32,2.23a1.57,1.57,0,0,0-.61.47,1.69,1.69,0,0,0-.05,1.29,43.56,43.56,0,0,0,2.8,8,40.51,40.51,0,0,0,2.19,3.68c.14.24.33.51.61.5s.45-.31.57-.58l5.26-12C632.35,385.26,634.24,382.07,633.11,378.47Z" transform="translate(-579.69 -296.99)"/><path class="cls-5" d="M608.36,366.52a.53.53,0,0,0,.14-.12.55.55,0,0,0,.17-.68c-.43-.74-1.66.46-1.38-.73.08-.32,1.52-1.78,1.41-2a2,2,0,0,0-2.87-.62,4.53,4.53,0,0,0-1,2.09c-.28,1.1-.39,2.23-.72,3.32a.44.44,0,0,0,0,.3.58.58,0,0,0,.22.22c.65.42,1.62,1.15,2.39.59a.79.79,0,0,0,.23-.31l.48-1a2.27,2.27,0,0,1,.46-.72A5.74,5.74,0,0,1,608.36,366.52Z" transform="translate(-579.69 -296.99)"/><path class="cls-6" d="M600.4,377.2c.19-.48.41-1,.62-1.57s2.62-8.61,2.63-8.61c.27.09,4.16,1.45,4.23,1.17q-.9,3.3-1.82,6.6c-1.06,3.83-.88,7.07,2.39,9.54,1.29,1,2.74,1.72,4.11,2.58a1.58,1.58,0,0,1,.57.52,1.66,1.66,0,0,1-.06,1.29,43,43,0,0,1-3.45,7.75,40.26,40.26,0,0,1-2.49,3.49c-.17.23-.38.48-.65.45s-.43-.35-.53-.63l-4.23-12.43C600.59,384,599,380.7,600.4,377.2Z" transform="translate(-579.69 -296.99)"/><path class="cls-6" d="M616,385.28a7.42,7.42,0,0,0-2.7,0,6.23,6.23,0,0,0-3,2,21.67,21.67,0,0,0-4.06,7.63,95.89,95.89,0,0,0-3,10.23A39.46,39.46,0,0,0,602,418.17a1.77,1.77,0,0,0,.26.87,1.6,1.6,0,0,0,.91.49,23.07,23.07,0,0,0,4.22.6q8,.63,16,1.1a1.52,1.52,0,0,0,.9-.14,1.55,1.55,0,0,0,.53-1.12,64.83,64.83,0,0,0,.82-10.87c0-3-.27-6-.5-8.92-.18-2.29-.37-4.59-.55-6.89a12.63,12.63,0,0,0-.84-4.28C622.38,386,618.9,385.65,616,385.28Z" transform="translate(-579.69 -296.99)"/><path class="cls-7" d="M622.64,370.16a12.36,12.36,0,0,0-3.51-1.2,10,10,0,0,0-3.13-.2,6.59,6.59,0,0,0-4.31,2.43,12.19,12.19,0,0,0-2,5.53,28.12,28.12,0,0,0-.51,4.39,11.87,11.87,0,0,0,.09,2.15c.1.62.47.76,1,1a21.46,21.46,0,0,0,8.62,2,6.19,6.19,0,0,0,2.88-.24c1-.48,2.19-.81,3.27-1.23a1.69,1.69,0,0,0,.64-.36,1.65,1.65,0,0,0,.35-.77,19.54,19.54,0,0,0,.76-6.61,8.93,8.93,0,0,0-2.76-5.92A7.31,7.31,0,0,0,622.64,370.16Z" transform="translate(-579.69 -296.99)"/><path class="cls-5" d="M624,379a2.7,2.7,0,0,0,.16-1.26c0-.56-.45-1.73-1.13-1.2a.45.45,0,0,0-.09.1c0-.08,0-.16-.05-.24a13.4,13.4,0,0,0-.36-2.69,5.84,5.84,0,0,0-1-1.56,4.38,4.38,0,0,0-.86-.86,5.64,5.64,0,0,0-4.57-.61,4.72,4.72,0,0,0-2.51,1.74c-.14.19-1.64,2.48-1.14,2.6-.83-.19-1.31.27-1.53,1.07a2.9,2.9,0,0,0-.1,1.27,1.12,1.12,0,0,0,.65.86,4.39,4.39,0,0,0-.18,2.14,4.32,4.32,0,0,0,2,3,3,3,0,0,1,1.42,1.48,3.7,3.7,0,0,1,.15,1.1,1.69,1.69,0,0,0,.14.81,1.63,1.63,0,0,0,1.26.61,1.89,1.89,0,0,0,1.67-.26c.37-.37.36-1,.58-1.44.43-.91,1.68-1.36,2.49-1.88a5.41,5.41,0,0,0,2.12-2.51,4.21,4.21,0,0,0,.31-1.68A1.33,1.33,0,0,0,624,379Z" transform="translate(-579.69 -296.99)"/><path class="cls-7" d="M613.91,373.6a.36.36,0,0,0,0,.18c.07.1.23.06.35,0,2-.81,4.2-.56,6.32-.3.59.07,1.27.22,1.5.75l.56-2.07a.86.86,0,0,0,0-.59.77.77,0,0,0-.31-.28,11,11,0,0,0-5.49-1.47,3.09,3.09,0,0,0-2.62.95C613.77,371.5,614,372.79,613.91,373.6Z" transform="translate(-579.69 -296.99)"/><path class="cls-7" d="M623.06,378.26c0,.18,0,.35,0,.53a6.06,6.06,0,0,1-2.09,4.45c.23-.18,1,.17,1.27.2a6.85,6.85,0,0,0,1.81,0,.58.58,0,0,0,.29-.09.64.64,0,0,0,.17-.3,16.67,16.67,0,0,0,.91-4.5,15.69,15.69,0,0,0-1-4.95,3.13,3.13,0,0,0-.93-1.64,3,3,0,0,0-1.86-.45c.33,0,.7,1,.77,1.24a14.71,14.71,0,0,1,.3,1.61A20.83,20.83,0,0,1,623.06,378.26Z" transform="translate(-579.69 -296.99)"/><path class="cls-7" d="M612.46,376.26c-.05.17-.09.34-.13.51a6.07,6.07,0,0,0,.74,4.86c-.17-.23-1-.12-1.27-.16a7,7,0,0,1-1.74-.48.57.57,0,0,1-.26-.16.6.6,0,0,1-.07-.35,16.29,16.29,0,0,1,.4-4.57,15.45,15.45,0,0,1,2.39-4.45,3.18,3.18,0,0,1,1.36-1.31,3,3,0,0,1,1.91.1c-.31-.1-.95.76-1.09,1a15.37,15.37,0,0,0-.74,1.46A21.17,21.17,0,0,0,612.46,376.26Z" transform="translate(-579.69 -296.99)"/><polygon class="cls-5" points="39.41 134.59 38.37 146.44 35.18 159.17 31.9 158.3 32.59 145.62 32.18 137.71 39.41 134.59"/><path class="cls-7" d="M615.25,455.75a2.15,2.15,0,0,0-.07,1.59c.27.49.87.67,1,1.26a1.51,1.51,0,0,1-.05.76,1.26,1.26,0,0,1-.26.5,1.31,1.31,0,0,1-.89.25,5.47,5.47,0,0,1-1.46-.1,4.51,4.51,0,0,1-2.07-1.34c-.49-.49-1-.9-.9-1.7a2.75,2.75,0,0,1,.24-.68,6.74,6.74,0,0,0,.5-1.82l4.13.73C615.38,455.36,615.31,455.55,615.25,455.75Z" transform="translate(-579.69 -296.99)"/><polygon class="cls-5" points="18.15 126.04 10.6 135.23 3.96 146.56 6.92 148.23 15.3 138.7 21.13 133.33 18.15 126.04"/><path class="cls-7" d="M583.67,443a2.12,2.12,0,0,1-1.07,1.18c-.53.16-1.09-.12-1.61.19a1.39,1.39,0,0,0-.49.58,1,1,0,0,0-.16.54,1.32,1.32,0,0,0,.46.8,5.58,5.58,0,0,0,1.11,1,4.53,4.53,0,0,0,2.41.49c.7,0,1.36.06,1.83-.59a2.44,2.44,0,0,0,.31-.65,6.8,6.8,0,0,1,.91-1.65l-3.45-2.37Z" transform="translate(-579.69 -296.99)"/><path class="cls-8" d="M585,441.06l7.2-19.11,9.85-9.29,1.66.6c.71-2.17,1.86-4.08,2.72-6.24a66.22,66.22,0,0,0,2.69-8.73,1.39,1.39,0,0,1,.35-.74.88.88,0,0,1,.63-.13h.21q1.07-5.54,1.76-11.14c.08-.63-.24-.58.26-1a8.51,8.51,0,0,1,1.73-.23q-.45,6.29-.89,12.56,2.77.22,5.55.6.7-6.33,1.43-12.67a8.07,8.07,0,0,1,1.65.54c.42.5.12.39.08,1-.23,3.83-.33,7.68-.29,11.53l.35.05c.25,0,.85,6.76.94,7.44a33.75,33.75,0,0,0,1.28,6.4,12.68,12.68,0,0,1,.26,3.9l2.15,0-4.26,21.45-6.61,15.55-5.28-.83-1.49-21.75-19.57,13.28Z" transform="translate(-579.69 -296.99)"/><path class="cls-9" d="M640.54,350.69h.59a4.54,4.54,0,0,0,0-9.08H640a4.55,4.55,0,0,0,4.54-4.55,4.7,4.7,0,0,0-4.71-4.54h-8.93a6,6,0,0,1-3.69-5.71,23,23,0,0,1,.65-5.44,13.17,13.17,0,0,0,0-6.77,7.08,7.08,0,0,0-5.08-4.74,4.1,4.1,0,0,0-2.38.14,3.17,3.17,0,0,0-1.75,2.9,16.63,16.63,0,0,0,.56,3.41,8.78,8.78,0,0,1-.41,4.89c-1.22,3-4.3,5.06-7.16,7a43.27,43.27,0,0,0-4.58,3.61,3.69,3.69,0,0,0-1.07,1.7c-.09.24-.38,1.38-.73,1.38H592.52v28.15h6.1c2.47,0,5.9-.74,7.73,1.25a9.43,9.43,0,0,0,1.26,1.34c1.59,1.13,4.6.57,6.43.56h25.05a3.21,3.21,0,0,0,0-6.42h1.45a4.54,4.54,0,1,0,0-9.08Z" transform="translate(-579.69 -296.99)"/><rect class="cls-10" x="9.3" y="34.6" width="11.8" height="35.35" rx="4.47"/><path class="cls-11" d="M683.63,376c.22-.76.44-1.51.62-2.28l-.56-1.35c.15-.68.29-1.36.46-2,.21,0,1.1.05,1.13.26.08.44,0,.76.3,1.12a4.86,4.86,0,0,0,1-1.76c.22-.6.31-1.31,1.1-.9a1.27,1.27,0,0,1,.5.57,3.24,3.24,0,0,1,.37,1.88,6.15,6.15,0,0,0-.15,1.54c0,.09.07.14,0,.26a3.89,3.89,0,0,1-.79.92,5.37,5.37,0,0,0-.55.7c-.38.82-.67,1.42-1.07,2.16C685.26,376.73,684.44,376.39,683.63,376Z" transform="translate(-579.69 -296.99)"/><path class="cls-12" d="M678.74,384.14a17.31,17.31,0,0,0,1.79-3.48,43.15,43.15,0,0,1,3.21-5.63c.36.07,4.87,1.94,4.88,1.89l-3.09,9.89a9.86,9.86,0,0,1-1.53,3.34c-2.25,2.78-6.37,3.8-9.71,4.65a37.82,37.82,0,0,1-11.5,1.23,7.33,7.33,0,0,1-2.32-.59c-1.9-.75-2.42-2.64-2.27-4.61a3.91,3.91,0,0,1,1.73-3.07,6.44,6.44,0,0,1,3-.64,93.06,93.06,0,0,0,13.82-1.73A3.41,3.41,0,0,0,678.74,384.14Z" transform="translate(-579.69 -296.99)"/><path class="cls-13" d="M665.08,459.57c-.07,1.61-.44,3,.48,4.42a2.4,2.4,0,0,0,.74.78c.18.1.38.17.56.28s.3.22.46.32a2.64,2.64,0,0,0,2.27-.13c.36-.14.79-.39.76-.78a1.08,1.08,0,0,0-.28-.54,5.1,5.1,0,0,1-.93-1.88c-.07-.24-1.87-3.46-1.75-3.51Z" transform="translate(-579.69 -296.99)"/><polygon class="cls-14" points="94.14 121.59 93.2 141.31 89.29 163.49 85.06 163.53 83.59 141.9 80.07 125.55 94.14 121.59"/><path class="cls-13" d="M645.93,456.62a6.31,6.31,0,0,0,.54,1.07,8.68,8.68,0,0,0,2.48,2.57,1.23,1.23,0,0,0,.59.25c.56,0,.93-.59,1-1.15.13-1.16-.41-2.26-.46-3.4s.08-1.18-.72-1.8c-.21-.16-2.16-1.66-2.06-1.81-.83,1.35-1.94,2.06-1.47,3.92C645.85,456.39,645.89,456.5,645.93,456.62Z" transform="translate(-579.69 -296.99)"/><path class="cls-14" d="M650.49,455.66l-.24.27c-.07.08-.14.17-.23.19s-.26-.06-.36-.16a43.87,43.87,0,0,1-3.16-3.23l4.35-10.29a8.87,8.87,0,0,0,.75-2.32,9.6,9.6,0,0,0-.28-3.12c-.53-2.72-1-5.5-1.26-8.3a15,15,0,0,1,.16-5.62c.41-1.47,1.21-2.73,1.73-4.14a5.18,5.18,0,0,1,.84-1.77c.49-.53.79-.21,1.24-.07a8.55,8.55,0,0,0,1.82.41q2.45.17,4.89.45c.62.07,2.66-.11,3.09.43s0,3-.1,3.83q-.56,8.61-1.67,17.18a6.77,6.77,0,0,1-.23,1.19,6,6,0,0,1-.53,1.15,42.45,42.45,0,0,1-2.67,4.18c-1.24,1.71-2.59,3.28-3.94,4.85Z" transform="translate(-579.69 -296.99)"/><path class="cls-11" d="M652.94,375a3.43,3.43,0,0,1-.68-1.56,1.47,1.47,0,0,1,.22-1.32,1,1,0,0,1,1-.15,3.5,3.5,0,0,1,.81.49c.63-.75.42-2.35.89-3.29a7.16,7.16,0,0,1,1.37-1.7,5,5,0,0,1,1.13-.91,6.9,6.9,0,0,1,5.51-.19c3.69,1.38,3.57,5.46,4.13,8.7.45,2.58.41,5.15-2.41,6.38A3.67,3.67,0,0,0,663,383a4.54,4.54,0,0,0-.31,1.27,2,2,0,0,1-.27.92,2,2,0,0,1-1.57.57,2.3,2.3,0,0,1-2-.5c-.56-.68-.37-1.77-.82-2.54a9.69,9.69,0,0,0-1.42-1.51c-.49-.54-.92-1.13-1.41-1.67a3.45,3.45,0,0,1-1.19-2.52,1,1,0,0,0-.46-1.38A3.17,3.17,0,0,1,652.94,375Z" transform="translate(-579.69 -296.99)"/><path class="cls-13" d="M652.24,367.33a8.52,8.52,0,0,1,2.6-2.54,7.67,7.67,0,0,1,2.64-1.15c1.76-.3,6.23,1.52,7-.62a1.31,1.31,0,0,1,2.1-.37c.16.19.26.43.42.62a.61.61,0,0,0,.68.21c.31-.15.3-.6.57-.8s.84.09.94.48c.06.23,0,.49,0,.7s.16.22.22.37c.11.34.24.62,0,1-.08.14-.21.25-.28.4a2,2,0,0,0,0,.92,2.83,2.83,0,0,1-.77,1.86,5,5,0,0,1,.36,2,11.93,11.93,0,0,1-1.34,3.36,3.26,3.26,0,0,1-.37-1.06,4.62,4.62,0,0,0-1.17-2.06c-.27-.29-.58-.53-.84-.83l-.13,0a2.5,2.5,0,0,1-.81.13c-.94-.07-1.88,0-2.85,0a8.12,8.12,0,0,0-3,.32,3,3,0,0,0-2,2.07c-.1.44-.09,1-.44,1.25-1.22,1-1.75-1.35-2.75-.93-.73.31-.21,1.49.11,1.95s.65.74.93,1.15a1.35,1.35,0,0,1,.16,1.39.37.37,0,0,1-.27.2c-.14,0-.24-.12-.33-.23a11.54,11.54,0,0,1-2.41-5.21A6.73,6.73,0,0,1,652.24,367.33Z" transform="translate(-579.69 -296.99)"/><path class="cls-12" d="M674.69,415.74c-.18-2.3-.44-4.6-.6-6.91s-.38-4.59-.68-6.88c-.63-4.87-1.67-9.68-4.69-13.63a9.26,9.26,0,0,0-2.3-2.37c-.64-.4-1.64-.47-2.15-1a2,2,0,0,1-.25-1.69c-1.83,0-3.82,0-5.72-.11-1.48-.08-1.18.68-1.75,1.68s-2.14,1.59-3,2.39a9.22,9.22,0,0,0-1.88,2.73,22,22,0,0,0-1.83,5.26,35.86,35.86,0,0,0-.6,5.38,187.14,187.14,0,0,0-.13,18.8,12.82,12.82,0,0,0,.34,3.67c.41,1.05,1.58.9,2.62,1.05a50.21,50.21,0,0,0,21.85-1.54,1.42,1.42,0,0,0,.73-.4,1.66,1.66,0,0,0,.22-.94A52.24,52.24,0,0,0,674.69,415.74Z" transform="translate(-579.69 -296.99)"/><path class="cls-15" d="M666.58,372.4a1.11,1.11,0,0,0-.51-.15,1.51,1.51,0,0,0-1.33.93,1.7,1.7,0,0,0,2,2.51,1.36,1.36,0,0,0,.95-1.26A2.19,2.19,0,0,0,666.58,372.4Z" transform="translate(-579.69 -296.99)"/><path class="cls-15" d="M661.46,372.25a1.75,1.75,0,0,0-.68-.17,2.08,2.08,0,0,0-1.82,1.07,1.81,1.81,0,0,0,0,2.19,2.55,2.55,0,0,0,2.59.71,1.68,1.68,0,0,0,1.29-1.46A2.45,2.45,0,0,0,661.46,372.25Z" transform="translate(-579.69 -296.99)"/><path class="cls-16" d="M661.52,372.07a2.16,2.16,0,0,0-2.75,1,2.06,2.06,0,0,0,.05,2.43,2.7,2.7,0,0,0,2.27.87,2.44,2.44,0,0,0,.54-.09,1.88,1.88,0,0,0,1.41-1.63A2.66,2.66,0,0,0,661.52,372.07Zm1.35,2.52a1.68,1.68,0,0,1-1.29,1.46,2.55,2.55,0,0,1-2.59-.71,1.81,1.81,0,0,1,0-2.19,2.08,2.08,0,0,1,1.82-1.07,1.75,1.75,0,0,1,.68.17A2.45,2.45,0,0,1,662.87,374.59Z" transform="translate(-579.69 -296.99)"/><path class="cls-16" d="M666.63,372.24a1.51,1.51,0,0,0-2,.85,2,2,0,0,0,.08,2.08,1.94,1.94,0,0,0,1.69.77,1.86,1.86,0,0,0,.41-.08,1.55,1.55,0,0,0,1-1.4A2.41,2.41,0,0,0,666.63,372.24Zm1,2.19a1.36,1.36,0,0,1-.95,1.26,1.7,1.7,0,0,1-2-2.51,1.51,1.51,0,0,1,1.33-.93,1.11,1.11,0,0,1,.51.15A2.19,2.19,0,0,1,667.68,374.43Z" transform="translate(-579.69 -296.99)"/><path d="M664.41,374a.68.68,0,0,0-.68-.34c-.24,0-.64.21-.71.48a.07.07,0,0,0,.06.09c.2,0,.33-.18.5-.25a.48.48,0,0,1,.62.16C664.3,374.33,664.49,374.18,664.41,374Z" transform="translate(-579.69 -296.99)"/><path class="cls-9" d="M726.53,410h.76a5.84,5.84,0,0,0,0-11.67h-1.42a5.83,5.83,0,0,0,5.83-5.83,6,6,0,0,0-6.05-5.84H714.18c-3.48-1.56-4.6-4.31-4.74-7.33a29.71,29.71,0,0,1,.84-7,17,17,0,0,0,0-8.7,9.08,9.08,0,0,0-6.54-6.08,5.11,5.11,0,0,0-3.05.17,4.07,4.07,0,0,0-2.25,3.72,21.29,21.29,0,0,0,.72,4.39,11.27,11.27,0,0,1-.52,6.27c-1.57,3.87-5.54,6.5-9.21,9a56,56,0,0,0-5.88,4.64,4.78,4.78,0,0,0-1.38,2.18c-.11.3-.48,1.77-.93,1.77H664.85v36.15h7.83c3.17,0,7.57-.94,9.93,1.62a10.51,10.51,0,0,0,1.62,1.71c2,1.45,5.91.73,8.25.73q14.4,0,28.8,0h3.38a4.12,4.12,0,1,0,0-8.24h1.87a5.84,5.84,0,1,0,0-11.67Z" transform="translate(-579.69 -296.99)"/><rect class="cls-10" x="80.62" y="88.45" width="15.16" height="45.41" rx="4.47"/><path class="cls-11" d="M665.78,400.29l2.07-.79.71-1.07,1.72-.66s.52.94.38,1a1.15,1.15,0,0,0-.66.72,3.19,3.19,0,0,0,2.39-.3.63.63,0,0,1,1,.66,1.71,1.71,0,0,1-.35.73,16.69,16.69,0,0,1-1.41,1.62,1.09,1.09,0,0,1-.56.39,1.32,1.32,0,0,1-.44,0,8.06,8.06,0,0,0-2.65-.32c-.61.09-1.24.27-1.84.39Z" transform="translate(-579.69 -296.99)"/><path class="cls-12" d="M656.46,399.26c.89.73,2.6.43,3.66.36.62,0,6.25-1.1,6.4-.84a7.12,7.12,0,0,1,.87,2.72c.12,1.23,0,1.27-1,1.72a35.44,35.44,0,0,1-5.61,1.67c-2.29.55-4.47,1.45-6.75,2-1.82.44-5.68,1.54-6.57-.86a5.28,5.28,0,0,1-.16-2.31,40.08,40.08,0,0,1,1.31-7.11,8.66,8.66,0,0,1,1.37-3.1c1.61-2.06,5.78-2.12,6.44.88.38,1.69-1.38,3.33-.06,4.73A.86.86,0,0,0,656.46,399.26Z" transform="translate(-579.69 -296.99)"/><path class="cls-9" d="M771.39,356.21l.53,0a4.11,4.11,0,1,0-.38-8.22l-1,0a4.11,4.11,0,0,0,3.91-4.3,4.24,4.24,0,0,0-4.45-3.91l-3.07.14-5,.23a5.45,5.45,0,0,1-3.58-5,20.47,20.47,0,0,1,.36-4.95,11.86,11.86,0,0,0-.3-6.12,6.41,6.41,0,0,0-4.8-4.07,3.62,3.62,0,0,0-2.14.22A2.87,2.87,0,0,0,750,323a14.94,14.94,0,0,0,.66,3.06,8,8,0,0,1-.17,4.44c-1,2.77-3.68,4.75-6.19,6.65a41,41,0,0,0-4,3.45,3.4,3.4,0,0,0-.89,1.58c-.08.22-.29,1.27-.6,1.28l-11.53.54,1.18,25.45,5.51-.25c2.24-.11,5.31-.91,7,.81a8.14,8.14,0,0,0,1.2,1.15c1.49,1,4.18.33,5.83.25q10.14-.5,20.28-1l2.38-.11a2.9,2.9,0,1,0-.27-5.8l1.16-.06h.16a4.11,4.11,0,1,0-.38-8.22Z" transform="translate(-579.69 -296.99)"/><rect class="cls-10" x="724.69" y="340.83" width="10.68" height="32.01" rx="0.93" transform="translate(-595.46 -262.72) rotate(-2.66)"/><path class="cls-17" d="M738.56,374.82c0-.24,0-.48,0-.72l0-1.18A7.79,7.79,0,0,0,738,370a.62.62,0,0,0-.15-.29c-.19-.18-.5-.09-.74,0a3.2,3.2,0,0,0-.4-.78,1,1,0,0,0-.75-.41,1.06,1.06,0,0,0-.94.95c-.06.32,0,.7-.25.94a2.13,2.13,0,0,0-.21.22.63.63,0,0,0-.05.31v1.27a.86.86,0,0,0,.06.39,1,1,0,0,0,.29.31c1.1.95,1.37,3.27,1.61,4.63a.41.41,0,0,0,.11.28.58.58,0,0,0,.29.09c.74.09,2.11.38,2.13-.67a11.08,11.08,0,0,0-.36-1.34A8,8,0,0,1,738.56,374.82Z" transform="translate(-579.69 -296.99)"/><path class="cls-18" d="M751.68,399a12,12,0,0,1-.89,1.65,2.12,2.12,0,0,1-1.92,1c-.89-.11-1.49-.93-2-1.66a31.11,31.11,0,0,0-4-4.51c-3.75-3.47-6.33-5.69-7.22-10.93a29.71,29.71,0,0,1-.13-4.12c0-1.41.1-2.81,0-4.23a.57.57,0,0,1,0-.34.58.58,0,0,1,.38-.23c.78-.21,2.36-.65,3.13-.33s.85,1.35,1.09,2.33c.13.55,1.28,6.1,1.5,6.1a6.83,6.83,0,0,0,5.88,5.61,25.33,25.33,0,0,0,4.52.32c1.32,0,1.25,1,1.31,2.21A17.17,17.17,0,0,1,751.68,399Z" transform="translate(-579.69 -296.99)"/><path class="cls-17" d="M772.67,369.88h0a.59.59,0,0,0,.62-.43,1.34,1.34,0,0,0,0-1.37,3.58,3.58,0,0,1-.67-1.37c-.06-.79.73-1,1.34-1l.63,0a1.38,1.38,0,0,1,1.25.74,8.9,8.9,0,0,1,1,1.75.31.31,0,0,1,0,.23c0,.07-.09.12-.14.17-1,.84-.75,2.63-.68,3.77a.44.44,0,0,1,0,.3.54.54,0,0,1-.25.16c-.71.25-1.79.74-2.4.05a.89.89,0,0,1-.14-.35,4.82,4.82,0,0,0-.27-1.15c-.2-.36-.64-.51-.86-.86s-.81-.94-.47-1.21a.41.41,0,0,1,.46,0C772.3,369.5,772.42,369.8,772.67,369.88Z" transform="translate(-579.69 -296.99)"/><path class="cls-18" d="M771.79,393.92c.89-.76,1.8-1.49,2.73-2.2a5.73,5.73,0,0,0,2.28-3,25.86,25.86,0,0,0,.2-5c.1-3.66.22-7.32.31-11a32.79,32.79,0,0,0-4.3,0c-1.38.31-1.43,1-1.71,2.35a99.79,99.79,0,0,0-1.53,10.17,2.32,2.32,0,0,1-.26,1,2.48,2.48,0,0,1-.8.71c-2.1,1.36-4.54,3.61-7.2,3.5-.25,0-.55,0-.69.18a.59.59,0,0,0-.08.34,3.59,3.59,0,0,0,.52,1.64l3.45,6.83a.82.82,0,0,0,.23.32c.32.23.75-.09,1-.38A68.5,68.5,0,0,1,771.79,393.92Z" transform="translate(-579.69 -296.99)"/><path class="cls-19" d="M750.55,376.18a14.66,14.66,0,0,0-.22,1.62,8.21,8.21,0,0,1-.1,1.79,6.9,6.9,0,0,1-.57,1,3.73,3.73,0,0,0,0,3.62c.21.37.49.71.67,1.11a5.87,5.87,0,0,1,.33,2.09,13.49,13.49,0,0,0,.47,2,6.24,6.24,0,0,1-.32,3,1.65,1.65,0,0,0-.12.69c0,.36.39.5.71.55a67.6,67.6,0,0,0,11.73.42c-.3,0,0-2.82.06-3.05a15.42,15.42,0,0,1,1-3.25,5.4,5.4,0,0,0,.56-1.67c.05-.84-.37-1.72,0-2.49s1-1.15,1.12-1.93a4.19,4.19,0,0,0-.85-2.53,9.08,9.08,0,0,1-.95-1.83,12.41,12.41,0,0,0-.38-1.6,7.81,7.81,0,0,0-2.29-2.84,4.45,4.45,0,0,0-1.15-.72,5,5,0,0,0-1.59-.3,31.64,31.64,0,0,0-3.65.18,5.06,5.06,0,0,0-4.49,4.07Z" transform="translate(-579.69 -296.99)"/><path class="cls-17" d="M764.89,380.26a1.21,1.21,0,0,0-1.15-.64,1.15,1.15,0,0,0-.61.23,10.72,10.72,0,0,0-.49-2.3,4.17,4.17,0,0,0-.71-1.41,3.76,3.76,0,0,0-1.07-.87,6.66,6.66,0,0,0-4.56-.76,5.09,5.09,0,0,0-4.11,3.35,8,8,0,0,0-.43,2v.09a1.2,1.2,0,0,0-1.59.57,1.69,1.69,0,0,0,0,1.36,2.66,2.66,0,0,0,.87,1.07,1.55,1.55,0,0,0,.77.35,6,6,0,0,0,2.16,4.27c.92.67.92.94.92,2.14a2,2,0,0,0,.63,1.66,1.88,1.88,0,0,0,.93.28,8.45,8.45,0,0,0,1.33.05,1.57,1.57,0,0,0,1-.27,1.78,1.78,0,0,0,.42-1.47c0-1.44,0-1.26,1-2a5.48,5.48,0,0,0,1.64-1.84A9.8,9.8,0,0,0,763,383a.56.56,0,0,0,.21.06,1.43,1.43,0,0,0,.95-.38,2.58,2.58,0,0,0,.83-1.1A1.66,1.66,0,0,0,764.89,380.26Z" transform="translate(-579.69 -296.99)"/><path class="cls-20" d="M754,382.93c-.12,0-.13.18,0,.18S754.14,382.94,754,382.93Z" transform="translate(-579.69 -296.99)"/><path class="cls-20" d="M753.28,383.86a.09.09,0,1,0,0,.17C753.38,384,753.39,383.86,753.28,383.86Z" transform="translate(-579.69 -296.99)"/><path class="cls-20" d="M755.63,383.71v0a.09.09,0,0,0,.18,0v0A.09.09,0,0,0,755.63,383.71Z" transform="translate(-579.69 -296.99)"/><path class="cls-20" d="M757.41,383.21a.09.09,0,1,0,0,.18C757.51,383.39,757.52,383.21,757.41,383.21Z" transform="translate(-579.69 -296.99)"/><path class="cls-20" d="M758.11,383.5c-.12,0-.12.18,0,.18A.09.09,0,0,0,758.11,383.5Z" transform="translate(-579.69 -296.99)"/><path class="cls-20" d="M760.72,383.72v0c0,.11.17.12.18,0v0C760.9,383.61,760.72,383.6,760.72,383.72Z" transform="translate(-579.69 -296.99)"/><path class="cls-20" d="M761.64,383.07a.09.09,0,1,0,0,.18C761.74,383.25,761.75,383.07,761.64,383.07Z" transform="translate(-579.69 -296.99)"/><path class="cls-20" d="M760.3,383a.09.09,0,0,0,0,.18C760.41,383.14,760.42,383,760.3,383Z" transform="translate(-579.69 -296.99)"/><path class="cls-20" d="M759.81,383.45a.09.09,0,1,0,0,.17C759.91,383.63,759.92,383.45,759.81,383.45Z" transform="translate(-579.69 -296.99)"/><path class="cls-20" d="M761,383.11h0c-.12,0-.12.18,0,.18h0A.09.09,0,1,0,761,383.11Z" transform="translate(-579.69 -296.99)"/><path class="cls-20" d="M754.18,383.65h0a.09.09,0,0,0-.09.12.08.08,0,0,0,0,.09l0,0a.09.09,0,0,0,.15-.1A.1.1,0,0,0,754.18,383.65Z" transform="translate(-579.69 -296.99)"/><path class="cls-20" d="M753.39,383.21c-.11,0-.12.17,0,.17A.09.09,0,1,0,753.39,383.21Z" transform="translate(-579.69 -296.99)"/><path class="cls-20" d="M756.05,382.83v0a.09.09,0,0,0,.18,0v0A.09.09,0,0,0,756.05,382.83Z" transform="translate(-579.69 -296.99)"/><path class="cls-21" d="M756.34,383.68s0,0,0-.07A.73.73,0,0,0,756,383a1.93,1.93,0,0,0-.79-.17,9.4,9.4,0,0,0-1.3,0,3.08,3.08,0,0,0-1,.18,1.24,1.24,0,0,0-.69.66.81.81,0,0,0,.28,1c.41.22,1.07,0,1.49-.09a15.16,15.16,0,0,0,1.61-.22A1,1,0,0,0,756.34,383.68Z" transform="translate(-579.69 -296.99)"/><path class="cls-21" d="M762.23,384a.09.09,0,0,0,0-.06.7.7,0,0,0-.21-.74,1.88,1.88,0,0,0-.72-.36,8.94,8.94,0,0,0-1.26-.32,2.89,2.89,0,0,0-1-.07c-.4.06-1.06.35-1,.82a.85.85,0,0,0,.11.26,1.16,1.16,0,0,0,.59.45,3.78,3.78,0,0,0,.74.17,10.74,10.74,0,0,0,1.78.25A1,1,0,0,0,762.23,384Z" transform="translate(-579.69 -296.99)"/><path class="cls-22" d="M760.8,377.47a3.32,3.32,0,0,0,.35.93,22.54,22.54,0,0,1,1.43,2,4.89,4.89,0,0,1,0,3.12,24.55,24.55,0,0,1-.78,2.66,1.88,1.88,0,0,0-.22,1c.06.29.3.5.38.79.29,1-1,2.12-1.83,2.4a6.91,6.91,0,0,0,3.36,2.42c.57.18,1.39-2,1.53-2.31a4.65,4.65,0,0,0,.16-3.42c-.24-.69-.64-1.31-.91-2a6,6,0,0,1-.37-3.17,10.77,10.77,0,0,0,.31-1.93,5.53,5.53,0,0,0-.23-1.34,11.36,11.36,0,0,0-1.52-3.76c-.74-1-2.06-2.1-3.4-1.9a3.6,3.6,0,0,0-2,1c-.33.34-1.3,1.34-.33,1.6a8.67,8.67,0,0,0,1.61.22,4.33,4.33,0,0,1,1.56.4A1.73,1.73,0,0,1,760.8,377.47Z" transform="translate(-579.69 -296.99)"/><path class="cls-22" d="M755.05,376.23c-.77.18-2,.47-2.16,1.38s.39,1.8.08,2.77a5,5,0,0,1-.79,1.31,2.8,2.8,0,0,0-.48,2.42c.29.83,1.13,1.38,1.35,2.23s-.32,1.85-.24,2.79,0,1.26-.87,1.55a3.1,3.1,0,0,0-1.22.6c-.1.09-.75,1.17-.45,1.23-.85-.17-1.84-.45-2.15-1.26a1.7,1.7,0,0,1,.13-1.36,4.09,4.09,0,0,1,.9-1.09,2.33,2.33,0,0,0,.53-.6,1.84,1.84,0,0,0-.07-1.57,6.2,6.2,0,0,1-.56-1.52c-.2-1.63,1.38-2.46,2-3.76.89-1.93-.78-4.28,0-6.25a4.76,4.76,0,0,1,1.16-1.59,4.6,4.6,0,0,1,2.57-1.52c1.29-.14,2.33,1,2.9,2a7.87,7.87,0,0,1,.39.83c.2.51.28.51-.17.74a12.34,12.34,0,0,1-2.74.67Z" transform="translate(-579.69 -296.99)"/><polygon class="cls-23" points="172.61 128.75 177.88 146.08 183.49 156.39 187.63 155.82 185.78 142.66 188.3 128.66 172.61 128.75"/><path class="cls-24" d="M762.92,453.84c.13.29.28.58.44.86.39.66.2,1.05.11,1.77a2.68,2.68,0,0,0,.35,1.83,2.12,2.12,0,0,0,1.86.85c1.25,0,1.62-1.16,2-2.25l.59-1.54c.14-.37.27-.86,0-1.15a1.2,1.2,0,0,1-.26-.24.82.82,0,0,1-.1-.3c-.11-.65-.19-1.31-.34-1.94-.87.07-1.67,0-2.56.13a22.62,22.62,0,0,0-2.32.45.31.31,0,0,0-.25.16.37.37,0,0,0,0,.23A11.13,11.13,0,0,0,762.92,453.84Z" transform="translate(-579.69 -296.99)"/><polygon class="cls-23" points="166.38 128.13 167.94 147.64 171.4 164.03 174.81 163.43 175.52 150.25 179.01 129.05 166.38 128.13"/><path class="cls-24" d="M750.75,460.54a2.5,2.5,0,0,1-.08,1.72c-.32.49-.95.63-1.16,1.25a1.89,1.89,0,0,0,0,.82,1.28,1.28,0,0,0,.22.57,1.27,1.27,0,0,0,.88.35,4.9,4.9,0,0,0,1.48.05,4.55,4.55,0,0,0,2.22-1.23c.54-.48,1.11-.87,1.07-1.74a3.34,3.34,0,0,0-.17-.76,8.06,8.06,0,0,1-.34-2l-4.24.36Z" transform="translate(-579.69 -296.99)"/><path class="cls-18" d="M751.35,390.76l-.1.13a14.87,14.87,0,0,0-1.74,3.21c-4.14,9.79-5.1,20.62-5.26,31.26,0,2.13.56,2.51,2.52,2.51,2.26,0,4.52,0,6.79.05l7.91.05c1.24,0,6,.76,6.77-.39a2.23,2.23,0,0,0,.22-1.26c-.05-2.5-.11-5-.2-7.51-.29-8.88-.85-18-4.61-26.06-.66-1.41-2.45-4.86-4.49-3.62a6.6,6.6,0,0,0-.76.64,2.87,2.87,0,0,1-2.36.87,2.91,2.91,0,0,1-1.69-1.22.65.65,0,0,0-.28-.24.48.48,0,0,0-.31,0A4.13,4.13,0,0,0,751.35,390.76Z" transform="translate(-579.69 -296.99)"/></g></g></svg>