<svg id="Слой_1" data-name="Слой 1" xmlns="http://www.w3.org/2000/svg" viewBox="0 0 132.92 171.88"><defs><style>.cls-1{fill:#e7bfa8;}.cls-2{fill:#f0dfcb;}.cls-3{fill:#645046;}.cls-4{fill:#c79c83;}.cls-5{fill:#992425;}.cls-6{fill:#b53232;}.cls-7{fill:#fff;}.cls-8{fill:#363636;}.cls-9{fill:#494949;}.cls-10{fill:#741e1f;}</style></defs><title>reviews-man-6</title><rect class="cls-1" x="47.94" y="76.61" width="36.84" height="33.81"/><path class="cls-1" d="M652.49,351.06s-2.34-2.14-4.27-1.27-2.74,4.73-1.94,7.54,4.4,10,6.21,10.94a9.93,9.93,0,0,0,4.73.6Z" transform="translate(-616.54 -299.89)"/><path class="cls-1" d="M713.32,351.06s2.33-2.14,4.27-1.27,2.73,4.73,1.93,7.54-4.4,10-6.2,10.94a10,10,0,0,1-4.74.6Z" transform="translate(-616.54 -299.89)"/><path class="cls-2" d="M714.66,331.5c-1.73-18.15-20.15-24.28-31.76-24.28s-30,6.13-31.76,24.28,7,46.45,9.07,48.92,13.87,8.42,15.77,8.82a43.81,43.81,0,0,0,13.84,0c1.91-.4,13.7-6.36,15.77-8.82S716.4,349.65,714.66,331.5Z" transform="translate(-616.54 -299.89)"/><path class="cls-3" d="M652.47,353s6.53-9.08,8.94-26H648.8s-2.43,13.77,1.15,22.71Z" transform="translate(-616.54 -299.89)"/><path class="cls-3" d="M713.34,353s-6.54-9.08-8.94-26H717s2.42,13.77-1.16,22.71Z" transform="translate(-616.54 -299.89)"/><path class="cls-3" d="M671.22,354.18c0,1.81-1.08,3.28-2.41,3.28s-2.4-1.47-2.4-3.28,1.08-3.27,2.4-3.27S671.22,352.37,671.22,354.18Z" transform="translate(-616.54 -299.89)"/><path class="cls-3" d="M672.72,348.2c1.12,0,1.25-2.5,0-3.75s-7.51-1.3-9.16-.55S667.56,348.25,672.72,348.2Z" transform="translate(-616.54 -299.89)"/><path class="cls-3" d="M694.59,354.18c0,1.81,1.07,3.28,2.4,3.28s2.4-1.47,2.4-3.28-1.07-3.27-2.4-3.27S694.59,352.37,694.59,354.18Z" transform="translate(-616.54 -299.89)"/><path class="cls-3" d="M693.08,348.2c-1.12,0-1.25-2.5,0-3.75s7.51-1.3,9.16-.55S698.24,348.25,693.08,348.2Z" transform="translate(-616.54 -299.89)"/><path class="cls-4" d="M682.9,369a9,9,0,0,1-2.8-.71,2.85,2.85,0,0,0,5.6,0A9,9,0,0,1,682.9,369Z" transform="translate(-616.54 -299.89)"/><path class="cls-5" d="M673.9,375.39c1,3.45,4.66,6,9,6s8-2.55,9-6Z" transform="translate(-616.54 -299.89)"/><path class="cls-6" d="M689.67,378.87c-1.24-1.68-3.8-2.84-6.77-2.84s-5.52,1.16-6.77,2.84a10.35,10.35,0,0,0,13.54,0Z" transform="translate(-616.54 -299.89)"/><path class="cls-7" d="M690.93,375.39H674.87a3.92,3.92,0,0,0,2.23,1.79,37,37,0,0,0,5.8.42h0a36.91,36.91,0,0,0,5.8-.42A3.92,3.92,0,0,0,690.93,375.39Z" transform="translate(-616.54 -299.89)"/><path class="cls-8" d="M735.88,419.34l-34.56-22.88c-4,6.35-8,13.13-18.42,13.13s-14.36-6.07-18.42-12.38l-33.1,22.38L616.54,460s34.57,10.65,66.46,11.78c31.89-1.13,66.46-11.78,66.46-11.78Z" transform="translate(-616.54 -299.89)"/><path class="cls-9" d="M682.88,413.89c12.51,0,17.44-8,22.28-15.62L701.32,396c-4,6.35-8,13.13-18.42,13.13s-14.36-6.07-18.42-12.38l-4,2.32C665.4,406.64,670.34,413.89,682.88,413.89Z" transform="translate(-616.54 -299.89)"/><path class="cls-5" d="M664.66,396.46s2.09,29,1.93,48,0,26,0,26-12.82-.79-35.16-6.45l-3-45.85S656.89,400.76,664.66,396.46Z" transform="translate(-616.54 -299.89)"/><path class="cls-5" d="M701.32,396.46s-2.09,29-1.93,48,0,26,0,26,12.82-.79,35.16-6.45l3-45.85S709.09,400.76,701.32,396.46Z" transform="translate(-616.54 -299.89)"/><path class="cls-10" d="M749.46,460l-11.91-41.83c-4.94,15.73-7.79,41.21-8.4,47.08C741.25,462.52,749.46,460,749.46,460Z" transform="translate(-616.54 -299.89)"/><path class="cls-10" d="M616.54,460l11.91-41.83c4.94,15.73,7.79,41.21,8.4,47.08C624.75,462.52,616.54,460,616.54,460Z" transform="translate(-616.54 -299.89)"/><path class="cls-3" d="M658.3,327.67s8.75,10.59,19.33,14.34a26.79,26.79,0,0,0-1.5-9.5,44,44,0,0,0,18,8.75,22.29,22.29,0,0,0,0-8s9.08,7.41,18.58,10.66c0,0,4.78-2.08,5.1-6.75s2.69-18-11.31-29.95c-11.42-9.79-40.09-11-51.12,4-10.64,7.15-12.5,22.38-5.43,38.47Z" transform="translate(-616.54 -299.89)"/><path class="cls-10" d="M699.69,427l14.61-8-5.72-19.17-7.26-6S700,411.49,699.69,427Z" transform="translate(-616.54 -299.89)"/><path class="cls-10" d="M666.29,427l-14.61-8,5.72-19.17,7.26-6S666,411.49,666.29,427Z" transform="translate(-616.54 -299.89)"/><path class="cls-8" d="M711,347.42c-.62-.08-5.15-.3-5.15-.3l-.35,0-2.7-.14-2.5,0c-1.62,0-3.19,0-4.62,0h-2.07l-1.82.08-.83,0-.4,0h-.45a3.76,3.76,0,0,0-1.77.76,3.57,3.57,0,0,0-.4.37h0a5.48,5.48,0,0,1-2.9,1.38h-4.3a5.48,5.48,0,0,1-2.9-1.38h0a3.46,3.46,0,0,0-.39-.37,3.85,3.85,0,0,0-1.78-.76h-.45l-.39,0-.84,0-1.82-.08h-2.06c-1.44,0-3,0-4.62,0L663,347l-2.7.14-.35,0s-4.52.22-5.15.3a1.56,1.56,0,0,0-1.48,1.55c0,1,0,1.61.4,2s1.06.33,1.56.74a3.46,3.46,0,0,1,.56,1.51,14.66,14.66,0,0,0,.25,1.5v0a17.59,17.59,0,0,0,.8,2.69,9.69,9.69,0,0,0,1.54,2.71c.17.21.38.4.57.6l0,0,.08.06,0,0,.07.05.14.1.28.2c.25.15.52.29.77.42s.49.19.73.28a19.62,19.62,0,0,0,5.61.81,26.92,26.92,0,0,0,5.22-.37,11,11,0,0,0,1.23-.3l.15,0,.08,0h0l.09,0,.27-.12.53-.23a5.8,5.8,0,0,0,1.08-.63,6.52,6.52,0,0,0,.93-.76,8.67,8.67,0,0,0,2.56-4.46c.05-.27.1-.53.15-.77,0-.05,0-.09,0-.14h0a2.73,2.73,0,0,1,2.62-1.8h2.38a2.73,2.73,0,0,1,2.62,1.8h0l0,.14c0,.24.09.5.15.77a6.08,6.08,0,0,0,.27,1,9.45,9.45,0,0,0,2.28,3.51,6.1,6.1,0,0,0,.94.76,5.8,5.8,0,0,0,1.08.63l.52.23.27.12.09,0h0l.08,0,.15,0a10.66,10.66,0,0,0,1.24.3,26.82,26.82,0,0,0,5.21.37,19.62,19.62,0,0,0,5.61-.81c.24-.09.48-.17.73-.28s.53-.27.77-.42l.28-.2.15-.1.07-.05v0l.08-.06,0,0a8,8,0,0,0,.57-.6,10,10,0,0,0,1.55-2.71,18.75,18.75,0,0,0,.79-2.69v0a14.66,14.66,0,0,0,.25-1.5,3.46,3.46,0,0,1,.56-1.51c.5-.41,1.12-.4,1.57-.74s.37-.92.4-2A1.56,1.56,0,0,0,711,347.42Zm-33.8,7.3c0,.23,0,.49,0,.76s0,.43-.13.67a7.07,7.07,0,0,1-1.74,3,4.65,4.65,0,0,1-.71.63,4.16,4.16,0,0,1-.82.54l-.52.24-.25.11h0l-.07,0-.13,0a10.68,10.68,0,0,1-1.08.26,22.39,22.39,0,0,1-4.91.31,16.09,16.09,0,0,1-5.07-.95l-.55-.26-.45-.26-.27-.22-.14-.11,0,0h0l0,0c-.12-.15-.25-.28-.37-.44a8.17,8.17,0,0,1-1.08-2.24,15,15,0,0,1-.6-2.57,14.4,14.4,0,0,1-.21-2.56c0-.13,0-.12,0-.17s0-.05,0-.12l0-.06a3.12,3.12,0,0,1,.19-.49,2.51,2.51,0,0,1,.54-.77,2.45,2.45,0,0,1,.75-.46l.2-.08.33-.08.16,0,.08,0h0l.3,0,2.48-.22,2.47-.08c1.61-.08,3.1,0,4.48,0,.69,0,1.35,0,2,.07l1.82.17,1.52.14a1.84,1.84,0,0,1,.69.32,3,3,0,0,1,.76,1.09c.14.33.24.6.24.59a.42.42,0,0,0,0,.07.91.91,0,0,1,.06.29,13.06,13.06,0,0,1,.12,1.71C677.22,353.8,677.22,354.25,677.21,354.72Zm30.39-.58a15,15,0,0,1-.6,2.57,8.17,8.17,0,0,1-1.08,2.24c-.11.16-.25.29-.37.44l0,0h0l0,0-.14.11-.27.22-.45.26c-.16.09-.37.17-.55.26a16,16,0,0,1-5.07.95,22.29,22.29,0,0,1-4.9-.31,10.88,10.88,0,0,1-1.09-.26l-.13,0-.06,0h0l-.24-.11-.52-.24a4,4,0,0,1-.83-.54,4.65,4.65,0,0,1-.71-.63,7.18,7.18,0,0,1-1.74-3c-.08-.24-.08-.47-.13-.67s0-.53,0-.76c0-.47,0-.92,0-1.31a15.15,15.15,0,0,1,.12-1.71.91.91,0,0,1,.06-.29.42.42,0,0,0,0-.07s.1-.26.25-.59a3,3,0,0,1,.75-1.09,1.84,1.84,0,0,1,.69-.32l1.53-.14,1.81-.17c.64,0,1.29,0,2-.07,1.38,0,2.87-.08,4.48,0l2.46.08,2.48.22.3,0h0l.09,0,.16,0,.32.08.2.08a2.45,2.45,0,0,1,.75.46,2.51,2.51,0,0,1,.54.77,3.12,3.12,0,0,1,.19.49l0,.06c0,.07,0,.11,0,.12s0,0,0,.17A14.44,14.44,0,0,1,707.6,354.14Z" transform="translate(-616.54 -299.89)"/></svg>