<svg id="Слой_1" data-name="Слой 1" xmlns="http://www.w3.org/2000/svg" viewBox="0 0 125.96 220.81"><defs><style>.cls-1{fill:#fcc397;}.cls-2{fill:#e5e5e5;}.cls-3{fill:#333;}.cls-4{fill:#161616;}.cls-5{fill:#515151;}.cls-6{fill:#ea9f6c;}.cls-7{fill:#875d41;}.cls-12,.cls-8{fill:#fff;}.cls-9{fill:#7b9368;}.cls-10{fill:#ea8c63;}.cls-11{fill:#d87350;}.cls-12{opacity:0.4;}.cls-13{fill:#212121;}.cls-14{fill:#5fa6b2;}</style></defs><title>reviews-man-3</title><path class="cls-1" d="M706,366.45c-4-1.6-7.69-5.53-8.49-8.46l-.24-11.15c-2.46,1.75-4.78,2.93-7.57,4.72-1.31.32-6.41.47-8.06-.05a72.25,72.25,0,0,1-13.15-9.2l-.49,16c-1,2.81-4.85,6.41-8.83,8L683,372.47Z" transform="translate(-619.05 -274.99)"/><path class="cls-2" d="M697.41,431a3.91,3.91,0,0,1,2.83.68V373h-37V436.1C671.22,435.24,681,433.5,697.41,431Z" transform="translate(-619.05 -274.99)"/><path class="cls-3" d="M741.67,378.51A14.62,14.62,0,0,0,728,369l-22-2.56c-.86-.34-3.87-.79-4.67-1.31l-17.48,68-1.55.24L664.37,363a19.13,19.13,0,0,1-5.23,3.31L637.31,369a14.58,14.58,0,0,0-13.41,8.86c-4.57,8.94-5.82,41.08-4.12,58.95.86,10.94,4.85,23.49,15.67,25.66a53,53,0,0,0,7.55.84c-.58,25.91-.47,21.78-.61,24.39a102.42,102.42,0,0,0,80.54-.32l-.36-22c8.46-1.07,15-2.93,16.45-5.68C746.08,446.5,746.82,388.75,741.67,378.51Z" transform="translate(-619.05 -274.99)"/><path class="cls-4" d="M721.3,402.46s-3,18.74-4.31,29.63c-.59.51-6.07,2.28-6.07,2.28S715.35,424.49,721.3,402.46Z" transform="translate(-619.05 -274.99)"/><path class="cls-5" d="M662.67,469.22l-3.68,0a18.3,18.3,0,0,1,.39,3.5,17.68,17.68,0,0,1-12,16.92c1,.37,3.06,1.08,5,1.68a21.23,21.23,0,0,0,10.22-22.15Z" transform="translate(-619.05 -274.99)"/><path class="cls-6" d="M681.78,348.66a79,79,0,0,1-13.57-5.83V350c2.21,1.41,5.5,3.56,7.79,5a9.56,9.56,0,0,0,3.31.93h8.41A8.94,8.94,0,0,0,691,355c1.85-1.22,4-2.93,6.27-4.45v-7.9A101.38,101.38,0,0,1,681.78,348.66Z" transform="translate(-619.05 -274.99)"/><path class="cls-1" d="M710.67,311.77a3.24,3.24,0,0,0-2.34.16c.31-9.06.23-17.18-.92-19-6.37-10-13.86-14.35-24.88-14.76h0c-11,.41-17.68,4.76-24,14.76-1.18,1.85-1.38,10.33-1.21,19.65a3.81,3.81,0,0,0-3.48-.84c-2.43.82-3.29,4.8-1.91,8.89,1.19,3.53,3.65,6,5.87,6.07.2,4.48.42,8.41.57,11a7.8,7.8,0,0,0,2.45,4.71c6.22,4.26,10.58,7.27,14.44,9.55a7.25,7.25,0,0,0,2.65.75h8.93a11.08,11.08,0,0,0,3-.83c3.81-2.24,8.12-5.23,14.22-9.34a8,8,0,0,0,2.76-4.71c.2-2.6.51-6.65.8-11.27,1.95-.61,3.92-2.85,5-5.89C713.94,316.58,713.1,312.6,710.67,311.77Z" transform="translate(-619.05 -274.99)"/><path class="cls-7" d="M688.85,307.81c.81-.32,10.46-2.76,12.63,2.4,1.83,4.33-2-.26-4.85-.59a40.57,40.57,0,0,0-7.44-.38C688,309.26,687.76,308.24,688.85,307.81Z" transform="translate(-619.05 -274.99)"/><path class="cls-7" d="M675.17,308.15c-.76-.35-10.08-2.65-12.31,1.94-2,4.18,1.94-.18,4.73-.42a60.58,60.58,0,0,1,7.19-.1C675.92,309.57,676.2,308.62,675.17,308.15Z" transform="translate(-619.05 -274.99)"/><path class="cls-8" d="M675.63,315.92A16.2,16.2,0,0,1,669.7,317c-2.39,0-4.57-.81-4.57-2.32s2.15-2.61,4.58-2.61S675.29,314.78,675.63,315.92Z" transform="translate(-619.05 -274.99)"/><path class="cls-9" d="M672.13,314.59a2.31,2.31,0,1,1-2.3-2.44A2.36,2.36,0,0,1,672.13,314.59Z" transform="translate(-619.05 -274.99)"/><path d="M671.37,314.6a1.48,1.48,0,1,1-1.48-1.56A1.52,1.52,0,0,1,671.37,314.6Z" transform="translate(-619.05 -274.99)"/><path class="cls-8" d="M672.18,314.63a.76.76,0,0,1-1.48,0,.77.77,0,0,1,1.48,0Z" transform="translate(-619.05 -274.99)"/><path class="cls-6" d="M675.64,315.93s-.85-1.37-4.19-2.38c-2.4-.72-6,.33-6.06,2-1-.73-1-2.08,1.53-3a7,7,0,0,1,8.39,2.71A2.2,2.2,0,0,1,675.64,315.93Z" transform="translate(-619.05 -274.99)"/><path class="cls-8" d="M688.66,315.92a14.36,14.36,0,0,0,5.85,1.09c2.39-.06,4.57-.67,4.57-2.18s-2.07-2.73-4.49-2.73S689,314.78,688.66,315.92Z" transform="translate(-619.05 -274.99)"/><path class="cls-9" d="M692.13,314.52a2.31,2.31,0,1,0,2.31-2.43A2.38,2.38,0,0,0,692.13,314.52Z" transform="translate(-619.05 -274.99)"/><path d="M693,314.54a1.48,1.48,0,1,0,1.47-1.56A1.52,1.52,0,0,0,693,314.54Z" transform="translate(-619.05 -274.99)"/><path class="cls-8" d="M695.26,314.38a.77.77,0,0,0,1.48,0,.76.76,0,0,0-1.48,0Z" transform="translate(-619.05 -274.99)"/><path class="cls-6" d="M688.65,315.93s.85-1.37,4.19-2.38c2.4-.72,6,.33,6.06,2,1-.73.91-2.14-1.65-3.09a6.85,6.85,0,0,0-8.27,2.77A2.46,2.46,0,0,0,688.65,315.93Z" transform="translate(-619.05 -274.99)"/><path class="cls-6" d="M683.91,329.24h-3.85a3,3,0,0,1-2.79-2.13,3.6,3.6,0,0,0-.21,1.2c0,1.84,2.25,2.43,3.9,2.43h2c1.66,0,3.91-.59,3.91-2.43a3.6,3.6,0,0,0-.21-1.2A3,3,0,0,1,683.91,329.24Z" transform="translate(-619.05 -274.99)"/><path class="cls-6" d="M652.11,314.75c0-.33.62-1.81,1.43-1.55,1.23.39,2,2.78,2.53,5.18s.27,4.15,0,3.5c-.39-.91-.74-3.81-2.21-6.54C652.89,313.52,652.31,317.35,652.11,314.75Z" transform="translate(-619.05 -274.99)"/><path class="cls-6" d="M712.36,314.75c0-.33-.62-1.81-1.43-1.55-1.23.39-2,2.78-2.52,5.18s-.28,4.15,0,3.5c.38-.91.73-3.81,2.2-6.54C711.58,313.52,712.16,317.35,712.36,314.75Z" transform="translate(-619.05 -274.99)"/><path class="cls-7" d="M702.24,279.53c-4.15-7.24-27.74-4.14-35.26-2.07s-12.44,6.22-12.18,12.7c.23,5.6.26,18.17.26,21.48a4.35,4.35,0,0,1,1.9.76l1.47,6.79L660,308.56s-3.11-20.73,17.11-17.1c-2.85,1.55-8,7-8,7s11.92-2.86,16.59-4.67,0,3.89,0,3.89,9.07-3.37,11.92-4.41,5.7-.26,6.22,4.67,1.81,23.58,1.81,23.58l3.26-9.77a4.13,4.13,0,0,1,.76-.12c.1-2,.23-4.43.39-7.47C711.57,274.61,705.35,285,702.24,279.53Z" transform="translate(-619.05 -274.99)"/><path class="cls-10" d="M675.2,337.64c.17.91,1.63,3.09,2.48,3.09h8.52c.85,0,2.31-2.18,2.48-3.09Z" transform="translate(-619.05 -274.99)"/><path class="cls-11" d="M685.93,338.05c-1.81-.23-7.76-.13-8.69-.09-2.37.11-3.76-1.21-3.67-1.47.14-.41.45-.31.71.09s1.8.24,2.57.07c3.93-.85,2.92.1,4.84.13s1.18-.88,4.59-.11c1.15.26,2.73.66,3.31.37.4-.2.7-.42.81,0S688.81,338.4,685.93,338.05Z" transform="translate(-619.05 -274.99)"/><rect class="cls-12" x="42.44" y="33.99" width="17.35" height="11.9" rx="4.05"/><rect class="cls-12" x="65.74" y="33.99" width="17.35" height="11.9" rx="4.05"/><path class="cls-13" d="M709.65,310.25l-7.54.16a4,4,0,0,0-3.48-2H688.42a4.05,4.05,0,0,0-4.06,4.05v.72a27.54,27.54,0,0,0-5,0v-.73a4,4,0,0,0-4-4.05H665.12a4,4,0,0,0-3.54,2.11l-6.54-.17v1.31l6,2.42v3.28a4.05,4.05,0,0,0,4,4.05h10.21a4.05,4.05,0,0,0,4-4.05v-2.43a30.68,30.68,0,0,1,5,0v2.44a4.06,4.06,0,0,0,4.06,4.05h10.21a4.06,4.06,0,0,0,4-4.05V314l7-2.42Zm-31.58,6.65a3.47,3.47,0,0,1-3.47,3.48h-8.75a3.48,3.48,0,0,1-3.48-3.48v-4.19a3.48,3.48,0,0,1,3.48-3.48h8.75a3.47,3.47,0,0,1,3.47,3.48Zm23.3,0a3.48,3.48,0,0,1-3.47,3.48h-8.76a3.47,3.47,0,0,1-3.47-3.48V315a.43.43,0,0,1,0,0s0-.05,0-.07v-2.13a3.47,3.47,0,0,1,3.47-3.48h8.76a3.48,3.48,0,0,1,3.47,3.48Z" transform="translate(-619.05 -274.99)"/><path class="cls-4" d="M646.09,402.71s1.27,15.45,1.77,18.74,2.28,15.2,2.28,15.2l10.38-.51S651.15,425.76,646.09,402.71Z" transform="translate(-619.05 -274.99)"/><path class="cls-14" d="M682.27,433.36l1.35-.21,5.18-20.34-3.56-28.23,4.31-6.23L687,371.51l-8.78-.25L676,378.71l4,5.75-4.07,23.82Z" transform="translate(-619.05 -274.99)"/><path class="cls-5" d="M693,431.67l15-28.06-1.93-9.67,9.43-1.7L714,367.36l-7.34-1.06a16.68,16.68,0,0,1-3.12-1.71l-3.84,5.51-16,63Z" transform="translate(-619.05 -274.99)"/><path class="cls-5" d="M658.46,403.37l16.23,31.18,7.58-1.19-16.16-63.5-3.85-5.23a17.91,17.91,0,0,1-3.12,1.7l-6.87.85L651,392l9.44,1.7Z" transform="translate(-619.05 -274.99)"/><path class="cls-1" d="M642.31,432.89l4.16,3.66c8.37.51,14.82,0,25-1.53-4.12-4.88-4.59-5.6-5.41-6.16l-12.92-11.37c-1.61-1.42-3.61-1.79-4.45-.83s-.21,2.88,1.4,4.3l10.25,9-.23.19L649,420.34c-1.62-1.42-3.61-1.79-4.45-.84s-.22,2.89,1.39,4.31l10.65,9.37-.19.16L645.72,424c-1.51-1.33-3.38-1.69-4.17-.78s-.21,2.7,1.31,4L653,436.17l-.22.19-7.64-6.73c-1.51-1.33-3.38-1.68-4.17-.78S640.79,431.56,642.31,432.89Z" transform="translate(-619.05 -274.99)"/><path class="cls-4" d="M671.5,462c-10.17,1-20.61,1.71-28.7,1.29v9.55l23.8-5.57,56,5.57v-7.49C703.86,467.72,675.68,466.22,671.5,462Z" transform="translate(-619.05 -274.99)"/><path class="cls-5" d="M709,482a17.51,17.51,0,0,1-2.86-9.61c0-.41,0-.8.06-1.2l-3.63-.36c0,.51-.06,1-.06,1.56A21.28,21.28,0,0,0,713.37,491c2.08-.67,3.55-1.2,5-1.75A17.78,17.78,0,0,1,709,482Z" transform="translate(-619.05 -274.99)"/><path class="cls-4" d="M662.17,463s28.3-2.34,39.88-7.21c1.37-.58,1-5.83,1-8.17.89,2.72,2.49,9.44.57,10.89C698.58,462.26,675,464.19,662.17,463Z" transform="translate(-619.05 -274.99)"/><rect class="cls-8" x="699.87" y="430.37" width="4.81" height="16.85" transform="translate(-727.78 -3.52) rotate(-20.34)"/><path class="cls-1" d="M717.07,431.85l-13.13-1a4,4,0,0,0-1.91.34l5.43,14.65c5.08-2.07,7.27-3.69,8.1-6.42.41-1.37,1-4.14,1.53-7.57Z" transform="translate(-619.05 -274.99)"/><path class="cls-4" d="M681.43,468.55v27.24h1.18V468.55Z" transform="translate(-619.05 -274.99)"/><path class="cls-5" d="M689.78,482.66a2.36,2.36,0,1,1-2.36-2.36A2.37,2.37,0,0,1,689.78,482.66Z" transform="translate(-619.05 -274.99)"/><path class="cls-3" d="M688.54,482.66a.36.36,0,0,1-.37.37.37.37,0,0,1-.37-.37.38.38,0,0,1,.37-.37A.37.37,0,0,1,688.54,482.66Z" transform="translate(-619.05 -274.99)"/><path class="cls-3" d="M687,482.66a.36.36,0,0,1-.37.37.37.37,0,0,1-.37-.37.38.38,0,0,1,.37-.37A.37.37,0,0,1,687,482.66Z" transform="translate(-619.05 -274.99)"/><polygon class="cls-8" points="48.36 82.91 63.84 96.21 52.47 107.58 41.35 90.41 48.36 82.91"/><polygon class="cls-8" points="79.32 82.91 63.84 96.21 75.2 107.58 86.33 90.41 79.32 82.91"/></svg>