<svg id="Слой_1" data-name="Слой 1" xmlns="http://www.w3.org/2000/svg" viewBox="0 0 189.39 265.34"><defs><style>.cls-1{fill:#963f04;}.cls-2{fill:#e27d39;}.cls-3{fill:#3e5068;}.cls-4{fill:#fcc397;}.cls-5{fill:#ea9f6c;}.cls-6{fill:#663412;}.cls-7{fill:#fff;}.cls-8{fill:#7b9368;}.cls-9{fill:#b7642c;}.cls-10{fill:#ffb18a;}.cls-11{fill:#c6523c;}.cls-12{fill:#fc7365;}.cls-13{fill:#5a6c92;}.cls-14{fill:#3f3f3f;}.cls-15{fill:#e26954;}.cls-16{fill:#c2c4c2;}.cls-17{fill:#369e3b;}.cls-18{fill:#72dd5b;}.cls-19{fill:#40c140;}.cls-20{fill:#fcea9d;}.cls-21{fill:#515151;}.cls-22{fill:#3a3a3a;}.cls-23{fill:#dbdbdb;}.cls-24{fill:#752b0b;}.cls-25{fill:#9b5e26;}.cls-26{fill:#d87736;}.cls-27{fill:#e0a43b;}</style></defs><title>reviews-woman-1</title><path class="cls-1" d="M770.12,404.57c-5.33-3.31-4.2-7.57-2.55-12.75A34.21,34.21,0,0,0,771,381.66c2.81-15.34-5.72-23.16-12.06-28.89-8.17-7.38-1.75-10.93-.42-18.28,2.36-13-8.68-17-7.15-24.19,2.77-13-8.18-28.44-21.64-41.59h0c-6.29-8.61-16-12.38-27.15-13.75-22-2.7-35.92,12.53-44.1,34.15-10.44,27.6,2.31,60.25,30.35,63.84,4.57.59,37.45,46.93,39.38,55.15s33.27,3.37,27.53,17.8c-2.59,6.5,1.19,8,3.53,7.67,5.67-.8,2.91-5.91,2.91-5.91s.22,4.29-2.76,3.76c-1.32-.23-2.6-1.56-.17-4.55,4.12-5.09,6.34-7.06,1.43-15.12-3.11-5.13-1.79-7.93.84-11.4A11.56,11.56,0,0,0,762,402c1.42,4.35,7.94,6.73,8.89,9.8s-7.9,4.55-4,11.36c-.26-5.63,2.95-4.69,5.74-6.31C777.47,414,776.06,408.27,770.12,404.57Z" transform="translate(-587.42 -252.38)"/><polygon class="cls-2" points="74.53 56.62 79.86 60.06 84.94 75.91 79.86 75.42 76.04 68.11 74.53 56.62"/><path class="cls-3" d="M708.32,353a16.13,16.13,0,0,0-4.44-.55c-1.36.23,1.14,3.36,1.14,3.36S708.08,354.06,708.32,353Z" transform="translate(-587.42 -252.38)"/><path class="cls-4" d="M712.91,362.5c-6.15-2.12-9.12-8.41-8.71-12.33.16-1.53,1.46-12.2,1.46-12.2-7.78,3.77-14.18,6.59-14.18,6.59s-6.06-3.56-13.26-7.41c0,0-1.32,11-1.44,11.9-1.52,11.53-8.36,11.89-16.4,13.46l9.43,40.82Z" transform="translate(-587.42 -252.38)"/><path class="cls-5" d="M678.75,332.85l-.86,7a76.32,76.32,0,0,0,10.45,7.83,3.75,3.75,0,0,0,2.94.48A90.11,90.11,0,0,0,705,343l.84-6.84Z" transform="translate(-587.42 -252.38)"/><path class="cls-4" d="M728.25,303.89a3.72,3.72,0,0,0-2.79-.11c2.11-9.17,3.81-18.48,2.67-20.87a37.55,37.55,0,0,0-27.62-20.8h0a37.54,37.54,0,0,0-31.82,13.51c-1.67,2-2.28,11.3-2.45,20.62a3.47,3.47,0,0,0-2-.21c-2.85.59-4.36,5-3.37,9.74.81,3.94,3.06,7,5.41,7.57.06,2.65.12,4.31.12,4.31,3.8,15.63,17.76,24.8,22.35,27.43a3.93,3.93,0,0,0,3,.42c4.92-1.38,20.93-6.87,28.47-21.25,0,0,.45-1.6,1.15-4.15,2.55.49,5.88-2,7.81-5.94C731.27,309.75,730.87,305.15,728.25,303.89Z" transform="translate(-587.42 -252.38)"/><path class="cls-6" d="M704.07,297.28c.6-.32,5.35-2.5,9.76-1.75,1.86.31,3.28,1.27,5.21,3-1.31-.35-3.29-1.69-5-1.89-4-.44-8,1.47-9.37,2.18S702.89,297.9,704.07,297.28Z" transform="translate(-587.42 -252.38)"/><path class="cls-6" d="M688.82,295.42c-.53-.49-5.78-3.78-8.9-3.74a11.26,11.26,0,0,0-5,1.52c-4.6,2.58,1.72-1,4.81-.29a21.25,21.25,0,0,1,8.22,3.9C688.86,297.69,689.78,296.29,688.82,295.42Z" transform="translate(-587.42 -252.38)"/><path class="cls-7" d="M688.27,303.72c-3.6.73-5,1.28-6.89,1.13-2.74-.22-4.79-2.05-4.58-3.75s2.59-2.82,5.32-2.48S688,302.39,688.27,303.72Z" transform="translate(-587.42 -252.38)"/><path class="cls-8" d="M684.4,302.12a2.9,2.9,0,1,1-2.5-3.39A3,3,0,0,1,684.4,302.12Z" transform="translate(-587.42 -252.38)"/><path d="M683.61,301.71a2,2,0,1,1-1.7-2.3A2,2,0,0,1,683.61,301.71Z" transform="translate(-587.42 -252.38)"/><path class="cls-7" d="M684,301.48a.83.83,0,0,1-1,.6c-.51-.06-.89-.43-.84-.83a.84.84,0,0,1,1-.6C683.64,300.71,684,301.08,684,301.48Z" transform="translate(-587.42 -252.38)"/><path d="M688,302.94c-1.75-4.28-6.76-5.05-10.19-4.23-3,.72-3.5.08-3.6-.07-.09,1.12,1.1,3.57,4.06,5.08a3.39,3.39,0,0,1-1.42-2c.52-1.77,4.53-2.39,7-1.28,3.62,1.6,4.39,3.26,4.39,3.26A3.31,3.31,0,0,0,688,302.94Z" transform="translate(-587.42 -252.38)"/><path class="cls-7" d="M702.62,305.48c3.36,1.58,4.62,2.46,6.5,2.77,2.76.45,5.21-.82,5.42-2.52s-1.87-3.37-4.64-3.71S703.16,304.25,702.62,305.48Z" transform="translate(-587.42 -252.38)"/><path class="cls-8" d="M706.81,304.86a2.94,2.94,0,1,0,3.29-2.68A3,3,0,0,0,706.81,304.86Z" transform="translate(-587.42 -252.38)"/><path d="M707.69,304.66a2,2,0,1,0,2.23-1.81A2,2,0,0,0,707.69,304.66Z" transform="translate(-587.42 -252.38)"/><path class="cls-7" d="M710.43,304.88c0,.4.33.78.85.84a.87.87,0,0,0,1-.6c.05-.4-.34-.78-.85-.84A.87.87,0,0,0,710.43,304.88Z" transform="translate(-587.42 -252.38)"/><path d="M717.7,304c-.14.12-.77.62-3.56-.81-3.18-1.62-8.3-2.09-11.06,1.63a2.74,2.74,0,0,0-.47.71s1.16-1.43,5.11-2.1c2.74-.46,6.53,1.11,6.62,3a3.49,3.49,0,0,1-1.87,1.56C714.45,307.46,717.38,306,717.7,304Z" transform="translate(-587.42 -252.38)"/><path class="cls-9" d="M738.26,293.39c2.42-19.77-13.44-38-35.42-40.68s-41.77,11.15-44.19,30.92a38.7,38.7,0,0,0,1.94,18.69c.14-3.28,1.52-5.85,3.66-6.29a3.43,3.43,0,0,1,1.46,0c.55,4.29,1.32,7.3,1.61,5,.33-2.74,1.5-7.7,2.41-11.35,1.8-4.88,1.91-13.51,15.87-12.59-.19-11.66,41.29-8.28,39.35,20.44,0,3.58-.14,7.91-.44,10.36-.28,2.29,1.1-.36,2.6-4.32a3.21,3.21,0,0,1,1.14.3c2.06,1,2.74,4.05,1.9,7.45A33.35,33.35,0,0,0,738.26,293.39Z" transform="translate(-587.42 -252.38)"/><path class="cls-5" d="M695.41,319.09l-3.72-.46a3,3,0,0,1-2.46-2.4,3.52,3.52,0,0,0-.34,1.14c-.22,1.78,1.89,2.62,3.49,2.82l2,.24c1.6.2,3.85-.11,4.07-1.89a3.37,3.37,0,0,0-.06-1.19A3,3,0,0,1,695.41,319.09Z" transform="translate(-587.42 -252.38)"/><path class="cls-5" d="M662,299.17c0-.37.95-1.95,1.82-1.55,1.33.6,1.88,3.41,2.13,6.18s-.26,4.7-.48,3.93c-.32-1.07-.31-4.39-1.58-7.66C663,297.89,661.82,302.12,662,299.17Z" transform="translate(-587.42 -252.38)"/><path class="cls-5" d="M729.74,307.48c.07-.37-.45-2.12-1.39-2-1.44.27-2.65,2.86-3.56,5.49s-.88,4.62-.48,3.93c.56-1,1.35-4.19,3.38-7.06C729,306,729.16,310.37,729.74,307.48Z" transform="translate(-587.42 -252.38)"/><path class="cls-10" d="M683,315c-1,2.21-4.72,2.69-8.27,1.07s-5.63-4.73-4.62-6.94,4.71-2.7,8.27-1.08S684,312.74,683,315Z" transform="translate(-587.42 -252.38)"/><path class="cls-10" d="M704.54,317.6c.44,2.4,3.92,3.76,7.76,3s6.6-3.23,6.15-5.62-3.92-3.75-7.76-3S704.09,315.21,704.54,317.6Z" transform="translate(-587.42 -252.38)"/><path class="cls-11" d="M683.53,324.81c-1-.6-1.25-.42-1.41-.28s-.27.17.33,1.23l1.29,2.23s2.39,6.24,8.26,6.69a10.26,10.26,0,0,0,9.43-4.89c.32-.52,1.06-1.3,1.27-1.59.69-.95.6-1,.48-1.15-.34-.48-.42-.25-1.19,0a42.32,42.32,0,0,1-9.61-.34C687.71,326.05,684.36,325.28,683.53,324.81Z" transform="translate(-587.42 -252.38)"/><path class="cls-7" d="M697.64,330.06c1.44-.27,2-1.44,2.56-2.94a47,47,0,0,1-8.44-.55,68.94,68.94,0,0,1-7.2-1.4c.16,1.8.44,2,1.81,2.95-1.16-.08-1.51,1-1.52,2.29a12.05,12.05,0,0,0,6.94,3.81c3.67.33,6.05-.47,7.48-2C699.07,331.34,698.62,330.21,697.64,330.06Z" transform="translate(-587.42 -252.38)"/><path class="cls-12" d="M683.79,325s.18,1.62,8,2.51,9.51-.3,9.51-.3-5.74-1.4-8.92-1.73C689.43,325.12,683.79,325,683.79,325Z" transform="translate(-587.42 -252.38)"/><path class="cls-13" d="M716,446.61c.08-.5.18-1,.27-1.55q.22-1.28.51-2.61A144,144,0,0,1,730.46,406c.4-.61,5-41.09.27-41.09l-14.2-2.53-.27.18-6.85-1.51c-9.27,2.35-18,2.57-22.28,10-1.52,2.66-11,18.35-11,18.35s-5.89-28.21-9.3-29.17c0,0-25.48,3.45-27.54,4.67s-3.83,2.76-5.71,6.78S628,386.58,626,397.79,620,426,620,426l17.2,3.89,1.88-9a21.17,21.17,0,0,0,11.54,11.45,113.76,113.76,0,0,1,3,14.3c.24,1.67.44,3.33.64,5,.16,1.31.29,2.62.42,3.92.25,2.54.44,5.06.56,7.54,0,.88.08,1.74.11,2.61.1,3,.09,6,0,8.91a52.11,52.11,0,0,0-10.37,10.5c4.32,1.27,10.31,2.95,12.37,3.15,4.91.47,8.13-4.59,8.13-4.59s-1.84,7.36,11.36,8.43,39.93-1.79,50.85-3.09a52.48,52.48,0,0,0-13.37-14.65c0-1-.08-3.32-.09-4.39,0-.81,0-.41,0-1.24A147.22,147.22,0,0,1,716,446.61Z" transform="translate(-587.42 -252.38)"/><path class="cls-12" d="M682.9,326.47s.39,7.52,8.2,8.74c7.28,1.13,11-6.41,11-6.41s-3.32,3.9-10.11,3.29A11.07,11.07,0,0,1,682.9,326.47Z" transform="translate(-587.42 -252.38)"/><path class="cls-3" d="M642.29,392s-4.25,18.83-4.88,24.94c-.18,1.68-2.26-1.89-2.26-1.89S636.29,401.2,642.29,392Z" transform="translate(-587.42 -252.38)"/><path class="cls-3" d="M686.17,432.53c-3.28-.5-9.17-3-11.1-5.9a12.58,12.58,0,0,0,7.76,8.33c17,5.49,25.88-10.34,25.88-10.34C703.62,428.53,694.8,433.87,686.17,432.53Z" transform="translate(-587.42 -252.38)"/><path class="cls-3" d="M678.67,385.55s-10.7,16.78-11.57,31.3c-2.06,23.1-1.66,66.78-1.66,66.78s-1.24-14.08-1.36-24.69c-.09-8.43.46-22.92,1.18-39,.52-11.67,4.84-21.54,10.85-30.55A32.11,32.11,0,0,1,678.67,385.55Z" transform="translate(-587.42 -252.38)"/><path class="cls-3" d="M673,453.37c1.46-2.36,35-6.43,43.28-8.31q.22-1.28.51-2.61l-.76.15c-2.64.63-8.81,1.59-15.35,2.6-19.44,3-27.22-3.44-29.72-2.07C665.08,442.69,666.83,453,673,453.37Z" transform="translate(-587.42 -252.38)"/><polygon class="cls-3" points="88.69 137.16 97.74 116.71 120.73 101.05 132.2 111.29 103.55 134.46 98 122.69 88.69 137.16"/><polygon class="cls-13" points="120.9 100.58 133.39 110.45 104.19 131.01 97.74 116.71 120.9 100.58"/><path class="cls-3" d="M676.22,352a62.77,62.77,0,0,0-2.43,14.75l2.32,22.81-9.73-22.64-8.4-5.18Z" transform="translate(-587.42 -252.38)"/><path class="cls-14" d="M734.72,507a124.37,124.37,0,0,1-99.61.56A54.48,54.48,0,0,1,641,491.16a53.78,53.78,0,0,1,4-6.09c4.32,1.27,10.31,2.95,12.37,3.15,4.91.47,8.13-4.59,8.13-4.59s-1.84,7.36,11.36,8.43,39.93-1.79,50.85-3.09c.37.6.73,1.2,1.08,1.81A54.69,54.69,0,0,1,734.72,507Z" transform="translate(-587.42 -252.38)"/><polygon class="cls-13" points="87.88 100.11 70.51 109.32 80.34 113.5 87.88 100.11"/><polygon class="cls-5" points="29.24 187.25 29.52 186.68 60.63 200.14 55.14 202.03 35.17 192.28 29.24 187.25"/><path class="cls-4" d="M641.78,418.27A19,19,0,0,1,638.7,416a3.42,3.42,0,0,0-.62,4.63c-.39.52-1,1.37-1.76,2.61-1.39,2.24-7.67-9.42-7.67-9.42l-2.09-.31c-.69.43-3.34,1-4.41,3.68a6.63,6.63,0,0,1-.85,1.4c-.31.47-2,2-2.31,3.7s.06,2.27-.22,2.76a12.46,12.46,0,0,0-.36,7.63c.46,2.91,7.21,7.1,12.77,2.85,1.37-.11,3.28-.05,5.47-3.47l6.34-10.5A2.58,2.58,0,0,0,641.78,418.27Z" transform="translate(-587.42 -252.38)"/><path class="cls-5" d="M633.56,429.64s-3.74-2.76-4.67-3.3a22,22,0,0,0-5.77-2.38c-1.9-.3-2.12,3.53-.93,4.44.62.49.63.26,1.28.31-1.36.75-2.77,1.5-1.85,1.33,1.12-.22,1.24-.7,3.28-1a26.33,26.33,0,0,1,2.87,1.2C633.24,432.8,633.6,430.34,633.56,429.64Z" transform="translate(-587.42 -252.38)"/><path class="cls-4" d="M633.14,429.06c.05.7.33,3.14-5.18.66-3.81-1.73-5.94-.41-7.12-1.32s.57-5.26,2.46-5a21.94,21.94,0,0,1,5.78,2.38C630,426.36,633.14,429.06,633.14,429.06Z" transform="translate(-587.42 -252.38)"/><path class="cls-15" d="M630,429.24a5.2,5.2,0,0,1,.75-1.35A8.22,8.22,0,0,1,633,429c.45.36.59,1.35-.44,1.36A8.35,8.35,0,0,1,630,429.24Z" transform="translate(-587.42 -252.38)"/><path class="cls-5" d="M633.18,424a98.35,98.35,0,0,0-9.85-.9,11.84,11.84,0,0,0-2.53-.05c-.45-.26-.83,0-.78.26s0,.23,1,.15a6.43,6.43,0,0,1,2.31,0,4.32,4.32,0,0,1,.69.21c1.87,1.24,5.5,3.11,6,3.41s3.53,6,7.84,1.76Z" transform="translate(-587.42 -252.38)"/><path class="cls-5" d="M635.51,420.08c-.9-.91-8.28-2.26-10.28-2.07a4.61,4.61,0,0,0-1.79.06c-.45.09-1-.21-1.13.28s1.09.1,1.35,0a3.71,3.71,0,0,1,1.47,0c.77.2,5,3.37,6.84,5.06.88.81,4.2,5.91,7.94,1.94C639.91,425.44,636.4,421,635.51,420.08Z" transform="translate(-587.42 -252.38)"/><path class="cls-16" d="M629.54,405c-.2-.47-.13-1,.17-1.08l1.3-.57c.3-.13.7.15.91.62l.84,1.95c.21.47.14,1-.16,1.09l-1.31.56c-.29.13-.7-.15-.9-.62Z" transform="translate(-587.42 -252.38)"/><rect class="cls-17" x="634.74" y="404.45" width="1.3" height="24.79" transform="translate(-700.85 35.07) rotate(-23.46)"/><rect class="cls-18" x="635.93" y="403.93" width="1.28" height="24.79" transform="translate(-700.55 35.52) rotate(-23.46)"/><rect class="cls-19" x="635.35" y="404.15" width="1.3" height="24.79" transform="translate(-700.69 35.31) rotate(-23.46)"/><polygon class="cls-20" points="54.68 175.05 52.3 176.09 55.5 180.19 54.68 175.05"/><polygon class="cls-21" points="54.42 178.81 55.5 180.19 55.22 178.46 54.42 178.81"/><rect class="cls-22" x="630" y="405.11" width="2.59" height="1.38" transform="translate(-696.68 31.84) rotate(-23.41)"/><path class="cls-4" d="M635.29,419.87c-.8-.81-4.26-3.84-5.19-4.68.06-.22-.07-.7.31-.46,1,.66,2.73,2.14,3.23,2.54,2.54,2,4,1.27,5.42-.38-5.18-5.93-7.55-6.94-8.57-7.5a2.43,2.43,0,0,0-3.25,1.41c-.63,1.48-1.12,3-1.18,3.14s.71.06,1.67.16a1.9,1.9,0,0,0-1,.54c-1,1-2,2.37-1.88,3.2.07.33.79.17,1.16.44a65.88,65.88,0,0,1,6.16,4.53c.87.82,3.91,5.79,7.25,2.65C639.47,425.46,636.18,420.78,635.29,419.87Z" transform="translate(-587.42 -252.38)"/><path class="cls-4" d="M637.51,428.83,632.9,424s-6-4.87-6.52-5.19-.92-.82-2,.44c-.89,1-2.51,2.46-1.86,3.45.15.24.79.39,1.32.6a66.17,66.17,0,0,1,6.31,3.22C630.61,426.87,633.69,432,637.51,428.83Z" transform="translate(-587.42 -252.38)"/><path class="cls-15" d="M634.38,415.64a6.55,6.55,0,0,1,1.37-1.39,10.28,10.28,0,0,1,2.47,2.17c.43.58.26,1.84-1,1.5C636.24,417.66,634.38,415.64,634.38,415.64Z" transform="translate(-587.42 -252.38)"/><path class="cls-15" d="M639.59,425.55l-2.07-2.83a2.11,2.11,0,0,0-.95.3c-.42.27,1.15,2.46,1.63,2.61A3.65,3.65,0,0,0,639.59,425.55Z" transform="translate(-587.42 -252.38)"/><path class="cls-15" d="M637.56,428.75l-2.49-2.47a2,2,0,0,0-.88.44c-.37.34,1.53,2.25,2,2.32A3.51,3.51,0,0,0,637.56,428.75Z" transform="translate(-587.42 -252.38)"/><path class="cls-7" d="M588,423.4s1.19-1.37,4.38-1.36,21.2,11.32,21.2,11.32l29.28-3.92-.57,7.16-27.71,1.14-2.7-.52-1.39-.6-.22-.93L588,423.64Z" transform="translate(-587.42 -252.38)"/><polygon class="cls-23" points="55.48 177.06 98.17 195.36 98.17 198.05 55.14 180.98 55.48 177.06"/><path class="cls-24" d="M587.42,423.07l23.42,12.51s.45,1.59,4,1.13,27.51-3.07,27.51-3.07l43.54,17.63-28.76,5.57-43.77-18.65s-2.59-.57-3.19-1.93-22.73-12.39-22.73-12.39Z" transform="translate(-587.42 -252.38)"/><polygon class="cls-25" points="98.45 197.86 98.45 198.89 54.91 181.26 27.2 184.35 55.22 180.4 98.45 197.86"/><path class="cls-4" d="M616.66,439.63s12.51,7.07,14,7.73c3.89,1.69,9.68,5,12.36,5.37,1.16.13-11.95-5.59-13.49-7.42-.84-1-.7-2.78,1.44-2.8,5.15,0,9.17,3.79,17.31,4.5,9.27.8,10,6.95,10,6.95s4.53,6-2.83,7.18c-9,1.44-22.27-3.2-26.36-5.9-.89-.59-10.78-13.32-13.16-15.78Z" transform="translate(-587.42 -252.38)"/><path class="cls-15" d="M633.28,444.68a6.91,6.91,0,0,1-1,1.81,10.75,10.75,0,0,1-3.13-1.54c-.61-.48-.78-1.82.61-1.82C630.82,443.13,633.28,444.68,633.28,444.68Z" transform="translate(-587.42 -252.38)"/><path class="cls-13" d="M742.18,377.47c-2.67-10.05-8.36-13.79-16.42-13-15.22,1.45-12.53,24.26-11.81,27.5,1.35,6.11,3,12.12,6.24,15.68,1.86,12.83,2.67,24.55,2,29.23-.42,2.82-.92,5.55-1.15,7.79a16.36,16.36,0,0,0-4.45.31c-7.73,1.84-42.12,6-43.6,8.38a135.38,135.38,0,0,1-15-2.1,13.71,13.71,0,0,0-4.72,11.06c6.59,2.61,17.62,4.28,17.62,4.28s-.22,2.5,5.46,3,41.84,3,63.44-8.13a11.24,11.24,0,0,0,.65-1.8C750.79,434.82,744.62,386.63,742.18,377.47Z" transform="translate(-587.42 -252.38)"/><path class="cls-3" d="M691.3,470.13c-7.4,0-13-.4-15-.56-5.68-.46-5.46-3-5.46-3a115,115,0,0,1-15.62-3.56c0,.88.08,1.74.11,2.61,5,1.58,17.43,6.67,20.59,6.92,2.65.22,8.33,0,15.36,0,6.77,0,14.79-1.56,22.89-2.65,0-.81,0-.41,0-1.24A172.88,172.88,0,0,1,691.3,470.13Z" transform="translate(-587.42 -252.38)"/><path class="cls-5" d="M629.82,452.37c.88.32-1,1.05-2.89-.91l-7.78-8.24S627.63,451.6,629.82,452.37Z" transform="translate(-587.42 -252.38)"/><path class="cls-3" d="M670.93,390.15a1.58,1.58,0,1,1-1.56-1.82A1.71,1.71,0,0,1,670.93,390.15Z" transform="translate(-587.42 -252.38)"/><path class="cls-3" d="M664.39,411.27a1.53,1.53,0,1,1-1.51-1.83A1.69,1.69,0,0,1,664.39,411.27Z" transform="translate(-587.42 -252.38)"/><path class="cls-3" d="M663.5,432.57a1.5,1.5,0,1,1-1.46-1.83A1.67,1.67,0,0,1,663.5,432.57Z" transform="translate(-587.42 -252.38)"/><path class="cls-3" d="M663.5,471.31a1.5,1.5,0,1,1-1.46-1.82A1.67,1.67,0,0,1,663.5,471.31Z" transform="translate(-587.42 -252.38)"/><path class="cls-26" d="M679.74,273.18c-4.19-1.29-11.36-2.74-14.89,5.85s-6.61,16.86-5.94,31.27c.57,12.31,5.91,30.52,14,36.66-3.79-1.77-15.19-12.67-17.83-30-2.7-17.62,5.09-38.88,9.62-44.94C670.16,264.69,679.74,273.18,679.74,273.18Z" transform="translate(-587.42 -252.38)"/><path class="cls-26" d="M670,326.74a15.27,15.27,0,0,1-6.56-11.65c-1.05-15.28,1.32-23.85,4.36-32.4s7.89-8.9,11.92-9.51c0,0-7.27-4.09-12,3.27-3.92,6.07-9.91,26-7.11,41.41s11.69,18.67,16.46,18.14A44.48,44.48,0,0,1,670,326.74Z" transform="translate(-587.42 -252.38)"/><path class="cls-9" d="M751.1,365.88c.51,2.53,5.79,6,5.81,11.15s-4.74,9.08-7.65,14.44c-2.76,5.1-2.15,9.79,1.23,13.45s4.53,8.95-.61,13.55c-3.65,3.26-.3,9,3.26,7.2a3.83,3.83,0,0,0,2-4.11c-.17,2.08-1.76,3.59-3.11,3.16-2.43-.79-2-3.47-1.29-4.38s2.67-2.18,4.09-4.22c2.46-3.52,2.38-7.73.43-12s-3.08-7.73.7-12.84,6.32-7.9,7-14.26c.36-3.58-1.86-5.55-7-8.85-3.9-2.53-4.3-5.83-3.68-7.06A5.9,5.9,0,0,0,751.1,365.88Z" transform="translate(-587.42 -252.38)"/><path class="cls-27" d="M676.79,272.45a11.78,11.78,0,0,0-8.75,5.2c-2.76,3.76-7.11,20.36-7.16,28.12s3,21.12,6.62,26.41c-3.54-3.61-8.82-12.27-9.57-26.15-1.84-34.34,12.18-34.37,13.33-34.52S676.79,272.45,676.79,272.45Z" transform="translate(-587.42 -252.38)"/><path class="cls-26" d="M748.19,349.11c-.46,3-3.22,15.26,9.77,23.26,8.53,5.26,6,11.47,3.42,16s2,8.14,5.78,9.81c4.43,1.94,4.43,9.67-3.07,9.48-9.54-.25-4.78,13.86,2.66,5.23-1.56.86-3.52,1.74-5,.4s-1-4.11,3.33-3.81,10.23-.41,11.46-6.11c1.53-7.13-4.72-7.7-8.18-11.36-4.1-4.31,5.57-12.08-.41-23.13-4-7.4-16-6.77-13.8-28.3S748.19,349.11,748.19,349.11Z" transform="translate(-587.42 -252.38)"/><path class="cls-27" d="M684.25,273.58c.89-6,4.51-7,11.29-6.42s24.22,7.21,27.58,18.57,9.75,24.36,13.8,31.26,10.09,11.08,11.89,18.33-.79,11.85-.62,13.79,6.29-9.11,6-13.79-3.63-7.64-7.59-14.83-2.37-4.31-4.68-20.62-10.16-23.29-14-26.59-14-9-24.41-11.29C693.66,259.88,679.07,263.15,684.25,273.58Z" transform="translate(-587.42 -252.38)"/><path class="cls-26" d="M718.5,278.28c17.32,16.78,11.09,33.88,23,43.28,10.73,8.47,15.85,21.77,7.49,32.35-3.79,4.79-9.2,12-6.19,15.52,5.58,6.53,13.71,4.56,5.42,18.23.56-.66,3.32-7.16-.26-9.45-11.26-5-20.39-12.22-16.78-24.09s11.36-7.17-2.58-24.93c-8.73-11.13-5-11.51-4.13-28.53C725.18,286.33,718.5,278.28,718.5,278.28Z" transform="translate(-587.42 -252.38)"/><path class="cls-26" d="M724.7,312.13c.68-3.11-5.25,8.58-3.45,14.23s4.79,5.59,5,9.07-.75,6-4.65,11.28-.76,7.88.6,8.82,4.35,1.61,6.3,4.12a6,6,0,0,1,0,7.46c-1.5,1.81-4.19,3.72-3.74,6.66s3.94,3.39,5,3.23a4.27,4.27,0,0,0,3.35-2.47,5.47,5.47,0,0,1-3.77,1.22,2.51,2.51,0,0,1-2.08-3.89c.9-1.3,5.13-4.28,5.85-6.09a8.09,8.09,0,0,0-2.82-9.46c-2.43-1.8-4.08-3.21-2-6.85s4.05-6.25,4.2-10.87-2.25-8.07-5-11.22S722.6,321.65,724.7,312.13Z" transform="translate(-587.42 -252.38)"/><path class="cls-26" d="M704.31,259.93c16.23,4.31,29.35,14.67,33.92,27.09,3.91,10.66,3,15.56,3.5,23.41s3.15,11.29,6.92,15.08,5.47,8.24,2,17.07,3.18-.43,5.11-5.07,2.43-12.7-5.65-18.63c-5.28-3.86-2.16-10.58-2.16-18.12s-1.63-12.3-6.46-19.4C733.66,269.9,717,260.17,704.31,259.93Z" transform="translate(-587.42 -252.38)"/></svg>