<svg id="Слой_1" data-name="Слой 1" xmlns="http://www.w3.org/2000/svg" viewBox="0 0 146.82 219.51"><defs><style>.cls-1{fill:#fcc397;}.cls-2{fill:#e5e5e5;}.cls-3{fill:#515151;}.cls-4{fill:#bb0202;}.cls-5{fill:#333;}.cls-6{fill:#fff;}.cls-7{fill:#ea9f6c;}.cls-8{fill:#663412;}.cls-9{fill:#7b9368;}.cls-10{fill:#ea8c63;}.cls-11{fill:#d87350;}.cls-12{fill:#6b3a25;}.cls-13{fill:#663623;}.cls-14{fill:#9b4e34;}.cls-15{fill:#828281;}.cls-16{fill:#b77641;}</style></defs><title>reviews-man-1</title><path class="cls-1" d="M740.36,377.35a14.31,14.31,0,0,0-13.58-9.83L705.24,365c-4-1.56-7.53-5.41-8.31-8.27l-.24-10.91c-2.4,1.71-20.09,6.91-28.15-1.81l-.48,13c-1,2.75-4.75,6.27-8.64,7.86l-21.35,2.62A14.29,14.29,0,0,0,624,379.4q-.07.39-.12.78c0,.15,0,.3,0,.46a2.64,2.64,0,0,0,0,.29l20.87,17.16,7.69,24.84H712.5l8.31-26.81H723Z" transform="translate(-609.3 -275.54)"/><rect class="cls-2" x="54.13" y="95.83" width="36.2" height="66.72"/><path class="cls-3" d="M714.6,390.25l-1.49-24.33-7.22-.83a16.56,16.56,0,0,1-3-1.62l-3.77,5.11L682.69,433l-16.45-64.61-3.76-5.12a17.25,17.25,0,0,1-3.06,1.67l-6.72.82L651.43,390l9.22,1.66-1.89,9.46,22.65,43.52,25.85-43.28-1.89-9.47Z" transform="translate(-609.3 -275.54)"/><polygon class="cls-4" points="66.5 130.39 73.38 157.42 79.13 134.82 75.65 107.21 79.87 101.11 77.4 94.42 68.81 94.18 66.58 101.47 70.48 107.09 66.5 130.39"/><path class="cls-5" d="M720.42,458.63l2.3-56.4,4.06-34.71L705.24,365c-.84-.33-3.79-.77-4.57-1.28l-17.89,69.58-18.24-71.66a18.75,18.75,0,0,1-5.12,3.25l-11.81,1.45-5.79,34.59.11-.17L644.38,460v.15L643,483.63a100.09,100.09,0,0,0,78.79-.3Z" transform="translate(-609.3 -275.54)"/><polygon class="cls-6" points="58.21 81.11 73.35 94.12 62.23 105.24 51.35 88.44 58.21 81.11"/><path class="cls-1" d="M657,478.46s0,0,0-.07l-3.62-5.46a6,6,0,0,0-8.37-1.7c-6.75,4.48-5.58,3.68-6.16,4.13a13.51,13.51,0,0,0-1.26,5.75,99.86,99.86,0,0,0,10.4,4.47A17.34,17.34,0,0,0,657,478.46Z" transform="translate(-609.3 -275.54)"/><polygon class="cls-6" points="88.5 81.11 73.35 94.12 84.47 105.24 95.36 88.44 88.5 81.11"/><path class="cls-3" d="M662.88,465.55l-3.61,0a17.67,17.67,0,0,1,.39,3.43,17.13,17.13,0,0,1-2.69,9.44,17.34,17.34,0,0,1-9,7.12c1,.36,3,1.05,4.91,1.64A20.82,20.82,0,0,0,663.21,469,21.44,21.44,0,0,0,662.88,465.55Z" transform="translate(-609.3 -275.54)"/><path class="cls-3" d="M708.18,478.09a17.14,17.14,0,0,1-2.8-9.4,17.68,17.68,0,0,1,.34-3.44h-3.61a21.68,21.68,0,0,0-.28,3.44,20.79,20.79,0,0,0,10.64,18.15c2-.65,3.47-1.16,4.92-1.71A17.3,17.3,0,0,1,708.18,478.09Z" transform="translate(-609.3 -275.54)"/><path class="cls-7" d="M681.57,347.61a77.12,77.12,0,0,1-13.27-5.7v7c2.16,1.38,5.38,3.48,7.62,4.88a9.31,9.31,0,0,0,3.23.9h8.24a8.73,8.73,0,0,0,3.24-.88c1.81-1.2,3.88-2.87,6.13-4.36v-7.72A100.13,100.13,0,0,1,681.57,347.61Z" transform="translate(-609.3 -275.54)"/><path class="cls-1" d="M709.84,311.52a3.21,3.21,0,0,0-2.29.15c.3-8.85.22-16.79-.91-18.56-6.23-9.78-13.56-14-24.34-14.44h0c-10.79.41-17.3,4.66-23.53,14.44-1.16,1.81-1.35,10.11-1.18,19.23a3.74,3.74,0,0,0-3.41-.83c-2.38.81-3.22,4.7-1.87,8.7,1.17,3.46,3.58,5.86,5.74,5.94.21,4.7.45,8.77.6,11.26A6.89,6.89,0,0,0,661,341.5c6.07,4.17,10.34,7.11,14.11,9.33a7.08,7.08,0,0,0,2.59.74h8.74a10.76,10.76,0,0,0,3-.81c3.88-2.28,8.28-5.35,14.64-9.62a5.75,5.75,0,0,0,1.91-3.47c.2-2.48.53-6.74.84-11.68,1.9-.6,3.84-2.79,4.85-5.76C713,316.23,712.21,312.33,709.84,311.52Z" transform="translate(-609.3 -275.54)"/><path class="cls-8" d="M688.41,308.47c.74-.41,9.8-4,12.55.76,2.31,4-2,0-4.79,0a40.65,40.65,0,0,0-7.26.56C687.77,310,687.4,309,688.41,308.47Z" transform="translate(-609.3 -275.54)"/><path class="cls-8" d="M675.16,308.59c-.71-.41-9.55-3.55-12.17.7-2.38,3.88,1.91,0,4.65,0a61,61,0,0,1,7,.6C675.76,310.05,676.13,309.15,675.16,308.59Z" transform="translate(-609.3 -275.54)"/><path class="cls-6" d="M675.56,315.58a15.77,15.77,0,0,1-5.81,1.08c-2.34,0-4.47-.78-4.47-2.26s2.11-2.55,4.48-2.55S675.23,314.46,675.56,315.58Z" transform="translate(-609.3 -275.54)"/><path class="cls-9" d="M672.13,314.28a2.26,2.26,0,1,1-2.25-2.38A2.32,2.32,0,0,1,672.13,314.28Z" transform="translate(-609.3 -275.54)"/><path d="M671.39,314.29a1.45,1.45,0,1,1-1.45-1.52A1.49,1.49,0,0,1,671.39,314.29Z" transform="translate(-609.3 -275.54)"/><path class="cls-6" d="M672.18,314.32a.67.67,0,0,1-.73.57.66.66,0,0,1-.72-.57.65.65,0,0,1,.72-.56A.66.66,0,0,1,672.18,314.32Z" transform="translate(-609.3 -275.54)"/><path class="cls-7" d="M675.56,315.59s-.83-1.34-4.1-2.33c-2.34-.71-5.86.32-5.92,2-1-.71-1-2,1.49-3a6.84,6.84,0,0,1,8.21,2.64A2.24,2.24,0,0,1,675.56,315.59Z" transform="translate(-609.3 -275.54)"/><path class="cls-6" d="M688.3,315.58a14,14,0,0,0,5.72,1.07c2.34-.06,4.48-.65,4.48-2.14s-2-2.66-4.4-2.66S688.63,314.46,688.3,315.58Z" transform="translate(-609.3 -275.54)"/><path class="cls-9" d="M691.7,314.22a2.26,2.26,0,1,0,2.25-2.38A2.32,2.32,0,0,0,691.7,314.22Z" transform="translate(-609.3 -275.54)"/><path d="M692.5,314.23A1.45,1.45,0,1,0,694,312.7,1.5,1.5,0,0,0,692.5,314.23Z" transform="translate(-609.3 -275.54)"/><ellipse class="cls-6" cx="86.18" cy="38.53" rx="0.73" ry="0.56"/><path class="cls-7" d="M688.3,315.59s.83-1.34,4.1-2.33c2.34-.71,5.85.32,5.92,2,1-.71.89-2.09-1.62-3a6.7,6.7,0,0,0-8.08,2.71A2.24,2.24,0,0,0,688.3,315.59Z" transform="translate(-609.3 -275.54)"/><path class="cls-7" d="M683.65,328.62h-3.76a3,3,0,0,1-2.73-2.09,3.46,3.46,0,0,0-.2,1.17c0,1.8,2.19,2.38,3.81,2.38h2c1.62,0,3.81-.58,3.81-2.38a3.46,3.46,0,0,0-.2-1.17A3,3,0,0,1,683.65,328.62Z" transform="translate(-609.3 -275.54)"/><path class="cls-7" d="M652.55,314.44c0-.32.61-1.77,1.39-1.52,1.2.38,2,2.73,2.47,5.07s.27,4.05,0,3.43c-.38-.89-.72-3.73-2.15-6.41C653.31,313.24,652.74,317,652.55,314.44Z" transform="translate(-609.3 -275.54)"/><path class="cls-7" d="M711.48,314.44c0-.32-.6-1.77-1.39-1.52-1.21.38-2,2.73-2.47,5.07s-.27,4.05,0,3.43c.38-.89.72-3.73,2.15-6.41C710.72,313.24,711.29,317,711.48,314.44Z" transform="translate(-609.3 -275.54)"/><path class="cls-8" d="M701.58,280c-4.05-7.09-27.13-4.06-34.49-2s-12.17,6.08-11.91,12.42c.22,5.48.25,17.78.25,21a4.38,4.38,0,0,1,1.86.75l1.44,6.64,1.52-10.39s-3-20.29,16.73-16.74c-2.78,1.52-7.86,6.85-7.86,6.85s11.67-2.79,16.23-4.57,0,3.81,0,3.81,8.88-3.3,11.67-4.31,5.58-.26,6.08,4.56,1.78,23.08,1.78,23.08l3.19-9.56a3.73,3.73,0,0,1,.73-.13c.11-1.92.23-4.33.39-7.3C710.71,275.17,704.63,285.31,701.58,280Z" transform="translate(-609.3 -275.54)"/><path class="cls-10" d="M675.13,336.83c.17.89,1.6,3,2.43,3h8.33c.84,0,2.27-2.14,2.43-3Z" transform="translate(-609.3 -275.54)"/><path class="cls-11" d="M685.63,337.23c-1.77-.22-7.59-.13-8.5-.08-2.32.1-3.68-1.19-3.59-1.44s.43-.31.69.08,1.76.23,2.52.07c3.84-.82,2.85.1,4.73.13s1.16-.86,4.49-.11c1.13.26,2.67.65,3.24.36.39-.19.69-.41.79,0S688.45,337.57,685.63,337.23Z" transform="translate(-609.3 -275.54)"/><rect class="cls-12" x="684.69" y="443.01" width="54.03" height="45.76" transform="translate(-636.39 -231.28) rotate(-3.5)"/><path class="cls-13" d="M714.46,448.91l-8.19.5a10.48,10.48,0,0,1-11.07-9.8l-.09-1.48a10.47,10.47,0,0,1,9.8-11.07l8.18-.5a10.46,10.46,0,0,1,11.07,9.8l.09,1.48A10.47,10.47,0,0,1,714.46,448.91ZM705.15,431a6.48,6.48,0,0,0-6.06,6.86l.09,1.48a6.47,6.47,0,0,0,6.85,6.06l8.18-.5a6.47,6.47,0,0,0,6.07-6.85l-.09-1.48a6.49,6.49,0,0,0-6.86-6.07Z" transform="translate(-609.3 -275.54)"/><path class="cls-14" d="M732.58,470.27l-41.7,2.54a8.48,8.48,0,0,1-9-7.92l-1.11-18.21a8.47,8.47,0,0,1,7.92-8.95l41.71-2.55a8.48,8.48,0,0,1,9,7.92l1.11,18.21A8.49,8.49,0,0,1,732.58,470.27Z" transform="translate(-609.3 -275.54)"/><rect class="cls-15" x="707.77" y="466.9" width="7.83" height="7.83" transform="translate(-636.73 -231.2) rotate(-3.5)"/><path class="cls-1" d="M714.7,470.11a26.61,26.61,0,0,0-7.85,5.4c-1.17,1.14-6.07,4.18-10.57,4.26,0,0-.39,2.85,3.27,3.28a15.64,15.64,0,0,0,7.06-1s3-1.58,4.73-.08c1.33,1.11,1.45,2.77-2,7l-4.44.31a2.11,2.11,0,0,0,.73,2.44c1.32.84,3.19,2,3.19,2s1.66,1.85,3.71-.58h0c-.24.78.49,1.19,1.37,1.69a2.05,2.05,0,0,0,2.81-.76c2.63-4.59,3.57-6.15.88-1.47-.46.8.19,1.16,1,1.61a1.65,1.65,0,0,0,2.27-.61l1.12-1.93c1.12.7,1.94.44,2.36-.3l3.3-5.73c.53-.92.7-5.81.33-10.41-.17-2-5.54-7.61-9.1-6.68A17.26,17.26,0,0,0,714.7,470.11Z" transform="translate(-609.3 -275.54)"/><polygon class="cls-16" points="107.03 211.48 103.18 217.55 106.74 211.31 107.03 211.48"/><polygon class="cls-16" points="111.64 211.53 108.11 217.24 111.34 211.36 111.64 211.53"/><polygon class="cls-16" points="115.35 211.81 112.65 216.08 115.06 211.64 115.35 211.81"/><path class="cls-16" d="M707.76,489.1a1.15,1.15,0,0,0,1.55-.18l-1.62.13Z" transform="translate(-609.3 -275.54)"/><path class="cls-5" d="M730.88,475.16c7.46-6.82,25.6-33.63,25.24-48.4-.29-12.42-10.59-39.26-16-49.95a14.3,14.3,0,0,0-13.38-9.29l-4.06,34.71c6,10.38,12.36,23.34,12.46,29.66.07,4.6-11.25,23.56-16.75,34.22C718.43,466.11,727.44,479.18,730.88,475.16Z" transform="translate(-609.3 -275.54)"/><rect class="cls-6" x="721.49" y="464.39" width="3.9" height="15.55" transform="translate(-692.96 504.68) rotate(-54.02)"/><path class="cls-5" d="M644.37,460.19h0c-5.71-9.55-12.45-24.84-13.77-28.06-2.49-6.11,4.26-20.56,11.22-31.19l5.79-34.59-9.54,1.17c-10.13.14-12.73,7.76-13.12,8.67-5.3,10.36-15.34,39.31-15.64,51.91-.35,14.77,18.36,41.87,25.82,48.68L647.85,467Z" transform="translate(-609.3 -275.54)"/><rect class="cls-6" x="634.93" y="471.21" width="15.55" height="3.9" transform="translate(-764.67 192.33) rotate(-35.98)"/></svg>