<svg id="Слой_1" data-name="Слой 1" xmlns="http://www.w3.org/2000/svg" viewBox="0 0 148.49 218.47"><defs><style>.cls-1{fill:#fcc397;}.cls-2{fill:#e5e5e5;}.cls-3{fill:#333;}.cls-4{fill:#515151;}.cls-5{fill:#5fa6b2;}.cls-6{fill:#fff;}.cls-7{fill:#ea9f6c;}.cls-8{fill:#663412;}.cls-9{fill:#7b9368;}.cls-10{fill:#ea8c63;}.cls-11{fill:#d87350;}</style></defs><title>reviews-man-2</title><path class="cls-1" d="M741.15,379.21a14.44,14.44,0,0,0-13.72-9.94l-21.8-2.54c-4-1.59-7.6-5.47-8.39-8.37l-.25-11c-2.43,1.73-4.73,2.9-7.48,4.67-1.3.31-6.34.46-8-.05a71.85,71.85,0,0,1-13-9.1L668,358.67c-1,2.78-4.81,6.33-8.74,7.94l-21.6,2.66a14.44,14.44,0,0,0-14.23,12c-.05.26-.09.52-.12.79s0,.31-.05.46a2.83,2.83,0,0,0,0,.29l21.11,17.37,7.78,25.12H713l8.4-27.13h2.24Z" transform="translate(-608.61 -276.24)"/><rect class="cls-2" x="54.74" y="96.92" width="36.61" height="67.48"/><path class="cls-3" d="M741,378.66a14.44,14.44,0,0,0-13.52-9.39l-21.8-2.54c-.84-.34-3.82-.79-4.62-1.3L682.92,435.8l-18.45-72.47a18.49,18.49,0,0,1-5.17,3.28l-21.6,2.66a14.39,14.39,0,0,0-11,5.09l-.06,0a10.19,10.19,0,0,0-.78,1.12,14.15,14.15,0,0,0-1.43,2.59c-5.36,10.48-15.51,39.76-15.82,52.51-.36,14.92,18.57,42.34,26.11,49.23l18.81-1.42-10.71,6.48-.11,1.87a101.31,101.31,0,0,0,79.69-.31l-.38-6.75c2.44,1.69,5.75,1.85,9.23-2.22,7.54-6.89,26.2-33.31,25.84-48.24C756.8,416.62,746.39,389.47,741,378.66ZM644.08,463c-5.78-9.66-12.59-25.13-13.92-28.39-2.54-6.2,4.37-21,11.45-31.71l2.48,59.94Zm77.08,1.34L721,461.4l2.32-57c6.09,10.5,12.51,23.6,12.61,30C736,439,726.72,453.54,721.16,464.33Z" transform="translate(-608.61 -276.24)"/><path class="cls-4" d="M715.1,392.25l-1.5-24.6-7.3-.85a17.27,17.27,0,0,1-3.09-1.63l-3.81,5.17-16.57,65.11L666.2,370.1l-3.81-5.17a17.55,17.55,0,0,1-3.09,1.68l-6.8.84L651.21,392l9.34,1.67-1.92,9.58,22.91,44-.41,5.76,26.56-49.53-1.92-9.58Z" transform="translate(-608.61 -276.24)"/><polygon class="cls-5" points="67.26 131.87 74.22 159.21 80.03 136.35 76.51 108.43 80.77 102.26 78.28 95.49 69.59 95.25 67.34 102.62 71.28 108.31 67.26 131.87"/><polygon class="cls-6" points="58.87 82.03 74.19 95.19 62.94 106.44 51.93 89.45 58.87 82.03"/><polygon class="cls-6" points="89.5 82.03 74.19 95.19 85.43 106.44 96.44 89.45 89.5 82.03"/><path class="cls-4" d="M662.79,468.41l-3.64,0a18,18,0,0,1,.39,3.47,17.41,17.41,0,0,1-2.71,9.55,17.61,17.61,0,0,1-9.12,7.19c1,.37,3,1.07,5,1.66a21.06,21.06,0,0,0,10.44-18.45A20.7,20.7,0,0,0,662.79,468.41Z" transform="translate(-608.61 -276.24)"/><path class="cls-1" d="M726.52,477.42l-5.88-3.79a6.11,6.11,0,0,0-8.44,1.82L708.61,481v.08a17.52,17.52,0,0,0,9.32,7.12,101.75,101.75,0,0,0,10.34-4.58C728.27,481.7,727.64,478.14,726.52,477.42Z" transform="translate(-608.61 -276.24)"/><path class="cls-4" d="M708.61,481.09a17.39,17.39,0,0,1-2.48-13h-3.65A21,21,0,0,0,713,489.94c2.06-.65,3.51-1.18,5-1.73A17.52,17.52,0,0,1,708.61,481.09Z" transform="translate(-608.61 -276.24)"/><rect class="cls-6" x="722.08" y="467.23" width="3.95" height="15.73" transform="translate(-694.39 505.69) rotate(-54.02)"/><path class="cls-7" d="M681.7,349.13a78.7,78.7,0,0,1-13.42-5.77v7.09c2.18,1.38,5.44,3.52,7.7,4.92a9.52,9.52,0,0,0,3.27.92h8.33a8.7,8.7,0,0,0,3.29-.9c1.82-1.2,3.92-2.9,6.2-4.4v-7.81A100.62,100.62,0,0,1,681.7,349.13Z" transform="translate(-608.61 -276.24)"/><path class="cls-1" d="M710.29,312.63a3.24,3.24,0,0,0-2.32.15c.31-8.95.23-17-.91-18.77-6.31-9.89-13.71-14.19-24.62-14.6h0c-10.91.41-17.49,4.71-23.8,14.6-1.17,1.83-1.36,10.22-1.19,19.44a3.78,3.78,0,0,0-3.45-.83c-2.41.81-3.25,4.75-1.89,8.8,1.18,3.49,3.61,5.92,5.8,6,.36,7.87.77,14,.77,14,7.36,5,12.25,8.46,16.51,11a7.22,7.22,0,0,0,2.62.74h8.83a10.77,10.77,0,0,0,3-.82c4.27-2.5,9.16-6,16.55-10.9,0,0,.53-6.21,1-14.15,1.92-.6,3.88-2.82,4.9-5.83C713.52,317.39,712.69,313.45,710.29,312.63Z" transform="translate(-608.61 -276.24)"/><path class="cls-8" d="M688.62,309.55c.75-.42,9.91-4,12.69.76,2.33,4-2,0-4.84,0a40.52,40.52,0,0,0-7.34.57C688,311.08,687.6,310.11,688.62,309.55Z" transform="translate(-608.61 -276.24)"/><path class="cls-8" d="M675.22,309.66c-.72-.41-9.66-3.59-12.31.71-2.41,3.92,1.93,0,4.7.06a60.36,60.36,0,0,1,7.1.6C675.82,311.14,676.2,310.23,675.22,309.66Z" transform="translate(-608.61 -276.24)"/><path class="cls-6" d="M675.62,316.73a16.05,16.05,0,0,1-5.87,1.1c-2.37,0-4.52-.79-4.52-2.29s2.13-2.58,4.53-2.58S675.29,315.6,675.62,316.73Z" transform="translate(-608.61 -276.24)"/><path class="cls-9" d="M672.15,315.42a2.28,2.28,0,1,1-2.28-2.41A2.35,2.35,0,0,1,672.15,315.42Z" transform="translate(-608.61 -276.24)"/><path d="M671.4,315.43a1.46,1.46,0,1,1-1.46-1.54A1.51,1.51,0,0,1,671.4,315.43Z" transform="translate(-608.61 -276.24)"/><path class="cls-6" d="M672.2,315.46a.66.66,0,0,1-.73.57.67.67,0,0,1-.74-.57.67.67,0,0,1,.74-.57A.66.66,0,0,1,672.2,315.46Z" transform="translate(-608.61 -276.24)"/><path class="cls-7" d="M675.62,316.75s-.83-1.36-4.14-2.36c-2.37-.72-5.93.32-6,2-1-.72-1-2.06,1.51-3a6.91,6.91,0,0,1,8.3,2.68A2.17,2.17,0,0,1,675.62,316.75Z" transform="translate(-608.61 -276.24)"/><path class="cls-6" d="M688.51,316.73c3,1,4,1.13,5.78,1.08,2.37-.06,4.53-.65,4.53-2.15s-2.05-2.7-4.45-2.7S688.85,315.6,688.51,316.73Z" transform="translate(-608.61 -276.24)"/><path class="cls-9" d="M691.94,315.36a2.29,2.29,0,1,0,2.28-2.41A2.35,2.35,0,0,0,691.94,315.36Z" transform="translate(-608.61 -276.24)"/><path d="M692.76,315.37a1.46,1.46,0,1,0,1.46-1.55A1.5,1.5,0,0,0,692.76,315.37Z" transform="translate(-608.61 -276.24)"/><path class="cls-6" d="M695,315.21a.76.76,0,1,0,.73-.57A.66.66,0,0,0,695,315.21Z" transform="translate(-608.61 -276.24)"/><path class="cls-7" d="M688.5,316.75s.84-1.36,4.15-2.36c2.37-.72,5.92.32,6,2,1-.72.9-2.12-1.64-3.06a6.77,6.77,0,0,0-8.17,2.74A2.2,2.2,0,0,0,688.5,316.75Z" transform="translate(-608.61 -276.24)"/><path class="cls-7" d="M683.8,329.92H680a3,3,0,0,1-2.76-2.12A3.58,3.58,0,0,0,677,329c0,1.82,2.22,2.41,3.86,2.41h2c1.64,0,3.86-.59,3.86-2.41a3.58,3.58,0,0,0-.2-1.19A3,3,0,0,1,683.8,329.92Z" transform="translate(-608.61 -276.24)"/><path class="cls-7" d="M652.35,315.58c0-.32.61-1.79,1.41-1.54,1.21.39,2,2.76,2.5,5.13s.27,4.1,0,3.46c-.39-.89-.73-3.77-2.18-6.47C653.12,314.36,652.54,318.15,652.35,315.58Z" transform="translate(-608.61 -276.24)"/><path class="cls-7" d="M712,315.58c0-.32-.61-1.79-1.41-1.54-1.22.39-2,2.76-2.5,5.13s-.27,4.1,0,3.46c.39-.89.73-3.77,2.18-6.47C711.18,314.36,711.76,318.15,712,315.58Z" transform="translate(-608.61 -276.24)"/><path class="cls-8" d="M701.94,280.73c-4.1-7.17-27.44-4.1-34.88-2.05s-12.31,6.16-12,12.57c.22,5.54.25,18,.25,21.25a4.28,4.28,0,0,1,1.88.75L658.6,320l1.54-10.51s-3.08-20.52,16.92-16.93c-2.82,1.54-7.95,6.93-7.95,6.93s11.8-2.83,16.42-4.62,0,3.85,0,3.85,9-3.34,11.8-4.36,5.63-.26,6.15,4.61,1.79,23.34,1.79,23.34l3.23-9.67a3.93,3.93,0,0,1,.74-.12c.11-1.95.23-4.38.39-7.39C711.17,275.86,705,286.12,701.94,280.73Z" transform="translate(-608.61 -276.24)"/><path class="cls-10" d="M675.19,338.22c.17.9,1.62,3.07,2.46,3.07h8.42c.85,0,2.29-2.17,2.46-3.07Z" transform="translate(-608.61 -276.24)"/><path class="cls-11" d="M685.8,338.63c-1.78-.22-7.67-.13-8.59-.09-2.35.11-3.72-1.2-3.63-1.45s.44-.31.7.08,1.78.24,2.55.08c3.88-.84,2.88.1,4.78.13s1.17-.87,4.54-.11c1.14.26,2.7.65,3.28.36.39-.2.69-.41.8,0S688.66,339,685.8,338.63Z" transform="translate(-608.61 -276.24)"/></svg>