<svg id="Слой_1" data-name="Слой 1" xmlns="http://www.w3.org/2000/svg" viewBox="0 0 159.87 234.19"><defs><style>.cls-1{fill:#fcc397;}.cls-2{fill:#ea9f6c;}.cls-3{fill:#663412;}.cls-4{fill:#fff;}.cls-5{fill:#7b9368;}.cls-6{fill:#9d4b3c;}.cls-7{fill:#ea8c63;}.cls-8{fill:#ccc;}.cls-9{fill:#5d7ba8;}.cls-10{fill:#5e5e5e;}.cls-11{fill:#b9baba;}.cls-12{fill:#567199;}</style></defs><title>reviews-man-4</title><path class="cls-1" d="M746.42,378.8a15.56,15.56,0,0,0-14.76-10.69l-23.44-2.73c-4.29-1.7-8.18-5.88-9-9l-.26-11.86-30.35-.3-.79,12.49c-1.11,3-5.16,6.81-9.39,8.54l-23.23,2.85A15.54,15.54,0,0,0,619.86,381c-.05.28-.2,1.55-.2,1.66l22.7,18.67,8.37,27h65.39l9-29.17Z" transform="translate(-603.45 -268.16)"/><path class="cls-2" d="M682.57,346.33a83.71,83.71,0,0,1-14.39-6.18v7.6c2.35,1.49,5.83,3.77,8.26,5.28a10.27,10.27,0,0,0,3.51,1h8.93a9.53,9.53,0,0,0,3.52-1c2-1.3,4.21-3.12,6.66-4.73V340A107.76,107.76,0,0,1,682.57,346.33Z" transform="translate(-603.45 -268.16)"/><path class="cls-1" d="M713.24,307.19a3.49,3.49,0,0,0-2.49.16c.33-9.6.24-18.22-1-20.13-6.76-10.61-14.7-15.23-26.4-15.67h0c-11.69.44-18.76,5.06-25.52,15.67-1.25,2-1.46,11-1.28,20.85a4,4,0,0,0-3.7-.89c-2.58.87-3.49,5.1-2,9.44,1.26,3.74,3.87,6.35,6.22,6.44.39,8.43.82,15,.82,15,7.9,5.42,13.14,9.07,17.71,11.77a7.72,7.72,0,0,0,2.81.8h9.48a11.54,11.54,0,0,0,3.22-.88c4.58-2.68,9.83-6.4,17.75-11.69,0,0,.57-6.66,1.11-15.18,2.07-.65,4.17-3,5.26-6.25C716.71,312.29,715.81,308.07,713.24,307.19Z" transform="translate(-603.45 -268.16)"/><path class="cls-3" d="M690,303.88c.8-.44,10.64-4.31,13.62.82,2.5,4.32-2.12,0-5.19,0a44.35,44.35,0,0,0-7.88.6C689.3,305.53,688.9,304.48,690,303.88Z" transform="translate(-603.45 -268.16)"/><path class="cls-3" d="M675.63,304c-.77-.45-10.37-3.86-13.2.76-2.59,4.2,2.06,0,5,.05a66,66,0,0,1,7.6.65C676.27,305.59,676.67,304.62,675.63,304Z" transform="translate(-603.45 -268.16)"/><path class="cls-4" d="M676.05,311.59a17.24,17.24,0,0,1-6.3,1.18c-2.53,0-4.84-.86-4.84-2.46s2.28-2.77,4.86-2.77S675.69,310.38,676.05,311.59Z" transform="translate(-603.45 -268.16)"/><path class="cls-5" d="M672.33,310.18a2.45,2.45,0,1,1-2.44-2.58A2.51,2.51,0,0,1,672.33,310.18Z" transform="translate(-603.45 -268.16)"/><path d="M671.53,310.19a1.57,1.57,0,1,1-1.57-1.65A1.61,1.61,0,0,1,671.53,310.19Z" transform="translate(-603.45 -268.16)"/><path class="cls-4" d="M672.39,310.23a.82.82,0,1,1-.79-.61A.72.72,0,0,1,672.39,310.23Z" transform="translate(-603.45 -268.16)"/><path class="cls-2" d="M676.06,311.6s-.9-1.45-4.45-2.52c-2.54-.77-6.36.34-6.42,2.15-1.07-.77-1.1-2.2,1.61-3.21a7.41,7.41,0,0,1,8.91,2.87A2.47,2.47,0,0,1,676.06,311.6Z" transform="translate(-603.45 -268.16)"/><path class="cls-4" d="M689.88,311.59c3.25,1.08,4.33,1.21,6.2,1.16,2.54-.06,4.86-.71,4.86-2.32s-2.2-2.89-4.78-2.89S690.24,310.38,689.88,311.59Z" transform="translate(-603.45 -268.16)"/><path class="cls-5" d="M693.56,310.11a2.45,2.45,0,1,0,2.45-2.58A2.52,2.52,0,0,0,693.56,310.11Z" transform="translate(-603.45 -268.16)"/><path d="M694.43,310.13a1.57,1.57,0,1,0,1.57-1.66A1.62,1.62,0,0,0,694.43,310.13Z" transform="translate(-603.45 -268.16)"/><path class="cls-4" d="M696.88,310a.81.81,0,0,0,1.57,0,.81.81,0,0,0-1.57,0Z" transform="translate(-603.45 -268.16)"/><path class="cls-2" d="M689.87,311.6s.9-1.45,4.45-2.52c2.54-.77,6.35.34,6.43,2.15,1.06-.77,1-2.27-1.76-3.28a7.26,7.26,0,0,0-8.77,2.94A2.47,2.47,0,0,0,689.87,311.6Z" transform="translate(-603.45 -268.16)"/><path class="cls-2" d="M684.83,325.73h-4.08a3.21,3.21,0,0,1-3-2.26,3.76,3.76,0,0,0-.22,1.27c0,1.95,2.38,2.58,4.14,2.58h2.17c1.75,0,4.13-.63,4.13-2.58a3.76,3.76,0,0,0-.22-1.27A3.21,3.21,0,0,1,684.83,325.73Z" transform="translate(-603.45 -268.16)"/><path class="cls-2" d="M651.09,310.35c0-.34.66-1.91,1.51-1.64,1.31.41,2.14,3,2.69,5.5s.29,4.39,0,3.71c-.42-1-.79-4.05-2.34-6.95C651.92,309.05,651.3,313.11,651.09,310.35Z" transform="translate(-603.45 -268.16)"/><path class="cls-2" d="M715,310.35c0-.34-.66-1.91-1.51-1.64-1.31.41-2.13,3-2.68,5.5s-.29,4.39,0,3.71c.41-1,.78-4.05,2.34-6.95C714.2,309.05,714.81,313.11,715,310.35Z" transform="translate(-603.45 -268.16)"/><path class="cls-3" d="M704.28,273c-4.39-7.69-29.43-4.4-37.41-2.2s-13.2,6.6-12.92,13.48c.23,5.94.27,19.28.27,22.79a4.65,4.65,0,0,1,2,.81l1.56,7.2,1.65-11.27s-3.3-22,18.15-18.16c-3,1.65-8.52,7.43-8.52,7.43s12.65-3,17.6-4.95,0,4.13,0,4.13,9.63-3.58,12.65-4.68,6-.28,6.6,4.95,1.93,25,1.93,25l3.46-10.37a3.61,3.61,0,0,1,.8-.13c.11-2.1.25-4.7.42-7.93C714.18,267.75,707.59,278.76,704.28,273Z" transform="translate(-603.45 -268.16)"/><path class="cls-6" d="M693.25,331.37S690,333,683.16,333a32.47,32.47,0,0,1-10.85-1.59c-.13-.07-.29.29-.16.36l.33.13a12.31,12.31,0,0,0,3,3.9c.3-.09.81-1,1.66-.9-1.19-.17-1.53-1.22-2-2.22a34.56,34.56,0,0,0,8,.84,31.28,31.28,0,0,0,7.8-.88,2.18,2.18,0,0,1-1,2.07,1.42,1.42,0,0,1,.84,2c1.18-.95,2-3.61,2.27-4.72l.38-.19C693.56,331.66,693.37,331.29,693.25,331.37Z" transform="translate(-603.45 -268.16)"/><path class="cls-4" d="M690.8,336.65a1.42,1.42,0,0,0-.84-2,2.21,2.21,0,0,0,1-2.29,38.61,38.61,0,0,1-7.57.91,27.71,27.71,0,0,1-8.4-.91c.6,1.07.88,2.29,2.18,2.48-.85-.06-1.36.81-1.66.9.56,1.46,4.33,2.93,7.29,2.87C686.53,338.55,691,336.47,690.8,336.65Z" transform="translate(-603.45 -268.16)"/><path class="cls-7" d="M672.45,331.86s1,5.7,3.11,6.88a14.51,14.51,0,0,0,7.83,1.94,10.82,10.82,0,0,0,7.15-2.34c1.44-1.09,2.37-5.55,2.53-6.38v0s-1.78,6.45-10.2,6.42c-7.24,0-10.34-6.43-10.34-6.43Z" transform="translate(-603.45 -268.16)"/><path class="cls-7" d="M672.58,331.49s2.93,2.17,10.93,2,9.21-1.89,9.21-1.89a69.7,69.7,0,0,1-9.39.69A102.24,102.24,0,0,1,672.58,331.49Z" transform="translate(-603.45 -268.16)"/><path class="cls-4" d="M731.49,367.8l-23.37-2.72c-4.28-1.7-8.16-5.87-9-9L683,368.63l-15.68-11.16a19.37,19.37,0,0,1-8.89,7.49l-23.17,2.84A15.51,15.51,0,0,0,620,380.69q-.08.42-.12.84c0,.17,0,.33-.05.5s0,.21,0,.31l18.68,15.37,12.3,78.16H716l12.27-78,18-19.43A15.51,15.51,0,0,0,731.49,367.8Z" transform="translate(-603.45 -268.16)"/><path class="cls-8" d="M658.37,368c0,11.27,11.2,20.4,25,20.4s25-9.13,25-20.4a16.8,16.8,0,0,0-.18-2.26L693.57,380.5,683,369.72,672.4,380.5,658.48,365A23.9,23.9,0,0,1,658.37,368Z" transform="translate(-603.45 -268.16)"/><path class="cls-9" d="M658.42,365l.06.06S658.45,365,658.42,365Z" transform="translate(-603.45 -268.16)"/><path class="cls-9" d="M746,377.87a15.5,15.5,0,0,0-14.51-10.07l-23.33-2.72a21.27,21.27,0,0,1,.26,2.91c0,11.27-11.21,20.4-25,20.4s-25-9.13-25-20.4c0-.26.29-3.13,0-3l-23.17,2.84A15.44,15.44,0,0,0,621,377.19c-4.89,9.38-17.23,40.29-17.58,54.68-.38,16,19.64,44.35,27.72,51.74,8,9.3,14.22-.89,12.48-4.59-3.41-7.27-15.73-33.14-18.67-40.34-3.08-7.55,10-28.06,14.45-34.81l11.33,72H716l11.08-70.42c3.91,6.76,14.59,25.56,14.71,33.42.1,6.26-15.81,28.57-18.67,40.34-1,4,4.52,13.9,12.48,4.59,8.09-7.39,28.1-35.72,27.72-51.74C763,418.59,751.82,389.46,746,377.87Z" transform="translate(-603.45 -268.16)"/><path class="cls-10" d="M649.14,475l.54,22.14A109.73,109.73,0,0,0,683,502.35a108,108,0,0,0,33.86-5.42l.87-22.33Z" transform="translate(-603.45 -268.16)"/><path class="cls-1" d="M654.8,487.57c-3.25-5-2.31-3.57-3.85-6a6.55,6.55,0,0,0-9.05-2c-.61.39-6.17,4-6.74,4.39a6.53,6.53,0,0,0-2.52,5.91,111.33,111.33,0,0,0,13.45,5.92C650.64,493.59,655.06,488.9,654.8,487.57Z" transform="translate(-603.45 -268.16)"/><path class="cls-11" d="M661.68,477.45c0-1.27-3.85-1.27-3.85,0a18.77,18.77,0,0,1-13.2,17.9q2.67,1,5.38,1.88A22.58,22.58,0,0,0,661.68,477.45Z" transform="translate(-603.45 -268.16)"/><path class="cls-1" d="M730.83,484c-.6-.46-6.1-4-6.74-4.39a6.54,6.54,0,0,0-9.05,2l-3.85,6c-.26,1.41,4.25,6.07,8.7,8.3A111.14,111.14,0,0,0,733.35,490,6.58,6.58,0,0,0,730.83,484Z" transform="translate(-603.45 -268.16)"/><path class="cls-11" d="M704.3,477.45c0-1.27,3.85-1.27,3.85,0a18.77,18.77,0,0,0,13.2,17.9q-2.65,1-5.38,1.88A22.6,22.6,0,0,1,704.3,477.45Z" transform="translate(-603.45 -268.16)"/><polygon class="cls-12" points="121.56 130.91 112.55 160.01 47.32 160.01 38.98 131.52 35.95 135.68 45.78 211.05 114.09 211.05 123.66 140.39 121.56 130.91"/></svg>