<svg id="Слой_1" data-name="Слой 1" xmlns="http://www.w3.org/2000/svg" xmlns:xlink="http://www.w3.org/1999/xlink" viewBox="0 0 620.86 460.98"><defs><style>.cls-1{fill:url(#linear-gradient);}.cls-2,.cls-8{fill:#1a003d;}.cls-2{opacity:0.1;}.cls-3{fill:#8f98f8;}.cls-4{fill:#474bca;}.cls-5{fill:#5563ff;}.cls-6{fill:#5a66d4;}.cls-7{fill:url(#linear-gradient-2);}.cls-8{opacity:0.4;}.cls-9{fill:#f1f3ff;}.cls-10{fill:#ff5e85;}.cls-11{fill:#fff;}.cls-12{fill:#bac2ff;}.cls-13{fill:#ff82a0;}.cls-14{fill:url(#linear-gradient-3);}.cls-15{fill:#2c3955;}.cls-16{fill:#ffadc8;}.cls-17{fill:#3c81e3;}.cls-18{fill:#bfc4f8;}.cls-19{fill:#f7f8ff;}.cls-20{fill:#31b09f;}.cls-21{fill:#dbdfff;}.cls-22{fill:#ffa3be;}.cls-23{fill:#cacdfb;}.cls-24{fill:#4491ff;}.cls-25{fill:#e2e6ff;}</style><linearGradient id="linear-gradient" x1="644.99" y1="551.9" x2="644.99" y2="246.33" gradientUnits="userSpaceOnUse"><stop offset="0" stop-color="#d4d9ff"/><stop offset="1" stop-color="#e2e6ff"/></linearGradient><linearGradient id="linear-gradient-2" x1="277.21" y1="196.88" x2="437.59" y2="196.88" xlink:href="#linear-gradient"/><linearGradient id="linear-gradient-3" x1="811.34" y1="181.96" x2="846.02" y2="181.96" xlink:href="#linear-gradient"/></defs><title>service-shop-5</title><path class="cls-1" d="M946.75,566a8.67,8.67,0,0,0,8.67-8.67V105c-39.74,31.75-73.62,70.47-110.3,105.89-41.3,39.89-88.39,76.81-144.13,90.55-32.8,8.09-67,7.75-100.45,12.7A319.21,319.21,0,0,0,334.57,566Z" transform="translate(-334.57 -105.02)"/><ellipse class="cls-2" cx="189.94" cy="415.78" rx="123.31" ry="13"/><ellipse class="cls-2" cx="545.82" cy="416.99" rx="59.39" ry="13"/><ellipse class="cls-2" cx="393.12" cy="357.06" rx="152.7" ry="13"/><path class="cls-3" d="M761.89,252.81c2.63-16,13.56-25.94,29.23-29.43s10.82-17,12.61-30.54S823.7,172.56,836,173s16.56-6.76,21-16.49,21.73-15.21,28.5-6.34-3,19.87-8.69,23.67-8.64,13.44-8.64,23-4.23,22.66-19.87,24.35S827,236.35,827.7,246.52s-3.58,27.48-12.46,30.86-26.62,15.07-27.47,34.16-25.88,27.92-25.88,27.92Z" transform="translate(-334.57 -105.02)"/><path class="cls-3" d="M830.7,268.92c4.64-11.63,17.51-38.46,34-36.77s30.85-3,35.5-14.37,22-15.21,28.74-7.18-.84,19.82-8,27,.42,28.34-9.3,35.52-24.43,8.45-33.13,16.91-2.43,26.28-17.59,34.95-37.62,13.5-41.42,34.92-34.34,37.67-48,31.87L757.76,386V311.54s5.82-15.13,13.69-23.17,16.88-9.95,28.78-9.79S825.92,280.92,830.7,268.92Z" transform="translate(-334.57 -105.02)"/><path class="cls-4" d="M763.6,300.07l-.69-.23c.07-.23,7.71-23.59,17.61-35a80.32,80.32,0,0,1,11.11-10.1c7.16-5.69,13.92-11.07,17.85-22.3,6.23-17.79,16.33-30.22,29.22-36s20.23-22.87,20.3-23l.67.28c-.07.18-7.52,17.58-20.67,23.43-12.7,5.65-22.67,17.94-28.83,35.53-4,11.43-10.84,16.87-18.08,22.64a79,79,0,0,0-11,10C771.27,276.61,763.68,299.84,763.6,300.07Z" transform="translate(-334.57 -105.02)"/><path class="cls-4" d="M760,356.65l-.62-.39c.18-.28,17.92-28.53,34.11-38.07,5.07-3,11.69-5.66,18.7-8.49,15.72-6.36,33.53-13.56,41.37-27,11.71-20.15,29.59-32.38,41.33-36.73l.26.68c-11.64,4.31-29.34,16.43-41,36.42-8,13.69-25.9,20.94-41.73,27.34-7,2.83-13.58,5.5-18.59,8.45C777.81,328.27,760.16,356.36,760,356.65Z" transform="translate(-334.57 -105.02)"/><path class="cls-3" d="M799,416.44s70.75,10.3,70.78,25.11S751.64,471.2,743.36,443.6,799,416.44,799,416.44Z" transform="translate(-334.57 -105.02)"/><path class="cls-5" d="M748.37,439.74c15.9-8.91,90.7-.19,91.45-.1l.06-.46c-.76-.09-75.7-8.82-91.73.16Z" transform="translate(-334.57 -105.02)"/><path class="cls-3" d="M753.21,419.12c-.19,23.37,82.67,13.42,114.51-6.45S902.2,376.18,901.26,372s-46.36-11-75-2.83C798.33,377.18,753.36,399.39,753.21,419.12Z" transform="translate(-334.57 -105.02)"/><path class="cls-3" d="M862.86,326.71c-4.86-8.08-55.89,7.94-76.12,33.06s-21,38.62-3.71,37,31-10.18,47.5-24.58S868.86,336.7,862.86,326.71Z" transform="translate(-334.57 -105.02)"/><path class="cls-5" d="M760.55,416.62c51.52-25,96-25.38,96.48-25.38v-.46c-.44,0-45.06.34-96.68,25.43Z" transform="translate(-334.57 -105.02)"/><rect class="cls-6" x="267.03" y="25.33" width="180.73" height="332.84" rx="45.38"/><rect class="cls-7" x="277.21" y="60.34" width="160.38" height="273.07" rx="5.34"/><path class="cls-8" d="M722.86,154.75H661.07a4.11,4.11,0,0,1-4.12-4.12h0a4.12,4.12,0,0,1,4.12-4.12h61.79a4.12,4.12,0,0,1,4.12,4.12h0A4.11,4.11,0,0,1,722.86,154.75Z" transform="translate(-334.57 -105.02)"/><circle class="cls-8" cx="744.95" cy="150.63" r="3.89" transform="translate(-222.89 465.86) rotate(-45)"/><path class="cls-9" d="M594.89,229.06h0a16.17,16.17,0,0,1-16.17-16.18V197.11h32.35v15.77A16.17,16.17,0,0,1,594.89,229.06Z" transform="translate(-334.57 -105.02)"/><path class="cls-10" d="M276.51,92.09h32.36a0,0,0,0,1,0,0v15.77A16.18,16.18,0,0,1,292.68,124h0a16.18,16.18,0,0,1-16.18-16.18V92.09a0,0,0,0,1,0,0Z"/><path class="cls-9" d="M308.86,92.09h32.36a0,0,0,0,1,0,0v15.77A16.18,16.18,0,0,1,325,124h0a16.18,16.18,0,0,1-16.18-16.18V92.09A0,0,0,0,1,308.86,92.09Z"/><path class="cls-10" d="M341.22,92.09h32.36a0,0,0,0,1,0,0v15.77A16.18,16.18,0,0,1,357.4,124h0a16.18,16.18,0,0,1-16.18-16.18V92.09A0,0,0,0,1,341.22,92.09Z"/><path class="cls-9" d="M373.58,92.09h32.36a0,0,0,0,1,0,0v15.77A16.18,16.18,0,0,1,389.76,124h0a16.18,16.18,0,0,1-16.18-16.18V92.09a0,0,0,0,1,0,0Z"/><path class="cls-10" d="M756.68,229.06h0a16.17,16.17,0,0,1-16.18-16.18V197.11h32.36v15.77A16.18,16.18,0,0,1,756.68,229.06Z" transform="translate(-334.57 -105.02)"/><path class="cls-9" d="M789,229.06h0a16.17,16.17,0,0,1-16.18-16.18V197.11h32.35v15.77A16.17,16.17,0,0,1,789,229.06Z" transform="translate(-334.57 -105.02)"/><polygon class="cls-11" points="276.51 92.09 244.15 92.09 277.21 60.34 304.21 60.34 276.51 92.09"/><polygon class="cls-10" points="308.86 92.09 276.51 92.09 304.21 60.34 327.33 60.34 308.86 92.09"/><polygon class="cls-11" points="341.22 92.09 308.86 92.09 327.33 60.34 350.45 60.34 341.22 92.09"/><polygon class="cls-11" points="438.29 92.09 470.65 92.09 437.59 60.34 410.59 60.34 438.29 92.09"/><polygon class="cls-10" points="405.93 92.09 438.29 92.09 410.59 60.34 387.46 60.34 405.93 92.09"/><polygon class="cls-11" points="373.58 92.09 405.93 92.09 387.46 60.34 364.34 60.34 373.58 92.09"/><polygon class="cls-10" points="373.58 92.09 341.22 92.09 350.45 60.34 364.34 60.34 373.58 92.09"/><rect class="cls-12" x="286.3" y="182.13" width="42.21" height="42.02" rx="12.29"/><rect class="cls-12" x="286.3" y="234.76" width="142.2" height="46.8" rx="12.29"/><path class="cls-12" d="M298.59,293.8H416.2a12.29,12.29,0,0,1,12.29,12.29v27.32a0,0,0,0,1,0,0H286.3a0,0,0,0,1,0,0V306.09A12.29,12.29,0,0,1,298.59,293.8Z"/><path class="cls-13" d="M921.84,187.08H844.69a143.34,143.34,0,0,1-3.67,17.7,78.6,78.6,0,0,1-4.2,11.87,9,9,0,1,1-11.25-3.85,8.82,8.82,0,0,1,3.45-.69,8.73,8.73,0,0,1,2.71.42c.26-.62.53-1.3.81-2.05a111.85,111.85,0,0,0,4.69-17.24c.4-2.08.76-4.13,1.06-6.16H836.2a11.68,11.68,0,0,0-8.29,3.45l-7.18,7.22L815.51,203l-6.68,6.72a16.06,16.06,0,0,0,0,22.65l19.08,19.2A11.68,11.68,0,0,0,836.2,255h85.64a11.68,11.68,0,0,0,11.68-11.68V198.77A11.68,11.68,0,0,0,921.84,187.08Z" transform="translate(-334.57 -105.02)"/><path class="cls-14" d="M842.68,149.43c-3.61-8.11-9.42-9.82-13.66-9.82s-10.4,1.82-14.17,10.46c-2.33,5.34-3.51,12.57-3.51,21.5A129.29,129.29,0,0,0,815.51,203c.23.88.47,1.75.72,2.6a61.2,61.2,0,0,0,4.6,11.82c.12.24.25.46.37.68,2.4,4.16,5,6.18,7.82,6.18,3.52,0,5.83-3.75,7.27-6.57.18-.35.35-.71.53-1.08a9,9,0,0,0-5.09-4.12,18.81,18.81,0,0,1-2.93,5.23c-.62-.51-1.79-1.91-3.23-5-.1-.22-.21-.45-.31-.68a79.3,79.3,0,0,1-4.53-14.37c-.05-.25-.11-.49-.16-.75-2.92-13.26-3.69-27-2.06-36.73,1.6-9.51,5.13-14.33,10.51-14.33,1.59,0,6.43,0,9.05,9.36,2.09,7.46,2.14,19,.22,31.78h6.4A125.58,125.58,0,0,0,846,169.72C846,161.24,844.9,154.41,842.68,149.43Z" transform="translate(-334.57 -105.02)"/><path class="cls-13" d="M844.69,187.08a143.34,143.34,0,0,1-3.67,17.7,78.6,78.6,0,0,1-4.2,11.87,9,9,0,0,0-5.09-4.12c.26-.62.53-1.3.81-2.05a111.85,111.85,0,0,0,4.69-17.24c.4-2.08.76-4.13,1.06-6.16Z" transform="translate(-334.57 -105.02)"/><path class="cls-9" d="M899.84,206.65,883.41,238a2.67,2.67,0,0,1-2.36,1.42h-4.9a2.67,2.67,0,0,1-2.37-3.9l16.43-31.31a2.66,2.66,0,0,1,2.36-1.43h4.9A2.67,2.67,0,0,1,899.84,206.65Z" transform="translate(-334.57 -105.02)"/><path class="cls-9" d="M878,204.62a9.36,9.36,0,0,0-6.68-2.4,9.51,9.51,0,0,0-6.75,2.4Q862,207,862,211.55t2.58,6.91a9.59,9.59,0,0,0,6.75,2.37,9.43,9.43,0,0,0,6.68-2.37q2.55-2.37,2.55-6.91T878,204.62Zm-5.36,8.89a1.65,1.65,0,0,1-1.42.67c-1.17,0-1.75-.88-1.75-2.63s.58-2.68,1.75-2.68a1.65,1.65,0,0,1,1.42.67,3.46,3.46,0,0,1,.49,2A3.35,3.35,0,0,1,872.67,213.51Z" transform="translate(-334.57 -105.02)"/><path class="cls-9" d="M909,223.64a9.31,9.31,0,0,0-6.7-2.4,9.44,9.44,0,0,0-6.7,2.4Q893,226,893,230.57c0,3,.86,5.34,2.58,6.93a9.44,9.44,0,0,0,6.7,2.4,9.31,9.31,0,0,0,6.7-2.4c1.69-1.59,2.53-3.91,2.53-6.93S910.71,225.24,909,223.64Zm-5.38,8.94a1.6,1.6,0,0,1-1.37.67c-1.2,0-1.8-.89-1.8-2.68s.6-2.68,1.8-2.68a1.58,1.58,0,0,1,1.37.7,4.31,4.31,0,0,1,0,4Z" transform="translate(-334.57 -105.02)"/><rect class="cls-12" x="335.85" y="182.13" width="42.21" height="42.02" rx="12.29"/><rect class="cls-12" x="386.29" y="182.13" width="42.21" height="42.02" rx="12.29"/><path class="cls-11" d="M792.77,274.84H636.83a16,16,0,0,1-16-16h0a16,16,0,0,1,16-16H792.77a16,16,0,0,1,16,16h0A16,16,0,0,1,792.77,274.84Z" transform="translate(-334.57 -105.02)"/><path class="cls-4" d="M792.46,269.14h0a10.26,10.26,0,0,1-10.26-10.26h0a10.26,10.26,0,0,1,10.26-10.26h0a10.26,10.26,0,0,1,10.26,10.26h0A10.26,10.26,0,0,1,792.46,269.14Z" transform="translate(-334.57 -105.02)"/><path class="cls-9" d="M709.54,266.15H639.61a2.13,2.13,0,0,1-2.13-2.14h0a2.13,2.13,0,0,1,2.13-2.14h69.93a2.13,2.13,0,0,1,2.13,2.14h0A2.13,2.13,0,0,1,709.54,266.15Z" transform="translate(-334.57 -105.02)"/><path class="cls-11" d="M798.07,263.49,795.61,261a5,5,0,1,0-9.08-3,5,5,0,0,0,8.07,4l2.46,2.46a.73.73,0,0,0,.51.21.69.69,0,0,0,.5-.21A.71.71,0,0,0,798.07,263.49ZM788.16,258a3.43,3.43,0,1,1,3.42,3.43A3.42,3.42,0,0,1,788.16,258Z" transform="translate(-334.57 -105.02)"/><path class="cls-15" d="M681.22,333.28a14.7,14.7,0,0,1,20-6.55c5.42,2.83,8.49,8.64,11.23,14.11l4.44,8.84c1.15,2.3,2.34,4.85,1.71,7.34-.67,2.65-3.32,4.78-3,7.5.23,2,2,3.45,3.82,4.43s3.75,1.84,4.87,3.54c1.76,2.69.67,6.4,1.93,9.36.81,1.9,2.52,3.32,3.31,5.23,1.35,3.29-.58,7.3-3.68,9.06s-7,1.65-10.36.6-6.47-2.95-9.6-4.64-6.46-3.23-10-3.48c-4-.28-8.14,1.12-12.07.21a10.89,10.89,0,0,1-8.08-11.44c.28-2.4,1.37-4.83.7-7.16-.8-2.76-3.72-4.22-5.89-6.11-2.79-2.45-4.58-6.3-3.74-9.92.7-3.06,3.11-5.56,3.55-8.67.31-2.15-.38-4.38.11-6.5C671.2,335.88,678.1,332.43,681.22,333.28Z" transform="translate(-334.57 -105.02)"/><path class="cls-16" d="M653.59,352.36c-.55,1.28-1.1,2.54-1.64,3.63-.71-2.69-1.3-8.86-3.62-10.9-3-2.63-9.92,2.75-10,4.85a26.18,26.18,0,0,0,1.55,10.68,25.61,25.61,0,0,0,4.9,7.62l2-.54c1.71,1.69,5.86-1.17,5.86-1.17s3.47-4.35,3.58-7a32.13,32.13,0,0,1,1.08-7.89C658,349.51,655,349,653.59,352.36Z" transform="translate(-334.57 -105.02)"/><path class="cls-16" d="M726.85,436.07s-.39,6.61,5.22,6.61,7.56-1.75,9.27-1.75,3.41,1.75,6.22,1.75c2.13,0,4.48-.42,3.14-1.51s-3.68-.87-5.35-1.87-4.22-2.49-6.34-2.49-7.33-3.6-7.33-3.6Z" transform="translate(-334.57 -105.02)"/><path class="cls-10" d="M713.52,377.22s2.89,4.79,8.23,19.83,14.08,33.65,14.08,33.65-2.24,4.86-11.15,5.67c0,0-6.33-18.78-8.59-24s-9.34-20.23-9.34-20.23Z" transform="translate(-334.57 -105.02)"/><path class="cls-10" d="M669.2,377.22l-11.54,7.68-3.57-19.1s-6.79.48-10.68,2.75c0,0,3.08,23.14,5.34,26.22s7.93,2.59,12.79,0,12.63-7.12,12.63-7.12Z" transform="translate(-334.57 -105.02)"/><path class="cls-16" d="M696.37,361.69l-4.93-.38-4.92.38a27.58,27.58,0,0,1,0,9.39s1.22.68,4.92.68,4.93-.68,4.93-.68A27.58,27.58,0,0,1,696.37,361.69Z" transform="translate(-334.57 -105.02)"/><path class="cls-16" d="M696.23,369.73h-9.55a21,21,0,0,1-5.8,2.65s1.21,10,10.58,10,10.57-10,10.57-10A21,21,0,0,1,696.23,369.73Z" transform="translate(-334.57 -105.02)"/><path class="cls-16" d="M681.51,349.05s-2.5-1.82-3.78,0-.58,7.74,2.54,7.42c2.23-.23,2.6-.76,2.6-.76Z" transform="translate(-334.57 -105.02)"/><path class="cls-16" d="M701.38,349.05s2.5-1.82,3.78,0,.58,7.74-2.54,7.42c-2.23-.23-2.61-.76-2.61-.76Z" transform="translate(-334.57 -105.02)"/><path class="cls-16" d="M691.44,334.72c-8.37,0-12.32,8.78-11.08,16.74s6.16,12.87,11.08,12.87,9.86-4.91,11.09-12.87S699.82,334.72,691.44,334.72Z" transform="translate(-334.57 -105.02)"/><path class="cls-17" d="M675.76,417.22s-4.2,14.69-4.2,21.24h39.59s-1.52-12.6-3.33-21.24Z" transform="translate(-334.57 -105.02)"/><path class="cls-18" d="M684.44,371s.27,8,7,8,7-8,7-8l4.41,1.25L701.16,402l5.59,18s-10.19,3.07-15.29,3.07-13.88-2.73-13.88-2.73l5.29-19.82-4.72-27.81Z" transform="translate(-334.57 -105.02)"/><path class="cls-10" d="M700.41,371s-3.89,23-3.65,33.8,8.56,22.91,8.56,22.91,6-2.28,8.2-5.57c0,0-4.32-10.25-4.38-16.46s4.5-27,4.38-28.48S704.16,371.85,700.41,371Z" transform="translate(-334.57 -105.02)"/><path class="cls-10" d="M682.31,371s3.88,23,3.64,33.8-8.55,22.91-8.55,22.91-6-2.28-8.2-5.57c0,0,4.31-10.25,4.38-16.46s-4.5-27-4.38-28.48S678.56,371.85,682.31,371Z" transform="translate(-334.57 -105.02)"/><path class="cls-15" d="M695.26,343.9c1.84,2.18.8,6.19,3.21,7.72,2.17,1.37,5.56-.47,7.39,1.33.91.89,1,2.3,1.39,3.5s1.67,2.41,2.81,1.84a21.77,21.77,0,0,0-3.77-15.9c-3.92-5.48-14.26-12.18-20.93-7.62-2.07,1.41-4.28,4.58-2,6.75C686.5,344.52,692.21,340.27,695.26,343.9Z" transform="translate(-334.57 -105.02)"/><path class="cls-15" d="M684.18,344.94c-1.2,1.76-2.57,3.65-4.51,4a4.43,4.43,0,0,1-4.42-2.23,6.78,6.78,0,0,1-.45-.84,8.72,8.72,0,0,1,.17-6.54C679.15,329.11,688.69,338.28,684.18,344.94Z" transform="translate(-334.57 -105.02)"/><path class="cls-13" d="M927,497H889.86a3.65,3.65,0,0,1-3.64-3.94l3.32-40.77a1,1,0,0,1,1-.95h35.75a1,1,0,0,1,1,.95l3.31,40.77A3.63,3.63,0,0,1,927,497Z" transform="translate(-334.57 -105.02)"/><path class="cls-3" d="M918.93,459.86h0a1.24,1.24,0,0,1-1.24-1.23V446.17a9.25,9.25,0,1,0-18.49-.12v12.58a1.24,1.24,0,0,1-1.24,1.23h0a1.24,1.24,0,0,1-1.24-1.23V446.2a11.73,11.73,0,1,1,23.45-.15v12.58A1.24,1.24,0,0,1,918.93,459.86Z" transform="translate(-334.57 -105.02)"/><path class="cls-19" d="M906,312.55H828.46a16.15,16.15,0,0,1-16.14-16.15h0a16.14,16.14,0,0,1,16.14-16.14H906a16.14,16.14,0,0,1,16.14,16.14h0A16.14,16.14,0,0,1,906,312.55Z" transform="translate(-334.57 -105.02)"/><rect class="cls-11" x="408.24" y="197.96" width="83.18" height="82.81" rx="24.23"/><rect class="cls-12" x="424.85" y="207.53" width="49.96" height="35.3" rx="4.47"/><rect class="cls-15" x="770.03" y="308.5" width="28.74" height="43.4" rx="2.64" transform="translate(780.02 -559.21) rotate(90)"/><rect class="cls-20" x="421.43" y="242.83" width="56.79" height="3.92" rx="1.96"/><rect class="cls-6" x="421.43" y="242.83" width="56.79" height="3.92" rx="1.96"/><path class="cls-8" d="M442.7,242.83H457a0,0,0,0,1,0,0v0a1.58,1.58,0,0,1-1.58,1.58H444.29a1.58,1.58,0,0,1-1.58-1.58v0a0,0,0,0,1,0,0Z"/><path class="cls-15" d="M785,314.17a.63.63,0,1,1-.63-.62A.63.63,0,0,1,785,314.17Z" transform="translate(-334.57 -105.02)"/><path class="cls-21" d="M807.07,364.55H782.79a2.9,2.9,0,0,1-2.9-2.9h0a2.9,2.9,0,0,1,2.9-2.9h24.28a2.9,2.9,0,0,1,2.9,2.9h0A2.9,2.9,0,0,1,807.07,364.55Z" transform="translate(-334.57 -105.02)"/><path class="cls-21" d="M805.34,374.67H763.45a2.9,2.9,0,0,1-2.9-2.9h0a2.89,2.89,0,0,1,2.9-2.89h41.89a2.89,2.89,0,0,1,2.9,2.89h0A2.9,2.9,0,0,1,805.34,374.67Z" transform="translate(-334.57 -105.02)"/><path class="cls-22" d="M830.13,301.72l4.51,2.37a.46.46,0,0,0,.67-.49l-.86-5L838.1,295a.46.46,0,0,0-.26-.79l-5-.73-2.26-4.58a.47.47,0,0,0-.83,0l-2.25,4.58-5.05.73a.46.46,0,0,0-.26.79l3.65,3.56-.86,5a.46.46,0,0,0,.67.49Z" transform="translate(-334.57 -105.02)"/><path class="cls-22" d="M848.68,301.72l4.52,2.37a.46.46,0,0,0,.67-.49l-.87-5,3.66-3.56a.46.46,0,0,0-.26-.79l-5-.73-2.25-4.58a.47.47,0,0,0-.83,0L846,293.5l-5,.73a.46.46,0,0,0-.26.79l3.65,3.56-.86,5a.46.46,0,0,0,.67.49Z" transform="translate(-334.57 -105.02)"/><path class="cls-22" d="M867.24,301.72l4.52,2.37a.46.46,0,0,0,.66-.49l-.86-5,3.65-3.56a.46.46,0,0,0-.25-.79l-5.05-.73-2.26-4.58a.46.46,0,0,0-.82,0l-2.26,4.58-5.05.73a.47.47,0,0,0-.25.79l3.65,3.56-.86,5a.46.46,0,0,0,.67.49Z" transform="translate(-334.57 -105.02)"/><path class="cls-22" d="M885.8,301.72l4.51,2.37a.46.46,0,0,0,.67-.49l-.86-5,3.65-3.56a.46.46,0,0,0-.25-.79l-5-.73-2.26-4.58a.46.46,0,0,0-.82,0l-2.26,4.58-5,.73a.46.46,0,0,0-.25.79l3.65,3.56-.86,5a.46.46,0,0,0,.67.49Z" transform="translate(-334.57 -105.02)"/><path class="cls-23" d="M904.36,301.72l4.51,2.37a.46.46,0,0,0,.67-.49l-.86-5,3.65-3.56a.46.46,0,0,0-.26-.79l-5-.73-2.26-4.58a.47.47,0,0,0-.83,0l-2.25,4.58-5.05.73a.46.46,0,0,0-.25.79l3.65,3.56-.87,5a.46.46,0,0,0,.67.49Z" transform="translate(-334.57 -105.02)"/><path class="cls-23" d="M893.52,294.23l-5-.73-2.26-4.58a.45.45,0,0,0-.41-.25v13.05l4.51,2.37a.46.46,0,0,0,.67-.49l-.86-5,3.65-3.56A.46.46,0,0,0,893.52,294.23Z" transform="translate(-334.57 -105.02)"/><path class="cls-19" d="M833.53,309.07v9.44a2,2,0,0,0,3.68,1.16l7.45-10.6Z" transform="translate(-334.57 -105.02)"/><path class="cls-4" d="M847.35,510.14a105,105,0,0,1-11.69,6.27c-4.31,1.73-5.41,2.71-5.41,3.82,0,1.72,11.7,1.48,15.94,1.11s12,.37,12.36-.74a20.83,20.83,0,0,0,0-9.36Z" transform="translate(-334.57 -105.02)"/><path class="cls-4" d="M888.16,510.14a106,106,0,0,0,11.69,6.27c4.31,1.73,5.42,2.71,5.42,3.82,0,1.72-11.71,1.48-15.95,1.11s-12,.37-12.36-.74a21,21,0,0,1,0-9.36Z" transform="translate(-334.57 -105.02)"/><path class="cls-24" d="M849.46,416.53s-1.82,22.34-2.35,40.86-.92,53-.92,53a17.83,17.83,0,0,0,13.65,2.14s2.34-33.92,3.31-41.33,5.05-25.15,5.05-25.15,8.6-7,.8-25.54Z" transform="translate(-334.57 -105.02)"/><path class="cls-24" d="M886.16,419.17s3.51,9.36,1.17,22.62c0,0,0,22.23.8,31S889.28,510,889.28,510s-4.49,3.7-13.26,1.36c0,0-3-28.27-3.75-39s-4.07-28.85-4.07-28.85l.8-23Z" transform="translate(-334.57 -105.02)"/><path class="cls-16" d="M856.49,336.82s-2.16-4-4.58-1.5-.67,9.75,4,9.59Z" transform="translate(-334.57 -105.02)"/><path class="cls-16" d="M861.58,352.41l10.9-1.45A31.06,31.06,0,0,0,873.86,362a18,18,0,0,1-13.2,1.13A102.73,102.73,0,0,0,861.58,352.41Z" transform="translate(-334.57 -105.02)"/><path class="cls-16" d="M854.33,341.57s1.16,11.09,4.08,12.67,11.33.33,16.08-3.25,6.42-13.17,5.75-20.25-9.5-8.75-13.75-8.75S852.49,322.16,854.33,341.57Z" transform="translate(-334.57 -105.02)"/><path class="cls-16" d="M910.06,435.74a28.58,28.58,0,0,0-3.44-8.49s-2.13-22.28-3.44-26.71-4.43-13.6-4.43-13.6l-8.68,4.89s4.26,10.51,4.91,14.28,5.08,22,5.08,22a10.06,10.06,0,0,0-2.24,4.65c-.24,2.36.72,3.67.52,5.87s.62,4.16,1.72,2.61a11,11,0,0,0,1.13-4.14c.38,1.67.79,3.58.95,4.7.33,2.26,4.08,2.13,6.2,1.32S911,440.22,910.06,435.74Z" transform="translate(-334.57 -105.02)"/><path class="cls-15" d="M854.19,334.61s1.43,6.64,3.95,10.3a98.39,98.39,0,0,1,5.16,8.57c.73,1.32,1,2,6.92,2s5.4-.25,7.54-4.53,5.66-9.56,5.54-14.59c0,0,3.77-.13,3.77-1.76s-3.52-1.89-3.52-1.89,4.27-2.14,3.52-4-4.53,0-4.53,0-1.26-8.43-14.21-8.43c-6.29,0-8.18.75-8.18.75s-.77-4.15-3.66-3.77-1,4.74-1,4.74-5-2.8-5.41,0,2.89,5.07,2.89,5.07a18.75,18.75,0,0,0-.56,7.83Z" transform="translate(-334.57 -105.02)"/><path class="cls-16" d="M832,381l-10-15.09a5.56,5.56,0,0,0,.27-.79h0s3.45-2.83,3.45-5.34a25.14,25.14,0,0,1,.65-5.91c.32-1.29-.37-2.67-2.05-1.29-1.5,1.23-.91,4.88-1.87,6.32a7.94,7.94,0,0,0-.39-1.41h0s-2.74-11.72-4.68-11c-1.42.54-.24,5.68.5,8.39a9.43,9.43,0,0,0-2.52.64c-3.65,1.41-5.27,2.88-3.65,6.68a10.54,10.54,0,0,0,5,5.26s5.92,18,9.1,22,4.9,4.48,12-1.88Z" transform="translate(-334.57 -105.02)"/><path class="cls-4" d="M847.11,365.08C838.09,371,832,381,832,381a16.89,16.89,0,0,0,11.46,10.87l8.5-6.27Z" transform="translate(-334.57 -105.02)"/><path class="cls-4" d="M889.28,366.65c6.94,5.55,11.63,20.82,11.63,20.82s-1.29,4.69-13.75,7.81Z" transform="translate(-334.57 -105.02)"/><path class="cls-4" d="M847.11,365.08s5.69-4.85,21.5-4.85,20.67,6.42,20.67,6.42l-1.39,54.49a77.71,77.71,0,0,1-40.78-.87Z" transform="translate(-334.57 -105.02)"/><rect class="cls-3" x="166.89" y="168.64" width="127.22" height="77.77" rx="21.07"/><rect class="cls-8" x="166.89" y="184.69" width="127.22" height="14.88"/><rect class="cls-11" x="176.9" y="206.48" width="67" height="12.01" rx="6"/><rect class="cls-11" x="251.27" y="206.48" width="29.81" height="12.01" rx="6"/><path class="cls-18" d="M613.71,334.13h-54.9a1.94,1.94,0,0,1-1.94-1.94h0a1.94,1.94,0,0,1,1.94-1.94h54.9a1.94,1.94,0,0,1,1.94,1.94h0A1.94,1.94,0,0,1,613.71,334.13Z" transform="translate(-334.57 -105.02)"/><path class="cls-18" d="M613.71,341.72H587.9a1.94,1.94,0,0,1-1.94-1.94h0a1.94,1.94,0,0,1,1.94-1.94h25.81a1.94,1.94,0,0,1,1.94,1.94h0A1.94,1.94,0,0,1,613.71,341.72Z" transform="translate(-334.57 -105.02)"/><path class="cls-18" d="M578.62,341.72H565.11a1.94,1.94,0,0,1-1.94-1.94h0a1.94,1.94,0,0,1,1.94-1.94h13.51a1.94,1.94,0,0,1,1.94,1.94h0A1.94,1.94,0,0,1,578.62,341.72Z" transform="translate(-334.57 -105.02)"/><path class="cls-18" d="M553.22,341.72h-38a1.94,1.94,0,0,1-1.94-1.94h0a1.94,1.94,0,0,1,1.94-1.94h38a1.94,1.94,0,0,1,1.94,1.94h0A1.94,1.94,0,0,1,553.22,341.72Z" transform="translate(-334.57 -105.02)"/><path class="cls-16" d="M472.08,503.59a47,47,0,0,1,2.7,9.69c.51,3.61-.43,7.16.26,8.45,1.61,3,8.7-.48,12.36,0s14,.25,14.34-2.49-4.95-2.52-9.07-4.12-9.69-3.26-9.69-3.26l-.76-6.68Z" transform="translate(-334.57 -105.02)"/><path class="cls-16" d="M465.67,331.87c8.38,1.46,11.84,7.72,10.56,15s-1.79,14.75-7.85,12.6-15.41-7.09-13.73-16.69S461.39,331.12,465.67,331.87Z" transform="translate(-334.57 -105.02)"/><path class="cls-16" d="M465.53,355a44.77,44.77,0,0,0-2.32,8.45,3.53,3.53,0,0,1-4.06,1.72,7.36,7.36,0,0,1-4.6-2.86,83.62,83.62,0,0,0,3.78-9.32Z" transform="translate(-334.57 -105.02)"/><path class="cls-3" d="M451,359.89c9.59-2.23,13.85,2,18.11,12.95s5.59,14.14,5.59,19.32-2.4,19.56-1.87,24.62S479.46,440.21,480,453s2.32,48.47,2.23,52.19-42.75,2.89-50.69,1.13c-2.66-.59-4.79-29.46-4.26-37s9.05-25.37,9.05-33.89,5.06-22.46,7.73-29.74,2.39-34.39,2.39-40.41S451,359.89,451,359.89Z" transform="translate(-334.57 -105.02)"/><path class="cls-16" d="M449.41,466.16s-8.7,8.9-11.67,15.31-2.29,26.55-3.21,32.27-2.74,10.53,1.15,10.53,26.55,1.6,25.17-1.6-17.39-5.49-18.53-8.93,7.09-30,7.09-30Z" transform="translate(-334.57 -105.02)"/><path class="cls-16" d="M454.55,362.33c-4.45,1.62-2.8,11.24,1.95,21.21s5.55,15.28,12.62,15.28h23l1.29-6.45s-21.71-2.08-23.8-2.72S462.66,359.38,454.55,362.33Z" transform="translate(-334.57 -105.02)"/><path class="cls-16" d="M493.41,392.37c6.71.52,11.47,6.46,12.33,10.53s-4.93,6.3-5,3.16-.19-7.54-3.37-7.24-2.82,1.87-5.25,0S493.41,392.37,493.41,392.37Z" transform="translate(-334.57 -105.02)"/><path class="cls-16" d="M487.61,395.79s1.42,6.31,4.47,8.07,4.57,5,6.07,4.16-1.6-3-1.49-5-2.61-7.22-2.61-7.22Z" transform="translate(-334.57 -105.02)"/><path class="cls-10" d="M461.82,347s3.44.88,5.18-.95,2.88-6,2.88-6,6.08,4.14,9.75,2.77,3.21-7.37,0-9.58a6.8,6.8,0,0,0-5.1-8.1c-6.54-1.85-20.88-7.08-24,4.14,0,0-5.75,4-4.57,9.9.44,2.21.39,5.87-2.68,7.22s-8.11,4.47-7.3,9.95,2.81,8.31.53,10.51-3,6.56.18,9.14,9.29,1.95,13.5-1.67,6.83-12,8-21.46C458.44,351,461.82,347,461.82,347Z" transform="translate(-334.57 -105.02)"/><path class="cls-16" d="M461.82,347s-.38-3.16-3.07-2.8-4,8.85,2,9.05Z" transform="translate(-334.57 -105.02)"/><path class="cls-24" d="M454.7,519.35a10.73,10.73,0,0,1-3.62,2.12c-1.83.5-17.62-1.85-17.62-1.85-.41,2.79-.2,4.65,2.22,4.65,3.89,0,26.55,1.6,25.17-1.6C460.34,521.47,457.77,520.4,454.7,519.35Z" transform="translate(-334.57 -105.02)"/><path class="cls-24" d="M492.67,515.12c-.87,4.78-10.59,3.44-17.82,3.16a8,8,0,0,0,.19,3.45c.86,1.59,3.26,1.36,5.87.86l.46-.09.94-.19.93-.19.91-.17c.46-.08.9-.15,1.32-.2a8.36,8.36,0,0,1,1.93,0c.35,0,.75.08,1.2.11.15,0,.3,0,.46,0,.63,0,1.34.06,2.08.06,1.12,0,2.33,0,3.51-.13.4,0,.79-.06,1.18-.11l.57-.07a20.64,20.64,0,0,0,2.14-.37l.47-.12c.31-.09.6-.18.87-.28,1.08-.4,1.78-.93,1.86-1.61C502.05,516.49,496.79,516.72,492.67,515.12Z" transform="translate(-334.57 -105.02)"/><path class="cls-13" d="M473.33,406.46c-10.56-.65-28.4-4.48-28.4-4.48h0a21.77,21.77,0,0,1-.88,3.7c-.31.84-.65,1.78-1,2.78,8.42.78,23,2.93,29.77,4C472.92,410.62,473.11,408.57,473.33,406.46Z" transform="translate(-334.57 -105.02)"/><rect class="cls-22" x="591.42" y="390.93" width="31.24" height="28.31" rx="6.79" transform="translate(-343.22 -91.73) rotate(-1.24)"/><rect class="cls-13" x="590.27" y="390.93" width="33.06" height="6.13" rx="3.07" transform="translate(-342.98 -91.74) rotate(-1.24)"/><rect class="cls-3" x="605.08" y="390.93" width="3.93" height="28.31" transform="matrix(1, -0.02, 0.02, 1, -343.22, -91.74)"/><rect class="cls-3" x="605.11" y="390.93" width="3.93" height="31.24" transform="translate(-120.75 917.29) rotate(-91.24)"/><rect class="cls-6" x="551.9" y="416.8" width="68.12" height="61.73" rx="6.79" transform="translate(-281.73 -166.79) rotate(6.32)"/><rect class="cls-6" x="552.58" y="416.95" width="72.08" height="13.37" rx="3.15" transform="translate(-284.36 -167.23) rotate(6.32)"/><path class="cls-13" d="M540.12,399.08a8.66,8.66,0,0,1-8.26-5.15,9.57,9.57,0,0,1,.64-9.75,8.21,8.21,0,0,1,8.1-2.87c6,1,10.74,5.49,14.94,10.23a2.5,2.5,0,0,1,.61,1.34,2.56,2.56,0,0,1-2,2.82l-10.51,2.88A13.52,13.52,0,0,1,540.12,399.08Zm-1.22-12.85a2.84,2.84,0,0,0-2.38,1,4.65,4.65,0,0,0-.06,4.6c.64,1.41,2.17,2.88,5.84,1.87l6.65-1.83c-2.8-2.79-5.82-5.05-9.14-5.58A6.59,6.59,0,0,0,538.9,386.23Z" transform="translate(-334.57 -105.02)"/><path class="cls-13" d="M553.65,395.74a2.49,2.49,0,0,1-1.71-.67,2.54,2.54,0,0,1-.77-2.33c1.19-6.22,2.94-12.52,7.64-16.42a8.17,8.17,0,0,1,8.42-1.66,9.55,9.55,0,0,1,5.53,8.06c.51,4.72-2.46,8.55-7.76,10l-10.68,2.93A2.57,2.57,0,0,1,553.65,395.74Zm10.8-16.58a4,4,0,0,0-2.42,1c-2.58,2.14-4,5.63-5,9.46l6.65-1.82c3.67-1,4.24-3.05,4.08-4.58a4.67,4.67,0,0,0-2.4-3.93A2.4,2.4,0,0,0,564.45,379.16Z" transform="translate(-334.57 -105.02)"/><rect class="cls-3" x="532.64" y="392.32" width="55.27" height="50.08" rx="6.79" transform="matrix(0.96, -0.26, 0.26, 0.96, -425, 58.01)"/><rect class="cls-12" x="525.84" y="393.02" width="58.49" height="10.85" rx="3.15" transform="translate(-420.18 55.97) rotate(-15.33)"/><rect class="cls-13" x="556.79" y="392.32" width="6.96" height="50.08" transform="translate(-424.99 58.01) rotate(-15.33)"/><rect class="cls-13" x="557.48" y="392.23" width="6.96" height="55.27" transform="translate(-30.18 966.88) rotate(-105.33)"/><path class="cls-10" d="M622.51,484H541.44a3.14,3.14,0,0,1-3-2.23L519.49,420.4a3.14,3.14,0,0,1,3-4.08h119a3.16,3.16,0,0,1,3,4.08l-18.94,61.39A3.15,3.15,0,0,1,622.51,484Zm-78.74-6.31h76.41l17-55.08H526.78Z" transform="translate(-334.57 -105.02)"/><path class="cls-10" d="M622.63,484H541.44a3.16,3.16,0,0,1,0-6.31h81.19a3.16,3.16,0,1,1,0,6.31Z" transform="translate(-334.57 -105.02)"/><path class="cls-10" d="M633.47,443H528.75a3.16,3.16,0,1,1,0-6.31H633.47a3.16,3.16,0,1,1,0,6.31Z" transform="translate(-334.57 -105.02)"/><path class="cls-10" d="M628.31,465.24h-92.7a3.16,3.16,0,1,1,0-6.32h92.7a3.16,3.16,0,0,1,0,6.32Z" transform="translate(-334.57 -105.02)"/><circle class="cls-15" cx="212.64" cy="405.62" r="9.47"/><circle class="cls-10" cx="162.23" cy="297.88" r="6.64"/><path class="cls-3" d="M621.76,499.07H531.07a10.68,10.68,0,0,1-.25-21.35l-22.14-71.66H496.8a3.16,3.16,0,0,1,0-6.32H511a3.17,3.17,0,0,1,3,2.23l24,77.57a3.15,3.15,0,0,1-2.86,4.49h-4.06a4.37,4.37,0,0,0,0,8.73h90.69a3.16,3.16,0,1,1,0,6.31Z" transform="translate(-334.57 -105.02)"/><path class="cls-3" d="M544.76,512.59l-7-15.91h18.94l-7,15.91C548.53,515.13,545.89,515.13,544.76,512.59Z" transform="translate(-334.57 -105.02)"/><circle class="cls-15" cx="274.89" cy="405.62" r="9.47"/><path class="cls-3" d="M607,512.59l-7-15.91h18.94l-7,15.91C610.78,515.13,608.13,515.13,607,512.59Z" transform="translate(-334.57 -105.02)"/><path class="cls-25" d="M512.15,153.42h65.64a13.19,13.19,0,0,0-13.19,13.2v78.52a1.63,1.63,0,0,1-.37,1l-4.42,5.55a.84.84,0,0,1-1.31,0l-4.17-5.2a.83.83,0,0,0-1.3,0l-4.17,5.2a.84.84,0,0,1-1.3,0l-4.17-5.2a.83.83,0,0,0-1.3,0l-4.17,5.2a.85.85,0,0,1-1.31,0l-4.17-5.2a.83.83,0,0,0-1.3,0l-4.17,5.2a.84.84,0,0,1-1.3,0l-4.17-5.2a.83.83,0,0,0-1.3,0l-4.17,5.2a.85.85,0,0,1-1.31,0l-4.17-5.2a.83.83,0,0,0-1.3,0l-4.17,5.2a.84.84,0,0,1-1.3,0l-4.45-5.55a1.69,1.69,0,0,1-.37-1.06V166.62A13.19,13.19,0,0,1,512.15,153.42Z" transform="translate(-334.57 -105.02)"/><path class="cls-3" d="M564.6,166.62a13.19,13.19,0,0,1,13.19-13.2h0a13.2,13.2,0,0,1,13.2,13.2v16.12a2,2,0,0,1-.39,1.17l-3.86,5.17a1.08,1.08,0,0,1-1.72,0l-3.62-4.62a1.09,1.09,0,0,0-1.71,0l-3.64,4.65a1.09,1.09,0,0,1-1.71,0l-3.63-4.64a1.08,1.08,0,0,0-1.71,0l-4.4,5.72Z" transform="translate(-334.57 -105.02)"/><path class="cls-3" d="M509.07,237.16v-.94a9.9,9.9,0,0,1-4.53-1.64,1.3,1.3,0,0,1-.27-1.92h0a1.3,1.3,0,0,1,1.74-.24,7.25,7.25,0,0,0,3.06,1.28v-4.47a9.32,9.32,0,0,1-3.82-1.64,3.67,3.67,0,0,1-1.21-3,4.2,4.2,0,0,1,1.4-3.27,5.64,5.64,0,0,1,3.63-1.38v-.41a.74.74,0,0,1,.73-.74h0a.74.74,0,0,1,.74.74V220a9.39,9.39,0,0,1,3.59,1,1.24,1.24,0,0,1,.44,1.81l-.07.09a1.24,1.24,0,0,1-1.6.37,7,7,0,0,0-2.36-.76v4.33h.07a9.38,9.38,0,0,1,3.9,1.68,3.83,3.83,0,0,1,1.24,3.08,4.21,4.21,0,0,1-1.43,3.29,6,6,0,0,1-3.78,1.38v.92a.74.74,0,0,1-.74.74h0A.74.74,0,0,1,509.07,237.16ZM507.44,223a1.64,1.64,0,0,0-.59,1.29,1.66,1.66,0,0,0,.46,1.22,4.71,4.71,0,0,0,1.76.87v-4A2.71,2.71,0,0,0,507.44,223Zm4.85,10.11a1.78,1.78,0,0,0,.14-2.62,5.18,5.18,0,0,0-1.89-.89v4.15A3.26,3.26,0,0,0,512.29,233.13Z" transform="translate(-334.57 -105.02)"/><path class="cls-12" d="M521.06,171.82h33.21a2.23,2.23,0,0,0,2.23-2.23h0a2.23,2.23,0,0,0-2.23-2.24H521.06a2.23,2.23,0,0,0-2.23,2.24h0A2.23,2.23,0,0,0,521.06,171.82Z" transform="translate(-334.57 -105.02)"/><path class="cls-12" d="M534.87,184.41h19.4a2.23,2.23,0,0,0,2.23-2.23h0a2.23,2.23,0,0,0-2.23-2.24h-19.4a2.24,2.24,0,0,0-2.24,2.24h0A2.23,2.23,0,0,0,534.87,184.41Z" transform="translate(-334.57 -105.02)"/><path class="cls-12" d="M506.24,184.41h5.26a2.23,2.23,0,0,0,2.23-2.23h0a2.23,2.23,0,0,0-2.23-2.24h-5.26a2.23,2.23,0,0,0-2.23,2.24h0A2.23,2.23,0,0,0,506.24,184.41Z" transform="translate(-334.57 -105.02)"/><path class="cls-12" d="M506.24,202.74h5.26a2.23,2.23,0,0,0,2.23-2.24h0a2.23,2.23,0,0,0-2.23-2.23h-5.26A2.23,2.23,0,0,0,504,200.5h0A2.23,2.23,0,0,0,506.24,202.74Z" transform="translate(-334.57 -105.02)"/><path class="cls-12" d="M506.24,212.1h9.64a2.23,2.23,0,0,0,2.24-2.23h0a2.24,2.24,0,0,0-2.24-2.24h-9.64a2.23,2.23,0,0,0-2.23,2.24h0A2.23,2.23,0,0,0,506.24,212.1Z" transform="translate(-334.57 -105.02)"/><path class="cls-12" d="M540.61,193.57h13.66a2.23,2.23,0,0,0,2.23-2.23h0a2.23,2.23,0,0,0-2.23-2.23H540.61a2.23,2.23,0,0,0-2.24,2.23h0A2.23,2.23,0,0,0,540.61,193.57Z" transform="translate(-334.57 -105.02)"/><path class="cls-12" d="M530.53,202.74h23.74a2.23,2.23,0,0,0,2.23-2.24h0a2.23,2.23,0,0,0-2.23-2.23H530.53a2.23,2.23,0,0,0-2.24,2.23h0A2.24,2.24,0,0,0,530.53,202.74Z" transform="translate(-334.57 -105.02)"/><path class="cls-12" d="M534.87,212.1h19.4a2.23,2.23,0,0,0,2.23-2.23h0a2.23,2.23,0,0,0-2.23-2.24h-19.4a2.24,2.24,0,0,0-2.24,2.24h0A2.23,2.23,0,0,0,534.87,212.1Z" transform="translate(-334.57 -105.02)"/><path class="cls-3" d="M534.87,230.58h19.4a2.23,2.23,0,0,0,2.23-2.24h0a2.23,2.23,0,0,0-2.23-2.23h-19.4a2.23,2.23,0,0,0-2.24,2.23h0A2.24,2.24,0,0,0,534.87,230.58Z" transform="translate(-334.57 -105.02)"/><path class="cls-12" d="M506.24,193.57h11.13a2.23,2.23,0,0,0,2.23-2.23h0a2.23,2.23,0,0,0-2.23-2.23H506.24a2.23,2.23,0,0,0-2.23,2.23h0A2.23,2.23,0,0,0,506.24,193.57Z" transform="translate(-334.57 -105.02)"/><circle class="cls-22" cx="496.52" cy="302.76" r="17.05" transform="translate(-229.19 628.09) rotate(-79.11)"/><path class="cls-11" d="M492.11,294.48a5,5,0,0,1,4.38,2.07,5.07,5.07,0,0,1,4.34-2.07,5.42,5.42,0,0,1,5.49,5c0,2.43-.33,4.17-4.82,8a35.48,35.48,0,0,1-4.86,3.57,35.45,35.45,0,0,1-4.94-3.47c-4.56-3.72-5-5.46-5-7.89A5.5,5.5,0,0,1,492.11,294.48Z" transform="translate(-334.57 -105.02)"/><circle class="cls-12" cx="240.74" cy="140.91" r="20.54"/><circle class="cls-6" cx="232.58" cy="132.79" r="2.8"/><path class="cls-13" d="M575.3,254h0a8.41,8.41,0,0,1-8.4-8.41v-3.2h16.81v3.2A8.42,8.42,0,0,1,575.3,254Z" transform="translate(-334.57 -105.02)"/><path class="cls-6" d="M585.44,240.78a1,1,0,0,1-.45-.1l-4-2a1,1,0,0,1-.56-.89,1,1,0,0,1,.56-.9l4-2a1,1,0,0,1,1.34.45,1,1,0,0,1-.45,1.34l-2.17,1.08,2.17,1.08a1,1,0,0,1,.45,1.34A1,1,0,0,1,585.44,240.78Z" transform="translate(-334.57 -105.02)"/><path class="cls-22" d="M805.32,487.28a5.89,5.89,0,1,1-6-5.8A5.89,5.89,0,0,1,805.32,487.28Z" transform="translate(-334.57 -105.02)"/><path class="cls-22" d="M797.91,135.89a3.9,3.9,0,1,1-4-3.84A3.9,3.9,0,0,1,797.91,135.89Z" transform="translate(-334.57 -105.02)"/><path class="cls-11" d="M694.54,513.6l-2.9,0,0-2.91a2.18,2.18,0,0,0-2.22-2.14h0a2.18,2.18,0,0,0-2.15,2.22l0,2.9-2.9,0a2.19,2.19,0,1,0,.07,4.37l2.9,0,0,2.9a2.18,2.18,0,0,0,2.22,2.15h0a2.18,2.18,0,0,0,2.15-2.22l0-2.9,2.91,0a2.19,2.19,0,1,0-.08-4.37Z" transform="translate(-334.57 -105.02)"/><path class="cls-18" d="M477.4,255.61l-3,.06-.06-3.06a2.29,2.29,0,0,0-2.33-2.26h0a2.3,2.3,0,0,0-2.27,2.34l.05,3.05-3.05,0a2.3,2.3,0,0,0,.07,4.6l3.06-.05.05,3.06a2.3,2.3,0,0,0,2.34,2.26h0a2.3,2.3,0,0,0,2.26-2.34l-.05-3.05,3.06,0a2.31,2.31,0,0,0-.08-4.61Z" transform="translate(-334.57 -105.02)"/></svg>