<svg id="Слой_1" data-name="Слой 1" xmlns="http://www.w3.org/2000/svg" xmlns:xlink="http://www.w3.org/1999/xlink" viewBox="0 0 667.87 372.18"><defs><style>.cls-1{fill:#e4ecfd;}.cls-2{fill:#cfddfd;}.cls-3{fill:#d3cafc;}.cls-4{fill:#edf6ff;}.cls-5{fill:#f0caca;}.cls-6{fill:#fff;}.cls-7{fill:#f2f9ff;}.cls-8{fill:#8ca4dd;}.cls-9{fill:#de5e5d;}.cls-10{fill:#705dcf;}.cls-11{fill:#ac9ef6;}.cls-12{fill:#a7bcf7;}.cls-13{fill:#d4dae4;}.cls-14{fill:url(#linear-gradient);}.cls-15{fill:#e1f0fd;}.cls-16{fill:#5587e7;}.cls-17{fill:#6884c9;}.cls-18{fill:#e38484;}.cls-19{fill:#9385dc;}.cls-20{opacity:0.1;}.cls-21{fill:#4d6dbc;}.cls-22{fill:#e6963a;}.cls-23{fill:#b0b0b0;}.cls-24{fill:#ebb1b0;}.cls-25{fill:#6b0951;}.cls-26{fill:#3a22b6;}.cls-27{fill:#213369;}.cls-28{fill:#553fc0;}</style><linearGradient id="linear-gradient" x1="479.9" y1="223.13" x2="505.43" y2="251.14" gradientUnits="userSpaceOnUse"><stop offset="0" stop-color="#e9f7ff"/><stop offset="1" stop-color="#3042c3"/></linearGradient></defs><title>service-shop</title><path class="cls-1" d="M608.38,437.61c-210.6-5.5-314.34,57.2-210.6,65.65,139.76,11.39,99.44,66.15,229.5,66.11,93.29,0,130-29.61,184.41-28.12,260.22,7.13,234.47-52.46,170.65-68.21C817.82,432.44,608.38,437.61,608.38,437.61Z" transform="translate(-357.14 -197.2)"/><ellipse class="cls-2" cx="276.91" cy="341.88" rx="54.12" ry="12.94"/><ellipse class="cls-2" cx="556.58" cy="315.51" rx="96.07" ry="12.94"/><ellipse class="cls-2" cx="364.43" cy="272.71" rx="187.28" ry="12.94"/><path class="cls-2" d="M521,468.44c0,2.22-10.75,4-24,4s-24-1.8-24-4,10.75-4,24-4S521,466.22,521,468.44Z" transform="translate(-357.14 -197.2)"/><path class="cls-3" d="M509.1,226.69a30.29,30.29,0,0,0,.56,10.76c.37,1.8.86,3.59,1.41,5.38a28.38,28.38,0,0,0,2.19,5.39c2,3.58,5.49,7.17,7.68,10.76a14.48,14.48,0,0,1,1.83,10.77,23.32,23.32,0,0,1-1.84,5.38c-.87,1.79-1.91,3.59-2.88,5.38a34.33,34.33,0,0,0-2.52,5.39,14.61,14.61,0,0,0-.59,8.07,9.47,9.47,0,0,0,.9,2.69,17.15,17.15,0,0,0,5.4,5.38c5.24,3.59,12.48,7.18,15,10.77a6.93,6.93,0,0,1,1.31,5.38,12.59,12.59,0,0,1-2.07,5.38,20.27,20.27,0,0,1-2.07,2.7c-.42.44-.78.89-1.24,1.34L530.75,329c-1.81,1.79-3.83,3.59-5.69,5.38a35.12,35.12,0,0,0-4.68,5.38A15.55,15.55,0,0,0,518,345.1c-.81,3.59.44,7.18,2.88,10.77s5,7.18,5.26,10.77a12.74,12.74,0,0,1-.75,5.38,42.35,42.35,0,0,1-2.06,5.38,46.86,46.86,0,0,1-7,10.77,56.2,56.2,0,0,1-12.29,10.76,13,13,0,0,1-14.18,0,55.89,55.89,0,0,1-12.28-10.76,46.92,46.92,0,0,1-7-10.77,42.35,42.35,0,0,1-2.06-5.38,12.74,12.74,0,0,1-.75-5.38c.27-3.59,2.95-7.18,5.27-10.77s3.69-7.18,2.87-10.77a15.55,15.55,0,0,0-2.37-5.38,35,35,0,0,0-4.67-5.38c-1.87-1.79-3.89-3.59-5.69-5.38l-1.39-1.35c-.45-.45-.82-.9-1.24-1.34a20.27,20.27,0,0,1-2.07-2.7,12.59,12.59,0,0,1-2.07-5.38,6.93,6.93,0,0,1,1.31-5.38c2.48-3.59,9.72-7.18,15-10.77a17.2,17.2,0,0,0,5.41-5.38A9.8,9.8,0,0,0,479,294a15.39,15.39,0,0,0,.3-2.69,15.55,15.55,0,0,0-.9-5.38,35.18,35.18,0,0,0-2.51-5.39c-1-1.79-2-3.59-2.88-5.38a22.9,22.9,0,0,1-1.85-5.38A14.48,14.48,0,0,1,473,259c2.19-3.59,5.73-7.18,7.69-10.76a29,29,0,0,0,2.18-5.39c.55-1.79,1-3.58,1.41-5.38a30.53,30.53,0,0,0,.57-10.76,12.28,12.28,0,1,1,24.23-4A12.84,12.84,0,0,1,509.1,226.69Z" transform="translate(-357.14 -197.2)"/><path class="cls-4" d="M498.57,324.63l14.17-14.17a1.59,1.59,0,0,0-2.25-2.25l-11.92,11.92V272.07l10.83-10.83a1.58,1.58,0,0,0,0-2.25,1.59,1.59,0,0,0-2.25,0l-8.58,8.58V249.91a1.59,1.59,0,1,0-3.18,0v24.17l-11.46-11.45a1.58,1.58,0,0,0-2.25,0,1.59,1.59,0,0,0,0,2.25l13.71,13.7v47.91L479.1,310.2a1.59,1.59,0,0,0-2.25,2.25L495.39,331v46.36l-13.56-13.56a1.59,1.59,0,0,0-2.25,2.25l15.81,15.81v85a1.59,1.59,0,1,0,3.18,0V376.28l12.8-12.8a1.59,1.59,0,0,0-2.25-2.25l-10.55,10.55Z" transform="translate(-357.14 -197.2)"/><path class="cls-5" d="M456.37,347.19c0,47-29.79,88-29.79,88s-23.68-26.55-28.8-71l5.38,1.54-5.64-3.93c-.46-4.69-.72-9.57-.72-14.62a145.55,145.55,0,0,1,1.53-22l13.91,7.55-12.75-13.84c4.69-21.44,15.06-31.62,27.09-31.62,7.51,0,14.35,3.95,19.59,12.12l-10.73,8.85,12.95-4.93c4.15,8.24,6.94,19.75,7.74,34.7l-8.71,5.19,8.85-1.9C456.34,343.24,456.37,345.18,456.37,347.19Z" transform="translate(-357.14 -197.2)"/><ellipse class="cls-2" cx="69.44" cy="286.5" rx="19.36" ry="3.24"/><path class="cls-4" d="M427.87,367.76l11.41-11.42a1.26,1.26,0,0,0,0-1.81,1.28,1.28,0,0,0-1.81,0l-9.6,9.6V325.39l8.73-8.73a1.29,1.29,0,0,0-1.82-1.82l-6.91,6.92V307.52a1.29,1.29,0,0,0-2.57,0V327l-9.24-9.24a1.28,1.28,0,1,0-1.81,1.82l11.05,11.05v38.62l-13.13-13.13a1.28,1.28,0,1,0-1.82,1.81l14.95,14.95v37.37l-10.93-10.93a1.28,1.28,0,0,0-1.82,1.81l12.75,12.75v68.53a1.29,1.29,0,0,0,2.57,0v-73l10.31-10.32a1.28,1.28,0,0,0-1.81-1.81l-8.5,8.5Z" transform="translate(-357.14 -197.2)"/><path class="cls-2" d="M880.56,466.5a69.73,69.73,0,0,1,1.82-10.81c.44-1.77.92-3.55,1.46-5.33s1.18-3.5,1.84-5.26a77.29,77.29,0,0,1,4.78-10.32,65.72,65.72,0,0,1,6.62-9.87c.63-.8,1.29-1.59,2-2.36s1.39-1.56,2.14-2.3,1.53-1.48,2.34-2.19,1.64-1.42,2.51-2.09,1.76-1.35,2.68-2,1.89-1.25,2.87-1.85c1.91-1.18,4.3-2.32,5.67-3,3.18-1.61,6.24-3,9.11-4.26s5.59-2.4,8.08-3.55a45.61,45.61,0,0,0,6.71-3.75,35,35,0,0,0,5.31-4.55c1.62-1.65,3.21-3.42,4.84-5.4a72,72,0,0,0,4.81-6.74l1.13-1.91c.38-.65.7-1.35,1.06-2,.71-1.35,1.38-2.79,2.06-4.23,1.29-2.92,2.5-6,3.66-9.18,2.29-6.38,4.23-13.15,6.37-20.16l0-.06a.62.62,0,0,1,1.18,0l1.69,5.15c.56,1.73,1,3.48,1.56,5.25,1,3.53,1.93,7.13,2.7,10.83a91.05,91.05,0,0,1,2,23.73c-.3,4.25-.89,8.6-1.62,13.41a52.88,52.88,0,0,1-4.38,14.62A31.95,31.95,0,0,1,963.5,428a34.26,34.26,0,0,1-13.16,5.83c-1.11.24-2.28.42-3.37.55s-2.25.19-3.33.22c-2.17.12-4.33,0-6.38-.06-4.12-.18-8-.47-11.46-.26-2,.15-2.94.09-4.27.24a19.67,19.67,0,0,0-2,.28,18.51,18.51,0,0,0-2,.43,20.21,20.21,0,0,0-2,.58c-.69.21-1.38.45-2.06.73s-1.37.57-2.05.9-1.37.66-2,1a62.37,62.37,0,0,0-15.39,12,82.88,82.88,0,0,0-6.64,7.79,72.3,72.3,0,0,0-5.66,8.62.59.59,0,0,1-.81.24.6.6,0,0,1-.31-.58Z" transform="translate(-357.14 -197.2)"/><path class="cls-6" d="M971.42,384.29l4.3-2.37c.87-.48.23-1.91-.64-1.42l-3.34,1.85c-.62.34-1.42.93-2.23,1.3a79.59,79.59,0,0,0,2.42-17.17,1,1,0,1,0-2.07-.06,78.08,78.08,0,0,1-2.61,17.75.79.79,0,0,0-.16.57,63.19,63.19,0,0,1-2.76,7.88c-.13-.14-.26-.27-.38-.41-.56-.66-1.09-1.35-1.58-2a18.09,18.09,0,0,1-2.82-5.31c-.27-1-1.81-.71-1.54.25a20.81,20.81,0,0,0,3.39,6.37,14.36,14.36,0,0,0,2.2,2.76c-4.63,9.91-11.89,17.61-22,19.74l-2.62.59a65,65,0,0,0,4.29-10.69c.29-1-1.16-1.53-1.45-.57A65.33,65.33,0,0,1,937,415a109.77,109.77,0,0,0-26.9,10c2-3.22,3.47-6.87,5.83-9.87.62-.79-.64-1.7-1.26-.92-3,3.84-4.57,8.81-7.7,12.49a1.09,1.09,0,0,0-.08.15c-15.64,9.56-24.71,23-27.07,40.14a1,1,0,0,0,.89,1.17h0a1,1,0,0,0,1.13-.89A50.71,50.71,0,0,1,900.49,434a23.36,23.36,0,0,1,13.76-1.07c1,.21,1.13-1.34.16-1.55a24.62,24.62,0,0,0-10.5,0,82.92,82.92,0,0,1,19.42-10c7,.3,12.66,3.16,19.28,5.21,1,.3,1.53-1.15.57-1.45-5.79-1.79-10.62-4.12-16.35-5A137.13,137.13,0,0,1,942,416a28.49,28.49,0,0,0,12-5.7,43.81,43.81,0,0,0,15.46-1.23c1-.26.72-1.79-.25-1.54a42.47,42.47,0,0,1-13.54,1.35c6.32-5.76,10.73-14.17,13.36-23.42A10.8,10.8,0,0,0,971.42,384.29Z" transform="translate(-357.14 -197.2)"/><path class="cls-3" d="M880.38,465.45a102.85,102.85,0,0,1-5.59-15c-.75-2.57-1.44-5.18-2-7.82s-1.08-5.31-1.52-8a111.71,111.71,0,0,1-1.49-16.6,96,96,0,0,1,1.16-17.35c.22-1.47.47-3,.79-4.45s.62-3,1-4.48.86-3,1.37-4.48,1-3,1.64-4.5,1.26-3,2-4.48,1.47-3,2.27-4.44c1.57-2.89,3.76-6.1,5-8,2.84-4.37,5.73-8.34,8.43-12.07s5.32-7.13,7.64-10.4a66.43,66.43,0,0,0,5.76-9.67,52.24,52.24,0,0,0,3.41-9.66c.84-3.27,1.55-6.67,2.17-10.39a102.82,102.82,0,0,0,1.17-12.05l0-3.26c0-1.1-.1-2.21-.14-3.33-.09-2.24-.29-4.55-.47-6.88-.51-4.64-1.22-9.43-2.08-14.31-1.77-9.76-4.28-19.76-6.68-30.22l0-.08a.9.9,0,0,1,.68-1.08.89.89,0,0,1,.8.21l5.92,5.28c2,1.79,3.86,3.66,5.81,5.51,3.85,3.75,7.68,7.63,11.36,11.76a133.46,133.46,0,0,1,19.88,28.62c2.73,5.6,5.17,11.56,7.76,18.18,2.42,6.61,4.69,14,5.15,21.74a48.57,48.57,0,0,1-.72,11.5A49.2,49.2,0,0,1,957.38,356,50.2,50.2,0,0,1,945,373c-1.22,1.1-2.57,2.19-3.85,3.15s-2.72,1.9-4.06,2.72c-2.67,1.74-5.48,3.19-8.14,4.6-5.36,2.78-10.42,5.22-14.72,8.05-2.38,1.63-3.65,2.27-5.23,3.44a25.07,25.07,0,0,0-2.28,1.78,26.1,26.1,0,0,0-2.23,2,30.41,30.41,0,0,0-2.16,2.23c-.72.77-1.43,1.58-2.09,2.44s-1.32,1.72-1.94,2.64-1.25,1.84-1.83,2.81a91.36,91.36,0,0,0-10.73,26.47A120.22,120.22,0,0,0,883,450.09a104.1,104.1,0,0,0-.86,15.07.88.88,0,0,1-.86.9.86.86,0,0,1-.81-.51Z" transform="translate(-357.14 -197.2)"/><path class="cls-6" d="M935.4,294.74q1.86-3.08,3.71-6.15c.75-1.25-1.09-2.59-1.85-1.33l-2.88,4.79c-.54.88-1.12,2.21-1.87,3.27a117.2,117.2,0,0,0-9.5-23.53,1.52,1.52,0,0,0-2.68,1.44A113.46,113.46,0,0,1,930,297.64a1.2,1.2,0,0,0,.21.83,91.35,91.35,0,0,1,2.27,12l-.78-.25c-1.19-.42-2.36-.91-3.51-1.44a26.35,26.35,0,0,1-7.45-4.67c-1-1-2.82.43-1.76,1.45a30.39,30.39,0,0,0,8.94,5.59,20.62,20.62,0,0,0,4.82,1.88c1.38,16-2.19,31-13.43,41.13-1,.89-2,1.78-2.9,2.66A96.18,96.18,0,0,0,914,340.15c-.33-1.41-2.58-1.08-2.25.34a96.63,96.63,0,0,1,2.49,18.38Q897.36,375,887.5,391.25c.19-5.55-.64-11.24.16-16.77.21-1.46-2-1.7-2.26-.25-1,7.08.65,14.5-.62,21.46a1,1,0,0,0,0,.25c-12.83,23.56-14.51,47.22-4.93,70.69a1.5,1.5,0,0,0,2,.83h0a1.52,1.52,0,0,0,.78-2,74.29,74.29,0,0,1-.79-55.83,34.14,34.14,0,0,1,16.66-11.43c1.4-.44.46-2.52-.92-2.08a36.09,36.09,0,0,0-13.33,7.66,121.78,121.78,0,0,1,17.26-26.94c9.16-4.77,18.37-5.25,28.27-7.51,1.42-.32,1.09-2.57-.34-2.25-8.66,2-16.49,2.56-24.39,5.64a203.35,203.35,0,0,1,16.28-16.31,41.77,41.77,0,0,0,11-16A63.73,63.73,0,0,0,951,327.58c1-1-.4-2.79-1.44-1.76a62.41,62.41,0,0,1-16.18,11.61c3.8-11.92,3.24-25.82-.2-39.46A16.06,16.06,0,0,0,935.4,294.74Z" transform="translate(-357.14 -197.2)"/><path class="cls-7" d="M884.81,225.2V467.73a4,4,0,0,1-3.95,4H556.8a4,4,0,0,1-4-4V225.2a4,4,0,0,1,4-3.95H880.86A4,4,0,0,1,884.81,225.2Z" transform="translate(-357.14 -197.2)"/><path class="cls-8" d="M884.81,225.2V248a4,4,0,0,1-3.95,3.95H556.8a4,4,0,0,1-4-3.95V225.2a4,4,0,0,1,4-3.95H880.86A4,4,0,0,1,884.81,225.2Z" transform="translate(-357.14 -197.2)"/><path class="cls-9" d="M586.79,236.58a6.73,6.73,0,1,1-6.73-6.72A6.73,6.73,0,0,1,586.79,236.58Z" transform="translate(-357.14 -197.2)"/><path class="cls-6" d="M609.48,236.58a6.73,6.73,0,1,1-6.72-6.72A6.72,6.72,0,0,1,609.48,236.58Z" transform="translate(-357.14 -197.2)"/><path class="cls-10" d="M632.17,236.58a6.73,6.73,0,1,1-6.72-6.72A6.72,6.72,0,0,1,632.17,236.58Z" transform="translate(-357.14 -197.2)"/><rect class="cls-11" x="216.2" y="85.68" width="92.96" height="82.92"/><rect class="cls-12" x="334.93" y="85.68" width="47.9" height="41.46"/><rect class="cls-12" x="334.93" y="147.87" width="47.9" height="41.46"/><path class="cls-13" d="M784.94,295.48H764.35a6.31,6.31,0,0,1-6.31-6.3h0a6.31,6.31,0,0,1,6.31-6.3h20.59a6.3,6.3,0,0,1,6.3,6.3h0A6.3,6.3,0,0,1,784.94,295.48Z" transform="translate(-357.14 -197.2)"/><path class="cls-13" d="M818.14,316.21H764.35a6.31,6.31,0,0,1-6.31-6.3h0a6.31,6.31,0,0,1,6.31-6.3h53.79a6.3,6.3,0,0,1,6.3,6.3h0A6.3,6.3,0,0,1,818.14,316.21Z" transform="translate(-357.14 -197.2)"/><path class="cls-13" d="M784.94,357.68H764.35a6.32,6.32,0,0,1-6.31-6.31h0a6.31,6.31,0,0,1,6.31-6.3h20.59a6.3,6.3,0,0,1,6.3,6.3h0A6.31,6.31,0,0,1,784.94,357.68Z" transform="translate(-357.14 -197.2)"/><path class="cls-13" d="M818.14,378.41H764.35A6.32,6.32,0,0,1,758,372.1h0a6.31,6.31,0,0,1,6.31-6.3h53.79a6.3,6.3,0,0,1,6.3,6.3h0A6.31,6.31,0,0,1,818.14,378.41Z" transform="translate(-357.14 -197.2)"/><rect class="cls-12" x="334.93" y="210.07" width="47.9" height="41.46"/><path class="cls-13" d="M784.94,419.87H764.35a6.31,6.31,0,0,1-6.31-6.31h0a6.31,6.31,0,0,1,6.31-6.3h20.59a6.3,6.3,0,0,1,6.3,6.3h0A6.3,6.3,0,0,1,784.94,419.87Z" transform="translate(-357.14 -197.2)"/><path class="cls-13" d="M818.14,440.6H764.35a6.31,6.31,0,0,1-6.31-6.3h0a6.31,6.31,0,0,1,6.31-6.31h53.79a6.3,6.3,0,0,1,6.3,6.31h0A6.3,6.3,0,0,1,818.14,440.6Z" transform="translate(-357.14 -197.2)"/><circle class="cls-14" cx="495.54" cy="240.28" r="11.24"/><polygon class="cls-6" points="495.54 233.01 497.9 237.8 503.19 238.57 499.37 242.29 500.27 247.56 495.54 245.07 490.81 247.56 491.72 242.29 487.89 238.57 493.18 237.8 495.54 233.01"/><path class="cls-11" d="M676.13,510.85l-43.54-11.31a2.35,2.35,0,0,1-1.66-3.12l15.71-43.26a2.21,2.21,0,0,1,2.67-1.11l35.33,9.18a2.22,2.22,0,0,1,1.79,2.27l-7.33,45.43A2.35,2.35,0,0,1,676.13,510.85Z" transform="translate(-357.14 -197.2)"/><path class="cls-15" d="M656.39,460.09a2.26,2.26,0,1,1-1.62-2.76A2.26,2.26,0,0,1,656.39,460.09Z" transform="translate(-357.14 -197.2)"/><path class="cls-15" d="M678.92,465.94a2.26,2.26,0,1,1-1.62-2.76A2.26,2.26,0,0,1,678.92,465.94Z" transform="translate(-357.14 -197.2)"/><rect class="cls-16" x="588.04" y="460.62" width="41.71" height="51.31" rx="2.19" transform="translate(-481 23.97) rotate(-18.72)"/><path class="cls-15" d="M593.55,470.86a2.32,2.32,0,1,1-2.94-1.45A2.32,2.32,0,0,1,593.55,470.86Z" transform="translate(-357.14 -197.2)"/><path class="cls-15" d="M616.1,463.22a2.32,2.32,0,1,1-2.94-1.45A2.32,2.32,0,0,1,616.1,463.22Z" transform="translate(-357.14 -197.2)"/><path class="cls-17" d="M592.92,504.39h58.66a0,0,0,0,1,0,0v20.45a2.23,2.23,0,0,1-2.23,2.23H595.14a2.23,2.23,0,0,1-2.23-2.23V504.39a0,0,0,0,1,0,0Z" transform="translate(-514.55 105.69) rotate(-24.38)"/><path class="cls-17" d="M615.59,514.79h58.66a0,0,0,0,1,0,0v20.45a2.23,2.23,0,0,1-2.23,2.23H617.81a2.23,2.23,0,0,1-2.23-2.23V514.79A0,0,0,0,1,615.59,514.79Z" transform="translate(-351.23 -204.35) rotate(0.64)"/><path class="cls-1" d="M659.54,485.24a12.87,12.87,0,0,1-9.22-15.69L653,459.21l2.39.62-2.69,10.34a10.4,10.4,0,0,0,20.14,5.23l2.68-10.34,2.4.62L675.24,476A12.89,12.89,0,0,1,659.54,485.24Z" transform="translate(-357.14 -197.2)"/><path class="cls-1" d="M610.36,490.6a13.18,13.18,0,0,1-16.69-8.24L590.16,472l2.39-.81,3.51,10.35a10.64,10.64,0,0,0,20.15-6.83l-3.5-10.35,2.39-.81,3.51,10.35A13.18,13.18,0,0,1,610.36,490.6Z" transform="translate(-357.14 -197.2)"/><rect class="cls-8" x="585.06" y="498.04" width="61.83" height="7.7" rx="2.02" transform="translate(-509.4 101.87) rotate(-24.38)"/><rect class="cls-8" x="614.17" y="507.09" width="61.83" height="7.7" rx="2.02" transform="translate(-351.4 -204.35) rotate(0.64)"/><path class="cls-18" d="M693.27,477.92a8.21,8.21,0,0,0-6.67-3.21H581.5a8.24,8.24,0,0,0-6.68,3.21,9.15,9.15,0,0,0-1.23,8.14l14.79,50.79c1,3.46,4.86,6.08,8.94,6.08h73.45c4.08,0,7.92-2.62,9-6.09l14.79-50.78A9.18,9.18,0,0,0,693.27,477.92Zm-6,4.51a1.92,1.92,0,0,1,0,1.53l-2.2,7.57H665.4l.88-6a16.38,16.38,0,0,0,.14-3.32H686.6A.86.86,0,0,1,687.26,482.43Zm-35.87,53H616.71l0-.17-1.75-11.94h38.23l-1.74,11.94Zm-37.56-19.63-2.44-16.73h45.32l-2.45,16.73ZM585.2,499.05h18.59l2.45,16.73H590.07Zm24.06-14.58a7.83,7.83,0,0,1,0-2.24h49.68a8.22,8.22,0,0,1,0,2.24l-1,7.06H610.29Zm55,14.58h18.6L678,515.78H661.86Zm-83.46-16.62c.12-.17.43-.2.66-.2h20.17a16.41,16.41,0,0,0,.15,3.32l.87,6H583L580.8,484A2,2,0,0,1,580.84,482.43Zm14.76,52.31-3.34-11.44h15.08l1.77,12.11H597.32A2.55,2.55,0,0,1,595.6,534.74Zm75.17.67H659l1.77-12.11h15.08l-3.31,11.35A2.35,2.35,0,0,1,670.77,535.41Z" transform="translate(-357.14 -197.2)"/><path class="cls-18" d="M639,447.92V465.6a6.11,6.11,0,0,1-1.64,4.31,4.27,4.27,0,0,1-6.52,0,6.07,6.07,0,0,1-1.64-4.31V447.92c0-3.21,2.18-5.81,4.9-5.81S639,444.71,639,447.92Z" transform="translate(-357.14 -197.2)"/><path class="cls-9" d="M634,471.41a4.46,4.46,0,0,1-3.26-1.5v11a3.26,3.26,0,1,0,6.52,0v-11A4.4,4.4,0,0,1,634,471.41Zm0,8.06a1.95,1.95,0,1,1,1.94-2A1.95,1.95,0,0,1,634,479.47Z" transform="translate(-357.14 -197.2)"/><path class="cls-19" d="M998.57,504H938.3a3.15,3.15,0,0,1-3.2-3.5l5.8-61.37a3,3,0,0,1,3.08-2.34h48.9a3,3,0,0,1,3.09,2.34l5.8,61.37A3.14,3.14,0,0,1,998.57,504Z" transform="translate(-357.14 -197.2)"/><path class="cls-3" d="M968.43,476.42a17.25,17.25,0,0,1-17.24-17.24V444.87h3.31v14.31a13.94,13.94,0,0,0,27.87,0V444.87h3.31v14.31A17.26,17.26,0,0,1,968.43,476.42Z" transform="translate(-357.14 -197.2)"/><path class="cls-3" d="M955.88,444.87a3,3,0,1,1-3-3A3,3,0,0,1,955.88,444.87Z" transform="translate(-357.14 -197.2)"/><path class="cls-3" d="M987.06,444.87a3,3,0,1,1-3-3A3,3,0,0,1,987.06,444.87Z" transform="translate(-357.14 -197.2)"/><path class="cls-20" d="M440.73,24.05h86.93a0,0,0,0,1,0,0V212.29a0,0,0,0,1,0,0H453.26a12.53,12.53,0,0,1-12.53-12.53V24.05A0,0,0,0,1,440.73,24.05Z"/><path class="cls-10" d="M902.53,395.83a8.93,8.93,0,0,1-8.93,8.93H812.11a8.93,8.93,0,0,0,8.93-8.93Z" transform="translate(-357.14 -197.2)"/><path class="cls-10" d="M803.17,221.25H785.3a8.94,8.94,0,1,1,17.87,0Z" transform="translate(-357.14 -197.2)"/><path class="cls-19" d="M893.6,221.25a8.93,8.93,0,0,0-8.93-8.94H794.23a8.94,8.94,0,0,1,8.94,8.94V395.83a8.94,8.94,0,0,0,17.87,0H893.6V221.25Z" transform="translate(-357.14 -197.2)"/><path class="cls-11" d="M843.09,249.94H819.56a3.77,3.77,0,0,1-3.77-3.77h0a3.77,3.77,0,0,1,3.77-3.77h23.53a3.77,3.77,0,0,1,3.77,3.77h0A3.77,3.77,0,0,1,843.09,249.94Z" transform="translate(-357.14 -197.2)"/><path class="cls-11" d="M876.29,269.05H819.56a3.77,3.77,0,0,1-3.77-3.77h0a3.77,3.77,0,0,1,3.77-3.77h56.73a3.77,3.77,0,0,1,3.77,3.77h0A3.77,3.77,0,0,1,876.29,269.05Z" transform="translate(-357.14 -197.2)"/><path class="cls-11" d="M865.73,281.54H819.56a3.77,3.77,0,0,1-3.77-3.78h0a3.77,3.77,0,0,1,3.77-3.77h46.17a3.77,3.77,0,0,1,3.77,3.77h0A3.77,3.77,0,0,1,865.73,281.54Z" transform="translate(-357.14 -197.2)"/><path class="cls-11" d="M873,294H819.56a3.77,3.77,0,0,1-3.77-3.77h0a3.77,3.77,0,0,1,3.77-3.77H873a3.77,3.77,0,0,1,3.77,3.77h0A3.77,3.77,0,0,1,873,294Z" transform="translate(-357.14 -197.2)"/><path class="cls-11" d="M843.09,320.74H819.56a3.77,3.77,0,0,1-3.77-3.77h0a3.77,3.77,0,0,1,3.77-3.78h23.53a3.77,3.77,0,0,1,3.77,3.78h0A3.77,3.77,0,0,1,843.09,320.74Z" transform="translate(-357.14 -197.2)"/><path class="cls-11" d="M876.29,339.85H819.56a3.77,3.77,0,0,1-3.77-3.77h0a3.77,3.77,0,0,1,3.77-3.78h56.73a3.77,3.77,0,0,1,3.77,3.78h0A3.77,3.77,0,0,1,876.29,339.85Z" transform="translate(-357.14 -197.2)"/><path class="cls-11" d="M865.73,352.33H819.56a3.77,3.77,0,0,1-3.77-3.77h0a3.77,3.77,0,0,1,3.77-3.77h46.17a3.77,3.77,0,0,1,3.77,3.77h0A3.77,3.77,0,0,1,865.73,352.33Z" transform="translate(-357.14 -197.2)"/><path class="cls-11" d="M873,364.82H819.56a3.77,3.77,0,0,1-3.77-3.77h0a3.77,3.77,0,0,1,3.77-3.78H873a3.77,3.77,0,0,1,3.77,3.78h0A3.77,3.77,0,0,1,873,364.82Z" transform="translate(-357.14 -197.2)"/><path class="cls-9" d="M895.91,245l12.65-12.65a8,8,0,0,1,0-11.27L884.65,197.2a8,8,0,0,1-11.27,0l-12.65,12.65a8,8,0,0,1,0,11.26L884.65,245A8,8,0,0,1,895.91,245Z" transform="translate(-357.14 -197.2)"/><path class="cls-6" d="M884.5,208.6c-1.84-1.84-4.64-1.65-6.9.61s-2.21,5-.53,6.64,4.38,1.84,6.9-.68C886.12,213,886.4,210.5,884.5,208.6Zm-6.11,6c-.9-.91-.38-2.41,1-3.78s2.87-2,3.79-1,.28,2.41-1,3.74S879.29,215.54,878.39,214.64Z" transform="translate(-357.14 -197.2)"/><path class="cls-6" d="M875.67,221.08l15.72-4.42a1.62,1.62,0,0,1,1.59.42h0a1.62,1.62,0,0,1-.71,2.71l-15.71,4.42a1.63,1.63,0,0,1-1.59-.41h0A1.63,1.63,0,0,1,875.67,221.08Z" transform="translate(-357.14 -197.2)"/><path class="cls-6" d="M891,225c-1.82-1.82-4.63-1.62-6.88.63s-2.22,5-.57,6.64,4.4,1.82,6.9-.68C892.58,229.42,892.88,226.88,891,225ZM884.86,231c-.9-.9-.37-2.43,1-3.77s2.87-2,3.79-1,.29,2.4-1,3.74S885.78,232,884.86,231Z" transform="translate(-357.14 -197.2)"/><path class="cls-21" d="M903.84,502.79a10.91,10.91,0,0,0,2.52,5.06,10.66,10.66,0,0,0,4.72,3.07,13.77,13.77,0,0,0,1.37.35l.69.1.34,0h.24l.91,0,7.37.18,14.74.35,29.45.73-1.72-7.53-26.78-4.76-14.59-2.06-3.38-.48c8-18.22,16.5-36.77,14.94-46.68l-22.75-9.5-7.89,56A11,11,0,0,0,903.84,502.79Z" transform="translate(-357.14 -197.2)"/><path class="cls-21" d="M853.41,499.42l9,2,12.72-40.06c11.65,2.71,21.13,2.93,33.75,2.1,7-16,20.84-19.52,6.41-20.38-.49-.08-1-.13-1.47-.17l-.38,0h-.49l-.88,0-1.53.07-2.94.17-5.77.38-11.45.81-11.45.84-2.86.21-1.43.1-.71.06c-.41,0-1,.06-1.45.13a14.34,14.34,0,0,0-9.86,6,14.15,14.15,0,0,0-2.23,5.32l-.45,2.86-.86,5.67-1.73,11.32Z" transform="translate(-357.14 -197.2)"/><path class="cls-22" d="M911.21,463.45a4.57,4.57,0,0,0,.74.12h.15l-.55-.07Z" transform="translate(-357.14 -197.2)"/><path class="cls-18" d="M865,383.05s22.65,27.59,30.05,31.94a7.2,7.2,0,0,0,6,.29,7.77,7.77,0,0,0,2.68-1.56l1.12-1.06,3-2.93,4.76-4.56c-1.78.33-4.8-9.91-5.69-12.79l-9.77,10.36-26.86-24.39Z" transform="translate(-357.14 -197.2)"/><path class="cls-23" d="M865,383.05c-2.69-1.4-8-3.47-7.88-6.55.07-2.61,2.91-10.27,4.3-8,1.57,2.58,5,6.08,4.94,4.73-.14-2.46,1-3,2-1.24,1.35,2.18.69,5.14,1.91,6.36S865,383.05,865,383.05Z" transform="translate(-357.14 -197.2)"/><path class="cls-9" d="M889.88,395.28c.11,3,3.91,13.12,5.69,12.8l.06,0c.74-.22,5.44-4.34,6.24-5.22a83.75,83.75,0,0,0,4.55,17.77c3.6,7.59-4.91,15.28-6,19.18s3.05,8.4,15.35,7.23,17,7.41,20.1,3.9c12.3-30.85-.29-63.85-8.59-72.05-5.67-5.6-17.37-5.07-29.62,5.23C897.66,384.1,889.8,393.08,889.88,395.28Z" transform="translate(-357.14 -197.2)"/><path class="cls-24" d="M918.41,375.32c-.7,2.06-12.18,5.33-16.11,5.31-.57,0,.74-2.45-.38-5.16,0,0,0,0,0-.05-3.55,2.86-7.19.77-9.46-5.72A49,49,0,0,1,890,354.26a7.65,7.65,0,0,1,.28-1.68c2.4-8.66,18.41-3.17,21.73-2.93,1.45.11,2.19,3.15,2.56,6.71-.18,3.52-1.3,5.84-.89,8.9a26.42,26.42,0,0,0,.54,2.86,50.82,50.82,0,0,0-5.64,2.51C910.08,373.9,918.41,375.32,918.41,375.32Z" transform="translate(-357.14 -197.2)"/><path class="cls-25" d="M900.35,346.91c-2.73,1.48-8.35-1.79-10.85-.65s-2.74,6,.54,7.68,7.64,4.47,7.78,8a6.33,6.33,0,0,0,.38,2.08,1,1,0,0,0,.13.44c1.93,3.57.47,7.11-.38,7.91s-5.18-2.87-5.18-1.25c0,2.45,3.46,5.73,5.57,5.57s3.24-14.37,3.24-14.37h0a9.47,9.47,0,0,0,0-2.68c-.29-2.48,4.14-.3,2.95,2.19-.68,1.43-.86,7.13,4.06,8.82a9.74,9.74,0,0,0,3.1.46c3.08,0,1-1.45,2.54-3C922.23,360.18,909.92,341.7,900.35,346.91Z" transform="translate(-357.14 -197.2)"/><path class="cls-26" d="M861.43,510.69a2.91,2.91,0,0,1-2.91,2.91h-20.9c-.78-1-1.17-2,0-3.12,5.76-1.73,11-3.67,14.3-6.46l.53.19a12,12,0,0,0,8.56,0l.42-.18A16.44,16.44,0,0,1,861.43,510.69Z" transform="translate(-357.14 -197.2)"/><path class="cls-26" d="M964.47,505.17c.23.07.46.14.69.23a10.81,10.81,0,0,1,1.58.73,12.81,12.81,0,0,1,4.79,4.87c.06.11.13.21.19.33,4.3,0,9.56,1.92,15.06,4.35,1.67-.14,2-1.15,2-2.39l-15.92-13.52a2.91,2.91,0,0,0-4.11.33A16.24,16.24,0,0,0,964.47,505.17Z" transform="translate(-357.14 -197.2)"/><path class="cls-24" d="M964.47,505.17l1.66,7.29c1.51-.28,3.61-.78,5.59-1.13-.06-.12-.13-.22-.19-.33a12.81,12.81,0,0,0-4.79-4.87,10.81,10.81,0,0,0-1.58-.73C964.93,505.31,964.7,505.24,964.47,505.17Z" transform="translate(-357.14 -197.2)"/><path class="cls-24" d="M861.88,501.3s-.43,1.55-.87,2.9a12,12,0,0,1-8.56,0,30.71,30.71,0,0,0,1.42-4.69Z" transform="translate(-357.14 -197.2)"/><path class="cls-20" d="M853.56,344.05V406.6l-1.65,1.6a4.06,4.06,0,0,1-5.74-.09l-46.63-48a4.06,4.06,0,0,1,.09-5.74l30-29.1a4.05,4.05,0,0,1,5.74.08Z" transform="translate(-357.14 -197.2)"/><rect class="cls-1" x="806.92" y="340.87" width="75.07" height="49.91" rx="4.06" transform="translate(886.72 997.72) rotate(-139.14)"/><rect class="cls-21" x="814.5" y="351.57" width="75.07" height="10.95" rx="0.89" transform="translate(905.78 987.27) rotate(-139.15)"/><rect class="cls-18" x="810.28" y="355.57" width="14.97" height="10.95" rx="4.19" transform="translate(842.98 971.89) rotate(-139.14)"/><path class="cls-24" d="M848,386s22.66,27.59,30,31.93a7.16,7.16,0,0,0,6,.3,7.91,7.91,0,0,0,2.69-1.56l1.11-1.07,3.05-2.93,4.75-4.55c-1.78.32-4.8-9.91-5.69-12.8l-9.77,10.36-26.86-24.39Z" transform="translate(-357.14 -197.2)"/><path class="cls-24" d="M854.18,382.09c-.1.69-5.42,4.89-5.54,4.89s-.61-.61-.61-.61c-2.84-1.48-8.39-3.66-8.31-6.91.07-2.76,3.07-10.85,4.53-8.44,1.66,2.71,5.3,6.42,5.22,5-.15-2.6,1-3.12,2.12-1.32,1.43,2.31.74,5.43,2,6.72A.56.56,0,0,1,854.18,382.09Z" transform="translate(-357.14 -197.2)"/><ellipse class="cls-2" cx="175.78" cy="295.62" rx="54.12" ry="12.94"/><path class="cls-24" d="M521.07,273.24c-2.05-.31-7.37.73-9.7,6.78a217.56,217.56,0,0,0-11.93,25.21,35.26,35.26,0,0,1,8.12,1.06l7.13-23.46C521.09,281.18,524.59,273.77,521.07,273.24Z" transform="translate(-357.14 -197.2)"/><path class="cls-27" d="M550.85,341c-8.1-5.34-17.69-22.23-14.74-26.64s-9.9-7.17-13.94-12.52c-1.76-2.35-2.21-3.32-1.42-9.13.41-2.95-3.61-2.95-3.4-8.36a6.3,6.3,0,0,1,.82-2.8,6.55,6.55,0,0,1,.41-.69,14.8,14.8,0,0,1,2-2.29c2.58-2.48,19-3.22,19-3.22h0l.65.55.75.64c10.34,8.6,15.73,11.19,13.84,18.06-2.15,7.83.18,7,5,12.61s6.93,8.65,7.18,13.63C568,339.17,559,346.31,550.85,341Z" transform="translate(-357.14 -197.2)"/><path class="cls-24" d="M559.48,484.62c-.78-4.49-12.08-44.32-16.58-60.17-5.87-2.24-14.52-7.07-23.95-10.76l8.41,14.81,24.7,57c0,5.14,13.45,9.23,15.69,8.84S566.25,488.18,559.48,484.62Z" transform="translate(-357.14 -197.2)"/><path class="cls-28" d="M565,347.06s-2.78-10.74-6.37-20.36c-5-12.48-9.66-19.91-16.61-22.33-7.48-2.6-17.33.42-23.83,4.33-.08.06-8.84,4.86-10.39,6.4h0l-2.17,1.45,1.9-10.26a36,36,0,0,0-8.13-1c-3.51,9.25-5.7,18.34-2.62,22,1.94,2.27,12.72-.31,12.72-.31.18,0,6.67-4.31,6.85-4.31-2.48,11.64-6.89,22.81-15.8,37.53-12.17,20.1-20,54.27-16.26,52.1,23.76-13.73,61.56,19.75,65.86,12.41,6.3-10.77-9.56-55.15-5.8-69.53,7.52,1.55,14.91,2.43,17.14,1.68C564.78,355.69,566.62,352.31,565,347.06Zm-11-.69-7.57-1c.63-2.7,1.83-11.44,2.34-14Z" transform="translate(-357.14 -197.2)"/><path class="cls-24" d="M510.41,481.61c-.57-21.9,1.28-51.53,1.55-70.36-6.16-1.86-12.44-2.88-18.31-2.12.94,9.71,4.48,40,9.21,75.49l-.06.12h0c-.15.25-.29.52-.45.77s-.15.23-.24.35-.31.45-.47.71a3.3,3.3,0,0,0-.26.39c-1.06,1.5-2.21,2.92-3.16,4.16a22.1,22.1,0,0,0-1.25,3c-.14.42-.25.81-.34,1.16a2.14,2.14,0,0,0,.72.16,16.54,16.54,0,0,0,8.42-2.35,41.44,41.44,0,0,0,5.15-7.95,2.32,2.32,0,0,0,.21-.66,5.49,5.49,0,0,0-.59-2.71Z" transform="translate(-357.14 -197.2)"/><path class="cls-18" d="M540.12,294.33a11.39,11.39,0,0,0,1.93,10s-4.63,3-12.49,2.93-.51-2.81-.51-2.81.67-3.56,1.28-4.18S540.12,294.33,540.12,294.33Z" transform="translate(-357.14 -197.2)"/><path class="cls-24" d="M544.52,287a17.41,17.41,0,0,1-.56,3.81c-.52.52-1,1-1.49,1.45l0,0c-.66.77-1.34,1.51-2,2.21L540,295c-3.14,3.38-6.18,6-9.16,6.74a2.83,2.83,0,0,1-3.42-1.35,2,2,0,0,1-.44-1.6,4.47,4.47,0,0,1-1.1-1.25,1.07,1.07,0,0,1-.14-.74,5.76,5.76,0,0,0-.12-1.57c-.56.14-.47.46-1.81.63-.68.08,0-1.68,0-4.37,0-1.78-1.85-5-3.37-7.39-1.06-1.65-2-2.88-2-2.88l.06-.35.21-1.16.91-1.1c-.19-2.24,2.44-4.9,4.57-5.53a97.91,97.91,0,0,1,10.28,0c.7.17,1.25.33,1.56.43a12.93,12.93,0,0,1,3.44,1.83h0c.23.16.43.33.63.5l0,0Z" transform="translate(-357.14 -197.2)"/><path class="cls-27" d="M545.11,288a13.58,13.58,0,0,1-.45,3.5c-.48,1.91-4.85,7.28-4.86,7.28-7.47-4-6-12-6.56-12.56-1.35-1.31-3.68.41-6.86.41a11.51,11.51,0,0,1-5.91-2.59,10,10,0,0,1-2.3-2.54c-2.25-11.18,11.3-9.6,16.38-8.46.7.17,1.25.33,1.56.43a12.93,12.93,0,0,1,3.44,1.83h0c.23.16.43.33.63.5a10.21,10.21,0,0,1,.77.69,10.73,10.73,0,0,1,2.29,3A21,21,0,0,1,545.11,288Z" transform="translate(-357.14 -197.2)"/><path class="cls-28" d="M514.5,283.7a6.15,6.15,0,0,1-4.19-1.9.4.4,0,0,1,0-.56.41.41,0,0,1,.56,0,5.41,5.41,0,0,0,3.6,1.64.4.4,0,0,1,0,.79Z" transform="translate(-357.14 -197.2)"/><path class="cls-8" d="M511.86,345.34,503,342.18l-2.37-14.8a1.25,1.25,0,0,1,1.49-1.42l7.06,1.49a1.25,1.25,0,0,1,1,1.09Z" transform="translate(-357.14 -197.2)"/><path class="cls-24" d="M515.65,341.47s-3.1-4.13-4.64-4.37l.27,2.71a1.76,1.76,0,0,1,.33,1.73c-.42.84-8.09-3.68-8.12-1.34,0,4.21,5.83,6.89,10.72,6.08,4.63,1.4,14.94,4.91,25,7.43a27.76,27.76,0,0,1,2.66-8.44Z" transform="translate(-357.14 -197.2)"/><path class="cls-9" d="M552,487.42c.68,1.11,8.67,8.1,11.91,8.43s7.71,1.38,4-3.84a23.35,23.35,0,0,0-8.42-7.38c.39.51,6,4.3,4.34,5.59-1.24.94-3.39.28-4.84-.4-2.38-1.1-7.55-5.79-7.55-5.79C550.87,484.28,551,486.41,552,487.42Z" transform="translate(-357.14 -197.2)"/><path class="cls-9" d="M511.12,484.51a2.32,2.32,0,0,1-.21.66,41.44,41.44,0,0,1-5.15,7.95,12.75,12.75,0,0,1-3.82,3.54c-2.8,1.16-6.44,3.22-5.32-1.35.09-.35.2-.74.34-1.16a22.1,22.1,0,0,1,1.25-3,22.87,22.87,0,0,1,4.58-6.38h0l.09-.07a8.17,8.17,0,0,1-.55.85c-.08.12-.15.23-.24.35s-.31.45-.47.71a3.3,3.3,0,0,0-.26.39c-1.12,1.73-2.23,3.84-1,4.3,1.46.53,3.33-.72,4.52-1.78,2-1.74,5.57-7.72,5.57-7.72a.16.16,0,0,1,.09,0C511,482,511.32,483.38,511.12,484.51Z" transform="translate(-357.14 -197.2)"/></svg>