<svg id="Слой_1" data-name="Слой 1" xmlns="http://www.w3.org/2000/svg" xmlns:xlink="http://www.w3.org/1999/xlink" viewBox="0 0 208.72 188.17"><defs><style>.cls-1{fill:url(#Degradado_sin_nombre_36);}.cls-2{fill:url(#Degradado_sin_nombre_11);}.cls-3{fill:#e4ecfd;}.cls-4{fill:#cfddfd;}.cls-5{fill:#d3cafc;}.cls-6{fill:#edf6ff;}.cls-7{fill:#f0caca;}.cls-8{fill:#fff;}.cls-9{fill:#f2f9ff;}.cls-10{fill:#8ca4dd;}.cls-11{fill:#de5e5d;}.cls-12{fill:#705dcf;}.cls-13{fill:#ac9ef6;}.cls-14{fill:#a7bcf7;}.cls-15{fill:#d4dae4;}.cls-16{fill:url(#linear-gradient);}.cls-17{fill:#e1f0fd;}.cls-18{fill:#5587e7;}.cls-19{fill:#6884c9;}.cls-20{fill:#e38484;}.cls-21{fill:#9385dc;}.cls-22{opacity:0.1;}.cls-23{fill:#4d6dbc;}.cls-24{fill:#e6963a;}.cls-25{fill:#b0b0b0;}.cls-26{fill:#ebb1b0;}.cls-27{fill:#6b0951;}.cls-28{fill:#3a22b6;}.cls-29{fill:#213369;}.cls-30{fill:#553fc0;}</style><linearGradient id="Degradado_sin_nombre_36" x1="579.69" y1="382.61" x2="775.54" y2="382.61" gradientUnits="userSpaceOnUse"><stop offset="0" stop-color="#2acaff"/><stop offset="1" stop-color="#2adfc3"/></linearGradient><linearGradient id="Degradado_sin_nombre_11" x1="599.9" y1="394.89" x2="787.72" y2="394.89" gradientUnits="userSpaceOnUse"><stop offset="0" stop-color="#76aadb"/><stop offset="1" stop-color="#4a72b2"/></linearGradient><linearGradient id="linear-gradient" x1="149.46" y1="105.5" x2="157.41" y2="114.22" gradientUnits="userSpaceOnUse"><stop offset="0" stop-color="#e9f7ff"/><stop offset="1" stop-color="#3042c3"/></linearGradient></defs><title>service-shop-new</title><path class="cls-1" d="M594.57,421.47s-40.92-40,12.95-75.92,112.1-52.15,146-47.9,25.38,86-3.89,135.65S650,480.22,594.57,421.47Z" transform="translate(-579 -296.99)"/><path class="cls-2" d="M766.8,336.34s47.07,32.57,0,77-101.73,70.26-135.89,71.78-39.48-80.47-19-134.38S702.27,287.75,766.8,336.34Z" transform="translate(-579 -296.99)"/><path class="cls-3" d="M657.25,407.87c-65.59-1.71-97.9,17.82-65.59,20.45,43.53,3.55,31,20.6,71.47,20.59,29.06,0,40.5-9.22,57.44-8.76,81,2.22,73-16.34,53.14-21.24C722.48,406.26,657.25,407.87,657.25,407.87Z" transform="translate(-579 -296.99)"/><ellipse class="cls-4" cx="86.24" cy="142.48" rx="16.86" ry="4.03"/><ellipse class="cls-4" cx="173.34" cy="134.27" rx="29.92" ry="4.03"/><ellipse class="cls-4" cx="113.5" cy="120.95" rx="58.33" ry="4.03"/><path class="cls-4" d="M630,417.48c0,.69-3.35,1.25-7.48,1.25s-7.47-.56-7.47-1.25,3.34-1.26,7.47-1.26S630,416.79,630,417.48Z" transform="translate(-579 -296.99)"/><path class="cls-5" d="M626.33,342.18a9.52,9.52,0,0,0,.17,3.36c.12.56.27,1.11.44,1.67a9.11,9.11,0,0,0,.68,1.68c.61,1.12,1.71,2.24,2.4,3.35a4.52,4.52,0,0,1,.56,3.36,7,7,0,0,1-.57,1.67c-.27.56-.59,1.12-.9,1.68a11.88,11.88,0,0,0-.78,1.67,4.94,4.94,0,0,0-.28,1.68,4.79,4.79,0,0,0,.09.84,3.46,3.46,0,0,0,.28.84,5.25,5.25,0,0,0,1.69,1.67c1.63,1.12,3.89,2.24,4.66,3.36a2.2,2.2,0,0,1,.41,1.67,3.91,3.91,0,0,1-.65,1.68,6.68,6.68,0,0,1-.64.84c-.13.14-.25.28-.39.42l-.43.42c-.56.55-1.19,1.11-1.77,1.67a11,11,0,0,0-1.46,1.68,4.79,4.79,0,0,0-.74,1.67,4.3,4.3,0,0,0,.9,3.36,8.28,8.28,0,0,1,1.64,3.35,3.92,3.92,0,0,1-.24,1.68,12.7,12.7,0,0,1-.64,1.67,14.8,14.8,0,0,1-2.17,3.36,17.72,17.72,0,0,1-3.83,3.35,4,4,0,0,1-4.42,0,17.64,17.64,0,0,1-3.82-3.35,14.86,14.86,0,0,1-2.18-3.36,14.28,14.28,0,0,1-.64-1.67,4.07,4.07,0,0,1-.23-1.68,8.15,8.15,0,0,1,1.64-3.35,4.26,4.26,0,0,0,.89-3.36,5,5,0,0,0-.73-1.67,11.52,11.52,0,0,0-1.46-1.68c-.58-.56-1.21-1.12-1.77-1.67l-.44-.42c-.14-.14-.25-.28-.38-.42a6,6,0,0,1-.65-.84,4,4,0,0,1-.64-1.68,2.12,2.12,0,0,1,.41-1.67c.77-1.12,3-2.24,4.66-3.36a5.31,5.31,0,0,0,1.68-1.67,3.08,3.08,0,0,0,.28-.84,4,4,0,0,0,.09-.84,4.92,4.92,0,0,0-.27-1.68A10.93,10.93,0,0,0,616,359c-.3-.56-.63-1.12-.89-1.68a7.55,7.55,0,0,1-.58-1.67,4.53,4.53,0,0,1,.57-3.36c.68-1.11,1.78-2.23,2.39-3.35a8.46,8.46,0,0,0,.68-1.68,14.7,14.7,0,0,0,.44-1.67,9.52,9.52,0,0,0,.18-3.36,3.83,3.83,0,0,1,7.55-1.24A4,4,0,0,1,626.33,342.18Z" transform="translate(-579 -296.99)"/><path class="cls-6" d="M623.05,372.69l4.41-4.41a.5.5,0,0,0,0-.7.48.48,0,0,0-.7,0l-3.71,3.71v-15l3.37-3.37a.5.5,0,0,0,0-.71.5.5,0,0,0-.7,0l-2.67,2.68v-5.5a.5.5,0,1,0-1,0V357l-3.57-3.57a.49.49,0,0,0-.7.7l4.27,4.27v14.92L617,368.19a.5.5,0,0,0-.7,0,.51.51,0,0,0,0,.71l5.78,5.77v14.44l-4.23-4.23a.49.49,0,0,0-.7.7l4.93,4.93V417a.5.5,0,1,0,1,0V388.77l4-4a.49.49,0,1,0-.7-.7l-3.28,3.28Z" transform="translate(-579 -296.99)"/><path class="cls-7" d="M609.9,379.71c0,14.65-9.27,27.42-9.27,27.42a42.83,42.83,0,0,1-9-22.12l1.67.48-1.75-1.22a47.36,47.36,0,0,1,.25-11.39l4.33,2.35-4-4.31c1.46-6.68,4.69-9.85,8.44-9.85,2.34,0,4.47,1.23,6.1,3.77l-3.34,2.76,4-1.54a27.68,27.68,0,0,1,2.41,10.81l-2.71,1.62,2.75-.6C609.89,378.49,609.9,379.09,609.9,379.71Z" transform="translate(-579 -296.99)"/><ellipse class="cls-4" cx="21.63" cy="125.24" rx="6.03" ry="1.01"/><path class="cls-6" d="M601,386.12l3.55-3.56A.4.4,0,0,0,604,382l-3,3V372.92l2.72-2.72a.4.4,0,0,0,0-.56.4.4,0,0,0-.57,0L601,371.79v-4.43a.4.4,0,1,0-.8,0v6.07l-2.88-2.88a.4.4,0,0,0-.56,0,.4.4,0,0,0,0,.57l3.44,3.44v12l-4.09-4.09a.4.4,0,0,0-.57,0,.4.4,0,0,0,0,.56l4.66,4.66v11.64L596.82,396a.4.4,0,0,0-.56,0,.4.4,0,0,0,0,.57l4,4v21.34a.4.4,0,0,0,.8,0V399.09l3.21-3.21a.4.4,0,0,0,0-.57.39.39,0,0,0-.56,0L601,398Z" transform="translate(-579 -296.99)"/><path class="cls-4" d="M742,416.87a22.68,22.68,0,0,1,.57-3.36c.14-.56.29-1.11.46-1.66s.36-1.1.57-1.64A23.32,23.32,0,0,1,745.1,407a19.85,19.85,0,0,1,2.06-3.07c.2-.25.4-.5.62-.74s.43-.48.67-.71.47-.46.72-.68.52-.44.79-.66.54-.41.83-.61.59-.39.89-.58c.6-.37,1.35-.72,1.77-.94,1-.5,1.95-.93,2.84-1.33s1.74-.75,2.51-1.1a13.28,13.28,0,0,0,2.09-1.17,10.89,10.89,0,0,0,1.66-1.42c.5-.51,1-1.06,1.5-1.68a21.45,21.45,0,0,0,1.5-2.1l.36-.6c.11-.2.21-.41.32-.62.23-.42.43-.87.65-1.32.4-.91.78-1.87,1.14-2.86.71-2,1.31-4.1,2-6.28v0a.19.19,0,0,1,.24-.12.18.18,0,0,1,.12.12l.53,1.6c.17.54.32,1.09.49,1.64.31,1.1.6,2.22.84,3.37a28.5,28.5,0,0,1,.62,7.39c-.1,1.32-.28,2.68-.51,4.18a16.09,16.09,0,0,1-1.36,4.55,10.06,10.06,0,0,1-3.13,3.66,10.7,10.7,0,0,1-4.1,1.82c-.35.07-.71.13-1,.17s-.7.06-1,.07c-.68,0-1.35,0-2,0-1.28-.06-2.47-.14-3.57-.08-.61,0-.91,0-1.33.08-.2,0-.4,0-.61.08a5,5,0,0,0-.62.14,5.11,5.11,0,0,0-.64.18c-.21.06-.43.14-.64.22s-.43.18-.64.29-.42.2-.64.32a19.65,19.65,0,0,0-4.79,3.73,25.49,25.49,0,0,0-2.07,2.43,23.79,23.79,0,0,0-1.76,2.68.18.18,0,0,1-.25.08.2.2,0,0,1-.1-.18Z" transform="translate(-579 -296.99)"/><path class="cls-8" d="M770.31,391.27l1.34-.74c.27-.15.07-.59-.2-.44l-1,.57c-.19.11-.44.29-.69.41a24.9,24.9,0,0,0,.75-5.35.32.32,0,0,0-.31-.33.31.31,0,0,0-.33.31,24.08,24.08,0,0,1-.82,5.53.35.35,0,0,0,0,.18,17.72,17.72,0,0,1-.86,2.45.69.69,0,0,1-.11-.13,7.68,7.68,0,0,1-.5-.63,5.89,5.89,0,0,1-.88-1.66c-.08-.29-.56-.22-.47.08a6.29,6.29,0,0,0,1.05,2,4.39,4.39,0,0,0,.69.86c-1.45,3.09-3.71,5.49-6.85,6.15l-.82.19a21.26,21.26,0,0,0,1.34-3.33c.08-.3-.37-.48-.46-.18a20.71,20.71,0,0,1-1.49,3.65,33.91,33.91,0,0,0-8.38,3.12,32.67,32.67,0,0,1,1.81-3.08c.2-.24-.2-.53-.39-.28-.94,1.19-1.42,2.74-2.4,3.89l0,0a16.83,16.83,0,0,0-8.43,12.5.33.33,0,0,0,.27.37h0a.32.32,0,0,0,.36-.28,15.82,15.82,0,0,1,5.79-10.37,7.23,7.23,0,0,1,4.29-.33c.3.06.35-.42,0-.48a7.52,7.52,0,0,0-3.27,0,25.77,25.77,0,0,1,6-3.13c2.2.1,3.95,1,6,1.62.3.1.48-.35.18-.45a36.18,36.18,0,0,0-5.1-1.55,43.94,43.94,0,0,1,4.74-1.28,8.78,8.78,0,0,0,3.73-1.77,13.69,13.69,0,0,0,4.81-.38c.3-.08.22-.56-.08-.48a13.62,13.62,0,0,1-4.21.42,15.7,15.7,0,0,0,4.16-7.3A3.16,3.16,0,0,0,770.31,391.27Z" transform="translate(-579 -296.99)"/><path class="cls-5" d="M742,416.54a30.92,30.92,0,0,1-1.74-4.68c-.24-.8-.45-1.61-.64-2.44s-.34-1.65-.47-2.49a33.8,33.8,0,0,1-.47-5.17,30.19,30.19,0,0,1,.36-5.4c.07-.46.15-.92.25-1.39s.19-.93.32-1.39.27-.93.43-1.4.32-.93.51-1.4.39-.93.61-1.39.46-.93.71-1.39c.48-.9,1.17-1.9,1.55-2.48.88-1.36,1.78-2.6,2.62-3.76s1.66-2.22,2.38-3.24a21.14,21.14,0,0,0,1.8-3,16.62,16.62,0,0,0,1.06-3c.26-1,.48-2.08.67-3.24a30,30,0,0,0,.37-3.75v-1c0-.34,0-.69,0-1,0-.7-.08-1.42-.14-2.14-.16-1.45-.38-2.94-.65-4.46-.55-3-1.33-6.16-2.08-9.41v0a.28.28,0,0,1,.47-.27l1.84,1.65c.61.55,1.2,1.13,1.81,1.71,1.2,1.17,2.39,2.38,3.54,3.66a41.46,41.46,0,0,1,6.19,8.92c.85,1.74,1.61,3.6,2.42,5.66a24,24,0,0,1,1.6,6.77,14.78,14.78,0,0,1-.23,3.58,15,15,0,0,1-1.06,3.35,15.62,15.62,0,0,1-3.87,5.31c-.38.34-.8.68-1.2,1s-.85.59-1.27.85c-.83.54-1.7,1-2.53,1.43-1.67.87-3.25,1.63-4.58,2.51-.75.5-1.14.7-1.63,1.07a7.23,7.23,0,0,0-.72.55c-.23.2-.47.4-.69.63a8.75,8.75,0,0,0-.67.69,7.89,7.89,0,0,0-.65.76c-.21.26-.41.54-.6.83s-.39.57-.58.87a28.73,28.73,0,0,0-3.34,8.24,39.07,39.07,0,0,0-.85,4.59,33.5,33.5,0,0,0-.26,4.7.28.28,0,0,1-.27.28.28.28,0,0,1-.25-.16Z" transform="translate(-579 -296.99)"/><path class="cls-8" d="M759.09,363.38c.39-.64.78-1.28,1.16-1.92.23-.39-.34-.8-.58-.41s-.59,1-.89,1.49c-.17.28-.35.69-.58,1a36.55,36.55,0,0,0-3-7.33.47.47,0,0,0-.64-.19.47.47,0,0,0-.19.64,35.43,35.43,0,0,1,3,7.6.4.4,0,0,0,.06.26,29.28,29.28,0,0,1,.71,3.74l-.24-.07c-.37-.13-.74-.29-1.09-.45a8.51,8.51,0,0,1-2.33-1.45c-.32-.32-.87.13-.54.45a9.52,9.52,0,0,0,2.78,1.74,6.35,6.35,0,0,0,1.5.58c.43,5-.68,9.67-4.18,12.81-.31.28-.61.55-.9.83a29.63,29.63,0,0,0-.75-5.2c-.1-.44-.8-.34-.7.11a29.14,29.14,0,0,1,.77,5.72,49.86,49.86,0,0,0-8.33,10.09,45.63,45.63,0,0,1,.05-5.23c.06-.45-.64-.53-.71-.07-.32,2.2.2,4.51-.19,6.68a.22.22,0,0,0,0,.08c-4,7.34-4.52,14.7-1.54,22a.47.47,0,0,0,.62.26h0a.49.49,0,0,0,.25-.61,23.1,23.1,0,0,1-.25-17.39,10.61,10.61,0,0,1,5.19-3.56c.43-.14.14-.78-.29-.65a11.17,11.17,0,0,0-4.15,2.39,37.34,37.34,0,0,1,5.38-8.39c2.85-1.49,5.72-1.64,8.8-2.34.44-.1.34-.8-.11-.7-2.69.61-5.13.79-7.59,1.76a62.21,62.21,0,0,1,5.07-5.08,13.05,13.05,0,0,0,3.42-5,20.15,20.15,0,0,0,5.83-4c.32-.32-.13-.87-.45-.55a19.46,19.46,0,0,1-5,3.61,22.67,22.67,0,0,0-.07-12.28A4.59,4.59,0,0,0,759.09,363.38Z" transform="translate(-579 -296.99)"/><path class="cls-9" d="M743.34,341.72v75.54a1.23,1.23,0,0,1-1.23,1.23H641.18a1.23,1.23,0,0,1-1.23-1.23V341.72a1.23,1.23,0,0,1,1.23-1.23H742.11A1.23,1.23,0,0,1,743.34,341.72Z" transform="translate(-579 -296.99)"/><path class="cls-10" d="M743.34,341.72v7.09a1.23,1.23,0,0,1-1.23,1.23H641.18a1.23,1.23,0,0,1-1.23-1.23v-7.09a1.23,1.23,0,0,1,1.23-1.23H742.11A1.23,1.23,0,0,1,743.34,341.72Z" transform="translate(-579 -296.99)"/><path class="cls-11" d="M650.52,345.27a2.1,2.1,0,1,1-2.09-2.1A2.1,2.1,0,0,1,650.52,345.27Z" transform="translate(-579 -296.99)"/><path class="cls-8" d="M657.59,345.27a2.1,2.1,0,1,1-2.09-2.1A2.1,2.1,0,0,1,657.59,345.27Z" transform="translate(-579 -296.99)"/><path class="cls-12" d="M664.66,345.27a2.1,2.1,0,1,1-2.1-2.1A2.1,2.1,0,0,1,664.66,345.27Z" transform="translate(-579 -296.99)"/><rect class="cls-13" x="67.33" y="62.7" width="28.95" height="25.83"/><rect class="cls-14" x="104.31" y="62.7" width="14.92" height="12.91"/><rect class="cls-14" x="104.31" y="82.07" width="14.92" height="12.91"/><path class="cls-15" d="M712.23,363.61h-6.41a2,2,0,0,1-2-2h0a2,2,0,0,1,2-2h6.41a2,2,0,0,1,2,2h0A2,2,0,0,1,712.23,363.61Z" transform="translate(-579 -296.99)"/><path class="cls-15" d="M722.57,370.07H705.82a2,2,0,0,1-2-2h0a2,2,0,0,1,2-2h16.75a2,2,0,0,1,2,2h0A2,2,0,0,1,722.57,370.07Z" transform="translate(-579 -296.99)"/><path class="cls-15" d="M712.23,383h-6.41a2,2,0,0,1-2-2h0a2,2,0,0,1,2-2h6.41a2,2,0,0,1,2,2h0A2,2,0,0,1,712.23,383Z" transform="translate(-579 -296.99)"/><path class="cls-15" d="M722.57,389.44H705.82a2,2,0,0,1-2-2h0a2,2,0,0,1,2-2h16.75a2,2,0,0,1,2,2h0A2,2,0,0,1,722.57,389.44Z" transform="translate(-579 -296.99)"/><rect class="cls-14" x="104.31" y="101.43" width="14.92" height="12.91"/><path class="cls-15" d="M712.23,402.35h-6.41a2,2,0,0,1-2-2h0a2,2,0,0,1,2-2h6.41a2,2,0,0,1,2,2h0A2,2,0,0,1,712.23,402.35Z" transform="translate(-579 -296.99)"/><path class="cls-15" d="M722.57,408.81H705.82a2,2,0,0,1-2-2h0a2,2,0,0,1,2-2h16.75a2,2,0,0,1,2,2h0A2,2,0,0,1,722.57,408.81Z" transform="translate(-579 -296.99)"/><circle class="cls-16" cx="154.33" cy="110.85" r="3.5"/><polygon class="cls-8" points="154.33 108.58 155.07 110.07 156.71 110.31 155.52 111.47 155.8 113.11 154.33 112.34 152.86 113.11 153.14 111.47 151.95 110.31 153.59 110.07 154.33 108.58"/><path class="cls-13" d="M678.35,430.69l-13.56-3.53a.73.73,0,0,1-.52-1l4.89-13.47a.69.69,0,0,1,.83-.35l11,2.86a.69.69,0,0,1,.55.71l-2.28,14.15A.73.73,0,0,1,678.35,430.69Z" transform="translate(-579 -296.99)"/><path class="cls-17" d="M672.2,414.88a.71.71,0,0,1-1.37-.36.71.71,0,1,1,1.37.36Z" transform="translate(-579 -296.99)"/><path class="cls-17" d="M679.22,416.7a.71.71,0,0,1-.86.5.7.7,0,1,1,.35-1.36A.71.71,0,0,1,679.22,416.7Z" transform="translate(-579 -296.99)"/><rect class="cls-18" x="650.91" y="415.04" width="12.99" height="15.98" rx="2.19" transform="translate(-680 -63.6) rotate(-18.72)"/><path class="cls-17" d="M652.63,418.23a.72.72,0,1,1-.92-.45A.72.72,0,0,1,652.63,418.23Z" transform="translate(-579 -296.99)"/><path class="cls-17" d="M659.65,415.85a.72.72,0,0,1-.45.92.72.72,0,1,1-.46-1.37A.72.72,0,0,1,659.65,415.85Z" transform="translate(-579 -296.99)"/><path class="cls-19" d="M652.43,428.67H670.7a0,0,0,0,1,0,0v4.84a2.23,2.23,0,0,1-2.23,2.23H654.66a2.23,2.23,0,0,1-2.23-2.23v-4.84a0,0,0,0,1,0,0Z" transform="translate(-698.42 14.68) rotate(-24.38)"/><path class="cls-19" d="M659.49,431.91h18.27a0,0,0,0,1,0,0v4.84a2.23,2.23,0,0,1-2.23,2.23H661.72a2.23,2.23,0,0,1-2.23-2.23v-4.84A0,0,0,0,1,659.49,431.91Z" transform="translate(-574.1 -304.42) rotate(0.64)"/><path class="cls-3" d="M673.18,422.71a4,4,0,0,1-2.87-4.89l.83-3.22.75.19-.84,3.22a3.24,3.24,0,0,0,6.27,1.63l.84-3.22.75.2-.84,3.22A4,4,0,0,1,673.18,422.71Z" transform="translate(-579 -296.99)"/><path class="cls-3" d="M657.86,424.38a4.11,4.11,0,0,1-5.2-2.57l-1.09-3.22.75-.25,1.09,3.22a3.32,3.32,0,0,0,6.28-2.13l-1.1-3.22.75-.25,1.09,3.22A4.1,4.1,0,0,1,657.86,424.38Z" transform="translate(-579 -296.99)"/><rect class="cls-10" x="649.98" y="426.7" width="19.26" height="2.4" rx="1.2" transform="translate(-696.82 13.49) rotate(-24.38)"/><rect class="cls-10" x="659.05" y="429.51" width="19.26" height="2.4" rx="1.2" transform="matrix(1, 0.01, -0.01, 1, -574.16, -304.42)"/><path class="cls-20" d="M683.68,420.43a2.53,2.53,0,0,0-2.07-1H648.87a2.53,2.53,0,0,0-2.07,1,2.83,2.83,0,0,0-.39,2.53L651,438.78a2.9,2.9,0,0,0,2.78,1.89h22.88a2.89,2.89,0,0,0,2.78-1.89L684.07,423A2.83,2.83,0,0,0,683.68,420.43Zm-1.87,1.4a.57.57,0,0,1,0,.48l-.68,2.36H675l.27-1.86a5.29,5.29,0,0,0,0-1h6.29A.27.27,0,0,1,681.81,421.83Zm-11.17,16.5h-10.8a.43.43,0,0,1,0-.05l-.54-3.72h11.9l-.54,3.72A.43.43,0,0,1,670.64,438.33Zm-11.7-6.11-.76-5.21H672.3l-.76,5.21ZM650,427h5.79l.76,5.21h-5Zm7.49-4.54a2.86,2.86,0,0,1,0-.7H673a2.43,2.43,0,0,1,0,.7l-.32,2.2h-14.8ZM674.66,427h5.79l-1.51,5.21h-5Zm-26-5.18a.27.27,0,0,1,.2-.06h6.29a5.29,5.29,0,0,0,0,1l.28,1.86h-6.13l-.69-2.36A.62.62,0,0,1,648.67,421.83Zm4.6,16.29-1-3.56h4.69l.55,3.77H653.8A.75.75,0,0,1,653.27,438.12Zm23.41.21H673l.55-3.77h4.7l-1,3.54A.74.74,0,0,1,676.68,438.33Z" transform="translate(-579 -296.99)"/><path class="cls-20" d="M666.77,411.09v5.5a2,2,0,0,1-.51,1.35,1.36,1.36,0,0,1-2,0,2,2,0,0,1-.51-1.35v-5.5a1.55,1.55,0,1,1,3.06,0Z" transform="translate(-579 -296.99)"/><path class="cls-11" d="M665.24,418.4a1.4,1.4,0,0,1-1-.47v3.43a1,1,0,1,0,2,0v-3.43A1.36,1.36,0,0,1,665.24,418.4Zm0,2.51a.61.61,0,1,1,.6-.6A.6.6,0,0,1,665.24,420.91Z" transform="translate(-579 -296.99)"/><path class="cls-21" d="M778.77,428.56H760a1,1,0,0,1-1-1.09l1.81-19.11a.9.9,0,0,1,1-.73H777a.93.93,0,0,1,1,.73l1.8,19.12A1,1,0,0,1,778.77,428.56Z" transform="translate(-579 -296.99)"/><path class="cls-5" d="M769.38,420a5.38,5.38,0,0,1-5.37-5.37v-4.45h1v4.45a4.34,4.34,0,1,0,8.68,0v-4.45h1v4.45A5.38,5.38,0,0,1,769.38,420Z" transform="translate(-579 -296.99)"/><path class="cls-5" d="M765.47,410.14a.95.95,0,1,1-.94-.95A.94.94,0,0,1,765.47,410.14Z" transform="translate(-579 -296.99)"/><path class="cls-5" d="M775.18,410.14a.95.95,0,1,1-.94-.95A.94.94,0,0,1,775.18,410.14Z" transform="translate(-579 -296.99)"/><path class="cls-22" d="M137.26,43.5h27.08a0,0,0,0,1,0,0v58.62a0,0,0,0,1,0,0H149.79A12.53,12.53,0,0,1,137.26,89.6V43.5A0,0,0,0,1,137.26,43.5Z"/><path class="cls-12" d="M748.86,394.86a2.79,2.79,0,0,1-2.79,2.79H720.7a2.79,2.79,0,0,0,2.78-2.79Z" transform="translate(-579 -296.99)"/><path class="cls-12" d="M717.91,340.49h-5.56a2.78,2.78,0,1,1,5.56,0Z" transform="translate(-579 -296.99)"/><path class="cls-21" d="M746.08,340.49a2.78,2.78,0,0,0-2.79-2.78H715.13a2.78,2.78,0,0,1,2.78,2.78v54.37a2.79,2.79,0,1,0,5.57,0h22.59V340.49Z" transform="translate(-579 -296.99)"/><path class="cls-13" d="M730.34,349.43H723a1.18,1.18,0,0,1-1.18-1.18h0a1.17,1.17,0,0,1,1.18-1.17h7.32a1.17,1.17,0,0,1,1.18,1.17h0A1.18,1.18,0,0,1,730.34,349.43Z" transform="translate(-579 -296.99)"/><path class="cls-13" d="M740.68,355.38H723a1.18,1.18,0,0,1-1.18-1.18h0A1.17,1.17,0,0,1,723,353h17.66a1.17,1.17,0,0,1,1.18,1.17h0A1.18,1.18,0,0,1,740.68,355.38Z" transform="translate(-579 -296.99)"/><path class="cls-13" d="M737.4,359.27H723a1.18,1.18,0,0,1-1.18-1.18h0a1.17,1.17,0,0,1,1.18-1.17H737.4a1.17,1.17,0,0,1,1.17,1.17h0A1.18,1.18,0,0,1,737.4,359.27Z" transform="translate(-579 -296.99)"/><path class="cls-13" d="M739.67,363.16H723a1.18,1.18,0,0,1-1.18-1.18h0a1.17,1.17,0,0,1,1.18-1.17h16.65a1.17,1.17,0,0,1,1.18,1.17h0A1.18,1.18,0,0,1,739.67,363.16Z" transform="translate(-579 -296.99)"/><path class="cls-13" d="M730.34,371.48H723a1.18,1.18,0,0,1-1.18-1.18h0a1.17,1.17,0,0,1,1.18-1.17h7.32a1.17,1.17,0,0,1,1.18,1.17h0A1.18,1.18,0,0,1,730.34,371.48Z" transform="translate(-579 -296.99)"/><path class="cls-13" d="M740.68,377.43H723a1.18,1.18,0,0,1-1.18-1.18h0a1.17,1.17,0,0,1,1.18-1.17h17.66a1.17,1.17,0,0,1,1.18,1.17h0A1.18,1.18,0,0,1,740.68,377.43Z" transform="translate(-579 -296.99)"/><path class="cls-13" d="M737.4,381.32H723a1.18,1.18,0,0,1-1.18-1.18h0A1.17,1.17,0,0,1,723,379H737.4a1.17,1.17,0,0,1,1.17,1.17h0A1.18,1.18,0,0,1,737.4,381.32Z" transform="translate(-579 -296.99)"/><path class="cls-13" d="M739.67,385.21H723a1.18,1.18,0,0,1-1.18-1.18h0a1.18,1.18,0,0,1,1.18-1.18h16.65a1.18,1.18,0,0,1,1.18,1.18h0A1.18,1.18,0,0,1,739.67,385.21Z" transform="translate(-579 -296.99)"/><path class="cls-11" d="M746.8,347.9l3.94-3.94a2.48,2.48,0,0,1,0-3.51L743.29,333a2.48,2.48,0,0,1-3.51,0l-3.94,3.94a2.48,2.48,0,0,1,0,3.51l7.45,7.45A2.48,2.48,0,0,1,746.8,347.9Z" transform="translate(-579 -296.99)"/><path class="cls-8" d="M743.24,336.55a1.47,1.47,0,0,0-2.15.19,1.4,1.4,0,0,0-.16,2.07,1.46,1.46,0,0,0,2.15-.21A1.36,1.36,0,0,0,743.24,336.55Zm-1.9,1.88c-.28-.28-.12-.75.31-1.17s.9-.61,1.18-.32.09.75-.32,1.16S741.62,338.71,741.34,338.43Z" transform="translate(-579 -296.99)"/><path class="cls-8" d="M740.49,340.44l4.9-1.38a.5.5,0,0,1,.49.13h0a.51.51,0,0,1-.22.85l-4.89,1.37a.51.51,0,0,1-.5-.13h0A.5.5,0,0,1,740.49,340.44Z" transform="translate(-579 -296.99)"/><path class="cls-8" d="M745.26,341.65a1.47,1.47,0,0,0-2.14.2,1.4,1.4,0,0,0-.18,2.07,1.46,1.46,0,0,0,2.15-.21A1.37,1.37,0,0,0,745.26,341.65Zm-1.91,1.89c-.28-.28-.11-.76.32-1.18s.89-.6,1.18-.32.09.75-.33,1.17S743.64,343.83,743.35,343.54Z" transform="translate(-579 -296.99)"/><path class="cls-23" d="M749.27,428.17a3.37,3.37,0,0,0,.78,1.58,3.31,3.31,0,0,0,1.47,1l.43.11.21,0h.47l2.29.06,4.59.1,9.17.23-.53-2.34-8.34-1.49-4.55-.64-1-.15c2.51-5.67,5.14-11.45,4.65-14.54l-7.08-3-2.46,17.45A3.38,3.38,0,0,0,749.27,428.17Z" transform="translate(-579 -296.99)"/><path class="cls-23" d="M733.56,427.13l2.79.62,4-12.48a33.24,33.24,0,0,0,10.5.65c2.18-5,6.5-6.08,2-6.35l-.46-.05h-.54l-.48,0-.91.05-1.8.12-3.57.25-3.56.26-.89.06-.45,0h-.22l-.45,0a4.44,4.44,0,0,0-3.77,3.54l-.14.89-.27,1.77-.53,3.52Z" transform="translate(-579 -296.99)"/><path class="cls-24" d="M751.56,415.92l.23,0h.05l-.17,0Z" transform="translate(-579 -296.99)"/><path class="cls-20" d="M737.18,390.88s7.06,8.6,9.36,9.95a2.23,2.23,0,0,0,1.86.09,2.47,2.47,0,0,0,.83-.48l.35-.34.95-.91,1.48-1.42c-.56.1-1.5-3.08-1.77-4l-3,3.22-8.36-7.59Z" transform="translate(-579 -296.99)"/><path class="cls-25" d="M737.18,390.88c-.84-.43-2.48-1.08-2.45-2,0-.81.9-3.2,1.34-2.49s1.56,1.9,1.54,1.48c-.05-.77.29-.92.62-.39.42.68.22,1.6.6,2S737.18,390.88,737.18,390.88Z" transform="translate(-579 -296.99)"/><path class="cls-11" d="M744.92,394.69c0,.94,1.22,4.09,1.77,4h0a15.13,15.13,0,0,0,1.94-1.62,25.73,25.73,0,0,0,1.42,5.53c1.12,2.36-1.53,4.76-1.87,6s.95,2.62,4.78,2.25,5.29,2.31,6.26,1.22c3.83-9.61-.09-19.88-2.67-22.44-1.77-1.74-5.41-1.58-9.23,1.63C747.34,391.21,744.89,394,744.92,394.69Z" transform="translate(-579 -296.99)"/><path class="cls-26" d="M753.8,388.48c-.22.64-3.79,1.65-5,1.65-.17,0,.24-.76-.11-1.61v0c-1.1.9-2.24.25-2.94-1.78a15.06,15.06,0,0,1-.76-4.8,2.17,2.17,0,0,1,.09-.53c.75-2.69,5.73-1,6.76-.91.46,0,.69,1,.8,2.09a16.77,16.77,0,0,0-.28,2.77c0,.36.12.65.17.89a17,17,0,0,0-1.75.78C751.21,388,753.8,388.48,753.8,388.48Z" transform="translate(-579 -296.99)"/><path class="cls-27" d="M748.18,379.63c-.85.46-2.6-.56-3.38-.21a1.41,1.41,0,0,0,.17,2.4c1,.54,2.38,1.39,2.42,2.48a1.79,1.79,0,0,0,.12.65.27.27,0,0,0,0,.14,2.27,2.27,0,0,1-.12,2.46c-.24.22-1.61-.89-1.61-.39a2.12,2.12,0,0,0,1.73,1.74c.66,0,1-4.48,1-4.48h0a3.19,3.19,0,0,0,0-.83c-.1-.77,1.28-.1.91.68a2.21,2.21,0,0,0,1.27,2.75,3,3,0,0,0,1,.14c1,0,.31-.45.79-.93C755,383.76,751.16,378,748.18,379.63Z" transform="translate(-579 -296.99)"/><path class="cls-28" d="M736.06,430.63a.91.91,0,0,1-.91.91h-6.51a.63.63,0,0,1,0-1,12.94,12.94,0,0,0,4.46-2l.16.06a3.72,3.72,0,0,0,2.67,0l.13-.05A5.15,5.15,0,0,1,736.06,430.63Z" transform="translate(-579 -296.99)"/><path class="cls-28" d="M768.15,428.92l.21.07a3.64,3.64,0,0,1,.49.22,4.06,4.06,0,0,1,1.5,1.52l0,.1a12.8,12.8,0,0,1,4.7,1.36c.51-.05.62-.36.63-.75l-5-4.21a.91.91,0,0,0-1.28.11A4.87,4.87,0,0,0,768.15,428.92Z" transform="translate(-579 -296.99)"/><path class="cls-26" d="M768.15,428.92l.52,2.27c.47-.09,1.12-.25,1.73-.36l0-.1a4.06,4.06,0,0,0-1.5-1.52,3.64,3.64,0,0,0-.49-.22Z" transform="translate(-579 -296.99)"/><path class="cls-26" d="M736.2,427.71s-.14.48-.27.9a3.72,3.72,0,0,1-2.67,0,9.75,9.75,0,0,0,.44-1.46Z" transform="translate(-579 -296.99)"/><path class="cls-22" d="M733.61,378.74v19.48l-.52.5a1.27,1.27,0,0,1-1.79,0l-14.52-15a1.26,1.26,0,0,1,0-1.79l9.34-9.07a1.26,1.26,0,0,1,1.79,0Z" transform="translate(-579 -296.99)"/><rect class="cls-3" x="719.08" y="377.74" width="23.38" height="15.55" rx="4.06" transform="translate(452.31 858.15) rotate(-139.14)"/><rect class="cls-23" x="721.44" y="381.08" width="23.38" height="3.41" rx="0.89" transform="translate(458.25 854.9) rotate(-139.15)"/><rect class="cls-20" x="720.13" y="382.33" width="4.66" height="3.41" rx="1.71" transform="translate(438.69 850.11) rotate(-139.14)"/><path class="cls-26" d="M731.86,391.79s7.06,8.59,9.36,9.94a2.23,2.23,0,0,0,1.86.1,2.5,2.5,0,0,0,.83-.49l.35-.33,1-.91,1.48-1.42c-.55.1-1.5-3.09-1.77-4l-3,3.23-8.37-7.6Z" transform="translate(-579 -296.99)"/><path class="cls-26" d="M733.8,390.58a10.38,10.38,0,0,1-1.73,1.53l-.19-.19c-.88-.47-2.61-1.14-2.58-2.15s1-3.38,1.41-2.64,1.65,2,1.62,1.56c-.05-.81.31-1,.66-.41.45.72.23,1.69.63,2.09A.18.18,0,0,1,733.8,390.58Z" transform="translate(-579 -296.99)"/><ellipse class="cls-4" cx="54.74" cy="128.08" rx="16.86" ry="4.03"/><path class="cls-26" d="M630.05,356.68a3.05,3.05,0,0,0-3,2.12,67.65,67.65,0,0,0-3.71,7.85,10.57,10.57,0,0,1,2.53.33l2.22-7.31C630.06,359.16,631.15,356.85,630.05,356.68Z" transform="translate(-579 -296.99)"/><path class="cls-29" d="M639.33,377.78c-2.52-1.66-5.51-6.92-4.59-8.29s-3.08-2.24-4.34-3.9c-.55-.73-.69-1-.44-2.84.12-.93-1.13-.93-1.06-2.61a1.88,1.88,0,0,1,.25-.87l.13-.22a5,5,0,0,1,.61-.71c.81-.77,5.92-1,5.92-1h0l.2.17.23.2c3.22,2.68,4.9,3.49,4.31,5.63-.67,2.43.06,2.17,1.57,3.92s2.15,2.7,2.23,4.25C644.66,377.22,641.85,379.44,639.33,377.78Z" transform="translate(-579 -296.99)"/><path class="cls-26" d="M642,422.52c-.24-1.4-3.76-13.81-5.17-18.74-1.82-.7-4.52-2.21-7.46-3.36L632,405l7.7,17.75c0,1.6,4.19,2.87,4.88,2.75S644.13,423.62,642,422.52Z" transform="translate(-579 -296.99)"/><path class="cls-30" d="M643.74,379.67s-.86-3.34-2-6.34c-1.57-3.88-3-6.2-5.17-6.95-2.33-.81-5.4.13-7.42,1.35a28.79,28.79,0,0,0-3.24,2h0l-.67.45.59-3.2a11.2,11.2,0,0,0-2.53-.32c-1.1,2.88-1.78,5.71-.82,6.84.6.71,4-.1,4-.1s2.08-1.34,2.13-1.34a36.07,36.07,0,0,1-4.92,11.69c-3.79,6.26-6.23,16.9-5.06,16.23,7.4-4.28,19.17,6.15,20.51,3.86,2-3.35-3-17.17-1.8-21.65,2.34.48,4.64.75,5.33.52C643.67,382.36,644.24,381.31,643.74,379.67Zm-3.43-.21-2.36-.3c.2-.84.57-3.56.73-4.37Z" transform="translate(-579 -296.99)"/><path class="cls-26" d="M626.73,421.58c-.17-6.82.4-16.05.49-21.92a14,14,0,0,0-5.7-.65c.29,3,1.39,12.44,2.87,23.51l0,0h0l-.14.24-.07.1-.15.22-.08.13c-.33.46-.69.91-1,1.29a7.36,7.36,0,0,0-.38.94c0,.13-.08.26-.11.36a.49.49,0,0,0,.23.05,5,5,0,0,0,2.62-.73,12.94,12.94,0,0,0,1.6-2.47,1,1,0,0,0,.07-.21,1.7,1.7,0,0,0-.19-.84Z" transform="translate(-579 -296.99)"/><path class="cls-20" d="M636,363.25a3.55,3.55,0,0,0,.6,3.13,7.65,7.65,0,0,1-3.89.91c-2.45,0-.16-.88-.16-.88a5,5,0,0,1,.4-1.3C633.13,364.92,636,363.25,636,363.25Z" transform="translate(-579 -296.99)"/><path class="cls-26" d="M637.36,361a5.13,5.13,0,0,1-.18,1.18l-.46.45h0l-.62.69-.14.15a6.63,6.63,0,0,1-2.85,2.09.89.89,0,0,1-1.07-.42.66.66,0,0,1-.14-.5,1.32,1.32,0,0,1-.34-.39.3.3,0,0,1,0-.23,1.6,1.6,0,0,0,0-.49c-.17.05-.14.15-.56.2-.21,0,0-.52,0-1.36a6,6,0,0,0-1-2.3c-.33-.52-.61-.9-.61-.9l0-.11.07-.36.28-.34a2,2,0,0,1,1.42-1.72,30.48,30.48,0,0,1,3.2,0l.49.14a3.76,3.76,0,0,1,1.07.57h0l.19.16h0Z" transform="translate(-579 -296.99)"/><path class="cls-29" d="M637.54,361.29a4,4,0,0,1-.14,1.09,11.68,11.68,0,0,1-1.51,2.27c-2.33-1.26-1.88-3.75-2-3.91-.42-.41-1.14.13-2.13.13a3.65,3.65,0,0,1-1.84-.81,3.19,3.19,0,0,1-.72-.79c-.7-3.48,3.52-3,5.1-2.64l.49.14a3.76,3.76,0,0,1,1.07.57h0l.19.16a1.64,1.64,0,0,1,.24.21,3.57,3.57,0,0,1,.72,1A6.7,6.7,0,0,1,637.54,361.29Z" transform="translate(-579 -296.99)"/><path class="cls-30" d="M628,359.94a2,2,0,0,1-1.31-.59.12.12,0,0,1,0-.17.13.13,0,0,1,.18,0,1.65,1.65,0,0,0,1.12.51.12.12,0,0,1,.12.13A.12.12,0,0,1,628,359.94Z" transform="translate(-579 -296.99)"/><path class="cls-10" d="M627.19,379.14l-2.77-1-.74-4.61a.39.39,0,0,1,.46-.44l2.2.47a.38.38,0,0,1,.31.34Z" transform="translate(-579 -296.99)"/><path class="cls-26" d="M628.37,377.93s-1-1.28-1.45-1.36l.09.85a.55.55,0,0,1,.1.53c-.13.27-2.52-1.14-2.53-.41,0,1.31,1.81,2.14,3.34,1.89,1.44.44,4.65,1.53,7.79,2.31a8.91,8.91,0,0,1,.83-2.63Z" transform="translate(-579 -296.99)"/><path class="cls-11" d="M639.67,423.39c.22.34,2.7,2.52,3.71,2.62s2.4.43,1.26-1.19a7.21,7.21,0,0,0-2.62-2.3c.12.16,1.88,1.34,1.35,1.74s-1.06.09-1.51-.12a16.18,16.18,0,0,1-2.35-1.81C639.33,422.41,639.39,423.07,639.67,423.39Z" transform="translate(-579 -296.99)"/><path class="cls-11" d="M627,422.48a1,1,0,0,1-.07.21,12.94,12.94,0,0,1-1.6,2.47,4.13,4.13,0,0,1-1.19,1.11c-.88.36-2,1-1.66-.43,0-.1.06-.23.11-.36a7.36,7.36,0,0,1,.38-.94,7.27,7.27,0,0,1,1.43-2h0l0,0a2.15,2.15,0,0,1-.17.27l-.07.1-.15.22-.08.13c-.35.54-.7,1.19-.32,1.34s1-.23,1.41-.56a15.67,15.67,0,0,0,1.73-2.4h0C626.92,421.71,627,422.13,627,422.48Z" transform="translate(-579 -296.99)"/></svg>