<svg id="Слой_1" data-name="Слой 1" xmlns="http://www.w3.org/2000/svg" viewBox="0 0 1007.52 694.37"><defs><style>.cls-1{fill:#543ace;}.cls-2{fill:#fff;}.cls-3{fill:#d1485c;}.cls-4{fill:#8579ef;}.cls-5{fill:#543acc;}.cls-6{fill:#9482d6;}.cls-7{fill:#fffff6;}.cls-8{fill:#dad5f6;}.cls-9{opacity:0.15;}.cls-10{fill:#e4dafd;}.cls-11{fill:#6860dd;}.cls-12{fill:#ab92e4;}.cls-13{fill:#2d1f61;}.cls-14{fill:#392570;}.cls-15{fill:#bc4059;}.cls-16{fill:#d25b6d;}.cls-17{fill:#c4aaf3;}.cls-18{fill:#432fb9;}.cls-19{fill:#5945d5;}.cls-20{fill:#e8e8ee;}.cls-21{fill:#b099e6;}.cls-22{fill:#2e1f64;}.cls-23{fill:#d45b6d;}.cls-24{fill:#c6acf5;}.cls-25{fill:#604bdd;}.cls-26{fill:#4430b7;}.cls-27{fill:#9d86d6;}</style></defs><title>service-blog</title><path class="cls-1" d="M463.8,660.1c46.51-16.84,76.65-60.25,95.37-104,5.37-12.53,9-21.43,7.1-30.4-.13-.6-.27-1.2-.45-1.8-1.46-4.94-4.66-10-10.22-15.74-12.93-13.37-29.07-23.78-44.61-33.82-27.58-17.83-59.72-29.83-93-27.42-30.8,2.24-84,43.81-189.28,126.84-25,19.73-32.53,26.23-30.81,30.91a4.06,4.06,0,0,0,.6,1.07v.09c.34,5,9.86,7.84,40.74,15.66C369.2,654.38,434.77,670.62,463.8,660.1Z" transform="translate(-179.24 -39.05)"/><path class="cls-2" d="M501.1,541.38l.82-.19c9.48-2.18,18.82-4.4,28.31-6.69l2.46-.6c6.29-1.52,12.64-3.07,19.13-4.66,4.8-1.17,9.63-2.36,14.45-3.56-.13-.6-.27-1.2-.45-1.8q-7.23,1.8-14.45,3.56c-17.21,4.2-33.44,8.16-50.06,12l-2.68.61c-16.59,3.8-33.65,7.45-52.51,11.07l-2.81.54c-5.68,1.08-11.53,2.15-17.59,3.23l-6.91,1.21-.44.08h0q-17.55,3-35.23,5.68c-1,.16-2,.3-3,.45h0q-19,2.81-37.82,5.12a.93.93,0,1,0,.23,1.84c24.68-3,49.69-6.72,74.43-11l2.34-.4,6.75-1.18c14.9-2.65,28.56-5.3,41.53-8l2.3-.48C480.65,546,491,543.71,501.1,541.38Z" transform="translate(-179.24 -39.05)"/><path class="cls-2" d="M379.56,627.41c13.51-23,26.81-46.23,39.75-69.53.09-.14.16-.28.23-.41a.94.94,0,0,0-.31-1.24l0,0a.92.92,0,0,0-.4-.12.79.79,0,0,0-.42.08h0a1,1,0,0,0-.43.39l-1,1.73c-12.8,23-26,46-39.32,68.72C378.28,627.15,378.92,627.29,379.56,627.41Z" transform="translate(-179.24 -39.05)"/><path class="cls-2" d="M423.46,629.26h0c15.75-26.55,31.26-53.57,46.29-80.63a.89.89,0,0,0,.12-.38.9.9,0,0,0-.42-.85l0,0a.93.93,0,0,0-1.26.36l-.56,1c-15.06,27.11-30.61,54.16-46.4,80.74Z" transform="translate(-179.24 -39.05)"/><path class="cls-2" d="M485.45,612.49q1.51-.69,3-1.44c15.05-25.44,29.86-51.26,44.24-77.15a1,1,0,0,1,.09-.17.91.91,0,0,0-.31-1.22.1.1,0,0,0-.05,0,.92.92,0,0,0-1.26.36c-.31.55-.63,1.12-.93,1.67C515.67,560.67,500.68,586.79,485.45,612.49Z" transform="translate(-179.24 -39.05)"/><path class="cls-2" d="M446.36,552.35s0,0,0,0a.93.93,0,0,0-.27-1.2l-.09-.06c-22.11-12.28-44.18-24.88-66-37.67-.64.34-1.31.67-2,1,21.58,12.66,43.4,25.13,65.27,37.28l1.81,1A.92.92,0,0,0,446.36,552.35Z" transform="translate(-179.24 -39.05)"/><path class="cls-2" d="M501.92,541.19a1.16,1.16,0,0,0,.18-.2.11.11,0,0,1,0-.06.94.94,0,0,0-.37-1.26c-.14-.08-.29-.15-.43-.24-30.07-16.7-60.09-34-89.48-51.58l-1.38,1.34c29,17.32,58.53,34.38,88.16,50.86l2.24,1.24a1,1,0,0,0,.24.09A.93.93,0,0,0,501.92,541.19Z" transform="translate(-179.24 -39.05)"/><path class="cls-2" d="M383.37,563.12l0,0a.94.94,0,0,0-.29-1.22l-.07,0Q354,545.66,325.13,528.87l-.08.08c-.42.41-.82.85-1.21,1.3q28,16.31,56.28,32c.67.39,1.35.76,2,1.13A.92.92,0,0,0,383.37,563.12Z" transform="translate(-179.24 -39.05)"/><path class="cls-3" d="M408.29,585.2c49.46.72,93-29.21,126-63.52,9.45-9.82,16-16.85,17.4-25.92.09-.61.17-1.22.21-1.85.39-5.13-.82-11-4-18.34-7.36-17.08-18.77-32.52-29.75-47.41-19.48-26.44-45.29-49.05-77.25-58.56-29.6-8.81-94.11,11.22-221.92,51.62-30.36,9.6-39.71,13-39.76,18a4.34,4.34,0,0,0,.18,1.22l0,.08c-1.45,4.77,6.44,10.82,32.55,29.06C321.84,546.36,377.41,584.76,408.29,585.2Z" transform="translate(-179.24 -39.05)"/><path class="cls-2" d="M485.2,487.37l.84.12c9.63,1.31,19.16,2.54,28.84,3.76l2.52.31L536.93,494q7.37.91,14.78,1.79c.09-.61.17-1.22.21-1.85q-7.39-.87-14.76-1.78c-17.59-2.16-34.17-4.2-51.07-6.51l-2.73-.37c-16.86-2.33-34.1-4.95-53-8.24l-2.82-.49c-5.7-1-11.55-2.07-17.59-3.21-2.29-.42-4.59-.87-6.89-1.31l-.45-.08h0q-17.49-3.37-35-7.16l-2.95-.64h0q-18.72-4.08-37.19-8.6a.93.93,0,0,0-.43,1.8c24.16,5.9,48.85,11.3,73.49,16.09l2.34.46,6.73,1.28c14.86,2.8,28.58,5.16,41.67,7.23l2.31.36C464.44,484.45,474.89,486,485.2,487.37Z" transform="translate(-179.24 -39.05)"/><path class="cls-2" d="M341.07,524.81c20.77-16.7,41.45-33.75,61.8-51l.36-.3a.92.92,0,0,0,.14-1.27l0,0A1.07,1.07,0,0,0,403,472a.89.89,0,0,0-.43-.08h0a1,1,0,0,0-.53.22l-1.51,1.27c-20.13,17-40.57,33.85-61.1,50.36C340,524.11,340.52,524.47,341.07,524.81Z" transform="translate(-179.24 -39.05)"/><path class="cls-2" d="M381.48,542.07h0c24.13-19.25,48.21-39,71.84-59a.79.79,0,0,0,.24-.31.91.91,0,0,0-.09-.95l0,0a.92.92,0,0,0-1.3-.11l-.87.72c-23.68,20-47.8,39.82-72,59.09Z" transform="translate(-179.24 -39.05)"/><path class="cls-2" d="M445.39,548.34c1.11-.08,2.22-.17,3.32-.29,23.08-18.46,46.07-37.37,68.68-56.49l.14-.13a.91.91,0,0,0,.15-1.25,0,0,0,0,0,0-.05.93.93,0,0,0-1.31-.12l-1.46,1.24C492,510.58,468.73,529.7,445.39,548.34Z" transform="translate(-179.24 -39.05)"/><path class="cls-2" d="M430.12,478.26l.05,0a.94.94,0,0,0,.17-1.22.31.31,0,0,0-.07-.09c-16.33-19.31-32.51-38.91-48.38-58.59-.73.08-1.47.16-2.21.22q23.55,29.24,47.84,58c.45.54.9,1.06,1.34,1.6A.93.93,0,0,0,430.12,478.26Z" transform="translate(-179.24 -39.05)"/><path class="cls-2" d="M486,487.48a.85.85,0,0,0,.23-.12l.05,0a.94.94,0,0,0,.11-1.31l-.33-.38c-22.2-26.27-44.15-53.07-65.42-79.92l-1.77.77c21,26.45,42.57,52.87,64.45,78.77.56.65,1.1,1.3,1.66,2a.74.74,0,0,0,.19.16A.89.89,0,0,0,486,487.48Z" transform="translate(-179.24 -39.05)"/><path class="cls-2" d="M367.4,466a.06.06,0,0,0,.05,0,.93.93,0,0,0,.16-1.25l-.05-.06q-21.46-25.4-42.51-51.31l-.1,0c-.53.24-1.06.51-1.59.79q20.37,25.16,41.29,49.9c.49.6,1,1.19,1.49,1.77A.91.91,0,0,0,367.4,466Z" transform="translate(-179.24 -39.05)"/><path class="cls-4" d="M405.77,464c38.1,22.11,85,17.83,125.56,5.57C543,466,551.11,463.39,556.15,457c.33-.43.66-.87,1-1.34,2.54-3.81,4.15-8.89,4.9-16,1.73-16.47-.41-33.45-2.45-49.8-3.61-29-13.81-57.83-34.49-79.14-19.15-19.75-78-32.3-194.88-56.61-27.77-5.76-36.52-7.19-38.72-3.34a3.87,3.87,0,0,0-.4,1l-.06.05c-3.2,3.07.29,11.21,12.62,36.76C355.54,396.11,382,450.15,405.77,464Z" transform="translate(-179.24 -39.05)"/><path class="cls-2" d="M508.14,421.47l.59.45c6.92,5.22,13.78,10.33,20.77,15.49l1.82,1.34,14.12,10.38q5.34,3.93,10.71,7.83c.33-.43.66-.87,1-1.34q-5.36-3.9-10.69-7.82c-12.72-9.34-24.71-18.15-36.83-27.31l-2-1.47c-12.08-9.16-24.33-18.71-37.6-29.51l-2-1.61q-6-4.89-12.27-10.15c-1.59-1.33-3.19-2.68-4.78-4l-.31-.25,0,0q-12.1-10.24-24-20.79l-2-1.79h0Q411.87,339.54,399.49,328a.82.82,0,0,0-1.17,0,.81.81,0,0,0,.05,1.16c16.2,15.11,33,30.07,50.07,44.53l1.62,1.37,4.67,3.93c10.33,8.65,20,16.46,29.22,23.77.54.44,1.09.87,1.64,1.29C493.28,410.15,500.74,415.88,508.14,421.47Z" transform="translate(-179.24 -39.05)"/><path class="cls-2" d="M379.87,387.75c23.4-3.92,46.89-8.16,70.2-12.66l.41-.08a.82.82,0,0,0,.67-.92v0a.87.87,0,0,0-.14-.34.91.91,0,0,0-.3-.25h0a.87.87,0,0,0-.51-.06l-1.73.33c-23.05,4.44-46.27,8.62-69.41,12.49Z" transform="translate(-179.24 -39.05)"/><path class="cls-2" d="M403.73,418.76h0c27.13-4.44,54.45-9.32,81.53-14.55a.71.71,0,0,0,.31-.13.82.82,0,0,0,.35-.78.09.09,0,0,1,0-.05.83.83,0,0,0-1-.65l-1,.18c-27.12,5.24-54.48,10.1-81.66,14.54Z" transform="translate(-179.24 -39.05)"/><path class="cls-2" d="M450.64,451.48c.9.42,1.8.83,2.7,1.22,26-4.28,52.08-8.95,78-13.95l.17,0a.83.83,0,0,0,.67-.91.09.09,0,0,0,0-.05.83.83,0,0,0-1-.66l-1.67.32C503.31,442.46,476.9,447.17,450.64,451.48Z" transform="translate(-179.24 -39.05)"/><path class="cls-2" d="M469.32,390.38h.05a.83.83,0,0,0,.66-.88.18.18,0,0,0,0-.1c-4.27-22.11-8.3-44.39-12-66.6-.6-.24-1.21-.51-1.81-.78,3.7,22,7.68,44,11.9,65.88.11.61.23,1.21.35,1.82A.8.8,0,0,0,469.32,390.38Z" transform="translate(-179.24 -39.05)"/><path class="cls-2" d="M508.74,421.92H509a.85.85,0,0,0,.65-1l-.09-.43c-5.8-30.08-11.17-60.47-16-90.59l-1.71-.17c4.76,29.67,10,59.61,15.74,89.27.15.75.29,1.49.43,2.24a.76.76,0,0,0,.08.21A.83.83,0,0,0,508.74,421.92Z" transform="translate(-179.24 -39.05)"/><path class="cls-2" d="M425.93,353.55H426a.85.85,0,0,0,.67-.9v-.07c-3.75-19.39-7.31-38.9-10.67-58.38h-.09c-.52-.05-1.05-.08-1.58-.08,3.24,18.94,6.69,37.9,10.33,56.75.12.68.26,1.36.39,2A.8.8,0,0,0,425.93,353.55Z" transform="translate(-179.24 -39.05)"/><path class="cls-1" d="M902.2,660.1c-46.51-16.84-76.65-60.25-95.37-104-5.37-12.53-9-21.43-7.1-30.4.13-.6.27-1.2.45-1.8,1.46-4.94,4.66-10,10.22-15.74,12.93-13.37,29.07-23.78,44.61-33.82,27.58-17.83,59.72-29.83,93-27.42,30.8,2.24,84,43.81,189.28,126.84,25,19.73,32.53,26.23,30.81,30.91a4.06,4.06,0,0,1-.6,1.07v.09c-.34,5-9.86,7.84-40.74,15.66C996.8,654.38,931.23,670.62,902.2,660.1Z" transform="translate(-179.24 -39.05)"/><path class="cls-2" d="M864.9,541.38l-.82-.19c-9.48-2.18-18.82-4.4-28.31-6.69l-2.46-.6c-6.29-1.52-12.64-3.07-19.13-4.66-4.8-1.17-9.63-2.36-14.45-3.56.13-.6.27-1.2.45-1.8q7.23,1.8,14.45,3.56c17.21,4.2,33.44,8.16,50.06,12l2.68.61c16.59,3.8,33.65,7.45,52.51,11.07l2.81.54c5.68,1.08,11.53,2.15,17.59,3.23l6.91,1.21.44.08h0q17.55,3,35.23,5.68c1,.16,2,.3,3,.45h0q19,2.81,37.82,5.12a.93.93,0,1,1-.23,1.84c-24.68-3-49.69-6.72-74.43-11l-2.34-.4L940,556.71c-14.9-2.65-28.56-5.3-41.53-8l-2.3-.48C885.35,546,875.05,543.71,864.9,541.38Z" transform="translate(-179.24 -39.05)"/><path class="cls-2" d="M986.44,627.41c-13.51-23-26.81-46.23-39.75-69.53-.09-.14-.16-.28-.23-.41a.94.94,0,0,1,.31-1.24l0,0a.92.92,0,0,1,.4-.12.77.77,0,0,1,.42.08h0a1,1,0,0,1,.43.39l1,1.73c12.8,23,26,46,39.32,68.72C987.72,627.15,987.08,627.29,986.44,627.41Z" transform="translate(-179.24 -39.05)"/><path class="cls-2" d="M942.54,629.26h0c-15.75-26.55-31.26-53.57-46.29-80.63a.89.89,0,0,1-.12-.38.9.9,0,0,1,.42-.85l.05,0a.93.93,0,0,1,1.26.36l.56,1c15.06,27.11,30.61,54.16,46.4,80.74Z" transform="translate(-179.24 -39.05)"/><path class="cls-2" d="M880.55,612.49q-1.51-.69-3-1.44c-15-25.44-29.86-51.26-44.24-77.15a1,1,0,0,0-.09-.17.91.91,0,0,1,.31-1.22.1.1,0,0,1,.05,0,.92.92,0,0,1,1.26.36c.31.55.63,1.12.93,1.67C850.33,560.67,865.32,586.79,880.55,612.49Z" transform="translate(-179.24 -39.05)"/><path class="cls-2" d="M919.64,552.35s0,0,0,0a.93.93,0,0,1,.27-1.2l.09-.06c22.11-12.28,44.19-24.88,66-37.67.64.34,1.31.67,2,1-21.58,12.66-43.4,25.13-65.27,37.28l-1.81,1A.92.92,0,0,1,919.64,552.35Z" transform="translate(-179.24 -39.05)"/><path class="cls-2" d="M864.08,541.19a1.16,1.16,0,0,1-.18-.2.11.11,0,0,0,0-.06.94.94,0,0,1,.37-1.26c.14-.08.29-.15.43-.24,30.07-16.7,60.09-34,89.48-51.58l1.38,1.34c-29,17.32-58.53,34.38-88.16,50.86l-2.24,1.24a1,1,0,0,1-.24.09A.93.93,0,0,1,864.08,541.19Z" transform="translate(-179.24 -39.05)"/><path class="cls-2" d="M982.63,563.12l0,0a.94.94,0,0,1,.29-1.22l.07,0q29.09-16.15,57.93-32.94l.07.08c.42.41.82.85,1.21,1.3q-28,16.31-56.28,32c-.67.39-1.35.76-2,1.13A.92.92,0,0,1,982.63,563.12Z" transform="translate(-179.24 -39.05)"/><path class="cls-3" d="M957.71,585.2c-49.46.72-93-29.21-126-63.52-9.45-9.82-16-16.85-17.4-25.92-.09-.61-.17-1.22-.21-1.85-.39-5.13.82-11,4-18.34,7.36-17.08,18.77-32.52,29.75-47.41,19.48-26.44,45.29-49.05,77.25-58.56,29.6-8.81,94.11,11.22,221.92,51.62,30.36,9.6,39.71,13,39.76,18a4.34,4.34,0,0,1-.18,1.22l0,.08c1.45,4.77-6.44,10.82-32.55,29.06C1044.16,546.36,988.59,584.76,957.71,585.2Z" transform="translate(-179.24 -39.05)"/><path class="cls-2" d="M880.8,487.37l-.84.12c-9.63,1.31-19.16,2.54-28.84,3.76l-2.52.31L829.07,494q-7.37.91-14.78,1.79c-.09-.61-.17-1.22-.21-1.85q7.39-.87,14.76-1.78c17.59-2.16,34.17-4.2,51.07-6.51l2.73-.37c16.86-2.33,34.1-4.95,53-8.24l2.82-.49c5.7-1,11.55-2.07,17.59-3.21,2.29-.42,4.59-.87,6.89-1.31l.45-.08h0q17.49-3.37,35-7.16l3-.64h0q18.72-4.08,37.19-8.6a.93.93,0,0,1,.43,1.8c-24.16,5.9-48.85,11.3-73.49,16.09l-2.34.46-6.73,1.28c-14.86,2.8-28.58,5.16-41.67,7.23l-2.31.36C901.56,484.45,891.11,486,880.8,487.37Z" transform="translate(-179.24 -39.05)"/><path class="cls-2" d="M1024.93,524.81c-20.77-16.7-41.45-33.75-61.8-51l-.36-.3a.92.92,0,0,1-.14-1.27l0,0A1.07,1.07,0,0,1,963,472a.89.89,0,0,1,.43-.08h0a1,1,0,0,1,.53.22l1.51,1.27c20.13,17,40.57,33.85,61.1,50.36C1026,524.11,1025.48,524.47,1024.93,524.81Z" transform="translate(-179.24 -39.05)"/><path class="cls-2" d="M984.52,542.07h0c-24.13-19.25-48.21-39-71.84-59a.79.79,0,0,1-.24-.31.91.91,0,0,1,.09-.95l0,0a.92.92,0,0,1,1.3-.11l.87.72c23.68,20,47.8,39.82,72,59.09Z" transform="translate(-179.24 -39.05)"/><path class="cls-2" d="M920.61,548.34c-1.11-.08-2.22-.17-3.32-.29-23.08-18.46-46.07-37.37-68.68-56.49l-.14-.13a.91.91,0,0,1-.15-1.25,0,0,0,0,1,0-.05.93.93,0,0,1,1.31-.12l1.46,1.24C874,510.58,897.27,529.7,920.61,548.34Z" transform="translate(-179.24 -39.05)"/><path class="cls-2" d="M935.88,478.26l0,0a.94.94,0,0,1-.17-1.22.31.31,0,0,1,.07-.09c16.33-19.31,32.51-38.91,48.38-58.59.73.08,1.47.16,2.21.22q-23.55,29.24-47.84,58c-.45.54-.9,1.06-1.34,1.6A.93.93,0,0,1,935.88,478.26Z" transform="translate(-179.24 -39.05)"/><path class="cls-2" d="M880,487.48a.85.85,0,0,1-.23-.12l-.05,0a.94.94,0,0,1-.11-1.31l.33-.38c22.2-26.27,44.15-53.07,65.42-79.92l1.77.77c-21,26.45-42.57,52.87-64.45,78.77-.56.65-1.1,1.3-1.66,2a.74.74,0,0,1-.19.16A.89.89,0,0,1,880,487.48Z" transform="translate(-179.24 -39.05)"/><path class="cls-2" d="M998.6,466l-.05,0a.93.93,0,0,1-.16-1.25l.05-.06q21.46-25.4,42.51-51.31l.1,0c.53.24,1.06.51,1.59.79q-20.37,25.16-41.29,49.9c-.49.6-1,1.19-1.49,1.77A.91.91,0,0,1,998.6,466Z" transform="translate(-179.24 -39.05)"/><path class="cls-4" d="M960.23,464c-38.1,22.11-85,17.83-125.56,5.57C823,466,814.89,463.39,809.85,457c-.33-.43-.66-.87-1-1.34-2.54-3.81-4.15-8.89-4.9-16-1.73-16.47.41-33.45,2.45-49.8,3.61-29,13.81-57.83,34.49-79.14,19.15-19.75,78-32.3,194.88-56.61,27.77-5.76,36.52-7.19,38.72-3.34a3.87,3.87,0,0,1,.4,1l.06.05c3.2,3.07-.29,11.21-12.62,36.76C1010.46,396.11,984,450.15,960.23,464Z" transform="translate(-179.24 -39.05)"/><path class="cls-2" d="M857.86,421.47l-.59.45c-6.92,5.22-13.78,10.33-20.77,15.49l-1.82,1.34-14.12,10.38q-5.34,3.93-10.71,7.83c-.33-.43-.66-.87-1-1.34q5.36-3.9,10.69-7.82c12.72-9.34,24.71-18.15,36.83-27.31l2-1.47c12.08-9.16,24.33-18.71,37.6-29.51l2-1.61q6-4.89,12.27-10.15c1.59-1.33,3.19-2.68,4.78-4l.31-.25,0,0q12.1-10.24,24-20.79l2-1.79h0q12.76-11.33,25.14-22.88a.82.82,0,0,1,1.17,0,.81.81,0,0,1,0,1.16c-16.2,15.11-33,30.07-50.07,44.53l-1.62,1.37L911.27,379c-10.33,8.65-20,16.46-29.22,23.77-.54.44-1.09.87-1.64,1.29C872.72,410.15,865.26,415.88,857.86,421.47Z" transform="translate(-179.24 -39.05)"/><path class="cls-2" d="M986.13,387.75c-23.4-3.92-46.89-8.16-70.2-12.66l-.42-.08a.82.82,0,0,1-.66-.92v0a.87.87,0,0,1,.14-.34.91.91,0,0,1,.3-.25h0a.87.87,0,0,1,.51-.06l1.73.33c23.05,4.44,46.27,8.62,69.41,12.49C986.69,386.72,986.42,387.24,986.13,387.75Z" transform="translate(-179.24 -39.05)"/><path class="cls-2" d="M962.27,418.76h0c-27.13-4.44-54.45-9.32-81.53-14.55a.71.71,0,0,1-.31-.13.82.82,0,0,1-.35-.78.09.09,0,0,0,0-.05.83.83,0,0,1,1-.65l1,.18c27.12,5.24,54.48,10.1,81.66,14.54Z" transform="translate(-179.24 -39.05)"/><path class="cls-2" d="M915.36,451.48c-.9.42-1.8.83-2.7,1.22-26-4.28-52.08-8.95-78-13.95l-.17,0a.83.83,0,0,1-.67-.91.09.09,0,0,1,0-.05.83.83,0,0,1,1-.66l1.67.32C862.69,442.46,889.1,447.17,915.36,451.48Z" transform="translate(-179.24 -39.05)"/><path class="cls-2" d="M896.68,390.38h0a.83.83,0,0,1-.66-.88.18.18,0,0,1,0-.1c4.27-22.11,8.3-44.39,12-66.6.6-.24,1.21-.51,1.81-.78-3.7,22-7.68,44-11.9,65.88-.11.61-.23,1.21-.35,1.82A.8.8,0,0,1,896.68,390.38Z" transform="translate(-179.24 -39.05)"/><path class="cls-2" d="M857.26,421.92H857a.85.85,0,0,1-.65-1l.09-.43c5.8-30.08,11.17-60.47,16-90.59l1.71-.17c-4.76,29.67-10,59.61-15.74,89.27-.15.75-.29,1.49-.43,2.24a.76.76,0,0,1-.08.21A.83.83,0,0,1,857.26,421.92Z" transform="translate(-179.24 -39.05)"/><path class="cls-2" d="M940.07,353.55H940a.85.85,0,0,1-.67-.9v-.07c3.75-19.39,7.31-38.9,10.67-58.38h.09c.52-.05,1-.08,1.58-.08-3.24,18.94-6.69,37.9-10.33,56.75-.12.68-.26,1.36-.39,2A.8.8,0,0,1,940.07,353.55Z" transform="translate(-179.24 -39.05)"/><path class="cls-5" d="M242.75,182.74H764.57a32.18,32.18,0,0,1,32.18,32.18V528.27a0,0,0,0,1,0,0H210.57a0,0,0,0,1,0,0V214.92A32.18,32.18,0,0,1,242.75,182.74Z"/><polygon class="cls-6" points="135.44 661.85 871.88 661.85 796.75 528.27 210.57 528.27 135.44 661.85"/><rect class="cls-6" x="241.25" y="206.76" width="524.83" height="303.43" rx="15.38"/><path class="cls-5" d="M314.68,700.9h736.44l-4.39,7.81a48.5,48.5,0,0,1-42.26,24.71H361.33a48.48,48.48,0,0,1-42.25-24.71Z" transform="translate(-179.24 -39.05)"/><polygon class="cls-7" points="339.76 629.05 668.08 629.05 663.35 612.45 348.71 612.45 339.76 629.05"/><polygon class="cls-7" points="375.54 583.57 369.75 596.73 408.69 596.73 412.9 583.57 375.54 583.57"/><polygon class="cls-7" points="320.3 583.57 314.51 596.73 353.44 596.73 357.65 583.57 320.3 583.57"/><polygon class="cls-7" points="262.94 583.57 257.16 596.73 296.09 596.73 300.3 583.57 262.94 583.57"/><polygon class="cls-7" points="543.38 583.57 537.6 596.73 576.53 596.73 580.74 583.57 543.38 583.57"/><polygon class="cls-7" points="488.14 583.57 482.35 596.73 521.29 596.73 525.5 583.57 488.14 583.57"/><polygon class="cls-7" points="430.79 583.57 425 596.73 463.94 596.73 468.14 583.57 430.79 583.57"/><polygon class="cls-7" points="712.8 583.57 707.02 596.73 745.95 596.73 750.16 583.57 712.8 583.57"/><polygon class="cls-7" points="657.56 583.57 651.77 596.73 690.71 596.73 694.92 583.57 657.56 583.57"/><polygon class="cls-7" points="600.21 583.57 594.42 596.73 633.36 596.73 637.57 583.57 600.21 583.57"/><polygon class="cls-7" points="357.73 549.34 351.94 562.5 390.88 562.5 395.09 549.34 357.73 549.34"/><polygon class="cls-7" points="302.49 549.34 296.7 562.5 335.63 562.5 339.84 549.34 302.49 549.34"/><polygon class="cls-7" points="245.13 549.34 239.35 562.5 278.28 562.5 282.49 549.34 245.13 549.34"/><polygon class="cls-7" points="525.57 549.34 519.79 562.5 558.72 562.5 562.93 549.34 525.57 549.34"/><polygon class="cls-7" points="470.33 549.34 464.54 562.5 503.48 562.5 507.68 549.34 470.33 549.34"/><polygon class="cls-7" points="412.98 549.34 407.19 562.5 446.12 562.5 450.33 549.34 412.98 549.34"/><polygon class="cls-7" points="694.99 549.34 689.21 562.5 728.14 562.5 732.35 549.34 694.99 549.34"/><polygon class="cls-7" points="639.75 549.34 633.96 562.5 672.9 562.5 677.11 549.34 639.75 549.34"/><polygon class="cls-7" points="582.4 549.34 576.61 562.5 615.54 562.5 619.75 549.34 582.4 549.34"/><rect class="cls-7" x="260.92" y="232.92" width="481.05" height="257.64"/><rect class="cls-8" x="290.93" y="431.67" width="207.46" height="27.59"/><rect class="cls-4" x="290.93" y="259.52" width="207.46" height="172.14"/><g class="cls-9"><path class="cls-10" d="M500.18,387.09h-20.4a10.2,10.2,0,1,1,20.4,0Z" transform="translate(-179.24 -39.05)"/><path class="cls-10" d="M565.08,383.16a10.28,10.28,0,0,1-.78,3.93H545.46a10.23,10.23,0,0,1,3.84-12.47,10.2,10.2,0,0,1,15.78,8.54Z" transform="translate(-179.24 -39.05)"/><path class="cls-10" d="M514.69,376.88a14.5,14.5,0,0,1-4.19,10.21H489.86a14.47,14.47,0,0,1-4.17-9.27c0-.31,0-.62,0-.94a14.52,14.52,0,0,1,29,0Z" transform="translate(-179.24 -39.05)"/><path class="cls-10" d="M549.92,378.85a14.42,14.42,0,0,1-2.56,8.24h-23.9a14.53,14.53,0,0,1,7.77-22.15,14.77,14.77,0,0,1,4.18-.61,14.48,14.48,0,0,1,14.51,14.52Z" transform="translate(-179.24 -39.05)"/><path class="cls-10" d="M536.69,378.85a20.4,20.4,0,0,1-1.73,8.24H497.49a20.4,20.4,0,0,1-1.73-8.24v-.17a20.47,20.47,0,0,1,40.93.17Z" transform="translate(-179.24 -39.05)"/></g><g class="cls-9"><path class="cls-10" d="M610.7,427.69H590.3a10.2,10.2,0,0,1,10.2-10.2,10.08,10.08,0,0,1,5.78,1.8A10.19,10.19,0,0,1,610.7,427.69Z" transform="translate(-179.24 -39.05)"/><path class="cls-10" d="M675.6,423.77a10.23,10.23,0,0,1-.78,3.92H656a10.2,10.2,0,1,1,19.62-3.92Z" transform="translate(-179.24 -39.05)"/><path class="cls-10" d="M625.21,417.49a14.46,14.46,0,0,1-4.19,10.2H600.38a14.38,14.38,0,0,1-4.16-9.26c0-.31,0-.62,0-.94A14.51,14.51,0,0,1,610.7,403a14,14,0,0,1,3.39.4A14.5,14.5,0,0,1,625.21,417.49Z" transform="translate(-179.24 -39.05)"/><path class="cls-10" d="M660.44,419.46a14.41,14.41,0,0,1-2.56,8.23H634a14.52,14.52,0,1,1,26.46-8.23Z" transform="translate(-179.24 -39.05)"/><path class="cls-10" d="M647.21,419.46a20.35,20.35,0,0,1-1.73,8.23H608a20.35,20.35,0,0,1-1.73-8.23v-.17a20.47,20.47,0,0,1,40.93.17Z" transform="translate(-179.24 -39.05)"/></g><path class="cls-11" d="M677.64,419.52v51.19H470.17V389a201.6,201.6,0,0,1,20.28-5.12c11.73-2.52,41.23-8.48,73.05,2.85,30.73,10.94,28.44,25.48,55.92,34.25C646.37,429.55,664.26,420.58,677.64,419.52Z" transform="translate(-179.24 -39.05)"/><path class="cls-2" d="M649.48,316c-12.28-6.62-28.81-.55-33.28,11.67-3.54,9.68,1.4,20.72,9.34,26.28,9.82,6.87,25.31,6.12,32.7-4.09C666,339.1,661.41,322.45,649.48,316Z" transform="translate(-179.24 -39.05)"/><path class="cls-3" d="M669.61,480.72a5.25,5.25,0,0,0-4.36-4.36,5.52,5.52,0,0,0-4.51,2l-.62.59-.63-.59a5.52,5.52,0,0,0-4.51-2,5.23,5.23,0,0,0-4.35,4.36c-.48,3.1,2.66,5.66,4.66,7.31a17.77,17.77,0,0,0,4.83,2.8,17.74,17.74,0,0,0,4.82-2.8C667,486.38,670.08,483.82,669.61,480.72Z" transform="translate(-179.24 -39.05)"/><path class="cls-11" d="M635.91,477.09H619.46a1.54,1.54,0,0,0-1.55,1.54v8.59a1.54,1.54,0,0,0,1.55,1.55h14a2.86,2.86,0,0,0,.66.69l1.66,1.17a1,1,0,0,0,1.63-.83V478.63A1.55,1.55,0,0,0,635.91,477.09Z" transform="translate(-179.24 -39.05)"/><path class="cls-8" d="M706.39,320.61H878.9a7.36,7.36,0,0,0,7.36-7.36h0a7.37,7.37,0,0,0-7.36-7.36H706.39a7.36,7.36,0,0,0-7.36,7.36h0A7.35,7.35,0,0,0,706.39,320.61Z" transform="translate(-179.24 -39.05)"/><path class="cls-8" d="M706.39,343.84H878.9a7.36,7.36,0,0,0,7.36-7.36h0a7.36,7.36,0,0,0-7.36-7.36H706.39a7.35,7.35,0,0,0-7.36,7.36h0A7.35,7.35,0,0,0,706.39,343.84Z" transform="translate(-179.24 -39.05)"/><path class="cls-8" d="M706.39,367.07H878.9a7.36,7.36,0,0,0,7.36-7.36h0a7.36,7.36,0,0,0-7.36-7.36H706.39a7.35,7.35,0,0,0-7.36,7.36h0A7.35,7.35,0,0,0,706.39,367.07Z" transform="translate(-179.24 -39.05)"/><path class="cls-8" d="M706.39,390.3H878.9a7.37,7.37,0,0,0,7.36-7.36h0a7.36,7.36,0,0,0-7.36-7.36H706.39a7.35,7.35,0,0,0-7.36,7.36h0A7.36,7.36,0,0,0,706.39,390.3Z" transform="translate(-179.24 -39.05)"/><path class="cls-8" d="M706.39,413.53H878.9a7.37,7.37,0,0,0,7.36-7.36h0a7.37,7.37,0,0,0-7.36-7.37H706.39a7.36,7.36,0,0,0-7.36,7.37h0A7.36,7.36,0,0,0,706.39,413.53Z" transform="translate(-179.24 -39.05)"/><path class="cls-8" d="M706.39,436.76H878.9a7.37,7.37,0,0,0,7.36-7.36h0A7.37,7.37,0,0,0,878.9,422H706.39A7.36,7.36,0,0,0,699,429.4h0A7.36,7.36,0,0,0,706.39,436.76Z" transform="translate(-179.24 -39.05)"/><path class="cls-8" d="M706.39,460H878.9a7.37,7.37,0,0,0,7.36-7.37h0a7.37,7.37,0,0,0-7.36-7.36H706.39a7.36,7.36,0,0,0-7.36,7.36h0A7.36,7.36,0,0,0,706.39,460Z" transform="translate(-179.24 -39.05)"/><path class="cls-8" d="M706.39,483.22H878.9a7.37,7.37,0,0,0,7.36-7.37h0a7.37,7.37,0,0,0-7.36-7.36H706.39a7.36,7.36,0,0,0-7.36,7.36h0A7.36,7.36,0,0,0,706.39,483.22Z" transform="translate(-179.24 -39.05)"/><path class="cls-12" d="M594.13,493.05a13.61,13.61,0,0,0-1.46-6.16c-.45-.86-1.65-2.92-8.59-8.12-3.94-2.95-5.13-3.47-5-4,.38-1.23,7.23-1.15,12.9,1.84a21.2,21.2,0,0,1,7.87,7.35,14.22,14.22,0,0,1,2.32,5.13,13.37,13.37,0,0,1-.11,5.86Z" transform="translate(-179.24 -39.05)"/><path class="cls-13" d="M602.5,490.65c-1.79.44-2.69-5.92-9-9.8-2.14-1.31-4.13-1.86-7.74-2.86-6.15-1.71-10.05-1.57-10.53-3.46a2.84,2.84,0,0,1,.91-2.32c.8-.83,1.79-.76,4.67-.85,4.48-.15,4.43-.33,6.26-.18,2.19.18,3.29.27,4.45.89,1,.52,1.14.84,3.49,3.45,1,1.14,2.25,3.13,3.73,3.74a9.92,9.92,0,0,1,4.19,2.9C605.05,485.12,604,490.27,602.5,490.65Z" transform="translate(-179.24 -39.05)"/><path class="cls-13" d="M599.91,482l-.09-9.64,3.32.2L603,483.17Z" transform="translate(-179.24 -39.05)"/><path class="cls-12" d="M579.64,492.89a13.69,13.69,0,0,0-2.74-5.7c-.63-.75-2.24-2.5-10.13-6.09-4.48-2-5.75-2.3-5.7-2.87.11-1.28,6.82-2.67,13-1a21.29,21.29,0,0,1,9.26,5.5,14,14,0,0,1,3.36,4.51,13.36,13.36,0,0,1,1.15,5.75Z" transform="translate(-179.24 -39.05)"/><path class="cls-14" d="M587.3,488.76c-1.65.81-3.89-5.21-10.93-7.64-2.37-.82-4.44-.93-8.18-1.14-6.37-.35-10.15.62-11-1.12a2.81,2.81,0,0,1,.39-2.46c.61-1,1.59-1.13,4.38-1.83,4.35-1.1,4.26-1.28,6.07-1.52,2.18-.29,3.27-.44,4.54-.08,1.06.3,1.3.58,4.15,2.62,1.25.89,2.87,2.57,4.44,2.86a9.91,9.91,0,0,1,4.72,1.93C588.61,482.81,588.72,488.05,587.3,488.76Z" transform="translate(-179.24 -39.05)"/><path class="cls-14" d="M582.91,480.83c-.71-3.14-1.43-6.27-2.15-9.41l3.29-.51q1.08,5.22,2.15,10.43Z" transform="translate(-179.24 -39.05)"/><path class="cls-15" d="M688.21,538.26A142.3,142.3,0,0,0,647.27,535a144,144,0,0,0-59.59,17.51L575.76,562.7l108.94,3.4Z" transform="translate(-179.24 -39.05)"/><path class="cls-15" d="M592.88,491a516.92,516.92,0,0,0-9.2,52q-1.45,11.7-2.33,22.78l12.27,1.72A178,178,0,0,0,603.49,491Z" transform="translate(-179.24 -39.05)"/><path class="cls-16" d="M578.72,492.29A518.56,518.56,0,0,0,575.2,545q-.18,11.78.15,22.9l12.38.38a176.05,176.05,0,0,0,3.68-20.15,180.09,180.09,0,0,0-2.14-56.95Z" transform="translate(-179.24 -39.05)"/><path class="cls-16" d="M687.8,543.44a142.25,142.25,0,0,0-40.94-3.25,144,144,0,0,0-59.59,17.51l-11.92,10.18,108.94,3.4Z" transform="translate(-179.24 -39.05)"/><path class="cls-17" d="M781.74,569a8.24,8.24,0,0,1-6,2.3,9.45,9.45,0,0,1-3.83-.79l-12.46-6.35a7.14,7.14,0,0,1-2.85-3.54L748.32,538a20.94,20.94,0,0,1,4.85-2.87,25,25,0,0,1,8.58-1.86l7.39,20.16,10.45,8.65C782.9,563.55,783.86,566.64,781.74,569Z" transform="translate(-179.24 -39.05)"/><path class="cls-18" d="M761.75,533.26a25,25,0,0,0-8.58,1.86,20.94,20.94,0,0,0-4.85,2.87l-4.78-13a7.12,7.12,0,0,1,13.38-4.9Z" transform="translate(-179.24 -39.05)"/><path class="cls-5" d="M684,571.12q1-16.46,2-32.91c.94-3,7.09-21.19,25.33-28.44,12.19-4.84,32.83-6,40.88,6.73,6.9,10.89,1.07,26.44-6.24,34.82-5.67,6.49-12.31,8.76-24.35,12.72A148.4,148.4,0,0,1,684,571.12Z" transform="translate(-179.24 -39.05)"/><path class="cls-17" d="M737.84,518.81h-.26a4.56,4.56,0,0,1-4.3-4.82l1.59-28.21a4.56,4.56,0,1,1,9.11.52l-1.59,28.21A4.56,4.56,0,0,1,737.84,518.81Z" transform="translate(-179.24 -39.05)"/><path class="cls-17" d="M725.93,471.26a17.09,17.09,0,0,0-1.92,4.46c-3,9.09-1,17.08.2,21.57.65,2.45,1,3.7,1.91,5,3.49,4.85,10.31,5.06,11.83,5.06a15.67,15.67,0,0,0,8.74-2.38c7.81-5.2,7.1-17,6.91-20.3-.32-5.31-1.05-16.13-9.15-19.61C738,462.25,729.79,465.45,725.93,471.26Z" transform="translate(-179.24 -39.05)"/><path class="cls-14" d="M746.86,474.53a12.68,12.68,0,0,0-8.49.27,12,12,0,0,0-5.17,4.5,15.22,15.22,0,0,0-1.53,3.26c-1.64,4.39-2.45,6.59-2.64,8.61-.54,5.62,3.37,6.66,3.81,13.73.12,2,.15,7.14-1.44,7.58-2.82.79-12.36-12.86-12-28.1.09-4.33.41-17.21,10.21-22.83,8.11-4.66,17.57,0,23.42,2.76,3.28,1.56,5.1,3.05,6,5.23,1.49,3.81-.24,9-2.81,9.74S752.55,476,746.86,474.53Z" transform="translate(-179.24 -39.05)"/><path class="cls-17" d="M734.24,481c-2.08-1.12-5.6.67-6.14,3.43-.43,2.15,1,4.81,3.16,5.15,1.87.29,3.5-1.24,4.19-2.61C736.48,485,736,482,734.24,481Z" transform="translate(-179.24 -39.05)"/><path class="cls-17" d="M754.18,571.3c-.08,2.48-3,4.45-6.5,4.45h-.14l-51.47.88a6.58,6.58,0,0,1-4.92-2.41,6.51,6.51,0,0,1-1.33-5.31c1-5.16,2.09-10.37,3.31-15.47s2.64-10.47,4.15-15.67c1.39.17,3.05.43,5.06.86a53.19,53.19,0,0,1,7.6,2.2q-2.28,7.78-4.16,15.63c-.58,2.43-1.14,4.88-1.66,7.33l43.69,2.86C751.41,566.71,754.25,568.79,754.18,571.3Z" transform="translate(-179.24 -39.05)"/><path class="cls-14" d="M722.26,471.81c-2.74-.23-1.78,11.83-10.94,23.93-7.21,9.52-14.19,10.64-18.54,21.29-2,4.93-3,11.12-1.15,12.14,3.18,1.75,9.54-12.26,23.36-14.89,9.19-1.74,15,2.85,17.66-.47,2.21-2.74-.89-7.06-4.21-17.79C723.68,480.68,724.6,472,722.26,471.81Z" transform="translate(-179.24 -39.05)"/><path class="cls-19" d="M715.34,524.06q-2.93,8.3-5.4,16.77a53.19,53.19,0,0,0-7.6-2.2c-2-.43-3.67-.69-5.06-.86,1.77-6.07,3.71-12.1,5.8-18a6.5,6.5,0,1,1,12.26,4.32Z" transform="translate(-179.24 -39.05)"/><path class="cls-15" d="M721.35,572.91a4.2,4.2,0,0,0-2.55,2.88,4.06,4.06,0,0,0,2.25,4.35h62.32v-7.77Z" transform="translate(-179.24 -39.05)"/><path class="cls-16" d="M738.19,529c-1.4,1.19-1.49,3.27-1.36,5.74.41,7.77.4,15.54.41,23.31,0,3.62,0,7.23,0,10.85,0,1.47-.94,10.57,0,11.28.74.54,3.87,0,4.76,0l8,0q9.62,0,19.24,0,8.26,0,16.55.08c2.63,0,12.22,1.75,14.06-.52.61-.75.27-3.32.28-4.22.08-4.63-.14-9.28-.33-13.91-.09-2.23-.25-4.47-.26-6.7,0-8.38-.67-17,0-25.29a2.32,2.32,0,0,0-.14-1.31c-1.31-2.34-7.13-.88-9.28-.8-3.21.12-6.42.46-9.64.45-8.5,0-17.36-.08-26-.06-4.49,0-9.39-.46-13.84.15A4.88,4.88,0,0,0,738.19,529Z" transform="translate(-179.24 -39.05)"/><path class="cls-20" d="M764.05,549.94a5.62,5.62,0,0,0-1.16,6.49c1.42,2.7,5.14,3.49,7.81,2.16s4-4.48,3.16-6.82C772.62,548.47,766.87,547.31,764.05,549.94Z" transform="translate(-179.24 -39.05)"/><path class="cls-14" d="M860.51,169.69l-31,.76a93.07,93.07,0,0,1,1.11-51.93l22.5-9.34Z" transform="translate(-179.24 -39.05)"/><path class="cls-15" d="M826.17,204.77a16.32,16.32,0,0,0-2.64,15.2c3.94,10.77,21,14.3,31.39,8.92,1.35-.69,7.44-3.85,8.6-9.91,1.45-7.63-5.87-14.85-11.9-17.85C844.14,197.42,832.23,197,826.17,204.77Z" transform="translate(-179.24 -39.05)"/><path class="cls-5" d="M867.08,154.2a6.94,6.94,0,0,0-1.19-3.18c-.45-.6-2.31-2.82-11.35-3a56.7,56.7,0,0,0-10.19.74,56.64,56.64,0,0,0-10.19-.74c-9,.17-10.89,2.39-11.34,3a6.94,6.94,0,0,0-1.19,3.18c-.17,1.51-1.69,26.21,3.65,58.43,4.67-.3,14.4-1.71,19.07-2,5.1.32,15.86-.08,21,.24C869.91,178.59,867.25,155.7,867.08,154.2Z" transform="translate(-179.24 -39.05)"/><path class="cls-21" d="M842.9,156.64a4.88,4.88,0,0,1-4.88-4.88V134.33a4.88,4.88,0,1,1,9.76,0v17.43A4.89,4.89,0,0,1,842.9,156.64Z" transform="translate(-179.24 -39.05)"/><path class="cls-17" d="M837.92,102.05a19.39,19.39,0,0,0-11.5,8.71c-5.28,8.71-3.13,21.43,4.71,28.4,1.18,1,8.35,7.17,16.2,5.05,9.78-2.64,13.57-16.16,12.37-25.44-.32-2.52-1.38-10.73-8.36-15C845.66,100.32,839.58,101.62,837.92,102.05Z" transform="translate(-179.24 -39.05)"/><path class="cls-17" d="M819.31,175l-.45.95c-2.85,6-5.33,11-7.09,14.45l-7.53-2c-.1-1.53-.14-3.12-.1-4.75a52.76,52.76,0,0,1,2.49-14.59,55.61,55.61,0,0,0,4.92,2.72A36.67,36.67,0,0,0,819.31,175Z" transform="translate(-179.24 -39.05)"/><path class="cls-17" d="M803.44,188.61a4.63,4.63,0,0,0,2.81,5.07q2.34.93,4.77,1.85a221.7,221.7,0,0,0,27.45,8.33l1.34-2.89a98.35,98.35,0,0,0-35.64-16.55C803.93,185.81,803.69,187.21,803.44,188.61Z" transform="translate(-179.24 -39.05)"/><path class="cls-17" d="M838,202.06c-2.08,2.12-1.26,6.82,1,9.65,3,3.77,8.69,4.58,9.46,3.36.56-.86-1.15-3.14-3.19-5.88-1.49-2-2.07-2.32-2.51-3.7-.71-2.24.13-3.62-.74-4.33S839.1,200.94,838,202.06Z" transform="translate(-179.24 -39.05)"/><path class="cls-17" d="M840.08,202.8c1.32,2.26,4.4,4.45,6.57,3.53.28-.11.83-.34,1-.82.32-1.2-2.3-3-4.37-3.78-.27-.11-3-1.16-3.55-.39C839.45,201.71,839.81,202.35,840.08,202.8Z" transform="translate(-179.24 -39.05)"/><path class="cls-5" d="M819.3,175a36.8,36.8,0,0,1-7.75-3.19,53.16,53.16,0,0,1-4.92-2.72c.51-1.62,1.08-3.23,1.71-4.81a73.74,73.74,0,0,1,3.66-7.86c1.09-2,1.87-4.43,3.87-5.75l.06,0c2-1.23,4.82-.9,6.94-.37a5.68,5.68,0,0,1,3.26,1.91C827.81,154.43,827.22,158.16,819.3,175Z" transform="translate(-179.24 -39.05)"/><path class="cls-17" d="M868.4,171.88l.47.94c3,6,5.51,10.91,7.32,14.34l7.49-2.1c.08-1.54.09-3.12,0-4.75A53,53,0,0,0,881,165.76a53.42,53.42,0,0,1-4.87,2.8A37.06,37.06,0,0,1,868.4,171.88Z" transform="translate(-179.24 -39.05)"/><path class="cls-17" d="M884.49,185.19a4.63,4.63,0,0,1-2.73,5.12q-2.32,1-4.73,1.93A224.92,224.92,0,0,1,849.71,201l-1.39-2.87A97.86,97.86,0,0,1,883.69,181C884,182.41,884.22,183.8,884.49,185.19Z" transform="translate(-179.24 -39.05)"/><path class="cls-17" d="M850.15,199.21c2.12,2.09,1.37,6.79-.82,9.67-2.91,3.81-8.61,4.71-9.41,3.51-.56-.85,1.11-3.17,3.1-5.93,1.46-2,2-2.36,2.45-3.74.67-2.26-.19-3.62.67-4.34S849,198.11,850.15,199.21Z" transform="translate(-179.24 -39.05)"/><path class="cls-17" d="M848.09,200c-1.29,2.28-4.33,4.52-6.52,3.63-.28-.11-.83-.33-1-.8-.34-1.2,2.25-3,4.31-3.86.27-.11,3-1.21,3.54-.44C848.7,198.88,848.35,199.52,848.09,200Z" transform="translate(-179.24 -39.05)"/><path class="cls-5" d="M868.4,171.88a37.06,37.06,0,0,0,7.71-3.32,53.42,53.42,0,0,0,4.87-2.8c-.53-1.61-1.13-3.21-1.79-4.78a71,71,0,0,0-3.79-7.8c-1.12-2-1.94-4.4-4-5.68l-.06-.05c-2-1.2-4.83-.82-7-.25a5.71,5.71,0,0,0-3.22,2C859.56,151.42,860.21,155.14,868.4,171.88Z" transform="translate(-179.24 -39.05)"/><polygon class="cls-22" points="638.76 146.05 640.84 181.58 692.34 182.69 692.34 145.67 638.76 146.05"/><path class="cls-14" d="M796.46,238.25c-.65,1.25-2.38.65-5.38,1.71-3.63,1.29-4.45,3.37-5.84,2.82s-1.7-3.55-1.8-5-.16-2.58.56-3.12c.92-.69,2,.52,4.46.84,3.69.48,5.45-1.77,7.07-.6A2.94,2.94,0,0,1,796.46,238.25Z" transform="translate(-179.24 -39.05)"/><path class="cls-15" d="M905.81,202.9c-.14,3.84-3.41,7.66-5.46,10.63A38.85,38.85,0,0,1,888.58,225a74.28,74.28,0,0,1-24.67,9.43c-1.66.31-17.53,3.14-18.36,1.3l-3.48-7.8A191.56,191.56,0,0,1,876.55,202c5.39-3.17,10.64-5.89,15.65-8.23,4.33-2,10.38,1.76,12.62,5.39A6.38,6.38,0,0,1,905.81,202.9Z" transform="translate(-179.24 -39.05)"/><path class="cls-15" d="M845.87,236a99,99,0,0,1-22.23,4.38c-11.95,1-21.93.38-29.16-1.19-.2-1.21-.52-3.36-.72-4.57a159.86,159.86,0,0,1,52.11-6.73Z" transform="translate(-179.24 -39.05)"/><path class="cls-14" d="M894.88,234.13c.74,1.2,2.42.48,5.49,1.34,3.71,1,4.68,3,6,2.39s1.45-3.66,1.44-5.14,0-2.57-.78-3.06c-1-.63-2,.66-4.39,1.14-3.65.75-5.55-1.37-7.09-.09A2.93,2.93,0,0,0,894.88,234.13Z" transform="translate(-179.24 -39.05)"/><path class="cls-16" d="M787,205.88a7.39,7.39,0,0,0,.44,7.37c2.34,3.56,4.82,7.39,9.47,10.67,20.59,14.56,43.68,12.72,51.51,11.74l2.81-8.07a191.46,191.46,0,0,0-36.54-22.83c-5.52-2.63-10.7-5.31-15.69-7.47a7.45,7.45,0,0,0-9.74,3.72C788.53,202.64,787.83,204.27,787,205.88Z" transform="translate(-179.24 -39.05)"/><path class="cls-16" d="M844.89,235.34a99.54,99.54,0,0,0,22.48,2.81c12,.12,21.87-1.18,29-3.25.11-1.22.34-3.39.45-4.61a156.09,156.09,0,0,0-30.37-3.87,153,153,0,0,0-22.1.84Z" transform="translate(-179.24 -39.05)"/><path class="cls-14" d="M852.26,107.29c-.59,4.75-6.91,3.19-13.47,11.24-7.31,9-8.81,22.42-8.91,23.49-1.34,13.15,3.29,21.16.08,25.45-1.83,2.45-5.2,2.3-7.51.95-8.29-4.85-12-33.33-4.34-53.19,4.14-10.68,13.25-23.18,22.77-21.19C847,95.31,852.87,102.52,852.26,107.29Z" transform="translate(-179.24 -39.05)"/><path class="cls-14" d="M832.08,107.3c.84,4.25,8.22.52,14.4,7.41,7.56,8.43,7.72,26.54,7.76,30.22.1,11.89-2.75,18.79.15,22.55,1.86,2.41,5.19,2.3,7.51.94,8.29-4.85,12-33.32,4.34-53.19C862.1,104.55,853,92.06,843.47,94,837.09,95.37,831.29,103.25,832.08,107.3Z" transform="translate(-179.24 -39.05)"/><path class="cls-2" d="M844.5,199a3.58,3.58,0,1,0,4,3A3.76,3.76,0,0,0,844.5,199Z" transform="translate(-179.24 -39.05)"/><path class="cls-14" d="M837.41,93.87c-1.84-3.68-6-5.66-9.66-5.94-5.63-.45-11.18,3-12.87,8-2.66,7.89,5.14,17.12,12.13,16.83C834.57,112.49,841,101.06,837.41,93.87Z" transform="translate(-179.24 -39.05)"/><path class="cls-14" d="M864.23,92.26c-1.84-3.68-6-5.66-9.66-5.94-5.63-.45-11.18,3-12.87,8-2.66,7.89,5.14,17.12,12.13,16.84C861.39,110.88,867.83,99.45,864.23,92.26Z" transform="translate(-179.24 -39.05)"/><path class="cls-23" d="M281,65.9c-9.16,12.1,2.6,23.09-2.31,61.3-3.66,28.5-10.15,34.42-5,43.17,7.5,12.76,24.82,7.42,81.52,14.55,34.33,4.32,43.79,8.27,52.08,1,9.09-7.94,4.29-18.41,8.63-54.15,4.76-39.13,12.7-44.62,6.72-55.47-8.93-16.21-34.16-17.6-74.51-19.83C310.27,54.4,290.57,53.31,281,65.9Z" transform="translate(-179.24 -39.05)"/><path class="cls-23" d="M398.93,160.54c10-3.71,23.67,12.1,28.14,17.25A71.42,71.42,0,0,1,435.55,190c-5.91-2.32-12.4-4.58-19.44-6.64a229.89,229.89,0,0,0-26.57-6.07C390.14,173.36,392.19,163,398.93,160.54Z" transform="translate(-179.24 -39.05)"/><path class="cls-14" d="M307,107.34c-4.84,2.41-8.13,8.41-6.13,13.81,2.22,6,9.89,8.43,15.42,5.82,6.35-3,8.58-12,4.5-17.18C317.65,105.83,311.51,105.09,307,107.34Z" transform="translate(-179.24 -39.05)"/><path class="cls-14" d="M344.25,109.55c-4.84,2.41-8.12,8.41-6.12,13.81,2.22,6,9.88,8.44,15.42,5.82,6.34-3,8.58-12,4.5-17.17C354.91,108,348.77,107.3,344.25,109.55Z" transform="translate(-179.24 -39.05)"/><path class="cls-14" d="M381.1,114.71c-4.84,2.41-8.12,8.41-6.12,13.81,2.22,6,9.88,8.44,15.42,5.83,6.34-3,8.58-12,4.5-17.18C391.76,113.21,385.62,112.46,381.1,114.71Z" transform="translate(-179.24 -39.05)"/><path class="cls-1" d="M1065.47,55.11c10,11.39-.86,23.22,6.88,61,5.77,28.15,12.68,33.57,8.2,42.68-6.53,13.28-24.2,9.25-80.21,20.58-33.91,6.86-43.05,11.51-51.87,4.91-9.65-7.24-5.64-18-12.63-53.36-7.66-38.67-16-43.54-10.84-54.81,7.7-16.83,32.76-20.1,72.83-25.33C1035.47,45.82,1055,43.27,1065.47,55.11Z" transform="translate(-179.24 -39.05)"/><path class="cls-1" d="M955,158.27c-10.22-3-22.7,13.83-26.77,19.31a70.54,70.54,0,0,0-7.55,12.75c5.72-2.76,12-5.5,18.88-8.07a229.06,229.06,0,0,1,26.05-8C964.68,170.4,961.87,160.27,955,158.27Z" transform="translate(-179.24 -39.05)"/><path class="cls-24" d="M1042.69,98.37c5,2,8.73,7.78,7.13,13.31-1.76,6.13-9.22,9.15-14.94,7-6.55-2.51-9.45-11.35-5.77-16.79C1031.94,97.66,1038,96.46,1042.69,98.37Z" transform="translate(-179.24 -39.05)"/><path class="cls-24" d="M1005.69,103.35c5,2.05,8.73,7.78,7.14,13.32-1.77,6.12-9.23,9.15-15,7-6.55-2.51-9.45-11.35-5.76-16.79C995,102.64,1001,101.45,1005.69,103.35Z" transform="translate(-179.24 -39.05)"/><path class="cls-24" d="M969.32,111.25c5,2,8.74,7.77,7.14,13.31-1.77,6.12-9.23,9.15-14.94,7-6.55-2.52-9.45-11.36-5.77-16.8C958.58,110.54,964.65,109.34,969.32,111.25Z" transform="translate(-179.24 -39.05)"/><path class="cls-4" d="M715.81,42.66c13,8.39,5.59,23,23.66,57.92,13.47,26,21.76,29.41,19.89,39.6-2.73,14.84-21.18,15.79-73,42.45-31.37,16.14-39.05,23.24-49.54,19.2-11.48-4.42-10.54-16.13-27.2-48.85-18.24-35.82-27.77-38.29-25.84-50.78,2.88-18.65,26.57-28.81,64.44-45.06C683.79,41.87,702.28,33.94,715.81,42.66Z" transform="translate(-179.24 -39.05)"/><path class="cls-4" d="M636,174.56c-10.84-.07-18.43,19.86-20.91,26.37a72.13,72.13,0,0,0-3.87,14.61c4.85-4.29,10.27-8.73,16.29-13.16a234.53,234.53,0,0,1,23.33-15.11C648.89,183.76,643.32,174.6,636,174.56Z" transform="translate(-179.24 -39.05)"/><path class="cls-24" d="M650.11,109.39A28.55,28.55,0,0,0,652,139.53c8.44,11.55,22.34,11.45,23.79,11.41,12-.29,24.85-8.31,28.05-22a28.81,28.81,0,0,0-13.45-31.06C676.35,89.73,657.5,95.91,650.11,109.39Z" transform="translate(-179.24 -39.05)"/><path class="cls-2" d="M658.91,122.5a2.1,2.1,0,1,0,3.72,1.92,2.29,2.29,0,0,0-1.32-3.16A2.21,2.21,0,0,0,658.91,122.5Z" transform="translate(-179.24 -39.05)"/><path class="cls-2" d="M678,111.9a1.95,1.95,0,1,0,3.46,1.78,2.13,2.13,0,0,0-1.23-2.93A2.07,2.07,0,0,0,678,111.9Z" transform="translate(-179.24 -39.05)"/><path class="cls-2" d="M669.63,136.19a11.32,11.32,0,0,0,13.82,4.07c5.37-2.51,7.87-9.64,4.77-15.58Z" transform="translate(-179.24 -39.05)"/><path class="cls-25" d="M513.46,318.13c4.28,2.43,5.16,9.1,3.34,10.65-.4.35-12.11,2.34-15.19,3.3-2.07.65-2.7,1.08-3.39.67-1.36-.82-1.68-4.14-.24-5.7,2.12-2.31,6.95.52,8.42-1.49C507.72,323.75,510.86,316.65,513.46,318.13Z" transform="translate(-179.24 -39.05)"/><path class="cls-25" d="M457.54,320.75c2.18,4.41-.83,10.43-3.2,10.7-.53.06-11.34-4.85-14.43-5.78-2.08-.63-2.84-.63-3.18-1.35-.67-1.44.92-4.37,3-4.86,3-.72,5.47,4.33,7.81,3.49C449.64,322.19,456.21,318.07,457.54,320.75Z" transform="translate(-179.24 -39.05)"/><path class="cls-13" d="M459.36,323.52c1.32-3.16,3.25-7.93,5.35-13.84,6-16.95,9.58-26.88,9.82-39.73.17-8.84-1.42-8.28-1.4-20.53,0-13.94-.28-21.23,4.25-25.89,6.69-6.88,21.42-5.88,32.59-3.82l2.79-15.15c-6.58-2.37-18-5.27-31.12-2.19-5.15,1.22-11.51,2.71-16.7,8-5.36,5.43-7.12,12.48-8.17,27.09-1.29,17.82-.22,28.91,0,38.67a185.61,185.61,0,0,1-4.55,44.49Z" transform="translate(-179.24 -39.05)"/><path class="cls-17" d="M488.86,195.47a6.45,6.45,0,0,0,6.06,4.25A6.44,6.44,0,0,0,501,191.1c-1.75-4.83-5-16.67-1-29.45a39.65,39.65,0,0,1,1.65-4.37,42,42,0,0,1,10.28-14.13,6.45,6.45,0,0,0-8.68-9.53,55.18,55.18,0,0,0-12.56,16.69c-.28.57-.56,1.15-.81,1.74C481.54,170.69,486.39,188.62,488.86,195.47Z" transform="translate(-179.24 -39.05)"/><path class="cls-26" d="M490.63,150.31a13.68,13.68,0,0,1,3.73,2.18c3.62,2.92,4.72,6.45,5.58,9.16a39.65,39.65,0,0,1,1.65-4.37,42,42,0,0,1,10.28-14.13,6.45,6.45,0,0,0-8.68-9.53A55.18,55.18,0,0,0,490.63,150.31Z" transform="translate(-179.24 -39.05)"/><path class="cls-5" d="M541.1,137.21c3.09,4,3.81,8.67,3.08,22.69a313.66,313.66,0,0,1-5.36,43.53c-11.16-.45-42.41-2.23-46.87-2.68,2.82-17.19,4.75-31.38,6-41.52,2.07-16.42,2.38-21.93,7.29-26.15C514.45,125.19,533.44,127.22,541.1,137.21Z" transform="translate(-179.24 -39.05)"/><path class="cls-27" d="M522.85,141.59a6.44,6.44,0,0,0,6.44-6.44V108.4a6.44,6.44,0,1,0-12.88,0v26.75A6.44,6.44,0,0,0,522.85,141.59Z" transform="translate(-179.24 -39.05)"/><path class="cls-14" d="M538.82,203.43c.39,3.13,2,18.44-7,25.37-5.68,4.39-14.28,4.4-21.26,4.4-9.91,0-13.72-2.36-16.13,0-4.3,4.22,2.3,17.36,5.14,23.46,6.28,13.48,13.42,33.78,16.3,62.88l-8.61,2.35c-1.46-2.92-26.31-53.05-28-56.62-6.8-14.09-20.95-43.46-10.45-55.53,5.26-6,15.19-8.2,20.89-9.34a54.79,54.79,0,0,1,21.31,0Z" transform="translate(-179.24 -39.05)"/><path class="cls-17" d="M499.23,112.47a15.43,15.43,0,0,0,2.83,8c5.29,7.46,15.46,6.88,16.23,6.82,1.77-.13,6.27-.45,9.37-3.78a10.41,10.41,0,0,0,1.63-2.32c3.52-6.51,3.51-14.59,3.51-14.59,0-12.44-.11-20.42-6.14-24.37-5.18-3.39-13.08-2.17-17.95,1.52-3.89,2.94-5.14,6.93-6.61,11.89C500.68,100.4,498.8,106.74,499.23,112.47Z" transform="translate(-179.24 -39.05)"/><path class="cls-14" d="M526.55,95.13c1.79,4.16.84,9.05,3.22,10a7,7,0,0,0,.83.23l.26.12c.39.19.42,5.07.08,11.71,1.54-2.17,8.17-12,5.44-23.87-.7-3-2.28-9.59-7.68-12.88-7.08-4.32-18.13-1.74-21-.83a10.19,10.19,0,0,1-4.46.66c-3.14-.3-4.12-2.09-5.52-1.56-1.95.72-3,5.25-1.24,8.42a7.67,7.67,0,0,0,4.7,3.47c2.18.58,3.75,0,6.69-.75,7.05-1.82,10.54-2.82,12.39-2C523.87,89.51,525.86,93.5,526.55,95.13Z" transform="translate(-179.24 -39.05)"/><path class="cls-14" d="M499.23,112.47a16,16,0,0,0,2.83,8c6.37,9,20.54,7.34,23.48,5a9.65,9.65,0,0,0,2.11-2.41,10.12,10.12,0,0,0,1-3,22.14,22.14,0,0,0,.68-7.38c-.21-2.6-.64-5.29.14-7.83.67-2.18,1.54-4.26.69-6.53-.2-.55-.74-2-1.48-2-1.55,0-4,6-3.47,12,.33,4.18,1.85,5.65.74,7.43-1.66,2.67-6.87,2.22-8.17,2.11-4.29-.38-5.2-2.11-10.93-3.8C504.13,113.22,501.22,112.36,499.23,112.47Z" transform="translate(-179.24 -39.05)"/><path class="cls-17" d="M529.73,101.23a3.08,3.08,0,0,1,2.6-.5c2.14.83,2.82,5.41,1,6.69a3.57,3.57,0,0,1-4.71-1.36A3.71,3.71,0,0,1,529.73,101.23Z" transform="translate(-179.24 -39.05)"/><path class="cls-17" d="M493.06,197.36a6.44,6.44,0,0,0,6.25,4.92,6.66,6.66,0,0,0,1.53-.18,168.1,168.1,0,0,0,26.28-8.76l.37-.16c7.17-3.07,11.12-4.75,14.52-8.13,5-5,8-12.08,8.73-20.26a11.79,11.79,0,0,0-6.09-3.14,11.36,11.36,0,0,0-6.64,1c-.32,5.58-2,10.23-5.09,13.27-1.64,1.64-4.79,3-10.49,5.42l-.38.17a154.68,154.68,0,0,1-24.25,8.08A6.44,6.44,0,0,0,493.06,197.36Z" transform="translate(-179.24 -39.05)"/><path class="cls-20" d="M518.76,198.86a3.45,3.45,0,0,1,2.07,2.34,3.3,3.3,0,0,1-1.84,3.53H468.4v-6.31Z" transform="translate(-179.24 -39.05)"/><path class="cls-25" d="M505.08,163.18c1.14,1,1.21,2.65,1.1,4.66-.33,6.3-.32,12.62-.33,18.93,0,2.93,0,5.87,0,8.8,0,1.2.76,8.58,0,9.16-.6.44-3.15,0-3.87,0h-6.49c-5.21,0-10.41,0-15.62,0-4.48,0-9,0-13.44.07-2.14,0-9.92,1.42-11.41-.43-.5-.61-.22-2.69-.24-3.42-.05-3.76.12-7.54.28-11.3.07-1.81.2-3.62.21-5.44,0-6.8.54-13.76,0-20.53a1.9,1.9,0,0,1,.12-1.06c1.06-1.9,5.79-.71,7.53-.65,2.61.1,5.21.37,7.83.36,6.9,0,14.1-.06,21.11,0,3.65,0,7.62-.38,11.23.12A3.83,3.83,0,0,1,505.08,163.18Z" transform="translate(-179.24 -39.05)"/><path class="cls-20" d="M483.65,178.24a4.58,4.58,0,0,1,.94,5.27c-1.15,2.2-4.17,2.84-6.34,1.76s-3.29-3.64-2.57-5.54C476.7,177.05,481.36,176.11,483.65,178.24Z" transform="translate(-179.24 -39.05)"/><path class="cls-25" d="M534.51,143.15a48.18,48.18,0,0,1,3.5,19.49,11.36,11.36,0,0,1,6.64-1,11.79,11.79,0,0,1,6.09,3.14c.72-8-.65-17-4.2-26.25a6.44,6.44,0,0,0-12,4.61Z" transform="translate(-179.24 -39.05)"/></svg>