<svg id="Слой_1" data-name="Слой 1" xmlns="http://www.w3.org/2000/svg" viewBox="0 0 989.4 678.76"><defs><style>.cls-1,.cls-37,.cls-5{opacity:0.3;}.cls-2,.cls-37{fill:#fff;}.cls-3,.cls-46{fill:#000200;}.cls-3{opacity:0.1;}.cls-4{fill:#e4e4e4;}.cls-5{fill:#bdccd4;}.cls-6{fill:#6e9449;}.cls-7{fill:#56733d;}.cls-8{fill:#89bc4f;}.cls-9{fill:#72994a;}.cls-10{fill:#c48f35;}.cls-11{fill:#e8ad30;}.cls-12{fill:#94c159;}.cls-13{fill:#855d2d;}.cls-14{fill:#292929;}.cls-15{fill:#414141;}.cls-16{fill:#7b8ec6;}.cls-17{fill:#293863;}.cls-18{fill:#66351d;}.cls-19{fill:#763e23;}.cls-20{fill:#61381d;}.cls-21{fill:#ecdfcd;}.cls-22{fill:#752870;}.cls-23{fill:#1c1c1c;}.cls-24{fill:#6d1e1d;}.cls-25{fill:#5393aa;}.cls-26{fill:#6f4924;}.cls-27{fill:#589bb5;}.cls-28{fill:#5391a9;}.cls-29{fill:#f8f1cb;opacity:0.8;}.cls-30{fill:#182540;}.cls-31{fill:#000300;}.cls-32{fill:#e8eaf0;}.cls-33{fill:#d3d9e6;}.cls-34{fill:#c5ccda;}.cls-35{fill:#353535;}.cls-36{fill:#d2d2d2;}.cls-38{fill:#222;}.cls-39{fill:#2f4562;}.cls-40{fill:#efe4cd;}.cls-41{fill:#dbcbba;}.cls-42{fill:#3c3c3c;}.cls-43{fill:#dc8638;}.cls-44{fill:#e3e8f0;}.cls-45{fill:#fdf8ee;}.cls-46,.cls-52{opacity:0.05;}.cls-47{fill:#b95456;}.cls-48{fill:#d25f61;}.cls-49{fill:#8f4142;}.cls-50{fill:#3b4898;}.cls-51{fill:#f2cc47;}.cls-52,.cls-54{fill:#0c0d0d;}.cls-53{fill:#e5bd39;}.cls-54{opacity:0.2;}.cls-55{fill:#f6e35d;}.cls-56{fill:#8395ca;}.cls-57{fill:#e1995f;}</style></defs><title>service-reputition</title><g class="cls-1"><path class="cls-2" d="M1090.79,717.9q.39-5.31.65-10.65.46-9.75.47-19.51a407.78,407.78,0,0,0-8.22-81.53,402.74,402.74,0,0,0-60.87-144.66A405.73,405.73,0,0,0,844.83,315a402.84,402.84,0,0,0-75.94-23.57,408.44,408.44,0,0,0-163.06,0,402.12,402.12,0,0,0-144.65,60.87,405.73,405.73,0,0,0-146.57,178A401.66,401.66,0,0,0,291,606.21a407,407,0,0,0-8.22,81.53q0,9.81.47,19.6.24,5.25.63,10.48l1.84.13q-.4-5.36-.66-10.74-.47-9.68-.47-19.47C284.63,465.67,465.3,285,687.36,285s402.73,180.66,402.73,402.73q0,9.74-.46,19.38c-.17,3.65-.4,7.29-.67,10.92Z" transform="translate(-174.6 -51.6)"/></g><g class="cls-1"><path class="cls-2" d="M1044.61,614.27a362.95,362.95,0,0,0-54.88-130.43,365.75,365.75,0,0,0-160.42-132.1,363,363,0,0,0-68.48-21.25,367.93,367.93,0,0,0-146.94,0,362.48,362.48,0,0,0-130.43,54.88A365.58,365.58,0,0,0,351.37,545.79a362.63,362.63,0,0,0-21.26,68.48,367.64,367.64,0,0,0-7.41,73.47q0,8.64.41,17.28.36,7.58,1,15.12c12.53.58,26.46,1.13,41.64,1.65q-1-9.13-1.41-18.42-.37-7.77-.37-15.63c0-178.31,145.06-323.38,323.37-323.38s323.37,145.07,323.37,323.38q0,7.83-.37,15.59-.43,9.31-1.41,18.5c15.16-.51,29.09-1.06,41.64-1.63q.66-7.61,1-15.24.41-8.61.4-17.22A366.9,366.9,0,0,0,1044.61,614.27Z" transform="translate(-174.6 -51.6)"/></g><ellipse class="cls-3" cx="532.46" cy="661.26" rx="456.94" ry="17.5"/><path class="cls-2" d="M1125.78,712.55c0,.94-3,1.86-8.8,2.74-5.94.91-14.77,1.78-26.19,2.61L1089,718c-10.71.75-23.59,1.48-38.37,2.16-12.55.57-26.48,1.12-41.64,1.63-80,2.68-194.19,4.36-321,4.36-127.44,0-242.17-1.7-322.18-4.4-15.18-.52-29.11-1.07-41.64-1.65-14.84-.69-27.71-1.42-38.37-2.19l-1.84-.13-3.56-.28c-19.53-1.54-30.25-3.22-30.25-5s10.79-3.45,30.43-5l2.75-.21,1.81-.13c10.55-.77,23.3-1.51,38-2.19,12.41-.58,26.21-1.13,41.25-1.65,80.08-2.73,195.4-4.45,323.59-4.45,127.56,0,242.39,1.7,322.41,4.41,15,.51,28.83,1,41.26,1.63,14.66.68,27.41,1.4,38,2.16l1.81.13c11,.82,19.61,1.67,25.43,2.55S1125.78,711.61,1125.78,712.55Z" transform="translate(-174.6 -51.6)"/><rect class="cls-2" x="75.51" y="640.99" width="875.67" height="19.96"/><path class="cls-4" d="M1125.78,692.59c0,.94-3,1.85-8.81,2.74-40.65,6.22-217.29,10.9-429,10.9-185.26,0-343.64-3.59-407.59-8.65-19.53-1.54-30.25-3.22-30.25-5s10.79-3.45,30.43-5C344.61,682.54,502.87,679,688,679c211.56,0,388.07,4.67,428.92,10.88C1122.72,690.73,1125.78,691.65,1125.78,692.59Z" transform="translate(-174.6 -51.6)"/><path class="cls-5" d="M270.8,180.58A17.87,17.87,0,0,0,243.46,168a24.76,24.76,0,0,0-42.72-2.67,12.26,12.26,0,0,0-1.93-.15,12,12,0,0,0-12,12,12.41,12.41,0,0,0,.27,2.53,14.73,14.73,0,0,0-12.52,14.52h0a14.72,14.72,0,0,0,14.68,14.68h75.91a14.72,14.72,0,0,0,14.68-14.68h0A14.74,14.74,0,0,0,270.8,180.58Z" transform="translate(-174.6 -51.6)"/><path class="cls-5" d="M1072.69,194.22h-.78c0-.17,0-.35,0-.52a30.84,30.84,0,0,0-58.05-14.5,16.57,16.57,0,0,0-21.62,7.13A16.51,16.51,0,1,0,978,216.06a17,17,0,0,0,16.74,14.74h77.93a16.93,16.93,0,0,0,16.88-16.88V211.1A16.93,16.93,0,0,0,1072.69,194.22Z" transform="translate(-174.6 -51.6)"/><path class="cls-5" d="M742.71,100.15H617.57a17.3,17.3,0,0,1,23.3-24,17.37,17.37,0,0,1,22.65-7.47,32.3,32.3,0,0,1,60.81,15.2v.54h.81A17.74,17.74,0,0,1,742.71,100.15Z" transform="translate(-174.6 -51.6)"/><path class="cls-6" d="M324.72,623.37c-2.37,1.23-10.63,10.53-11.53,3.09s4.66-5.56,4.66-5.56c8.17,2.21,14.14-6.69,14.14-6.69a15.32,15.32,0,0,0-1.46-5.86c-.06-.16-.13-.32-.2-.47a60.91,60.91,0,0,0-4.8-8.63c-3.35,6.29-17.57,17.41-18.95,14.06s2.37-4.5,2.37-4.5c13.23-2.78,13.72-12.5,13.72-12.5a6.85,6.85,0,0,0-1.37-2l-.33-.37c-3.51-3.63-10.64-7.46-10.64-7.46a15.37,15.37,0,0,1-5.55,10.94c-8.74.49-4.09-5-4.09-5A8.12,8.12,0,0,0,306.9,584a4.54,4.54,0,0,1-1.91-.67l-.4-.23a57.75,57.75,0,0,1-7.25-5.55c-.32,2.9-3.65,3.89-3.75,3.92.9-.5,1.3-4.9,1.3-4.9A6.08,6.08,0,0,1,294,576l-.39-.28a74.54,74.54,0,0,1-6.77-6.39c-.47-.49-.75-.8-.75-.8a1.73,1.73,0,0,1,.05.42,4.06,4.06,0,0,1-.13.89c-.53,2.08-2.54,5.53-4.12,8l-.27.43c-1,1.55-1.74,2.64-1.74,2.64,2.53,6.37,13.32,4.33,8.74,9.86s-11.11-6.26-11.11-6.26c.12.72-.62,2.18-1.71,3.85l-.28.44c-.8,1.18-1.75,2.45-2.66,3.63l-.3.38c-1.79,2.29-3.39,4.11-3.39,4.11s.82,6.79,10.46,9.07,8.26,4.17,8.26,4.17c-9.48,4.09-19.45-10.62-19.45-10.62a28.83,28.83,0,0,0-4.81,7.79c-.07.15-.14.31-.2.47a61.37,61.37,0,0,0-3.49,11.23c9.07,12.47,14.14,6.08,18.55,6.08s6.62,1.31,6.62,2.54S284,633,275.45,633s-16.26-8.74-16.26-8.74A85.1,85.1,0,0,0,262,636.54c0,.18.11.35.16.52,10.34,32,33.31,10.21,36.28,7.21l.32-.32a5.17,5.17,0,0,0,.15.71h0a5.71,5.71,0,0,0,.42,1.12h0a6.74,6.74,0,0,0,3.19,3.15c8.52,4.17,28.84-1.47,27.94-11.54a26.73,26.73,0,0,1,.08-5.31l.06-.52A32.62,32.62,0,0,1,335,619.07S327.08,622.13,324.72,623.37Zm-15.37,3.15c-.4.77-1.82.81-3.17.1s-2.13-1.9-1.73-2.67,1.82-.8,3.18-.09S309.75,625.76,309.35,626.52ZM293.17,625c-2,1-4.06.8-4.66-.41s.52-3,2.5-4,4.06-.8,4.65.4S295.15,624.05,293.17,625Zm-1.87-14.81c-.07-.79,1.23-1.55,2.89-1.69s3.08.37,3.15,1.16-1.22,1.55-2.89,1.69S291.37,611,291.3,610.22Zm18.49-16c.63-1.55,1.74-2.56,2.48-2.26s.82,1.8.19,3.35-1.75,2.56-2.48,2.26S309.16,595.78,309.79,594.23Zm-23.33,49.7c-3.12,1.28-6,1.35-6.53.16s1.65-3.19,4.77-4.47,6.05-1.35,6.53-.16S289.59,642.65,286.46,643.93ZM312.4,638c-.3,1.31-2,2-3.72,1.64s-2.93-1.8-2.63-3.11,2-2,3.72-1.64S312.7,636.7,312.4,638Z" transform="translate(-174.6 -51.6)"/><g class="cls-1"><path class="cls-2" d="M330.57,631.56l-.06.52c-9.24,2.31-16.24,2-20.87,1.15a26.83,26.83,0,0,1-9.4-3.38l-.43-.29-.55.49a30.48,30.48,0,0,1-11.87,6.13,51.15,51.15,0,0,1-13.56,1.76h-.46a74.84,74.84,0,0,1-11.24-.88c-.05-.17-.11-.34-.16-.52a74.37,74.37,0,0,0,11.87.92c7.61-.06,18.16-1.51,25.46-8.09l.32-.3.15-.14.17.13a3.77,3.77,0,0,0,.33.23,26,26,0,0,0,9.49,3.47C314.37,633.6,321.35,633.89,330.57,631.56Z" transform="translate(-174.6 -51.6)"/></g><g class="cls-1"><path class="cls-2" d="M330.53,608.35a52,52,0,0,1-7.74,5.12,34.75,34.75,0,0,1-12,3.92,22.17,22.17,0,0,1-10.27-.93l-.51-.21-.46.16a36.65,36.65,0,0,1-11.27,1.84,31.91,31.91,0,0,1-4.89-.37,35.28,35.28,0,0,1-12.65-4.53,41.41,41.41,0,0,1-7.37-5.51c.06-.16.13-.32.2-.47a41.32,41.32,0,0,0,7.43,5.57,34.13,34.13,0,0,0,28.54,3l.41-.14.09,0,.1,0a1.94,1.94,0,0,0,.37.16,21.55,21.55,0,0,0,10.26,1c4.73-.58,11.56-2.7,19.52-9C330.4,608,330.47,608.19,330.53,608.35Z" transform="translate(-174.6 -51.6)"/></g><g class="cls-1"><path class="cls-2" d="M321.3,594.26a28.44,28.44,0,0,1-3.25,3.16,25.38,25.38,0,0,1-16.26,5.9,22,22,0,0,1-2.89-.18l-.6-.1h-.42c-10.35-.23-17.41-3.85-21.52-6.87a30,30,0,0,1-3.82-3.31l.3-.38a29.68,29.68,0,0,0,3.83,3.32c4,3,10.95,6.5,21.09,6.76h.62l.4.07a23.92,23.92,0,0,0,9.84-.75,25.82,25.82,0,0,0,12.35-8Z" transform="translate(-174.6 -51.6)"/></g><g class="cls-1"><path class="cls-2" d="M305,583.3a12.55,12.55,0,0,1-4.63,5.08,13.71,13.71,0,0,1-5.23,1.89l-.45,0a5.92,5.92,0,0,1-.41.45c-2.41,2.55-5,3.84-7.87,3.84l-.61,0c-4.17-.27-7.86-3.22-10.29-5.74l.28-.44c2.39,2.49,6,5.43,10,5.69,3,.2,5.75-1.1,8.27-3.85l.29-.32.07-.08h.1l.41-.05a13.34,13.34,0,0,0,5.17-1.84,11.93,11.93,0,0,0,4.46-4.88Z" transform="translate(-174.6 -51.6)"/></g><g class="cls-1"><path class="cls-2" d="M294,576a11,11,0,0,1-3.38,2.21l-.42.16a3.35,3.35,0,0,1-.45.27,6.49,6.49,0,0,1-3,.66,16.33,16.33,0,0,1-5.1-1l.27-.43c2.77.92,5.7,1.39,7.68.3a3,3,0,0,0,.38-.23l0,0h0s.16,0,.42-.16a10.59,10.59,0,0,0,2.78-1.68l.39-.36Z" transform="translate(-174.6 -51.6)"/></g><path class="cls-7" d="M300.27,629.29l0,.56c-.15,3.07-.35,6.15-.53,9.09-.15,2.33-.29,4.63-.41,6.84h0c-.42,7.72-.56,14.26.52,16.76l-.89.39c-1.23-2.87-1-10-.52-18.66.1-1.74.22-3.54.33-5.39.18-2.86.37-5.85.52-8.83l0-.68c.22-4.48.36-8.94.29-13,0-.17,0-.34,0-.51,0-1.06-.06-2.09-.12-3.08a59.13,59.13,0,0,0-1.58-9.79l-.12-.48c-.93-3.86-2.16-7.89-3.49-11.79l-.18-.52c-1.43-4.17-3-8.17-4.36-11.6l-.18-.46c-1.45-3.57-2.74-6.5-3.56-8.34a4.06,4.06,0,0,0,.13-.89,1.73,1.73,0,0,0-.05-.42s.28.31.75.8c.82,1.83,2.12,4.8,3.6,8.43l.18.45c1.39,3.43,2.93,7.42,4.36,11.58l.17.48c1.39,4.08,2.68,8.32,3.65,12.36l.12.51a59.68,59.68,0,0,1,1.53,9.63c.06,1,.1,2.07.12,3.16v.53C300.63,620.45,300.49,624.86,300.27,629.29Z" transform="translate(-174.6 -51.6)"/><path class="cls-8" d="M279.87,612.26A32.58,32.58,0,0,1,282,625.34l0,.52a27.07,27.07,0,0,1-.88,5.24c-2.68,9.75,16.32,18.92,25.44,16.34a6.73,6.73,0,0,0,3.7-2.53h0a6.51,6.51,0,0,0,.62-1h0a5.55,5.55,0,0,0,.27-.68l.25.38c2.39,3.48,21.11,29,37-.63l.26-.48a86.81,86.81,0,0,0,4.92-11.59s-9.11,7.23-17.56,5.7-8.75-5.74-8.54-6.94,2.63-2.1,7-1.31,8.19,8,19.33-2.68A60.89,60.89,0,0,0,352.33,614l-.12-.5a28.69,28.69,0,0,0-3.34-8.52s-12.43,12.7-21,7c0,0-1-2.1,8.86-2.63s11.91-7.06,11.91-7.06-1.24-2.09-2.6-4.65l-.23-.43c-.69-1.32-1.39-2.74-2-4l-.21-.48c-.77-1.83-1.24-3.4-1-4.1,0,0-8.53,10.44-12.05,4.19s6.73-2.33,10.36-8.15c0,0-.54-1.21-1.24-2.9l-.19-.48c-1.1-2.75-2.47-6.51-2.62-8.65a3.7,3.7,0,0,1,0-.9,1.57,1.57,0,0,1,.13-.4l-.89.66a74.94,74.94,0,0,1-7.8,5.08l-.43.2a5.24,5.24,0,0,1-1,.37s-.39,4.4.41,5.05c-.1,0-3.2-1.62-3-4.52a58.57,58.57,0,0,1-8.12,4.17l-.44.15a4.53,4.53,0,0,1-2,.32,8.12,8.12,0,0,0,4.61,9.39s3.61,6.22-4.91,4.18A15.38,15.38,0,0,1,310,584.53s-7.7,2.51-11.79,5.45l-.4.3a7.23,7.23,0,0,0-1.71,1.78s-1.26,9.66,11.27,14.75c0,0,3.5,1.8,1.53,4.84s-14-10.42-16.14-17.2a60.4,60.4,0,0,0-6.26,7.63l-.28.42a15.15,15.15,0,0,0-2.48,5.51s4.28,9.83,12.71,9.11c0,0,5.81-.86,3.6,6.3s-8.68-3.46-10.79-5.1S279.87,612.26,279.87,612.26ZM306,621.85c1.46-.46,2.85-.16,3.1.66s-.71,1.86-2.17,2.31-2.85.17-3.11-.66S304.5,622.31,306,621.85Zm12.26-.61c.81-1.08,2.89-.88,4.66.43s2.55,3.26,1.75,4.34-2.89.89-4.66-.43S317.42,622.32,318.22,621.24Zm2.93-9.31c-1.62-.45-2.75-1.43-2.54-2.19s1.69-1,3.3-.58,2.75,1.42,2.54,2.18S322.76,612.37,321.15,611.93Zm-12.82-16.36c-.78.17-1.69-1-2-2.66s0-3.1.78-3.27,1.69,1,2,2.67S309.11,595.41,308.33,595.57Zm11,44.55c.69-1.08,3.55-.49,6.4,1.33s4.59,4.16,3.9,5.25-3.56.49-6.4-1.33S318.62,641.21,319.31,640.12Zm-17.43-7.79c1.8-.08,3.31.94,3.37,2.28s-1.34,2.5-3.14,2.59-3.31-.94-3.37-2.28S300.08,632.42,301.88,632.33Z" transform="translate(-174.6 -51.6)"/><g class="cls-1"><path class="cls-2" d="M282,625.34l0,.52c8.68,3.92,15.62,4.86,20.33,4.85a26.65,26.65,0,0,0,9.85-1.65l.47-.2.46.57a30.42,30.42,0,0,0,10.58,8.16,51.78,51.78,0,0,0,13,4.14l.45.09A75.42,75.42,0,0,0,348.37,643l.26-.48a73.93,73.93,0,0,1-11.85-1.21c-7.48-1.41-17.6-4.73-23.61-12.5l-.27-.35-.12-.17-.18.1-.37.16a26,26,0,0,1-10,1.73C297.59,630.23,290.67,629.28,282,625.34Z" transform="translate(-174.6 -51.6)"/></g><g class="cls-1"><path class="cls-2" d="M286.19,602.5a50.12,50.12,0,0,0,6.7,6.42,34.29,34.29,0,0,0,11.07,6,22,22,0,0,0,10.27.92l.54-.11.42.23A36.49,36.49,0,0,0,326,619.77a33.24,33.24,0,0,0,4.88.52,35.53,35.53,0,0,0,13.25-2.21,41.72,41.72,0,0,0,8.24-4.11l-.12-.5a41.7,41.7,0,0,1-8.3,4.16,34.08,34.08,0,0,1-28.61-2.18l-.38-.2-.09,0-.1,0-.4.09a21.58,21.58,0,0,1-10.27-.87c-4.55-1.41-10.89-4.72-17.59-12.36Z" transform="translate(-174.6 -51.6)"/></g><g class="cls-1"><path class="cls-2" d="M297.78,590.28a29.6,29.6,0,0,0,2.63,3.7,25.6,25.6,0,0,0,8.3,6.51,25.12,25.12,0,0,0,6.66,2.19,22.52,22.52,0,0,0,2.87.34h.61l.41.07c10.23,1.61,17.82-.69,22.4-2.92A30.85,30.85,0,0,0,346,597.6l-.23-.43a30.29,30.29,0,0,1-4.35,2.58c-4.5,2.19-11.94,4.44-22,2.89l-.57-.09h-.45a24,24,0,0,1-9.55-2.49A25.85,25.85,0,0,1,298.18,590Z" transform="translate(-174.6 -51.6)"/></g><g class="cls-1"><path class="cls-2" d="M315.78,582.41a12.61,12.61,0,0,0,3.65,5.82,13.69,13.69,0,0,0,4.82,2.8l.43.12c.1.18.21.35.32.51,1.92,2.94,4.29,4.68,7.06,5.18.2,0,.41.07.61.09,4.15.48,8.31-1.76,11.15-3.81l-.21-.48c-2.79,2-6.89,4.27-10.89,3.81-3-.34-5.46-2.11-7.45-5.27l-.23-.36-.05-.09-.1,0a3.37,3.37,0,0,1-.4-.11,13.26,13.26,0,0,1-4.75-2.73,12.07,12.07,0,0,1-3.52-5.6Z" transform="translate(-174.6 -51.6)"/></g><g class="cls-1"><path class="cls-2" d="M327.92,577.19a11,11,0,0,0,2.93,2.78l.39.23a3.17,3.17,0,0,0,.39.34,6.41,6.41,0,0,0,2.86,1.2,16.54,16.54,0,0,0,5.2-.06l-.19-.48c-2.89.42-5.85.35-7.61-1.07a2.35,2.35,0,0,1-.33-.3l0,0h0l-.39-.23a10.34,10.34,0,0,1-2.43-2.15q-.18-.21-.33-.42Z" transform="translate(-174.6 -51.6)"/></g><path class="cls-9" d="M312.23,628.5c0,.19-.05.38-.07.56-.4,3.06-.76,6.12-1.1,9-.27,2.32-.54,4.61-.82,6.81h0c-1,7.66-2,14.12-3.5,16.4l.81.53c1.72-2.59,2.78-9.62,3.83-18.26.22-1.73.43-3.52.64-5.36.34-2.85.68-5.82,1.07-8.79l.08-.67c.58-4.45,1.24-8.87,2-12.81,0-.17.07-.33.11-.5q.31-1.56.66-3a59.7,59.7,0,0,1,3.3-9.35l.21-.46c1.6-3.63,3.53-7.38,5.53-11l.27-.48c2.15-3.84,4.38-7.5,6.36-10.64l.26-.41c2.07-3.25,3.85-5.91,5-7.58a3.7,3.7,0,0,1,0-.9,1.57,1.57,0,0,1,.13-.4l-.89.66c-1.13,1.65-2.94,4.34-5,7.65-.09.13-.18.27-.26.41-2,3.12-4.2,6.77-6.36,10.62l-.24.44c-2.1,3.76-4.13,7.71-5.8,11.51l-.21.48a59.19,59.19,0,0,0-3.22,9.2q-.36,1.49-.69,3.09l-.1.52C313.45,619.74,312.8,624.11,312.23,628.5Z" transform="translate(-174.6 -51.6)"/><path class="cls-10" d="M318.18,692.21H288.59a3,3,0,0,1-3-2.7l-2.88-26.45a3,3,0,0,1,3-3.37h35.36a3,3,0,0,1,3,3.37l-2.88,26.45A3,3,0,0,1,318.18,692.21Z" transform="translate(-174.6 -51.6)"/><rect class="cls-11" x="104.42" y="608.09" width="49.15" height="8.74" rx="4.37"/><path class="cls-12" d="M1093.42,629.76c0,1.74-3.55,19.6-34.13,31.24,0,0,4-6.9,15.18-14.77,10.91-7.7,18.06-14.16,18.83-16.32a.83.83,0,0,0,0-.15C1093.38,629.58,1093.42,629.58,1093.42,629.76Z" transform="translate(-174.6 -51.6)"/><path class="cls-12" d="M1060.26,663.28h0c-.3-.14-19.33-9.26-23-13.25-3.86-4.15-7.37-10.63-10.38-15.22-1.55-2.37-3-4.24-4.24-5l-.21-.13C1023.12,630,1047.06,642.72,1060.26,663.28Z" transform="translate(-174.6 -51.6)"/><path class="cls-12" d="M1098.27,614.65s-5.57,4.28-6.67,6.35c-2.08,3.93-9.1,8.53-17.1,12.12-5,2.22-7.53,4-15.58,14.21a0,0,0,0,0,0,0c.39-.75,8.77-16.88,20.15-22,11.64-5.22,10-8.51,12.69-9.8S1098.27,614.65,1098.27,614.65Z" transform="translate(-174.6 -51.6)"/><path class="cls-12" d="M1059.78,651.46c-4.74-6.83-14.85-12.05-17.67-13.81s-6.42-6.11-9.47-11.17-13.74-7.06-13.74-7.06c10-2.57,18.39,2.81,20.4,6s6,7.47,11.65,11.64S1059.78,651.46,1059.78,651.46Z" transform="translate(-174.6 -51.6)"/><path class="cls-12" d="M1097.3,591c-.24,5.46-5.37,17.58-16.06,22.64-10.51,5-21,15.26-21.35,15.58v0a4.39,4.39,0,0,0,.34-.45c2.32-3.28,5.79-12.71,18.59-19A40.38,40.38,0,0,0,1097.3,591Z" transform="translate(-174.6 -51.6)"/><path class="cls-12" d="M1018.84,599.41l-.42,0A2,2,0,0,1,1018.84,599.41Z" transform="translate(-174.6 -51.6)"/><path class="cls-12" d="M1060.26,632.94s-4.49,2.4-20.76-16c-10.9-12.31-16.72-16-19.33-17.14h0a7.27,7.27,0,0,0-1.3-.42c2.63.29,16.87,2.4,24.07,14.26,7.94,13.07,14.36,17.5,17.34,19.27Z" transform="translate(-174.6 -51.6)"/><path class="cls-12" d="M1090.14,584.79h0v0c-.32.72-5.51,12.35-10,18s-19,14.32-19.19,14.45c.09-.17,5.61-10.08,13.41-15.33S1090,585,1090.14,584.79Z" transform="translate(-174.6 -51.6)"/><path class="cls-12" d="M1061.39,619h0c-.43-.07-14.44-2.51-24.64-16.43-10.36-14.13-5.3-15.26-13.74-23.93h0c.32.18,10.55,6.12,18,22.33C1041,601,1046.3,611.25,1061.39,619Z" transform="translate(-174.6 -51.6)"/><path class="cls-12" d="M1076.17,591.73c-3.41,3.45-12.5,12.47-14,14h0l-.21.21,0-.19c.23-1.52,2.13-11.91,11-18.48,9.4-7,13.29-18.31,13.41-18.66h0C1086.58,578.07,1079.91,588,1076.17,591.73Z" transform="translate(-174.6 -51.6)"/><path class="cls-12" d="M1062.14,607.62h0c-.57-.24-12.81-5.48-18.54-16.7-5.85-11.48-7.86-16.94-11.23-19.67h0a45.05,45.05,0,0,1,16.94,20.88s2.48,5.29,12.81,15.46Z" transform="translate(-174.6 -51.6)"/><path class="cls-12" d="M1062.66,594.49a55.15,55.15,0,0,1-12.75-17.75c-5.05-11.23-6.74-15-8.75-15.81a7.55,7.55,0,0,1,1.24.39l.07,0c2.8,1.11,9.43,4.86,13,16.37,3.25,10.53,5.57,14.61,6.64,16.09A6.08,6.08,0,0,0,1062.66,594.49Z" transform="translate(-174.6 -51.6)"/><polygon class="cls-12" points="888.15 542.97 888.15 542.97 888.15 542.97 888.15 542.97"/><path class="cls-12" d="M1075.54,558.72v0Z" transform="translate(-174.6 -51.6)"/><path class="cls-12" d="M1071.8,578.31c-7.91,10.44-9.2,12.2-9.23,12.25h0a63.68,63.68,0,0,1,6.58-15.13c4.53-7.61,6.86-14.7,6.46-16.5l0,0a.57.57,0,0,0,0-.14C1075.8,559.3,1079.57,568.06,1071.8,578.31Z" transform="translate(-174.6 -51.6)"/><path class="cls-13" d="M1061.86,677.54a5.15,5.15,0,0,1-.26-.46,2.76,2.76,0,0,1-.18-.4l-.18-.39-.14-.39c-.09-.26-.19-.52-.27-.78l-.23-.77-.11-.39c0-.13-.06-.26-.1-.39l-.18-.78c-.06-.26-.13-.51-.18-.77l-.14-.78-.15-.78c0-.26-.1-.52-.13-.78l-.22-1.56-.11-.78-.08-.78L1059,665l-.08-.78,0-.78-.11-1.56c0-.52-.07-1-.1-1.56l0-1.56-.05-1.57c0-.52,0-1,0-1.56l0-3.12c0-8.32.55-16.61,1.3-24.87.34-4.14.78-8.25,1.15-12.38s.74-8.24,1-12.37c.07-1,.16-2.07.21-3.1l.17-3.1c.08-2.07.16-4.14.07-6.2,0-.52,0-1-.09-1.54s-.12-1-.18-1.54-.17-1-.27-1.53-.19-1-.28-1.53a51.24,51.24,0,0,1-.66-6.17,53,53,0,0,0,.78,6.15c.1.51.21,1,.32,1.52s.21,1,.3,1.53.17,1,.21,1.54.11,1,.13,1.56c.13,2.07.09,4.15.06,6.22l-.11,3.11c0,1-.1,2.07-.15,3.11-.2,4.14-.49,8.27-.78,12.41s-.63,8.26-.9,12.39c-.58,8.25-.94,16.53-.78,24.78l.08,3.09c0,.52,0,1,.07,1.54l.09,1.55.08,1.54c0,.51.09,1,.13,1.53l.13,1.54.07.77.1.76.18,1.52.1.77.12.75.25,1.51c0,.26.09.5.14.75l.15.75.16.74c0,.25.12.49.18.74l.19.73c0,.12.06.24.1.36l.11.36.22.71c.08.23.17.45.26.68s.08.23.13.34l.14.32c0,.1.1.21.15.3a1.89,1.89,0,0,1,.12.22,1,1,0,0,1-.11,1.44,1,1,0,0,1-1.45-.12l-.07-.09Z" transform="translate(-174.6 -51.6)"/><path class="cls-12" d="M1062.84,570.54c-1.38,10.69-.72,15.57-.65,16v0s-3.93-5.7-3.61-19c.28-11.37-1.52-15.41-2-16.33l0-.07,0,0a.21.21,0,0,0,0-.07v0C1056.69,551.4,1064.26,559.5,1062.84,570.54Z" transform="translate(-174.6 -51.6)"/><path class="cls-3" d="M1093.42,629.76c0,1.74-3.55,19.6-34.13,31.24,0,0,30-17.9,34-31.09,0,0,0-.1,0-.15Z" transform="translate(-174.6 -51.6)"/><path class="cls-3" d="M1060.26,663.27c-.3-.14-19.33-9.26-23-13.25-3.86-4.15-7.37-10.63-10.38-15.22A167.8,167.8,0,0,0,1060.26,663.27Z" transform="translate(-174.6 -51.6)"/><path class="cls-3" d="M1098.27,614.62s-5.57,4.28-6.67,6.35c-2.08,3.93-9.1,8.53-17.1,12.12-5,2.22-7.53,4-15.58,14.21v0c.42-.67,9.08-14.53,17.42-17.65a35.86,35.86,0,0,0,14.11-10.21C1090.82,619.05,1094.34,615.43,1098.27,614.62Z" transform="translate(-174.6 -51.6)"/><path class="cls-3" d="M1059.78,651.46c-4.74-6.83-14.85-12.05-17.67-13.81s-6.42-6.11-9.47-11.17-13.74-7.06-13.74-7.06,10.88.31,13.14,4.14,9.12,11,14.47,13.42S1058.84,649.68,1059.78,651.46Z" transform="translate(-174.6 -51.6)"/><path class="cls-3" d="M1097.3,591c-.24,5.46-5.37,17.58-16.06,22.64-10.51,5-21,15.26-21.35,15.58v0l.34-.45c1.86-2.38,10.54-13.12,18.84-16.45C1088.43,608.58,1096.92,595.9,1097.3,591Z" transform="translate(-174.6 -51.6)"/><path class="cls-3" d="M1090.13,584.83c-.32.72-5.51,12.35-10,18s-19,14.32-19.19,14.45c.17-.17,7.43-7.67,12-11.37S1086.87,591.76,1090.13,584.83Z" transform="translate(-174.6 -51.6)"/><path class="cls-3" d="M1060.26,632.94s-4.49,2.4-20.76-16c-10.9-12.31-16.72-16-19.33-17.14,10.55,4,14.49,7.72,17.62,12,13.15,18.14,22.12,20.92,22.47,21.06Z" transform="translate(-174.6 -51.6)"/><path class="cls-12" d="M1062,605.75l.18,0-.21.21Z" transform="translate(-174.6 -51.6)"/><path class="cls-3" d="M1076.17,591.73c-3.41,3.45-12.5,12.47-14,14,.18-.34,5.92-11.17,12-15.16s10.75-13.77,12.21-21.95h0C1086.58,578.07,1079.91,588,1076.17,591.73Z" transform="translate(-174.6 -51.6)"/><path class="cls-3" d="M1071.8,578.31c-7.91,10.44-9.2,12.2-9.23,12.25h0c.14-.28,5.17-10.31,9.39-15.91s4.59-12.8,3.65-15.72l0,0a1.42,1.42,0,0,1,0-.16v0C1075.8,559.3,1079.57,568.06,1071.8,578.31Z" transform="translate(-174.6 -51.6)"/><path class="cls-3" d="M1062.84,570.54c-1.38,10.69-.72,15.57-.65,16-2.13-11.64-1-15.74-.27-20.76.62-4.59-4.46-13-5.37-14.49l0-.07,0,0,0-.07v0C1056.69,551.4,1064.26,559.5,1062.84,570.54Z" transform="translate(-174.6 -51.6)"/><path class="cls-3" d="M1061.38,619c-.43-.07-14.44-2.51-24.64-16.43-10.36-14.13-5.3-15.26-13.74-23.93h0c.28.23,8.5,6.85,17.7,25C1040.71,603.68,1048.42,615,1061.38,619Z" transform="translate(-174.6 -51.6)"/><path class="cls-3" d="M1062.12,607.62c-.57-.24-12.81-5.48-18.54-16.7-5.85-11.48-7.86-16.94-11.23-19.67h0c.29.2,8.55,6.13,13.89,19,5.42,13.14,15.86,17.3,15.86,17.3Z" transform="translate(-174.6 -51.6)"/><path class="cls-3" d="M1062.75,594.57h0l0,0,0,0,0,0a55.15,55.15,0,0,1-12.75-17.75c-5.05-11.23-6.74-15-8.75-15.81h0a5.63,5.63,0,0,1,1.24.4l.07,0c2,.92,6,3.73,8.51,12.25,2.85,9.81,9.06,17.76,11.11,20.21C1062.47,594.26,1062.71,594.52,1062.75,594.57Z" transform="translate(-174.6 -51.6)"/><path class="cls-10" d="M1072.81,692.16H1048a3,3,0,0,1-3-2.71l-2.4-22a3,3,0,0,1,3-3.37h29.63a3,3,0,0,1,3,3.37l-2.4,22A3,3,0,0,1,1072.81,692.16Z" transform="translate(-174.6 -51.6)"/><rect class="cls-11" x="864.74" y="612.45" width="42.47" height="7.55" rx="3.77"/><g id="Monitor"><rect class="cls-14" x="521.21" y="464.76" width="42.46" height="169.85"/><rect class="cls-15" x="367.63" y="333.6" width="349.62" height="237.98" rx="7.37"/><rect class="cls-16" x="371.4" y="336.9" width="342.08" height="221.01"/><path class="cls-15" d="M472,634.61h141a8.26,8.26,0,0,1,8.26,8.26v0a0,0,0,0,1,0,0H463.71a0,0,0,0,1,0,0v0A8.26,8.26,0,0,1,472,634.61Z"/></g><path class="cls-17" d="M999.79,660.32a9.51,9.51,0,0,1-7.16,3.41c-1.78-3.77-3.79-8.15-5.46-12.18-.82-2-1.56-3.83-2.16-5.51-.51-1.46-.92-2.76-1.19-3.85-2.09-8.62-2.74-39.56-2.74-39.56l-6.27,32.25.4,10.92.22,6.19.48,13.18a10.73,10.73,0,0,1-8.71.46c-.37-4.1-.8-8.9-1.18-13.65-.13-1.58-.25-3.16-.36-4.7-.51-6.82-.86-13-.77-16.19.26-9.53,6.27-38.39,6.81-46.75a59,59,0,0,0-1.21-11.78l21.29,1.07c.51,5.89.79,10.06.79,10.06,8.23,17.11.65,44.27.13,52.36a24.36,24.36,0,0,0,1.1,6.9c.43,1.64,1,3.43,1.58,5.29C996.66,652.16,998.25,656.41,999.79,660.32Z" transform="translate(-174.6 -51.6)"/><path class="cls-18" d="M957.63,518.19s-1.85-12.78,14.55-12.78c0,0,10.47.37,10.47,11.39s1.94,16.87,7,20.39,7,14.08-7.51,12.32-13.46-.49-16.27,1.2c-6.38,3.86-4.6-.31-5.91-5.59-.41-1.69-3-4.32-2.43-6.91s3-6.58,2.38-9.18S957.27,522.57,957.63,518.19Z" transform="translate(-174.6 -51.6)"/><path class="cls-19" d="M995.23,594.86l19.16-8.52s3.54,3.28,2.58,9.57l-19.12,9.15Z" transform="translate(-174.6 -51.6)"/><ellipse class="cls-20" cx="996.54" cy="599.96" rx="1.24" ry="5.27" transform="translate(-292.51 215.13) rotate(-14.4)"/><path class="cls-21" d="M976.51,681.62s-1.31,3.79-10,8-13.85.65-13.85.65c8.62-4,15.67-13.32,15.67-13.32s-.48-4.76-1.08-11.29a10.73,10.73,0,0,0,8.71-.46Z" transform="translate(-174.6 -51.6)"/><path class="cls-21" d="M962.86,511.18c6.32-4.87,11.82-.74,14.3.69s2,20.36,3.14,22.86c1.63,3.56,6.76,4.65,6.76,4.65,2.12,7.29,3.8,23.58,4.72,34.25l-21.29-1.07c-1.84-10.66-5.08-23.67-5.08-25.56,0-2.74,5.59-8.2,5.59-8.2l.46-8.74c-1.85,1.26-5,.64-5,.64C958.93,523.91,962.86,511.18,962.86,511.18Z" transform="translate(-174.6 -51.6)"/><path class="cls-21" d="M1005.63,674.31c-3.53,16.59-14.5,16.45-14.5,16.45,5-5.22,6.14-17.49,6.14-17.49s-2.09-4.14-4.64-9.54a9.51,9.51,0,0,0,7.16-3.41C1002.8,668,1005.63,674.31,1005.63,674.31Z" transform="translate(-174.6 -51.6)"/><path class="cls-18" d="M961.83,510.1s3.37,9.27,11.47,6.65l6.89,10.16s2.56-5.48,1.06-10.39S974.56,502.1,961.83,510.1Z" transform="translate(-174.6 -51.6)"/><path class="cls-21" d="M976.59,519.2c-.86,1.49-2.33,2.24-3.29,1.69s-1-2.21-.18-3.69,2.33-2.24,3.29-1.69S977.45,517.72,976.59,519.2Z" transform="translate(-174.6 -51.6)"/><path class="cls-21" d="M983.51,551.41s-4.26-10,6.29-10.57c0,0,14.18,22.43,14.74,23.87a101.49,101.49,0,0,1,3.74,24.46s2.13,4.87,1.69,6.74-3.15,6.7-6.12,7.05c-1.68.21.44-7.3.44-7.3s-3.93,3.37-3.56,2.12,3.18-7.24,3.18-7.24-1.81-20.16-4.43-23.4S983.51,551.41,983.51,551.41Z" transform="translate(-174.6 -51.6)"/><path class="cls-21" d="M964.53,546.79s-3.12,3.81-.56,17.73,2.75,15.66,2.37,17.6-5.18,17.1-5.18,17.1-8,8.92-1.31,12,6.64-10.67,6.64-10.67,6.28-16.85,6.16-18.91-1.88-28.52-3.81-30.58S964.53,546.79,964.53,546.79Z" transform="translate(-174.6 -51.6)"/><path class="cls-22" d="M971,538.8s-1.6,7,1.8,6.27,7.53-10.27,7.53-10.27,1.73,3.27,7.67,4.47a10.86,10.86,0,0,1,4,5.11,14.82,14.82,0,0,0-7.3,9l7.13,6.2s3.87,14.93,3,18.8-11.31,12.19-23.08,5.8c0,0-1.65-1.14-1.72-4.87s-5.86-17-6.26-25.06l-2-1.87s.37-6.2,3.7-9.07S971,538.8,971,538.8Z" transform="translate(-174.6 -51.6)"/><path class="cls-17" d="M995.06,683.54s5.06,4,10-10.42l3.15,7.07-1.14.73-2.38-2.34s-5,14.83-13,12.77c0,0-1.87-.66-.48-2.42S995.06,683.54,995.06,683.54Z" transform="translate(-174.6 -51.6)"/><path class="cls-17" d="M959.18,686.08s6.84,5,17.29-5.6a64,64,0,0,1-.61,10.58s-1.29.62-1.84.25l-.66-5.17s-12.08,9-19.43,6.39c0,0-4.55-1.55.37-3.86S959.18,686.08,959.18,686.08Z" transform="translate(-174.6 -51.6)"/><ellipse class="cls-3" cx="808.34" cy="640.43" rx="40.07" ry="2.19"/><polygon class="cls-11" points="423.86 420.23 431 434.68 446.94 437 435.4 448.25 438.13 464.13 423.86 456.63 409.6 464.13 412.32 448.25 400.78 437 416.73 434.68 423.86 420.23"/><path class="cls-2" d="M614,517.49l-15.54-8.17-15.54,8.17,3-17.31-12.57-12.25,17.37-2.52,7.77-15.75,7.77,15.75,17.38,2.52L611,500.18Zm-15.54-10.34,13,6.83L609,499.51l10.51-10.24L605,487.16,598.46,474,592,487.16l-14.53,2.11L588,499.51,585.47,514Z" transform="translate(-174.6 -51.6)"/><polygon class="cls-11" points="483.15 420.23 490.29 434.68 506.23 437 494.69 448.25 497.42 464.13 483.15 456.63 468.89 464.13 471.61 448.25 460.07 437 476.02 434.68 483.15 420.23"/><path class="cls-2" d="M673.29,517.49l-15.54-8.17-15.54,8.17,3-17.31-12.57-12.25L650,485.41l7.77-15.75,7.77,15.75,17.38,2.52-12.58,12.25Zm-15.54-10.34,13,6.83-2.48-14.47,10.51-10.24-14.52-2.11L657.75,474l-6.49,13.16-14.53,2.11,10.51,10.24L644.76,514Z" transform="translate(-174.6 -51.6)"/><polygon class="cls-11" points="542.44 420.23 549.58 434.68 565.52 437 553.98 448.25 556.71 464.13 542.44 456.63 528.18 464.13 530.9 448.25 519.36 437 535.31 434.68 542.44 420.23"/><path class="cls-2" d="M732.58,517.49,717,509.32l-15.54,8.17,3-17.31L691.9,487.93l17.37-2.52L717,469.66l7.77,15.75,17.38,2.52-12.58,12.25ZM717,507.15,730,514l-2.48-14.47,10.51-10.24-14.52-2.11L717,474l-6.49,13.16L696,489.27l10.51,10.24L704.05,514Z" transform="translate(-174.6 -51.6)"/><polygon class="cls-11" points="601.73 420.23 608.87 434.68 624.82 437 613.27 448.25 616 464.13 601.73 456.63 587.47 464.13 590.19 448.25 578.65 437 594.6 434.68 601.73 420.23"/><path class="cls-2" d="M791.87,517.49l-15.54-8.17-15.54,8.17,3-17.31-12.57-12.25,17.37-2.52,7.77-15.75,7.77,15.75,17.38,2.52L788.9,500.18Zm-15.54-10.34,13,6.83-2.48-14.47,10.51-10.24-14.52-2.11L776.33,474l-6.49,13.16-14.53,2.11,10.51,10.24L763.34,514Z" transform="translate(-174.6 -51.6)"/><path class="cls-2" d="M791.87,517.49l-15.54-8.17-15.54,8.17,3-17.31-12.57-12.25,17.37-2.52,7.77-15.75,7.77,15.75,17.38,2.52L788.9,500.18Zm-15.54-10.34,13,6.83-2.48-14.47,10.51-10.24-14.52-2.11L776.33,474l-6.49,13.16-14.53,2.11,10.51,10.24L763.34,514Z" transform="translate(-174.6 -51.6)"/><path class="cls-2" d="M851.16,517.49l-15.54-8.17-15.54,8.17,3-17.31-12.57-12.25,17.37-2.52,7.77-15.75,7.77,15.75,17.38,2.52-12.58,12.25Zm-15.54-10.34,13,6.83-2.48-14.47,10.51-10.24-14.52-2.11L835.62,474l-6.49,13.16-14.53,2.11,10.51,10.24L822.63,514Z" transform="translate(-174.6 -51.6)"/><ellipse class="cls-3" cx="439.88" cy="644.87" rx="40.07" ry="2.19"/><path class="cls-23" d="M611.72,692.14s1.09,5.67-.1,6-20.64.59-21.77-.7,1.07-2.24,1.07-2.24l12.33-6.66Z" transform="translate(-174.6 -51.6)"/><path class="cls-23" d="M638,690.83s1.35,5.16.27,5.56-19,1.79-20.09.67.85-2.12.85-2.12l11-6.88Z" transform="translate(-174.6 -51.6)"/><path class="cls-24" d="M598.7,589.61s-3.43,45.89-2.86,56.93,3.83,43.32,3.83,43.32,3.79,6.07,12.93,3.69c0,0-5.14-41.11-3.81-49.3s6.94-31.82,6.94-31.82,2.77,31.06,4.1,37.54S626,690.08,626,690.08s4.73,3.25,12.26,1.25c0,0-5.9-41.62-5.9-49.77s1.31-36-2.32-52.24Z" transform="translate(-174.6 -51.6)"/><path class="cls-21" d="M641.73,566.38,649,586s6.75,6.31,1.63,11.55c0,0-8-1-5.12-9.43l-10.69-16.3Z" transform="translate(-174.6 -51.6)"/><path class="cls-25" d="M623.48,532l18.25,34.4s-.74,4-7,5.4l-16.34-28.39Z" transform="translate(-174.6 -51.6)"/><path class="cls-21" d="M594.76,505.85s-3.23,9.64,2.07,17.27a5.09,5.09,0,0,0,4.2-.41l2.77,6.47s7.32.25,8.64-.86l.55-12.93-10.55-9.54Z" transform="translate(-174.6 -51.6)"/><path class="cls-26" d="M594.31,502.11s-4.34,4.55,2.63,7.63a7.89,7.89,0,0,1,3.58,5.4c.4,3.53,3.94,7.32,12.22,6.06,0,0,5.4-12.27,0-18.78,0,0,1.31-5.31-9.7-5.31S594.31,502.11,594.31,502.11Z" transform="translate(-174.6 -51.6)"/><path class="cls-27" d="M630.08,589.32S616.74,598,598,592.26v-.08c4.69,1.45,5-.68,5.43-3.47.48-3-5.21-5.55-5.21-5.55l-.56-.9c-.45-11.72-1.33-29.86-2.47-32.14l-7.91,15.3,1.33,2.44s-2.29,6.43-8.72,3.85c0,0-5.1-3.48-2.81-11.24s10.05-24,11.83-25.51,11.38-5.76,11.38-5.76l.59-2.44s7.47-4,14-1.33l.81,2.36s6.73,1.26,8.58,5.4S630.08,589.32,630.08,589.32Z" transform="translate(-174.6 -51.6)"/><path class="cls-28" d="M603.39,588.71c-.45,2.79-.74,4.92-5.43,3.47,0-.58-.14-4.58-.34-9.92l.56.9S603.87,585.75,603.39,588.71Z" transform="translate(-174.6 -51.6)"/><path class="cls-21" d="M603.39,588.71c-.45,2.79-.74,4.92-5.43,3.47-.28-.08-.56-.22-.89-.29-3-.69-3.28-6.58-3.28-6.58l-13.94-13.6c6.43,2.58,8.72-3.85,8.72-3.85l9,14.4.56.9S603.87,585.75,603.39,588.71Z" transform="translate(-174.6 -51.6)"/><path class="cls-29" d="M885.37,677.78l.47,7.38s3.49,2,6.22.5l.42-7.31Z" transform="translate(-174.6 -51.6)"/><path class="cls-29" d="M911.1,677l2.39,9.17s4.08,1.36,6.56-.94L918.66,675S913.67,677.21,911.1,677Z" transform="translate(-174.6 -51.6)"/><path class="cls-30" d="M884.24,581.61s20.34,5.53,31.62,0c0,0,2.92,37.93-5.21,57,0,0,6.66.79,8,36.35,0,0-4.62,2.93-7.56,2l-11-42.21-2.37-32.63-6.72,40.08s4.35,5,1.76,20.09c0,0-1,14.11-.34,16,0,0-4,2.14-7.11-.57l-3.62-36.23S876.79,609.27,884.24,581.61Z" transform="translate(-174.6 -51.6)"/><path class="cls-30" d="M912.22,681.27s4.9,1.65,7.18-.88c0,0,3.72,4.84,1.71,6.88s-8.09,6.37-21.53,5.65c0,0-1.28-.72,0-1.64S909.3,685.91,912.22,681.27Z" transform="translate(-174.6 -51.6)"/><path class="cls-30" d="M885.68,682.66s1.45,2.46,6.44,1.81c0,0,1.55,6-.39,7.6s-21.1.69-21.1.69-2.17-.66-.79-1.55S885.68,682.66,885.68,682.66Z" transform="translate(-174.6 -51.6)"/><path class="cls-21" d="M888.63,518.66s2.33,1.68,2.64,5.79c0,0,0,3-.1,3.67,0,0,5,2.86,9.64,0,0,0-.68-9.41-2.39-12.84Z" transform="translate(-174.6 -51.6)"/><path class="cls-21" d="M882.67,503.12s-.29,17.26,6.75,17.58,10.44-8.07,10.44-8.07l-4.45-12.55Z" transform="translate(-174.6 -51.6)"/><path class="cls-31" d="M877.27,500.38s1.77,5.93,8.65,3.61,9.05-1.2,10.26,3.6l2.24,7.69s7.17-9.61-2.16-18.26c0,0-3.21-2.64-9.78.8S877.27,500.38,877.27,500.38Z" transform="translate(-174.6 -51.6)"/><path class="cls-21" d="M895.26,508.42s.53-4.95,2.42-4.05,1,4.46-1.21,6.31Z" transform="translate(-174.6 -51.6)"/><path class="cls-32" d="M919,545.7c-2,10.1-5.88,18.51-4.27,25.67l2.09,10s-23.31,6.12-33.32-.86c0,0,2.94-14.24,1.8-19.17s-2.42-10.06-2.42-10.06,1.28,12.38-11.39,29.09c-.13.18-.27.36-.41.53-12.38,16-17.67,6.07-17.67,6.07l5.32-3.61s-2.85-1.76-1.86-2.47S864,579,864,579s1-1.16,2.3-3c3.28-4.39,8.92-12.57,9-17.07,0-6.37-.29-26,5.41-30.29A32.65,32.65,0,0,0,891,522.8s1.61,9.35,9.16-.46l13.33,6.27C915.73,529.65,920.91,535.59,919,545.7Z" transform="translate(-174.6 -51.6)"/><path class="cls-33" d="M901.05,522.75s-6.26,13.94-3.55,29.68,6.74,26.57,4.1,39.37c0,0,14.57,1.32,18.89-2.41,0,0-6.74-19.76-5.79-22.47,0,0,5.71-20.53,4.87-28.4S916,528.51,901.05,522.75Z" transform="translate(-174.6 -51.6)"/><path class="cls-21" d="M871,580.92c-12.38,16-17.67,6.07-17.67,6.07l5.32-3.61s-2.85-1.76-1.86-2.47S864,579,864,579s1-1.16,2.3-3A11.07,11.07,0,0,1,871,580.92Z" transform="translate(-174.6 -51.6)"/><path class="cls-33" d="M889,590.83l-8.46-1.48s7.64-18.26,2.61-36.8c0,0,.14,14.92-11.85,28.92,0,0-2.33-4.28-5.71-5.07,0,0,8.93-12.79,9.14-16.27s-.84-25.21,5.87-31.81c0,0,.81-.3,2.18-.92a60.13,60.13,0,0,0,8.22-4.6s-5.91,7.74-1.74,27.5S889,590.83,889,590.83Z" transform="translate(-174.6 -51.6)"/><path class="cls-34" d="M871.31,581.47s-2.33-4.28-5.71-5.07c0,0,8.93-12.79,9.14-16.27s-.84-25.21,5.87-31.81c0,0,.81-.3,2.18-.92-2.54,16.43.37,25.15.37,25.15S883.3,567.47,871.31,581.47Z" transform="translate(-174.6 -51.6)"/><polygon class="cls-11" points="687.11 484.29 705 501.12 729.01 495.92 718.53 518.14 730.9 539.37 706.53 536.27 690.16 554.59 685.58 530.45 663.1 520.55 684.63 508.73 687.11 484.29"/><path class="cls-34" d="M912.54,563.18c-2.85,4.32-7.38,7.69-19.51,18.69L891.76,583c-13.1,11.93-18.64,5.9-19.14,4s9.57-4,9.57-4-2.59-3.31-2.06-4.17,5.3,2.07,5.3,2.07l3.13-3.51,14.56-16.33s2.73-7.48,5.53-18.42,7.7-12.15,7.7-12.15C925.13,539.88,915.49,558.72,912.54,563.18Z" transform="translate(-174.6 -51.6)"/><path class="cls-21" d="M893,581.87,891.76,583c-13.1,11.93-18.64,5.9-19.14,4s9.57-4,9.57-4-2.59-3.31-2.06-4.17,5.3,2.07,5.3,2.07l3.13-3.51A29.05,29.05,0,0,1,893,581.87Z" transform="translate(-174.6 -51.6)"/><path class="cls-3" d="M934.79,693c0,1.21-17.94,2.19-40.07,2.19s-40.08-1-40.08-2.19,18-2.19,40.08-2.19S934.79,691.79,934.79,693Z" transform="translate(-174.6 -51.6)"/><g id="Smartphone"><path class="cls-35" d="M304.66,448.13h74.15a16,16,0,0,1,16,16V604.86a41.43,41.43,0,0,1-41.43,41.43H330.13a41.43,41.43,0,0,1-41.43-41.43V464.1A16,16,0,0,1,304.66,448.13Z"/><rect class="cls-16" x="292.54" y="459.91" width="98.39" height="165.21" rx="8.95"/><path class="cls-36" d="M533.25,507H500.13a.92.92,0,0,1-.92-.92h0a.92.92,0,0,1,.92-.92h33.12a.92.92,0,0,1,.91.92h0A.92.92,0,0,1,533.25,507Z" transform="translate(-174.6 -51.6)"/><circle class="cls-37" cx="341.74" cy="636.01" r="7.51"/></g><path class="cls-38" d="M432.65,690.27s6.83,1.94,10.85-1.25c0,0,6.2,6.49,12.84,7,0,0,1.15,1.23,0,1.48s-14.18.74-16.64-1.07c0,0-3.92,1.62-7.05-.32C430.93,695,432.65,690.27,432.65,690.27Z" transform="translate(-174.6 -51.6)"/><path class="cls-38" d="M413,689.9s-6.66,1.9-10.57-1.22c0,0-6,6.33-12.51,6.81,0,0-1.12,1.2,0,1.44s13.82.72,16.21-1c0,0,3.82,1.57,6.87-.32C414.65,694.53,413,689.9,413,689.9Z" transform="translate(-174.6 -51.6)"/><path class="cls-39" d="M405.4,599.22l-3.7,89.94s7.41,3.46,11.31.79l2.43-37.74,7.71-34.3,13,33.69-3.69,38.77s9.19,1.94,11.91-1.35l4.39-40a9.3,9.3,0,0,0-.19-3.11l-10.32-43.51S414.7,606.41,405.4,599.22Z" transform="translate(-174.6 -51.6)"/><path class="cls-21" d="M424.8,536a6.5,6.5,0,0,0,4-1.49l-.42,10.8H418.08l-1.35-12.68A10.52,10.52,0,0,0,424.8,536Z" transform="translate(-174.6 -51.6)"/><path class="cls-40" d="M429.1,526l-.29,7.47a5.32,5.32,0,0,1-4.27,1.94c-4.28,0-6.75-2.84-8.18-6.19L416,525.5Z" transform="translate(-174.6 -51.6)"/><path class="cls-21" d="M428.81,533.44a5.32,5.32,0,0,1-4.27,1.94c-4.28,0-6.75-2.84-8.18-6.19a30,30,0,0,1-1.94-10.73l1.77-1.68,3.29-3.13,11-1.34a61,61,0,0,1,1,10C431.46,526.53,430.9,531,428.81,533.44Z" transform="translate(-174.6 -51.6)"/><path class="cls-41" d="M428.81,533.44l0,1a6.5,6.5,0,0,1-4,1.49,10.52,10.52,0,0,1-8.07-3.37l-.37-3.41c1.43,3.35,3.9,6.19,8.18,6.19A5.32,5.32,0,0,0,428.81,533.44Z" transform="translate(-174.6 -51.6)"/><path class="cls-21" d="M428.81,533.44a5.32,5.32,0,0,1-4.27,1.94c-4.28,0-6.75-2.84-8.18-6.19a30,30,0,0,1-1.94-10.73l1.77-1.68,15.24,5.57C431.46,526.53,430.9,531,428.81,533.44Z" transform="translate(-174.6 -51.6)"/><path class="cls-42" d="M416.4,516.84s12.92,3.58,18.09-5.36c0,0-8.43-3.53-13.1-3.53s-7.34,5-7.34,5-6.41,3.88,2.43,17.35Z" transform="translate(-174.6 -51.6)"/><path class="cls-21" d="M416.9,521.44c.93,1.31,1,2.84.21,3.41s-2.21,0-3.13-1.35-1-2.84-.21-3.4S416,520.13,416.9,521.44Z" transform="translate(-174.6 -51.6)"/><path class="cls-43" d="M417.24,537.37l-2.46,2.85-9.38,2.59v59.63s18.05,5.66,32.85,0V543.11l-7.78-2.3-1.7-2.72-5.85,5.61Z" transform="translate(-174.6 -51.6)"/><path class="cls-43" d="M459.61,573.67l-6.41,5s-1.66,1.18-2.85,0-12.1-16.8-12.1-16.8V543.1s1.7,1,6.19,8.44,9.19,14.81,9.19,14.81l2.28-1.3A20.65,20.65,0,0,0,459.61,573.67Z" transform="translate(-174.6 -51.6)"/><path class="cls-43" d="M405.4,542.81v17.46s-12.46,9.38-12.69,16.1a8.12,8.12,0,0,0,1,3.71,22.54,22.54,0,0,0-6.93,4.77l-.09-.13c-6-7.83-3.18-14.4-3.18-14.4C389,557,405.4,542.81,405.4,542.81Z" transform="translate(-174.6 -51.6)"/><path class="cls-21" d="M482.69,550.93s.93,5.64-2,8.6a13.69,13.69,0,0,1-4.45,1.12l-16.6,13a20.65,20.65,0,0,1-3.7-8.62l15.34-8.76s2.24-9.37,8.68-7c0,0,8.57-5.81,9.37-5S482.69,550.93,482.69,550.93Z" transform="translate(-174.6 -51.6)"/><path class="cls-21" d="M409.78,605c-3.77.76-6.94-4.86-6.94-4.86s-10.09-7.46-16.09-15.24a22.54,22.54,0,0,1,6.93-4.77c3.09,6.37,12.55,13.8,12.55,13.8l4.81,2.29C415.84,598.46,413.55,604.2,409.78,605Z" transform="translate(-174.6 -51.6)"/><polygon class="cls-44" points="247.87 491.59 243.81 495.52 240.18 488.61 242.64 485.77 247.87 491.59"/><polygon class="cls-44" points="248.77 491.67 252.31 495.94 255.87 489.2 254.17 486.49 248.77 491.67"/><path class="cls-3" d="M464.85,697.15c0,1.21-17.94,2.18-40.08,2.18s-40.07-1-40.07-2.18S402.64,695,424.77,695,464.85,695.94,464.85,697.15Z" transform="translate(-174.6 -51.6)"/><polygon class="cls-11" points="342.09 500.28 352.57 521.52 376.02 524.93 359.05 541.46 363.06 564.81 342.09 553.79 321.12 564.81 325.12 541.46 308.16 524.93 331.6 521.52 342.09 500.28"/><path class="cls-2" d="M539.53,619l-22.84-12-22.84,12,4.36-25.43-18.48-18,25.54-3.72,11.42-23.14,11.42,23.14,25.54,3.72-18.48,18ZM516.69,603.8l19.09,10-3.64-21.27,15.45-15.06-21.35-3.1-9.55-19.34-9.55,19.34-21.35,3.1,15.45,15.06-3.65,21.27Z" transform="translate(-174.6 -51.6)"/><path class="cls-45" d="M393.53,520.72c1.12,1,.41,2.74.41,2.74l-6.75,7.85c-2.81,3.28-23.22-15.23-23.22-15.23l7.24-8.41c.6.68,1.21,1.33,1.82,1.95C383,519.7,392.47,519.82,393.53,520.72Z" transform="translate(-174.6 -51.6)"/><path class="cls-46" d="M371,517.08c5.62,10.11,13.54,12,17.53,12.64l-1.37,1.59c-2.81,3.28-23.22-15.23-23.22-15.23l7.24-8.41c.6.68,1.21,1.33,1.82,1.95C370,514.5,370.1,515.39,371,517.08Z" transform="translate(-174.6 -51.6)"/><path class="cls-45" d="M400.29,452.09l3.93,3.38a1.82,1.82,0,0,1,.2,2.56l-4.24,7.08a1.83,1.83,0,0,1-2.56.19l-6.37-5.47a1.82,1.82,0,0,1-.19-2.56l6.67-5A1.82,1.82,0,0,1,400.29,452.09Z" transform="translate(-174.6 -51.6)"/><path class="cls-46" d="M403.86,455.17l.36.3a1.82,1.82,0,0,1,.2,2.56l-4.24,7.08a1.83,1.83,0,0,1-2.56.19l-.12-.11A29.71,29.71,0,0,0,403.86,455.17Z" transform="translate(-174.6 -51.6)"/><path class="cls-47" d="M361.4,503.05c.22.19.43.38.62.58a9,9,0,0,1,1.32,1.78,8.82,8.82,0,0,1-3.59,12.14,8.28,8.28,0,0,1-2.08.77,8.81,8.81,0,0,1-10.35-11.44A8.89,8.89,0,0,1,349,504a8.78,8.78,0,0,1,9.81-2.5,9.08,9.08,0,0,1,2.61,1.55Z" transform="translate(-174.6 -51.6)"/><rect class="cls-48" x="349.92" y="493.9" width="20.76" height="20.88" rx="1.99" transform="translate(-431.65 397.44) rotate(-49.34)"/><path class="cls-45" d="M357.85,491.18s15-32.33,13.91-46.77l23,19.78-29,33.79Z" transform="translate(-174.6 -51.6)"/><path class="cls-45" d="M394.79,464.19l23,19.78c-14.44,1.1-44.14,20.81-44.14,20.81l-7.92-6.8Z" transform="translate(-174.6 -51.6)"/><path class="cls-48" d="M378.87,443.64l38.63,33.18a4.92,4.92,0,0,1,.53,6.91l-.21.24-46.06-39.56.2-.25A4.92,4.92,0,0,1,378.87,443.64Z" transform="translate(-174.6 -51.6)"/><path class="cls-49" d="M360.22,499.83l-5.65,6.57a.84.84,0,0,1-1.18.09h0a.83.83,0,0,1-.09-1.19l5.64-6.57a.85.85,0,0,1,1.19-.09h0A.85.85,0,0,1,360.22,499.83Z" transform="translate(-174.6 -51.6)"/><path class="cls-49" d="M363.14,502.33l-5.65,6.58a.85.85,0,0,1-1.19.09h0a.85.85,0,0,1-.09-1.19l5.65-6.58a.85.85,0,0,1,1.19-.09h0A.85.85,0,0,1,363.14,502.33Z" transform="translate(-174.6 -51.6)"/><path class="cls-49" d="M366.05,504.84l-5.64,6.57a.85.85,0,0,1-1.19.09h0a.85.85,0,0,1-.09-1.19l5.65-6.57a.84.84,0,0,1,1.18-.09h0A.84.84,0,0,1,366.05,504.84Z" transform="translate(-174.6 -51.6)"/><path class="cls-46" d="M410.82,471.08l6.68,5.74a4.92,4.92,0,0,1,.53,6.91l-.21.24c-14.44,1.1-44.14,20.81-44.14,20.81l-10.93,12.73a2,2,0,0,1-2.81.21l-.19-.17a8.28,8.28,0,0,1-2.08.77l1.2-1.53c1.63-2.07,3.51-4.36,5.6-6.8s4.25-4.84,6.66-7.4l1.38-1.45c8.94-9.3,20.33-19.41,33.49-27.32Q408.37,472.4,410.82,471.08Z" transform="translate(-174.6 -51.6)"/><path class="cls-50" d="M594.11,267.2a3.06,3.06,0,0,0-5.71,1.54l-13.47,3.4a2.09,2.09,0,0,0-.19-.4,3,3,0,0,0-1.86-1.42,3,3,0,0,0-2.32.3,3,3,0,0,0-1.32,3.74l-13.51,7.82a3.05,3.05,0,1,0-3.15,4.47v1.48h.95v-1.48a3,3,0,0,0,1.84-1,3.05,3.05,0,0,0,.74-2,2.6,2.6,0,0,0-.06-.56l13.66-7.9a3,3,0,0,0,1.58,1,1.94,1.94,0,0,0,.33.07v1.45h1v-1.46a2.92,2.92,0,0,0,1-.36,3,3,0,0,0,1.51-2.85l13.43-3.39a3.18,3.18,0,0,0,.25.57,3.09,3.09,0,0,0,2.17,1.49v1.46h.95v-1.46a2.74,2.74,0,0,0,1.06-.37,3,3,0,0,0,1.43-1.85,3.13,3.13,0,0,0,.1-.8A2.92,2.92,0,0,0,594.11,267.2Zm-41.06,18.55a2.11,2.11,0,1,1,2.11-2.1A2.11,2.11,0,0,1,553.05,285.75Zm20.09-10.65a2.17,2.17,0,0,1-1.6.21,2.1,2.1,0,0,1,.54-4.14,2.09,2.09,0,0,1,.56.06,2.06,2.06,0,0,1,1.27,1A2.12,2.12,0,0,1,573.14,275.1Zm20.36-5.83a2.11,2.11,0,1,1-3.09-2.37,2,2,0,0,1,1.6-.21,2.1,2.1,0,0,1,1.28,1A2.13,2.13,0,0,1,593.5,269.27Z" transform="translate(-174.6 -51.6)"/><rect class="cls-50" x="416.38" y="226.95" width="0.95" height="3.56"/><rect class="cls-50" x="416.38" y="235.85" width="0.95" height="3.56"/><rect class="cls-50" x="416.38" y="240.31" width="0.95" height="3.56"/><rect class="cls-50" x="416.38" y="231.4" width="0.95" height="3.57"/><rect class="cls-50" x="416.38" y="222.5" width="0.95" height="3.56"/><rect class="cls-50" x="397.02" y="227.03" width="0.95" height="3.55"/><rect class="cls-50" x="397.02" y="231.46" width="0.95" height="3.54"/><rect class="cls-50" x="397.02" y="235.89" width="0.95" height="3.55"/><rect class="cls-50" x="397.02" y="240.33" width="0.95" height="3.55"/><rect class="cls-50" x="377.98" y="241.02" width="0.95" height="2.99"/><rect class="cls-50" x="377.98" y="237.28" width="0.95" height="2.99"/><polygon class="cls-50" points="417.34 246.62 417.34 244.76 416.39 244.76 416.39 246.62 397.97 246.62 397.97 244.76 397.01 244.76 397.01 246.62 378.93 246.62 378.93 244.76 377.98 244.76 377.98 246.62 373.92 246.62 373.92 247.57 421.64 247.57 421.64 246.62 417.34 246.62"/><path class="cls-50" d="M659.07,270.37l3.37-3.37-4.67-.27v-5L654.52,265v4.2l-2.25,2.25a21.59,21.59,0,1,0,.67.68l2.23-2.23Zm-3.6-5,1.35-1.35v3.6l3.44.19-1.54,1.55-3.25-.39Zm2.4,21.37a20.25,20.25,0,1,1-6.27-14.63l-4.29,4.28a14,14,0,0,0-9.67-3.84A14.22,14.22,0,1,0,648,277.07l4.27-4.28A20.11,20.11,0,0,1,657.87,286.75Zm-19.89.33,3.66-3.66a5.13,5.13,0,0,1,1.21,3.33,5.2,5.2,0,1,1-1.88-4l-3.66,3.67Zm-.34-6.49a6.19,6.19,0,1,0,4.67,2.16l5-5a13,13,0,1,1-.66-.67l-5,5A6.12,6.12,0,0,0,637.64,280.59Z" transform="translate(-174.6 -51.6)"/><path class="cls-50" d="M730.16,327.44H714.88a3.34,3.34,0,0,0-3.33,3.34v7.32a3.34,3.34,0,0,0,3.33,3.33h8.88l6.1,5.2a.46.46,0,0,0,.3.11.45.45,0,0,0,.25-.07.48.48,0,0,0,.22-.51l-1.11-4.73h.64a3.34,3.34,0,0,0,3.33-3.33v-7.32A3.34,3.34,0,0,0,730.16,327.44Zm2.38,10.66a2.38,2.38,0,0,1-2.38,2.38h-1.24a.46.46,0,0,0-.37.18.51.51,0,0,0-.09.4l.91,3.9-5.13-4.37a.46.46,0,0,0-.3-.11h-9.06a2.39,2.39,0,0,1-2.38-2.38v-7.32a2.38,2.38,0,0,1,2.38-2.38h15.28a2.37,2.37,0,0,1,2.38,2.38Z" transform="translate(-174.6 -51.6)"/><path class="cls-50" d="M754,340.48H738.69a3.33,3.33,0,0,0-3.33,3.33v7.32a3.33,3.33,0,0,0,3.33,3.33h.64l-1.1,4.73a.49.49,0,0,0,.21.52.46.46,0,0,0,.25.06.44.44,0,0,0,.31-.11l6.09-5.2H754a3.33,3.33,0,0,0,3.33-3.33v-7.32A3.33,3.33,0,0,0,754,340.48Zm2.38,10.65a2.38,2.38,0,0,1-2.38,2.38h-9.05a.49.49,0,0,0-.31.11L739.48,358l.92-3.9a.53.53,0,0,0-.1-.4.47.47,0,0,0-.37-.18h-1.24a2.39,2.39,0,0,1-2.38-2.38v-7.32a2.39,2.39,0,0,1,2.38-2.38H754a2.38,2.38,0,0,1,2.38,2.38Z" transform="translate(-174.6 -51.6)"/><path class="cls-50" d="M968.56,351.53H938.8a3.33,3.33,0,0,0-3.33,3.33v3.41a3.33,3.33,0,0,0,3.33,3.33h29.76a3.33,3.33,0,0,0,3.33-3.33v-3.41A3.33,3.33,0,0,0,968.56,351.53Zm2.38,6.74a2.39,2.39,0,0,1-2.38,2.38H938.8a2.38,2.38,0,0,1-2.38-2.38v-3.41a2.38,2.38,0,0,1,2.38-2.38h29.76a2.39,2.39,0,0,1,2.38,2.38Z" transform="translate(-174.6 -51.6)"/><path class="cls-50" d="M967.14,354.41a2.16,2.16,0,1,0,2.15,2.15A2.15,2.15,0,0,0,967.14,354.41Zm0,3.35a1.2,1.2,0,1,1,1.2-1.2A1.19,1.19,0,0,1,967.14,357.76Z" transform="translate(-174.6 -51.6)"/><path class="cls-50" d="M961,354.41a2.16,2.16,0,1,0,2.16,2.15A2.15,2.15,0,0,0,961,354.41Zm0,3.35a1.2,1.2,0,1,1,1.21-1.2A1.2,1.2,0,0,1,961,357.76Z" transform="translate(-174.6 -51.6)"/><path class="cls-50" d="M955.16,356.09H939.65a.48.48,0,1,0,0,1h15.51a.48.48,0,0,0,0-1Z" transform="translate(-174.6 -51.6)"/><path class="cls-50" d="M968.56,340H938.8a3.34,3.34,0,0,0-3.33,3.33v3.42a3.33,3.33,0,0,0,3.33,3.33h29.76a3.33,3.33,0,0,0,3.33-3.33v-3.42A3.34,3.34,0,0,0,968.56,340Zm2.38,6.75a2.39,2.39,0,0,1-2.38,2.38H938.8a2.38,2.38,0,0,1-2.38-2.38v-3.42a2.38,2.38,0,0,1,2.38-2.38h29.76a2.39,2.39,0,0,1,2.38,2.38Z" transform="translate(-174.6 -51.6)"/><path class="cls-50" d="M967.14,342.87a2.16,2.16,0,1,0,2.15,2.16A2.16,2.16,0,0,0,967.14,342.87Zm0,3.36a1.21,1.21,0,1,1,1.2-1.2A1.2,1.2,0,0,1,967.14,346.23Z" transform="translate(-174.6 -51.6)"/><path class="cls-50" d="M961,342.87a2.16,2.16,0,1,0,2.16,2.16A2.16,2.16,0,0,0,961,342.87Zm0,3.36a1.21,1.21,0,1,1,1.21-1.2A1.21,1.21,0,0,1,961,346.23Z" transform="translate(-174.6 -51.6)"/><path class="cls-50" d="M955.16,344.55H939.65a.48.48,0,1,0,0,.95h15.51a.48.48,0,0,0,0-.95Z" transform="translate(-174.6 -51.6)"/><path class="cls-50" d="M968.56,363.07H938.8a3.33,3.33,0,0,0-3.33,3.33v3.42a3.34,3.34,0,0,0,3.33,3.33h29.76a3.34,3.34,0,0,0,3.33-3.33V366.4A3.33,3.33,0,0,0,968.56,363.07Zm2.38,6.75a2.39,2.39,0,0,1-2.38,2.38H938.8a2.38,2.38,0,0,1-2.38-2.38V366.4A2.38,2.38,0,0,1,938.8,364h29.76a2.39,2.39,0,0,1,2.38,2.38Z" transform="translate(-174.6 -51.6)"/><path class="cls-50" d="M967.14,366a2.16,2.16,0,1,0,2.15,2.15A2.15,2.15,0,0,0,967.14,366Zm0,3.36a1.21,1.21,0,1,1,1.2-1.21A1.2,1.2,0,0,1,967.14,369.31Z" transform="translate(-174.6 -51.6)"/><path class="cls-50" d="M961,366a2.16,2.16,0,1,0,2.16,2.15A2.16,2.16,0,0,0,961,366Zm0,3.36a1.21,1.21,0,1,1,1.21-1.21A1.21,1.21,0,0,1,961,369.31Z" transform="translate(-174.6 -51.6)"/><path class="cls-50" d="M955.16,367.63H939.65a.48.48,0,1,0,0,.95h15.51a.48.48,0,0,0,0-.95Z" transform="translate(-174.6 -51.6)"/><path class="cls-50" d="M688,325.18H648.46a3.51,3.51,0,0,0-3.51,3.51V359a3.52,3.52,0,0,0,3.51,3.52H688a3.52,3.52,0,0,0,3.51-3.52V328.69A3.51,3.51,0,0,0,688,325.18ZM690.59,359a2.57,2.57,0,0,1-2.56,2.57H648.46A2.57,2.57,0,0,1,645.9,359v-28.2h44.69Zm0-29.15H645.9v-1.18a2.57,2.57,0,0,1,2.56-2.56H688a2.57,2.57,0,0,1,2.56,2.56Z" transform="translate(-174.6 -51.6)"/><path class="cls-50" d="M686.57,328.72a.81.81,0,1,0-.81-.81A.81.81,0,0,0,686.57,328.72Z" transform="translate(-174.6 -51.6)"/><path class="cls-50" d="M682.74,328.72a.81.81,0,1,0-.81-.81A.81.81,0,0,0,682.74,328.72Z" transform="translate(-174.6 -51.6)"/><path class="cls-50" d="M678.92,328.72a.81.81,0,1,0-.81-.81A.81.81,0,0,0,678.92,328.72Z" transform="translate(-174.6 -51.6)"/><path class="cls-50" d="M658.54,345.22c-1.6-.62-2.32-1.16-2.32-2.26,0-.8.61-1.75,2.2-1.75a4.74,4.74,0,0,1,2.23.56l.42-1.23a5.3,5.3,0,0,0-2.59-.57c-2.28,0-3.79,1.35-3.79,3.18,0,1.64,1.18,2.63,3.09,3.31,1.58.61,2.21,1.23,2.21,2.32s-.9,2-2.46,2a5.43,5.43,0,0,1-2.7-.76l-.38,1.27a6.26,6.26,0,0,0,3,.74c2.75,0,4.09-1.56,4.09-3.37S660.52,346,658.54,345.22Z" transform="translate(-174.6 -51.6)"/><polygon class="cls-50" points="490.5 294.77 495.05 294.77 495.05 293.51 490.5 293.51 490.5 289.82 495.31 289.82 495.31 288.55 489 288.55 489 300.25 495.58 300.25 495.58 298.99 490.5 298.99 490.5 294.77"/><path class="cls-50" d="M676.87,340c-3.12,0-5.44,2.42-5.44,6.14,0,3.54,2.17,5.94,5.27,5.94s5.43-2.14,5.43-6.16C682.13,342.41,680.07,340,676.87,340Zm-.09,10.84c-2.38,0-3.73-2.24-3.73-4.73s1.25-4.89,3.75-4.89,3.74,2.44,3.74,4.76C680.54,348.61,679.18,350.81,676.78,350.81Z" transform="translate(-174.6 -51.6)"/><path class="cls-50" d="M846.81,301.53h0v-6.07a2.16,2.16,0,0,0-2.16-2.16h-3.22V289a3,3,0,0,0-3-3H805.19a3,3,0,0,0-3,3v21.69a3,3,0,0,0,3,3h11.3v4.65h-2a.48.48,0,0,0,0,.95h14a.47.47,0,0,0,.48-.48.47.47,0,0,0,0-.17,2.11,2.11,0,0,0,1.53.65h9.71l.27,0h6.28a1.78,1.78,0,0,0,1.78-1.77V303.3A1.78,1.78,0,0,0,846.81,301.53Zm-20.66,16.83h-8.7v-4.65h8.7Zm-9.66-5.6h-11.3a2.07,2.07,0,0,1-2.06-2.07V308h25.26v4.81h-11.9Zm12.08,5.6H827.1v-4.65h1.29v3.43a2.17,2.17,0,0,0,.43,1.29l0,0A.51.51,0,0,0,828.57,318.36Zm-.18-22.9V307H803.13V289a2.06,2.06,0,0,1,2.06-2.06H838.4a2.06,2.06,0,0,1,2.06,2.06v4.3h-9.91A2.16,2.16,0,0,0,828.39,295.46Zm2.16,22.9a1.21,1.21,0,0,1-1.2-1.22v-1.47h9.41v1.9a1.74,1.74,0,0,0,.19.79Zm8.21-15.06v11.42h-9.41V295.46a1.21,1.21,0,0,1,1.2-1.21h14.09a1.21,1.21,0,0,1,1.21,1.21v6.07h-5.39A1.76,1.76,0,0,0,838.76,303.3Zm8.88,14.27a.83.83,0,0,1-.83.82h-6.28a.58.58,0,0,1-.19,0,.81.81,0,0,1-.63-.79v-.22h7.93Zm0-1.17h-7.93V303.3a.82.82,0,0,1,.75-.81h6.35a.83.83,0,0,1,.83.82Z" transform="translate(-174.6 -51.6)"/><path class="cls-50" d="M778.81,278.75l-11.6-6.54a.5.5,0,0,0-.23,0h0a.42.42,0,0,0-.22,0h0l-4.59,2.58a.49.49,0,0,0,0-.12c0-5.88-3.5-8-6.79-8s-6.78,2.08-6.78,8v.12L744,272.22h0a.44.44,0,0,0-.22,0h0a.48.48,0,0,0-.23,0l-11.6,6.54a.44.44,0,0,0-.24.41v28.55a.45.45,0,0,0,.23.41.42.42,0,0,0,.24.07.44.44,0,0,0,.23-.06l11.38-6.41,11.36,6.41a.32.32,0,0,0,.09,0l.15,0a.45.45,0,0,0,.16,0l.08,0L767,301.72l11.36,6.41a.49.49,0,0,0,.23.06.45.45,0,0,0,.25-.07.47.47,0,0,0,.23-.41V279.16A.46.46,0,0,0,778.81,278.75Zm-35.53,22.16-10.65,6V279.44l10.65-6Zm11.61,6-10.66-6V273.44l4.46,2.5c.76,4.62,5.33,9.69,6.2,10.6Zm.47-21.25c-.13-.14-.29-.32-.47-.54-1.41-1.64-4.23-5.2-5.1-8.54a6.67,6.67,0,0,1-.22-1.22,5,5,0,0,1,0-.67c0-4.39,2.18-7,5.83-7s5.84,2.62,5.84,7a5,5,0,0,1,0,.67,7.69,7.69,0,0,1-.23,1.22c-.87,3.34-3.68,6.9-5.09,8.54C755.65,285.33,755.5,285.51,755.36,285.65Zm11.13,15.26-10.65,6V286.54c.87-.91,5.43-6,6.2-10.6l4.45-2.5Zm11.61,6-10.66-6V273.44l10.66,6Z" transform="translate(-174.6 -51.6)"/><path class="cls-50" d="M755.36,271.31a3.11,3.11,0,1,0,3.12,3.11A3.12,3.12,0,0,0,755.36,271.31Zm0,5.27a2.16,2.16,0,1,1,2.16-2.16A2.16,2.16,0,0,1,755.36,276.58Z" transform="translate(-174.6 -51.6)"/><path class="cls-50" d="M575.16,325.33h14.26a3.56,3.56,0,0,0,7,0h16a.48.48,0,0,0,.48-.47.49.49,0,0,0-.48-.48h-16a3.56,3.56,0,0,0-7.08,0H575.16a.49.49,0,0,0-.48.48A.48.48,0,0,0,575.16,325.33Zm17.78-3.15a2.61,2.61,0,0,1,2.58,2.2,1.93,1.93,0,0,1,0,.42,2.33,2.33,0,0,1-.06.53,2.61,2.61,0,0,1-5.12,0,2.33,2.33,0,0,1-.06-.53,1.93,1.93,0,0,1,0-.42A2.61,2.61,0,0,1,592.94,322.18Z" transform="translate(-174.6 -51.6)"/><path class="cls-50" d="M612.45,333.82H590.56a3.57,3.57,0,0,0-7.07,0h-8.33a.49.49,0,0,0-.48.48.47.47,0,0,0,.48.47h8.33a3.57,3.57,0,0,0,7.07,0h21.89a.47.47,0,0,0,.48-.47A.49.49,0,0,0,612.45,333.82Zm-22.81.48a2.42,2.42,0,0,1,0,.47,2.61,2.61,0,0,1-5.14,0,2.42,2.42,0,0,1-.05-.47,2.62,2.62,0,1,1,5.23,0Z" transform="translate(-174.6 -51.6)"/><path class="cls-50" d="M612.45,343.27h-9.17a3.57,3.57,0,0,0-7.07,0H575.16a.48.48,0,1,0,0,1h21.05a3.57,3.57,0,0,0,7.07,0h9.17a.48.48,0,1,0,0-1Zm-10.09.47a3.73,3.73,0,0,1,0,.48,2.62,2.62,0,0,1-5.15,0,3.73,3.73,0,0,1,0-.48,3.57,3.57,0,0,1,0-.47,2.62,2.62,0,0,1,5.15,0A3.57,3.57,0,0,1,602.36,343.74Z" transform="translate(-174.6 -51.6)"/><path class="cls-50" d="M612.45,352.71H599.56a3.56,3.56,0,0,0-7.06,0H575.16a.49.49,0,0,0-.48.48.48.48,0,0,0,.48.47H592.5a3.56,3.56,0,0,0,7.06,0h12.89a.48.48,0,0,0,.48-.47A.49.49,0,0,0,612.45,352.71Zm-13.8.48a2.42,2.42,0,0,1,0,.47,2.61,2.61,0,0,1-5.14,0,2.28,2.28,0,0,1,0-1,2.61,2.61,0,0,1,5.14,0A2.44,2.44,0,0,1,598.65,353.19Z" transform="translate(-174.6 -51.6)"/><path class="cls-50" d="M449.87,299.18H436a3.35,3.35,0,0,0-3.34,3.34v31.41a3.34,3.34,0,0,0,3.34,3.33h13.84a3.33,3.33,0,0,0,3.33-3.33V302.52A3.34,3.34,0,0,0,449.87,299.18Zm-13.84,1h13.84a2.39,2.39,0,0,1,2.38,2.38V332.7h-18.6V302.52A2.38,2.38,0,0,1,436,300.14Zm13.84,36.17H436a2.38,2.38,0,0,1-2.38-2.38v-.28h18.6v.28A2.39,2.39,0,0,1,449.87,336.31Z" transform="translate(-174.6 -51.6)"/><path class="cls-50" d="M435.39,310.89h5.75a1.88,1.88,0,0,0,3.63,0h5.74a.48.48,0,0,0,0-.95h-5.74a1.87,1.87,0,0,0-3.64,0h-5.74a.48.48,0,1,0,0,.95Zm7.57-1.43a.94.94,0,0,1,.81.48,1,1,0,0,1,.11.45,1,1,0,0,1-.14.5.91.91,0,0,1-.78.43.9.9,0,0,1-.78-.43.88.88,0,0,1-.16-.5.81.81,0,0,1,.13-.45A.91.91,0,0,1,443,309.46Z" transform="translate(-174.6 -51.6)"/><path class="cls-50" d="M435.39,315.19h3.05a1.88,1.88,0,0,0,3.64,0h8.43a.48.48,0,0,0,0-.95h-8.43a1.88,1.88,0,0,0-3.64,0h-3.05a.48.48,0,1,0,0,.95Zm3.94-.48a1,1,0,0,1,.13-.47.92.92,0,0,1,.8-.46.9.9,0,0,1,.8.46.86.86,0,0,1,.14.47.94.94,0,0,1-1.74.48A1,1,0,0,1,439.33,314.71Z" transform="translate(-174.6 -51.6)"/><path class="cls-50" d="M435.39,319.48h8.84a1.88,1.88,0,0,0,1.82,1.41,1.86,1.86,0,0,0,1.81-1.41h2.65A.47.47,0,0,0,451,319a.48.48,0,0,0-.47-.48h-2.65a1.86,1.86,0,0,0-1.81-1.41,1.88,1.88,0,0,0-1.82,1.41h-8.84a.48.48,0,0,0-.48.48A.47.47,0,0,0,435.39,319.48Zm9.73-.47a1,1,0,0,1,.13-.48.92.92,0,0,1,.8-.46.89.89,0,0,1,.79.46.86.86,0,0,1,.13.48.85.85,0,0,1-.13.47.89.89,0,0,1-.79.46.92.92,0,0,1-.8-.46A1,1,0,0,1,445.12,319Z" transform="translate(-174.6 -51.6)"/><path class="cls-50" d="M435.39,323.78h7.16a1.87,1.87,0,0,0,3.62,0h4.34a.48.48,0,0,0,0-.95h-4.34a1.87,1.87,0,0,0-3.62,0h-7.16a.48.48,0,1,0,0,.95Zm9-1.4a.94.94,0,0,1,.8.45,1,1,0,0,1,.13.48.82.82,0,0,1-.14.47.92.92,0,0,1-.79.45.91.91,0,0,1-.79-.45.82.82,0,0,1-.14-.47.9.9,0,0,1,.14-.48A.89.89,0,0,1,444.36,322.38Z" transform="translate(-174.6 -51.6)"/><path class="cls-50" d="M789.84,326.6l-.09-.73a12.57,12.57,0,0,0-3,.73l.27.69A11.55,11.55,0,0,1,789.84,326.6Z" transform="translate(-174.6 -51.6)"/><path class="cls-50" d="M780.73,332.92l-.65-.34a13.16,13.16,0,0,0-1.08,2.86l.72.17A11.35,11.35,0,0,1,780.73,332.92Z" transform="translate(-174.6 -51.6)"/><path class="cls-50" d="M800.78,330a12.56,12.56,0,0,0-2.29-2l-.42.6a11.92,11.92,0,0,1,2.16,1.91Z" transform="translate(-174.6 -51.6)"/><path class="cls-50" d="M803.62,335.36a12.33,12.33,0,0,0-1.09-2.85l-.65.35a11.68,11.68,0,0,1,1,2.69Z" transform="translate(-174.6 -51.6)"/><path class="cls-50" d="M795.78,326.57a12.63,12.63,0,0,0-3-.72l-.09.74a12.17,12.17,0,0,1,2.8.67Z" transform="translate(-174.6 -51.6)"/><path class="cls-50" d="M778.64,338.47a12.41,12.41,0,0,0,.38,3l.71-.18a11.43,11.43,0,0,1-.35-2.86Z" transform="translate(-174.6 -51.6)"/><path class="cls-50" d="M784.13,348.89a13,13,0,0,0,2.71,1.42l.26-.68a12.65,12.65,0,0,1-2.55-1.34Z" transform="translate(-174.6 -51.6)"/><path class="cls-50" d="M780.1,344.36a12.42,12.42,0,0,0,1.75,2.51l.54-.49a12.3,12.3,0,0,1-1.64-2.36Z" transform="translate(-174.6 -51.6)"/><path class="cls-50" d="M789.89,350.31l-.08.73a12.5,12.5,0,0,0,1.51.09,11.27,11.27,0,0,0,1.54-.1l-.09-.73A12.06,12.06,0,0,1,789.89,350.31Z" transform="translate(-174.6 -51.6)"/><path class="cls-50" d="M784.1,328a13.05,13.05,0,0,0-2.29,2l.55.49a11.82,11.82,0,0,1,2.15-1.91Z" transform="translate(-174.6 -51.6)"/><path class="cls-50" d="M804.22,346.58l5.43-5.43-5.77-1a11,11,0,0,0,.12-1.72l-.23,0-.5,0a12.14,12.14,0,0,1-.11,1.59l-6.68-1.16c0-.14,0-.28,0-.43a5.18,5.18,0,1,0-5.18,5.17,4.35,4.35,0,0,0,.63,0l2.25,13,5.43-5.42,8.68,8.7,4.6-4.6Zm-11.67-3.87-.67-3.87,3.76.64.73.13,6.67,1.15.73.12,4.36.75-4.94,4.95,8.68,8.7-3.56,3.56-8.68-8.71-5,4.95-2-11.65Zm-1.23.18a4.45,4.45,0,1,1,4.45-4.44,1.67,1.67,0,0,1,0,.31l-4.77-.83.85,4.93A4.24,4.24,0,0,1,791.32,342.89Z" transform="translate(-174.6 -51.6)"/><path class="cls-50" d="M989.11,458.3H954.45a3.07,3.07,0,0,0-3.08,3.06V484a3.08,3.08,0,0,0,3.08,3.07h11.88v5h-4.14v.83h19.18v-.83h-4.14v-5h11.88a3.08,3.08,0,0,0,3.08-3.07V461.36A3.07,3.07,0,0,0,989.11,458.3Zm-34.66.83h34.66a2.23,2.23,0,0,1,2.24,2.23v18.87H952.21V461.36A2.24,2.24,0,0,1,954.45,459.13Zm21.95,33h-9.24v-5h9.24Zm12.71-5.84H954.45a2.25,2.25,0,0,1-2.24-2.24v-2.94h39.14V484A2.24,2.24,0,0,1,989.11,486.25Z" transform="translate(-174.6 -51.6)"/><path class="cls-50" d="M959,476.41a2.27,2.27,0,0,0,2.27-2.27V474l8.45-2a2.27,2.27,0,0,0,4.36-.9,1.92,1.92,0,0,0-.08-.55l8.75-4.05a2.22,2.22,0,0,0,1.85,1,2.27,2.27,0,1,0-2.27-2.27,2,2,0,0,0,.07.55l-8.75,4.05a2.23,2.23,0,0,0-1.85-1,2.28,2.28,0,0,0-2.28,2.27v.1l-8.44,1.95a2.27,2.27,0,1,0-2.08,3.17Zm24.16-11.13a1.44,1.44,0,1,1,1.44,1.44,1.41,1.41,0,0,1-1.07-.49,1.28,1.28,0,0,1-.35-.76A1.11,1.11,0,0,1,983.14,465.28Zm-11.36,4.47a1.41,1.41,0,0,1,1.08.49,1.27,1.27,0,0,1,.34.75,1.36,1.36,0,0,1,0,.2,1.44,1.44,0,0,1-1.44,1.44,1.41,1.41,0,0,1-1.24-.73,1.36,1.36,0,0,1-.2-.71.34.34,0,0,1,0-.1A1.43,1.43,0,0,1,971.78,469.75ZM959,472.7a1.4,1.4,0,0,1,1.24.73,1.36,1.36,0,0,1,.2.71.34.34,0,0,1,0,.1,1.44,1.44,0,0,1-2.87-.1A1.45,1.45,0,0,1,959,472.7Z" transform="translate(-174.6 -51.6)"/><path class="cls-50" d="M530.79,388.13h0a.41.41,0,0,0,0-.29v0h0a20.81,20.81,0,0,0-2.81-9.28h0a.35.35,0,0,0-.05-.08l0-.06A21,21,0,0,0,509.78,368a5.06,5.06,0,0,0-.55,0,.28.28,0,0,0-.18,0h0a21,21,0,0,0-17,9.77.42.42,0,0,0-.09.14s0,0,0,0a20.79,20.79,0,0,0-3.13,9.83s0,0,0,0h0a.47.47,0,0,0,0,.31c0,.31,0,.63,0,.94a21.06,21.06,0,0,0,20.3,21h.19a5,5,0,0,0,.55,0,21.07,21.07,0,0,0,21-21C530.82,388.74,530.81,388.45,530.79,388.13Zm-1-.48A69,69,0,0,1,519,390.44c0-.4,0-.79,0-1.19a25.61,25.61,0,0,0-1.4-7.94,54,54,0,0,0,9.64-2.09,19.65,19.65,0,0,1,2.53,8.43ZM509.5,408.56a36,36,0,0,1-4.62-6.73,56.75,56.75,0,0,0,5.88.3c1.23,0,2.49,0,3.79-.13A35,35,0,0,1,509.5,408.56Zm-5.1-7.74a26.62,26.62,0,0,1-2.51-8.95,56.85,56.85,0,0,0,6.85.42,61.18,61.18,0,0,0,9.26-.73,24.24,24.24,0,0,1-2.89,9.45A55.83,55.83,0,0,1,504.4,400.82Zm-2.59-9.91a27.22,27.22,0,0,1,1.26-9.68,57.55,57.55,0,0,0,7.69.52,55.81,55.81,0,0,0,5.92-.32,25.49,25.49,0,0,1,1.41,7.83c0,.45,0,.89,0,1.33A58.13,58.13,0,0,1,501.81,390.91Zm7.68-21.37a35.3,35.3,0,0,1,6.84,11,56.58,56.58,0,0,1-13-.2A35.18,35.18,0,0,1,509.49,369.54Zm17.29,8.84a53.71,53.71,0,0,1-9.46,2A36.3,36.3,0,0,0,510.26,369h0A20,20,0,0,1,526.78,378.38ZM508.72,369a37.32,37.32,0,0,0-6.18,11.19,49,49,0,0,1-9.46-2.29A20.1,20.1,0,0,1,508.72,369Zm-16.16,9.73h0a50.1,50.1,0,0,0,9.69,2.38,28.77,28.77,0,0,0-1.3,9.68,40.52,40.52,0,0,1-11.2-3.09h0A19.76,19.76,0,0,1,492.56,378.73Zm-2.86,10a43.34,43.34,0,0,0,11.31,3,27.35,27.35,0,0,0,2.3,8.94,47.64,47.64,0,0,1-10.77-2.6.47.47,0,0,0-.59.2h0a19.9,19.9,0,0,1-2.26-9.23C489.69,388.94,489.69,388.83,489.7,388.73ZM492.36,399h0a50.36,50.36,0,0,0,11.42,2.66,35.34,35.34,0,0,0,4.93,7.42h0A20.14,20.14,0,0,1,492.36,399Zm34.39.74a20,20,0,0,1-16.47,9.35h0a35.64,35.64,0,0,0,5.43-7.22,54,54,0,0,0,11.06-2.15h0Zm.72-1.21h-.1a52.8,52.8,0,0,1-11.13,2.32,24.9,24.9,0,0,0,2.73-9.49,69.23,69.23,0,0,0,10.89-2.78h0c0,.13,0,.27,0,.42A20,20,0,0,1,527.47,398.57Z" transform="translate(-174.6 -51.6)"/><path class="cls-50" d="M536.23,313.88l-7.72.85v-8.59a3.48,3.48,0,0,0-3.46-3.48H500a3.48,3.48,0,0,0-3.47,3.48v1.24l-4.31-2.69a.47.47,0,0,0-.65.15.48.48,0,0,0,.15.66l4.81,3v28.9l-4.74,2a.48.48,0,0,0,.18.92.37.37,0,0,0,.18,0l4.38-1.81v6.23a3.47,3.47,0,0,0,3.47,3.47h25a3.48,3.48,0,0,0,3.46-3.47v-29l7.82-.86a.48.48,0,0,0-.1-.95Zm-11.18,33.3H500a2.52,2.52,0,0,1-2.52-2.52v-.53h30.06v.53A2.52,2.52,0,0,1,525.05,347.18Zm2.51-4H497.5V338l9.8-4.06-2.75,5.61a.49.49,0,0,0,.22.64.54.54,0,0,0,.21,0,.47.47,0,0,0,.43-.27l3.3-6.74v0a.28.28,0,0,0,0-.15s0,0,0,0a.46.46,0,0,0,0-.19h0l0,0a.5.5,0,0,0-.08-.12l-.05,0-.12-.07h0l-7.36-2.22a.48.48,0,0,0-.59.32.46.46,0,0,0,.32.59l6.08,1.84L497.5,337V309.09l8.14,5.07-6.17,1a.47.47,0,0,0-.39.55.48.48,0,0,0,.47.4h.08l7.4-1.24a.15.15,0,0,0,.09,0,.13.13,0,0,0,.08,0,.37.37,0,0,0,.13-.12l0,0h0l0-.05a.33.33,0,0,0,0-.14s0,0,0-.06a.53.53,0,0,0,0-.13v0L504.93,307a.47.47,0,0,0-.6-.3.49.49,0,0,0-.3.61l2,6L497.5,308v-1.83a2.52,2.52,0,0,1,2.52-2.52h25a2.52,2.52,0,0,1,2.51,2.52v8.7l-7.61.84,4.21-4.63a.48.48,0,0,0-.71-.64L518.4,316h0a.37.37,0,0,0-.07.14l0,0a.41.41,0,0,0,0,.19h0s0,0,0,0a.35.35,0,0,0,.06.14l0,.05.09.09,0,0,6.45,4.18a.42.42,0,0,0,.26.08.45.45,0,0,0,.4-.22.47.47,0,0,0-.14-.65l-5.33-3.46,7.43-.82Z" transform="translate(-174.6 -51.6)"/><path class="cls-50" d="M507.53,324.72a11.83,11.83,0,0,0-.33,1.42h0c-.11-.44-.23-.9-.39-1.43l-.68-2.2h-.68l-.71,2.25c-.14.47-.29.94-.39,1.38h0c-.08-.45-.2-.9-.32-1.39l-.58-2.24h-.82l1.32,4.39h.73l.71-2.08a14.55,14.55,0,0,0,.4-1.45h0c.11.51.24.95.39,1.44l.68,2.09h.72l1.42-4.39h-.79Z" transform="translate(-174.6 -51.6)"/><path class="cls-50" d="M514.32,324.72a12.16,12.16,0,0,0-.35,1.42h0c-.1-.44-.22-.9-.39-1.43l-.68-2.2h-.67l-.71,2.25a13.83,13.83,0,0,0-.39,1.38h0c-.09-.45-.2-.9-.33-1.39l-.57-2.24h-.82l1.32,4.39h.72l.71-2.08a14.55,14.55,0,0,0,.4-1.45h0a13.88,13.88,0,0,0,.39,1.44l.67,2.09h.73l1.41-4.39h-.79Z" transform="translate(-174.6 -51.6)"/><path class="cls-50" d="M521.09,324.72c-.14.52-.25,1-.33,1.42h0c-.09-.44-.23-.9-.39-1.43l-.67-2.2H519l-.71,2.25c-.15.47-.29.94-.39,1.38h0c-.08-.45-.2-.9-.33-1.39l-.58-2.24h-.82l1.34,4.39h.72l.71-2.08c.15-.47.28-.93.4-1.45h0a13.88,13.88,0,0,0,.39,1.44l.67,2.09h.72l1.42-4.39h-.79Z" transform="translate(-174.6 -51.6)"/><path class="cls-50" d="M492.42,455a3.49,3.49,0,0,0-2.24-1.48,3.42,3.42,0,0,0-2.46.42l-10.15-12.78a3.46,3.46,0,0,0,1-2.42,3.5,3.5,0,0,0-3.49-3.5,3.57,3.57,0,0,0-1.83.51l-8.92-10.9a3.42,3.42,0,0,0,.95-2.37,3.5,3.5,0,0,0-7,0,3.4,3.4,0,0,0,1,2.43l-8.43,10.81a3.36,3.36,0,0,0-1.76-.48,3.51,3.51,0,1,0,3.5,3.5,3.41,3.41,0,0,0-1-2.43L460,425.49a3.35,3.35,0,0,0,1.75.48,3.42,3.42,0,0,0,1.82-.52l8.92,10.9a3.43,3.43,0,0,0-.94,2.38,3.54,3.54,0,0,0,1.06,2.52l-9.2,12.61a3.47,3.47,0,0,0-1.66-.42,3.5,3.5,0,1,0,3.5,3.5,3.43,3.43,0,0,0-1.08-2.51l9.21-12.61a3.56,3.56,0,0,0,1.67.42,3.47,3.47,0,0,0,1.78-.49L487,454.52a3.29,3.29,0,0,0-.91,1.74,3.5,3.5,0,0,0,.52,2.63,3.44,3.44,0,0,0,2.24,1.48,3.08,3.08,0,0,0,.68.07,3.5,3.5,0,0,0,3.43-2.82A3.53,3.53,0,0,0,492.42,455Zm-43.36-13.71a2.55,2.55,0,1,1,1.17-4.81,2.22,2.22,0,0,1,.74.58,2.54,2.54,0,0,1-1.91,4.23ZM461.75,425a2.64,2.64,0,0,1-1.16-.27,2.55,2.55,0,0,1-.75-.59,2.5,2.5,0,0,1-.64-1.68,2.54,2.54,0,1,1,3.76,2.24A2.58,2.58,0,0,1,461.75,425Zm0,34.48a2.55,2.55,0,0,1,0-5.1,2.49,2.49,0,0,1,1.09.25,2.67,2.67,0,0,1,.77.56,2.51,2.51,0,0,1,.68,1.74A2.55,2.55,0,0,1,461.75,459.49Zm13.3-18.21A2.49,2.49,0,0,1,474,441a2.62,2.62,0,0,1-.77-.57,2.54,2.54,0,0,1-.1-3.37,2.71,2.71,0,0,1,.74-.61,2.63,2.63,0,0,1,1.22-.31,2.55,2.55,0,0,1,2.54,2.55,2.58,2.58,0,0,1-.62,1.67,2.51,2.51,0,0,1-.74.59A2.45,2.45,0,0,1,475.05,441.28Zm17,16.15a2.58,2.58,0,0,1-1.09,1.63,2.54,2.54,0,0,1-1.91.38,2.49,2.49,0,0,1-1.63-1.09,2.56,2.56,0,0,1-.38-1.91,2.47,2.47,0,0,1,.57-1.17,2.61,2.61,0,0,1,.75-.58,2.49,2.49,0,0,1,1.18-.3,2.12,2.12,0,0,1,.5.05,2.61,2.61,0,0,1,1.63,1.08,2.67,2.67,0,0,1,.42,1.42A4,4,0,0,1,492,457.43Z" transform="translate(-174.6 -51.6)"/><path class="cls-50" d="M910.6,325.62a18.77,18.77,0,0,0-18.27-18.21v-4h-1v4a18.76,18.76,0,0,0-18.27,18.21h-3.93v.95h3.92a18.77,18.77,0,0,0,18.28,18.35v3.85h1v-3.85a18.78,18.78,0,0,0,18.28-18.35h3.92v-.95Zm-1,.95A17.82,17.82,0,0,1,892.33,344v-3.85h-1V344a17.83,17.83,0,0,1-17.33-17.4h3.78v-.95h-3.78a17.85,17.85,0,0,1,17.33-17.26v3.71h1v-3.71a17.84,17.84,0,0,1,17.32,17.26h-3.77v.95Z" transform="translate(-174.6 -51.6)"/><path class="cls-50" d="M891.85,314.74a11.43,11.43,0,1,0,11.43,11.42A11.43,11.43,0,0,0,891.85,314.74Zm0,21.9a10.48,10.48,0,1,1,10.47-10.48A10.48,10.48,0,0,1,891.85,336.64Z" transform="translate(-174.6 -51.6)"/><path class="cls-50" d="M1000.56,410.78h-4.12a19.51,19.51,0,0,0-19-19v-4.17h-.95v4.17a19.51,19.51,0,0,0-19,19h-4.12v1h4.11a19.53,19.53,0,0,0,19,19.11v4h.95v-4a19.53,19.53,0,0,0,19-19.11h4.11Zm-23.14,19.11v-4h-.95v4a18.59,18.59,0,0,1-18.08-18.16h4v-1H958.4a18.54,18.54,0,0,1,18.07-18v3.87h.95v-3.87a18.54,18.54,0,0,1,18.07,18h-3.94v1h4A18.59,18.59,0,0,1,977.42,429.89Z" transform="translate(-174.6 -51.6)"/><path class="cls-50" d="M968.86,410.26a3,3,0,1,0-3-3A3,3,0,0,0,968.86,410.26Zm0-5.13a2.09,2.09,0,1,1-2.09,2.1A2.1,2.1,0,0,1,968.86,405.13Z" transform="translate(-174.6 -51.6)"/><path class="cls-50" d="M985,410.26a3,3,0,1,0-3-3A3,3,0,0,0,985,410.26Zm0-5.13a2.09,2.09,0,1,1-2.09,2.1A2.1,2.1,0,0,1,985,405.13Z" transform="translate(-174.6 -51.6)"/><path class="cls-50" d="M985,410.31a5.48,5.48,0,0,0-3.85,1.58,6.72,6.72,0,0,0-8.62-.13,5.47,5.47,0,0,0-9.18,4v2.42H970V420h13.55v-1.75h6.94v-2.42a5.5,5.5,0,0,0-5.48-5.48Zm-2.41,7.9V419H971v-2a5.8,5.8,0,0,1,1.52-3.91,4.85,4.85,0,0,1,.7-.66,5.81,5.81,0,0,1,7.37.16c.12.09.23.2.34.3s.23.25.34.37a5.8,5.8,0,0,1,1.37,3.74v1.18Zm-18.29-.95v-1.47a4.53,4.53,0,0,1,4.53-4.53,4.41,4.41,0,0,1,3,1.16A6.68,6.68,0,0,0,970,417v.23Zm25.23,0h-6V417a6.74,6.74,0,0,0-1.71-4.47,4.52,4.52,0,0,1,3.17-1.3,4.56,4.56,0,0,1,4.53,4.53Z" transform="translate(-174.6 -51.6)"/><path class="cls-50" d="M976.79,410a3.71,3.71,0,1,0-3.7-3.71A3.72,3.72,0,0,0,976.79,410Zm0-6.46a2.76,2.76,0,1,1-2.75,2.75A2.74,2.74,0,0,1,976.79,403.51Z" transform="translate(-174.6 -51.6)"/><path class="cls-50" d="M929.9,413.54a23.58,23.58,0,0,0,1.22-8c0-15.33-5.5-19.44-5.73-19.61l-.28-.2-.28.2c-.24.17-5.73,4.28-5.73,19.61a23.58,23.58,0,0,0,1.22,8l-7,3.45v5.91h2.31l1-3.7,6.24-1.83a3.7,3.7,0,0,0,2.29.81,3.65,3.65,0,0,0,2.28-.81l6.25,1.83,1,3.7h2.3V417ZM936,422h-.62l-.91-3.51-6.23-1.84a8.94,8.94,0,0,0,1.36-2.18l6.4,3.16Zm-10.84-4.72a2.84,2.84,0,0,1-1.85-.74h0a7.21,7.21,0,0,1-1.9-2.88,21.74,21.74,0,0,1-1.3-8.06c0-1.18,0-2.3.1-3.35h9.92c.06,1.06.09,2.17.09,3.35a21.77,21.77,0,0,1-1.29,8.06,7.21,7.21,0,0,1-1.9,2.88h0A2.84,2.84,0,0,1,925.11,417.23ZM914.27,422v-4.37l6.4-3.16A8.92,8.92,0,0,0,922,416.6l-6.22,1.84-.92,3.51Zm6.16-22.84c1-8,3.8-11.3,4.68-12.16.88.85,3.66,4.09,4.67,12.16Zm-.1.95h9.57c0,.38.07.77.1,1.18h-9.78C920.24,400.83,920.28,400.44,920.33,400.06Z" transform="translate(-174.6 -51.6)"/><path class="cls-50" d="M927.77,405.83a2.67,2.67,0,1,0-2.66,2.66A2.66,2.66,0,0,0,927.77,405.83Zm-2.66,1.71a1.72,1.72,0,1,1,1.71-1.71A1.72,1.72,0,0,1,925.11,407.54Z" transform="translate(-174.6 -51.6)"/><path class="cls-50" d="M923.08,395.69a2,2,0,1,0,2-2A2,2,0,0,0,923.08,395.69Zm2,1.07a1.08,1.08,0,1,1,1.07-1.07A1.08,1.08,0,0,1,925.11,396.76Z" transform="translate(-174.6 -51.6)"/><path class="cls-50" d="M925.39,419.09l-.14,0-.15,0c-.06,0-5.81,1.66-4.73,7.75l.18,1.06,1.4-1.79a9.36,9.36,0,0,0,2.82,5.87l.32.33.34-.31a9.27,9.27,0,0,0,2.82-6.15l1.62,1.55.09-1C930,426.36,930.43,421,925.39,419.09Zm1.62,4.26.21,1.38a7.91,7.91,0,0,1-2.1,6.21c-2.79-3.14-2.2-6.08-2.17-6.21l.44-2-2.2,2.82a5.63,5.63,0,0,1,4-5.48,6,6,0,0,1,3.79,5.2Z" transform="translate(-174.6 -51.6)"/><path class="cls-50" d="M456.08,396.76a.51.51,0,0,0-.11-.31l-5.11-6.07V368.86A2.91,2.91,0,0,0,448,366h-31.7a2.92,2.92,0,0,0-2.91,2.9v21.51l-5.23,6.08a.45.45,0,0,0-.12.31s0,0,0,0a2.41,2.41,0,0,0,2.4,2.38h43.27a2.4,2.4,0,0,0,2.39-2.38S456.08,396.77,456.08,396.76Zm-41.77-27.9a2,2,0,0,1,1.95-1.95H448a2,2,0,0,1,2,1.95v21.22h-35.6ZM414.05,391h36.12l4.42,5.25H409.52Zm39.63,7.19H410.41a1.45,1.45,0,0,1-1.36-1h46A1.46,1.46,0,0,1,453.68,398.22Z" transform="translate(-174.6 -51.6)"/><path class="cls-50" d="M425,392.86l-1.37,2.78h16.89l-1.3-2.78Zm.16,1.83.43-.87h13l.4.87Z" transform="translate(-174.6 -51.6)"/><path class="cls-50" d="M438.34,375.47a6.24,6.24,0,0,0-12.47,0,6.17,6.17,0,0,0,.91,3.22l-4.46,7.84,4.41-2.58,0,5.11L431,381.6a6,6,0,0,0,1.12.11,5.8,5.8,0,0,0,1.11-.11l4.23,7.46,0-5.11,4.41,2.58-4.46-7.84A6.16,6.16,0,0,0,438.34,375.47Zm-1.81,10-2.36-4.15a6.11,6.11,0,0,0,2.65-1.81l2.5,4.38-2.77-1.62Zm.09-7.3a2.57,2.57,0,0,1-.29.44,5.25,5.25,0,0,1-2.63,1.87l-.48.13-.5.08a4.67,4.67,0,0,1-1.22,0l-.51-.08-.47-.13a5.25,5.25,0,0,1-2.63-1.87,2.57,2.57,0,0,1-.29-.44,3.36,3.36,0,0,1-.27-.49,5.28,5.28,0,1,1,9.56,0A3.36,3.36,0,0,1,436.62,378.2Zm-8.93,7.3,0-3.2-2.76,1.62,2.5-4.38a6.05,6.05,0,0,0,2.65,1.81Z" transform="translate(-174.6 -51.6)"/><path class="cls-50" d="M432.11,370.53a5,5,0,0,0-4.94,4.94,4.8,4.8,0,0,0,.37,1.87,2.81,2.81,0,0,0,.26.52,2.46,2.46,0,0,0,.28.46,4.9,4.9,0,0,0,2.62,1.87,2.34,2.34,0,0,0,.49.12,2.74,2.74,0,0,0,.5.07l.42,0,.42,0a2.74,2.74,0,0,0,.5-.07,2.51,2.51,0,0,0,.49-.12,4.84,4.84,0,0,0,2.61-1.88,2.74,2.74,0,0,0,.29-.46,3,3,0,0,0,.25-.51,4.8,4.8,0,0,0,.37-1.87A4.94,4.94,0,0,0,432.11,370.53Zm3.91,5.66a3.07,3.07,0,0,1-.18.64,4.49,4.49,0,0,1-.24.56,4,4,0,0,1-2.58,1.95,4,4,0,0,1-.48.09,1.71,1.71,0,0,1-.32,0H432a1.63,1.63,0,0,1-.31,0l-.49-.09a4,4,0,0,1-2.57-1.95,2.92,2.92,0,0,1-.25-.54h0a3,3,0,0,1-.18-.65,3.38,3.38,0,0,1-.07-.72,4,4,0,1,1,8,0A3.38,3.38,0,0,1,436,376.19Z" transform="translate(-174.6 -51.6)"/><path class="cls-50" d="M696.22,284.59v-1.38h1.25v-2.72h-1.25v-9.75h1.25V268h-1.24v-1.3h3V264h-3v-.82h3v-2.51h-1.74v-1h3.46v-2.73h-4.7V255.1h-4v2.26h0l0,10.66H691v2.72h1.24l0,9.75H691v2.72h1.26v1.38a7.66,7.66,0,1,0,3.93,0Zm-2,14.07a6.69,6.69,0,0,1-1.4-13.24l.38,0v-3.07H692v-1h1.28V269.88h-1.3v-1h1.3l0-11.55v-1.3h2.06v1.71H700v.91h-3.46v2.94h1.74v.61h-3v2.72h3v.83h-3v3.13h1.26v1h-1.26v11.48h1.26v1h-1.26v3.07l.38,0a6.68,6.68,0,0,1,3.81,2.34,6.68,6.68,0,0,1-5.2,10.9Z" transform="translate(-174.6 -51.6)"/><path class="cls-50" d="M694.26,286.93a5,5,0,1,0,5,5A5,5,0,0,0,694.26,286.93Zm0,9.12a4.09,4.09,0,1,1,4.09-4.08A4.08,4.08,0,0,1,694.26,296.05Z" transform="translate(-174.6 -51.6)"/><path class="cls-50" d="M869.2,354a4.9,4.9,0,0,0-2.24-4.12v-6.49a1.18,1.18,0,1,0-2.35,0v.37c-4.6,3.59-16.15,6-17.56,6.27h0a1.39,1.39,0,0,0-1.13-.57h-8a1.41,1.41,0,0,0-1.34,1H836a2.18,2.18,0,0,0-2.17,2.17v2.73a2.17,2.17,0,0,0,2.17,2.16h.66a1.39,1.39,0,0,0,1.34,1h.48L836.48,369h6.33l.42-2.13-.15-.13c-.15-.12-3.48-3-.27-8.27h3.11a1.37,1.37,0,0,0,1.12-.57c1.4.28,13,2.68,17.57,6.28v.29a1.18,1.18,0,1,0,2.35,0v-6.4A5,5,0,0,0,869.2,354Zm-34.71,1.37V352.6a1.46,1.46,0,0,1,1.46-1.46h.6v5.65H836A1.47,1.47,0,0,1,834.49,355.33Zm8,11.83-.23,1.16h-4.9l1.81-9.82H842C839.21,363.38,841.77,366.46,842.46,367.16Zm3.46-9.36h-8a.69.69,0,0,1-.69-.7v-6.28a.7.7,0,0,1,.69-.7h8a.7.7,0,0,1,.69.69v6.3A.69.69,0,0,1,845.92,357.8Zm18.69,5.52c-4.89-3.45-15.37-5.67-17.29-6.05v-6.61c1.92-.39,12.4-2.61,17.29-6.06v18.72Zm1.65,1.18a.48.48,0,0,1-.48.47.47.47,0,0,1-.46-.47V343.35a.47.47,0,0,1,.46-.47.48.48,0,0,1,.48.47Zm.7-7.28v-6.51a4.23,4.23,0,0,1,0,6.51Z" transform="translate(-174.6 -51.6)"/><rect class="cls-50" x="663.79" y="299.85" width="3.81" height="0.71"/><rect class="cls-50" x="668.68" y="299.85" width="1.99" height="0.71"/><path class="cls-50" d="M1017.07,472.9a3.11,3.11,0,1,0,3.1,3.11A3.11,3.11,0,0,0,1017.07,472.9Zm0,5.38a2.27,2.27,0,1,1,2.27-2.27A2.28,2.28,0,0,1,1017.07,478.28Z" transform="translate(-174.6 -51.6)"/><path class="cls-50" d="M1036,472.9a3.11,3.11,0,1,0,3.11,3.11A3.11,3.11,0,0,0,1036,472.9Zm0,5.38a2.27,2.27,0,1,1,2.28-2.27A2.27,2.27,0,0,1,1036,478.28Z" transform="translate(-174.6 -51.6)"/><path class="cls-50" d="M1042.25,453.35h-30.67L1010.12,443h-6.87v.83h6.14l3.54,25h27.61Zm-1.89,9.52h-5.68L1035,459h5.84Zm-13.93-4.75h-7l-.4-3.94h7.37Zm.84-3.94h7.16l-.26,3.93h-6.9Zm-.84,4.77v3.92h-6.5l-.39-3.92Zm0,4.76V468h-6l-.43-4.29Zm.84,0h6.52l-.29,4.29h-6.23Zm0-.84V459h6.84l-.26,3.92Zm13.62-4.76H1035l.27-3.93h6.06Zm-22.66-3.93.39,3.94h-6.37l-.56-3.93Zm-5.86,4.77h6.33l.39,3.92H1013v.4Zm.67,4.76h6.14l.42,4.29h-6Zm21.3,4.29.29-4.29h5.64l-.48,4.3Z" transform="translate(-174.6 -51.6)"/><rect class="cls-50" x="838.37" y="418.88" width="20.92" height="0.83"/><rect class="cls-50" x="860.69" y="418.88" width="5.26" height="0.83"/><path class="cls-51" d="M305.75,484.78v37.38a1.17,1.17,0,0,1-.38.86,1.15,1.15,0,0,1-.8.32H240.51a1.19,1.19,0,0,1-.86-.38,1.15,1.15,0,0,1-.32-.8V484.78a1.19,1.19,0,0,1,1.18-1.18h64.06A1.19,1.19,0,0,1,305.75,484.78Z" transform="translate(-174.6 -51.6)"/><path class="cls-52" d="M305.37,523a1.15,1.15,0,0,1-.8.32H240.51a1.19,1.19,0,0,1-.86-.38l32.86-22.41Z" transform="translate(-174.6 -51.6)"/><path class="cls-53" d="M305.37,523a1.15,1.15,0,0,1-.8.32H240.51a1.19,1.19,0,0,1-.86-.38l32.89-21.85Z" transform="translate(-174.6 -51.6)"/><path class="cls-54" d="M305.37,483.92a1.15,1.15,0,0,0-.8-.32H240.51a1.19,1.19,0,0,0-.86.38l30.44,23.77a4.07,4.07,0,0,0,4.9,0Z" transform="translate(-174.6 -51.6)"/><path class="cls-55" d="M305.37,483.92a1.15,1.15,0,0,0-.8-.32H240.51a1.19,1.19,0,0,0-.86.38l30.44,22.95a4.07,4.07,0,0,0,4.9,0Z" transform="translate(-174.6 -51.6)"/><path class="cls-48" d="M1072.12,400.41a11.31,11.31,0,0,0-16,0l-4.14,4.14-4.14-4.14a11.33,11.33,0,0,0-16.15.17,11.38,11.38,0,0,0,.27,15.89l4,4L1050.55,435a2.06,2.06,0,0,0,2.92,0L1068,420.52l4.14-4.14a11.31,11.31,0,0,0,0-16Z" transform="translate(-174.6 -51.6)"/><path class="cls-48" d="M1080.58,538.72h-36.32a10.92,10.92,0,0,1,10.75-9.14h14.82A10.94,10.94,0,0,1,1080.58,538.72Z" transform="translate(-174.6 -51.6)"/><circle class="cls-48" cx="887.82" cy="467.28" r="8.37"/><rect class="cls-48" x="848.59" y="461.88" width="6.67" height="25.24"/><rect class="cls-48" x="1023.19" y="513.48" width="6.67" height="25.24" transform="translate(325.83 1501.02) rotate(-90)"/><circle class="cls-56" cx="333.81" cy="417.26" r="30.29" transform="translate(-371.88 306.65) rotate(-45)"/><path class="cls-2" d="M319.5,414.21l9.78,0s5.32-5.43,6.13-7.76c.42-1.24,0-5.22,0-5.22s3.18-.84,3.92,1.22,1.22,2.9,1.26,3.93a30.4,30.4,0,0,1-1.12,5.52l10.64.83L344.41,428H332a8,8,0,0,0-1.56-1.15c-2.59-.86-10.9,0-10.9,0Z" transform="translate(-174.6 -51.6)"/><path class="cls-2" d="M349.93,416.5h-5.77a1.92,1.92,0,0,1-1.92-1.91h0a1.92,1.92,0,0,1,1.92-1.92h5.77a1.92,1.92,0,0,1,1.92,1.92h0A1.92,1.92,0,0,1,349.93,416.5Z" transform="translate(-174.6 -51.6)"/><rect class="cls-2" x="166.58" y="364.9" width="9.61" height="3.84" rx="1.92"/><path class="cls-2" d="M347.54,424.18h-5.77a1.93,1.93,0,0,1-1.92-1.92h0a1.92,1.92,0,0,1,1.92-1.92h5.77a1.93,1.93,0,0,1,1.92,1.92h0A1.93,1.93,0,0,1,347.54,424.18Z" transform="translate(-174.6 -51.6)"/><path class="cls-2" d="M346.48,428h-5.77a1.92,1.92,0,0,1-1.92-1.92h0a1.92,1.92,0,0,1,1.92-1.91h5.77a1.92,1.92,0,0,1,1.92,1.91h0A1.93,1.93,0,0,1,346.48,428Z" transform="translate(-174.6 -51.6)"/><path class="cls-48" d="M518.52,487.37a17.71,17.71,0,1,1,17.71-17.71A17.73,17.73,0,0,1,518.52,487.37Zm0-31.76a14.06,14.06,0,1,0,14.06,14.05A14.06,14.06,0,0,0,518.52,455.61Z" transform="translate(-174.6 -51.6)"/><polygon class="cls-48" points="339.68 411.25 339.68 424.87 353.03 418.06 339.68 411.25"/><rect class="cls-57" x="911.74" y="427.28" width="56.67" height="27.27" rx="13.64"/><path class="cls-57" d="M1119.39,506.16l7.92,6.18a.55.55,0,0,0,.85-.64l-2.33-5.54Z" transform="translate(-174.6 -51.6)"/><circle class="cls-2" cx="952.59" cy="440.38" r="3.87"/><circle class="cls-2" cx="940.4" cy="440.92" r="3.87"/><circle class="cls-2" cx="928.22" cy="441.46" r="3.87"/></svg>