<svg xmlns="http://www.w3.org/2000/svg" viewBox="0 0 194.8 144.6"><defs><style>.cls-1{isolation:isolate;}.cls-2{fill:#6899fc;}.cls-3,.cls-8{fill:#e4e9fe;}.cls-4{fill:#87b7fd;}.cls-5{fill:#496dfb;}.cls-6{fill:#cbd5f0;}.cls-7{fill:#444460;opacity:0.2;mix-blend-mode:multiply;}.cls-8{opacity:0.21;}.cls-9{fill:#f9fbfc;}.cls-10{fill:#8a6fea;}.cls-11{fill:#ad86ea;}.cls-12{fill:#7558e9;}.cls-13{fill:#cfd5fd;}.cls-14{fill:#edd2a9;}.cls-15{fill:#534eb4;}.cls-16{fill:#e58a47;}.cls-17{fill:#ced3fd;}.cls-18{fill:#efc14d;}.cls-19{fill:#9fc14d;}.cls-20{fill:#cd502b;}.cls-21{fill:#fff;}.cls-22{fill:#dc4a42;}.cls-23{fill:#73cbfd;}.cls-24{fill:#df57a5;}.cls-25{fill:#efc261;}.cls-26{fill:#de4ecc;}.cls-27{fill:#e19975;}.cls-28{fill:#de5070;}.cls-29{fill:#f0c72f;}</style></defs><title>service-site-company-2</title><g class="cls-1"><g id="Слой_1" data-name="Слой 1"><path class="cls-2" d="M749.55,432.73a16.39,16.39,0,0,0,1.55-26.94,61.8,61.8,0,0,1,6.76-8c1.18-1.18,2.38-2.29,3.59-3.36.49.41,1,.83,1.43,1.27l4-2.46a4.38,4.38,0,0,1,6,1.45l4,6.54a4.38,4.38,0,0,1-1.45,6l-4,2.47a31.65,31.65,0,0,1,1.3,9.32l4.56,1.28a4.37,4.37,0,0,1,3,5.39l-2.06,7.39a4.38,4.38,0,0,1-5.4,3l-4.55-1.27a31.5,31.5,0,0,1-4.34,5.74l2.47,4a4.37,4.37,0,0,1-1.46,6l-6.54,4a4.38,4.38,0,0,1-6-1.45l-2.47-4a31.15,31.15,0,0,1-7.17,1.24A50.24,50.24,0,0,1,741,435.12,16.38,16.38,0,0,0,749.55,432.73Z" transform="translate(-585.7 -310.99)"/><rect class="cls-3" x="4.48" y="30.77" width="154.86" height="110.03" rx="6.93"/><rect class="cls-4" x="6.52" y="32.22" width="150.78" height="107.13" rx="5.49"/><rect class="cls-5" x="13.04" y="37.26" width="137.74" height="92.64" rx="3.38"/><path class="cls-3" d="M585.7,448.83a5.81,5.81,0,0,0,5.81,5.81H743.72a5.77,5.77,0,0,0,5.09-8.56H586.43" transform="translate(-585.7 -310.99)"/><path class="cls-6" d="M586.43,451.58a5.79,5.79,0,0,0,5.08,3.06H743.72a5.8,5.8,0,0,0,5.09-3.06H586.43" transform="translate(-585.7 -310.99)"/><path class="cls-7" d="M738.12,341.76H634.78v69.05a2.77,2.77,0,0,0,2.77,2.77H745v-64.9A6.92,6.92,0,0,0,738.12,341.76Z" transform="translate(-585.7 -310.99)"/><rect class="cls-8" x="52.88" y="22.75" width="120.97" height="76.73" rx="2.76"/><path class="cls-9" d="M60.48,17.57H175.92a2.76,2.76,0,0,1,2.76,2.76v71.2a2.76,2.76,0,0,1-2.76,2.76H60.48a2.76,2.76,0,0,1-2.76-2.76V20.33A2.77,2.77,0,0,1,60.48,17.57Z"/><rect class="cls-7" x="21.39" y="53.51" width="15.73" height="16.42" rx="1.73"/><rect class="cls-4" x="20.48" y="77.36" width="15.73" height="16.42" rx="1.73"/><rect class="cls-4" x="20.48" y="100.69" width="15.73" height="16.42" rx="1.73"/><path class="cls-10" d="M617.48,418.08a3.74,3.74,0,1,0-7.48,0s-.52,4,3.74,7.1C618,422,617.48,418.08,617.48,418.08Z" transform="translate(-585.7 -310.99)"/><path class="cls-9" d="M614,420.77a2.7,2.7,0,1,1,2.48-2.47A2.7,2.7,0,0,1,614,420.77Z" transform="translate(-585.7 -310.99)"/><path class="cls-10" d="M618.84,396.34a5.17,5.17,0,1,1-5.17-5.17A5.17,5.17,0,0,1,618.84,396.34Z" transform="translate(-585.7 -310.99)"/><path class="cls-9" d="M617.84,396.34a4.17,4.17,0,1,1-4.17-4.17A4.17,4.17,0,0,1,617.84,396.34Z" transform="translate(-585.7 -310.99)"/><path class="cls-11" d="M613.67,392.17a4.18,4.18,0,0,1,4,3,.16.16,0,0,0,.16.12h0a.17.17,0,0,0,.16-.21,4.5,4.5,0,0,0-8.64,0,.17.17,0,0,0,.16.21h0a.16.16,0,0,0,.16-.12A4.18,4.18,0,0,1,613.67,392.17Z" transform="translate(-585.7 -310.99)"/><path class="cls-12" d="M618.3,396.47a.5.5,0,0,0-.5.43,4.17,4.17,0,0,1-8.26,0,.51.51,0,0,0-.5-.43h0a.5.5,0,0,0-.49.56,5.17,5.17,0,0,0,10.24,0,.5.5,0,0,0-.49-.56Z" transform="translate(-585.7 -310.99)"/><path class="cls-9" d="M617.84,396.34a4.17,4.17,0,1,1-4.17-4.17A4.17,4.17,0,0,1,617.84,396.34Z" transform="translate(-585.7 -310.99)"/><path class="cls-10" d="M617.73,397.68a.16.16,0,0,0-.15.11,4.17,4.17,0,0,1-7.82,0,.17.17,0,0,0-.16-.11h0a.17.17,0,0,0-.15.23,4.5,4.5,0,0,0,8.44,0,.17.17,0,0,0-.16-.23Z" transform="translate(-585.7 -310.99)"/><path class="cls-10" d="M613.66,396.71h0a.2.2,0,0,1-.2-.21v-2.93a.2.2,0,0,1,.2-.2h0a.2.2,0,0,1,.2.2v2.93A.2.2,0,0,1,613.66,396.71Z" transform="translate(-585.7 -310.99)"/><path class="cls-10" d="M613.51,396.39h0a.22.22,0,0,1,.29,0l1.81,1.53a.2.2,0,0,1,0,.28h0a.2.2,0,0,1-.28,0l-1.81-1.53A.21.21,0,0,1,613.51,396.39Z" transform="translate(-585.7 -310.99)"/><rect class="cls-13" x="27.85" y="81.46" width="0.15" height="0.4"/><rect class="cls-13" x="27.85" y="88.77" width="0.15" height="0.4"/><rect class="cls-13" x="609.9" y="396.1" width="0.15" height="0.4" transform="translate(-372.04 695.29) rotate(-90)"/><rect class="cls-13" x="617.21" y="396.1" width="0.15" height="0.4" transform="translate(-364.73 702.6) rotate(-90)"/><rect class="cls-13" x="610.97" y="393.52" width="0.15" height="0.4" transform="translate(-685.2 236.11) rotate(-44.98)"/><rect class="cls-13" x="616.14" y="398.69" width="0.15" height="0.4" transform="translate(-687.28 241.57) rotate(-45)"/><rect class="cls-13" x="610.97" y="398.69" width="0.15" height="0.4" transform="translate(175.32 802.04) rotate(-135)"/><rect class="cls-13" x="616.14" y="393.52" width="0.15" height="0.4" transform="translate(188.17 796.79) rotate(-135.03)"/><rect class="cls-4" x="20.48" y="52.99" width="15.73" height="16.42" rx="1.73"/><polyline class="cls-14" points="19.72 67.72 21.02 66.82 21.6 64.68 20.95 64.55 20.56 65.33 20.95 61.63 20.3 61.76 19.66 65.33 18.88 67.01 19.59 67.47"/><polygon class="cls-14" points="27.39 71.57 27.56 70.02 29.46 68.11 29.9 68.72 29.2 69.5 32.83 68.63 32.83 69.41 29.46 70.71 28.77 71.92 27.39 71.57"/><polygon class="cls-15" points="3.73 110.02 10.8 144.6 16.15 144.03 12.52 142.69 13.86 142.31 11.95 110.02 3.73 110.02"/><path class="cls-15" d="M600.71,420.44s9,8.4,7.64,18.53c-1.53,8-4.78,11.08-4.78,11.08l-1-.2,1.48,3.92-4.3-4.58s5.3-7.31,2-14.91A20.48,20.48,0,0,0,591.35,424s6.16-5.59,6.59-5.45A30.84,30.84,0,0,1,600.71,420.44Z" transform="translate(-585.7 -310.99)"/><path class="cls-16" d="M588.62,421.39l15,.86s-4.87-16.76-5-17.19a10.2,10.2,0,0,0-4.87-3.58l12.61-22.79-1.86-1.29s-14.76,17.91-16.48,21.5" transform="translate(-585.7 -310.99)"/><path class="cls-14" d="M595.18,399.75s.63,1.85,1,3c0,0-3.07-.07-4.16-1.49l1.15-2.75Z" transform="translate(-585.7 -310.99)"/><path class="cls-14" d="M597.52,393.93s.91,5.29,0,6.49-4-.84-5.32-2.76-1.56-6.25.65-6.61A4.08,4.08,0,0,1,597.52,393.93Z" transform="translate(-585.7 -310.99)"/><path class="cls-16" d="M596.12,403.72s11.83-7.44,12.79-9,3.62-12.88,3.62-12.88l2.29.58s-1.33,12.69-1.71,14-12,13.74-14.7,13.74S594.79,406.78,596.12,403.72Z" transform="translate(-585.7 -310.99)"/><path class="cls-15" d="M591.15,391.28a4.47,4.47,0,0,1,4.32-1.64c2.76.52,3.45-.08,3.45-.08s-.6,3-2.5,3.71-2.42.52-2.42.52a6.53,6.53,0,0,1,1.3,1.81c.26.78-.87-1-1.3-.34s0,1.9.86,1.81.35.61,0,1.3-.86,1.55-1.38,1.3a6.11,6.11,0,0,1-3-3.46C589.77,394.05,589.59,392,591.15,391.28Z" transform="translate(-585.7 -310.99)"/><rect class="cls-3" x="65.15" y="25.6" width="36.29" height="61.17" rx="1.3"/><rect class="cls-4" x="71.37" y="30.53" width="23.5" height="5.18" rx="1.04"/><path class="cls-4" d="M664.94,375.51h-4.67a2,2,0,0,1-2-2h0a2,2,0,0,1,2-2h4.67a2,2,0,0,1,2,2h0A2,2,0,0,1,664.94,375.51Z" transform="translate(-585.7 -310.99)"/><path class="cls-10" d="M678.42,375.51h-4.67a2,2,0,0,1-2-2h0a2,2,0,0,1,2-2h4.67a2,2,0,0,1,2,2h0A2,2,0,0,1,678.42,375.51Z" transform="translate(-585.7 -310.99)"/><rect class="cls-9" x="70.85" y="40.9" width="25.23" height="3.97"/><rect class="cls-9" x="70.85" y="47.64" width="25.23" height="3.97"/><rect class="cls-17" x="76.3" y="54.12" width="14.52" height="0.91"/><path class="cls-10" d="M761.93,386.45H716.56a5.06,5.06,0,0,1-5-5.06h0a5,5,0,0,1,5-5.05h45.37a5,5,0,0,1,5.05,5.05h0A5.06,5.06,0,0,1,761.93,386.45Z" transform="translate(-585.7 -310.99)"/><path class="cls-3" d="M722.66,343.59H694.4a4.15,4.15,0,0,1-4.15-4.15h0a4.15,4.15,0,0,1,4.15-4.15h28.26a4.14,4.14,0,0,1,4.14,4.15h0A4.14,4.14,0,0,1,722.66,343.59Z" transform="translate(-585.7 -310.99)"/><path class="cls-18" d="M701.14,339.44a1.3,1.3,0,1,1-1.29-1.29A1.3,1.3,0,0,1,701.14,339.44Z" transform="translate(-585.7 -310.99)"/><path class="cls-19" d="M710,339.44a1.3,1.3,0,1,1-1.3-1.29A1.3,1.3,0,0,1,710,339.44Z" transform="translate(-585.7 -310.99)"/><path class="cls-20" d="M718.25,339.44a1.3,1.3,0,1,1-1.3-1.29A1.3,1.3,0,0,1,718.25,339.44Z" transform="translate(-585.7 -310.99)"/><circle class="cls-21" cx="28.16" cy="62.21" r="3.16"/><path class="cls-10" d="M617.14,369.39h-.56l-.8-1.13a.32.32,0,0,0-.27-.14h-3.19a.35.35,0,0,0-.28.14l-.8,1.13h-.55a1.57,1.57,0,0,0-1.57,1.57v4.58a1.57,1.57,0,0,0,1.57,1.57h6.45a1.58,1.58,0,0,0,1.57-1.57V371A1.57,1.57,0,0,0,617.14,369.39Zm-3.23,6.14a2.32,2.32,0,1,1,2.32-2.32A2.32,2.32,0,0,1,613.91,375.53Z" transform="translate(-585.7 -310.99)"/><circle class="cls-4" cx="28.21" cy="62.22" r="1.53"/><rect class="cls-3" x="115.29" y="41.09" width="27.81" height="18.27" rx="2.04"/><path class="cls-22" d="M714.93,361.07h-.06a.73.73,0,0,1-.35-.09l-10.72-6a.74.74,0,0,1-.28-1,.72.72,0,0,1,1-.28l10.39,5.77,10.39-5.77a.74.74,0,0,1,1,.28.75.75,0,0,1-.29,1l-10.72,6A.73.73,0,0,1,714.93,361.07Z" transform="translate(-585.7 -310.99)"/><rect class="cls-15" x="149.39" y="12.9" width="34.48" height="44.58" rx="1.81"/><path class="cls-23" d="M742.8,329.87h-2.3c-.12,0-.22-.2-.22-.45h0c0-.24.1-.44.22-.44h2.3c.12,0,.22.2.22.44h0C743,329.67,742.92,329.87,742.8,329.87Z" transform="translate(-585.7 -310.99)"/><path class="cls-23" d="M757,329.87H743.88c-.12,0-.22-.2-.22-.45h0c0-.24.1-.44.22-.44H757c.12,0,.22.2.22.44h0C757.24,329.67,757.14,329.87,757,329.87Z" transform="translate(-585.7 -310.99)"/><path class="cls-24" d="M748.07,331.7h-4.19c-.12,0-.22-.2-.22-.44h0c0-.25.1-.45.22-.45h4.19c.13,0,.22.2.22.45h0C748.29,331.5,748.2,331.7,748.07,331.7Z" transform="translate(-585.7 -310.99)"/><path class="cls-3" d="M755,331.7h-6c-.13,0-.22-.2-.22-.44h0c0-.25.09-.45.22-.45h6c.12,0,.22.2.22.45h0C755.19,331.5,755.09,331.7,755,331.7Z" transform="translate(-585.7 -310.99)"/><path class="cls-3" d="M757,340.64H743.88c-.12,0-.22-.2-.22-.44h0c0-.25.1-.45.22-.45H757c.12,0,.22.2.22.45h0C757.24,340.44,757.14,340.64,757,340.64Z" transform="translate(-585.7 -310.99)"/><path class="cls-23" d="M742.8,342.48h-2.3c-.12,0-.22-.2-.22-.45h0c0-.24.1-.44.22-.44h2.3c.12,0,.22.2.22.44h0C743,342.28,742.92,342.48,742.8,342.48Z" transform="translate(-585.7 -310.99)"/><path class="cls-3" d="M748.07,342.48h-4.19c-.12,0-.22-.2-.22-.45h0c0-.24.1-.44.22-.44h4.19c.13,0,.22.2.22.44h0C748.29,342.28,748.2,342.48,748.07,342.48Z" transform="translate(-585.7 -310.99)"/><path class="cls-24" d="M755,342.48h-6c-.13,0-.22-.2-.22-.45h0c0-.24.09-.44.22-.44h6c.12,0,.22.2.22.44h0C755.19,342.28,755.09,342.48,755,342.48Z" transform="translate(-585.7 -310.99)"/><path class="cls-24" d="M760.28,333.54h-16.4c-.12,0-.22-.2-.22-.45h0c0-.24.1-.44.22-.44h16.4c.12,0,.22.2.22.44h0C760.5,333.34,760.4,333.54,760.28,333.54Z" transform="translate(-585.7 -310.99)"/><rect class="cls-23" x="167.09" y="23.5" width="4.29" height="0.89" rx="0.23"/><path class="cls-3" d="M749.33,335.37h-5.45c-.12,0-.22-.2-.22-.44h0c0-.25.1-.45.22-.45h5.45c.12,0,.22.2.22.45h0C749.55,335.17,749.45,335.37,749.33,335.37Z" transform="translate(-585.7 -310.99)"/><path class="cls-23" d="M752.23,335.37h-2.16c-.12,0-.22-.2-.22-.44h0c0-.25.1-.45.22-.45h2.16c.12,0,.22.2.22.45h0C752.45,335.17,752.35,335.37,752.23,335.37Z" transform="translate(-585.7 -310.99)"/><path class="cls-3" d="M742.8,337.15h-2.3c-.12,0-.22-.2-.22-.45h0c0-.24.1-.44.22-.44h2.3c.12,0,.22.2.22.44h0C743,337,742.92,337.15,742.8,337.15Z" transform="translate(-585.7 -310.99)"/><path class="cls-3" d="M760.28,337.15h-16.4c-.12,0-.22-.2-.22-.45h0c0-.24.1-.44.22-.44h16.4c.12,0,.22.2.22.44h0C760.5,337,760.4,337.15,760.28,337.15Z" transform="translate(-585.7 -310.99)"/><path class="cls-3" d="M742.8,344.18h-2.3c-.12,0-.22-.2-.22-.45h0c0-.24.1-.44.22-.44h2.3c.12,0,.22.2.22.44h0C743,344,742.92,344.18,742.8,344.18Z" transform="translate(-585.7 -310.99)"/><rect class="cls-3" x="167.09" y="32.3" width="5.93" height="0.89" rx="0.28"/><path class="cls-3" d="M749.33,344.18h-5.45c-.12,0-.22-.2-.22-.45h0c0-.24.1-.44.22-.44h5.45c.12,0,.22.2.22.44h0C749.55,344,749.45,344.18,749.33,344.18Z" transform="translate(-585.7 -310.99)"/><path class="cls-3" d="M752.23,344.18h-2.16c-.12,0-.22-.2-.22-.45h0c0-.24.1-.44.22-.44h2.16c.12,0,.22.2.22.44h0C752.45,344,752.35,344.18,752.23,344.18Z" transform="translate(-585.7 -310.99)"/><path class="cls-25" d="M742.8,346h-2.3c-.12,0-.22-.2-.22-.44h0c0-.25.1-.45.22-.45h2.3c.12,0,.22.2.22.45h0C743,345.75,742.92,346,742.8,346Z" transform="translate(-585.7 -310.99)"/><path class="cls-23" d="M746.72,346h-2.84c-.12,0-.22-.2-.22-.44h0c0-.25.1-.45.22-.45h2.84c.12,0,.22.2.22.45h0C746.94,345.75,746.84,346,746.72,346Z" transform="translate(-585.7 -310.99)"/><path class="cls-23" d="M740.5,339c-.12,0-.22-.2-.22-.44h0c0-.25.1-.45.22-.45h2.3c.12,0,.22.2.22.45h0c0,.24-.1.44-.22.44" transform="translate(-585.7 -310.99)"/><rect class="cls-3" x="167.09" y="27.11" width="6.7" height="0.89" rx="0.29"/><path class="cls-25" d="M749.33,339h-5.45c-.12,0-.22-.2-.22-.44h0c0-.25.1-.45.22-.45h5.45c.12,0,.22.2.22.45h0C749.55,338.78,749.45,339,749.33,339Z" transform="translate(-585.7 -310.99)"/><path class="cls-25" d="M752.23,339h-2.16c-.12,0-.22-.2-.22-.44h0c0-.25.1-.45.22-.45h2.16c.12,0,.22.2.22.45h0C752.45,338.78,752.35,339,752.23,339Z" transform="translate(-585.7 -310.99)"/><path class="cls-3" d="M757,347.84H743.88c-.12,0-.22-.2-.22-.45h0c0-.24.1-.44.22-.44H757c.12,0,.22.2.22.44h0C757.24,347.64,757.14,347.84,757,347.84Z" transform="translate(-585.7 -310.99)"/><path class="cls-3" d="M748.07,349.67h-4.19c-.12,0-.22-.2-.22-.44h0c0-.25.1-.45.22-.45h4.19c.13,0,.22.2.22.45h0C748.29,349.47,748.2,349.67,748.07,349.67Z" transform="translate(-585.7 -310.99)"/><path class="cls-3" d="M755,349.67h-6c-.13,0-.22-.2-.22-.44h0c0-.25.09-.45.22-.45h6c.12,0,.22.2.22.45h0C755.19,349.47,755.09,349.67,755,349.67Z" transform="translate(-585.7 -310.99)"/><path class="cls-3" d="M757,358.61H743.88c-.12,0-.22-.2-.22-.44h0c0-.25.1-.45.22-.45H757c.12,0,.22.2.22.45h0C757.24,358.41,757.14,358.61,757,358.61Z" transform="translate(-585.7 -310.99)"/><path class="cls-24" d="M742.8,360.45h-2.3c-.12,0-.22-.2-.22-.45h0c0-.24.1-.44.22-.44h2.3c.12,0,.22.2.22.44h0C743,360.25,742.92,360.45,742.8,360.45Z" transform="translate(-585.7 -310.99)"/><path class="cls-23" d="M748.07,360.45h-4.19c-.12,0-.22-.2-.22-.45h0c0-.24.1-.44.22-.44h4.19c.13,0,.22.2.22.44h0C748.29,360.25,748.2,360.45,748.07,360.45Z" transform="translate(-585.7 -310.99)"/><path class="cls-3" d="M755,360.45h-6c-.13,0-.22-.2-.22-.45h0c0-.24.09-.44.22-.44h6c.12,0,.22.2.22.44h0C755.19,360.25,755.09,360.45,755,360.45Z" transform="translate(-585.7 -310.99)"/><path class="cls-24" d="M742.8,351.51h-2.3c-.12,0-.22-.2-.22-.45h0c0-.24.1-.44.22-.44h2.3c.12,0,.22.2.22.44h0C743,351.31,742.92,351.51,742.8,351.51Z" transform="translate(-585.7 -310.99)"/><rect class="cls-24" x="157.96" y="39.63" width="12.22" height="0.89" rx="0.27"/><path class="cls-3" d="M742.8,353.34h-2.3c-.12,0-.22-.19-.22-.44h0c0-.24.1-.44.22-.44h2.3c.12,0,.22.2.22.44h0C743,353.15,742.92,353.34,742.8,353.34Z" transform="translate(-585.7 -310.99)"/><path class="cls-3" d="M749.33,353.34h-5.45c-.12,0-.22-.19-.22-.44h0c0-.24.1-.44.22-.44h5.45c.12,0,.22.2.22.44h0C749.55,353.15,749.45,353.34,749.33,353.34Z" transform="translate(-585.7 -310.99)"/><path class="cls-3" d="M752.23,353.34h-2.16c-.12,0-.22-.19-.22-.44h0c0-.24.1-.44.22-.44h2.16c.12,0,.22.2.22.44h0C752.45,353.15,752.35,353.34,752.23,353.34Z" transform="translate(-585.7 -310.99)"/><path class="cls-3" d="M742.8,355.12h-2.3c-.12,0-.22-.2-.22-.44h0c0-.25.1-.45.22-.45h2.3c.12,0,.22.2.22.45h0C743,354.92,742.92,355.12,742.8,355.12Z" transform="translate(-585.7 -310.99)"/><rect class="cls-3" x="157.96" y="43.24" width="15.39" height="0.89" rx="0.3"/><path class="cls-3" d="M742.8,362.15h-2.3c-.12,0-.22-.2-.22-.45h0c0-.24.1-.44.22-.44h2.3c.12,0,.22.2.22.44h0C743,362,742.92,362.15,742.8,362.15Z" transform="translate(-585.7 -310.99)"/><path class="cls-3" d="M760.26,362.15H753c-.12,0-.22-.2-.22-.45h0c0-.24.1-.44.22-.44h7.25c.12,0,.22.2.22.44h0C760.48,362,760.38,362.15,760.26,362.15Z" transform="translate(-585.7 -310.99)"/><path class="cls-3" d="M749.33,362.15h-5.45c-.12,0-.22-.2-.22-.45h0c0-.24.1-.44.22-.44h5.45c.12,0,.22.2.22.44h0C749.55,362,749.45,362.15,749.33,362.15Z" transform="translate(-585.7 -310.99)"/><path class="cls-3" d="M752.23,362.15h-2.16c-.12,0-.22-.2-.22-.45h0c0-.24.1-.44.22-.44h2.16c.12,0,.22.2.22.44h0C752.45,362,752.35,362.15,752.23,362.15Z" transform="translate(-585.7 -310.99)"/><rect class="cls-25" x="157.96" y="52.05" width="10.16" height="0.89" rx="0.24"/><rect class="cls-24" x="167.09" y="45.08" width="7.09" height="0.89" rx="0.3"/><path class="cls-25" d="M749.33,357h-5.45c-.12,0-.22-.2-.22-.45h0c0-.24.1-.44.22-.44h5.45c.12,0,.22.2.22.44h0C749.55,356.76,749.45,357,749.33,357Z" transform="translate(-585.7 -310.99)"/><path class="cls-25" d="M752.23,357h-2.16c-.12,0-.22-.2-.22-.45h0c0-.24.1-.44.22-.44h2.16c.12,0,.22.2.22.44h0C752.45,356.76,752.35,357,752.23,357Z" transform="translate(-585.7 -310.99)"/><circle class="cls-26" cx="181.09" cy="13.82" r="7.26"/><path class="cls-9" d="M766.27,324.13l-2.89,1.05,2.89,1.05v1.08l-4.12-1.56v-1.13l4.12-1.56Z" transform="translate(-585.7 -310.99)"/><path class="cls-9" d="M767.21,323.06l4.12,1.56v1.13l-4.12,1.56v-1.08l2.88-1.05-2.88-1.05Z" transform="translate(-585.7 -310.99)"/><circle class="cls-18" cx="718.78" cy="447.19" r="7.87" transform="translate(-712.8 169.53) rotate(-34.14)"/><path class="cls-21" d="M722.94,446.74a3.8,3.8,0,0,1-.23,1.34,2.28,2.28,0,0,1-.66,1,1.55,1.55,0,0,1-1,.34,1.21,1.21,0,0,1-.66-.18,1,1,0,0,1-.42-.47h-.08a1.78,1.78,0,0,1-1.4.65,1.87,1.87,0,0,1-1.42-.54,2,2,0,0,1-.52-1.48,2.25,2.25,0,0,1,.68-1.73A2.45,2.45,0,0,1,719,445a7,7,0,0,1,1,.08,6.56,6.56,0,0,1,.86.2l-.11,2.49c0,.47.13.71.38.71s.39-.16.52-.48a3.28,3.28,0,0,0,.2-1.24,3.07,3.07,0,0,0-.34-1.45,2.34,2.34,0,0,0-1-1,3,3,0,0,0-1.42-.33,3.6,3.6,0,0,0-1.78.42,2.87,2.87,0,0,0-1.17,1.22,4,4,0,0,0-.4,1.84,2.92,2.92,0,0,0,.75,2.16,3,3,0,0,0,2.18.75,6.47,6.47,0,0,0,1.18-.12,8,8,0,0,0,1.27-.35v1a6.06,6.06,0,0,1-2.41.46,4.23,4.23,0,0,1-3-1,3.68,3.68,0,0,1-1.08-2.83,4.72,4.72,0,0,1,.55-2.28,4.05,4.05,0,0,1,1.57-1.61,4.65,4.65,0,0,1,2.35-.58,4.19,4.19,0,0,1,2,.46,3.22,3.22,0,0,1,1.36,1.3A3.86,3.86,0,0,1,722.94,446.74Zm-5.21.64c0,.71.29,1.07.87,1.07a.83.83,0,0,0,.7-.32,2,2,0,0,0,.29-1.05l.07-1.13a2.65,2.65,0,0,0-.59-.05,1.28,1.28,0,0,0-1,.39A1.62,1.62,0,0,0,717.73,447.38Z" transform="translate(-585.7 -310.99)"/><path class="cls-10" d="M679.22,311H629.83a7.26,7.26,0,0,0,0,14.52h3.63L637,329l3.51-3.51h38.74a7.26,7.26,0,0,0,0-14.52Z" transform="translate(-585.7 -310.99)"/><path class="cls-21" d="M665.09,320.57h-32.5a.82.82,0,0,1-.82-.82h0a.82.82,0,0,1,.82-.81h32.5a.81.81,0,0,1,.81.81h0A.82.82,0,0,1,665.09,320.57Z" transform="translate(-585.7 -310.99)"/><path class="cls-21" d="M654.93,316.1H632.59a.82.82,0,0,1-.82-.82h0a.82.82,0,0,1,.82-.81h22.34a.81.81,0,0,1,.81.81h0A.82.82,0,0,1,654.93,316.1Z" transform="translate(-585.7 -310.99)"/><path class="cls-14" d="M746.73,403s-.6,1.79-.94,2.87c0,0,3-.06,4-1.44l-1.11-2.64Z" transform="translate(-585.7 -310.99)"/><polygon class="cls-27" points="160.58 141.49 160.83 142.62 162.47 142.71 162.12 141.33 160.58 141.49"/><path class="cls-15" d="M746.54,453.6s-2.74,1.43-2.72,1.52,4.63-.39,4.63-.39l-.28-1Z" transform="translate(-585.7 -310.99)"/><polygon class="cls-27" points="174.4 139.22 175.04 140.18 176.6 139.68 175.78 138.51 174.4 139.22"/><path class="cls-15" d="M760.74,451.16s-2,2.32-2,2.4,4.17-2,4.17-2l-.63-.87Z" transform="translate(-585.7 -310.99)"/><path class="cls-18" d="M743.25,422.66S738.55,438,746,452.78h2.21s-4.42-16.72,1.1-30.26Z" transform="translate(-585.7 -310.99)"/><path class="cls-18" d="M747.32,423.2s.73,16,12.73,27.44l2.08-.74S752.35,435.64,753,421Z" transform="translate(-585.7 -310.99)"/><path class="cls-27" d="M745.17,387.09v-.94a.5.5,0,0,0,0-.12l-.18-.68-.54.14-.55-.51a.47.47,0,0,0-.74.14,5.06,5.06,0,0,0-.42,1.18.47.47,0,0,0,.12.39l.84.92a.48.48,0,0,0,.48.13l.67-.2A.47.47,0,0,0,745.17,387.09Z" transform="translate(-585.7 -310.99)"/><path class="cls-28" d="M753.27,407.83s-6.12-6.56-6.53-9-1.29-11.6-1.29-11.6l-1.89.36s-.65,13.08-.08,14.59,4.26,9.18,6.66,9.89S754.22,410.39,753.27,407.83Z" transform="translate(-585.7 -310.99)"/><path class="cls-27" d="M744.76,397s-1.38,4.6-.5,5.76,4.1.11,5.35-1.75,1.5-6-.63-6.37S745.27,395.15,744.76,397Z" transform="translate(-585.7 -310.99)"/><path class="cls-28" d="M753.05,423.9s1.25-13.26,1.25-16.86c0-.16,0-.32,0-.47a3.54,3.54,0,0,0-4.14-2.11,29.61,29.61,0,0,0-4.49,1.48h0a8.92,8.92,0,0,0-2.27,2.22,21.44,21.44,0,0,0-.41,15.2Z" transform="translate(-585.7 -310.99)"/><path class="cls-27" d="M735.49,387.77l-.16-.93a.53.53,0,0,0,0-.12l-.3-.63-.51.23-.63-.4a.46.46,0,0,0-.7.26,5.65,5.65,0,0,0-.21,1.24.45.45,0,0,0,.19.36l1,.76a.5.5,0,0,0,.5,0l.62-.31A.45.45,0,0,0,735.49,387.77Z" transform="translate(-585.7 -310.99)"/><path class="cls-28" d="M747.11,406.77s-7.18-5.39-8-7.74-3.32-11.19-3.32-11.19l-1.79.69s1.66,13,2.49,14.37,5.8,8.29,8.28,8.56S748.5,409.12,747.11,406.77Z" transform="translate(-585.7 -310.99)"/><path class="cls-15" d="M749.88,394.61s-3.69-1.57-5.44,1.66c-.92,2,2,.09,2.58.73s-.74,1.94-.37,2.4,1-.83,1.38-.09-.55.83-1.19,1.65.55,2-.37,2.77S743,405,744.53,409s-2.57,5-.82,10.41,13.63,8.47,15.84,2-5.16-8-4.7-10.87,2.12-3.59-.09-6.44-3.59-4.52-3-6.36A2.41,2.41,0,0,0,749.88,394.61Z" transform="translate(-585.7 -310.99)"/><path class="cls-29" d="M759.92,372.34a7.92,7.92,0,1,0,7.93,7.92A7.92,7.92,0,0,0,759.92,372.34Zm-4,7.3a1,1,0,1,1,1,1A1,1,0,0,1,755.92,379.64Zm4,4.94a2.52,2.52,0,0,1-2.49-2.18h5A2.52,2.52,0,0,1,759.92,384.58Zm3-4a1,1,0,1,1,1-1A1,1,0,0,1,763,380.61Z" transform="translate(-585.7 -310.99)"/><polygon class="cls-9" points="56.57 125.61 56.1 124.68 68.66 118.4 84.5 118.66 101.7 112.18 114.83 112.18 128.86 107.51 128.97 107.52 140.22 108.8 146.56 105.5 147.04 106.42 140.42 109.86 140.26 109.84 128.97 108.56 114.92 113.22 101.79 113.22 84.68 119.7 84.58 119.7 68.9 119.44 56.57 125.61"/><path class="cls-15" d="M688.35,411.72s12.45,20.15,10.89,34.17l8.47.17-3.63-2.1,1-.17s-3.11-21.73-6-29.44c-3.08-8.08-4-5.09-4-5.09Z" transform="translate(-585.7 -310.99)"/><path class="cls-15" d="M683.86,410.47s.69,14-.35,19.35-4.14,15.9-4.14,15.9l8,.17-2.09-1.47-1.33-.77s5.66-15.21,6.18-22.47a96.09,96.09,0,0,1,1.38-11.41Z" transform="translate(-585.7 -310.99)"/><polyline class="cls-14" points="114.42 58.05 115.72 57.14 116.3 55 115.65 54.87 115.26 55.65 115.65 51.96 115 52.09 114.36 55.65 113.58 57.34 114.29 57.79"/><polygon class="cls-14" points="122.09 61.89 122.26 60.34 124.16 58.44 124.59 59.04 123.9 59.82 127.53 58.95 127.53 59.73 124.16 61.03 123.47 62.24 122.09 61.89"/><path class="cls-4" d="M699.23,367.73s-14.76,17.91-16.48,21.49c0,0-.72,1.29-.72,5s1.29,17.48,1.29,17.48l15,.86s-4.87-16.76-5-17.19a10.2,10.2,0,0,0-4.87-3.58L701.09,369Z" transform="translate(-585.7 -310.99)"/><path class="cls-14" d="M689.88,390.07s.63,1.86,1,3c0,0-3.07-.06-4.15-1.49l1.15-2.75Z" transform="translate(-585.7 -310.99)"/><path class="cls-14" d="M692.22,384.26s.91,5.28,0,6.49-4-.84-5.32-2.77-1.56-6.25.65-6.61A4.08,4.08,0,0,1,692.22,384.26Z" transform="translate(-585.7 -310.99)"/><path class="cls-4" d="M690.82,394.05s11.83-7.45,12.79-9,3.62-12.88,3.62-12.88l2.29.57s-1.33,12.69-1.72,14-12,13.74-14.69,13.74S689.49,397.1,690.82,394.05Z" transform="translate(-585.7 -310.99)"/><path class="cls-15" d="M691.38,383.08s.6-2.08-.69-3.11a4.17,4.17,0,0,0-3.89-.52c0,.6,1.38.95,1,1.29s-2.16,0-2.59,1.82.18,2.16.18,2.16a2.15,2.15,0,0,0,.17,2.68c1.12,1.55,3.66,2.83,4.29,2.67s.29-2.59.29-2.59-1.47-.17-1.56-1.12.69-1,1-.69.43,1.12.69.95-.09-2-.09-2A3.73,3.73,0,0,0,691.38,383.08Z" transform="translate(-585.7 -310.99)"/><path class="cls-10" d="M698.34,436l-8.88,2.44a4.62,4.62,0,0,0-3.23,5.66l1.68,6.13a4.62,4.62,0,0,0,5.66,3.22l2.67-.73,2.62,2.6.94-3.57,2.66-.73a4.62,4.62,0,0,0,3.22-5.66L704,439.24A4.62,4.62,0,0,0,698.34,436Z" transform="translate(-585.7 -310.99)"/><path class="cls-21" d="M692.46,446.06a1,1,0,1,1-1.25-.72A1,1,0,0,1,692.46,446.06Z" transform="translate(-585.7 -310.99)"/><path class="cls-21" d="M696.94,444.83a1,1,0,0,1-2,.54,1,1,0,1,1,2-.54Z" transform="translate(-585.7 -310.99)"/><path class="cls-21" d="M701.42,443.6a1,1,0,1,1-1.25-.71A1,1,0,0,1,701.42,443.6Z" transform="translate(-585.7 -310.99)"/><circle class="cls-18" cx="68.69" cy="118.66" r="1.64"/><circle class="cls-28" cx="129" cy="108.12" r="1.64"/></g></g></svg>