<svg xmlns="http://www.w3.org/2000/svg" xmlns:xlink="http://www.w3.org/1999/xlink" viewBox="0 0 121.11 113.28"><defs><style>.cls-1{isolation:isolate;}.cls-2{fill:#cb4037;}.cls-3{opacity:0.45;fill:url(#linear-gradient);}.cls-4{fill:url(#linear-gradient-2);}.cls-5{fill:url(#linear-gradient-3);}.cls-6{fill:url(#linear-gradient-4);}.cls-7{fill:url(#linear-gradient-5);}.cls-8{fill:url(#linear-gradient-6);}.cls-9{fill:url(#linear-gradient-7);}.cls-10{fill:url(#linear-gradient-8);}.cls-11{fill:url(#linear-gradient-9);}.cls-12{fill:url(#linear-gradient-10);}.cls-13,.cls-16,.cls-29,.cls-42,.cls-44,.cls-46,.cls-47,.cls-48,.cls-52,.cls-53,.cls-54,.cls-56,.cls-57,.cls-58,.cls-64,.cls-65,.cls-66,.cls-67,.cls-68,.cls-70{mix-blend-mode:multiply;}.cls-13{fill:url(#linear-gradient-11);}.cls-14,.cls-47{fill:#c6cada;}.cls-15{fill:#fff;}.cls-16{fill:url(#linear-gradient-12);}.cls-17{fill:#2c2c2c;}.cls-18{fill:#262626;}.cls-19{fill:url(#linear-gradient-13);}.cls-20{fill:#e79c64;}.cls-21{fill:#ecb78e;}.cls-22{fill:#acb4ce;}.cls-23{fill:#c7c7c7;}.cls-24{fill:none;}.cls-25{fill:#311712;}.cls-26{fill:#dd514d;}.cls-27{fill:#e19896;}.cls-28,.cls-29{fill:#606060;}.cls-29{opacity:0.35;}.cls-30{fill:#3d3d3d;}.cls-31{fill:url(#linear-gradient-14);}.cls-32{opacity:0.54;}.cls-33{fill:#e1ccc8;}.cls-34{fill:url(#linear-gradient-15);}.cls-35{fill:url(#linear-gradient-16);}.cls-36{fill:url(#linear-gradient-17);}.cls-37{fill:url(#linear-gradient-18);}.cls-38{fill:#eed9c0;}.cls-39{fill:#141414;}.cls-40,.cls-42{fill:#f3d4c9;}.cls-41{fill:#e7d6c1;}.cls-42,.cls-65{opacity:0.47;}.cls-43{fill:#4759b0;}.cls-44{fill:#5a9e43;}.cls-44,.cls-66{opacity:0.12;}.cls-45{fill:#4e65b5;}.cls-46{fill:#5fa649;}.cls-46,.cls-67{opacity:0.2;}.cls-48{fill:#e9a64d;}.cls-48,.cls-58,.cls-68{opacity:0.23;}.cls-49,.cls-53,.cls-64{fill:#e1c0a9;}.cls-50{fill:#ebc72f;}.cls-51{fill:#212122;}.cls-52{fill:#2f3031;opacity:0.25;}.cls-53{opacity:0.32;}.cls-54{fill:#373839;opacity:0.34;}.cls-55{fill:#212222;}.cls-56{fill:#9e9e9e;}.cls-56,.cls-57{opacity:0.4;}.cls-57{fill:#424b7a;}.cls-58{fill:#563533;}.cls-59{fill:#3c1c14;}.cls-60{fill:#d1b79d;}.cls-61{fill:#dec3a6;}.cls-62{fill:#3d2614;}.cls-63,.cls-65{fill:#f6dfca;}.cls-64{opacity:0.77;}.cls-66{fill:#5a9e8e;}.cls-67{fill:#5fa69b;}.cls-68{fill:#f0c650;}.cls-69{fill:#edbc88;}.cls-71{fill:url(#linear-gradient-19);}.cls-72{fill:url(#linear-gradient-20);}.cls-73{fill:url(#linear-gradient-21);}.cls-74{fill:#dadada;}.cls-75{fill:url(#linear-gradient-22);}.cls-76{fill:url(#linear-gradient-23);}.cls-77{fill:url(#linear-gradient-24);}.cls-78{fill:url(#linear-gradient-25);}.cls-79{fill:url(#linear-gradient-26);}.cls-80{fill:url(#linear-gradient-27);}.cls-81{fill:url(#linear-gradient-28);}.cls-82{fill:url(#linear-gradient-29);}.cls-83{fill:url(#linear-gradient-30);}.cls-84{fill:url(#linear-gradient-31);}.cls-85{fill:url(#linear-gradient-32);}.cls-86{fill:url(#linear-gradient-33);}.cls-87{fill:url(#linear-gradient-34);}.cls-88{fill:url(#linear-gradient-35);}.cls-89{fill:url(#linear-gradient-36);}.cls-90{fill:url(#linear-gradient-37);}.cls-91{fill:url(#linear-gradient-38);}.cls-92{fill:url(#linear-gradient-39);}.cls-93{fill:url(#linear-gradient-40);}.cls-94{fill:url(#linear-gradient-41);}.cls-95{fill:url(#linear-gradient-42);}.cls-96{fill:url(#linear-gradient-43);}.cls-97{fill:url(#linear-gradient-44);}.cls-98{fill:url(#linear-gradient-45);}.cls-99{fill:url(#linear-gradient-46);}.cls-100{fill:url(#linear-gradient-47);}.cls-101{fill:url(#linear-gradient-48);}.cls-102{fill:url(#linear-gradient-49);}.cls-103{fill:url(#linear-gradient-50);}</style><linearGradient id="linear-gradient" x1="698.25" y1="356.75" x2="686.59" y2="402.76" gradientUnits="userSpaceOnUse"><stop offset="0" stop-color="#fff"/><stop offset="1" stop-color="#c4c4c4"/></linearGradient><linearGradient id="linear-gradient-2" x1="822.55" y1="453.78" x2="822.55" y2="485.8" gradientTransform="translate(744.57 1329.8) rotate(-122.52)" gradientUnits="userSpaceOnUse"><stop offset="0" stop-color="#c21f0f"/><stop offset="1" stop-color="#a90029"/></linearGradient><linearGradient id="linear-gradient-3" x1="808" y1="465.25" x2="808" y2="484" xlink:href="#linear-gradient-2"/><linearGradient id="linear-gradient-4" x1="824.79" y1="457.29" x2="824.79" y2="505.77" gradientTransform="translate(744.57 1329.8) rotate(-122.52)" gradientUnits="userSpaceOnUse"><stop offset="0" stop-color="#dd502d"/><stop offset="1" stop-color="#c21f0f"/></linearGradient><linearGradient id="linear-gradient-5" x1="829.21" y1="432.3" x2="837.15" y2="441.57" gradientTransform="translate(120.97 1002.38) rotate(-122.52)" xlink:href="#linear-gradient"/><linearGradient id="linear-gradient-6" x1="837" y1="435.69" x2="826.49" y2="443.36" gradientTransform="translate(120.97 1002.38) rotate(-122.52)" gradientUnits="userSpaceOnUse"><stop offset="0" stop-color="#d9d9d9"/><stop offset="1" stop-color="#aaa"/></linearGradient><linearGradient id="linear-gradient-7" x1="833.23" y1="416.04" x2="833.23" y2="458.57" gradientTransform="translate(120.97 1002.38) rotate(-122.52)" xlink:href="#linear-gradient"/><linearGradient id="linear-gradient-8" x1="816.68" y1="439.74" x2="812.1" y2="457.82" gradientTransform="translate(120.97 1002.38) rotate(-122.52)" xlink:href="#linear-gradient"/><linearGradient id="linear-gradient-9" x1="816.23" y1="444.2" x2="802.42" y2="458.21" xlink:href="#linear-gradient-6"/><linearGradient id="linear-gradient-10" x1="809.35" y1="451.46" x2="809.35" y2="424.61" gradientTransform="translate(120.97 1002.38) rotate(-122.52)" xlink:href="#linear-gradient"/><linearGradient id="linear-gradient-11" x1="706.93" y1="376.78" x2="710.37" y2="376.78" gradientTransform="matrix(1, 0, 0, 1, 0, 0)" xlink:href="#linear-gradient-2"/><linearGradient id="linear-gradient-12" x1="699.01" y1="374.16" x2="705.96" y2="374.16" gradientTransform="matrix(1, 0, 0, 1, 0, 0)" xlink:href="#linear-gradient-2"/><linearGradient id="linear-gradient-13" x1="696.16" y1="342.17" x2="703.74" y2="342.17" gradientTransform="matrix(1, 0, 0, 1, 0, 0)" xlink:href="#linear-gradient-4"/><linearGradient id="linear-gradient-14" x1="662.38" y1="440.04" x2="667.29" y2="440.04" gradientTransform="translate(241.3 -300.89) rotate(20.57)" xlink:href="#linear-gradient-4"/><linearGradient id="linear-gradient-15" x1="638.32" y1="410.86" x2="602.9" y2="418.28" gradientTransform="matrix(1, 0, 0, 1, 0, 0)" xlink:href="#linear-gradient-4"/><linearGradient id="linear-gradient-16" x1="657.18" y1="384.79" x2="629.43" y2="372.54" gradientTransform="matrix(1, 0, 0, 1, 0, 0)" xlink:href="#linear-gradient-4"/><linearGradient id="linear-gradient-17" x1="674.1" y1="433.27" x2="629.93" y2="454.43" gradientTransform="matrix(1, 0, 0, 1, 0, 0)" xlink:href="#linear-gradient-4"/><linearGradient id="linear-gradient-18" x1="713.56" y1="425.45" x2="734.63" y2="436.51" gradientTransform="matrix(1, 0, 0, 1, 0, 0)" xlink:href="#linear-gradient-4"/><linearGradient id="linear-gradient-19" x1="117.72" y1="55.02" x2="100.78" y2="68.56" xlink:href="#linear-gradient"/><linearGradient id="linear-gradient-20" x1="113.04" y1="54.59" x2="113.04" y2="67.97" gradientTransform="matrix(1, 0, 0, 1, 0, 0)" xlink:href="#linear-gradient-4"/><linearGradient id="linear-gradient-21" x1="101.56" y1="67.66" x2="101.56" y2="48.45" gradientTransform="matrix(1, 0, 0, 1, 0, 0)" xlink:href="#linear-gradient-4"/><linearGradient id="linear-gradient-22" x1="106.89" y1="59.46" x2="122.63" y2="50.37" gradientTransform="matrix(1, 0, 0, 1, 0, 0)" xlink:href="#linear-gradient-6"/><linearGradient id="linear-gradient-23" x1="110.56" y1="60.14" x2="90.21" y2="50.65" xlink:href="#linear-gradient"/><linearGradient id="linear-gradient-24" x1="116.66" y1="43.46" x2="100.79" y2="56.15" xlink:href="#linear-gradient"/><linearGradient id="linear-gradient-25" x1="100.97" y1="55.24" x2="113.54" y2="46.19" xlink:href="#linear-gradient"/><linearGradient id="linear-gradient-26" x1="114.85" y1="54.8" x2="99.62" y2="45.27" xlink:href="#linear-gradient"/><linearGradient id="linear-gradient-27" x1="114.04" y1="46.96" x2="103.58" y2="55.31" xlink:href="#linear-gradient"/><linearGradient id="linear-gradient-28" x1="111.28" y1="46.9" x2="111.28" y2="54.84" gradientTransform="matrix(1, 0, 0, 1, 0, 0)" xlink:href="#linear-gradient-4"/><linearGradient id="linear-gradient-29" x1="104.47" y1="54.66" x2="104.47" y2="43.26" gradientTransform="matrix(1, 0, 0, 1, 0, 0)" xlink:href="#linear-gradient-4"/><linearGradient id="linear-gradient-30" x1="107.63" y1="49.8" x2="116.97" y2="44.4" gradientTransform="matrix(1, 0, 0, 1, 0, 0)" xlink:href="#linear-gradient-6"/><linearGradient id="linear-gradient-31" x1="109.81" y1="50.2" x2="97.74" y2="44.56" xlink:href="#linear-gradient"/><linearGradient id="linear-gradient-32" x1="113.43" y1="40.3" x2="104.01" y2="47.83" xlink:href="#linear-gradient"/><linearGradient id="linear-gradient-33" x1="104.12" y1="47.29" x2="111.58" y2="41.92" xlink:href="#linear-gradient"/><linearGradient id="linear-gradient-34" x1="112.36" y1="47.03" x2="103.32" y2="41.37" xlink:href="#linear-gradient"/><linearGradient id="linear-gradient-35" x1="74.32" y1="41.63" x2="66.16" y2="48.15" xlink:href="#linear-gradient"/><linearGradient id="linear-gradient-36" x1="71.94" y1="42.41" x2="71.94" y2="48.09" gradientUnits="userSpaceOnUse"><stop offset="0" stop-color="#efc43c"/><stop offset="1" stop-color="#cf9725"/></linearGradient><linearGradient id="linear-gradient-37" x1="67.07" y1="47.96" x2="67.07" y2="39.81" xlink:href="#linear-gradient-36"/><linearGradient id="linear-gradient-38" x1="69.34" y1="44.48" x2="76.02" y2="40.62" gradientTransform="matrix(1, 0, 0, 1, 0, 0)" xlink:href="#linear-gradient-6"/><linearGradient id="linear-gradient-39" x1="70.9" y1="44.77" x2="62.26" y2="40.74" xlink:href="#linear-gradient"/><linearGradient id="linear-gradient-40" x1="73.48" y1="37.69" x2="66.75" y2="43.08" xlink:href="#linear-gradient"/><linearGradient id="linear-gradient-41" x1="66.83" y1="42.69" x2="72.16" y2="38.85" xlink:href="#linear-gradient"/><linearGradient id="linear-gradient-42" x1="72.72" y1="42.5" x2="66.25" y2="38.46" xlink:href="#linear-gradient"/><linearGradient id="linear-gradient-43" x1="72.51" y1="38.38" x2="66.9" y2="42.87" xlink:href="#linear-gradient"/><linearGradient id="linear-gradient-44" x1="71.23" y1="38.09" x2="71.23" y2="42.82" xlink:href="#linear-gradient-36"/><linearGradient id="linear-gradient-45" x1="67.17" y1="42.72" x2="67.17" y2="35.92" xlink:href="#linear-gradient-36"/><linearGradient id="linear-gradient-46" x1="69.06" y1="39.82" x2="74.62" y2="36.6" gradientTransform="matrix(1, 0, 0, 1, 0, 0)" xlink:href="#linear-gradient-6"/><linearGradient id="linear-gradient-47" x1="70.36" y1="40.06" x2="63.16" y2="36.7" xlink:href="#linear-gradient"/><linearGradient id="linear-gradient-48" x1="72.51" y1="34.16" x2="66.9" y2="38.64" xlink:href="#linear-gradient"/><linearGradient id="linear-gradient-49" x1="66.97" y1="38.33" x2="71.41" y2="35.12" xlink:href="#linear-gradient"/><linearGradient id="linear-gradient-50" x1="71.87" y1="38.17" x2="66.49" y2="34.8" xlink:href="#linear-gradient"/></defs><title>service-reklama</title><g class="cls-1"><g id="Слой_1" data-name="Слой 1"><path class="cls-2" d="M678.46,383.65a.08.08,0,0,1-.07,0l-13.24-8.33a4.53,4.53,0,0,0-4.72-.08l-5.51,3.22a.12.12,0,0,1-.17,0,.13.13,0,0,1,0-.17l5.5-3.22a4.77,4.77,0,0,1,5,.08l13.24,8.33a.12.12,0,0,1,0,.17A.11.11,0,0,1,678.46,383.65Z" transform="translate(-623.6 -327.42)"/><path class="cls-3" d="M710.65,383.32l-.32-.17a32.35,32.35,0,0,0-15.73-2.89,31.63,31.63,0,0,0-15.26,4.44l-13,8.3-6.9,4.39,7.65,4L674,397l13-8.33c4.33-2.78,11.65-3.15,16.33-.82l.12.07c2.19,1.13,3.47,2.73,3.59,4.52s-1.08,3.79-3.3,5.22l-12.77,8.14-6.9,4.4,7.65,4,6.89-4.41,12.74-8.18c4.15-2.66,6.39-6.19,6.15-9.7S714.82,385.49,710.65,383.32Z" transform="translate(-623.6 -327.42)"/><path class="cls-4" d="M688.19,377.9c-.13.05-.24.12-.36.18l-.26.13a8.19,8.19,0,0,0-.77.45L673.88,387l.32,8.1,12.93-8.24q.38-.24.78-.45l.25-.13.64-.31.13-.06.79-.31.41-.14.57-.18.34-.1.65-.16.3-.07.9-.17H693l1-.13.27,0c.25,0,.51-.05.76-.06l.26,0,1,0h.16l.84,0,.38,0,.61.06.51.06.51.07.79.15.41.09.3.08.63.17.32.1.61.22.27.1.83.37.12.07c.18.09.35.18.51.28l.13.08.41.26.06.05.37.27.09.08a2.75,2.75,0,0,1,.26.22l.08.07c.16.15.31.3.45.46l.06.07a3.9,3.9,0,0,1,.31.4l0,0c.09.13.17.27.25.4l0,.1c.06.12.12.23.17.35l0,.06c0,.13.1.26.14.39l0,.11a3,3,0,0,1,.07.32.36.36,0,0,1,0,.11c0,.12,0,.25,0,.38v.11l-.33-8.14v-.11c0-.13,0-.26,0-.39a.06.06,0,0,1,0,0s0-.05,0-.07l-.08-.32a.64.64,0,0,1,0-.07,0,0,0,0,0,0,0,2.7,2.7,0,0,0-.14-.4h0l0-.05a3.54,3.54,0,0,0-.16-.34l0-.06,0,0a3.34,3.34,0,0,0-.25-.4h0s0,0,0,0-.21-.27-.32-.4l0,0,0,0a6.16,6.16,0,0,0-.44-.45l0,0,0,0-.25-.22-.09-.07c-.12-.1-.25-.19-.38-.28h0l0,0-.41-.27-.13-.08-.5-.28-.13-.06a7.59,7.59,0,0,0-.82-.37l-.28-.11-.6-.21-.32-.1-.63-.18-.3-.08-.13,0-.28,0c-.27-.06-.53-.11-.8-.15l-.19,0-.31,0-.51-.06-.23,0c-.13,0-.26,0-.39,0l-.38,0h-1l-.82,0h-.4l-.41,0-.34,0-.28,0h-.17l-.79.11h-.07l-.72.13-.17,0-.3.07-.34.07-.31.09-.35.09-.19.06-.37.12-.42.15-.13,0-.65.26-.14.06Z" transform="translate(-623.6 -327.42)"/><path class="cls-5" d="M711,391.53l-12.67,8.13.31,8.11,12.7-8.09c4-2.6,6.26-6,6.12-9.45l-.33-8.15C717.28,385.51,715.06,388.94,711,391.53Z" transform="translate(-623.6 -327.42)"/><path class="cls-6" d="M666.29,383l12.93-8.25a31.55,31.55,0,0,1,15.17-4.41A32.08,32.08,0,0,1,710,373.18l.32.17c4.15,2.15,6.55,5.18,6.78,8.54s-2,7-6.12,9.64l-12.67,8.13-7.6-4,12.7-8.1c2.21-1.41,3.41-3.3,3.28-5.18s-1.39-3.37-3.56-4.5l-.13-.06c-4.64-2.32-11.92-2-16.23.81L673.88,387Z" transform="translate(-623.6 -327.42)"/><polygon class="cls-7" points="35.84 59.93 42.69 55.55 50.29 59.53 43.44 63.92 35.84 59.93"/><polygon class="cls-8" points="50.29 59.53 50.6 67.64 43.74 72.01 43.44 63.92 50.29 59.53"/><polygon class="cls-9" points="43.44 63.92 43.74 72.01 36.21 68.13 35.84 59.93 43.44 63.92"/><polygon class="cls-10" points="60.29 72.65 67.15 68.27 74.74 72.25 67.9 76.64 60.29 72.65"/><polygon class="cls-11" points="74.74 72.25 75.06 80.36 68.2 84.73 67.9 76.64 74.74 72.25"/><polygon class="cls-12" points="67.9 76.64 68.2 84.73 60.66 80.85 60.29 72.65 67.9 76.64"/><path class="cls-13" d="M707,378.72c.07.49,2.2.29,2.94-.59a.81.81,0,0,0,.14-.2c.37-.56.06-2.38.31-3.14.14-.42-.89-.06-1.33-.09a4.34,4.34,0,0,0-1.28.21C707.78,376.72,706.76,377.37,707,378.72Z" transform="translate(-623.6 -327.42)"/><path class="cls-14" d="M707.09,378.49c.08.49,2.21.29,2.95-.58a1.5,1.5,0,0,0,.14-.2c.37-.57.06-2.38.31-3.15.14-.41-.89-.06-1.33-.08a3.79,3.79,0,0,0-1.29.21C707.91,376.49,706.89,377.14,707.09,378.49Z" transform="translate(-623.6 -327.42)"/><path class="cls-15" d="M707.09,378.51v0h0Z" transform="translate(-623.6 -327.42)"/><path class="cls-15" d="M707.19,377.55a.69.69,0,0,1,0-.2.08.08,0,0,0,0,0A.43.43,0,0,0,707.19,377.55Z" transform="translate(-623.6 -327.42)"/><path class="cls-15" d="M710.18,377.56a.81.81,0,0,1-.14.2c-.74.88-2.87,1.08-2.95.59v0h0c0-.09,0-.17,0-.25,0,.12,0,.25,0,.39.08.49,2.21.29,2.95-.58a1.5,1.5,0,0,0,.14-.2,2,2,0,0,0,.19-1.1h0A1.66,1.66,0,0,1,710.18,377.56Z" transform="translate(-623.6 -327.42)"/><path class="cls-16" d="M702.35,372.77c-.68.23-1.52,1-2.88,1.46a.6.6,0,0,0-.24,1,3.1,3.1,0,0,0,2.37.33,4.92,4.92,0,0,0,1.07-.26,11.32,11.32,0,0,1,1.43-.58c0,.1,0,.34.12.37.54.13,1.64.14,1.64-.25a7.06,7.06,0,0,0,0-2.21Z" transform="translate(-623.6 -327.42)"/><path class="cls-14" d="M702.44,372.41c-.68.22-1.27,1.07-2.63,1.58-.39.15-.93.54-.48.9a3.08,3.08,0,0,0,2.36.34,5.15,5.15,0,0,0,1.08-.26,10.23,10.23,0,0,1,1.43-.58c0,.1,0,.34.11.37.54.13,1.64.14,1.64-.26a7.06,7.06,0,0,0,0-2.21Z" transform="translate(-623.6 -327.42)"/><path class="cls-15" d="M699.33,374.89a3.15,3.15,0,0,0,2.37.34,5,5,0,0,0,1.08-.26,10.67,10.67,0,0,1,1.42-.58c0,.1,0,.33.11.36.54.13,1.65.15,1.65-.25,0-.09,0-.22,0-.33s0-.33,0-.47c-.08,1-1.65,1-1.62.75s0-.26-.07-.31a.36.36,0,0,0-.3,0c-.53.2-2.66,1.49-4.7.72Z" transform="translate(-623.6 -327.42)"/><path class="cls-17" d="M706.24,356.85c1,2.76,1.22,16.49,1.49,18.17a4.59,4.59,0,0,0,2.92,0,4.33,4.33,0,0,1,0-.55c1-10.38-.47-19.22-.18-20.92a23.87,23.87,0,0,1-.34-3.56c-1.57.44-4.78-.74-5.18-.9-1.74-.72-2.07.94-2.85.89-.89,4.17.94,11.25.3,22v.38c1.15,1,3.45.53,3.53,0s0-6.46.38-8.75Z" transform="translate(-623.6 -327.42)"/><path class="cls-18" d="M710.16,351.31s.82-1.07,1.53,2.65-.68,13.11-.68,13.11Z" transform="translate(-623.6 -327.42)"/><path class="cls-19" d="M696.26,340.19c0-.05.06-.19,0-.17-.38.08.79-.19,1.14-.36.11-.05.24-.1.32,0a.22.22,0,0,1,0,.11l.45,1.59c.38,1.33,1.23,1.82,1.41,3.19,0,.09,0,.39,0,.31a5.73,5.73,0,0,1,1-2.84c.24-.41.54-.79.74-1.22.5-1.08.33-2.43,1-3.37a3.8,3.8,0,0,1,.9-.8c.05,0,.11,0,.11.05.12,1.44.17,3,.29,4.4a7.93,7.93,0,0,1,0,1.46c-.06.58-.66.24-.84.79a12.13,12.13,0,0,1-1.12,2.88c-.53.76-.7,1.41-1.82,1.54-.64.06-.85-.18-1.41-.56a3.14,3.14,0,0,1-1-1.54A43.86,43.86,0,0,1,696.26,340.19Z" transform="translate(-623.6 -327.42)"/><path class="cls-20" d="M704.05,335.67c0,.39-.06.78-.08,1.16a.32.32,0,0,0,0,.17c0,.08,0,.46.06.52.32.33.9.21,1.43.28a8.77,8.77,0,0,0,1.62,0l.88-.06a3.72,3.72,0,0,1-.76-2.71l-1.09.23a8.45,8.45,0,0,1-1.12.19A2.21,2.21,0,0,0,704.05,335.67Z" transform="translate(-623.6 -327.42)"/><path class="cls-21" d="M703,330.62a6.77,6.77,0,0,0,.46,5.09,1.46,1.46,0,0,0,.63.71,1.23,1.23,0,0,0,.71.08,3.55,3.55,0,0,0,2.54-1.55,6.08,6.08,0,0,0,.84-2.5c0-1-.86-1.58-1.74-2.07a3.87,3.87,0,0,0-2.93-.26C703.2,330.22,703.12,330.29,703,330.62Z" transform="translate(-623.6 -327.42)"/><path class="cls-22" d="M702.78,344.06l-.08-.05a5.11,5.11,0,0,1-.47-2.17c0-1.1-.28-1.43-.21-2.53a4.77,4.77,0,0,1,.33-1.54,2,2,0,0,1,.91-1.16l0,6.86c0,.46,0,.24-.39.47" transform="translate(-623.6 -327.42)"/><path class="cls-14" d="M707.26,336.16c.1.4,0,.5-.06.66a1.92,1.92,0,0,1-1.08.69,3.11,3.11,0,0,1-1.29,0,1.26,1.26,0,0,1-.62-.25c-.26-.14-.2-.62-.22-1,0,0-.53,0-.75.34-.84,1.27-1.44,3.5-.73,5a5.72,5.72,0,0,0,.11,1.89c.11.43,0,.77.16,1.19.57,1.83-.71,3.7-.83,5.62a1.88,1.88,0,0,0,.13,1,2.24,2.24,0,0,0,.59.71,8.6,8.6,0,0,0,8,1.7c.61-.18.73-1.15.76-1.79a12.25,12.25,0,0,0-.68-5.49c-.4-.89-.79-1.6-.33-2.46-.05-1,0-2-.11-3a7.31,7.31,0,0,1,0-1.62c.05-.35.86-.33.71-.65a4.36,4.36,0,0,0-.66-.93C708.89,337,707.65,335.78,707.26,336.16Z" transform="translate(-623.6 -327.42)"/><path class="cls-22" d="M711.11,348.12a4.83,4.83,0,0,1-.35-.68l-.27-.7a3.69,3.69,0,0,1-.37-1.66c0-.5.27-1,.27-1.48a23.62,23.62,0,0,1,.22-3.85,2.21,2.21,0,0,0,0-.85c-.08,0-.14.08-.17.16a11.66,11.66,0,0,0-.73,2.08,4.94,4.94,0,0,0,0,2.23c0,.2.11.4.15.6.17.88-.12,1.84.13,2.7.1.31.16.59.26.91a12.86,12.86,0,0,1,.73,2.87s0,.05,0,.1c0,.5,0,1,0,1.51a1,1,0,0,0,.06.38c0,.12.18.33.21.2.38-1.44,0,.17.05,0a.9.9,0,0,0,.13-.39,8.48,8.48,0,0,0,0-2A4.63,4.63,0,0,0,711.11,348.12Z" transform="translate(-623.6 -327.42)"/><path class="cls-23" d="M704,336.71a.84.84,0,0,0,.05.31.62.62,0,0,0,.24.27,2.33,2.33,0,0,0,2.25,0,1.75,1.75,0,0,0,.57-.44.84.84,0,0,0,.16-.68.76.76,0,0,1,0,.7,1.36,1.36,0,0,1-.5.51,2.54,2.54,0,0,1-2.27.26,1.07,1.07,0,0,1-.69-.6,1.35,1.35,0,0,1,0-.53.49.49,0,0,1,0-.24C704,336,704,336.61,704,336.71Z" transform="translate(-623.6 -327.42)"/><path class="cls-24" d="M697.52,339.68l0,0" transform="translate(-623.6 -327.42)"/><path class="cls-21" d="M697.43,338.79c.06.14,0,.31,0,.46a2.5,2.5,0,0,0,.09.25.58.58,0,0,1-.17.58,1.31,1.31,0,0,1-.57.3,1,1,0,0,1-1-.09,1.47,1.47,0,0,1-.29-.4,1,1,0,0,1-.06-.72,2.11,2.11,0,0,1,.39-.76c.08-.11.34-.45.5-.35s0,.22,0,.47C696.65,338.88,697.23,338.35,697.43,338.79Z" transform="translate(-623.6 -327.42)"/><path class="cls-25" d="M707.44,335.51a2,2,0,0,1,.32-1.1c.2-.33.44-.62.65-.94a4.3,4.3,0,0,0,.45-3.61s.15,0,.24-.33c-.12.13-.19.14-.23.12a.77.77,0,0,0,.06-.56.39.39,0,0,1-.18.32,1.31,1.31,0,0,0-.17-.8.62.62,0,0,1-.08.31,3.1,3.1,0,0,0-1.81-1.4,3.49,3.49,0,0,0-2.2.2,8.24,8.24,0,0,1-2.55.92,3.71,3.71,0,0,0,2.51,2s-.05,0-.14.05a2.68,2.68,0,0,0,2.56.19,1.82,1.82,0,0,1,.06,1.48c.52-.55.8-.45.94-.37a.55.55,0,0,1,.13.67,2.22,2.22,0,0,1-.78.82,5.14,5.14,0,0,0,.16,2" transform="translate(-623.6 -327.42)"/><g class="cls-1"><path class="cls-2" d="M697.49,340.31v.06h0v0l0,0h0l0,0h0l0,0v0h0l0,0-.09,0h0l-.09,0h0l-.09,0h-.27l-.11,0h0l-.09,0h0l-.1,0a.33.33,0,0,1-.19-.27v.32a.31.31,0,0,0,.19.27l.09.05h0l.06,0h.54l.06,0h.06l.09,0h0l0,0h0l0,0h0l0,0h0l0,0h0v0h0v0h0v0h0v-.31Z" transform="translate(-623.6 -327.42)"/><path class="cls-26" d="M697.3,340a.29.29,0,0,1,0,.54,1.06,1.06,0,0,1-.92,0,.28.28,0,0,1,0-.54A1,1,0,0,1,697.3,340Z" transform="translate(-623.6 -327.42)"/></g><path class="cls-2" d="M697.35,337.29h0v0h0v0h0v0h0l0,0h-.06l0,0-.07,0h0l-.07,0h-.39l-.07,0h0l-.08,0a.27.27,0,0,1-.15-.21v2.89a.27.27,0,0,0,.15.21l.07,0h.57l.07,0h.08l0,0h0v0h0v0h0v-2.87Z" transform="translate(-623.6 -327.42)"/><g class="cls-1"><path class="cls-2" d="M699.74,335.08V335h0v-.1h0v-.05l0,0v0h0v-.11h0v-.05l0,0h0v0l0-.05v0h0l0,0,0-.05h0l0,0,0-.05v0h0l0,0a.21.21,0,0,0,0-.06h0l-.06-.09h0l-.05-.06,0,0h0l0-.05,0,0h0l0,0,0,0h0l0,0,0,0h0l0,0,0,0h0l0,0,0,0h0l0,0,0,0h0l0,0h-.07l0,0h-.36l-.07,0L697,334l.07,0,.06,0h.27l.09,0h0l.09,0h0l.1,0,.1.06h0l.09.06h0l.08.07h0l.09.08h0l.08.09h0l.07.11h0l.06.09a.25.25,0,0,1,0,.07l0,.05,0,0a.41.41,0,0,0,0,.09h0l.06.12h0l0,.12h0l0,.12h0l0,.11h0a.43.43,0,0,1,0,.11h0s0,.08,0,.12h0v.22h0a.28.28,0,0,1,0,.09h0s0,.05,0,.08h0a.14.14,0,0,1,0,.07h0a.16.16,0,0,1,0,.07h0l0,.05v0l0,0,0,0,0,0h0l1.11-.64a.1.1,0,0,0,0,0h0l0,0h0l0,0h0l0-.07h0s0,0,0-.05v0h0v0s0,0,0-.05v0h0v-.08h0v-.09h0Z" transform="translate(-623.6 -327.42)"/></g><g class="cls-1"><path class="cls-27" d="M699.16,336.2v.08h0v.24l0,.08v.09l0,.08v.05a.06.06,0,0,0,0,0l0,.08h0a.75.75,0,0,1-.07.12h0v0l-.07.08,0,0-.06.06,0,0-.1.07-1.91,1.12.09-.07,0,0,.06-.07,0,0,.06-.09h0a.54.54,0,0,0,.07-.13h0l0-.12v0a.74.74,0,0,0,0-.14v0l0-.16v-.41l0-.2h0a1.77,1.77,0,0,0,0-.2v0c0-.06,0-.12,0-.19h0l-.06-.2h0a1.67,1.67,0,0,0-.08-.2h0l-.09-.2v0l-.09-.15s0,0,0,0a.41.41,0,0,1,0-.09.61.61,0,0,1-.07-.1l-.12-.17-.14-.18h0l-.14-.16h0a.08.08,0,0,0,0,0l-.1-.1,0,0-.14-.12,0,0-.15-.11h0l-.06,0-.11-.06-.07,0,0,0-.05,0h0l-.07,0h0l-.07,0h-.61a.19.19,0,0,0-.1,0h0l0,0h0l-.06,0,1.9-1.1h0l.06,0h.08l.11,0h.62l.06,0h0l.07,0h0l0,0h.07l0,0h0l.07.05.07,0h0l.05,0,.08.06s0,0,0,0h0l0,0,.07.07,0,0h0l0,0a.23.23,0,0,0,.07.07l0,0,0,0h0l.06.07a.27.27,0,0,1,.07.08h0l.06.07.08.1h0l.1.15v0l.07.11,0,.07v0l0,0,0,.09,0,.07v0h0l.05.09,0,.08h0l0,.06,0,.08,0,.05v0h0l0,.09,0,.09h0a.14.14,0,0,1,0,.06l0,.09s0,0,0,0v.05a.29.29,0,0,0,0,.09v.08h0s0,.06,0,.09,0,.05,0,.08v0h0s0,0,0,0Z" transform="translate(-623.6 -327.42)"/><path class="cls-15" d="M695.57,334.5a3.68,3.68,0,0,1,1.68,2.89c0,1.06-.76,1.49-1.69,1a3.71,3.71,0,0,1-1.67-2.9C693.89,334.39,694.65,334,695.57,334.5Z" transform="translate(-623.6 -327.42)"/></g><path class="cls-28" d="M696.12,338.3l-.09,0h0l-.06,0h-.51l0,0,0,0,0,0-.09,0-.13-.08H695l-.08-.06h-.07a.46.46,0,0,0-.07-.07h0l0,0h0l0,0-.07-.07,0,0,0,0,0,0h0l0-.05,0,0,0,0h0l0-.06,0,0,0,0,0-.08,0,0a.35.35,0,0,1,0-.08l0,0,0,0v0a.16.16,0,0,0,0-.07v0l0,0v0l0-.06v-.06l0,0a.25.25,0,0,1,0-.07v0h0l0-.09v-.05h0v0s0-.06,0-.1v0h0v0h0v0h0a.38.38,0,0,1,0-.1h0a.86.86,0,0,1,0-.16v-.32h0s0,0,0-.05v-.08l0,0v-.07s0,0,0,0h0v0h0l0,0h0a.08.08,0,0,0,0,0h0l.08-.05h0a5.11,5.11,0,0,1-.48.22l-.06,0h0a3,3,0,0,1-1.68.11l-.27-.17a2.05,2.05,0,0,0-2-.19l-.08.05h-.09l0,0h0l0,0h0l0,0h0l0,0h0l0,0h0l0,0h0v0h0l0,0,0,0v0h0v.05h0v.06l0,0v0h0v0h0a.14.14,0,0,0,0,.06h0l0,0v0h0v.08a.19.19,0,0,0,0,.07v0h0a.24.24,0,0,1,0,.08v.06s0,0,0,.08v.06h0v.05a.31.31,0,0,1,0,.1v.07a.15.15,0,0,1,0,.06h0a2,2,0,0,0,0,.25h0v0h0v.12h0v.15h0v.14h0v.15h0v.1h0a.13.13,0,0,0,0,.06h0v.1h0v0h0v.15l0,.09v.11h0v.07l0,.08,0,.07,0,.1,0,0v0h0a1.07,1.07,0,0,0,.07.19l0,.05.1.24v0h0l.15.31a6.36,6.36,0,0,0,.51.83,3.55,3.55,0,0,0,.23.31l.23.27h0l.12.13,0,0,.14.15,0,0,0,0h0l0,0,0,0,0,0,.07.06,0,0,0,0,0,0,0,0h0l.05,0,0,0,0,0h0l0,0a.18.18,0,0,0,.07.05h0l0,0,0,0,.08.05,0,0h0l0,0h0l.08.05.18.09h0l.08,0,0,0,.11,0h.06l.08,0h.05l0,0h1.3l.08,0h0a2.07,2.07,0,0,0,.82-1.91c0-.07,0-.13,0-.2v-.05s0-.09,0-.15a.36.36,0,0,1,0-.09h0a1.12,1.12,0,0,1,.05-.13h0l.07-.13h0a.56.56,0,0,0,.05-.08l0,0,.08-.12,0-.06.07-.09.07-.09A4.24,4.24,0,0,1,696.12,338.3Z" transform="translate(-623.6 -327.42)"/><path class="cls-29" d="M691.89,342h0a2,2,0,0,1-.23-.27,3.55,3.55,0,0,1-.23-.31,6.36,6.36,0,0,1-.51-.83,2.2,2.2,0,0,1-.15-.31h0v0a1.6,1.6,0,0,1-.1-.23l0-.06-.08-.18h0v-.07l0-.1,0-.07,0-.07,0-.06v0h0v0l0-.06a.3.3,0,0,0,0-.1v-.08l0-.07h0v0h0l0-.06v0h0a.13.13,0,0,0,0-.06v-.12h0v-.16h0v-.13h0v-.15h0v-.12h0v0h0v-.24h0a.13.13,0,0,1,0-.06v-.07s0-.06,0-.09a.13.13,0,0,1,0-.06h0v0a.22.22,0,0,1,0-.08h0v-.05s0,0,0-.08h0v0a.19.19,0,0,0,0-.07v-.07h0v0l0,0h0l0-.06h0v0h0v-.08l0,0v0h0l0,0v0h0l0,0,0,0v0h0l0,0h0l0,0v0h0v0h0l0,0,0,0h0v0h0l0,0h0v0h0l0,0h0v0H691l.08-.05a2.06,2.06,0,0,1,2,.19l.27.17a2.4,2.4,0,0,0,.62.07h0v-.05h0v0s0-.06,0-.1v0h0v0h0v0h0a.38.38,0,0,1,0-.1h0a.86.86,0,0,1,0-.16v-.32h0s0,0,0-.05v-.08l0,0v-.07s0,0,0,0h0v0h0l0,0h0a.08.08,0,0,0,0,0h0l.08-.05h0a5.11,5.11,0,0,1-.48.22l-.06,0h0a3,3,0,0,1-1.68.11l-.27-.17a2.05,2.05,0,0,0-2-.19l-.08.05h-.09l0,0h0l0,0h0l0,0h0l0,0h0l0,0h0l0,0h0v0h0l0,0,0,0v0h0v.05h0v.06l0,0v0h0v0h0a.14.14,0,0,0,0,.06h0l0,0v0h0v.08a.19.19,0,0,0,0,.07v0h0a.24.24,0,0,1,0,.08v.06s0,0,0,.08v.06h0v.05a.31.31,0,0,1,0,.1v.07a.15.15,0,0,1,0,.06h0a2,2,0,0,0,0,.25h0v0h0v.12h0v.15h0v.14h0v.15h0v.1h0a.13.13,0,0,0,0,.06h0v.1h0v0h0v.15l0,.09v.11h0v.07l0,.08,0,.07,0,.1,0,0v0h0a1.07,1.07,0,0,0,.07.19l0,.05.1.24v0h0l.15.31a6.36,6.36,0,0,0,.51.83,3.55,3.55,0,0,0,.23.31l.23.27h0l.12.13,0,0,.14.15,0,0,0,0h0l0,0,0,0,0,0,.07.06,0,0,0,0,0,0,0,0h0l.05,0,0,0,0,0h0l0,0a.18.18,0,0,0,.07.05h0l0,0,0,0,.08.05,0,0h0l0,0h0l.08.05.09,0,0,0Z" transform="translate(-623.6 -327.42)"/><path class="cls-27" d="M693.39,342.49l.11-.05h0l.37-.22-.11.06h0l-.07,0-.06,0,0,0h-.14l-.12,0h-.63l-.08,0-.05,0-.08,0-.05,0-.08,0h-.05l-.1-.05h0l-.13-.06,0,0-.12-.06-.12-.07-.05,0-.09-.06-.05,0-.1-.08,0,0-.14-.1,0,0-.1-.08-.06-.05-.08-.07,0-.05-.08-.08-.06-.05-.07-.07,0-.06-.07-.08,0-.05-.07-.08,0-.06-.07-.09,0-.06-.06-.07-.07-.09,0-.05c0-.07-.1-.14-.14-.21l0,0-.11-.18,0,0-.09-.15,0,0-.11-.19,0-.06,0-.08a.41.41,0,0,1-.05-.09l0-.07-.06-.11,0-.05c0-.06,0-.11-.07-.17h0l-.06-.16,0-.05a.76.76,0,0,1,0-.11l0-.06,0-.12,0-.05a1,1,0,0,1,0-.14v0c0-.06,0-.12-.05-.17v0a.5.5,0,0,1,0-.12l0-.06a.43.43,0,0,0,0-.11v-.06a.5.5,0,0,0,0-.12v-.05a.88.88,0,0,1,0-.16h0a.76.76,0,0,1,0-.15v-.38c0-.05,0-.09,0-.14v0c0-.05,0-.1,0-.15v-.05s0-.06,0-.09,0,0,0-.07,0-.05,0-.07,0-.06,0-.09,0,0,0-.06a.56.56,0,0,1,0-.12v0a1.16,1.16,0,0,1,.06-.15l0-.07,0,0,0-.08v0l.09-.12,0,0a.52.52,0,0,1,.1-.11h0l.11-.1,0,0a.57.57,0,0,1,.13-.08l-.37.21-.13.08,0,0-.11.09h0a1.27,1.27,0,0,0-.1.12l0,0-.09.12h0v0l0,.07,0,.05s0,0,0,.05h0l-.06.15h0v0a.42.42,0,0,0,0,.12h0a.11.11,0,0,1,0,.05s0,.05,0,.08v0s0,0,0,.06,0,0,0,.06v0a.17.17,0,0,0,0,.07.13.13,0,0,0,0,.06h0s0,.09,0,.13h0v0a.45.45,0,0,1,0,.11v.28a.17.17,0,0,0,0,.07v.07c0,.05,0,.09,0,.14h0a.77.77,0,0,0,0,.15v.07a.17.17,0,0,0,0,.07v.15l0,.06v.09l0,.1v0h0a.94.94,0,0,0,0,.16h0v0l0,.12v0l0,.06s0,.05,0,.07l0,0,0,.06V339l0,.06,0,.06v0a.5.5,0,0,0,.05.13h0l.06.14v0l0,.05,0,.07,0,0,0,.07,0,0,0,.06,0,.07v0l0,0,.11.19v0h0l.09.14,0,0,.11.17h0l.15.21,0,0v0l.08.09,0,0,0,0,0,.06,0,0,0,0,0,.06,0,.05,0,0,0,.06,0,0,0,0,0,.06,0,0,.05,0,0,.06,0,0,.06,0,0,.05,0,0,.06,0,.06.05h0l.09.07,0,0h0l.12.1h0l0,0,.09.07h0l.05,0,.06,0,0,0,.05,0,0,0,.08,0,0,0,.08.05h0l.12,0h0l0,0,.08,0h0l.05,0,0,0h.11l0,0h.76l.12,0h.07l.07,0h0l0,0h0l.08,0Z" transform="translate(-623.6 -327.42)"/><path class="cls-30" d="M697,337.55v-.14a.22.22,0,0,0,0-.08v-.07h0s0,0,0-.07,0-.05,0-.08v0h0v0a.31.31,0,0,1,0-.08.64.64,0,0,0,0-.07h0s0-.06,0-.09a.19.19,0,0,1,0-.08h0v0l0,0,0-.08,0-.06h0l0-.08,0-.07v0h0v0l0-.07,0-.08h0l-.06-.11,0,0,0-.07a.33.33,0,0,0-.06-.1.43.43,0,0,0,0-.07l0,0-.07-.1h0l-.06-.08-.06-.07h0l0-.05-.05-.07,0,0v0l0,0-.07-.06,0,0h0l0,0-.06-.05-.06-.05h0l-.07-.05-.06-.05h0l0,0-.06,0-.05,0,0,0,0,0h0l-.07,0h0l0,0h-.63l-.09,0h0l0,0h0l-.06,0-.12.07h0a3.71,3.71,0,0,1-.83.35h-.1l-.24.05h-.7l-.19,0,0,0h0l.08,0,.09.05.05,0,.35.26.22.21.06.06.15.14.08.09.12.14.08.09.12.14a8,8,0,0,1,.75,1.14l.05.09a.8.8,0,0,0,.08.16l0,.1a1,1,0,0,1,.07.15,1.17,1.17,0,0,0,.05.11l.06.15a.49.49,0,0,1,0,.11s0,.08.05.13l0,0,0,.09s0,.09,0,.14v0l0,.09,0,.16v0s0,0,0,.06l.06.26c0,.11,0,.2,0,.27a2.83,2.83,0,0,1,0,.29v.12s0,0,0-.06l0-.06a.58.58,0,0,1,0-.14l0-.07,0,0,0-.07h0l0,0a1.74,1.74,0,0,1,.11-.18v0l0,0a.94.94,0,0,1,.09-.12l.07-.09,0,0,0,0a3.27,3.27,0,0,1,.78-.62h0l.12-.07.09-.07,0,0,.06-.06,0,0a.36.36,0,0,0,.07-.1h0l.06-.1h0v0a.14.14,0,0,1,0-.06l0-.05v0h0l0-.08a.09.09,0,0,1,0-.05h0a.22.22,0,0,0,0-.08.17.17,0,0,0,0-.07h0S697,337.58,697,337.55Zm-.31.72Zm-1.06-3.19h0l0,0h0Zm.42.42h0v0h0Zm.55.87h0v0h0Zm.08.19Zm.16.58h0v0h0Zm0,.19Zm-1.91-2.61h0Zm-.07,0h0Zm1.91,2.24Zm0-.19h0Zm-.24-.57Zm0,0h0Zm-.33-.53h0Zm-.4-.44,0,0h0Zm-.31-.24Zm-.18-.12h0l0,0Zm0,0h0Zm-.08,0h0Zm0,0Zm0,0h0Zm0,0Zm-.07,0Zm1.79,3.27Zm0-.15h0Zm0-.17v0h0v0Zm0-.14h0s0,0,0,0S696.84,337.54,696.84,337.55Zm-3.62-2.38h0Zm-.17,0h0Z" transform="translate(-623.6 -327.42)"/><path class="cls-27" d="M689.22,335.07a.24.24,0,0,1,.11-.06l0,0,.09,0,.06,0h.05l.07,0h.75l.08,0h0l.09,0,0,0,.09,0,0,0,.1,0,.05,0,0,0,.06,0,0,0,.14.07,0,0,.13.06.13.08.05,0,.1.07.05,0,.12.08,0,0,.15.11,0,0,.11.09s0,0,.05.05l.09.08.06.05a.6.6,0,0,1,.08.08l.06.06.08.08.06.06.08.08,0,.06.08.09,0,.06.08.09,0,.07.06.07a.76.76,0,0,0,.08.11l0,.05.16.23v0l.13.19a.05.05,0,0,0,0,0l.09.16,0,0a2.12,2.12,0,0,1,.11.21l0,.07,0,.08.06.1,0,.08.06.12s0,0,0,.05l.08.18h0c0,.06,0,.11.07.17s0,0,0,.06a.56.56,0,0,1,0,.12l0,.07,0,.12,0,.06c0,.05,0,.1,0,.15v0c0,.07,0,.13,0,.19v0l0,.13v.06l0,.12s0,.05,0,.07,0,.08,0,.12a.13.13,0,0,0,0,.06,1.1,1.1,0,0,0,0,.18h0c0,.06,0,.12,0,.17v.06c0,.05,0,.1,0,.15v.15a.07.07,0,0,1,0,.05V341c0,.06,0,.11,0,.16s0,0,0,.06l0,.1s0,.05,0,.07l0,.08s0,.06,0,.09l0,.07,0,.13a0,0,0,0,0,0,0l-.07.16a.25.25,0,0,1,0,.07.05.05,0,0,1,0,0,.41.41,0,0,1,0,.09l0,0-.06.1,0,0-.06.07,0,0-.07.07h0l-.09.08,0,0-.07,0,0,0-.09.06h0l.48-.28.1-.06,0,0,.07-.05,0,0,.09-.08h0l.07-.07,0,0,.06-.07s0,0,0,0l.06-.1h0v0a.41.41,0,0,0,0-.09l0,0,0-.05v0l.07-.16h0v0s0-.08,0-.13h0s0,0,0-.05,0-.06,0-.09v-.09s0-.05,0-.07h0V341s0,0,0-.06h0a.71.71,0,0,0,0-.15h0v-.6c0-.05,0-.1,0-.15h0c0-.06,0-.11,0-.16v0a.13.13,0,0,1,0-.06.19.19,0,0,1,0-.08v0s0,0,0-.06v-.06a.13.13,0,0,1,0-.06.64.64,0,0,0,0-.07v0l0-.1v-.05h0l0-.17h0v0l0-.13v0s0,0,0-.06l0-.08v0a.19.19,0,0,1,0-.07.08.08,0,0,1,0-.05l0-.07s0,0,0-.06v0l-.06-.15h0a.77.77,0,0,0-.07-.16v0l0-.05,0-.08,0,0,0-.08,0,0a.14.14,0,0,1,0-.06l-.05-.08,0,0,0,0a2.12,2.12,0,0,0-.11-.21l0,0h0l-.09-.16,0,0-.13-.19h0s0,0,0,0l-.16-.23,0,0,0,0-.08-.1,0-.06,0,0,0-.06-.05-.07,0,0,0-.06,0,0,0,0,0-.06,0,0a.1.1,0,0,0,0,0l-.06-.06,0,0-.06-.05-.06-.06,0,0-.06-.06-.06-.05v0l-.07-.06-.06-.05h0l-.1-.08,0,0h0l-.14-.11h0l0,0-.1-.07h0l-.06,0-.06,0,0,0-.06,0,0,0-.09-.06,0,0-.09,0,0,0h0l-.13-.06h0l0,0-.08,0h0l0,0,0,0h0l-.06,0h-.09l0,0h-.15l-.07,0h-.54l-.14,0h-.07l-.07,0h0l0,0h0l-.09,0,0,0a.3.3,0,0,0-.11.06Z" transform="translate(-623.6 -327.42)"/><path class="cls-15" d="M691.4,335.25c-1.74-1-3.12-.12-3.1,1.9a6.88,6.88,0,0,0,3.19,5.39c1.73,1,3.12.12,3.1-1.89A7,7,0,0,0,691.4,335.25Zm.08,7a6.36,6.36,0,0,1-2.94-5c0-1.86,1.26-2.64,2.86-1.75a6.41,6.41,0,0,1,3,5C694.37,342.37,693.09,343.16,691.48,342.26Z" transform="translate(-623.6 -327.42)"/><path class="cls-15" d="M692.33,336.23a1.71,1.71,0,1,0,1.79,2.92A6.74,6.74,0,0,0,692.33,336.23Z" transform="translate(-623.6 -327.42)"/><path class="cls-31" d="M709.23,338.79c.14-.06.3-1.06,1.42-1s.89,3.21,1,4.86a20.67,20.67,0,0,1-1.11,5.19l-4.8,3.08-1.12-1.29a34.35,34.35,0,0,1,2.87-2.36c1.89-1.42.67-.57.67-.57s-.79-2,1.23-8.31" transform="translate(-623.6 -327.42)"/><g class="cls-32"><path class="cls-33" d="M689.6,339.58c-1.09.51-2.2.94-3.32,1.37s-2.25.82-3.41,1.14c1.09-.51,2.21-.94,3.32-1.37S688.44,339.9,689.6,339.58Z" transform="translate(-623.6 -327.42)"/><path class="cls-33" d="M690.13,336.58c-1.52-.29-3-.67-4.51-1s-3-.79-4.44-1.27c1.52.28,3,.66,4.5,1S688.66,336.09,690.13,336.58Z" transform="translate(-623.6 -327.42)"/><path class="cls-33" d="M692.68,341.87c-.46.65-.94,1.29-1.43,1.92l-1.47,1.9c-1,1.25-2,2.49-3,3.7.91-1.32,1.88-2.59,2.86-3.85l1.49-1.88C691.6,343.05,692.13,342.45,692.68,341.87Z" transform="translate(-623.6 -327.42)"/></g><path class="cls-34" d="M636.33,409.32a11.63,11.63,0,0,0-10.56,0c-2.91,1.69-2.9,4.43,0,6.12a11.63,11.63,0,0,0,10.56,0c2.91-1.69,2.9-4.43,0-6.12" transform="translate(-623.6 -327.42)"/><path class="cls-35" d="M655.91,378.84a11.63,11.63,0,0,0-10.56,0c-2.91,1.69-2.89,4.43,0,6.12A11.65,11.65,0,0,0,656,385c2.9-1.69,2.89-4.43,0-6.12" transform="translate(-623.6 -327.42)"/><path class="cls-36" d="M672.89,433.31a11.63,11.63,0,0,0-10.56,0c-2.91,1.69-2.89,4.43,0,6.12a11.63,11.63,0,0,0,10.56,0c2.91-1.69,2.9-4.43,0-6.12" transform="translate(-623.6 -327.42)"/><path class="cls-37" d="M724.78,425.51a11.63,11.63,0,0,0-10.56,0c-2.91,1.69-2.89,4.43,0,6.12a11.63,11.63,0,0,0,10.56,0c2.91-1.69,2.9-4.43,0-6.12" transform="translate(-623.6 -327.42)"/><path class="cls-38" d="M641.06,388.88s.08,0,.11-.05l.25-.08a3.35,3.35,0,0,0,.67-.3,1.29,1.29,0,0,0,.51-.6,1,1,0,0,0,0-.47.38.38,0,0,0-.22-.28l-.15,0c-.26,0-.68.37-.9.47,0-.21.21-.41.25-.54a0,0,0,0,0,0-.05c-.14-.22-.78.25-1,.92s-.72.72-1.19.95L639,389c-.68.4-1.35.82-2,1.27a6,6,0,0,0-1.27-.62,1.73,1.73,0,0,0-.37-.16c-.09,0,0,0-.12,0s-.07.1-.11.14c-.13.21-.24.43-.35.65s-.19.41-.28.62a1.14,1.14,0,0,0-.13.35c.5,0,.91.38,1.39.55a2.38,2.38,0,0,0,.38.11,3.09,3.09,0,0,0,1,.13,1.69,1.69,0,0,0,.45-.07,3.11,3.11,0,0,0,.54-.35l.32-.2a4.72,4.72,0,0,0,1.38-1.22C640.27,389.81,640.65,389.33,641.06,388.88Z" transform="translate(-623.6 -327.42)"/><path class="cls-39" d="M629.84,411.32c1.67-.56,1.6.37,1.38.57-1,.91-2.34.45-2.36.68v.07c0,.15-.83.07-.92-.05s-.16-1.2,0-1.27a3.33,3.33,0,0,0,1.85,0Z" transform="translate(-623.6 -327.42)"/><path class="cls-39" d="M627.9,412.51s0,.2.07.22a1.4,1.4,0,0,0,1,0c.06,0,0-.11,0-.14s1.7.15,2.28-.7c0,0,.06-.12.05-.16a2.56,2.56,0,0,1-1.94.7c-.2,0-.53,0-.57.07s0,.11,0,.12a1.58,1.58,0,0,1-.9-.12Z" transform="translate(-623.6 -327.42)"/><path class="cls-38" d="M627,391.91a2.34,2.34,0,0,0,1.43.66,6.93,6.93,0,0,1-.57-2.65,7.7,7.7,0,0,1-1.07-.08A6.48,6.48,0,0,0,627,391.91Z" transform="translate(-623.6 -327.42)"/><path class="cls-40" d="M630.16,386.79c1.45,1.25,2,.55,2.57.64a1.28,1.28,0,0,1-.29-1.25l-1.31-.64-1,.52a1.3,1.3,0,0,1,0,.73Z" transform="translate(-623.6 -327.42)"/><path class="cls-41" d="M630.16,386.79a2.94,2.94,0,0,0,2.57.64,1.3,1.3,0,0,1-.29-1.26l-1.31-.63-1,.52a1.3,1.3,0,0,1,0,.73Z" transform="translate(-623.6 -327.42)"/><path class="cls-38" d="M633.93,382.52a2.25,2.25,0,0,0-.28,1.32c.08,2.45-1.77,3-2.75,1.7l.91-1.9Z" transform="translate(-623.6 -327.42)"/><path class="cls-39" d="M629.88,385.86a.83.83,0,0,0,1.2.16.61.61,0,0,0,.12-.16c.23-.37.25-.53.53-.6,0,0-.29-.63.14-1a.36.36,0,0,1,.54.21c.67-.33,1-1.9,1.52-2,.13,0,.14-.48.13-.56a1.49,1.49,0,0,0-1.07-1.1,3,3,0,0,0-3.71,1.62A3.71,3.71,0,0,0,629.88,385.86Z" transform="translate(-623.6 -327.42)"/><path class="cls-42" d="M633.44,383.38c-.26.53-.81,1.19-1.07,1.17-.06,0,0-.1-.08-.16a.23.23,0,0,0-.26-.06c-.41.17-.3.74-.32.86a.74.74,0,0,1-.16-.57.81.81,0,0,1,.33-.51c.31-.19.73-.14,1-.34s.16-.61.28-.75a2.84,2.84,0,0,1,.77-.61,3,3,0,0,1-.14.33,1.94,1.94,0,0,0-.12.39S633.56,383.12,633.44,383.38Z" transform="translate(-623.6 -327.42)"/><path class="cls-39" d="M633.21,413c0,.24,1.41.12,1.67.31.55.42-.65,1.38-2.75,1.25h0s0-.05,0-.05,0,0-.05.07a3.48,3.48,0,0,1-1-.08,2.11,2.11,0,0,1,.07-1.5,1.7,1.7,0,0,0,2,0Z" transform="translate(-623.6 -327.42)"/><path class="cls-39" d="M631.07,414.4a.32.32,0,0,0,0,.17,2.52,2.52,0,0,0,1,0s0,0,0,0a6.38,6.38,0,0,0,1.94-.21c.2-.06.91-.26,1-.84-.24.84-2,1-2.89,1,0,0-.07-.07-.09,0a2.86,2.86,0,0,1-1-.1Z" transform="translate(-623.6 -327.42)"/><path class="cls-43" d="M627.64,395.89c-.47,2.2.22,6.13.14,8.21s-.34,6.82,0,7.43a2.22,2.22,0,0,0,1.85,0,.27.27,0,0,0,.17-.24c-.05-.72,0-2.24,0-3.63,0-2.89,1-4.11,1-7.58,0-.53.16-.73,0-1.23a3.53,3.53,0,0,0-1.18-1.4c-.64-.53-1.36-1.05-2-1.58Z" transform="translate(-623.6 -327.42)"/><path class="cls-44" d="M627.62,395.86a5.09,5.09,0,0,0,3.17,3,11.42,11.42,0,0,0,0,2.41c0,.32,0,.61-.08.92s-.25,1.47-.35,2a11.24,11.24,0,0,0-.45,2.62c0,1.57-.09,3.88-.06,4.56,0,.17-.26.27-.4.29,0-1.91,0-3.41,0-5,0-1.79,1.13-4.5.78-7.23,0-.36-.28-.42-.57-.58a6.61,6.61,0,0,1-.89-.6A2.75,2.75,0,0,1,627.62,395.86Z" transform="translate(-623.6 -327.42)"/><path class="cls-45" d="M633.59,397.15a22,22,0,0,1,.35,8c-.07.58-.73,6.13-.65,7.9a1.46,1.46,0,0,1-2.12,0,1.72,1.72,0,0,1-.07-.47c-.27-3.15.34-6.39.34-7.66,0-1.92-1.31-4.27-1-5.89-1.92-.73-2.8-2.07-2.75-3.23a7,7,0,0,0,5.93,1.4Z" transform="translate(-623.6 -327.42)"/><path class="cls-46" d="M633.66,397.21c0,.07,0,.16,0,.22h0a.91.91,0,0,1,0,.16,7.28,7.28,0,0,1-5.79-1.2.81.81,0,0,1-.3-.57C627.57,395.73,633.66,397.21,633.66,397.21Z" transform="translate(-623.6 -327.42)"/><path class="cls-15" d="M628.11,390.17a2.26,2.26,0,0,1-1.39-.28c-.23-.15.23-1,.28-1.38a3.08,3.08,0,0,1,.85-1.94,1.54,1.54,0,0,1,1.94,0A3.76,3.76,0,0,0,628.11,390.17Z" transform="translate(-623.6 -327.42)"/><path class="cls-14" d="M627.52,395.77c-.15-.67.56-1,.56-2.91,0-1.23-.56-3.17-.4-4.39a1.9,1.9,0,0,1,2.48-1.89,2.44,2.44,0,0,0,2.42.64,2.81,2.81,0,0,1,1.57,1.19,1.79,1.79,0,0,0-1,1.44c0,.55.61,4.75.49,7.58a7.55,7.55,0,0,1-5.75-1.09A1,1,0,0,1,627.52,395.77Z" transform="translate(-623.6 -327.42)"/><path class="cls-47" d="M633,397.55a11.22,11.22,0,0,0,.14-3.79c-.1-.71,0-2.69,0-3a4.63,4.63,0,0,1-.23-.83,1.51,1.51,0,0,1,.23-1,2.06,2.06,0,0,1,.81-.71,3.09,3.09,0,0,0-1.32-1h0a2.81,2.81,0,0,1,1.57,1.19,1.79,1.79,0,0,0-1,1.44c0,.55.61,4.75.49,7.58Z" transform="translate(-623.6 -327.42)"/><path class="cls-15" d="M633.18,390.62a6.34,6.34,0,0,0,2.09,1,6.29,6.29,0,0,0,.72-1.72c0-.19-.3-.23-.39-.31-.5-.4-1-.76-1.48-1.17a1.55,1.55,0,0,0-1.06.85,1.48,1.48,0,0,0,.06,1.33Z" transform="translate(-623.6 -327.42)"/><path class="cls-48" d="M628.07,392.51a3.27,3.27,0,0,1-.54,2.83c.06-.21.21-.51.31-.8h0a5.52,5.52,0,0,0,.23-2Z" transform="translate(-623.6 -327.42)"/><path class="cls-49" d="M653.91,357.22a2,2,0,0,0,2-.39,1.06,1.06,0,0,0,.26-.3A.41.41,0,0,0,656,356c-.3-.17-.83.47-1.19.22s.43-.44.22-.59-1.19.32-1.29.73c-.06.22,0,.54-.06.76Z" transform="translate(-623.6 -327.42)"/><path class="cls-49" d="M655.37,364a2,2,0,0,0,1.94.44.82.82,0,0,0,.35-.17.39.39,0,0,0,.1-.53c-.21-.28-1,.08-1.18-.28s.58-.24.45-.45-1.23-.19-1.48.13-.21.5-.37.67Z" transform="translate(-623.6 -327.42)"/><path class="cls-50" d="M651.77,357.14a4.36,4.36,0,0,1,2.06-1.1,2.15,2.15,0,0,0,.35,1.3,10.46,10.46,0,0,0-2.07,1.49,2.76,2.76,0,0,1-.5.34.78.78,0,0,1-.6,0c.37-.45.57-2,.66-2Z" transform="translate(-623.6 -327.42)"/><path class="cls-51" d="M648.9,380c-.32.23-.29.9-.24,1.12.13.69.23,1.76.23,1.76l.18,0a10.22,10.22,0,0,1,0-1.32c1.07,1.12,1.47,1,1.86.83a1.16,1.16,0,0,0,.36-.23c.11-.09.63-.39.46-.55a.47.47,0,0,0-.41-.1c-.52.1-.83-.27-1.07-.66a1.54,1.54,0,0,0-1.36-.87Z" transform="translate(-623.6 -327.42)"/><path class="cls-52" d="M649.06,381.5l.55.47a1.82,1.82,0,0,0,.56.35.58.58,0,0,0,.82-.45c0-.13-.12-.28-.16-.39a.79.79,0,0,1,.49.47.5.5,0,0,1,0,.12.17.17,0,0,1-.06.1,1.16,1.16,0,0,1-.36.23c-.39.16-.79.29-1.86-.83a.06.06,0,0,1,0-.07Z" transform="translate(-623.6 -327.42)"/><path class="cls-49" d="M652.77,374.07a58.3,58.3,0,0,0-.2,7.27,2,2,0,0,0,.6,1.17,2.06,2.06,0,0,1-1.65-1.19,2.27,2.27,0,0,1-.28-.79,18.78,18.78,0,0,1-.53-5,3.25,3.25,0,0,0,0-1.52,1.45,1.45,0,0,0,2.09,0Z" transform="translate(-623.6 -327.42)"/><path class="cls-53" d="M652.05,374.05a1.11,1.11,0,0,0-.08.3c0,1.46-1,1.61.22,7a1.65,1.65,0,0,0,1.12,1.31l0,0a2,2,0,0,1-.68-1.16,8.44,8.44,0,0,1-.1-1.6v-.07c0-1.86.16-3.39.26-5.25,0-.15.06-.41,0-.52a.38.38,0,0,0-.3-.11,1.3,1.3,0,0,0-.33.07Z" transform="translate(-623.6 -327.42)"/><path class="cls-49" d="M650.36,373.76c.18,1.14-.25,3.38-.24,5.73a5,5,0,0,0,.28,1.58c-.35-.4-.88-1.13-1.51-1.08,0-2.14-1.43-3.6-.32-7.07.64.34,1.06.43,1.69.76Z" transform="translate(-623.6 -327.42)"/><path class="cls-53" d="M649.71,373.27a1.11,1.11,0,0,0-.08.3c0,1.46-1,1.61.23,7a1.62,1.62,0,0,0,1.12,1.3s0,0,0,0a1.51,1.51,0,0,1-.73-1.1,4.89,4.89,0,0,1-.16-1.51v-.06c0-1.47.21-3.06.28-4.39,0-.35,0-.73,0-1,0-.15.09-.36,0-.48a.4.4,0,0,0-.3-.11,1.25,1.25,0,0,0-.32.08Z" transform="translate(-623.6 -327.42)"/><path class="cls-51" d="M651.21,380.39c-.51.18-.42.92-.37,1.14.15.69.26,1.76.26,1.76h.18a8.29,8.29,0,0,1,0-1.24l.36.4a2.85,2.85,0,0,0,.44.41,1.06,1.06,0,0,0,1.09.16,1.69,1.69,0,0,0,.36-.23c.11-.1.41-.36.24-.52s-.39.07-.52.1a1,1,0,0,1-1.05-.72c-.11-.25-.19-.51-.32-.74s-.28-.48-.54-.53Z" transform="translate(-623.6 -327.42)"/><path class="cls-54" d="M651.23,382.06c0-.05,0-.12,0-.18.2.33,1,1.36,1.95,1.12l0,0a1.06,1.06,0,0,1-1.09-.16,2.85,2.85,0,0,1-.44-.41l-.36-.4Z" transform="translate(-623.6 -327.42)"/><path class="cls-49" d="M652.5,352.18c.56.89.29,1.35.49,1.89a2.54,2.54,0,0,1,.22,1.54c-.05.48-.39.71-1.17.65a4.1,4.1,0,0,0,.3,1.23,3.78,3.78,0,0,1-1.06-.22,1.23,1.23,0,0,1-.73-.75c-.11-.35-.24-.34-.5-.59a1.39,1.39,0,0,0,1.2-.23,1,1,0,0,1-.61-.7.94.94,0,0,1,.26-.87,3.91,3.91,0,0,1,.74-.44,1.93,1.93,0,0,0,.84-1.51Z" transform="translate(-623.6 -327.42)"/><path class="cls-50" d="M650.13,356.26a1.19,1.19,0,0,0-1.54.54,2.63,2.63,0,0,0-.26,1.64c.13,1.43.94,2.79.72,4.21-.09.54-.95,1.33-1.19,3.29a6.25,6.25,0,0,0,5.62.92,8.84,8.84,0,0,0-.6-2.7,3.53,3.53,0,0,1,.31-1.33c1.13-3.49-1-2.75-.6-4.08,0-.16.41-.14.42-.31s-.3-.55-.42-.67-.46-.11-.7-.13a2.08,2.08,0,0,1-1.73-1.34Z" transform="translate(-623.6 -327.42)"/><path class="cls-55" d="M647.86,365.92c-1,1-.27,3.44-.07,4.11a8.56,8.56,0,0,1,.46,2.05,4.17,4.17,0,0,1-.14,1.45.54.54,0,0,1,.44-.23,1.26,1.26,0,0,1,.5.12c.44.18.84.44,1.26.66a3.28,3.28,0,0,0,1.35.42A1.5,1.5,0,0,0,653,374l0,0c.15-.9.3-1.81.44-2.71a12.06,12.06,0,0,0,.07-4.47A6.17,6.17,0,0,1,648,366Z" transform="translate(-623.6 -327.42)"/><path class="cls-39" d="M652.51,352.15a2,2,0,0,1-.19,1.44c-.24.44-.84.66-1,1.09-.66-.45-.55.87.18.88a1.35,1.35,0,0,1-1.54.52,1.74,1.74,0,0,1-1.21-1.34,3,3,0,0,1,.25-1.91,2.68,2.68,0,0,1,1.46-1.29,2.2,2.2,0,0,1,1.24-.1A1,1,0,0,1,652.51,352.15Z" transform="translate(-623.6 -327.42)"/><path class="cls-39" d="M649,353.13a.62.62,0,0,0-.59-.16.79.79,0,0,0-.39.76,2.64,2.64,0,0,0,.52,1.5c.23.3,1,.89,1.18.25a2.42,2.42,0,0,0-.07-1.25,2.18,2.18,0,0,0-.6-1.05Z" transform="translate(-623.6 -327.42)"/><path class="cls-56" d="M651.3,374.45A1.6,1.6,0,0,0,653,374l0,0c0-.2,0-.38.12-.71.24-1.08.92-5.06.39-6.42a3.1,3.1,0,0,0-.22-1.52,4.74,4.74,0,0,1-.38-1.37,5.75,5.75,0,0,1,.44-1.61,2.07,2.07,0,0,0-.07-1.88c-.17-.24-.43-.4-.61-.63a.64.64,0,0,1-.07-.8c.1.17.19.34.29.5a1.4,1.4,0,0,0-.19-1.68,1.46,1.46,0,0,0-1.08,1.38c-.17,1,.75,1.61.92,2.55a8.1,8.1,0,0,1-.34,2.72c-.24,1.34.44,2.89-.15,4.18a1.45,1.45,0,0,1-.79.77,1.11,1.11,0,0,1-1.07-.18c.75.76,1.34.45,1.57.27a10.26,10.26,0,0,0,0,2.93c0,.73-.43,1-.41,1.95Z" transform="translate(-623.6 -327.42)"/><path class="cls-57" d="M648.53,366.32a1.71,1.71,0,0,0-.61-.25,3,3,0,0,0,.12,2.53,1.43,1.43,0,0,1-.61-1c0,.26,0,.58,0,.84a3.06,3.06,0,0,1,.41-2.56,5.81,5.81,0,0,1,.68.41Z" transform="translate(-623.6 -327.42)"/><path class="cls-57" d="M648.48,359.3a3.24,3.24,0,0,1,.51-2.57,1.19,1.19,0,0,1,1-.36,1,1,0,0,0-1.1.26,2.13,2.13,0,0,0-.55,1.26,6.69,6.69,0,0,0,.09,1.41Z" transform="translate(-623.6 -327.42)"/><path class="cls-58" d="M649.4,355.27a2,2,0,0,0-.27-1.51.37.37,0,0,0-.32-.19.29.29,0,0,0-.26.25c0,.24,0,.71.19.86,0,0,.12,0,.15,0a.09.09,0,0,0,0-.1.15.15,0,0,1,0,.11.1.1,0,0,1-.09.11.18.18,0,0,1-.16,0c-.29-.23-.5-1.12,0-1.29a.41.41,0,0,1,.35.08,1.18,1.18,0,0,1,.43.78A2.12,2.12,0,0,1,649.4,355.27Z" transform="translate(-623.6 -327.42)"/><path class="cls-58" d="M649.06,354.41a.92.92,0,0,1,.21.47.35.35,0,0,1-.28.39c-.32,0-.77-.63-.79-1.55a2.09,2.09,0,0,0,.12,1,2,2,0,0,0,.24.46.74.74,0,0,0,.31.27.33.33,0,0,0,.29,0,.48.48,0,0,0,.19-.52A.9.9,0,0,0,649.06,354.41Z" transform="translate(-623.6 -327.42)"/><path class="cls-53" d="M653.1,355.94a1.19,1.19,0,0,1-.9.16,1.2,1.2,0,0,1-.74-.53,1.53,1.53,0,0,1-1.42.29c.27.4.43.21.47.53a1.22,1.22,0,0,0,.65.91,1.28,1.28,0,0,0,1.13,0,5,5,0,0,1-.26-1.06,1.15,1.15,0,0,0,1.06-.31Z" transform="translate(-623.6 -327.42)"/><path class="cls-15" d="M652.25,357.22c-1,0-1.51-.35-1.76-1.08-.3,0-.48.16-.45.44.09.64.79,1.33,2.64,1.28A1.26,1.26,0,0,0,652.25,357.22Z" transform="translate(-623.6 -327.42)"/><path class="cls-50" d="M651.91,358.26a1,1,0,0,1,1.88.3c.18.75-.55,3-.6,4,0,0,0,0,0,0,.73,0,1.8.47,2.51.34a1.75,1.75,0,0,1-.19,1.21c-.63-.06-2.44.38-2.92.3-.65-.12-.9-.73-1-1.32a16.11,16.11,0,0,1-.12-2.5,6.71,6.71,0,0,1,.2-1.9A2.41,2.41,0,0,1,651.91,358.26Z" transform="translate(-623.6 -327.42)"/><path class="cls-38" d="M671.63,414.69a1.73,1.73,0,0,0,1.64-.05c1.4-.91-1-3.22-1.95-4.37a.53.53,0,0,1,0-.12l0-.26a2.86,2.86,0,0,0-.2-.69,1.19,1.19,0,0,0-.5-.58.82.82,0,0,0-.45-.12.34.34,0,0,0-.3.17.3.3,0,0,0-.06.14c-.08.24.25.71.33.95,0,0,0,0,0,0-.21,0-.37-.27-.49-.32s0,0-.05,0c-.23.1.12.8.74,1.13.05,0,.11,0,.14.09a9,9,0,0,1,1,1.73,3.3,3.3,0,0,1,.08,1.37c0,.31,0,.58,0,.9Z" transform="translate(-623.6 -327.42)"/><path class="cls-42" d="M669.58,409.43c.13.33.63.57.65.4s-.52-.8-.44-1.14h0a.22.22,0,0,0,0,.12c-.08.24.25.71.33.95,0,0,0,0,0,0-.21,0-.37-.27-.49-.32Z" transform="translate(-623.6 -327.42)"/><path class="cls-39" d="M666.26,434.41c1.66-.57,1.6.36,1.38.57-1,.9-2.34.44-2.36.68v.06c0,.16-.83.08-.92-.05s-.16-1.19,0-1.27a3.15,3.15,0,0,0,1.85,0Z" transform="translate(-623.6 -327.42)"/><path class="cls-59" d="M664.32,435.59s0,.21.07.23a1.4,1.4,0,0,0,1,0c.06,0,0-.1,0-.13s1.7.15,2.27-.71c0,0,.07-.12.05-.16a2.49,2.49,0,0,1-1.93.7c-.2,0-.53,0-.57.07s0,.11,0,.12a1.41,1.41,0,0,1-.9-.12Z" transform="translate(-623.6 -327.42)"/><path class="cls-38" d="M663.42,415a2.39,2.39,0,0,0,1.43.65,6.88,6.88,0,0,1-.57-2.64,7.36,7.36,0,0,1-1.06-.08A6.43,6.43,0,0,0,663.42,415Z" transform="translate(-623.6 -327.42)"/><path class="cls-40" d="M666.58,409.9c1.45,1.25,2,.55,2.57.64a1.27,1.27,0,0,1-.3-1.24l-1.31-.65-1,.53a1.27,1.27,0,0,1,0,.72Z" transform="translate(-623.6 -327.42)"/><path class="cls-60" d="M666.58,409.9a3,3,0,0,0,2.57.64,1.27,1.27,0,0,1-.29-1.26l-1.32-.63-1,.53a1.27,1.27,0,0,1,0,.72Z" transform="translate(-623.6 -327.42)"/><path class="cls-61" d="M670.34,405.63a2.26,2.26,0,0,0-.27,1.32c.07,2.45-1.78,3-2.76,1.7l.92-1.89Z" transform="translate(-623.6 -327.42)"/><path class="cls-39" d="M666.3,409a.83.83,0,0,0,1.2.16l.12-.15c.23-.37.25-.54.52-.61,0,0-.28-.63.15-.95a.35.35,0,0,1,.53.2c.68-.33,1-1.89,1.53-2,.13,0,.13-.47.12-.56a1.48,1.48,0,0,0-1.07-1.1,3,3,0,0,0-3.7,1.62A3.7,3.7,0,0,0,666.3,409Z" transform="translate(-623.6 -327.42)"/><path class="cls-42" d="M669.85,406.5c-.25.52-.8,1.19-1.06,1.16-.06,0,0-.09-.08-.16a.25.25,0,0,0-.26-.06c-.41.17-.3.74-.32.86a.73.73,0,0,1-.16-.57.75.75,0,0,1,.33-.5c.31-.2.73-.15,1-.35.15-.1.16-.6.27-.75a3.4,3.4,0,0,1,.77-.6,1.47,1.47,0,0,1-.14.33,2.4,2.4,0,0,0-.12.38S670,406.23,669.85,406.5Z" transform="translate(-623.6 -327.42)"/><path class="cls-39" d="M669.63,436c0,.24,1.41.12,1.66.32.56.41-.65,1.38-2.74,1.24h0s0,0,0,0,0,0-.06.07a4,4,0,0,1-1-.07,2.13,2.13,0,0,1,.07-1.51,1.68,1.68,0,0,0,2,0Z" transform="translate(-623.6 -327.42)"/><path class="cls-59" d="M667.49,437.48a.47.47,0,0,0,0,.17,2.83,2.83,0,0,0,1,.05s0,0,0-.05a6.36,6.36,0,0,0,1.94-.21c.2-.06.91-.26,1-.84-.24.84-2,1-2.89,1,0,0-.06-.08-.09,0a2.59,2.59,0,0,1-1-.1Z" transform="translate(-623.6 -327.42)"/><path class="cls-55" d="M664.06,419c-.47,2.2.22,6.13.15,8.2s-.35,6.81,0,7.43a2.23,2.23,0,0,0,1.85,0,.26.26,0,0,0,.17-.23c0-.72,0-2.24,0-3.63,0-2.88,1-4.11,1-7.58,0-.52.16-.72,0-1.22a3.42,3.42,0,0,0-1.17-1.4c-.64-.53-1.36-1.05-2-1.58Z" transform="translate(-623.6 -327.42)"/><path class="cls-44" d="M664,419a5.09,5.09,0,0,0,3.17,3,11.42,11.42,0,0,0,0,2.41c0,.31-.05.6-.08.92s-.26,1.47-.36,1.95a11.89,11.89,0,0,0-.44,2.62c-.05,1.56-.09,3.88-.07,4.56,0,.16-.26.26-.39.29,0-1.91,0-3.41,0-5,0-1.79,1.13-4.49.78-7.22-.05-.36-.28-.42-.57-.58a7.7,7.7,0,0,1-.89-.6A2.75,2.75,0,0,1,664,419Z" transform="translate(-623.6 -327.42)"/><path class="cls-55" d="M670,420.25a22.21,22.21,0,0,1,.36,7.94c-.08.58-.73,6.12-.65,7.89-.27.54-1.77.67-2.12,0a2.21,2.21,0,0,1-.08-.46,54.81,54.81,0,0,1,.35-7.66c0-1.91-1.31-4.27-1-5.88-1.92-.73-2.8-2.07-2.75-3.23a7,7,0,0,0,5.93,1.4Z" transform="translate(-623.6 -327.42)"/><path class="cls-46" d="M670.07,420.31v.22h0s0,.08,0,.15a7.24,7.24,0,0,1-5.79-1.19.81.81,0,0,1-.3-.57C664,418.84,670.07,420.31,670.07,420.31Z" transform="translate(-623.6 -327.42)"/><path class="cls-42" d="M670.85,411.28a6.6,6.6,0,0,0,1.21,1.32h0c.09.07.29.16.33.29s0,.12-.07.21a.19.19,0,0,1-.27.08,1.91,1.91,0,0,0-.3-.54l-.17-.25c-.05-.08-.14-.1-.19-.18-.18-.33-.34-.64-.54-.94Z" transform="translate(-623.6 -327.42)"/><path class="cls-50" d="M664.53,413.28a2.26,2.26,0,0,1-1.39-.28c-.23-.15.23-1,.28-1.39a3,3,0,0,1,.85-1.92,1.53,1.53,0,0,1,1.94,0A3.78,3.78,0,0,0,664.53,413.28Z" transform="translate(-623.6 -327.42)"/><path class="cls-50" d="M663.94,418.87c-.15-.67.56-.95.56-2.91,0-1.22-.55-3.17-.4-4.38a1.9,1.9,0,0,1,2.48-1.89,2.43,2.43,0,0,0,2.42.64,2.74,2.74,0,0,1,1.56,1.19,1.78,1.78,0,0,0-1,1.44c-.06.55.6,4.74.49,7.57a7.55,7.55,0,0,1-5.75-1.09A1,1,0,0,1,663.94,418.87Z" transform="translate(-623.6 -327.42)"/><path class="cls-48" d="M669.42,420.65a11.22,11.22,0,0,0,.13-3.79c-.09-.71,0-2.68,0-3a4.87,4.87,0,0,1-.23-.83,1.54,1.54,0,0,1,.23-1,2.16,2.16,0,0,1,.8-.7,3,3,0,0,0-1.32-1.05h0a2.74,2.74,0,0,1,1.56,1.19,1.78,1.78,0,0,0-1,1.44c-.06.55.6,4.74.49,7.57Z" transform="translate(-623.6 -327.42)"/><path class="cls-50" d="M669.59,413.73a6.46,6.46,0,0,0,2.1,1,6.52,6.52,0,0,0,.71-1.71c0-.19-.3-.24-.38-.31-.5-.41-1-.76-1.49-1.17a1.51,1.51,0,0,0-1,.85,1.48,1.48,0,0,0,0,1.33Z" transform="translate(-623.6 -327.42)"/><path class="cls-48" d="M664.49,415.61a3.29,3.29,0,0,1-.53,2.83c0-.21.2-.51.3-.8h0a5.52,5.52,0,0,0,.23-2Z" transform="translate(-623.6 -327.42)"/><path class="cls-2" d="M638.1,411.07A.16.16,0,0,1,638,411a.14.14,0,0,1,0-.18l23.1-14.68a.13.13,0,0,1,.18,0,.13.13,0,0,1,0,.17l-23.1,14.68A.1.1,0,0,1,638.1,411.07Z" transform="translate(-623.6 -327.42)"/><path class="cls-2" d="M674.2,434.44a.11.11,0,0,1-.11-.06.12.12,0,0,1,0-.17l27.1-16.54a2.38,2.38,0,0,0,0-4l-5.88-3.7a.13.13,0,0,1,0-.18.14.14,0,0,1,.17,0l5.88,3.71a2.63,2.63,0,0,1,1.23,2.24,2.6,2.6,0,0,1-1.26,2.22l-27.1,16.55Z" transform="translate(-623.6 -327.42)"/><path class="cls-2" d="M721.8,425.11a.11.11,0,0,1-.1-.06.13.13,0,0,1,0-.17l1.95-1.29a1.75,1.75,0,0,0,0-2.95l-23.07-14.19a.13.13,0,0,1,0-.17.12.12,0,0,1,.17,0l23.07,14.19a2,2,0,0,1,.06,3.36l-2,1.3Z" transform="translate(-623.6 -327.42)"/><path class="cls-39" d="M721.35,426.83c-1.82-.61-1.75.41-1.51.63,1,1,2.56.49,2.58.74a.09.09,0,0,1,0,.07c0,.17.91.09,1,0s.17-1.31,0-1.39a3.6,3.6,0,0,1-2,0Z" transform="translate(-623.6 -327.42)"/><path class="cls-62" d="M723.48,428.13c0,.05,0,.22-.09.25a1.54,1.54,0,0,1-1.06,0c-.06,0,0-.11-.05-.14s-1.86.16-2.49-.78c0,0-.07-.13,0-.17a2.78,2.78,0,0,0,2.12.76c.21,0,.58,0,.62.08s0,.12,0,.13a1.65,1.65,0,0,0,1-.13Z" transform="translate(-623.6 -327.42)"/><path class="cls-49" d="M724.46,405.63a2.59,2.59,0,0,1-1.56.71,7.76,7.76,0,0,0,.62-2.89,9,9,0,0,0,1.16-.08A7.13,7.13,0,0,1,724.46,405.63Z" transform="translate(-623.6 -327.42)"/><path class="cls-63" d="M721,400c-1.59,1.37-2.15.6-2.82.7a1.4,1.4,0,0,0,.32-1.36l1.44-.71,1.06.58a1.53,1.53,0,0,0,0,.79Z" transform="translate(-623.6 -327.42)"/><path class="cls-64" d="M721,400c-1.26,1.12-2.21.64-2.82.7a1.41,1.41,0,0,0,.32-1.38l1.44-.69,1.06.58a1.53,1.53,0,0,0,0,.79Z" transform="translate(-623.6 -327.42)"/><path class="cls-49" d="M716.89,395.36a2.51,2.51,0,0,1,.3,1.44c-.08,2.68,1.94,3.32,3,1.86l-1-2.07Z" transform="translate(-623.6 -327.42)"/><path class="cls-39" d="M721.31,399a.9.9,0,0,1-1.32.17,1.12,1.12,0,0,1-.13-.16c-.24-.41-.27-.59-.57-.66,0,0,.32-.7-.16-1.05a.38.38,0,0,0-.58.23c-.74-.37-1.12-2.07-1.67-2.14-.14,0-.15-.53-.14-.62a1.62,1.62,0,0,1,1.17-1.2,3.26,3.26,0,0,1,4.05,1.77A4,4,0,0,1,721.31,399Z" transform="translate(-623.6 -327.42)"/><path class="cls-65" d="M717.42,396.31c.28.57.88,1.3,1.17,1.27.06,0,0-.1.09-.18a.26.26,0,0,1,.28-.06c.45.19.33.81.35.94a.82.82,0,0,0,.17-.63.81.81,0,0,0-.36-.54c-.34-.22-.79-.16-1.13-.38-.16-.11-.17-.67-.29-.82a3.36,3.36,0,0,0-.85-.66c0,.11.1.23.15.36a2.07,2.07,0,0,1,.14.42S717.28,396,717.42,396.31Z" transform="translate(-623.6 -327.42)"/><path class="cls-39" d="M717.67,428.61c0,.27-1.54.13-1.82.35-.61.45.71,1.5,3,1.36h0s0-.06,0-.06,0,0,.06.08a4.19,4.19,0,0,0,1-.08,2.36,2.36,0,0,0-.08-1.65,1.85,1.85,0,0,1-2.19,0Z" transform="translate(-623.6 -327.42)"/><path class="cls-62" d="M720,430.2a.37.37,0,0,1,0,.18,2.87,2.87,0,0,1-1.07.05s0,0,0-.05a6.89,6.89,0,0,1-2.13-.23c-.21-.06-1-.28-1.08-.92.27.92,2.18,1.13,3.16,1,0,0,.07-.08.1,0a3.07,3.07,0,0,0,1.06-.11Z" transform="translate(-623.6 -327.42)"/><path class="cls-45" d="M723.76,410c.51,2.41-.25,6.7-.16,9s.38,7.45,0,8.13a2.52,2.52,0,0,1-2,0,.27.27,0,0,1-.17-.26c0-.79,0-2.45,0-4,0-3.16-1.06-4.5-1.06-8.29,0-.58-.17-.79,0-1.34a3.77,3.77,0,0,1,1.28-1.53c.7-.58,1.49-1.15,2.19-1.73Z" transform="translate(-623.6 -327.42)"/><path class="cls-66" d="M723.78,409.94a5.58,5.58,0,0,1-3.47,3.29,12.17,12.17,0,0,1,0,2.63c0,.35.06.67.09,1s.28,1.61.39,2.14a12.39,12.39,0,0,1,.48,2.86c.07,1.71.11,4.24.08,5,0,.18.28.28.43.32,0-2.09,0-3.73,0-5.46,0-2-1.23-4.91-.85-7.9,0-.39.31-.46.62-.64a6.41,6.41,0,0,0,1-.65A3,3,0,0,0,723.78,409.94Z" transform="translate(-623.6 -327.42)"/><path class="cls-45" d="M717.26,411.35a24,24,0,0,0-.39,8.68c.08.64.8,6.7.71,8.63.3.59,1.93.74,2.32,0a1.87,1.87,0,0,0,.08-.5c.29-3.45-.38-7-.38-8.37,0-2.1,1.43-4.67,1.14-6.44,2.1-.8,3.06-2.27,3-3.53a7.69,7.69,0,0,1-6.48,1.53Z" transform="translate(-623.6 -327.42)"/><path class="cls-67" d="M717.18,411.41c0,.08,0,.18,0,.25h0s0,.08,0,.17a7.92,7.92,0,0,0,6.33-1.31.89.89,0,0,0,.34-.63C723.84,409.8,717.18,411.41,717.18,411.41Z" transform="translate(-623.6 -327.42)"/><path class="cls-15" d="M723.25,403.73a2.51,2.51,0,0,0,1.51-.31c.25-.16-.25-1.1-.31-1.52a3.37,3.37,0,0,0-.92-2.11,1.69,1.69,0,0,0-2.12,0A4.14,4.14,0,0,1,723.25,403.73Z" transform="translate(-623.6 -327.42)"/><path class="cls-14" d="M723.89,409.84c.16-.73-.62-1-.62-3.18,0-1.34.61-3.47.45-4.8-.26-2-1.54-2.27-2.72-2.06a2.64,2.64,0,0,1-2.64.7,3,3,0,0,0-1.71,1.3,1.92,1.92,0,0,1,1.07,1.58c.06.6-.66,5.19-.53,8.28a8.34,8.34,0,0,0,6.28-1.19A1.18,1.18,0,0,0,723.89,409.84Z" transform="translate(-623.6 -327.42)"/><path class="cls-68" d="M717.9,411.79a12.31,12.31,0,0,1-.15-4.15c.1-.77,0-2.93,0-3.23a5.14,5.14,0,0,0,.25-.91,1.74,1.74,0,0,0-.25-1.07,2.33,2.33,0,0,0-.88-.77,3.47,3.47,0,0,1,1.44-1.15h0a3,3,0,0,0-1.71,1.3,1.92,1.92,0,0,1,1.07,1.58c.06.6-.66,5.19-.53,8.28Z" transform="translate(-623.6 -327.42)"/><path class="cls-68" d="M723.29,406.28a3.6,3.6,0,0,0,.58,3.09c-.06-.23-.22-.56-.33-.87v0a6.06,6.06,0,0,1-.24-2.2Z" transform="translate(-623.6 -327.42)"/><path class="cls-49" d="M715.31,414.37a10.14,10.14,0,0,1,.52-1.67l.57-2c.36-1.32.7-2.65,1-4a.31.31,0,0,0,0-.19.27.27,0,0,0-.1-.11,3,3,0,0,0-1.84-.69c-.08,0-.21,2.22-.23,2.44-.09.83-.19,1.67-.29,2.5s-.25,1.59-.32,2.38-.6.93-1,1.47a3.2,3.2,0,0,0-.55,1.73.44.44,0,0,0,.09.34.31.31,0,0,0,.26.07c.48,0,.81-.5,1-1a.56.56,0,0,1,.1-.24.2.2,0,0,1,.22-.09c.09,0,.14.12.19.19.21.31.4-.09.43-.32S715.26,414.67,715.31,414.37Z" transform="translate(-623.6 -327.42)"/><path class="cls-15" d="M718.84,403.45c-.07.23-.23.44-.32.67-.26.64-.51,1.29-.77,1.94a3.55,3.55,0,0,0-.26.84l-2-.89c-.06,0-.13-.06-.14-.12a.14.14,0,0,1,0-.09l.44-1.6a15.71,15.71,0,0,1,.68-2.11,1,1,0,0,1,.19-.32c.39-.43,1.07.13,1.42.36a1.64,1.64,0,0,1,.76,1.24Z" transform="translate(-623.6 -327.42)"/><path class="cls-69" d="M705.33,349.84c-.11-.16-.45,0-.63-.09a.38.38,0,0,0-.21,0,.46.46,0,0,0-.21.05,2.13,2.13,0,0,0-.87.64.52.52,0,0,0-.1.18.19.19,0,0,0,.06.19c.17.13.66-.17.34.23-.18.22-.43.38-.63.59s-.4.76-.13,1a.8.8,0,0,0,.74.1,2.77,2.77,0,0,0,2-2A.7.7,0,0,0,705.33,349.84Z" transform="translate(-623.6 -327.42)"/><g class="cls-70"><polygon class="cls-71" points="121.11 62.88 115.65 66.05 114.08 66.96 107.68 70.68 94.46 63.05 101.33 59.05 102.86 58.17 107.89 55.25 121.11 62.88"/></g><g class="cls-1"><polygon class="cls-72" points="118.83 51.42 118.8 62.64 114.75 64.99 113.28 65.84 107.24 69.35 107.26 58.15 113.25 54.67 114.72 53.82 118.83 51.42"/><polygon class="cls-73" points="107.27 58.15 107.23 69.35 95.86 62.78 95.89 51.58 107.27 58.15"/><polygon class="cls-74" points="118.83 51.42 107.27 58.15 95.89 51.58 107.45 44.85 118.83 51.42"/></g><g class="cls-1"><polygon class="cls-75" points="119.83 50.82 119.83 53.11 107.24 60.42 107.25 58.14 119.83 50.82"/><polygon class="cls-76" points="107.25 58.14 107.24 60.42 94.86 53.27 94.86 50.99 107.25 58.14"/><polygon class="cls-77" points="119.83 50.82 114.72 53.79 113.25 54.65 107.25 58.13 94.86 50.99 101.3 47.24 102.74 46.41 107.45 43.67 119.83 50.82"/></g><polygon class="cls-15" points="114.75 64.99 113.28 65.84 113.25 54.69 113.25 54.65 114.72 53.8 114.72 53.84 114.75 64.99"/><polygon class="cls-15" points="100.3 65.36 101.77 66.22 101.8 54.99 100.33 54.14 100.3 65.36"/><polygon class="cls-78" points="100.33 54.14 101.81 55 113.96 47.45 112.53 46.63 100.33 54.14"/><g class="cls-70"><polygon class="cls-79" points="114.72 53.79 113.25 54.65 101.3 47.24 102.74 46.41 114.72 53.79"/></g><g class="cls-70"><polygon class="cls-80" points="116.13 51.81 112.76 53.76 111.79 54.33 107.84 56.62 99.68 51.91 103.92 49.45 104.87 48.9 107.97 47.1 116.13 51.81"/></g><g class="cls-1"><polygon class="cls-81" points="114.72 45.03 114.7 51.68 112.3 53.08 111.42 53.58 107.84 55.66 107.86 49.02 111.41 46.95 112.28 46.45 114.72 45.03"/><polygon class="cls-82" points="107.86 49.02 107.84 55.67 101.09 51.77 101.11 45.12 107.86 49.02"/><polygon class="cls-74" points="114.72 45.03 107.86 49.02 101.11 45.12 107.97 41.13 114.72 45.03"/></g><g class="cls-1"><polygon class="cls-83" points="115.31 44.67 115.31 46.03 107.84 50.37 107.84 49.01 115.31 44.67"/><polygon class="cls-84" points="107.84 49.01 107.84 50.37 100.49 46.12 100.5 44.77 107.84 49.01"/><polygon class="cls-85" points="115.31 44.67 112.28 46.43 111.41 46.94 107.84 49.01 100.5 44.77 104.32 42.54 105.17 42.05 107.97 40.43 115.31 44.67"/></g><polygon class="cls-15" points="112.3 53.08 111.42 53.58 111.41 46.97 111.41 46.94 112.28 46.44 112.28 46.46 112.3 53.08"/><polygon class="cls-15" points="103.72 53.3 104.6 53.8 104.62 47.15 103.74 46.64 103.72 53.3"/><polygon class="cls-86" points="103.74 46.64 104.62 47.15 111.83 42.67 110.98 42.18 103.74 46.64"/><g class="cls-70"><polygon class="cls-87" points="112.28 46.43 111.41 46.94 104.32 42.54 105.17 42.05 112.28 46.43"/></g><g class="cls-70"><polygon class="cls-88" points="75.95 45.41 69.48 49.17 63.12 45.49 69.59 41.74 75.95 45.41"/></g><g class="cls-1"><polygon class="cls-89" points="74.41 41.07 74.39 45.83 72.67 46.83 72.05 47.19 69.48 48.68 69.5 43.93 72.03 42.45 72.66 42.09 74.41 41.07"/><polygon class="cls-90" points="69.5 43.93 69.48 48.68 64.65 45.89 64.67 41.14 69.5 43.93"/><polygon class="cls-74" points="74.41 41.07 69.5 43.93 64.67 41.14 69.58 38.28 74.41 41.07"/></g><g class="cls-1"><polygon class="cls-91" points="74.83 40.82 74.83 41.79 69.48 44.89 69.49 43.92 74.83 40.82"/><polygon class="cls-92" points="69.49 43.92 69.48 44.89 64.23 41.86 64.23 40.89 69.49 43.92"/><polygon class="cls-93" points="74.83 40.82 72.66 42.08 72.03 42.44 69.49 43.92 64.23 40.89 66.97 39.3 67.57 38.94 69.57 37.78 74.83 40.82"/></g><polygon class="cls-15" points="72.67 46.83 72.05 47.19 72.03 42.46 72.03 42.44 72.66 42.08 72.66 42.1 72.67 46.83"/><polygon class="cls-15" points="66.54 46.99 67.16 47.35 67.18 42.59 66.55 42.22 66.54 46.99"/><polygon class="cls-94" points="66.55 42.23 67.18 42.59 72.34 39.39 71.73 39.04 66.55 42.23"/><g class="cls-70"><polygon class="cls-95" points="72.66 42.08 72.03 42.44 66.97 39.3 67.57 38.94 72.66 42.08"/></g><g class="cls-70"><polygon class="cls-96" points="73.63 40.99 71.83 42.04 71.31 42.34 69.18 43.57 64.81 41.04 67.08 39.72 67.59 39.43 69.25 38.46 73.63 40.99"/></g><g class="cls-1"><polygon class="cls-97" points="73.28 36.98 73.27 40.94 71.84 41.77 71.32 42.07 69.18 43.31 69.19 39.35 71.31 38.12 71.83 37.82 73.28 36.98"/><polygon class="cls-98" points="69.19 39.35 69.18 43.31 65.16 40.99 65.17 37.03 69.19 39.35"/><polygon class="cls-74" points="73.28 36.98 69.19 39.35 65.17 37.03 69.26 34.65 73.28 36.98"/></g><g class="cls-1"><polygon class="cls-99" points="73.63 36.76 73.63 37.57 69.18 40.16 69.18 39.35 73.63 36.76"/><polygon class="cls-100" points="69.18 39.35 69.18 40.16 64.8 37.63 64.81 36.82 69.18 39.35"/><polygon class="cls-101" points="73.63 36.76 71.83 37.81 71.31 38.12 69.18 39.35 64.81 36.82 67.08 35.5 67.59 35.2 69.25 34.24 73.63 36.76"/></g><polygon class="cls-15" points="71.84 41.77 71.32 42.07 71.31 38.13 71.31 38.12 71.83 37.81 71.83 37.83 71.84 41.77"/><polygon class="cls-15" points="66.73 41.9 67.25 42.2 67.26 38.24 66.74 37.94 66.73 41.9"/><polygon class="cls-102" points="66.74 37.94 67.26 38.24 71.56 35.57 71.05 35.28 66.74 37.94"/><g class="cls-70"><polygon class="cls-103" points="71.83 37.81 71.31 38.12 67.08 35.5 67.59 35.2 71.83 37.81"/></g></g></g></svg>