<svg id="Слой_1" data-name="Слой 1" xmlns="http://www.w3.org/2000/svg" xmlns:xlink="http://www.w3.org/1999/xlink" viewBox="0 0 208.31 188.17"><defs><style>.cls-1{fill:url(#Degradado_sin_nombre_36);}.cls-2{fill:url(#Degradado_sin_nombre_11);}.cls-3{fill:#543ace;}.cls-4{fill:#fff;}.cls-5{fill:#d1485c;}.cls-6{fill:#8579ef;}.cls-7{fill:#543acc;}.cls-8{fill:#9482d6;}.cls-9{fill:#fffff6;}.cls-10{fill:#dad5f6;}.cls-11{opacity:0.15;}.cls-12{fill:#e4dafd;}.cls-13{fill:#6860dd;}.cls-14{fill:#ab92e4;}.cls-15{fill:#2d1f61;}.cls-16{fill:#392570;}.cls-17{fill:#bc4059;}.cls-18{fill:#d25b6d;}.cls-19{fill:#c4aaf3;}.cls-20{fill:#432fb9;}.cls-21{fill:#5945d5;}.cls-22{fill:#e8e8ee;}.cls-23{fill:#b099e6;}.cls-24{fill:#2e1f64;}.cls-25{fill:#d45b6d;}.cls-26{fill:#c6acf5;}.cls-27{fill:#604bdd;}.cls-28{fill:#4430b7;}.cls-29{fill:#9d86d6;}</style><linearGradient id="Degradado_sin_nombre_36" x1="579.69" y1="382.61" x2="775.54" y2="382.61" gradientUnits="userSpaceOnUse"><stop offset="0" stop-color="#2acaff"/><stop offset="1" stop-color="#2adfc3"/></linearGradient><linearGradient id="Degradado_sin_nombre_11" x1="599.9" y1="394.89" x2="787.72" y2="394.89" gradientUnits="userSpaceOnUse"><stop offset="0" stop-color="#76aadb"/><stop offset="1" stop-color="#4a72b2"/></linearGradient></defs><title>service-blog-new</title><path class="cls-1" d="M594.57,421.47s-40.92-40,12.95-75.92,112.1-52.15,146-47.9,25.38,86-3.89,135.65S650,480.22,594.57,421.47Z" transform="translate(-579.69 -296.99)"/><path class="cls-2" d="M766.8,336.34s47.07,32.57,0,77-101.73,70.26-135.89,71.78-39.48-80.47-19-134.38S702.27,287.75,766.8,336.34Z" transform="translate(-579.69 -296.99)"/><path class="cls-3" d="M638.75,435.9c9.6-3.48,15.82-12.44,19.69-21.47,1.11-2.59,1.85-4.42,1.46-6.28a2.83,2.83,0,0,0-.09-.37,8.08,8.08,0,0,0-2.11-3.25,51,51,0,0,0-9.21-7c-5.69-3.68-12.33-6.16-19.2-5.66-6.36.46-17.34,9-39.07,26.19-5.16,4.07-6.72,5.41-6.36,6.38a.94.94,0,0,0,.12.22v0c.07,1,2,1.61,8.41,3.23C619.22,434.72,632.76,438.07,638.75,435.9Z" transform="translate(-579.69 -296.99)"/><path class="cls-4" d="M646.45,411.39l.17,0c2-.45,3.88-.91,5.84-1.38l.51-.12,3.95-1,3-.73a2.49,2.49,0,0,0-.09-.37l-3,.73c-3.56.87-6.91,1.69-10.34,2.48l-.55.13c-3.43.78-7,1.53-10.84,2.28l-.58.11c-1.17.23-2.38.45-3.63.67l-1.43.25-.09,0h0q-3.63.62-7.27,1.17l-.62.09h0q-3.93.59-7.81,1.06a.19.19,0,1,0,0,.38h0c5.09-.62,10.26-1.39,15.36-2.27l.49-.08,1.39-.25c3.08-.55,5.9-1.09,8.57-1.65l.48-.1C642.23,412.34,644.36,411.87,646.45,411.39Z" transform="translate(-579.69 -296.99)"/><path class="cls-4" d="M621.36,429.15q4.18-7.12,8.2-14.35a.41.41,0,0,0,.05-.09.19.19,0,0,0-.06-.25h0l-.09,0-.08,0h0a.18.18,0,0,0-.09.08l-.21.36c-2.64,4.74-5.36,9.49-8.11,14.18Z" transform="translate(-579.69 -296.99)"/><path class="cls-4" d="M630.42,429.53h0c3.25-5.48,6.45-11.06,9.56-16.64a.24.24,0,0,0,0-.08.19.19,0,0,0-.09-.18h0a.2.2,0,0,0-.26.08l-.11.2c-3.11,5.6-6.32,11.19-9.58,16.67Z" transform="translate(-579.69 -296.99)"/><path class="cls-4" d="M643.22,426.07c.21-.09.41-.19.62-.3,3.1-5.25,6.16-10.58,9.13-15.92,0,0,0,0,0,0a.18.18,0,0,0-.07-.25h0a.18.18,0,0,0-.25.07h0l-.19.35C649.46,415.37,646.36,420.77,643.22,426.07Z" transform="translate(-579.69 -296.99)"/><path class="cls-4" d="M635.15,413.66h0a.2.2,0,0,0-.06-.25h0c-4.56-2.54-9.12-5.14-13.62-7.78l-.41.21c4.45,2.61,9,5.18,13.47,7.69l.37.21a.19.19,0,0,0,.26-.07Z" transform="translate(-579.69 -296.99)"/><path class="cls-4" d="M646.62,411.35l0,0s0,0,0,0a.21.21,0,0,0-.08-.26l-.09-.05c-6.21-3.45-12.4-7-18.47-10.65l-.29.28c6,3.57,12.09,7.09,18.2,10.5l.46.25.05,0A.19.19,0,0,0,646.62,411.35Z" transform="translate(-579.69 -296.99)"/><path class="cls-4" d="M622.14,415.88h0a.18.18,0,0,0-.06-.25h0q-6-3.36-12-6.82v0a3.07,3.07,0,0,0-.25.26q5.77,3.38,11.61,6.61l.42.23A.18.18,0,0,0,622.14,415.88Z" transform="translate(-579.69 -296.99)"/><path class="cls-5" d="M627.29,420.44c10.21.15,19.2-6,26-13.12,2-2,3.3-3.47,3.59-5.35,0-.12,0-.25.05-.38a8,8,0,0,0-.83-3.78A50.76,50.76,0,0,0,650,388c-4-5.46-9.35-10.13-16-12.09-6.11-1.82-19.43,2.32-45.81,10.66-6.27,2-8.2,2.68-8.21,3.71a.69.69,0,0,0,0,.25v0c-.3,1,1.33,2.23,6.72,6C609.44,412.42,620.91,420.35,627.29,420.44Z" transform="translate(-579.69 -296.99)"/><path class="cls-4" d="M643.17,400.24l.17,0c2,.27,4,.52,5.95.77l.52.07,4,.5,3,.37c0-.13,0-.25,0-.38l-3.05-.37c-3.63-.45-7-.87-10.54-1.34l-.56-.08c-3.48-.48-7-1-10.94-1.7l-.59-.1-3.63-.67c-.47-.08-1-.17-1.42-.27h-.09q-3.61-.71-7.23-1.48l-.61-.13h0c-2.57-.56-5.13-1.16-7.68-1.78a.19.19,0,0,0-.21.17.18.18,0,0,0,.13.2c5,1.22,10.08,2.34,15.17,3.33l.48.09,1.39.26c3.07.58,5.9,1.07,8.6,1.5l.48.07C638.88,399.64,641,400,643.17,400.24Z" transform="translate(-579.69 -296.99)"/><path class="cls-4" d="M613.41,408c4.29-3.45,8.56-7,12.76-10.53l.07-.06a.18.18,0,0,0,0-.26h0a.18.18,0,0,0-.07-.05l-.09,0h0a.22.22,0,0,0-.11.05l-.31.26c-4.16,3.51-8.38,7-12.62,10.4Z" transform="translate(-579.69 -296.99)"/><path class="cls-4" d="M621.75,411.53h0c5-4,10-8,14.84-12.18,0,0,0,0,0-.06a.18.18,0,0,0,0-.2h0a.19.19,0,0,0-.27,0h0l-.18.15c-4.89,4.13-9.87,8.22-14.87,12.2Z" transform="translate(-579.69 -296.99)"/><path class="cls-4" d="M635,412.83l.68-.06c4.77-3.81,9.51-7.72,14.18-11.66l0,0a.19.19,0,0,0,0-.26m0,0a.19.19,0,0,0-.27,0h0l-.3.25c-4.73,4-9.53,7.94-14.35,11.79Z" transform="translate(-579.69 -296.99)"/><path class="cls-4" d="M631.8,398.36h0a.2.2,0,0,0,0-.25s0,0,0,0q-5.05-6-10-12.1l-.46.05q4.86,6,9.88,12c.09.12.18.22.28.33A.19.19,0,0,0,631.8,398.36Z" transform="translate(-579.69 -296.99)"/><path class="cls-4" d="M643.33,400.26l0,0h0a.19.19,0,0,0,0-.27l-.07-.08c-4.58-5.42-9.11-11-13.5-16.5l-.37.16c4.34,5.46,8.79,10.92,13.31,16.26l.34.41,0,0A.17.17,0,0,0,643.33,400.26Z" transform="translate(-579.69 -296.99)"/><path class="cls-4" d="M618.85,395.83h0a.2.2,0,0,0,0-.26h0q-4.43-5.25-8.77-10.59h0l-.32.16q4.2,5.19,8.52,10.3c.1.13.21.25.31.37A.19.19,0,0,0,618.85,395.83Z" transform="translate(-579.69 -296.99)"/><path class="cls-6" d="M626.77,395.42c7.86,4.56,17.55,3.68,25.92,1.15,2.41-.74,4.08-1.28,5.12-2.6l.21-.27a7.23,7.23,0,0,0,1-3.31,45.41,45.41,0,0,0-.5-10.28c-.75-6-2.86-11.94-7.12-16.34-4-4.07-16.11-6.66-40.24-11.68-5.73-1.19-7.53-1.49-8-.69a.7.7,0,0,0-.08.2h0c-.66.64.06,2.32,2.6,7.59C616.4,381.4,621.86,392.56,626.77,395.42Z" transform="translate(-579.69 -296.99)"/><path class="cls-4" d="M647.9,386.64l.12.09c1.43,1.08,2.85,2.13,4.29,3.2l.38.27,2.91,2.15,2.21,1.61.21-.27-2.21-1.62c-2.62-1.93-5.1-3.74-7.6-5.64l-.41-.3c-2.5-1.89-5-3.86-7.77-6.09l-.41-.33c-.82-.68-1.67-1.37-2.53-2.1l-1-.82-.06-.06h0q-2.5-2.12-5-4.29l-.41-.37h0q-2.64-2.34-5.2-4.73a.16.16,0,0,0-.24,0h0a.17.17,0,0,0,0,.24h0c3.35,3.12,6.81,6.21,10.34,9.19l.33.29,1,.81c2.13,1.78,4.12,3.4,6,4.9.11.1.22.18.34.27C644.83,384.3,646.37,385.48,647.9,386.64Z" transform="translate(-579.69 -296.99)"/><path class="cls-4" d="M621.42,379.68c4.83-.81,9.68-1.69,14.49-2.62H636a.18.18,0,0,0,.14-.19h0l0-.07a.34.34,0,0,0-.06-.06h-.11l-.36.07c-4.75.92-9.55,1.78-14.33,2.58Z" transform="translate(-579.69 -296.99)"/><path class="cls-4" d="M626.35,386.08h0c5.6-.92,11.24-1.93,16.83-3l.06,0a.15.15,0,0,0,.07-.16h0a.16.16,0,0,0-.2-.14h0l-.21,0c-5.6,1.08-11.24,2.08-16.86,3Z" transform="translate(-579.69 -296.99)"/><path class="cls-4" d="M636,392.83l.56.25c5.37-.88,10.75-1.84,16.1-2.88h0a.15.15,0,0,0,.13-.18h0a.16.16,0,0,0-.19-.14h0l-.35.07C646.9,391,641.45,391.94,636,392.83Z" transform="translate(-579.69 -296.99)"/><path class="cls-4" d="M639.89,380.22h0A.17.17,0,0,0,640,380s0,0,0,0c-.88-4.57-1.71-9.17-2.47-13.75l-.38-.16q1.16,6.81,2.46,13.6c0,.12.05.25.07.37A.16.16,0,0,0,639.89,380.22Z" transform="translate(-579.69 -296.99)"/><path class="cls-4" d="M648,386.73h.05a.18.18,0,0,0,.13-.21v-.09c-1.2-6.21-2.31-12.48-3.31-18.7l-.35,0c1,6.12,2.06,12.3,3.25,18.43l.09.46s0,0,0,0A.18.18,0,0,0,648,386.73Z" transform="translate(-579.69 -296.99)"/><path class="cls-4" d="M630.93,372.62h0a.18.18,0,0,0,.13-.19h0c-.77-4-1.51-8-2.2-12.06h-.34c.66,3.91,1.38,7.82,2.13,11.71,0,.14.05.28.08.42A.17.17,0,0,0,630.93,372.62Z" transform="translate(-579.69 -296.99)"/><path class="cls-3" d="M729.25,435.9c-9.6-3.48-15.82-12.44-19.69-21.47-1.11-2.59-1.85-4.42-1.46-6.28a2.83,2.83,0,0,1,.09-.37,8.08,8.08,0,0,1,2.11-3.25,51,51,0,0,1,9.21-7c5.69-3.68,12.33-6.16,19.2-5.66,6.36.46,17.34,9,39.07,26.19,5.16,4.07,6.72,5.41,6.36,6.38a.94.94,0,0,1-.12.22v0c-.07,1-2,1.61-8.41,3.23C748.78,434.72,735.24,438.07,729.25,435.9Z" transform="translate(-579.69 -296.99)"/><path class="cls-4" d="M721.55,411.39l-.17,0c-2-.45-3.88-.91-5.84-1.38l-.51-.12-3.95-1-3-.73a2.49,2.49,0,0,1,.09-.37l3,.73c3.56.87,6.91,1.69,10.34,2.48l.55.13c3.43.78,7,1.53,10.84,2.28l.58.11c1.17.23,2.38.45,3.63.67l1.43.25.09,0h0q3.63.62,7.27,1.17l.62.09h0q3.93.59,7.81,1.06a.19.19,0,0,1,0,.38h0c-5.09-.62-10.26-1.39-15.36-2.27l-.49-.08-1.38-.24c-3.07-.55-5.89-1.1-8.57-1.66l-.47-.09C725.77,412.34,723.65,411.87,721.55,411.39Z" transform="translate(-579.69 -296.99)"/><path class="cls-4" d="M746.64,429.15q-4.18-7.12-8.2-14.35a.41.41,0,0,1-.05-.09.19.19,0,0,1,.06-.25h0l.09,0a.12.12,0,0,1,.08,0h0a.18.18,0,0,1,.09.08l.21.36c2.64,4.74,5.36,9.49,8.11,14.18Z" transform="translate(-579.69 -296.99)"/><path class="cls-4" d="M737.58,429.53h0c-3.25-5.48-6.45-11.06-9.56-16.64a.24.24,0,0,1,0-.08.19.19,0,0,1,.09-.18h0a.2.2,0,0,1,.26.08l.11.2c3.11,5.6,6.32,11.19,9.58,16.67Z" transform="translate(-579.69 -296.99)"/><path class="cls-4" d="M724.78,426.07c-.21-.09-.41-.19-.62-.3-3.09-5.25-6.16-10.58-9.13-15.92,0,0,0,0,0,0a.18.18,0,0,1,.07-.25h0a.18.18,0,0,1,.25.07h0l.19.35C718.54,415.37,721.64,420.77,724.78,426.07Z" transform="translate(-579.69 -296.99)"/><path class="cls-4" d="M732.85,413.66h0a.2.2,0,0,1,.06-.25h0c4.56-2.54,9.12-5.14,13.62-7.78l.41.21c-4.45,2.61-9,5.18-13.47,7.69l-.37.21a.19.19,0,0,1-.26-.07Z" transform="translate(-579.69 -296.99)"/><path class="cls-4" d="M721.38,411.35l0,0s0,0,0,0a.21.21,0,0,1,.08-.26l.09-.05c6.21-3.45,12.4-7,18.47-10.65l.29.28c-6,3.57-12.09,7.09-18.2,10.5l-.47.25,0,0A.19.19,0,0,1,721.38,411.35Z" transform="translate(-579.69 -296.99)"/><path class="cls-4" d="M745.86,415.88h0a.18.18,0,0,1,.06-.25h0q6-3.35,12-6.8h0l.25.27q-5.77,3.38-11.62,6.61l-.41.23a.18.18,0,0,1-.26-.06Z" transform="translate(-579.69 -296.99)"/><path class="cls-5" d="M740.71,420.44c-10.21.15-19.2-6-26-13.12-2-2-3.3-3.47-3.59-5.35,0-.12,0-.25-.05-.38a8,8,0,0,1,.83-3.78A50.76,50.76,0,0,1,718,388c4-5.46,9.35-10.13,16-12.09,6.11-1.82,19.43,2.32,45.81,10.66,6.27,2,8.2,2.68,8.21,3.71a.69.69,0,0,1,0,.25v0c.3,1-1.33,2.23-6.72,6C758.56,412.42,747.09,420.35,740.71,420.44Z" transform="translate(-579.69 -296.99)"/><path class="cls-4" d="M724.83,400.24l-.17,0c-2,.27-4,.52-5.95.77l-.52.07-4,.5-3,.37c0-.13,0-.25,0-.38l3.05-.37c3.63-.45,7-.87,10.54-1.34l.56-.08c3.48-.48,7-1,10.94-1.7l.59-.1,3.63-.67c.47-.08,1-.17,1.42-.27h.09q3.61-.71,7.23-1.48l.62-.13h0c2.57-.56,5.13-1.16,7.68-1.78a.19.19,0,0,1,.21.17.18.18,0,0,1-.13.2c-5,1.22-10.08,2.34-15.17,3.33l-.48.09-1.39.26c-3.07.58-5.9,1.07-8.6,1.5l-.48.07C729.12,399.64,727,400,724.83,400.24Z" transform="translate(-579.69 -296.99)"/><path class="cls-4" d="M754.59,408c-4.29-3.45-8.56-7-12.76-10.53l-.07-.06a.18.18,0,0,1,0-.26h0a.18.18,0,0,1,.07-.05l.09,0h0a.22.22,0,0,1,.11.05l.31.26c4.16,3.51,8.38,7,12.62,10.4Z" transform="translate(-579.69 -296.99)"/><path class="cls-4" d="M746.25,411.53h0c-5-4-10-8-14.84-12.18,0,0,0,0,0-.06a.18.18,0,0,1,0-.2h0a.19.19,0,0,1,.27,0h0l.18.15c4.89,4.13,9.87,8.22,14.87,12.2Z" transform="translate(-579.69 -296.99)"/><path class="cls-4" d="M733.05,412.83l-.68-.06c-4.77-3.81-9.51-7.72-14.18-11.66l0,0a.19.19,0,0,1,0-.26m0,0a.19.19,0,0,1,.27,0h0l.3.25c4.73,4,9.53,7.94,14.35,11.79Z" transform="translate(-579.69 -296.99)"/><path class="cls-4" d="M736.2,398.36h0a.2.2,0,0,1,0-.25s0,0,0,0c3.37-4,6.72-8,10-12.1l.46.05q-4.86,6-9.88,12c-.09.12-.18.22-.28.33A.19.19,0,0,1,736.2,398.36Z" transform="translate(-579.69 -296.99)"/><path class="cls-4" d="M724.67,400.26l0,0h0a.19.19,0,0,1,0-.27l.07-.08c4.58-5.42,9.11-11,13.5-16.5l.37.16c-4.34,5.46-8.79,10.92-13.31,16.26l-.34.41,0,0A.17.17,0,0,1,724.67,400.26Z" transform="translate(-579.69 -296.99)"/><path class="cls-4" d="M749.15,395.83h0a.2.2,0,0,1,0-.26h0q4.43-5.25,8.77-10.59h0l.32.16q-4.2,5.19-8.52,10.3c-.1.13-.21.25-.31.37A.19.19,0,0,1,749.15,395.83Z" transform="translate(-579.69 -296.99)"/><path class="cls-6" d="M741.23,395.42c-7.86,4.56-17.55,3.68-25.92,1.15-2.41-.74-4.08-1.28-5.12-2.6l-.21-.27a7.23,7.23,0,0,1-1-3.31,45.41,45.41,0,0,1,.5-10.28c.75-6,2.86-11.94,7.12-16.34,4-4.07,16.11-6.66,40.24-11.68,5.73-1.19,7.53-1.49,8-.69a.7.7,0,0,1,.08.2h0c.66.64-.06,2.32-2.6,7.59C751.6,381.4,746.14,392.56,741.23,395.42Z" transform="translate(-579.69 -296.99)"/><path class="cls-4" d="M720.1,386.64l-.12.09c-1.43,1.08-2.85,2.13-4.29,3.2l-.38.27-2.91,2.15L710.19,394l-.21-.27,2.21-1.62c2.62-1.93,5.1-3.74,7.6-5.64l.41-.3c2.5-1.89,5-3.86,7.77-6.09l.41-.33c.82-.68,1.67-1.37,2.53-2.1l1-.82.06-.06h0q2.5-2.12,5-4.29l.41-.37h0q2.64-2.34,5.19-4.72a.16.16,0,0,1,.24,0h0a.16.16,0,0,1,0,.24h0c-3.34,3.12-6.81,6.21-10.34,9.19l-.33.28-1,.81c-2.13,1.79-4.12,3.4-6,4.91-.11.09-.22.18-.34.26C723.17,384.3,721.63,385.48,720.1,386.64Z" transform="translate(-579.69 -296.99)"/><path class="cls-4" d="M746.58,379.68c-4.83-.81-9.68-1.69-14.49-2.62H732a.18.18,0,0,1-.14-.19h0l0-.07a.34.34,0,0,1,.06-.06h.11l.36.07c4.75.92,9.55,1.78,14.33,2.58C746.69,379.46,746.64,379.57,746.58,379.68Z" transform="translate(-579.69 -296.99)"/><path class="cls-4" d="M741.65,386.08h0c-5.6-.92-11.24-1.93-16.83-3l-.06,0a.15.15,0,0,1-.07-.16h0a.16.16,0,0,1,.2-.14h0l.21,0c5.6,1.08,11.24,2.08,16.86,3Z" transform="translate(-579.69 -296.99)"/><path class="cls-4" d="M732,392.83l-.56.25c-5.37-.88-10.75-1.84-16.1-2.88h0a.15.15,0,0,1-.13-.18h0a.16.16,0,0,1,.19-.14h0l.35.07C721.1,391,726.55,391.94,732,392.83Z" transform="translate(-579.69 -296.99)"/><path class="cls-4" d="M728.11,380.22h0A.17.17,0,0,1,728,380s0,0,0,0c.88-4.57,1.71-9.17,2.47-13.75l.38-.16q-1.16,6.81-2.46,13.6c0,.12,0,.25-.07.37A.18.18,0,0,1,728.11,380.22Z" transform="translate(-579.69 -296.99)"/><path class="cls-4" d="M720,386.73h-.05a.18.18,0,0,1-.13-.21v-.09c1.2-6.21,2.31-12.48,3.31-18.7l.35,0c-1,6.12-2.06,12.3-3.25,18.43l-.09.46s0,0,0,0A.18.18,0,0,1,720,386.73Z" transform="translate(-579.69 -296.99)"/><path class="cls-4" d="M737.07,372.62h0a.18.18,0,0,1-.13-.19h0c.77-4,1.51-8,2.2-12.06h.34c-.66,3.91-1.38,7.82-2.13,11.71,0,.14-.05.28-.08.42A.17.17,0,0,1,737.07,372.62Z" transform="translate(-579.69 -296.99)"/><path class="cls-7" d="M630.12,345.42H737.84a6.64,6.64,0,0,1,6.64,6.64h0v64.69h-121V352.06A6.64,6.64,0,0,1,630.12,345.42Z" transform="translate(-579.69 -296.99)"/><polygon class="cls-8" points="28.28 147.33 180.31 147.33 164.8 119.76 43.79 119.76 28.28 147.33"/><rect class="cls-8" x="50.12" y="53.38" width="108.35" height="62.64" rx="3.18"/><path class="cls-7" d="M608,444.32H760l-.9,1.61a10,10,0,0,1-8.73,5.11H617.59a10,10,0,0,1-8.72-5.11Z" transform="translate(-579.69 -296.99)"/><polygon class="cls-9" points="70.46 140.56 138.23 140.56 137.26 137.13 72.3 137.13 70.46 140.56"/><polygon class="cls-9" points="77.84 131.17 76.65 133.89 84.69 133.89 85.56 131.17 77.84 131.17"/><polygon class="cls-9" points="66.44 131.17 65.24 133.89 73.28 133.89 74.15 131.17 66.44 131.17"/><polygon class="cls-9" points="54.6 131.17 53.4 133.89 61.44 133.89 62.31 131.17 54.6 131.17"/><polygon class="cls-9" points="112.49 131.17 111.3 133.89 119.33 133.89 120.2 131.17 112.49 131.17"/><polygon class="cls-9" points="101.09 131.17 99.89 133.89 107.93 133.89 108.8 131.17 101.09 131.17"/><polygon class="cls-9" points="89.25 131.17 88.05 133.89 96.09 133.89 96.96 131.17 89.25 131.17"/><polygon class="cls-9" points="147.47 131.17 146.27 133.89 154.31 133.89 155.18 131.17 147.47 131.17"/><polygon class="cls-9" points="136.06 131.17 134.87 133.89 142.91 133.89 143.78 131.17 136.06 131.17"/><polygon class="cls-9" points="124.22 131.17 123.03 133.89 131.07 133.89 131.94 131.17 124.22 131.17"/><polygon class="cls-9" points="74.17 124.11 72.97 126.82 81.01 126.82 81.88 124.11 74.17 124.11"/><polygon class="cls-9" points="62.76 124.11 61.57 126.82 69.6 126.82 70.47 124.11 62.76 124.11"/><polygon class="cls-9" points="50.92 124.11 49.73 126.82 57.76 126.82 58.63 124.11 50.92 124.11"/><polygon class="cls-9" points="108.81 124.11 107.62 126.82 115.66 126.82 116.53 124.11 108.81 124.11"/><polygon class="cls-9" points="97.41 124.11 96.22 126.82 104.25 126.82 105.12 124.11 97.41 124.11"/><polygon class="cls-9" points="85.57 124.11 84.38 126.82 92.41 126.82 93.28 124.11 85.57 124.11"/><polygon class="cls-9" points="143.79 124.11 142.6 126.82 150.63 126.82 151.5 124.11 143.79 124.11"/><polygon class="cls-9" points="132.38 124.11 131.19 126.82 139.23 126.82 140.1 124.11 132.38 124.11"/><polygon class="cls-9" points="120.55 124.11 119.35 126.82 127.39 126.82 128.26 124.11 120.55 124.11"/><rect class="cls-9" x="54.18" y="58.79" width="99.31" height="53.19"/><rect class="cls-10" x="60.38" y="99.82" width="42.83" height="5.7"/><rect class="cls-6" x="60.38" y="64.28" width="42.83" height="35.54"/><g class="cls-11"><path class="cls-12" d="M646.26,379.54h-4.21a2.11,2.11,0,1,1,4.21,0Z" transform="translate(-579.69 -296.99)"/><path class="cls-12" d="M659.66,378.73a2.25,2.25,0,0,1-.16.81h-3.89a2.1,2.1,0,0,1,3.7-2,2,2,0,0,1,.35,1.15Z" transform="translate(-579.69 -296.99)"/><path class="cls-12" d="M649.25,377.43a3,3,0,0,1-.86,2.11h-4.26a2.94,2.94,0,0,1-.86-1.91v-.2a3,3,0,0,1,6,0Z" transform="translate(-579.69 -296.99)"/><path class="cls-12" d="M656.53,377.84a3,3,0,0,1-.53,1.7h-4.94a3,3,0,0,1,.77-4.17,3,3,0,0,1,.84-.4,2.8,2.8,0,0,1,.86-.13,3,3,0,0,1,3,3Z" transform="translate(-579.69 -296.99)"/><path class="cls-12" d="M653.8,377.84a4.36,4.36,0,0,1-.36,1.7H645.7a4.35,4.35,0,0,1-.35-1.7v0a4.23,4.23,0,0,1,8.45,0Z" transform="translate(-579.69 -296.99)"/></g><g class="cls-11"><path class="cls-12" d="M669.07,387.92h-4.21a2.11,2.11,0,0,1,2.11-2.1h0a2,2,0,0,1,1.19.37A2.1,2.1,0,0,1,669.07,387.92Z" transform="translate(-579.69 -296.99)"/><path class="cls-12" d="M682.47,387.11a2.05,2.05,0,0,1-.16.81h-3.88a2.11,2.11,0,1,1,3.89-1.61,2.19,2.19,0,0,1,.16.8Z" transform="translate(-579.69 -296.99)"/><path class="cls-12" d="M672.07,385.82a3,3,0,0,1-.87,2.1h-4.26a2.93,2.93,0,0,1-.85-1.91v-.19a3,3,0,0,1,3-3,2.69,2.69,0,0,1,.7.09A3,3,0,0,1,672.07,385.82Z" transform="translate(-579.69 -296.99)"/><path class="cls-12" d="M679.34,386.22a3,3,0,0,1-.53,1.7h-4.93a3,3,0,1,1,5.47-1.7Z" transform="translate(-579.69 -296.99)"/><path class="cls-12" d="M676.61,386.22a4.12,4.12,0,0,1-.36,1.7h-7.73a4.12,4.12,0,0,1-.36-1.7v0a4.23,4.23,0,0,1,8.45,0Z" transform="translate(-579.69 -296.99)"/></g><path class="cls-13" d="M682.89,386.23V396.8H640.06V379.93c1.38-.42,2.78-.77,4.19-1.05a27.45,27.45,0,0,1,15.08.59c6.34,2.25,5.87,5.26,11.54,7.07S680.13,386.45,682.89,386.23Z" transform="translate(-579.69 -296.99)"/><path class="cls-4" d="M677.08,364.86a5,5,0,0,0-6.87,2.41,4.87,4.87,0,0,0,1.93,5.43c2,1.42,5.22,1.26,6.75-.85A5,5,0,0,0,677.08,364.86Z" transform="translate(-579.69 -296.99)"/><path class="cls-5" d="M681.24,398.87a1.09,1.09,0,0,0-.9-.9,1.13,1.13,0,0,0-.94.41l-.12.12-.13-.12a1.13,1.13,0,0,0-.93-.41,1.07,1.07,0,0,0-.9.9c-.1.64.55,1.17,1,1.51a3.84,3.84,0,0,0,1,.58,3.79,3.79,0,0,0,1-.58C680.7,400,681.33,399.51,681.24,398.87Z" transform="translate(-579.69 -296.99)"/><path class="cls-13" d="M674.28,398.12h-3.4a.32.32,0,0,0-.32.31h0v1.77a.32.32,0,0,0,.32.32h2.89a.62.62,0,0,0,.14.14l.34.24a.2.2,0,0,0,.29,0,.24.24,0,0,0,.05-.14v-2.3A.32.32,0,0,0,674.28,398.12Z" transform="translate(-579.69 -296.99)"/><path class="cls-10" d="M688.83,365.82h35.61A1.52,1.52,0,0,0,726,364.3h0a1.52,1.52,0,0,0-1.52-1.52H688.83a1.52,1.52,0,0,0-1.52,1.52h0a1.53,1.53,0,0,0,1.51,1.52Z" transform="translate(-579.69 -296.99)"/><path class="cls-10" d="M688.83,370.61h35.61a1.52,1.52,0,0,0,1.52-1.52h0a1.52,1.52,0,0,0-1.52-1.52H688.83a1.52,1.52,0,0,0-1.52,1.52h0a1.52,1.52,0,0,0,1.51,1.52Z" transform="translate(-579.69 -296.99)"/><path class="cls-10" d="M688.83,375.41h35.61a1.52,1.52,0,0,0,1.52-1.52h0a1.52,1.52,0,0,0-1.52-1.52H688.83a1.52,1.52,0,0,0-1.52,1.51h0a1.52,1.52,0,0,0,1.51,1.52Z" transform="translate(-579.69 -296.99)"/><path class="cls-10" d="M688.83,380.2h35.61a1.52,1.52,0,0,0,1.52-1.52h0a1.52,1.52,0,0,0-1.52-1.52H688.83a1.52,1.52,0,0,0-1.52,1.52h0A1.52,1.52,0,0,0,688.83,380.2Z" transform="translate(-579.69 -296.99)"/><path class="cls-10" d="M688.83,385h35.61a1.52,1.52,0,0,0,1.52-1.52h0a1.52,1.52,0,0,0-1.52-1.52H688.83a1.52,1.52,0,0,0-1.52,1.52h0A1.52,1.52,0,0,0,688.83,385Z" transform="translate(-579.69 -296.99)"/><path class="cls-10" d="M688.83,389.79h35.61a1.52,1.52,0,0,0,1.52-1.52h0a1.51,1.51,0,0,0-1.51-1.52H688.83a1.52,1.52,0,0,0-1.53,1.51h0a1.52,1.52,0,0,0,1.52,1.52Z" transform="translate(-579.69 -296.99)"/><path class="cls-10" d="M688.83,394.59h35.61a1.52,1.52,0,0,0,1.52-1.52h0a1.52,1.52,0,0,0-1.52-1.52H688.83a1.52,1.52,0,0,0-1.52,1.52h0a1.52,1.52,0,0,0,1.52,1.52Z" transform="translate(-579.69 -296.99)"/><path class="cls-10" d="M688.83,399.38h35.61a1.52,1.52,0,0,0,1.52-1.52h0a1.52,1.52,0,0,0-1.52-1.52H688.83a1.52,1.52,0,0,0-1.52,1.52h0a1.52,1.52,0,0,0,1.52,1.52Z" transform="translate(-579.69 -296.99)"/><path class="cls-14" d="M665.65,401.41a2.82,2.82,0,0,0-.3-1.27c-.09-.18-.34-.6-1.77-1.67-.81-.61-1.06-.72-1-.83s1.49-.24,2.66.38a4.38,4.38,0,0,1,1.62,1.52,2.69,2.69,0,0,1,.48,1.06,2.61,2.61,0,0,1,0,1.21Z" transform="translate(-579.69 -296.99)"/><path class="cls-15" d="M667.38,400.92c-.37.09-.55-1.22-1.86-2a5.58,5.58,0,0,0-1.59-.6c-1.27-.35-2.08-.32-2.18-.71a.61.61,0,0,1,.19-.48c.17-.17.37-.16,1-.17a11.78,11.78,0,0,1,1.3,0,2.16,2.16,0,0,1,.91.18c.21.11.24.18.73.72.2.23.46.64.77.77a2,2,0,0,1,.86.6C667.91,399.78,667.69,400.84,667.38,400.92Z" transform="translate(-579.69 -296.99)"/><path class="cls-15" d="M666.85,399.13l0-2,.68,0,0,2.19Z" transform="translate(-579.69 -296.99)"/><path class="cls-14" d="M662.66,401.38a2.92,2.92,0,0,0-.56-1.18A5.91,5.91,0,0,0,660,399c-.93-.42-1.19-.48-1.18-.6s1.41-.55,2.68-.2a4.42,4.42,0,0,1,1.91,1.13,2.89,2.89,0,0,1,.7.93,3,3,0,0,1,.24,1.19Z" transform="translate(-579.69 -296.99)"/><path class="cls-16" d="M664.24,400.53c-.34.17-.8-1.08-2.25-1.58a5.78,5.78,0,0,0-1.69-.23c-1.32-.08-2.1.12-2.27-.24a.53.53,0,0,1,.08-.5c.12-.21.33-.24.9-.38a8.38,8.38,0,0,1,1.26-.31,2.1,2.1,0,0,1,.93,0c.22.06.27.12.86.54.26.18.59.53.92.59a2,2,0,0,1,1,.4C664.51,399.3,664.54,400.38,664.24,400.53Z" transform="translate(-579.69 -296.99)"/><path class="cls-16" d="M663.34,398.89l-.45-1.94.68-.11L664,399Z" transform="translate(-579.69 -296.99)"/><path class="cls-17" d="M685.08,410.75a29.26,29.26,0,0,0-20.76,2.94l-2.46,2.1,22.49.7Z" transform="translate(-579.69 -296.99)"/><path class="cls-17" d="M665.4,401a105.38,105.38,0,0,0-1.9,10.74c-.2,1.61-.36,3.17-.48,4.7l2.53.35a36.86,36.86,0,0,0,2-15.79Z" transform="translate(-579.69 -296.99)"/><path class="cls-18" d="M662.47,401.26a106.84,106.84,0,0,0-.72,10.88c0,1.62,0,3.2,0,4.73l2.55.07a34.56,34.56,0,0,0,.76-4.16,37.08,37.08,0,0,0-.44-11.75Z" transform="translate(-579.69 -296.99)"/><path class="cls-18" d="M685,411.82a29.39,29.39,0,0,0-20.75,2.94l-2.46,2.1,22.49.7Z" transform="translate(-579.69 -296.99)"/><path class="cls-19" d="M704.38,417.09a1.7,1.7,0,0,1-1.23.48,2,2,0,0,1-.8-.17l-2.57-1.31a1.52,1.52,0,0,1-.59-.73l-1.71-4.67a4.45,4.45,0,0,1,1-.59,5.1,5.1,0,0,1,1.77-.38l1.52,4.16,2.16,1.78C704.62,416,704.82,416.61,704.38,417.09Z" transform="translate(-579.69 -296.99)"/><path class="cls-20" d="M700.26,409.71a5.35,5.35,0,0,0-1.77.39,4.45,4.45,0,0,0-1,.59l-1-2.68a1.47,1.47,0,1,1,2.76-1Z" transform="translate(-579.69 -296.99)"/><path class="cls-7" d="M684.21,417.53c.13-2.26.27-4.53.41-6.79a9.48,9.48,0,0,1,5.23-5.87c2.51-1,6.78-1.24,8.44,1.38,1.42,2.25.22,5.46-1.29,7.19-1.17,1.34-2.54,1.81-5,2.63A30.58,30.58,0,0,1,684.21,417.53Z" transform="translate(-579.69 -296.99)"/><path class="cls-19" d="M695.32,406.73h-.05a.94.94,0,0,1-.89-1h0l.33-5.83a.94.94,0,0,1,1.88.11l-.33,5.82A.94.94,0,0,1,695.32,406.73Z" transform="translate(-579.69 -296.99)"/><path class="cls-19" d="M692.86,396.92a3.27,3.27,0,0,0-.39.92,7.5,7.5,0,0,0,0,4.45,2.91,2.91,0,0,0,.39,1,3.12,3.12,0,0,0,2.44,1.05,3.3,3.3,0,0,0,1.81-.5c1.61-1.07,1.46-3.5,1.42-4.19-.06-1.09-.21-3.33-1.88-4A3.27,3.27,0,0,0,692.86,396.92Z" transform="translate(-579.69 -296.99)"/><path class="cls-16" d="M697.18,397.59a2.63,2.63,0,0,0-1.75.06,2.47,2.47,0,0,0-1.07.93,3.14,3.14,0,0,0-.31.67,7.63,7.63,0,0,0-.55,1.78c-.11,1.16.7,1.37.79,2.83,0,.41,0,1.47-.3,1.56-.58.17-2.55-2.65-2.48-5.8,0-.89.09-3.55,2.11-4.71,1.68-1,3.63,0,4.84.57a2.23,2.23,0,0,1,1.24,1.08c.3.79-.05,1.86-.58,2S698.36,397.89,697.18,397.59Z" transform="translate(-579.69 -296.99)"/><path class="cls-19" d="M694.58,398.93a1,1,0,0,0-1.27.7.92.92,0,0,0,.65,1.07.91.91,0,0,0,.87-.54A1,1,0,0,0,694.58,398.93Z" transform="translate(-579.69 -296.99)"/><path class="cls-19" d="M698.69,417.57c0,.51-.61.92-1.34.92h0l-10.62.18a1.35,1.35,0,0,1-1-.5,1.32,1.32,0,0,1-.27-1.1c.2-1.06.43-2.14.68-3.19s.55-2.16.86-3.23a9.59,9.59,0,0,1,1,.17,11.81,11.81,0,0,1,1.57.46c-.31,1.07-.6,2.14-.86,3.22-.12.51-.23,1-.34,1.52l9,.59C698.12,416.62,698.71,417.05,698.69,417.57Z" transform="translate(-579.69 -296.99)"/><path class="cls-16" d="M692.1,397c-.56,0-.36,2.44-2.25,4.94-1.49,2-2.93,2.2-3.83,4.39-.41,1-.62,2.3-.24,2.51.66.36,2-2.53,4.82-3.07,1.9-.36,3.1.58,3.65-.1s-.18-1.46-.87-3.67C692.4,398.86,692.59,397.07,692.1,397Z" transform="translate(-579.69 -296.99)"/><path class="cls-21" d="M690.68,407.82c-.41,1.14-.78,2.29-1.12,3.46a11.81,11.81,0,0,0-1.57-.46,9.59,9.59,0,0,0-1-.17q.54-1.89,1.2-3.72a1.34,1.34,0,0,1,2.54.86v0Z" transform="translate(-579.69 -296.99)"/><path class="cls-17" d="M691.92,417.9a.87.87,0,0,0-.53.59.85.85,0,0,0,.47.9h12.86v-1.6Z" transform="translate(-579.69 -296.99)"/><path class="cls-18" d="M695.39,408.84c-.29.24-.3.67-.28,1.18.09,1.6.09,3.21.09,4.81v2.24a9.06,9.06,0,0,0,0,2.33c.15.11.8,0,1,0h5.62l3.42,0c.54,0,2.52.36,2.9-.11.13-.15.06-.69.06-.87,0-1,0-1.92-.07-2.87,0-.46-.05-.93-.05-1.39,0-1.73-.14-3.51,0-5.22a.42.42,0,0,0,0-.27c-.27-.48-1.47-.18-1.92-.16-.66,0-1.32.09-2,.09-1.75,0-3.58,0-5.36,0a21,21,0,0,0-2.86,0A1,1,0,0,0,695.39,408.84Z" transform="translate(-579.69 -296.99)"/><path class="cls-22" d="M700.73,413.16a1.16,1.16,0,0,0-.24,1.34,1.22,1.22,0,0,0,1.61.44,1.2,1.2,0,0,0,.66-1.4A1.36,1.36,0,0,0,700.73,413.16Z" transform="translate(-579.69 -296.99)"/><path class="cls-16" d="M720.65,334.66l-6.4.16a19.16,19.16,0,0,1,.22-10.72l4.65-1.93Z" transform="translate(-579.69 -296.99)"/><path class="cls-17" d="M713.56,341.9A3.38,3.38,0,0,0,713,345c.81,2.22,4.34,2.95,6.48,1.84a3.21,3.21,0,0,0,1.78-2c.3-1.58-1.22-3.07-2.46-3.69C717.27,340.38,714.81,340.3,713.56,341.9Z" transform="translate(-579.69 -296.99)"/><path class="cls-7" d="M722,331.46a1.39,1.39,0,0,0-.24-.65c-.1-.13-.48-.59-2.35-.62a14.78,14.78,0,0,1-4.2,0c-1.86,0-2.25.49-2.35.62a1.39,1.39,0,0,0-.24.65,55.27,55.27,0,0,0,.75,12.06c1-.06,3-.35,3.94-.41s3.27,0,4.33.05A48.11,48.11,0,0,0,722,331.46Z" transform="translate(-579.69 -296.99)"/><path class="cls-23" d="M717,332a1,1,0,0,1-1-1h0v-3.6a1,1,0,1,1,2,0V331A1,1,0,0,1,717,332Z" transform="translate(-579.69 -296.99)"/><path class="cls-19" d="M716,320.7a4,4,0,0,0-2.37,1.79,4.83,4.83,0,0,0,1,5.87,4,4,0,0,0,3.34,1c2-.55,2.81-3.34,2.56-5.25a4.15,4.15,0,0,0-1.73-3.1A3.68,3.68,0,0,0,716,320.7Z" transform="translate(-579.69 -296.99)"/><path class="cls-19" d="M712.14,335.76l-.09.19c-.59,1.24-1.1,2.27-1.47,3l-1.55-.42c0-.31,0-.64,0-1a11,11,0,0,1,.51-3c.33.2.67.39,1,.56A7.52,7.52,0,0,0,712.14,335.76Z" transform="translate(-579.69 -296.99)"/><path class="cls-19" d="M708.86,338.57a1,1,0,0,0,.58,1c.33.13.65.26,1,.38a44.64,44.64,0,0,0,5.67,1.72l.27-.59A20.15,20.15,0,0,0,709,337.7C709,338,708.92,338.28,708.86,338.57Z" transform="translate(-579.69 -296.99)"/><path class="cls-19" d="M716,341.34a1.68,1.68,0,0,0,.2,2c.62.78,1.8.95,2,.7s-.24-.65-.66-1.22c-.31-.41-.43-.47-.52-.76-.15-.46,0-.75-.15-.89S716.23,341.11,716,341.34Z" transform="translate(-579.69 -296.99)"/><path class="cls-19" d="M716.43,341.49c.27.47.91.92,1.35.73.06,0,.18-.07.21-.17s-.47-.62-.9-.78c-.06,0-.62-.24-.73-.08S716.37,341.4,716.43,341.49Z" transform="translate(-579.69 -296.99)"/><path class="cls-7" d="M712.14,335.76a7.49,7.49,0,0,1-1.6-.66c-.35-.17-.69-.36-1-.56.11-.34.23-.67.36-1a14.78,14.78,0,0,1,.75-1.62,3.13,3.13,0,0,1,.8-1.19h0a2,2,0,0,1,1.43-.07,1.2,1.2,0,0,1,.68.39C713.89,331.51,713.77,332.28,712.14,335.76Z" transform="translate(-579.69 -296.99)"/><path class="cls-19" d="M722.27,335.11l.1.2c.62,1.23,1.14,2.25,1.51,3l1.55-.44c0-.32,0-.64,0-1a10.61,10.61,0,0,0-.56-3c-.32.21-.66.4-1,.58A8.1,8.1,0,0,1,722.27,335.11Z" transform="translate(-579.69 -296.99)"/><path class="cls-19" d="M725.6,337.86a1,1,0,0,1-.57,1.06c-.32.13-.64.27-1,.39a45.13,45.13,0,0,1-5.64,1.81l-.29-.59a20.31,20.31,0,0,1,7.3-3.54C725.49,337.29,725.54,337.57,725.6,337.86Z" transform="translate(-579.69 -296.99)"/><path class="cls-19" d="M718.51,340.75a1.71,1.71,0,0,1-.17,2c-.6.79-1.78,1-2,.72s.23-.65.64-1.22c.31-.41.42-.49.51-.77.14-.47,0-.75.14-.9S718.27,340.53,718.51,340.75Z" transform="translate(-579.69 -296.99)"/><path class="cls-19" d="M718.08,340.92c-.27.47-.89.93-1.34.75-.06,0-.18-.07-.21-.17s.46-.62.89-.8c.05,0,.62-.25.73-.09S718.13,340.82,718.08,340.92Z" transform="translate(-579.69 -296.99)"/><path class="cls-7" d="M722.27,335.11a8.36,8.36,0,0,0,1.6-.68c.34-.18.68-.37,1-.58-.11-.33-.23-.66-.37-1a15.92,15.92,0,0,0-.78-1.61,2.79,2.79,0,0,0-.83-1.17h0a1.94,1.94,0,0,0-1.44-.05,1.13,1.13,0,0,0-.67.41C720.45,330.89,720.58,331.66,722.27,335.11Z" transform="translate(-579.69 -296.99)"/><polygon class="cls-24" points="132.18 40.85 132.61 48.19 143.24 48.42 143.24 40.77 132.18 40.85"/><path class="cls-16" d="M707.42,348.81c-.13.26-.49.14-1.11.36s-.92.69-1.2.58-.35-.73-.38-1,0-.54.12-.65.41.11.92.18c.76.09,1.13-.37,1.46-.13A.6.6,0,0,1,707.42,348.81Z" transform="translate(-579.69 -296.99)"/><path class="cls-17" d="M730,341.52a4.8,4.8,0,0,1-1.13,2.19,8.08,8.08,0,0,1-2.43,2.37,15.08,15.08,0,0,1-5.09,1.94c-.35.07-3.62.65-3.79.27l-.72-1.61a39.59,39.59,0,0,1,7.12-5.35c1.11-.65,2.19-1.22,3.23-1.7.89-.41,2.14.36,2.6,1.11A1.33,1.33,0,0,1,730,341.52Z" transform="translate(-579.69 -296.99)"/><path class="cls-17" d="M717.62,348.35a20.5,20.5,0,0,1-4.59.9,21.13,21.13,0,0,1-6-.24c0-.25-.1-.7-.14-.95a33.11,33.11,0,0,1,10.75-1.39Z" transform="translate(-579.69 -296.99)"/><path class="cls-16" d="M727.74,348c.15.25.5.1,1.13.28s1,.62,1.24.49.3-.75.3-1.06,0-.53-.16-.63-.41.14-.91.24c-.75.15-1.14-.29-1.46,0A.6.6,0,0,0,727.74,348Z" transform="translate(-579.69 -296.99)"/><path class="cls-18" d="M705.47,342.13a1.53,1.53,0,0,0,.09,1.52,7.19,7.19,0,0,0,2,2.2,15.32,15.32,0,0,0,10.63,2.43l.58-1.67a39.51,39.51,0,0,0-7.54-4.71c-1.14-.54-2.21-1.1-3.24-1.54a1.52,1.52,0,0,0-2,.77C705.79,341.46,705.64,341.8,705.47,342.13Z" transform="translate(-579.69 -296.99)"/><path class="cls-18" d="M717.42,348.21a20.19,20.19,0,0,0,4.64.58,21.08,21.08,0,0,0,6-.67c0-.25.07-.7.09-.95a32.32,32.32,0,0,0-6.27-.8,33.06,33.06,0,0,0-4.56.17Z" transform="translate(-579.69 -296.99)"/><path class="cls-16" d="M718.94,321.78c-.12,1-1.42.66-2.78,2.32a10.25,10.25,0,0,0-1.84,4.85c-.27,2.71.68,4.37,0,5.25a1.17,1.17,0,0,1-1.55.2c-1.71-1-2.48-6.88-.9-11,.86-2.21,2.74-4.79,4.7-4.38C717.86,319.3,719.07,320.79,718.94,321.78Z" transform="translate(-579.69 -296.99)"/><path class="cls-16" d="M714.78,321.78c.17.88,1.69.11,3,1.53,1.56,1.74,1.59,5.48,1.6,6.24,0,2.45-.57,3.88,0,4.65a1.18,1.18,0,0,0,1.55.2c1.71-1,2.48-6.88.9-11-.86-2.21-2.74-4.79-4.7-4.39C715.81,319.32,714.61,320.94,714.78,321.78Z" transform="translate(-579.69 -296.99)"/><path class="cls-4" d="M717.34,340.71a.74.74,0,0,0-.64.83.75.75,0,0,0,.83.64.75.75,0,0,0,.64-.83v0A.78.78,0,0,0,717.34,340.71Z" transform="translate(-579.69 -296.99)"/><path class="cls-16" d="M715.88,319a2.46,2.46,0,0,0-2-1.23,2.61,2.61,0,0,0-2.65,1.65,2.84,2.84,0,0,0,2.5,3.48C715.29,322.85,716.62,320.49,715.88,319Z" transform="translate(-579.69 -296.99)"/><path class="cls-16" d="M721.41,318.68a2.46,2.46,0,0,0-2-1.23,2.63,2.63,0,0,0-2.66,1.65,2.84,2.84,0,0,0,2.51,3.48C720.83,322.52,722.16,320.16,721.41,318.68Z" transform="translate(-579.69 -296.99)"/><path class="cls-25" d="M601,313.23c-1.89,2.5.54,4.77-.48,12.66-.75,5.88-2.09,7.1-1,8.91,1.55,2.63,5.13,1.53,16.83,3,7.09.9,9,1.71,10.75.21,1.88-1.64.89-3.8,1.78-11.18,1-8.08,2.63-9.21,1.39-11.45-1.84-3.35-7-3.63-15.38-4.09C607.05,310.86,603,310.63,601,313.23Z" transform="translate(-579.69 -296.99)"/><path class="cls-25" d="M625.36,332.77c2.06-.77,4.88,2.5,5.81,3.56a15.12,15.12,0,0,1,1.75,2.52c-1.22-.48-2.56-.94-4-1.37a48.83,48.83,0,0,0-5.48-1.25C623.54,335.42,624,333.28,625.36,332.77Z" transform="translate(-579.69 -296.99)"/><path class="cls-16" d="M606.38,321.79a2.24,2.24,0,1,0,1.92,4,2.46,2.46,0,0,0,.93-3.55A2.38,2.38,0,0,0,606.38,321.79Z" transform="translate(-579.69 -296.99)"/><path class="cls-16" d="M614.07,322.24A2.25,2.25,0,1,0,616,326.3a2.46,2.46,0,0,0,.93-3.55A2.37,2.37,0,0,0,614.07,322.24Z" transform="translate(-579.69 -296.99)"/><path class="cls-16" d="M621.68,323.31a2.24,2.24,0,1,0,1.92,4.05,2.44,2.44,0,0,0,.92-3.54A2.36,2.36,0,0,0,621.68,323.31Z" transform="translate(-579.69 -296.99)"/><path class="cls-3" d="M763,311c2.06,2.35-.18,4.79,1.42,12.59,1.19,5.81,2.61,6.93,1.69,8.81-1.35,2.74-5,1.91-16.56,4.25-7,1.41-8.89,2.37-10.71,1-2-1.49-1.16-3.71-2.6-11-1.59-8-3.31-9-2.24-11.32,1.59-3.47,6.76-4.15,15-5.23C756.76,309.09,760.8,308.56,763,311Z" transform="translate(-579.69 -296.99)"/><path class="cls-3" d="M740.15,332.3c-2.11-.62-4.68,2.86-5.52,4a13.71,13.71,0,0,0-1.56,2.63c1.18-.57,2.47-1.13,3.89-1.67a50.59,50.59,0,0,1,5.38-1.65C742.15,334.81,741.57,332.71,740.15,332.3Z" transform="translate(-579.69 -296.99)"/><path class="cls-26" d="M758.25,319.94a2.37,2.37,0,0,1,1.48,2.74,2.41,2.41,0,0,1-3.09,1.45,2.46,2.46,0,0,1-1.19-3.47A2.35,2.35,0,0,1,758.25,319.94Z" transform="translate(-579.69 -296.99)"/><path class="cls-26" d="M750.62,321a2.26,2.26,0,1,1-1.63,4.2,2.46,2.46,0,0,1-1.19-3.47A2.4,2.4,0,0,1,750.62,321Z" transform="translate(-579.69 -296.99)"/><path class="cls-26" d="M743.11,322.6a2.25,2.25,0,1,1-1.61,4.19,2.46,2.46,0,0,1-1.19-3.47A2.35,2.35,0,0,1,743.11,322.6Z" transform="translate(-579.69 -296.99)"/><path class="cls-6" d="M690.77,308.44c2.69,1.73,1.16,4.74,4.89,11.95,2.78,5.37,4.49,6.07,4.1,8.18-.56,3.06-4.37,3.26-15.07,8.76-6.47,3.33-8.06,4.8-10.22,4-2.37-.91-2.18-3.33-5.62-10.08-3.76-7.39-5.73-7.9-5.33-10.48.59-3.85,5.48-6,13.3-9.31C684.16,308.27,688,306.64,690.77,308.44Z" transform="translate(-579.69 -296.99)"/><path class="cls-6" d="M674.3,335.67c-2.24,0-3.81,4.09-4.32,5.44a14.85,14.85,0,0,0-.8,3c1-.88,2.12-1.8,3.36-2.71a48.31,48.31,0,0,1,4.82-3.12C677,337.56,675.81,335.67,674.3,335.67Z" transform="translate(-579.69 -296.99)"/><path class="cls-26" d="M677.21,322.21a5.88,5.88,0,0,0,.39,6.22,6.09,6.09,0,0,0,10.7-2.18,5.94,5.94,0,0,0-2.77-6.41A6.21,6.21,0,0,0,677.21,322.21Z" transform="translate(-579.69 -296.99)"/><path class="cls-4" d="M679,324.92a.43.43,0,1,0,.73.46.09.09,0,0,0,0-.07.47.47,0,0,0-.22-.63l-.05,0A.44.44,0,0,0,679,324.92Z" transform="translate(-579.69 -296.99)"/><path class="cls-4" d="M683,322.73a.39.39,0,0,0,.13.55.41.41,0,0,0,.56-.13s0,0,0,0a.44.44,0,0,0-.21-.59l0,0A.44.44,0,0,0,683,322.73Z" transform="translate(-579.69 -296.99)"/><path class="cls-4" d="M681.24,327.74a2.26,2.26,0,0,0,3.84-2.37Z" transform="translate(-579.69 -296.99)"/><path class="cls-27" d="M649,365.3c.88.51,1.07,1.88.69,2.2-.08.07-2.5.49-3.14.68-.42.14-.55.23-.7.14a.91.91,0,0,1-.05-1.18c.44-.47,1.44.11,1.74-.3S648.46,365,649,365.3Z" transform="translate(-579.69 -296.99)"/><path class="cls-27" d="M637.46,365.84c.45.91-.18,2.16-.66,2.21-.11,0-2.35-1-3-1.19-.43-.13-.59-.13-.66-.28s.19-.9.62-1c.62-.15,1.13.89,1.61.72S637.18,365.29,637.46,365.84Z" transform="translate(-579.69 -296.99)"/><path class="cls-15" d="M637.83,366.42c.27-.66.67-1.64,1.11-2.86,1.23-3.5,2-5.55,2-8.2,0-1.83-.29-1.71-.29-4.24,0-2.88,0-4.38.88-5.35,1.38-1.42,4.42-1.21,6.73-.78l.58-3.13a11.33,11.33,0,0,0-6.43-.45,6.61,6.61,0,0,0-3.45,1.65c-1.1,1.12-1.47,2.57-1.68,5.59a64.76,64.76,0,0,0,0,8,38.36,38.36,0,0,1-.94,9.19Z" transform="translate(-579.69 -296.99)"/><path class="cls-19" d="M643.92,340a1.33,1.33,0,0,0,2.59-.45,1.42,1.42,0,0,0-.08-.45,9.84,9.84,0,0,1-.21-6.08,8.62,8.62,0,0,1,2.46-3.82,1.32,1.32,0,0,0,0-1.88,1.34,1.34,0,0,0-1.81-.09,11.67,11.67,0,0,0-2.59,3.45c-.06.12-.12.24-.17.36A12.23,12.23,0,0,0,643.92,340Z" transform="translate(-579.69 -296.99)"/><path class="cls-28" d="M644.29,330.66a2.83,2.83,0,0,1,.77.45,3.61,3.61,0,0,1,1.15,1.89,6.94,6.94,0,0,1,.34-.9,8.64,8.64,0,0,1,2.12-2.92,1.33,1.33,0,0,0-1.79-2A11.34,11.34,0,0,0,644.29,330.66Z" transform="translate(-579.69 -296.99)"/><path class="cls-7" d="M654.71,328c.63.83.78,1.79.63,4.69a65.94,65.94,0,0,1-1.1,9c-2.31-.09-8.76-.46-9.68-.55.58-3.55,1-6.48,1.24-8.57.43-3.39.49-4.53,1.5-5.4C649.2,325.47,653.12,325.89,654.71,328Z" transform="translate(-579.69 -296.99)"/><path class="cls-29" d="M650.94,328.86a1.34,1.34,0,0,0,1.33-1.33h0V322a1.33,1.33,0,1,0-2.66,0v5.52a1.33,1.33,0,0,0,1.33,1.33Z" transform="translate(-579.69 -296.99)"/><path class="cls-16" d="M654.24,341.62c.08.65.41,3.81-1.45,5.24-1.17.91-2.95.91-4.39.91-2,0-2.83-.49-3.33,0-.89.87.48,3.58,1.06,4.84a39.6,39.6,0,0,1,3.37,13l-1.78.49c-.3-.6-5.43-10.95-5.78-11.69-1.4-2.91-4.32-9-2.16-11.46,1.09-1.24,3.14-1.7,4.32-1.93a11.18,11.18,0,0,1,4.39,0Z" transform="translate(-579.69 -296.99)"/><path class="cls-19" d="M646.06,322.85a3.2,3.2,0,0,0,.59,1.65,4,4,0,0,0,3.35,1.41,2.91,2.91,0,0,0,1.93-.78,2.21,2.21,0,0,0,.34-.48,7.3,7.3,0,0,0,.72-3c0-2.57,0-4.22-1.26-5a3.44,3.44,0,0,0-3.71.32,4.23,4.23,0,0,0-1.36,2.45A10,10,0,0,0,646.06,322.85Z" transform="translate(-579.69 -296.99)"/><path class="cls-16" d="M651.7,319.27c.37.86.18,1.87.67,2.06l.17.05.05,0a10.11,10.11,0,0,1,0,2.42,6.34,6.34,0,0,0,1.12-4.93,4.06,4.06,0,0,0-1.58-2.66c-1.47-.89-3.75-.35-4.34-.17a2.07,2.07,0,0,1-.92.14c-.65-.06-.85-.43-1.14-.32s-.62,1.08-.26,1.74a1.61,1.61,0,0,0,1,.71,2.58,2.58,0,0,0,1.38-.15c1.45-.38,2.17-.58,2.55-.42A2.93,2.93,0,0,1,651.7,319.27Z" transform="translate(-579.69 -296.99)"/><path class="cls-16" d="M646.06,322.85a3.39,3.39,0,0,0,.59,1.65c1.31,1.86,4.24,1.51,4.84,1a1.91,1.91,0,0,0,.44-.5,2.16,2.16,0,0,0,.21-.62,4.57,4.57,0,0,0,.14-1.52,4,4,0,0,1,0-1.62,2.08,2.08,0,0,0,.14-1.34c0-.12-.15-.42-.31-.42-.32,0-.82,1.24-.71,2.48.06.86.38,1.17.15,1.53-.34.56-1.42.46-1.69.44-.88-.08-1.07-.44-2.25-.78A5,5,0,0,0,646.06,322.85Z" transform="translate(-579.69 -296.99)"/><path class="cls-19" d="M652.36,320.53a.65.65,0,0,1,.54-.11.94.94,0,0,1,.2,1.38.73.73,0,0,1-1-.28A.76.76,0,0,1,652.36,320.53Z" transform="translate(-579.69 -296.99)"/><path class="cls-19" d="M644.79,340.37a1.33,1.33,0,0,0,1.29,1,1.55,1.55,0,0,0,.31,0,34.59,34.59,0,0,0,5.43-1.81l.08,0a8.76,8.76,0,0,0,3-1.68,6.6,6.6,0,0,0,1.81-4.18,2.47,2.47,0,0,0-1.26-.65,2.31,2.31,0,0,0-1.37.21A4.11,4.11,0,0,1,653,336a7.77,7.77,0,0,1-2.17,1.11l-.08,0a32.6,32.6,0,0,1-5,1.67A1.32,1.32,0,0,0,644.79,340.37Z" transform="translate(-579.69 -296.99)"/><path class="cls-22" d="M650.09,340.68a.71.71,0,0,1,.43.48.67.67,0,0,1-.38.73H639.7v-1.3Z" transform="translate(-579.69 -296.99)"/><path class="cls-27" d="M647.27,333.32c.24.2.25.54.23,1-.07,1.3-.07,2.6-.07,3.91V340a7.45,7.45,0,0,1,0,1.89c-.12.09-.65,0-.8,0h-4.56c-.93,0-1.86,0-2.78,0-.44,0-2,.29-2.35-.09-.11-.13-.05-.56-.05-.71,0-.77,0-1.55.05-2.33,0-.37,0-.75,0-1.12,0-1.41.11-2.84,0-4.24a.34.34,0,0,1,0-.22c.22-.39,1.2-.15,1.56-.13.54,0,1.07.07,1.61.07h4.36a16.34,16.34,0,0,1,2.32,0A.76.76,0,0,1,647.27,333.32Z" transform="translate(-579.69 -296.99)"/><path class="cls-22" d="M642.85,336.42a1,1,0,0,1,.19,1.09,1,1,0,0,1-1.31.37,1,1,0,0,1-.53-1.15A1.11,1.11,0,0,1,642.85,336.42Z" transform="translate(-579.69 -296.99)"/><path class="cls-27" d="M653.35,329.18a10.08,10.08,0,0,1,.72,4,2.29,2.29,0,0,1,2.63.45,12.38,12.38,0,0,0-.87-5.42,1.33,1.33,0,0,0-2.48.95Z" transform="translate(-579.69 -296.99)"/></svg>