<svg id="Слой_1" data-name="Слой 1" xmlns="http://www.w3.org/2000/svg" viewBox="0 0 258.8 205.53"><defs><style>.cls-1{fill:#00a49f;}.cls-2{fill:#00beb9;}.cls-3{fill:#5202b5;}.cls-4{fill:#ebe0be;}.cls-5{fill:#d5498f;}.cls-6{fill:#f4eed8;}.cls-7{fill:#f065a6;}.cls-8{fill:#6d26d7;}.cls-9{fill:#3e039c;}.cls-10,.cls-11{fill:#fff;}.cls-10{opacity:0.5;}.cls-12{fill:#ff6748;}.cls-13{fill:#0e0e15;}.cls-14{fill:#e34932;}</style></defs><title>service-shop-3</title><rect class="cls-1" x="100.34" y="29.42" width="95.53" height="157.23" rx="7.89"/><path class="cls-2" d="M740.15,313h-77a6,6,0,0,0-6,6V458.62a6,6,0,0,0,6,6h77a6,6,0,0,0,6-6V319A6,6,0,0,0,740.15,313Z" transform="translate(-553.54 -280.76)"/><path class="cls-3" d="M661.63,324V454.9a5.53,5.53,0,0,0,5.54,5.52h69a5.52,5.52,0,0,0,5.53-5.52V324Z" transform="translate(-553.54 -280.76)"/><path class="cls-1" d="M710.59,320.5H694.74a1.23,1.23,0,0,1-1.22-1.23h0a1.22,1.22,0,0,1,1.22-1.22h15.85a1.23,1.23,0,0,1,1.23,1.22h0A1.23,1.23,0,0,1,710.59,320.5Z" transform="translate(-553.54 -280.76)"/><rect class="cls-4" x="108.09" y="43.27" width="80.03" height="2.44"/><path class="cls-4" d="M651.18,358.33h-2.37a5.25,5.25,0,0,1-5.24-5.24v-4h12.85v4A5.25,5.25,0,0,1,651.18,358.33Z" transform="translate(-553.54 -280.76)"/><path class="cls-5" d="M102.87,68.36h13.84a0,0,0,0,1,0,0v4a5.24,5.24,0,0,1-5.24,5.24h-3.36a5.24,5.24,0,0,1-5.24-5.24v-4A0,0,0,0,1,102.87,68.36Z"/><path class="cls-4" d="M678,358.33H675.5a5.24,5.24,0,0,1-5.24-5.24v-4H683.2v4A5.25,5.25,0,0,1,678,358.33Z" transform="translate(-553.54 -280.76)"/><path class="cls-5" d="M690.21,358.33h-1.77a5.25,5.25,0,0,1-5.24-5.24v-4h12.25v4A5.25,5.25,0,0,1,690.21,358.33Z" transform="translate(-553.54 -280.76)"/><polygon class="cls-6" points="108.09 45.71 90.03 68.36 148.1 68.36 148.1 45.71 108.09 45.71"/><polygon class="cls-7" points="115.89 45.71 102.88 68.36 148.1 68.36 148.1 45.71 115.89 45.71"/><polygon class="cls-6" points="125.27 45.71 116.72 68.36 148.1 68.36 148.1 45.71 125.27 45.71"/><polygon class="cls-7" points="134.04 45.71 129.66 68.36 148.1 68.36 148.1 45.71 134.04 45.71"/><path class="cls-4" d="M695.45,349.12v4.73c0,2.47,2.74,4.48,6.13,4.48h.14c3.38,0,6.12-2,6.12-4.48v-4.73Z" transform="translate(-553.54 -280.76)"/><path class="cls-4" d="M752.12,358.33h2.36a5.24,5.24,0,0,0,5.24-5.24v-4H746.88v4A5.24,5.24,0,0,0,752.12,358.33Z" transform="translate(-553.54 -280.76)"/><path class="cls-5" d="M738.28,349.12h3.36a5.24,5.24,0,0,1,5.24,5.24v4a0,0,0,0,1,0,0H733a0,0,0,0,1,0,0v-4A5.24,5.24,0,0,1,738.28,349.12Z" transform="translate(926.37 426.69) rotate(180)"/><path class="cls-4" d="M725.33,358.33h2.47a5.25,5.25,0,0,0,5.24-5.24v-4H720.09v4A5.25,5.25,0,0,0,725.33,358.33Z" transform="translate(-553.54 -280.76)"/><path class="cls-5" d="M713.08,358.33h1.77a5.24,5.24,0,0,0,5.24-5.24v-4H707.84v4A5.25,5.25,0,0,0,713.08,358.33Z" transform="translate(-553.54 -280.76)"/><polygon class="cls-6" points="188.12 45.71 148.1 45.71 148.1 68.36 206.18 68.36 188.12 45.71"/><polygon class="cls-7" points="180.32 45.71 148.1 45.71 148.1 68.36 193.34 68.36 180.32 45.71"/><polygon class="cls-6" points="148.1 45.71 148.1 68.36 179.49 68.36 170.94 45.71 148.1 45.71"/><polygon class="cls-7" points="148.1 45.71 148.1 68.36 166.55 68.36 162.17 45.71 148.1 45.71"/><polygon class="cls-6" points="143.68 45.71 141.91 68.36 154.3 68.36 152.53 45.71 143.68 45.71"/><rect class="cls-5" x="115.89" y="43.27" width="9.31" height="2.44"/><rect class="cls-5" x="170.94" y="43.27" width="9.38" height="2.44"/><rect class="cls-5" x="134.04" y="43.27" width="9.64" height="2.44"/><rect class="cls-5" x="152.53" y="43.27" width="9.64" height="2.44"/><rect class="cls-8" x="114.91" y="84.48" width="18.93" height="22.08"/><rect class="cls-8" x="138.64" y="84.48" width="18.93" height="22.08"/><polygon class="cls-7" points="141.97 86.2 142.28 86.84 142.98 86.94 142.47 87.44 142.59 88.14 141.97 87.81 141.34 88.14 141.46 87.44 140.95 86.94 141.65 86.84 141.97 86.2"/><polygon class="cls-7" points="145.04 86.2 145.35 86.84 146.05 86.94 145.54 87.44 145.66 88.14 145.04 87.81 144.41 88.14 144.53 87.44 144.02 86.94 144.72 86.84 145.04 86.2"/><polygon class="cls-7" points="148.1 86.2 148.42 86.84 149.12 86.94 148.61 87.44 148.73 88.14 148.1 87.81 147.48 88.14 147.6 87.44 147.09 86.94 147.79 86.84 148.1 86.2"/><polygon class="cls-7" points="151.18 86.2 151.49 86.84 152.19 86.94 151.68 87.44 151.8 88.14 151.18 87.81 150.55 88.14 150.67 87.44 150.16 86.94 150.86 86.84 151.18 86.2"/><polygon class="cls-7" points="154.25 86.2 154.56 86.84 155.26 86.94 154.75 87.44 154.87 88.14 154.25 87.81 153.62 88.14 153.74 87.44 153.23 86.94 153.93 86.84 154.25 86.2"/><rect class="cls-8" x="162.37" y="84.48" width="18.93" height="22.08"/><polygon class="cls-7" points="165.7 86.2 166.01 86.84 166.71 86.94 166.21 87.44 166.33 88.14 165.7 87.81 165.07 88.14 165.19 87.44 164.68 86.94 165.38 86.84 165.7 86.2"/><polygon class="cls-7" points="168.77 86.2 169.08 86.84 169.78 86.94 169.28 87.44 169.4 88.14 168.77 87.81 168.14 88.14 168.26 87.44 167.75 86.94 168.46 86.84 168.77 86.2"/><polygon class="cls-7" points="171.84 86.2 172.15 86.84 172.85 86.94 172.34 87.44 172.47 88.14 171.84 87.81 171.21 88.14 171.33 87.44 170.82 86.94 171.52 86.84 171.84 86.2"/><polygon class="cls-6" points="174.91 86.2 175.22 86.84 175.92 86.94 175.42 87.44 175.53 88.14 174.91 87.81 174.28 88.14 174.4 87.44 173.89 86.94 174.59 86.84 174.91 86.2"/><polygon class="cls-6" points="177.98 86.2 178.29 86.84 178.99 86.94 178.49 87.44 178.6 88.14 177.98 87.81 177.35 88.14 177.47 87.44 176.96 86.94 177.66 86.84 177.98 86.2"/><polygon class="cls-7" points="118.23 86.2 118.55 86.84 119.25 86.94 118.74 87.44 118.86 88.14 118.23 87.81 117.61 88.14 117.73 87.44 117.22 86.94 117.92 86.84 118.23 86.2"/><polygon class="cls-6" points="121.3 86.2 121.62 86.84 122.32 86.94 121.81 87.44 121.93 88.14 121.3 87.81 120.67 88.14 120.8 87.44 120.29 86.94 120.99 86.84 121.3 86.2"/><polygon class="cls-6" points="124.37 86.2 124.69 86.84 125.39 86.94 124.88 87.44 125 88.14 124.37 87.81 123.75 88.14 123.86 87.44 123.36 86.94 124.06 86.84 124.37 86.2"/><polygon class="cls-6" points="127.44 86.2 127.76 86.84 128.46 86.94 127.95 87.44 128.07 88.14 127.44 87.81 126.81 88.14 126.94 87.44 126.43 86.94 127.13 86.84 127.44 86.2"/><polygon class="cls-6" points="130.51 86.2 130.83 86.84 131.53 86.94 131.02 87.44 131.14 88.14 130.51 87.81 129.88 88.14 130 87.44 129.5 86.94 130.2 86.84 130.51 86.2"/><rect class="cls-8" x="162.37" y="115.84" width="18.93" height="54.56"/><rect class="cls-9" x="162.37" y="115.84" width="18.93" height="6.37"/><rect class="cls-9" x="114.91" y="115.84" width="42.67" height="3.19"/><rect class="cls-8" x="114.91" y="123.15" width="42.67" height="5.67"/><rect class="cls-8" x="114.91" y="133.32" width="42.67" height="37.08"/><path class="cls-10" d="M81.68,83.9h44.42A5.08,5.08,0,0,1,131.18,89v34.69a5.07,5.07,0,0,1-5.07,5.07H81.68a5.07,5.07,0,0,1-5.07-5.07V89A5.07,5.07,0,0,1,81.68,83.9Z"/><rect class="cls-11" x="82.59" y="90.02" width="37.94" height="3.64"/><rect class="cls-11" x="82.59" y="97.17" width="23.91" height="3.64"/><polygon class="cls-11" points="85.84 104.6 86.84 106.64 89.09 106.97 87.47 108.55 87.85 110.79 85.84 109.73 83.83 110.79 84.21 108.55 82.59 106.97 84.83 106.64 85.84 104.6"/><polygon class="cls-11" points="94.87 104.6 95.87 106.64 98.12 106.97 96.49 108.55 96.88 110.79 94.87 109.73 92.86 110.79 93.24 108.55 91.61 106.97 93.86 106.64 94.87 104.6"/><polygon class="cls-11" points="103.9 104.6 104.9 106.64 107.15 106.97 105.52 108.55 105.91 110.79 103.9 109.73 101.89 110.79 102.27 108.55 100.64 106.97 102.89 106.64 103.9 104.6"/><polygon class="cls-11" points="112.92 104.6 113.93 106.64 116.18 106.97 114.55 108.55 114.93 110.79 112.92 109.73 110.91 110.79 111.3 108.55 109.67 106.97 111.92 106.64 112.92 104.6"/><polygon class="cls-11" points="121.95 104.6 122.96 106.64 125.2 106.97 123.58 108.55 123.96 110.79 121.95 109.73 119.94 110.79 120.33 108.55 118.7 106.97 120.95 106.64 121.95 104.6"/><rect class="cls-11" x="82.59" y="114.58" width="42.62" height="8.45" rx="2.47"/><rect class="cls-10" x="163.77" y="144.37" width="41.15" height="33.81" rx="3.83"/><rect class="cls-11" x="168.28" y="148.99" width="28.61" height="2.74"/><rect class="cls-11" x="168.28" y="154.38" width="18.03" height="2.74"/><polygon class="cls-11" points="170.73 159.98 171.49 161.52 173.18 161.76 171.96 162.96 172.25 164.65 170.73 163.85 169.22 164.65 169.5 162.96 168.28 161.76 169.97 161.52 170.73 159.98"/><polygon class="cls-11" points="177.54 159.98 178.3 161.52 179.99 161.76 178.76 162.96 179.05 164.65 177.54 163.85 176.02 164.65 176.31 162.96 175.09 161.76 176.78 161.52 177.54 159.98"/><polygon class="cls-11" points="184.34 159.98 185.1 161.52 186.8 161.76 185.57 162.96 185.86 164.65 184.34 163.85 182.83 164.65 183.12 162.96 181.89 161.76 183.59 161.52 184.34 159.98"/><polygon class="cls-11" points="191.15 159.98 191.91 161.52 193.6 161.76 192.38 162.96 192.67 164.65 191.15 163.85 189.64 164.65 189.93 162.96 188.7 161.76 190.4 161.52 191.15 159.98"/><polygon class="cls-11" points="197.96 159.98 198.72 161.52 200.41 161.76 199.19 162.96 199.47 164.65 197.96 163.85 196.44 164.65 196.73 162.96 195.51 161.76 197.2 161.52 197.96 159.98"/><rect class="cls-11" x="168.28" y="167.5" width="32.13" height="6.37" rx="1.86"/><rect class="cls-10" x="94.33" y="143.08" width="41.15" height="33.81" rx="3.83"/><rect class="cls-11" x="98.84" y="147.69" width="28.61" height="2.74"/><rect class="cls-11" x="98.84" y="153.08" width="18.03" height="2.74"/><polygon class="cls-11" points="101.29 158.69 102.05 160.22 103.74 160.47 102.52 161.67 102.81 163.35 101.29 162.56 99.78 163.35 100.06 161.67 98.84 160.47 100.53 160.22 101.29 158.69"/><polygon class="cls-11" points="108.1 158.69 108.86 160.22 110.55 160.47 109.33 161.67 109.61 163.35 108.1 162.56 106.58 163.35 106.87 161.67 105.65 160.47 107.34 160.22 108.1 158.69"/><polygon class="cls-11" points="114.91 158.69 115.66 160.22 117.36 160.47 116.13 161.67 116.42 163.35 114.91 162.56 113.39 163.35 113.68 161.67 112.45 160.47 114.15 160.22 114.91 158.69"/><polygon class="cls-11" points="121.71 158.69 122.47 160.22 124.17 160.47 122.94 161.67 123.23 163.35 121.71 162.56 120.2 163.35 120.49 161.67 119.26 160.47 120.95 160.22 121.71 158.69"/><polygon class="cls-11" points="128.52 158.69 129.28 160.22 130.97 160.47 129.75 161.67 130.03 163.35 128.52 162.56 127 163.35 127.29 161.67 126.07 160.47 127.76 160.22 128.52 158.69"/><rect class="cls-11" x="98.84" y="166.21" width="32.13" height="6.37" rx="1.86"/><path class="cls-12" d="M666.2,449.42l-13.07.09L633.9,468.74l13,13,19.23-19.23Zm-4.88,4.88a1.35,1.35,0,1,1,1.92,0A1.35,1.35,0,0,1,661.32,454.3Z" transform="translate(-553.54 -280.76)"/><polygon class="cls-11" points="105.26 176.07 104.14 179.37 106.23 182.16 102.74 182.12 100.73 184.96 99.69 181.63 96.37 180.6 99.21 178.59 99.17 175.1 101.96 177.19 105.26 176.07"/><polygon class="cls-11" points="96.38 184.95 95.26 188.25 97.34 191.04 93.86 191 91.85 193.85 90.81 190.52 87.48 189.48 90.33 187.47 90.28 183.99 93.08 186.07 96.38 184.95"/><path class="cls-9" d="M794.52,484.07s-21.41,2.21-47.83,2.21-47.82-2.21-47.82-2.21,21.41-2.21,47.82-2.21S794.52,484.07,794.52,484.07Z" transform="translate(-553.54 -280.76)"/><path class="cls-13" d="M776.91,385.76a26.16,26.16,0,0,1-.47-2.71,6.23,6.23,0,0,0-2.19-4.07c-.19-.18-.37-.37-.54-.55a4.4,4.4,0,0,0-.13-.63,5.58,5.58,0,0,0-1.33-2,5.12,5.12,0,0,1-.11-1.08,29,29,0,0,0,.12-3.36,8.35,8.35,0,0,0-1.35-3.82,6.58,6.58,0,0,0-1.36-3.17,8.19,8.19,0,0,0-5.16-2.74,16.55,16.55,0,0,0-6.12.27,13.73,13.73,0,0,0-5,2.2,7.07,7.07,0,0,0-3.09,4.87c-2.57,3.46-.65,8.6,1.82,12.08-.5,1.08-1.36,2.31-1.65,2.9a41.59,41.59,0,0,0-3.12,7.72c-.93,3.55-1.09,7.26,3.09,8.35,8.21,2.16,18.07,4.78,26,.23,2.58-1.48,4.7-4.11,4.75-7.09S779.21,387.6,776.91,385.76Zm-24.58-5.59a18,18,0,0,1-2.11-3.68,8.61,8.61,0,0,1-.06-6.5,30.83,30.83,0,0,0,2.19,9.57A1.42,1.42,0,0,1,752.33,380.17ZM771,368.93v-.13a8,8,0,0,1,.68,2.67c.08,1.14-.2,2.29-.22,3.43a4.62,4.62,0,0,1-.67-1.13C770.19,372.24,770.88,370.56,771,368.93Zm2.78,13.38a9.09,9.09,0,0,1,0-2.9l.27.26c1.54,1.54,1.64,3.39,1.88,5.29A5.5,5.5,0,0,1,773.76,382.31Z" transform="translate(-553.54 -280.76)"/><path class="cls-6" d="M766,370V374a5.84,5.84,0,0,1-.38,2.1A6,6,0,0,1,754,374V370a.76.76,0,0,1,0-.15,4.32,4.32,0,0,1,4.32-4.18h3.35A4.33,4.33,0,0,1,766,369.8Z" transform="translate(-553.54 -280.76)"/><path class="cls-6" d="M766,369.67v.13a6,6,0,0,1-12,.16v-.16a.57.57,0,0,1,0-.13,6,6,0,0,1,12,0Z" transform="translate(-553.54 -280.76)"/><path class="cls-13" d="M766,369.8V374a5.84,5.84,0,0,1-.38,2.1L761.49,372A5.93,5.93,0,0,1,754,370h0a.76.76,0,0,1,0-.15.57.57,0,0,1,0-.13,6,6,0,0,1,12,0Z" transform="translate(-553.54 -280.76)"/><path class="cls-6" d="M767,375.08a1.79,1.79,0,1,1-1.79-1.78A1.79,1.79,0,0,1,767,375.08Z" transform="translate(-553.54 -280.76)"/><path class="cls-6" d="M759,391.34A124.13,124.13,0,0,1,748.81,404c-2,2.07-3.91,3.74-5.41,4.34-5.22,2.08-21.27-11.87-21.27-11.87s-2.56.28-3.51-.28,0-4.56,0-4.56-3.22-1.23-3.51-2.28,5.31.76,6,1,1.8,3.4,1.8,3.4c5,.85,17.94,7.31,17.94,7.31s.49-1.13,1.49-3.1c.82-1.6,2-3.75,3.45-6.3,3.32-5.69,7.07-7.59,7.07-7.59Z" transform="translate(-553.54 -280.76)"/><path class="cls-14" d="M759,391.34A124.13,124.13,0,0,1,748.81,404l-6.49-6.07c.82-1.6,2-3.75,3.45-6.3,3.32-5.69,7.07-7.59,7.07-7.59Z" transform="translate(-553.54 -280.76)"/><path class="cls-13" d="M749.83,418.38s-5.15,23.37-5.15,28.28-.06,32.75-.06,32.75h5.15s8.16-22.8,5-30.3c-.47-1.13,4.33-8.48,5.82-13.71a55.11,55.11,0,0,0,2.08-15.53Z" transform="translate(-553.54 -280.76)"/><path class="cls-13" d="M758,416.36s-.41,17.31,2.68,25.1,9.09,38,9.09,38h5.2s-1.1-51.51-2.68-61Z" transform="translate(-553.54 -280.76)"/><path class="cls-12" d="M752.84,403.24l-3,15.14h0a30.7,30.7,0,0,0,13.63,1.2l8.78-1.2c0-2.87-.14-7.15-.36-11.73-.14-2.72-.08-6-.31-8.71-.58-6.71-1.75-12.21-3.27-13.9H752.84s-5.07,8.61-3.53,11.7S752.84,403.24,752.84,403.24Z" transform="translate(-553.54 -280.76)"/><path class="cls-13" d="M749.77,479.41l-.17,2.08-.22,2.82H737.29a.73.73,0,0,1-.48-1.29,13.41,13.41,0,0,1,2.72-1.68,36.73,36.73,0,0,1,5.09-1.93Z" transform="translate(-553.54 -280.76)"/><path class="cls-6" d="M749.77,479.41l-.17,2.08a9.65,9.65,0,0,1-2.51.9,20.23,20.23,0,0,1-4.26.31,3.87,3.87,0,0,1-3.3-1.36,36.73,36.73,0,0,1,5.09-1.93Z" transform="translate(-553.54 -280.76)"/><path class="cls-12" d="M775.22,437.52h-7.49v-3.75a3.75,3.75,0,0,1,7.49,0Zm-6.62-.86h5.76v-2.89a2.88,2.88,0,0,0-5.76,0Z" transform="translate(-553.54 -280.76)"/><polygon class="cls-2" points="226.26 154.72 209.61 154.72 206.36 173.69 229.51 173.69 226.26 154.72"/><path class="cls-6" d="M778.84,486c-3.09,1.51-8.8-3.76-8.8-3.76l-.18-1.61-.14-1.23h5.2l0,1.39s1.34,1.37,2.62,2.44S780,485.46,778.84,486Z" transform="translate(-553.54 -280.76)"/><path class="cls-13" d="M778.84,486c-3.09,1.51-8.8-3.76-8.8-3.76l-.18-1.61c.22.21.41.48.63.68a11.42,11.42,0,0,0,4.41,2.42,3.59,3.59,0,0,0,1.59.16,1.68,1.68,0,0,0,1.08-.66C778.9,484.33,780,485.46,778.84,486Z" transform="translate(-553.54 -280.76)"/><path class="cls-6" d="M773.14,432.84s-5.2-.27-4.84-2.83c.25-1.84,5.52-1.35,5.52-1.35s6-5.24,6-12.81a12.12,12.12,0,0,0-3.51-8.19,19.07,19.07,0,0,0-4.6-3.66,72.69,72.69,0,0,0-1-9.87,74.78,74.78,0,0,0-2.3-9.65l-.14-.44s12.25,5.34,16.75,18.56a30.93,30.93,0,0,1,1.61,8.62C787.42,427.65,773.14,432.84,773.14,432.84Z" transform="translate(-553.54 -280.76)"/><path class="cls-14" d="M785.05,402.6l-8.72,5.06a19.07,19.07,0,0,0-4.6-3.66,72.69,72.69,0,0,0-1-9.87,74.78,74.78,0,0,0-2.3-9.65l-.14-.44S780.55,389.38,785.05,402.6Z" transform="translate(-553.54 -280.76)"/><path class="cls-6" d="M757.93,377.66l-.86,4L752.84,384a6.82,6.82,0,0,0,6.12,4.07c4.48,0,9.34-4.07,9.34-4.07L764,381.83l-.82-4.74Z" transform="translate(-553.54 -280.76)"/><path class="cls-4" d="M757.53,379.51a5.48,5.48,0,0,0,6-.62l.38,2.21-.19.1a5.84,5.84,0,0,1-6.38-.7h0Z" transform="translate(-553.54 -280.76)"/><path class="cls-6" d="M611.92,305.23l-.66-2.34-.66,2.34a7.64,7.64,0,0,1-3.69,4.62h0a7.64,7.64,0,0,1,3.69,4.62l.66,2.34.66-2.34a7.64,7.64,0,0,1,3.69-4.62h0A7.64,7.64,0,0,1,611.92,305.23Z" transform="translate(-553.54 -280.76)"/><path class="cls-6" d="M808.65,457.14,808,454.8l-.66,2.34a7.61,7.61,0,0,1-3.69,4.62h0a7.67,7.67,0,0,1,3.69,4.62l.66,2.34.66-2.34a7.67,7.67,0,0,1,3.69-4.62h0A7.61,7.61,0,0,1,808.65,457.14Z" transform="translate(-553.54 -280.76)"/><path class="cls-12" d="M786,346.75l.66-2.34.66,2.34a7.67,7.67,0,0,0,3.69,4.62h0a7.64,7.64,0,0,0-3.69,4.62l-.66,2.34L786,356a7.64,7.64,0,0,0-3.69-4.62h0A7.67,7.67,0,0,0,786,346.75Z" transform="translate(-553.54 -280.76)"/><path class="cls-12" d="M677,288.65l.67-2.34.66,2.34a7.63,7.63,0,0,0,3.68,4.62h0a7.69,7.69,0,0,0-3.68,4.62l-.66,2.34-.67-2.34a7.65,7.65,0,0,0-3.68-4.62h0A7.6,7.6,0,0,0,677,288.65Z" transform="translate(-553.54 -280.76)"/><path class="cls-6" d="M623,295.36l-.47-1.66-.47,1.66a5.43,5.43,0,0,1-2.62,3.29h0a5.43,5.43,0,0,1,2.62,3.29l.47,1.66.47-1.66a5.43,5.43,0,0,1,2.62-3.29h0A5.43,5.43,0,0,1,623,295.36Z" transform="translate(-553.54 -280.76)"/><path class="cls-12" d="M607.38,464.12l-.47-1.66-.47,1.66a5.45,5.45,0,0,1-2.62,3.29h0a5.43,5.43,0,0,1,2.62,3.28l.47,1.67.47-1.67a5.45,5.45,0,0,1,2.63-3.28h0A5.47,5.47,0,0,1,607.38,464.12Z" transform="translate(-553.54 -280.76)"/><path class="cls-12" d="M557.11,329.56l-.48-1.67-.47,1.67a5.43,5.43,0,0,1-2.62,3.28h0a5.45,5.45,0,0,1,2.62,3.29l.47,1.66.48-1.66a5.42,5.42,0,0,1,2.62-3.29h0A5.4,5.4,0,0,1,557.11,329.56Z" transform="translate(-553.54 -280.76)"/><path class="cls-12" d="M617.43,474l-.47-1.66-.47,1.66a5.45,5.45,0,0,1-2.62,3.29h0a5.43,5.43,0,0,1,2.62,3.28l.47,1.67.47-1.67a5.43,5.43,0,0,1,2.62-3.28h0A5.45,5.45,0,0,1,617.43,474Z" transform="translate(-553.54 -280.76)"/><path class="cls-12" d="M776.35,331.15l-.47-1.67-.48,1.67a5.4,5.4,0,0,1-2.62,3.28h0a5.42,5.42,0,0,1,2.62,3.29l.48,1.66.47-1.66a5.45,5.45,0,0,1,2.62-3.29h0A5.43,5.43,0,0,1,776.35,331.15Z" transform="translate(-553.54 -280.76)"/><path class="cls-12" d="M563.29,314.76l-.47-1.66-.47,1.66a5.45,5.45,0,0,1-2.62,3.29h0a5.43,5.43,0,0,1,2.62,3.28l.47,1.67.47-1.67a5.43,5.43,0,0,1,2.62-3.28h0A5.45,5.45,0,0,1,563.29,314.76Z" transform="translate(-553.54 -280.76)"/><path class="cls-6" d="M801.25,448.7l-.47-1.66-.48,1.66a5.39,5.39,0,0,1-2.62,3.29h0a5.39,5.39,0,0,1,2.62,3.29l.48,1.66.47-1.66a5.43,5.43,0,0,1,2.62-3.29h0A5.43,5.43,0,0,1,801.25,448.7Z" transform="translate(-553.54 -280.76)"/><rect class="cls-7" x="138.64" y="108.36" width="18.93" height="5.23"/><path class="cls-7" d="M613,335.69h19.12a4.65,4.65,0,0,1,4.65,4.66v19.11a4.67,4.67,0,0,1-3.5,4.51v7.78l-7.63-7.63H613a4.66,4.66,0,0,1-4.65-4.66V340.35A4.65,4.65,0,0,1,613,335.69Z" transform="translate(-553.54 -280.76)"/><path class="cls-11" d="M632.13,348a1.16,1.16,0,0,0-1.17-1.08h-5.7a24.23,24.23,0,0,0,.21-2.88c-.07-.45-1.1-3-1.1-3a.81.81,0,0,0-.86-.29c-.58.14-.65.53-.65.53l.12,2.66c-.26,1.27-2.49,4.08-2.49,4.08l-.72.55v6.13l.26.38a1.52,1.52,0,0,0,1.23.63h8.08a1.14,1.14,0,0,0,1.14-1.14,1.12,1.12,0,0,0-.71-1.05h.08a1.16,1.16,0,0,0,1.17-1.09,1.12,1.12,0,0,0-.68-1.1h0a1.14,1.14,0,0,0,.51-2.16H631A1.15,1.15,0,0,0,632.13,348Z" transform="translate(-553.54 -280.76)"/><path class="cls-11" d="M617.73,346.67H614a1,1,0,0,0-1,1v7.48a1,1,0,0,0,1,1h3.73a1,1,0,0,0,1-1v-7.48A1,1,0,0,0,617.73,346.67Zm-.67,8.62a.63.63,0,0,1-.63-.63.64.64,0,1,1,.63.63Z" transform="translate(-553.54 -280.76)"/><path class="cls-12" d="M752.94,280.76H733.82a4.65,4.65,0,0,0-4.65,4.65v19.12a4.65,4.65,0,0,0,3.5,4.5v7.79l7.64-7.64h12.63a4.65,4.65,0,0,0,4.65-4.65V285.41A4.65,4.65,0,0,0,752.94,280.76Z" transform="translate(-553.54 -280.76)"/><path class="cls-11" d="M753,293a1.16,1.16,0,0,0-1.17-1.08h-5.7a26.17,26.17,0,0,0,.22-2.87c-.08-.46-1.11-3-1.11-3a.78.78,0,0,0-.86-.28c-.58.14-.65.52-.65.52l.12,2.67c-.26,1.27-2.49,4.07-2.49,4.07l-.72.55v6.14l.27.38a1.52,1.52,0,0,0,1.23.63h8.08a1.14,1.14,0,0,0,.42-2.2h.09a1.15,1.15,0,0,0,1.16-1.08,1.12,1.12,0,0,0-.68-1.1h0a1.14,1.14,0,0,0,1.14-1.14,1.13,1.13,0,0,0-.64-1h.12A1.14,1.14,0,0,0,753,293Z" transform="translate(-553.54 -280.76)"/><path class="cls-11" d="M738.55,291.73h-3.73a1,1,0,0,0-1,1v7.47a1,1,0,0,0,1,1h3.73a1,1,0,0,0,1-1v-7.48A1,1,0,0,0,738.55,291.73Zm-.66,8.63a.64.64,0,1,1,.63-.63A.63.63,0,0,1,737.89,300.36Z" transform="translate(-553.54 -280.76)"/><path class="cls-11" d="M724.49,467.64H717v-3.75a3.75,3.75,0,0,1,7.49,0Zm-6.63-.86h5.76v-2.89a2.88,2.88,0,0,0-5.76,0Z" transform="translate(-553.54 -280.76)"/><polygon class="cls-7" points="175.53 184.84 158.88 184.84 155.62 203.81 178.78 203.81 175.53 184.84"/></svg>