<svg id="Слой_1" data-name="Слой 1" xmlns="http://www.w3.org/2000/svg" xmlns:xlink="http://www.w3.org/1999/xlink" viewBox="0 0 208.03 205.01"><defs><style>.cls-1{fill:url(#Degradado_sin_nombre_36);}.cls-2{fill:url(#Degradado_sin_nombre_11);}.cls-3{fill:#c4c4c4;}.cls-4{fill:#9b9b9a;}.cls-5{fill:#858585;}.cls-6{fill:#ebebeb;}.cls-7{fill:url(#Degradado_sin_nombre_36-2);}.cls-8{fill:url(#Degradado_sin_nombre_11-2);}.cls-9{fill:url(#Degradado_sin_nombre_11-3);}.cls-10{fill:url(#Degradado_sin_nombre_11-4);}.cls-11{fill:url(#Degradado_sin_nombre_11-5);}.cls-12{fill:url(#Degradado_sin_nombre_11-6);}.cls-13{fill:#fadd74;}.cls-14{fill:#e6332a;}.cls-15{fill:#34525c;}.cls-16{fill:#fff;}.cls-17{fill:url(#Degradado_sin_nombre_36-3);}.cls-18{fill:url(#Degradado_sin_nombre_11-7);}.cls-19{fill:url(#Degradado_sin_nombre_11-8);}.cls-20{fill:url(#Degradado_sin_nombre_11-9);}.cls-21{fill:url(#Degradado_sin_nombre_11-10);}.cls-22{fill:url(#Degradado_sin_nombre_11-11);}.cls-23{fill:#ffcb9c;}.cls-24{fill:url(#Degradado_sin_nombre_36-4);}.cls-25{fill:url(#Degradado_sin_nombre_11-12);}.cls-26{fill:url(#Degradado_sin_nombre_11-13);}.cls-27{fill:url(#Degradado_sin_nombre_11-14);}.cls-28{fill:url(#Degradado_sin_nombre_11-15);}.cls-29{fill:url(#Degradado_sin_nombre_11-16);}.cls-30{fill:#191919;}.cls-31{fill:url(#Degradado_sin_nombre_44);}.cls-32{fill:none;stroke:#1d1d1b;stroke-miterlimit:10;stroke-width:2px;}.cls-33{fill:#ff6252;}</style><linearGradient id="Degradado_sin_nombre_36" x1="663.87" y1="383.49" x2="859.72" y2="383.49" gradientUnits="userSpaceOnUse"><stop offset="0" stop-color="#2acaff"/><stop offset="1" stop-color="#2adfc3"/></linearGradient><linearGradient id="Degradado_sin_nombre_11" x1="684.09" y1="395.77" x2="871.9" y2="395.77" gradientUnits="userSpaceOnUse"><stop offset="0" stop-color="#76aadb"/><stop offset="1" stop-color="#4a72b2"/></linearGradient><linearGradient id="Degradado_sin_nombre_36-2" x1="690.18" y1="320.59" x2="743.15" y2="320.59" gradientTransform="translate(0.37 -0.82) rotate(0.07)" xlink:href="#Degradado_sin_nombre_36"/><linearGradient id="Degradado_sin_nombre_11-2" x1="695.16" y1="312.02" x2="718.3" y2="312.02" gradientTransform="translate(0.36 -0.81) rotate(0.07)" xlink:href="#Degradado_sin_nombre_11"/><linearGradient id="Degradado_sin_nombre_11-3" x1="695.16" y1="316.12" x2="718.3" y2="316.12" gradientTransform="translate(0.36 -0.81) rotate(0.07)" xlink:href="#Degradado_sin_nombre_11"/><linearGradient id="Degradado_sin_nombre_11-4" x1="695.17" y1="320.22" x2="718.31" y2="320.22" gradientTransform="translate(0.37 -0.81) rotate(0.07)" xlink:href="#Degradado_sin_nombre_11"/><linearGradient id="Degradado_sin_nombre_11-5" x1="695.17" y1="324.32" x2="718.31" y2="324.32" gradientTransform="translate(0.37 -0.81) rotate(0.07)" xlink:href="#Degradado_sin_nombre_11"/><linearGradient id="Degradado_sin_nombre_11-6" x1="695.18" y1="328.42" x2="708.75" y2="328.42" gradientTransform="translate(0.38 -0.8) rotate(0.07)" xlink:href="#Degradado_sin_nombre_11"/><linearGradient id="Degradado_sin_nombre_36-3" x1="690.18" y1="351.44" x2="743.15" y2="351.44" gradientTransform="translate(1433.73 702.07) rotate(179.93)" xlink:href="#Degradado_sin_nombre_36"/><linearGradient id="Degradado_sin_nombre_11-7" x1="715.04" y1="342.88" x2="738.17" y2="342.88" gradientTransform="translate(1068.65 -384.12) rotate(89.93)" xlink:href="#Degradado_sin_nombre_11"/><linearGradient id="Degradado_sin_nombre_11-8" x1="715.03" y1="346.97" x2="738.17" y2="346.97" gradientTransform="translate(1072.74 -380.02) rotate(89.93)" xlink:href="#Degradado_sin_nombre_11"/><linearGradient id="Degradado_sin_nombre_11-9" x1="715.03" y1="351.07" x2="738.16" y2="351.07" gradientTransform="translate(1076.84 -375.92) rotate(89.93)" xlink:href="#Degradado_sin_nombre_11"/><linearGradient id="Degradado_sin_nombre_11-10" x1="715.02" y1="355.17" x2="738.16" y2="355.17" gradientTransform="translate(1080.93 -371.83) rotate(89.93)" xlink:href="#Degradado_sin_nombre_11"/><linearGradient id="Degradado_sin_nombre_11-11" x1="724.58" y1="359.28" x2="738.15" y2="359.28" gradientTransform="translate(1089.8 -372.5) rotate(89.93)" xlink:href="#Degradado_sin_nombre_11"/><linearGradient id="Degradado_sin_nombre_36-4" x1="680.07" y1="431.49" x2="751.68" y2="431.49" gradientTransform="translate(1425.38 837.39) rotate(179.94)" xlink:href="#Degradado_sin_nombre_36"/><linearGradient id="Degradado_sin_nombre_11-12" x1="713.67" y1="419.91" x2="744.95" y2="419.91" gradientTransform="translate(-20.55 -30.14) rotate(-0.06)" xlink:href="#Degradado_sin_nombre_11"/><linearGradient id="Degradado_sin_nombre_11-13" x1="713.66" y1="425.45" x2="744.94" y2="425.45" gradientTransform="translate(-16.39 -32.02) rotate(-0.06)" xlink:href="#Degradado_sin_nombre_11"/><linearGradient id="Degradado_sin_nombre_11-14" x1="713.66" y1="430.99" x2="744.94" y2="430.99" gradientTransform="translate(-12.24 -33.89) rotate(-0.06)" xlink:href="#Degradado_sin_nombre_11"/><linearGradient id="Degradado_sin_nombre_11-15" x1="713.65" y1="436.53" x2="744.93" y2="436.53" gradientTransform="translate(-8.09 -35.76) rotate(-0.06)" xlink:href="#Degradado_sin_nombre_11"/><linearGradient id="Degradado_sin_nombre_11-16" x1="726.58" y1="442.08" x2="744.93" y2="442.08" gradientTransform="matrix(1, 0, 0, 1, -6.12, -42.48)" xlink:href="#Degradado_sin_nombre_11"/><linearGradient id="Degradado_sin_nombre_44" x1="760.37" y1="-15957.34" x2="779.85" y2="-15957.34" gradientTransform="matrix(1, 0, 0, -1, 0, -15614)" gradientUnits="userSpaceOnUse"><stop offset="0" stop-color="#fff"/><stop offset="1" stop-color="#f7f7f8"/></linearGradient></defs><title>service-promo-site</title><path class="cls-1" d="M678.75,422.35s-40.92-40,13-75.92,112.1-52.15,146-47.9,25.38,86-3.9,135.65S734.19,481.1,678.75,422.35Z" transform="translate(-663.87 -281.03)"/><path class="cls-2" d="M851,337.22s47.07,32.57,0,77S749.26,484.5,715.09,486s-39.47-80.48-19-134.38S786.45,288.63,851,337.22Z" transform="translate(-663.87 -281.03)"/><path class="cls-3" d="M681.2,346.66h0a2.52,2.52,0,0,1-2.52-2.51v-6.74a2.52,2.52,0,0,1,2.52-2.51h0a2.52,2.52,0,0,1,2.51,2.51v6.74A2.52,2.52,0,0,1,681.2,346.66Z" transform="translate(-663.87 -281.03)"/><path class="cls-3" d="M681.2,333.26h0a2.52,2.52,0,0,1-2.52-2.51V324a2.52,2.52,0,0,1,2.52-2.51h0a2.52,2.52,0,0,1,2.51,2.51v6.74A2.52,2.52,0,0,1,681.2,333.26Z" transform="translate(-663.87 -281.03)"/><path class="cls-3" d="M681.2,318.88h0a2.52,2.52,0,0,1-2.52-2.51v-2.26a2.52,2.52,0,0,1,2.52-2.51h0a2.52,2.52,0,0,1,2.51,2.51v2.26A2.52,2.52,0,0,1,681.2,318.88Z" transform="translate(-663.87 -281.03)"/><path class="cls-3" d="M751.84,343.28h0a2.52,2.52,0,0,1-2.51-2.52V328.31a2.52,2.52,0,0,1,2.51-2.51h0a2.52,2.52,0,0,1,2.52,2.51v12.45A2.52,2.52,0,0,1,751.84,343.28Z" transform="translate(-663.87 -281.03)"/><path d="M30.57,9.89H74.41A14.06,14.06,0,0,1,88.46,23.94V143.52a14.06,14.06,0,0,1-14.06,14.06H30.57a14.05,14.05,0,0,1-14.05-14.05V23.94A14.05,14.05,0,0,1,30.57,9.89Z"/><path class="cls-4" d="M741.35,439.26h-50a11.65,11.65,0,0,1-11.64-11.64V301.9a11.65,11.65,0,0,1,11.64-11.64h50A11.65,11.65,0,0,1,753,301.9V427.62A11.65,11.65,0,0,1,741.35,439.26Zm-50-147.69A10.35,10.35,0,0,0,681,301.9V427.62A10.35,10.35,0,0,0,691.37,438h50a10.35,10.35,0,0,0,10.33-10.33V301.9a10.35,10.35,0,0,0-10.33-10.33Z" transform="translate(-663.87 -281.03)"/><path class="cls-5" d="M740.87,292.66a9.73,9.73,0,0,1,9.72,9.72V427.13a9.73,9.73,0,0,1-9.72,9.73h-49a9.74,9.74,0,0,1-9.73-9.73V302.38a9.74,9.74,0,0,1,9.73-9.72h49m0-1.75h-49a11.47,11.47,0,0,0-11.47,11.47V427.13a11.46,11.46,0,0,0,11.47,11.47h49a11.47,11.47,0,0,0,11.47-11.47V302.38a11.48,11.48,0,0,0-11.47-11.47Z" transform="translate(-663.87 -281.03)"/><rect class="cls-6" x="15.85" y="24.85" width="2.39" height="1.57"/><rect class="cls-6" x="86.69" y="24.85" width="2.43" height="1.57"/><rect class="cls-6" x="15.85" y="142.39" width="2.45" height="1.57"/><rect class="cls-6" x="86.65" y="142.39" width="2.45" height="1.57"/><text x="-663.87" y="-281.03"/><rect class="cls-7" x="690.19" y="307.23" width="52.95" height="26.72" rx="2.46" transform="translate(-664.24 -280.21) rotate(-0.07)"/><rect class="cls-8" x="695.16" y="310.75" width="23.13" height="2.55" transform="translate(-664.23 -280.22) rotate(-0.07)"/><rect class="cls-9" x="695.17" y="314.85" width="23.13" height="2.55" transform="translate(-664.23 -280.22) rotate(-0.07)"/><rect class="cls-10" x="695.17" y="318.94" width="23.13" height="2.55" transform="translate(-664.24 -280.22) rotate(-0.07)"/><rect class="cls-11" x="695.18" y="323.04" width="23.13" height="2.55" transform="translate(-664.24 -280.22) rotate(-0.07)"/><rect class="cls-12" x="695.18" y="327.15" width="13.57" height="2.55" transform="translate(-664.25 -280.22) rotate(-0.07)"/><path class="cls-13" d="M726.94,313.23a3.09,3.09,0,1,1-3.1-3.08A3.09,3.09,0,0,1,726.94,313.23Z" transform="translate(-663.87 -281.03)"/><path class="cls-14" d="M733.93,313.23a3.09,3.09,0,1,1-3.09-3.09A3.08,3.08,0,0,1,733.93,313.23Z" transform="translate(-663.87 -281.03)"/><path class="cls-13" d="M740.93,313.22a3.09,3.09,0,1,1-3.09-3.09A3.09,3.09,0,0,1,740.93,313.22Z" transform="translate(-663.87 -281.03)"/><path class="cls-15" d="M727,320.84a3.09,3.09,0,1,1-3.1-3.09A3.09,3.09,0,0,1,727,320.84Z" transform="translate(-663.87 -281.03)"/><path class="cls-13" d="M733.94,320.83a3.09,3.09,0,1,1-3.09-3.09A3.09,3.09,0,0,1,733.94,320.83Z" transform="translate(-663.87 -281.03)"/><path class="cls-16" d="M740.94,320.82a3.09,3.09,0,1,1-3.09-3.08A3.09,3.09,0,0,1,740.94,320.82Z" transform="translate(-663.87 -281.03)"/><path class="cls-13" d="M727,328.44a3.1,3.1,0,1,1-3.1-3.08A3.09,3.09,0,0,1,727,328.44Z" transform="translate(-663.87 -281.03)"/><path class="cls-15" d="M734,328.44a3.09,3.09,0,1,1-3.09-3.09A3.09,3.09,0,0,1,734,328.44Z" transform="translate(-663.87 -281.03)"/><path class="cls-16" d="M741,328.43a3.09,3.09,0,1,1-3.1-3.09A3.09,3.09,0,0,1,741,328.43Z" transform="translate(-663.87 -281.03)"/><rect class="cls-17" x="690.19" y="338.08" width="52.95" height="26.72" rx="2.46" transform="translate(769.06 422.68) rotate(-179.93)"/><rect class="cls-18" x="725.33" y="331.31" width="2.55" height="23.13" transform="translate(-280.97 788.06) rotate(-89.93)"/><rect class="cls-19" x="725.32" y="335.41" width="2.55" height="23.13" transform="matrix(0, -1, 1, 0, -285.08, 792.15)"/><rect class="cls-20" x="725.32" y="339.51" width="2.55" height="23.13" transform="translate(-289.18 796.24) rotate(-89.93)"/><rect class="cls-21" x="725.32" y="343.6" width="2.55" height="23.13" transform="translate(-293.29 800.33) rotate(-89.93)"/><rect class="cls-22" x="730.09" y="352.49" width="2.55" height="13.57" transform="translate(-292.62 809.2) rotate(-89.93)"/><path class="cls-13" d="M706.4,344.09a3.09,3.09,0,1,0,3.09-3.09A3.08,3.08,0,0,0,706.4,344.09Z" transform="translate(-663.87 -281.03)"/><path class="cls-14" d="M699.4,344.08a3.09,3.09,0,1,0,3.09-3.09A3.09,3.09,0,0,0,699.4,344.08Z" transform="translate(-663.87 -281.03)"/><path class="cls-13" d="M692.4,344.07a3.09,3.09,0,1,0,3.1-3.09A3.1,3.1,0,0,0,692.4,344.07Z" transform="translate(-663.87 -281.03)"/><path class="cls-15" d="M706.39,351.69a3.09,3.09,0,1,0,3.09-3.08A3.09,3.09,0,0,0,706.39,351.69Z" transform="translate(-663.87 -281.03)"/><path class="cls-13" d="M699.39,351.68a3.09,3.09,0,1,0,3.09-3.08A3.09,3.09,0,0,0,699.39,351.68Z" transform="translate(-663.87 -281.03)"/><path class="cls-16" d="M692.39,351.68a3.09,3.09,0,1,0,3.1-3.09A3.09,3.09,0,0,0,692.39,351.68Z" transform="translate(-663.87 -281.03)"/><path class="cls-13" d="M706.38,359.3a3.09,3.09,0,1,0,3.09-3.09A3.08,3.08,0,0,0,706.38,359.3Z" transform="translate(-663.87 -281.03)"/><circle class="cls-15" cx="702.47" cy="359.29" r="3.09" transform="translate(-736.38 -69.96) rotate(-16.26)"/><path class="cls-16" d="M692.38,359.28a3.1,3.1,0,1,0,3.1-3.08A3.1,3.1,0,0,0,692.38,359.28Z" transform="translate(-663.87 -281.03)"/><path class="cls-23" d="M781.87,418.78c-4.33-26.14-15.2-31.62-15.2-31.62l-6.27,7.34a4.44,4.44,0,0,1,.26,1.48c0,4.51-.21,9.78-4.2,12.56a15.45,15.45,0,0,1,2.91,7.32c.62,5.24-1,11-8.68,15-9.18,4.78-27.9,4.53-27.9,4.53l-6.27,6.71C758.23,457.6,785.08,438.11,781.87,418.78Z" transform="translate(-663.87 -281.03)"/><path class="cls-23" d="M715,433.41s-16-4.52-17.45-4.31-1.24,2,1.54,2.68a66.9,66.9,0,0,1,7.72,2.66s-10.46-2-11.25-1.36-.54,2,1.38,2.18,9.53,2,9.53,2-6.64-.18-8.41.2.39,1.78,2.19,1.8,7.54.86,7.54.86-5,1.13-5.7,1.88,0,1.21.82,1.18,7.83-1.75,7.83-1.75,6.49,2.17,10.09-.45,2.75-5.09,2.16-5.51-9.62-7.23-11.48-7.76-2.4.94.33,2.53S715.84,433,715,433.41Z" transform="translate(-663.87 -281.03)"/><path d="M836.2,427.39s-12.74-60.68-46.74-63.51-46.36,66.44-27.66,110C761.8,473.89,798.43,459.78,836.2,427.39Z" transform="translate(-663.87 -281.03)"/><rect class="cls-24" x="673.24" y="388.63" width="71.58" height="36.12" rx="2.46" transform="translate(819.37 -136.49) rotate(131.46)"/><rect class="cls-25" x="693.59" y="387.23" width="31.27" height="3.45" transform="translate(-715.69 381.97) rotate(-48.54)"/><rect class="cls-26" x="697.74" y="390.9" width="31.27" height="3.45" transform="translate(-717.04 386.32) rotate(-48.54)"/><rect class="cls-27" x="701.89" y="394.57" width="31.27" height="3.45" transform="translate(-718.38 390.67) rotate(-48.54)"/><rect class="cls-28" x="706.04" y="398.24" width="31.27" height="3.45" transform="translate(-719.73 395.02) rotate(-48.54)"/><rect class="cls-29" x="720.94" y="397.06" width="18.35" height="3.45" transform="translate(-716 400.95) rotate(-48.54)"/><path class="cls-13" d="M692.39,410.53a4.18,4.18,0,1,0-.37-5.89A4.18,4.18,0,0,0,692.39,410.53Z" transform="translate(-663.87 -281.03)"/><path class="cls-14" d="M686.13,417.62a4.18,4.18,0,1,0-.37-5.89A4.18,4.18,0,0,0,686.13,417.62Z" transform="translate(-663.87 -281.03)"/><path class="cls-13" d="M679.87,424.71a4.18,4.18,0,1,0-.37-5.9A4.17,4.17,0,0,0,679.87,424.71Z" transform="translate(-663.87 -281.03)"/><path class="cls-15" d="M700.1,417.34a4.18,4.18,0,1,0-.37-5.9A4.17,4.17,0,0,0,700.1,417.34Z" transform="translate(-663.87 -281.03)"/><path class="cls-13" d="M693.83,424.43a4.18,4.18,0,1,0-.36-5.9A4.18,4.18,0,0,0,693.83,424.43Z" transform="translate(-663.87 -281.03)"/><path class="cls-16" d="M687.57,431.52a4.18,4.18,0,1,0-.36-5.9A4.18,4.18,0,0,0,687.57,431.52Z" transform="translate(-663.87 -281.03)"/><path class="cls-13" d="M707.8,424.15a4.18,4.18,0,1,0-.36-5.9A4.18,4.18,0,0,0,707.8,424.15Z" transform="translate(-663.87 -281.03)"/><path class="cls-15" d="M701.54,431.24a4.18,4.18,0,1,0-.37-5.9A4.19,4.19,0,0,0,701.54,431.24Z" transform="translate(-663.87 -281.03)"/><path class="cls-16" d="M695.28,438.33a4.18,4.18,0,1,0-.37-5.9A4.18,4.18,0,0,0,695.28,438.33Z" transform="translate(-663.87 -281.03)"/><path class="cls-23" d="M803.6,401.79s2.28,12-15.8,31.32c-13.38,14.32-45.2,4.92-58.33-37.59l9.14.88s11.21,15,20.6,19.36c7.82,3.64,13.41,1.41,17.18-2.26a16.13,16.13,0,0,0,4.69-12.87h0Z" transform="translate(-663.87 -281.03)"/><path class="cls-23" d="M735.41,389s-6.14-15.41-7.22-16.46-2.38.27-1.18,2.86a67.65,67.65,0,0,1,2.59,7.73s-4.79-9.51-5.77-9.74-1.94.8-.89,2.42,4.19,8.8,4.19,8.8-3.91-5.38-5.29-6.55-1.17,1.4-.09,2.84,3.91,6.49,3.91,6.49-3.95-3.26-5-3.36-.94.75-.43,1.37,6.16,5.14,6.16,5.14,2.23,6.46,6.5,7.73,5.71-.94,5.68-1.65-.12-12-.84-13.83-2.21-1.34-1.81,1.8S736.31,389.4,735.41,389Z" transform="translate(-663.87 -281.03)"/><circle class="cls-30" cx="116.61" cy="16.84" r="16.84"/><circle class="cls-30" cx="107.95" cy="33.74" r="10.55"/><circle class="cls-30" cx="130.77" cy="34.21" r="14.32"/><path class="cls-23" d="M754.45,336.47c.36,8.46,2.47,16.11,15.17,21.82,0,0,6.52,6.54,4.61,15.54s22.7,8.31,19-4.08,2.42-26.72,6.88-34.84,2.6-25.11-7.64-30.63c-4-2.17-14.06-1.18-20.57,2C760.85,311.73,753.94,324.17,754.45,336.47Z" transform="translate(-663.87 -281.03)"/><path class="cls-23" d="M797.57,327.6a8.14,8.14,0,0,1,6.65-1.45c3.69,1,4.32,14.42-4.29,16.77s-5.51-6.1-5.51-6.1Z" transform="translate(-663.87 -281.03)"/><path class="cls-30" d="M754,335a6.2,6.2,0,0,0,1,.08,5.89,5.89,0,0,0,2-.32c2.88,1.44,7.79,3,12.64.49,7.53-3.91,14.18-4.48,17.7-2.77,6,2.94,13,1.35,15-8,0,0,.84,7.41-3.75,11.28s-4.79,10-4.06,15.09,4.3,10.74-.32,17.12-12.16,0-17.82,1.52-18.13,3.13-20.75-7.17.77-14.16,0-18.43C755,340.33,753.56,338.16,754,335Z" transform="translate(-663.87 -281.03)"/><path class="cls-31" d="M771.75,340.06a9.52,9.52,0,0,1,3.61-1.88c1.76-.33,3.58,0,4.33,2.16s-1.14,4.18-3.55,6c-1.42,1.08-6.54,2.92-9.64,2s-4.8-1.71-5.77-3.53.22-4.07,1.64-4.9a4.28,4.28,0,0,1,4,.1A5,5,0,0,0,771.75,340.06Z" transform="translate(-663.87 -281.03)"/><path class="cls-30" d="M776.4,323.26c0,1.47.62,2.66,1.38,2.66s1.38-1.19,1.38-2.66-.62-2.66-1.38-2.66S776.4,321.79,776.4,323.26Z" transform="translate(-663.87 -281.03)"/><path class="cls-30" d="M761.38,325c0,1.47.61,2.66,1.37,2.66s1.38-1.19,1.38-2.66-.61-2.66-1.38-2.66S761.38,323.51,761.38,325Z" transform="translate(-663.87 -281.03)"/><path class="cls-32" d="M751.89,323.26a8.49,8.49,0,1,0,8.48-8.49A8.49,8.49,0,0,0,751.89,323.26Z" transform="translate(-663.87 -281.03)"/><polygon class="cls-33" points="104.75 35.05 100.26 52.85 109.5 51.84 104.75 35.05"/><circle class="cls-32" cx="779.16" cy="321.9" r="8.49" transform="translate(-705.29 -152.41) rotate(-9.19)"/><line class="cls-32" x1="102.86" y1="36.62" x2="107.95" y2="36.62"/><line class="cls-32" x1="123.45" y1="38.57" x2="139.27" y2="43.51"/><path class="cls-30" d="M794.58,337.5a4.09,4.09,0,1,0,4.09-4.09A4.09,4.09,0,0,0,794.58,337.5Z" transform="translate(-663.87 -281.03)"/><path class="cls-30" d="M793.18,342.36a3.58,3.58,0,1,0,3.58-3.58A3.57,3.57,0,0,0,793.18,342.36Z" transform="translate(-663.87 -281.03)"/><path class="cls-30" d="M791.94,348a4.82,4.82,0,1,0,4.82-4.82A4.82,4.82,0,0,0,791.94,348Z" transform="translate(-663.87 -281.03)"/><path class="cls-30" d="M791.94,355.8a4.82,4.82,0,1,0,4.82-4.81A4.82,4.82,0,0,0,791.94,355.8Z" transform="translate(-663.87 -281.03)"/><path class="cls-30" d="M789.77,364.36a4.82,4.82,0,1,0,4.81-4.81A4.81,4.81,0,0,0,789.77,364.36Z" transform="translate(-663.87 -281.03)"/><path class="cls-30" d="M784.24,369.66a4.82,4.82,0,1,0,4.81-4.82A4.81,4.81,0,0,0,784.24,369.66Z" transform="translate(-663.87 -281.03)"/><path class="cls-30" d="M775,369.18a4.82,4.82,0,1,0,4.81-4.82A4.81,4.81,0,0,0,775,369.18Z" transform="translate(-663.87 -281.03)"/><circle class="cls-30" cx="106.91" cy="89.9" r="4.82"/><path class="cls-30" d="M756.87,368.1a4.82,4.82,0,1,0,4.81-4.82A4.81,4.81,0,0,0,756.87,368.1Z" transform="translate(-663.87 -281.03)"/><path class="cls-30" d="M752.44,361.3a4.82,4.82,0,1,0,4.82-4.82A4.81,4.81,0,0,0,752.44,361.3Z" transform="translate(-663.87 -281.03)"/><circle class="cls-30" cx="90.55" cy="71.78" r="4.82"/><path class="cls-30" d="M750.26,344.57a4.82,4.82,0,1,0,4.82-4.81A4.82,4.82,0,0,0,750.26,344.57Z" transform="translate(-663.87 -281.03)"/><path class="cls-30" d="M750,338.75a4.83,4.83,0,1,0,4.82-4.51A4.67,4.67,0,0,0,750,338.75Z" transform="translate(-663.87 -281.03)"/><path class="cls-30" d="M801.16,328.12s2.6-20.08-15.51-19.29c-11.95.53-16.6,1.75-20.49-3.29s-.82-22.06,15.57-22.08,16.15,19,16.15,19,15.24,6.14,5.55,23.65Z" transform="translate(-663.87 -281.03)"/></svg>