<svg id="Слой_1" data-name="Слой 1" xmlns="http://www.w3.org/2000/svg" xmlns:xlink="http://www.w3.org/1999/xlink" viewBox="0 0 208.03 226"><defs><style>.cls-1{fill:url(#Degradado_sin_nombre_36);}.cls-2{fill:url(#Degradado_sin_nombre_11);}.cls-3,.cls-39,.cls-40,.cls-9{fill:#85dfea;}.cls-3{opacity:0.1;}.cls-25,.cls-3,.cls-39,.cls-40{isolation:isolate;}.cls-25,.cls-4{fill:#4465c8;}.cls-5{fill:#5283d2;}.cls-6{fill:#77ade9;}.cls-7{fill:#1e122d;}.cls-8{fill:#b5fcff;}.cls-10{fill:#e7fa3c;}.cls-11{fill:#e26c30;}.cls-12{fill:#df4ba1;}.cls-13{opacity:0.17;}.cls-14{fill:#eebd98;}.cls-15{fill:#e49c79;}.cls-16{fill:#d3fceb;}.cls-17{fill:#b4d8ea;}.cls-18{fill:#72cbe9;}.cls-19{fill:#6abbe9;}.cls-20{fill:#d2a17a;}.cls-21{fill:#273fa3;}.cls-22{fill:#3352b8;}.cls-23{fill:#5487de;}.cls-24{fill:#69b2fa;}.cls-25{opacity:0.65;}.cls-26{fill:#9ffcfd;}.cls-27{fill:#acfceb;}.cls-28{fill:#62a3ef;}.cls-29{fill:#6fbefc;}.cls-30{fill:#b0fcff;}.cls-31{fill:#6fbbdc;}.cls-32{fill:#a4fcff;}.cls-33{fill:#5283e6;}.cls-34{fill:#2637a5;}.cls-35{fill:#4170ce;}.cls-36{fill:#212c65;}.cls-37{fill:#7dcee9;}.cls-38{fill:#252c93;}.cls-39{opacity:0.3;}.cls-40{opacity:0.66;}.cls-41{fill:none;stroke:#91f8eb;stroke-linecap:round;stroke-linejoin:round;}.cls-42{fill:#91f8eb;}</style><linearGradient id="Degradado_sin_nombre_36" x1="579.69" y1="382.61" x2="775.54" y2="382.61" gradientUnits="userSpaceOnUse"><stop offset="0" stop-color="#2acaff"/><stop offset="1" stop-color="#2adfc3"/></linearGradient><linearGradient id="Degradado_sin_nombre_11" x1="599.9" y1="394.89" x2="787.72" y2="394.89" gradientUnits="userSpaceOnUse"><stop offset="0" stop-color="#76aadb"/><stop offset="1" stop-color="#4a72b2"/></linearGradient></defs><title>service-support-new</title><path class="cls-1" d="M594.57,421.47s-40.92-40,12.95-75.92,112.1-52.15,146-47.9,25.38,86-3.89,135.65S650,480.22,594.57,421.47Z" transform="translate(-579.69 -276)"/><path class="cls-2" d="M766.8,336.34s47.07,32.57,0,77-101.73,70.26-135.89,71.78-39.48-80.47-19-134.38S702.27,287.75,766.8,336.34Z" transform="translate(-579.69 -276)"/><ellipse class="cls-3" cx="106.04" cy="210.76" rx="50.84" ry="15.24"/><ellipse class="cls-3" cx="106.04" cy="206.76" rx="37.19" ry="11.15"/><ellipse class="cls-3" cx="106.04" cy="205.96" rx="27.85" ry="8.35"/><rect class="cls-4" x="28.56" y="133.61" width="150.07" height="3.32"/><rect class="cls-4" x="53.64" y="56.44" width="102.06" height="69.58" rx="2.86"/><path class="cls-5" d="M732.53,332.44H636.19a2.83,2.83,0,0,0-2.86,2.81V394.9H735.39V335.3a2.84,2.84,0,0,0-2.8-2.86Z" transform="translate(-579.69 -276)"/><path class="cls-6" d="M732.53,332.44H636.19a2.83,2.83,0,0,0-2.86,2.81v.26a2.82,2.82,0,0,1,2.8-2.86h96.4a2.83,2.83,0,0,1,2.83,2.83v-.18a2.83,2.83,0,0,0-2.8-2.86Z" transform="translate(-579.69 -276)"/><rect class="cls-7" x="57.61" y="60.83" width="94.13" height="55.71"/><path class="cls-8" d="M650.29,343.93h53.24a.67.67,0,0,1,.66.66h0a.67.67,0,0,1-.66.66H650.29a.66.66,0,0,1-.66-.66h0A.66.66,0,0,1,650.29,343.93Z" transform="translate(-579.69 -276)"/><rect class="cls-9" x="60.7" y="63.53" width="35.6" height="1.69" rx="0.84"/><path class="cls-9" d="M641.05,343.93h3.42a.66.66,0,0,1,.65.66h0a.66.66,0,0,1-.65.66h-3.42a.66.66,0,0,1-.66-.66h0A.66.66,0,0,1,641.05,343.93Z" transform="translate(-579.69 -276)"/><rect class="cls-10" x="61.26" y="72.04" width="28.23" height="0.82" rx="0.41"/><rect class="cls-10" x="61.26" y="75.37" width="28.23" height="0.82" rx="0.41"/><rect class="cls-10" x="61.26" y="78.7" width="28.23" height="0.82" rx="0.41"/><rect class="cls-10" x="61.26" y="82.04" width="28.23" height="0.82" rx="0.41"/><rect class="cls-10" x="61.26" y="85.37" width="5" height="0.82" rx="0.41"/><rect class="cls-10" x="68.55" y="85.37" width="5" height="0.82" rx="0.41"/><rect class="cls-10" x="75.85" y="85.37" width="5" height="0.82" rx="0.41"/><rect class="cls-10" x="83.15" y="85.37" width="5" height="0.82" rx="0.41"/><rect class="cls-10" x="90.46" y="85.37" width="5" height="0.82" rx="0.41"/><rect class="cls-10" x="97.76" y="85.37" width="5" height="0.82" rx="0.41"/><rect class="cls-10" x="61.26" y="88.7" width="28.23" height="0.82" rx="0.41"/><path class="cls-11" d="M691.52,353.3h33.62a.57.57,0,0,1,.57.57h0a.58.58,0,0,1-.57.57H691.52a.57.57,0,0,1-.57-.57h0A.56.56,0,0,1,691.52,353.3Z" transform="translate(-579.69 -276)"/><path class="cls-12" d="M691.52,358.29h33.62a.57.57,0,0,1,.57.57h0a.58.58,0,0,1-.57.57H691.52a.57.57,0,0,1-.57-.57h0A.56.56,0,0,1,691.52,358.29Z" transform="translate(-579.69 -276)"/><path class="cls-12" d="M691.52,363h33.62a.58.58,0,0,1,.57.57h0a.58.58,0,0,1-.57.57H691.52a.57.57,0,0,1-.57-.57h0A.57.57,0,0,1,691.52,363Z" transform="translate(-579.69 -276)"/><path class="cls-12" d="M691.52,367.63h33.62a.57.57,0,0,1,.57.57h0a.57.57,0,0,1-.57.56H691.52a.56.56,0,0,1-.57-.56h0A.56.56,0,0,1,691.52,367.63Z" transform="translate(-579.69 -276)"/><path class="cls-12" d="M691.52,372.3h33.62a.57.57,0,0,1,.57.57h0a.58.58,0,0,1-.57.57H691.52a.57.57,0,0,1-.57-.57h0A.56.56,0,0,1,691.52,372.3Z" transform="translate(-579.69 -276)"/><path class="cls-12" d="M691.52,377h17.27a.56.56,0,0,1,.57.57h0a.57.57,0,0,1-.57.57H691.52a.57.57,0,0,1-.57-.57h0A.56.56,0,0,1,691.52,377Z" transform="translate(-579.69 -276)"/><path class="cls-12" d="M702.81,380.15h17.27a.56.56,0,0,1,.57.57h0a.57.57,0,0,1-.57.57H702.81a.57.57,0,0,1-.57-.57h0A.56.56,0,0,1,702.81,380.15Z" transform="translate(-579.69 -276)"/><path class="cls-12" d="M702.81,383.44h17.27a.57.57,0,0,1,.57.57h0a.56.56,0,0,1-.57.57H702.81a.56.56,0,0,1-.57-.57h0A.57.57,0,0,1,702.81,383.44Z" transform="translate(-579.69 -276)"/><path class="cls-12" d="M645.6,383.44h8.06a.58.58,0,0,1,.57.57h0a.57.57,0,0,1-.57.57H645.6A.57.57,0,0,1,645,384h0A.58.58,0,0,1,645.6,383.44Z" transform="translate(-579.69 -276)"/><path class="cls-12" d="M645.6,380.72h8.06a.57.57,0,0,1,.57.57h0a.58.58,0,0,1-.57.57H645.6a.58.58,0,0,1-.57-.57h0A.57.57,0,0,1,645.6,380.72Z" transform="translate(-579.69 -276)"/><path class="cls-12" d="M645.6,378h8.06a.57.57,0,0,1,.57.56h0a.57.57,0,0,1-.57.57H645.6a.57.57,0,0,1-.57-.57h0A.57.57,0,0,1,645.6,378Z" transform="translate(-579.69 -276)"/><path class="cls-12" d="M645.6,375.28h8.06a.57.57,0,0,1,.57.57h0a.58.58,0,0,1-.57.57H645.6a.58.58,0,0,1-.57-.57h0A.57.57,0,0,1,645.6,375.28Z" transform="translate(-579.69 -276)"/><path class="cls-12" d="M658.82,375.28h2.44a.56.56,0,0,1,.57.57h0a.57.57,0,0,1-.57.57h-2.44a.58.58,0,0,1-.57-.57h0A.57.57,0,0,1,658.82,375.28Z" transform="translate(-579.69 -276)"/><path class="cls-12" d="M658.82,381.3h2.44a.56.56,0,0,1,.57.57h0a.56.56,0,0,1-.57.56h-2.44a.57.57,0,0,1-.57-.56h0A.57.57,0,0,1,658.82,381.3Z" transform="translate(-579.69 -276)"/><g class="cls-13"><polygon class="cls-6" points="151.74 96.16 151.74 86.16 121.36 116.54 131.36 116.54 151.74 96.16"/><polygon class="cls-6" points="99.44 116.54 151.74 64.24 151.74 60.83 128.48 60.83 72.76 116.54 99.44 116.54"/><polygon class="cls-6" points="57.61 85.06 57.61 107.57 104.35 60.83 81.84 60.83 57.61 85.06"/></g><rect class="cls-14" x="99.76" y="98.55" width="10.46" height="7.87"/><path class="cls-15" d="M679.45,380.72a15,15,0,0,0,10.45,0V383l-2.87.53-2.35.48-5.23-1.7Z" transform="translate(-579.69 -276)"/><rect class="cls-16" x="87.57" y="146.24" width="34.77" height="14.63" rx="4.9"/><path class="cls-17" d="M701.88,431.2c-18,5.29-34.47,0-34.48,0a7.14,7.14,0,0,0,7,5.71h20.52A7.16,7.16,0,0,0,701.88,431.2Z" transform="translate(-579.69 -276)"/><path class="cls-9" d="M686.4,351.23l7.3-7.3a8.1,8.1,0,0,1-.26,7.3l3-3s1.36,4.07-1.39,6.29l2.49-2.49s1.56,4.62-4.21,8.16Z" transform="translate(-579.69 -276)"/><path class="cls-18" d="M692.35,358.93l2.29.3h0c0-.18.61-6.54-6.7-9.57l-1.59,1.59Z" transform="translate(-579.69 -276)"/><circle class="cls-14" cx="113.75" cy="90.78" r="3.24"/><circle class="cls-14" cx="96.3" cy="90.78" r="3.24"/><path class="cls-9" d="M684.68,351.1h0a10.08,10.08,0,0,1,10.08,10.08v7.95a10.08,10.08,0,0,1-10.08,10.08h0a10.08,10.08,0,0,1-10.09-10.08v-7.95A10.08,10.08,0,0,1,684.68,351.1Z" transform="translate(-579.69 -276)"/><polygon class="cls-19" points="96.96 91.56 96.96 94.02 98.2 92.78 99.22 93.81 100.2 92.83 101.11 93.73 101.11 90.91 100.79 92.63 100.21 92.01 99.23 93.14 98.18 91.99 97.42 92.81 96.96 91.56"/><polygon class="cls-19" points="101.7 87.08 101.7 90.24 103.3 88.65 104.61 89.96 105.86 88.71 107.02 89.87 107.02 86.25 106.61 88.46 105.87 87.66 104.62 89.1 103.27 87.63 102.3 88.69 101.7 87.08"/><polygon class="cls-19" points="109.6 94.54 109.6 96.51 110.59 95.52 111.41 96.34 112.19 95.56 112.91 96.28 112.91 94.02 112.66 95.4 112.2 94.9 111.41 95.8 110.57 94.88 109.97 95.55 109.6 94.54"/><polygon class="cls-9" points="102.86 102 102.86 104.63 103.6 103.89 104.4 104.7 105.16 103.94 105.94 104.72 105.94 102 102.86 102"/><polygon class="cls-9" points="105.56 101.8 105.94 104.03 106.55 103.42 107.22 104.08 107.84 103.46 108.49 104.1 108.49 101.85 105.56 101.8"/><polygon class="cls-9" points="100.31 101.85 100.31 104.03 100.92 103.42 101.59 104.08 102.22 103.46 102.86 104.1 103.1 101.8 100.31 101.85"/><polygon class="cls-9" points="98.49 78.04 96.23 75.78 96.23 78.04 94.11 78.04 95.7 79.63 94.11 79.63 95.83 81.35 98.49 81.35 98.49 78.04"/><polyline class="cls-14" points="81.49 126.58 80.36 133.61 87 133.61 87 125.7 82.3 124.72"/><polygon class="cls-20" points="85.8 128.01 81.26 128.01 81.49 126.58 85.8 128.01"/><path class="cls-21" d="M672.94,384.51c-4.76,2.33-9,3-14.33,17.21l8.09,2.69S672,391.16,672.94,384.51Z" transform="translate(-579.69 -276)"/><polyline class="cls-14" points="127.94 126.58 129.06 133.61 122.42 133.61 122.42 125.7 127.13 124.72"/><polygon class="cls-20" points="123.63 128.01 128.16 128.01 127.94 126.58 123.63 128.01"/><path class="cls-21" d="M695.86,384.51c4.75,2.33,9,3,14.33,17.21l-8.09,2.69S696.78,391.16,695.86,384.51Z" transform="translate(-579.69 -276)"/><path class="cls-4" d="M687,431.16h-5.22c-8.9,0-14.42-4.21-14.42-14L665.61,398a16.22,16.22,0,0,1,16.17-16.18H687A16.22,16.22,0,0,1,703.17,398l-2.76,18C700.41,427.3,695.9,431.16,687,431.16Z" transform="translate(-579.69 -276)"/><path class="cls-22" d="M697.61,385.88c-10.36,1.62-24.16.23-26.43,0a16.28,16.28,0,0,0-4.94,7.73l1.61.17,6.55.92,8.39,1.32,7.73.49,8.9-1,2.84-2.73A16.33,16.33,0,0,0,697.61,385.88Z" transform="translate(-579.69 -276)"/><path class="cls-4" d="M672.24,480.1c0,1.44,2,1.22,4.53,1.22s4.53.22,4.53-1.22-2-2.6-4.53-2.6S672.24,478.66,672.24,480.1Z" transform="translate(-579.69 -276)"/><path class="cls-16" d="M669.38,436.87l7.31,42.55a7.77,7.77,0,0,0,4.58,0V447.11Z" transform="translate(-579.69 -276)"/><path class="cls-17" d="M681.3,447.82l-.38-.71-.43-.06-9.63-1,1.42,7.49c1.18.06,6.53-2.41,9,3.78l.08-.43Z" transform="translate(-579.69 -276)"/><path class="cls-4" d="M697,480.1c0,1.44-2,1.22-4.53,1.22s-4.53.22-4.53-1.22,2-2.6,4.53-2.6S697,478.66,697,480.1Z" transform="translate(-579.69 -276)"/><path class="cls-16" d="M699.92,436.87l-7.29,42.55a7.81,7.81,0,0,1-4.59,0V447.11Z" transform="translate(-579.69 -276)"/><path class="cls-17" d="M688,447.82l.39-.71.43-.06,9.63-1-1.42,7.49c-1.18.06-6.53-2.41-8.95,3.78l-.09-.43Z" transform="translate(-579.69 -276)"/><rect class="cls-23" x="103.79" y="169.29" width="2.32" height="29.07" rx="0.8"/><path class="cls-24" d="M684.64,444.5h.75a3,3,0,0,1,3.05,3.05h0v7.25a3.8,3.8,0,0,1-3.8,3.8h0a3.8,3.8,0,0,1-3.8-3.8v-6.5a3.8,3.8,0,0,1,3.8-3.8Z" transform="translate(-579.69 -276)"/><path class="cls-25" d="M688.44,448.4a9.35,9.35,0,0,0-7.58,0v-2.7a9.35,9.35,0,0,1,7.58,0Z" transform="translate(-579.69 -276)"/><path class="cls-4" d="M667.24,437.4h-4.82a11.67,11.67,0,0,1-.64-23.33h.64a1.3,1.3,0,1,1,0,2.6,9.06,9.06,0,1,0,0,18.12h4.82a1.31,1.31,0,0,1,0,2.61Z" transform="translate(-579.69 -276)"/><rect class="cls-9" x="77.58" y="136.75" width="8.55" height="4.35" rx="2.17"/><path class="cls-26" d="M659.44,413h4.21a2.18,2.18,0,0,1,2.16,2.06v-.13a2.19,2.19,0,0,0-2.18-2.18h-4.19a2.18,2.18,0,0,0-2.17,2.18v.13A2.19,2.19,0,0,1,659.44,413Z" transform="translate(-579.69 -276)"/><path class="cls-4" d="M701.48,437.4h4.82a11.67,11.67,0,0,0,.63-23.33h-.63a1.3,1.3,0,1,0,0,2.6,9.06,9.06,0,1,1,0,18.12h-4.82a1.31,1.31,0,0,0,0,2.61Z" transform="translate(-579.69 -276)"/><rect class="cls-9" x="123.21" y="136.75" width="8.55" height="4.35" rx="2.17"/><path class="cls-26" d="M709.27,413h-4.18a2.19,2.19,0,0,0-2.17,2.06v-.13a2.2,2.2,0,0,1,2.18-2.18h4.2a2.18,2.18,0,0,1,2.17,2.18.28.28,0,0,1,0,.13A2.17,2.17,0,0,0,709.27,413Z" transform="translate(-579.69 -276)"/><rect class="cls-9" x="80.88" y="157.73" width="48.15" height="10.46" rx="5.23"/><path class="cls-27" d="M665.8,434.22h37.68a5.25,5.25,0,0,1,5.22,5V439a5.24,5.24,0,0,0-5.24-5.23H665.8a5.24,5.24,0,0,0-5.23,5.23v.25A5.23,5.23,0,0,1,665.8,434.22Z" transform="translate(-579.69 -276)"/><path class="cls-9" d="M691,429.05h-13.6a9.91,9.91,0,0,1-9.87-9.87l-2.46-21.36A9.91,9.91,0,0,1,675,388h19.36a9.91,9.91,0,0,1,9.87,9.87l-3.29,21.36A9.91,9.91,0,0,1,691,429.05Z" transform="translate(-579.69 -276)"/><path class="cls-26" d="M675,388.36h19.36a9.89,9.89,0,0,1,9.85,9.58v-.12a9.91,9.91,0,0,0-9.85-9.88H675a9.9,9.9,0,0,0-9.87,9.88V398A9.88,9.88,0,0,1,675,388.36Z" transform="translate(-579.69 -276)"/><path class="cls-4" d="M668,441.54h33.24a2.31,2.31,0,0,1,2.32,2.31h0a2.32,2.32,0,0,1-2.32,2.32H668a2.32,2.32,0,0,1-2.32-2.32h0A2.31,2.31,0,0,1,668,441.54Z" transform="translate(-579.69 -276)"/><rect class="cls-4" x="94.88" y="170.09" width="20.16" height="4.63" rx="1.59"/><path class="cls-28" d="M668,441.69h33.24a2.31,2.31,0,0,1,2.31,2.26v-.07a2.32,2.32,0,0,0-2.32-2.32H668a2.32,2.32,0,0,0-2.32,2.32V444A2.31,2.31,0,0,1,668,441.69Z" transform="translate(-579.69 -276)"/><path class="cls-23" d="M670,445.11h29.22a1.15,1.15,0,0,1,1.16,1.15h0a1.16,1.16,0,0,1-1.16,1.16H670a1.16,1.16,0,0,1-1.16-1.16h0A1.15,1.15,0,0,1,670,445.11Z" transform="translate(-579.69 -276)"/><path class="cls-29" d="M670,445.18h29.22a1.16,1.16,0,0,1,1.13,1.13v0a1.15,1.15,0,0,0-1.13-1.13H670a1.15,1.15,0,0,0-1.16,1.13v0a1.14,1.14,0,0,1,1.13-1.13Z" transform="translate(-579.69 -276)"/><path class="cls-24" d="M682.53,476.16v-3.6a2.12,2.12,0,0,1,2.11-2.11h0a2.11,2.11,0,0,1,2.1,2.11v3.6" transform="translate(-579.69 -276)"/><path class="cls-23" d="M668.88,480.07a.81.81,0,0,1-.75-.49.82.82,0,0,1,.41-1.09h0a40.26,40.26,0,0,1,33.05,0,.83.83,0,0,1,.41,1.09.82.82,0,0,1-1.09.41,38.54,38.54,0,0,0-31.71,0A.89.89,0,0,1,668.88,480.07Z" transform="translate(-579.69 -276)"/><rect class="cls-4" x="101.48" y="198.37" width="7.27" height="2.72" rx="0.94"/><path class="cls-23" d="M684.8,475.72h0a.58.58,0,0,1,.58.58v6.15a.57.57,0,0,1-.58.57h0a.57.57,0,0,1-.58-.57V476.3A.58.58,0,0,1,684.8,475.72Z" transform="translate(-579.69 -276)"/><path class="cls-9" d="M684.8,480.65h0a1.56,1.56,0,0,1,1.57,1.56v3a1.57,1.57,0,0,1-1.57,1.57h0a1.57,1.57,0,0,1-1.57-1.57v-3A1.57,1.57,0,0,1,684.8,480.65Z" transform="translate(-579.69 -276)"/><circle class="cls-9" cx="122.98" cy="204.99" r="2.96"/><path class="cls-30" d="M702.67,478.1a3,3,0,0,1,3,2.93v0a3,3,0,0,0-5.92,0,0,0,0,0,0,0,0A3,3,0,0,1,702.67,478.1Z" transform="translate(-579.69 -276)"/><circle class="cls-31" cx="122.98" cy="204.99" r="1.77"/><circle class="cls-23" cx="122.98" cy="204.99" r="0.71"/><path class="cls-32" d="M702.67,480.32a.72.72,0,0,1,.71.69h0a.71.71,0,0,0-1.42,0h0A.71.71,0,0,1,702.67,480.32Z" transform="translate(-579.69 -276)"/><circle class="cls-9" cx="88.37" cy="204.99" r="2.96"/><path class="cls-30" d="M668.06,478.1a3,3,0,0,1,3,2.93v0a3,3,0,0,0-5.93,0v0A3,3,0,0,1,668.06,478.1Z" transform="translate(-579.69 -276)"/><circle class="cls-31" cx="88.37" cy="204.99" r="1.77"/><circle class="cls-23" cx="88.37" cy="204.99" r="0.71"/><path class="cls-32" d="M668.06,480.32a.71.71,0,0,1,.7.69h0a.71.71,0,0,0-1.42,0h0A.71.71,0,0,1,668.06,480.32Z" transform="translate(-579.69 -276)"/><path class="cls-4" d="M679.4,401.52h10.49a4.83,4.83,0,0,1,4.83,4.83h0a4.83,4.83,0,0,1-4.83,4.83H679.4a4.84,4.84,0,0,1-4.84-4.83h0A4.84,4.84,0,0,1,679.4,401.52Z" transform="translate(-579.69 -276)"/><path class="cls-33" d="M689.89,401.52h-10.5a4.84,4.84,0,0,0-4.83,4.83h0v.08a4.83,4.83,0,0,1,4.83-4.75h10.49a4.85,4.85,0,0,1,4.83,4.75v-.08h0A4.84,4.84,0,0,0,689.89,401.52Z" transform="translate(-579.69 -276)"/><rect class="cls-34" x="102.66" y="129.17" width="4.59" height="38.68" rx="1.58"/><rect class="cls-35" x="103.15" y="131.58" width="3.61" height="1" rx="0.32"/><rect class="cls-36" x="103.15" y="131.58" width="3.61" height="0.95" rx="0.32"/><rect class="cls-35" x="103.15" y="134.32" width="3.61" height="1" rx="0.32"/><rect class="cls-36" x="103.15" y="134.32" width="3.61" height="0.95" rx="0.32"/><rect class="cls-35" x="103.15" y="136.93" width="3.61" height="1" rx="0.32"/><rect class="cls-36" x="103.15" y="136.93" width="3.61" height="0.95" rx="0.32"/><rect class="cls-35" x="103.15" y="139.53" width="3.61" height="1" rx="0.32"/><rect class="cls-36" x="103.15" y="139.53" width="3.61" height="0.95" rx="0.32"/><rect class="cls-35" x="103.15" y="142.14" width="3.61" height="1" rx="0.32"/><rect class="cls-36" x="103.15" y="142.14" width="3.61" height="0.95" rx="0.32"/><rect class="cls-35" x="103.15" y="144.74" width="3.61" height="1" rx="0.32"/><rect class="cls-36" x="103.15" y="144.74" width="3.61" height="0.95" rx="0.32"/><rect class="cls-35" x="103.15" y="147.35" width="3.61" height="1" rx="0.32"/><rect class="cls-36" x="103.15" y="147.35" width="3.61" height="0.95" rx="0.32"/><rect class="cls-35" x="103.15" y="149.95" width="3.61" height="1" rx="0.32"/><rect class="cls-36" x="103.15" y="149.95" width="3.61" height="0.95" rx="0.32"/><rect class="cls-35" x="103.15" y="152.56" width="3.61" height="1" rx="0.32"/><rect class="cls-36" x="103.15" y="152.56" width="3.61" height="0.95" rx="0.32"/><rect class="cls-35" x="103.15" y="155.16" width="3.61" height="1" rx="0.32"/><rect class="cls-36" x="103.15" y="155.16" width="3.61" height="0.95" rx="0.32"/><rect class="cls-35" x="103.15" y="157.77" width="3.61" height="1" rx="0.32"/><rect class="cls-36" x="103.15" y="157.77" width="3.61" height="0.95" rx="0.32"/><rect class="cls-35" x="103.15" y="160.37" width="3.61" height="1" rx="0.32"/><rect class="cls-36" x="103.15" y="160.37" width="3.61" height="0.95" rx="0.32"/><rect class="cls-35" x="103.15" y="162.98" width="3.61" height="1" rx="0.32"/><rect class="cls-36" x="103.15" y="162.98" width="3.61" height="0.95" rx="0.32"/><path class="cls-37" d="M732.35,405.53a2.83,2.83,0,1,1,2.83-2.83A2.82,2.82,0,0,1,732.35,405.53Zm0-4.81a2,2,0,1,0,2,2,2,2,0,0,0-2-2Z" transform="translate(-579.69 -276)"/><path class="cls-9" d="M732.27,398.73v5.66a4.6,4.6,0,0,1-4.58,4.59h0a4.59,4.59,0,0,1-4.58-4.59v-5.66Z" transform="translate(-579.69 -276)"/><rect class="cls-37" x="143.37" y="132.36" width="9.29" height="1.25" rx="0.51"/><path class="cls-38" d="M654.92,309.81H594.25l0-.27a6.22,6.22,0,0,1-.14-1.36,6.78,6.78,0,0,1,10.79-5.53,17.35,17.35,0,0,1,33.25-2.71,10.12,10.12,0,0,1,6.88-2.67,10.23,10.23,0,0,1,10.19,10.19,10,10,0,0,1-.21,2.05Zm-60.11-.68h59.55a9.87,9.87,0,0,0,.14-1.63,9.52,9.52,0,0,0-16.3-6.7l-.39.4-.18-.53a16.66,16.66,0,0,0-32.21,2.67l-.1.59-.46-.39a6.13,6.13,0,0,0-10.13,4.65,7.3,7.3,0,0,0,.08.94Z" transform="translate(-579.69 -276)"/><path class="cls-38" d="M625.24,306.6h-5.5a1.32,1.32,0,0,1-1.31-1.32h0v-3.36H617a1.21,1.21,0,0,1-1.2-1.21,1.23,1.23,0,0,1,.35-.85l5.51-5.51a1.24,1.24,0,0,1,1.7,0l5.51,5.51a1.21,1.21,0,0,1,0,1.71,1.23,1.23,0,0,1-.85.35h-1.45v3.36A1.32,1.32,0,0,1,625.24,306.6Zm-2.75-11.89a.46.46,0,0,0-.36.15l-5.52,5.51a.52.52,0,0,0,.37.89h2.13v4.05a.63.63,0,0,0,.63.63h5.5a.63.63,0,0,0,.63-.62h0v-4.05H628a.5.5,0,0,0,.49-.32.51.51,0,0,0-.12-.57l-5.51-5.53a.51.51,0,0,0-.37-.16Z" transform="translate(-579.69 -276)"/><path class="cls-38" d="M720.38,284.65H695.46v-.11a3.66,3.66,0,0,1-.05-.57,2.79,2.79,0,0,1,4.42-2.27,7.12,7.12,0,0,1,13.63-1.1,4.19,4.19,0,0,1,6.92,3.94Zm-24.64-.28h24.4a3.81,3.81,0,0,0,.07-.67,3.92,3.92,0,0,0-3.91-3.91,3.87,3.87,0,0,0-2.78,1.17l-.15.16-.08-.22a6.83,6.83,0,0,0-13.2,1.08l0,.25-.19-.16a2.51,2.51,0,0,0-4.15,1.9,2.67,2.67,0,0,0,0,.4Z" transform="translate(-579.69 -276)"/><path class="cls-38" d="M708.19,283.33h-2.27a.56.56,0,0,1-.56-.54v-1.38h-.57a.5.5,0,0,1-.46-.31.48.48,0,0,1,.11-.53l2.27-2.26a.49.49,0,0,1,.69,0l2.27,2.26a.49.49,0,0,1,0,.7.48.48,0,0,1-.34.14h-.59v1.38A.57.57,0,0,1,708.19,283.33Zm-1.13-4.89a.25.25,0,0,0-.16.06l-2.26,2.27a.23.23,0,0,0,0,.24.23.23,0,0,0,.2.13h.86v1.66a.26.26,0,0,0,.26.25h2.27a.25.25,0,0,0,.25-.25h0v-1.66h.88a.21.21,0,0,0,.2-.13.23.23,0,0,0,0-.24l-2.26-2.27a.22.22,0,0,0-.14-.08Z" transform="translate(-579.69 -276)"/><path class="cls-38" d="M772.2,434H728.94l0-.2a5.23,5.23,0,0,1-.1-1,4.86,4.86,0,0,1,4.82-4.89,4.79,4.79,0,0,1,2.88.93,12.37,12.37,0,0,1,23.71-1.92,7.21,7.21,0,0,1,4.9-1.91,7.3,7.3,0,0,1,7.28,7.29,7.14,7.14,0,0,1-.15,1.45Zm-42.86-.48h42.47a6.6,6.6,0,0,0,.1-1.17,6.8,6.8,0,0,0-11.62-4.78l-.28.28-.12-.37a11.9,11.9,0,0,0-23,1.89l-.07.42-.32-.28a4.38,4.38,0,0,0-7.23,3.32,5.32,5.32,0,0,0,0,.69Z" transform="translate(-579.69 -276)"/><path class="cls-38" d="M751,431.68h-3.92a.94.94,0,0,1-.94-.94v-2.4h-1a.86.86,0,0,1-.86-.86.84.84,0,0,1,.25-.6l3.93-3.93a.88.88,0,0,1,1.22,0l3.93,3.93a.85.85,0,0,1,0,1.21.84.84,0,0,1-.6.25h-1v2.41A.93.93,0,0,1,751,431.68Zm-2-8.5a.39.39,0,0,0-.26.11l-3.94,3.94a.35.35,0,0,0-.08.4.37.37,0,0,0,.35.23h1.52v2.89a.45.45,0,0,0,.45.45H751a.45.45,0,0,0,.45-.45v-2.88H753a.36.36,0,0,0,.34-.23.37.37,0,0,0-.08-.41l-3.93-3.93a.34.34,0,0,0-.26-.12Z" transform="translate(-579.69 -276)"/><rect class="cls-39" x="0.31" y="27.96" width="84.51" height="0.41"/><path class="cls-39" d="M580,304h84.51v47.31a4.26,4.26,0,0,1-4.26,4.26h-76a4.26,4.26,0,0,1-4.26-4.26h0V304Z" transform="translate(-579.69 -276)"/><rect class="cls-39" x="7.87" y="38.8" width="45" height="16.16"/><rect class="cls-39" x="7.87" y="57.97" width="15.82" height="5.01"/><rect class="cls-39" x="26.07" y="57.97" width="26.8" height="5.01"/><rect class="cls-39" x="55.85" y="38.8" width="24.5" height="6.99"/><rect class="cls-39" x="7.87" y="65.99" width="72.48" height="6.99"/><rect class="cls-39" x="55.85" y="47.62" width="24.5" height="15.91"/><rect class="cls-39" x="0.31" y="27.96" width="84.51" height="8.43"/><circle class="cls-39" cx="3.71" cy="31.97" r="1.75"/><path class="cls-9" d="M583.39,309.71a1.74,1.74,0,0,1-1.75-1.73h0a1.75,1.75,0,1,0,3.49.2V308h0A1.74,1.74,0,0,1,583.39,309.71Z" transform="translate(-579.69 -276)"/><circle class="cls-39" cx="7.87" cy="31.97" r="1.75"/><path class="cls-9" d="M587.55,309.71A1.75,1.75,0,0,1,585.8,308h0a1.75,1.75,0,0,0,3.5,0h0A1.73,1.73,0,0,1,587.55,309.71Z" transform="translate(-579.69 -276)"/><circle class="cls-39" cx="11.99" cy="31.97" r="1.75"/><path class="cls-9" d="M591.68,309.71a1.75,1.75,0,0,1-1.75-1.73h0a1.75,1.75,0,0,0,3.5.2V308h0A1.75,1.75,0,0,1,591.68,309.71Z" transform="translate(-579.69 -276)"/><rect class="cls-40" x="0.31" y="36.23" width="84.51" height="0.16"/><circle class="cls-9" cx="3.71" cy="31.97" r="1.39"/><circle class="cls-10" cx="7.87" cy="31.97" r="1.39"/><circle class="cls-12" cx="11.99" cy="31.97" r="1.39"/><path class="cls-39" d="M583.4,313.6h0a1.39,1.39,0,0,1,1.39,1.38V350.8a1.39,1.39,0,0,1-1.39,1.39h0A1.39,1.39,0,0,1,582,350.8V315A1.38,1.38,0,0,1,583.4,313.6Z" transform="translate(-579.69 -276)"/><path class="cls-9" d="M583.3,314.8h0a.55.55,0,0,1,.55.55v9a.55.55,0,0,1-.55.55h0a.56.56,0,0,1-.56-.55v-9A.56.56,0,0,1,583.3,314.8Z" transform="translate(-579.69 -276)"/><line class="cls-41" x1="9.62" y1="41.11" x2="28.56" y2="41.11"/><line class="cls-41" x1="30.36" y1="41.11" x2="33.45" y2="41.11"/><line class="cls-41" x1="36.85" y1="41.11" x2="50.3" y2="41.11"/><line class="cls-41" x1="9.62" y1="43.05" x2="32.53" y2="43.05"/><line class="cls-41" x1="34.79" y1="42.7" x2="44.11" y2="42.7"/><line class="cls-41" x1="45.84" y1="42.7" x2="50.58" y2="42.7"/><line class="cls-41" x1="10.61" y1="45.46" x2="37.7" y2="45.46"/><line class="cls-41" x1="40.88" y1="45.46" x2="48.21" y2="45.46"/><line class="cls-41" x1="50.58" y1="47.62" x2="29.63" y2="47.62"/><line class="cls-41" x1="38.62" y1="50.55" x2="9.62" y2="50.55"/><line class="cls-41" x1="29.63" y1="52.39" x2="51.07" y2="52.39"/><line class="cls-41" x1="31.91" y1="53.32" x2="14.26" y2="53.32"/><line class="cls-41" x1="9.62" y1="47.62" x2="17.31" y2="47.62"/><line class="cls-41" x1="21.98" y1="59.12" x2="16.67" y2="59.12"/><line class="cls-41" x1="21.49" y1="61.45" x2="9.24" y2="61.45"/><line class="cls-41" x1="27.43" y1="59.12" x2="29.63" y2="59.12"/><line class="cls-41" x1="31.43" y1="59.12" x2="33.63" y2="59.12"/><line class="cls-41" x1="35.43" y1="59.12" x2="37.62" y2="59.12"/><line class="cls-41" x1="39.43" y1="59.12" x2="41.62" y2="59.12"/><line class="cls-41" x1="43.43" y1="59.12" x2="45.63" y2="59.12"/><line class="cls-41" x1="47.43" y1="59.12" x2="49.62" y2="59.12"/><line class="cls-41" x1="27.43" y1="60.83" x2="28.85" y2="60.83"/><line class="cls-41" x1="30.72" y1="60.83" x2="32.14" y2="60.83"/><line class="cls-41" x1="34.02" y1="60.83" x2="35.43" y2="60.83"/><line class="cls-41" x1="37.31" y1="60.83" x2="38.72" y2="60.83"/><line class="cls-41" x1="40.6" y1="60.83" x2="42.01" y2="60.83"/><line class="cls-41" x1="43.89" y1="60.83" x2="45.3" y2="60.83"/><line class="cls-41" x1="47.18" y1="60.83" x2="48.6" y2="60.83"/><polyline class="cls-41" points="10.97 67.78 9.41 69.33 10.91 70.83"/><polyline class="cls-41" points="12.53 67.78 10.97 69.33 12.47 70.83"/><polyline class="cls-41" points="59.95 40.77 58.39 42.33 59.88 43.83"/><line class="cls-41" x1="57.61" y1="49.44" x2="69.94" y2="49.44"/><line class="cls-41" x1="57.61" y1="50.94" x2="62.46" y2="50.94"/><line class="cls-41" x1="57.61" y1="53.32" x2="62.46" y2="53.32"/><line class="cls-41" x1="57.61" y1="55.68" x2="62.46" y2="55.68"/><line class="cls-41" x1="57.61" y1="58.06" x2="62.46" y2="58.06"/><line class="cls-41" x1="76.84" y1="52.39" x2="73.55" y2="52.39"/><line class="cls-41" x1="76.84" y1="53.74" x2="73.55" y2="53.74"/><line class="cls-41" x1="76.84" y1="55.09" x2="73.55" y2="55.09"/><line class="cls-41" x1="76.84" y1="56.44" x2="73.55" y2="56.44"/><line class="cls-41" x1="76.84" y1="57.79" x2="73.55" y2="57.79"/><line class="cls-41" x1="76.84" y1="59.14" x2="73.55" y2="59.14"/><line class="cls-41" x1="76.84" y1="60.49" x2="73.55" y2="60.49"/><line class="cls-41" x1="76.84" y1="61.83" x2="73.55" y2="61.83"/><line class="cls-41" x1="16.39" y1="67.77" x2="49.62" y2="67.77"/><line class="cls-41" x1="16.39" y1="69.3" x2="36.53" y2="69.3"/><line class="cls-41" x1="16.39" y1="71.46" x2="36.53" y2="71.46"/><path class="cls-39" d="M610.78,360.94h40v33.3a4.26,4.26,0,0,1-4.26,4.26H615a4.26,4.26,0,0,1-4.26-4.26h0v-33.3Z" transform="translate(-579.69 -276)"/><rect class="cls-39" x="36.59" y="92.86" width="32.75" height="11.76"/><rect class="cls-39" x="36.59" y="106.81" width="11.52" height="3.65"/><rect class="cls-39" x="49.84" y="106.81" width="19.51" height="3.65"/><rect class="cls-39" x="31.09" y="84.97" width="39.96" height="6.14"/><circle class="cls-39" cx="33.56" cy="87.88" r="1.27"/><path class="cls-9" d="M613.25,365.16a1.28,1.28,0,0,1-1.27-1.27h0a1.28,1.28,0,1,0,2.55,0h0A1.29,1.29,0,0,1,613.25,365.16Z" transform="translate(-579.69 -276)"/><circle class="cls-39" cx="36.59" cy="87.88" r="1.27"/><path class="cls-9" d="M616.28,365.16a1.27,1.27,0,0,1-1.27-1.27h0a1.27,1.27,0,1,0,2.54.17v-.17h0A1.27,1.27,0,0,1,616.28,365.16Z" transform="translate(-579.69 -276)"/><circle class="cls-39" cx="39.59" cy="87.88" r="1.27"/><path class="cls-9" d="M619.28,365.16a1.29,1.29,0,0,1-1.27-1.27h0a1.28,1.28,0,1,0,2.55,0h0a1.28,1.28,0,0,1-1.28,1.27Z" transform="translate(-579.69 -276)"/><rect class="cls-40" x="31.09" y="90.99" width="39.96" height="0.12"/><circle class="cls-9" cx="33.56" cy="87.88" r="1.01"/><circle class="cls-10" cx="36.59" cy="87.88" r="1.01"/><circle class="cls-12" cx="39.59" cy="87.88" r="1.01"/><rect class="cls-39" x="32.56" y="91.98" width="2.02" height="28.09" rx="0.89"/><rect class="cls-9" x="33.09" y="92.86" width="0.8" height="7.37" rx="0.36"/><line class="cls-41" x1="37.86" y1="94.54" x2="51.66" y2="94.54"/><line class="cls-41" x1="52.97" y1="94.54" x2="55.21" y2="94.54"/><line class="cls-41" x1="57.68" y1="94.54" x2="67.47" y2="94.54"/><line class="cls-41" x1="37.86" y1="95.95" x2="54.54" y2="95.95"/><line class="cls-41" x1="56.19" y1="95.7" x2="62.97" y2="95.7"/><line class="cls-41" x1="64.23" y1="95.7" x2="67.68" y2="95.7"/><line class="cls-41" x1="38.59" y1="97.71" x2="58.3" y2="97.71"/><line class="cls-41" x1="60.62" y1="97.71" x2="65.95" y2="97.71"/><line class="cls-41" x1="67.68" y1="99.28" x2="52.43" y2="99.28"/><line class="cls-41" x1="58.97" y1="101.42" x2="37.86" y2="101.42"/><line class="cls-41" x1="52.43" y1="102.75" x2="68.04" y2="102.75"/><line class="cls-41" x1="54.09" y1="103.42" x2="41.25" y2="103.42"/><line class="cls-41" x1="37.86" y1="99.28" x2="43.46" y2="99.28"/><line class="cls-41" x1="46.87" y1="107.65" x2="43" y2="107.65"/><line class="cls-41" x1="46.5" y1="109.35" x2="37.59" y2="109.35"/><line class="cls-41" x1="50.83" y1="107.65" x2="52.43" y2="107.65"/><line class="cls-41" x1="53.74" y1="107.65" x2="55.34" y2="107.65"/><line class="cls-41" x1="56.65" y1="107.65" x2="58.25" y2="107.65"/><line class="cls-41" x1="59.56" y1="107.65" x2="61.16" y2="107.65"/><line class="cls-41" x1="62.47" y1="107.65" x2="64.07" y2="107.65"/><line class="cls-41" x1="65.38" y1="107.65" x2="66.98" y2="107.65"/><line class="cls-41" x1="50.83" y1="108.89" x2="51.86" y2="108.89"/><line class="cls-41" x1="53.23" y1="108.89" x2="54.26" y2="108.89"/><line class="cls-41" x1="55.62" y1="108.89" x2="56.65" y2="108.89"/><line class="cls-41" x1="58.02" y1="108.89" x2="59.05" y2="108.89"/><line class="cls-41" x1="60.41" y1="108.89" x2="61.44" y2="108.89"/><line class="cls-41" x1="62.81" y1="108.89" x2="63.84" y2="108.89"/><line class="cls-41" x1="65.2" y1="108.89" x2="66.23" y2="108.89"/><polyline class="cls-41" points="38.85 113.94 37.72 115.08 38.81 116.17"/><polyline class="cls-41" points="39.99 113.94 38.85 115.08 39.94 116.17"/><line class="cls-41" x1="42.79" y1="113.94" x2="66.98" y2="113.94"/><line class="cls-41" x1="42.79" y1="115.06" x2="57.45" y2="115.06"/><line class="cls-41" x1="42.79" y1="116.62" x2="57.45" y2="116.62"/><path class="cls-39" d="M723.27,381.33h31.86v11.93a4.25,4.25,0,0,1-4.25,4.25H727.52a4.25,4.25,0,0,1-4.26-4.25h0V381.33Z" transform="translate(-579.69 -276)"/><rect class="cls-39" x="146.87" y="110.08" width="18.52" height="7.03"/><rect class="cls-39" x="143.58" y="105.36" width="31.86" height="3.67"/><circle class="cls-39" cx="145.06" cy="107.1" r="0.76"/><path class="cls-9" d="M724.74,383.86a.77.77,0,0,1-.76-.75h0a.77.77,0,1,0,1.53.13v-.13h0A.77.77,0,0,1,724.74,383.86Z" transform="translate(-579.69 -276)"/><circle class="cls-39" cx="146.87" cy="107.1" r="0.76"/><path class="cls-9" d="M726.55,383.86a.75.75,0,0,1-.75-.75h0a.74.74,0,0,0,.75.76.76.76,0,0,0,.76-.76h0A.75.75,0,0,1,726.55,383.86Z" transform="translate(-579.69 -276)"/><circle class="cls-39" cx="148.66" cy="107.1" r="0.76"/><path class="cls-9" d="M728.35,383.86a.75.75,0,0,1-.76-.75h0a.77.77,0,0,0,.7.83.76.76,0,0,0,.82-.7.29.29,0,0,0,0-.13h0a.75.75,0,0,1-.76.75Z" transform="translate(-579.69 -276)"/><rect class="cls-40" x="143.58" y="108.95" width="31.86" height="0.07"/><path class="cls-9" d="M724.75,382.5a.61.61,0,1,1-.61.6A.6.6,0,0,1,724.75,382.5Z" transform="translate(-579.69 -276)"/><circle class="cls-10" cx="146.87" cy="107.1" r="0.61"/><circle class="cls-12" cx="148.66" cy="107.1" r="0.61"/><path class="cls-39" d="M724.75,385.55h0a.61.61,0,0,1,.6.61v9.33a.6.6,0,0,1-.6.6h0a.6.6,0,0,1-.61-.6v-9.33A.61.61,0,0,1,724.75,385.55Z" transform="translate(-579.69 -276)"/><path class="cls-9" d="M724.71,386.08h0a.24.24,0,0,1,.24.24v3.92a.24.24,0,0,1-.24.24h0a.25.25,0,0,1-.25-.24v-3.92A.24.24,0,0,1,724.71,386.08Z" transform="translate(-579.69 -276)"/><path class="cls-42" d="M733.07,386.83h-5.82a.09.09,0,0,1-.1-.1h0a.09.09,0,0,1,.1-.1h5.82a.09.09,0,0,1,.1.1A.1.1,0,0,1,733.07,386.83Z" transform="translate(-579.69 -276)"/><path class="cls-42" d="M734.32,386.83h-.79a.11.11,0,0,1-.1-.1.12.12,0,0,1,.1-.1h.79a.1.1,0,0,1,0,.2Z" transform="translate(-579.69 -276)"/><path class="cls-42" d="M742.25,386.83h-7.07a.1.1,0,0,1-.1-.1.12.12,0,0,1,.1-.1h7.07a.11.11,0,0,1,.1.1A.1.1,0,0,1,742.25,386.83Z" transform="translate(-579.69 -276)"/><path class="cls-42" d="M734.08,387.32h-6.83a.09.09,0,0,1-.1-.09.11.11,0,0,1,.09-.11h6.84a.1.1,0,0,1,.1.11A.1.1,0,0,1,734.08,387.32Z" transform="translate(-579.69 -276)"/><path class="cls-42" d="M740.68,387.23h-6a.1.1,0,0,1-.1-.1.11.11,0,0,1,.1-.1h6a.11.11,0,0,1,.09.1A.09.09,0,0,1,740.68,387.23Z" transform="translate(-579.69 -276)"/><path class="cls-42" d="M742.32,387.23h-1.21a.09.09,0,0,1-.09-.1.11.11,0,0,1,.09-.1h1.21a.1.1,0,0,1,0,.2Z" transform="translate(-579.69 -276)"/><path class="cls-42" d="M735.4,387.93h-7.9a.1.1,0,0,1-.1-.09.09.09,0,0,1,.1-.1h7.9a.1.1,0,0,1,.1.1A.11.11,0,0,1,735.4,387.93Z" transform="translate(-579.69 -276)"/><path class="cls-42" d="M741.72,387.93h-1.86a.11.11,0,0,1-.11-.09.1.1,0,0,1,.11-.1h1.86a.1.1,0,0,1,.1.09h0A.1.1,0,0,1,741.72,387.93Z" transform="translate(-579.69 -276)"/><path class="cls-42" d="M742.32,388.48h-9a.09.09,0,0,1-.09-.09.1.1,0,0,1,.09-.11h9a.1.1,0,0,1,.1.11A.1.1,0,0,1,742.32,388.48Z" transform="translate(-579.69 -276)"/><path class="cls-42" d="M735.63,389.23h-8.38a.09.09,0,0,1-.1-.1.11.11,0,0,1,.09-.1h8.39a.09.09,0,0,1,.1.1h0A.09.09,0,0,1,735.63,389.23Z" transform="translate(-579.69 -276)"/><path class="cls-42" d="M742.46,389.7h-9.12a.09.09,0,0,1-.09-.1h0a.1.1,0,0,1,.09-.1h9.12a.12.12,0,0,1,.1.1A.1.1,0,0,1,742.46,389.7Z" transform="translate(-579.69 -276)"/><path class="cls-42" d="M730.93,389.93h-2.5a.1.1,0,0,1-.1-.09.11.11,0,0,1,.09-.11h2.51a.1.1,0,0,1,.1.11A.09.09,0,0,1,730.93,389.93Z" transform="translate(-579.69 -276)"/><path class="cls-42" d="M729.2,388.48h-2a.09.09,0,0,1-.1-.09.11.11,0,0,1,.09-.11h2a.11.11,0,0,1,.1.11A.09.09,0,0,1,729.2,388.48Z" transform="translate(-579.69 -276)"/><path class="cls-39" d="M710.31,290.46h56.81v78.2a4.26,4.26,0,0,1-4.26,4.26H714.57a4.26,4.26,0,0,1-4.26-4.26h0v-78.2Z" transform="translate(-579.69 -276)"/><rect class="cls-39" x="138.17" y="25.3" width="45" height="39.37"/><rect class="cls-39" x="138.17" y="75.35" width="15.82" height="5.01"/><rect class="cls-39" x="156.37" y="75.35" width="26.8" height="5.01"/><rect class="cls-39" x="138.17" y="83.38" width="45" height="6.99"/><rect class="cls-39" x="130.62" y="14.46" width="56.82" height="8.43"/><circle class="cls-39" cx="134.02" cy="18.46" r="1.75"/><path class="cls-9" d="M713.71,296.21a1.74,1.74,0,0,1-1.75-1.7h0a1.75,1.75,0,1,0,3.5,0h0A1.75,1.75,0,0,1,713.71,296.21Z" transform="translate(-579.69 -276)"/><circle class="cls-39" cx="138.17" cy="18.46" r="1.75"/><path class="cls-9" d="M717.86,296.21a1.75,1.75,0,0,1-1.74-1.7h0a1.75,1.75,0,1,0,3.5,0h0A1.76,1.76,0,0,1,717.86,296.21Z" transform="translate(-579.69 -276)"/><circle class="cls-39" cx="142.3" cy="18.46" r="1.75"/><path class="cls-9" d="M722,296.21a1.74,1.74,0,0,1-1.75-1.7h0a1.75,1.75,0,0,0,3.5,0h0A1.74,1.74,0,0,1,722,296.21Z" transform="translate(-579.69 -276)"/><rect class="cls-40" x="130.62" y="22.73" width="56.82" height="0.16"/><circle class="cls-9" cx="134.02" cy="18.46" r="1.39"/><circle class="cls-10" cx="138.17" cy="18.46" r="1.39"/><circle class="cls-12" cx="142.3" cy="18.46" r="1.39"/><path class="cls-39" d="M713.71,300.1h0a1.38,1.38,0,0,1,1.38,1.38v66.71a1.38,1.38,0,0,1-1.38,1.39h0a1.39,1.39,0,0,1-1.39-1.39V301.48A1.38,1.38,0,0,1,713.71,300.1Z" transform="translate(-579.69 -276)"/><rect class="cls-9" x="133.37" y="25.3" width="1.11" height="10.13" rx="0.55"/><line class="cls-41" x1="139.92" y1="27.6" x2="158.88" y2="27.6"/><line class="cls-41" x1="160.68" y1="27.6" x2="163.76" y2="27.6"/><line class="cls-41" x1="167.16" y1="27.6" x2="180.61" y2="27.6"/><line class="cls-41" x1="139.92" y1="29.54" x2="162.84" y2="29.54"/><line class="cls-41" x1="165.11" y1="29.19" x2="174.42" y2="29.19"/><line class="cls-41" x1="176.15" y1="29.19" x2="180.89" y2="29.19"/><line class="cls-41" x1="140.91" y1="31.95" x2="168.01" y2="31.95"/><line class="cls-41" x1="171.19" y1="31.95" x2="178.52" y2="31.95"/><line class="cls-41" x1="180.89" y1="34.11" x2="159.94" y2="34.11"/><line class="cls-41" x1="168.93" y1="37.05" x2="139.92" y2="37.05"/><line class="cls-41" x1="159.94" y1="38.89" x2="181.39" y2="38.89"/><line class="cls-41" x1="158.22" y1="44.33" x2="140.58" y2="44.33"/><line class="cls-41" x1="139.92" y1="34.11" x2="147.62" y2="34.11"/><line class="cls-41" x1="152.29" y1="76.51" x2="146.98" y2="76.51"/><line class="cls-41" x1="151.8" y1="78.85" x2="139.55" y2="78.85"/><line class="cls-41" x1="157.74" y1="76.51" x2="159.94" y2="76.51"/><line class="cls-41" x1="161.74" y1="76.51" x2="163.93" y2="76.51"/><line class="cls-41" x1="165.74" y1="76.51" x2="167.94" y2="76.51"/><line class="cls-41" x1="169.74" y1="76.51" x2="171.94" y2="76.51"/><line class="cls-41" x1="173.74" y1="76.51" x2="175.93" y2="76.51"/><line class="cls-41" x1="177.74" y1="76.51" x2="179.93" y2="76.51"/><line class="cls-41" x1="157.74" y1="78.22" x2="159.16" y2="78.22"/><line class="cls-41" x1="161.03" y1="78.22" x2="162.45" y2="78.22"/><line class="cls-41" x1="164.32" y1="78.22" x2="165.74" y2="78.22"/><line class="cls-41" x1="167.61" y1="78.22" x2="169.03" y2="78.22"/><line class="cls-41" x1="170.91" y1="78.22" x2="172.33" y2="78.22"/><line class="cls-41" x1="174.2" y1="78.22" x2="175.62" y2="78.22"/><line class="cls-41" x1="177.49" y1="78.22" x2="178.91" y2="78.22"/><polyline class="cls-41" points="141.28 85.16 139.72 86.72 141.22 88.22"/><polyline class="cls-41" points="142.84 85.16 141.28 86.72 142.78 88.22"/><polyline class="cls-41" points="155.8 47.9 152.29 51.4 155.66 54.77"/><polyline class="cls-41" points="159.3 47.9 155.8 51.4 159.17 54.77"/><line class="cls-41" x1="146.7" y1="85.16" x2="179.93" y2="85.16"/><line class="cls-41" x1="146.7" y1="86.69" x2="166.84" y2="86.69"/><line class="cls-41" x1="146.7" y1="88.84" x2="166.84" y2="88.84"/><circle class="cls-41" cx="168.68" cy="49.58" r="6.94"/><path class="cls-41" d="M745.59,327.34a2.78,2.78,0,0,0,5.55,0Z" transform="translate(-579.69 -276)"/><path class="cls-41" d="M744.24,324.44a1.35,1.35,0,1,1,2.69,0" transform="translate(-579.69 -276)"/><path class="cls-41" d="M749.82,324.44a1.35,1.35,0,0,1,2.7,0" transform="translate(-579.69 -276)"/><line class="cls-41" x1="174.53" y1="56.29" x2="180.25" y2="56.29"/><path class="cls-38" d="M767.12,385.78a3.44,3.44,0,1,1,3.44-3.44,3.43,3.43,0,0,1-3.44,3.44Zm0-6.26a2.83,2.83,0,1,0,2.83,2.83A2.83,2.83,0,0,0,767.12,379.52Z" transform="translate(-579.69 -276)"/><path class="cls-38" d="M598.78,370.67a3.44,3.44,0,1,1,3.44-3.44A3.44,3.44,0,0,1,598.78,370.67Zm0-6.23a2.83,2.83,0,1,0,2.83,2.83,2.83,2.83,0,0,0-2.83-2.83h0Z" transform="translate(-579.69 -276)"/><rect class="cls-38" x="670.46" y="295.03" width="1.13" height="10.15" transform="translate(-595.36 286.38) rotate(-45)"/><rect class="cls-38" x="665.94" y="299.53" width="10.15" height="1.13" transform="translate(-595.35 286.38) rotate(-45)"/><path class="cls-38" d="M627.79,447,619.73,439l8.06-8.06,8.07,8.06ZM621.33,439l6.46,6.47,6.47-6.47-6.47-6.47Z" transform="translate(-579.69 -276)"/><path class="cls-38" d="M600.76,396.45l-8.07-8.06,8.07-8.07,8.06,8.07Zm-6.47-8.06,6.47,6.46,6.46-6.46-6.46-6.47Z" transform="translate(-579.69 -276)"/><path class="cls-38" d="M765.91,402.76l-4-4,4-4,4,4Zm-3.23-4,3.23,3.23,3.23-3.23-3.23-3.24Z" transform="translate(-579.69 -276)"/><polygon class="cls-38" points="202.79 86.78 198.05 82.04 202.79 77.29 203.28 77.79 199.04 82.04 203.28 86.29 202.79 86.78"/><polygon class="cls-38" points="206.44 86.78 201.7 82.04 206.44 77.29 206.94 77.79 202.69 82.04 206.94 86.29 206.44 86.78"/><polygon class="cls-38" points="118.91 50.54 114.17 45.79 118.91 41.05 119.41 41.54 115.16 45.79 119.41 50.04 118.91 50.54"/><polygon class="cls-38" points="122.57 50.54 117.82 45.79 122.57 41.05 123.06 41.54 118.81 45.79 123.06 50.04 122.57 50.54"/><path class="cls-38" d="M678.3,322.33H675a.87.87,0,0,1-.86-.87v-1.94h-.8a.81.81,0,0,1-.56-1.37l3.31-3.31a.8.8,0,0,1,1.13,0l3.32,3.31a.8.8,0,0,1,0,1.13.78.78,0,0,1-.58.24h-.79v1.94A.87.87,0,0,1,678.3,322.33Zm-1.65-7.16a.28.28,0,0,0-.17.07l-3.31,3.31a.24.24,0,0,0,0,.34.22.22,0,0,0,.15.06h1.37v2.51a.31.31,0,0,0,.29.3h3.31a.3.3,0,0,0,.3-.3h0V319H680a.25.25,0,0,0,.23-.25.18.18,0,0,0-.07-.15l-3.31-3.32a.23.23,0,0,0-.16-.06Z" transform="translate(-579.69 -276)"/><path class="cls-38" d="M779.39,340.33h-3.31a.86.86,0,0,1-.86-.86v-2h-.8a.8.8,0,0,1-.8-.81.8.8,0,0,1,.24-.56l3.31-3.3a.79.79,0,0,1,1.12,0v0l3.31,3.3a.81.81,0,0,1,0,1.14.79.79,0,0,1-.56.23h-.8v2A.87.87,0,0,1,779.39,340.33Zm-1.65-7.16a.24.24,0,0,0-.17.07l-3.31,3.31a.24.24,0,0,0,0,.34.26.26,0,0,0,.15.07h1.36v2.51a.31.31,0,0,0,.3.3h3.31a.3.3,0,0,0,.29-.3h0V337h1.37a.25.25,0,0,0,.23-.25.26.26,0,0,0-.07-.16l-3.31-3.31a.24.24,0,0,0-.16-.07Z" transform="translate(-579.69 -276)"/></svg>