<svg id="Слой_1" data-name="Слой 1" xmlns="http://www.w3.org/2000/svg" viewBox="0 0 30.91 33.9"><defs><style>.cls-1{fill:#fff;fill-rule:evenodd;}</style></defs><title>yii-logo</title><g id="g4185"><path id="path4187" class="cls-1" d="M688.18,376.55c-1.57-4.51,3-9.35,6.76-9.49,2.25,1.17,4.18,4.26,4.08,8.44-.29,5.16-3.94,9.6-7.91,13.69-.22-5-1.28-8.17-2.93-12.64" transform="translate(-668.12 -367.06)"/></g><path id="path4191" class="cls-1" d="M679.32,401A16.51,16.51,0,0,1,682.76,389a23.5,23.5,0,0,0,2.27-3.38,13.41,13.41,0,0,1,5.51,4.4c-.23,3.54-2.84,10-11.22,10.93" transform="translate(-668.12 -367.06)"/><g id="g4193"><path id="path4195" class="cls-1" d="M676.16,381.84c-6.67-1.86-8.31-7.71-8-11.65,6.47-2.62,13.43.06,17.45,5.66a27.85,27.85,0,0,1,4.95,13.35,15.64,15.64,0,0,0-7.49-5.19c-2.13-.79-4.1-1.31-6.9-2.17" transform="translate(-668.12 -367.06)"/></g></svg>